<svg version="1.1" id="Layer_1" xmlns="http://www.w3.org/2000/svg" xmlns:xlink="http://www.w3.org/1999/xlink" x="0px" y="0px"
	 viewBox="0 0 300 300" enable-background="new 0 0 300 300" xml:space="preserve">
<path d="M149.5,0h1v15.1h-1V0z M135.4,15.9l1-0.1l-1.6-15.1l-1,0.1L135.4,15.9z M121.4,18.2l1-0.2l-3.1-14.8l-1,0.2L121.4,18.2z
	 M107.7,21.9l1-0.3L104,7.2l-1,0.3L107.7,21.9z M94.5,27l0.9-0.4l-6.2-13.8l-0.9,0.4L94.5,27z M82,33.5l0.9-0.5l-7.6-13.1l-0.9,0.5
	L82,33.5z M70.1,41.3l0.8-0.6L62,28.4L61.2,29L70.1,41.3z M59.1,50.2l0.7-0.7L49.8,38.3L49,39L59.1,50.2z M49.2,60.3l0.7-0.7
	L38.6,49.4l-0.7,0.7L49.2,60.3z M40.3,71.3l0.6-0.8l-12.2-8.9l-0.6,0.8L40.3,71.3z M32.6,83.2l0.5-0.9L20,74.8l-0.5,0.9L32.6,83.2z
	 M26.3,95.8l0.4-0.9l-13.8-6.2l-0.4,0.9L26.3,95.8z M21.2,109.1l0.3-1l-14.4-4.7l-0.3,1L21.2,109.1z M17.6,122.7l0.2-1L3,118.6
	l-0.2,1L17.6,122.7z M15.5,136.7l0.1-1l-15.1-1.6l-0.1,1L15.5,136.7z M14.8,150.9v-1H-0.4v1H14.8z M15.6,165l-0.1-1l-15.1,1.6l0.1,1
	L15.6,165z M17.8,179l-0.2-1l-14.8,3.1l0.2,1L17.8,179z M21.5,192.6l-0.3-1l-14.4,4.7l0.3,1L21.5,192.6z M26.7,205.8l-0.4-0.9
	l-13.8,6.2l0.4,0.9L26.7,205.8z M33.1,218.4l-0.5-0.9l-13.1,7.6L20,226L33.1,218.4z M40.9,230.3l-0.6-0.8l-12.2,8.9l0.6,0.8
	L40.9,230.3z M49.8,241.2l-0.7-0.7l-11.3,10.1l0.7,0.7L49.8,241.2z M59.9,251.2l-0.7-0.7L49,261.8l0.7,0.7L59.9,251.2z M70.9,260.1
	l-0.8-0.6l-8.9,12.2l0.8,0.6L70.9,260.1z M82.8,267.7l-0.9-0.5l-7.6,13.1l0.9,0.5L82.8,267.7z M95.5,274.1l-0.9-0.4l-6.2,13.8
	l0.9,0.4L95.5,274.1z M108.7,279.1l-1-0.3l-4.7,14.4l1,0.3L108.7,279.1z M122.4,282.7l-1-0.2l-3.1,14.8l1,0.2L122.4,282.7z
	 M136.4,284.9l-1-0.1l-1.6,15.1l1,0.1L136.4,284.9z M150.5,285.6h-1v15.1h1V285.6z M164.6,284.8l-1,0.1l1.6,15.1l1-0.1L164.6,284.8z
	 M178.6,282.5l-1,0.2l3.1,14.8l1-0.2L178.6,282.5z M192.3,278.8l-1,0.3l4.7,14.4l1-0.3L192.3,278.8z M205.5,273.7l-0.9,0.4l6.2,13.8
	l0.9-0.4L205.5,273.7z M218,267.2l-0.9,0.5l7.6,13.1l0.9-0.5L218,267.2z M229.9,259.5l-0.8,0.6l8.9,12.2l0.8-0.6L229.9,259.5z
	 M240.9,250.5l-0.7,0.7l10.1,11.3l0.7-0.7L240.9,250.5z M250.8,240.5l-0.7,0.7l11.3,10.1l0.7-0.7L250.8,240.5z M259.7,229.4
	l-0.6,0.8l12.2,8.9l0.6-0.8L259.7,229.4z M267.4,217.6l-0.5,0.9L280,226l0.5-0.9L267.4,217.6z M273.7,204.9l-0.4,0.9l13.8,6.2
	l0.4-0.9L273.7,204.9z M278.8,191.7l-0.3,1l14.4,4.7l0.3-1L278.8,191.7z M282.4,178l-0.2,1l14.8,3.1l0.2-1L282.4,178z M284.5,164
	l-0.1,1l15.1,1.6l0.1-1L284.5,164z M285.2,149.9v1h15.1v-1H285.2z M284.4,135.7l0.1,1l15.1-1.6l-0.1-1L284.4,135.7z M282.2,121.8
	l0.2,1l14.8-3.1l-0.2-1L282.2,121.8z M278.5,108.1l0.3,1l14.4-4.7l-0.3-1L278.5,108.1z M273.3,94.9l0.4,0.9l13.8-6.2l-0.4-0.9
	L273.3,94.9z M266.9,82.3l0.5,0.9l13.1-7.6l-0.5-0.9L266.9,82.3z M259.1,70.5l0.6,0.8l12.2-8.9l-0.6-0.8L259.1,70.5z M250.2,59.5
	l0.7,0.7l11.3-10.1l-0.7-0.7L250.2,59.5z M240.1,49.5l0.7,0.7L251,39l-0.7-0.7L240.1,49.5z M229.1,40.7l0.8,0.6l8.9-12.2l-0.8-0.6
	L229.1,40.7z M217.2,33l0.9,0.5l7.6-13.1l-0.9-0.5L217.2,33z M204.5,26.6l0.9,0.4l6.2-13.8l-0.9-0.4L204.5,26.6z M191.3,21.6l1,0.3
	l4.7-14.4l-1-0.3L191.3,21.6z M177.6,18l1,0.2l3.1-14.8l-1-0.2L177.6,18z M163.6,15.8l1,0.1l1.6-15.1l-1-0.1L163.6,15.8z"/>
<path d="M150.5,50h-1V0h1V50z M75.2,19.9l-0.9,0.5l25,43.3l0.9-0.5L75.2,19.9z M20,74.8l-0.5,0.9l43.3,25l0.5-0.9L20,74.8z
	 M-0.4,149.9v1h50v-1H-0.4z M19.5,225.1L20,226l43.3-25l-0.5-0.9L19.5,225.1z M74.4,280.3l0.9,0.5l25-43.3l-0.9-0.5L74.4,280.3z
	 M149.5,300.7h1v-50h-1V300.7z M224.8,280.8l0.9-0.5l-25-43.3l-0.9,0.5L224.8,280.8z M280,226l0.5-0.9l-43.3-25l-0.5,0.9L280,226z
	 M300.4,150.9v-1h-50v1H300.4z M280.5,75.6l-0.5-0.9l-43.3,25l0.5,0.9L280.5,75.6z M225.6,20.4l-0.9-0.5l-25,43.3l0.9,0.5
	L225.6,20.4z"/>
<path fill="#C3DB98" stroke="#000000" stroke-miterlimit="10" d="M143.3,12.7L143.3,12.7c-2.8,0-5-2.2-5-4.9v0
	c0-2.7,2.2-4.9,4.9-4.9h0.1c2.7,0,4.9,2.2,4.9,4.9v0C148.2,10.5,146,12.7,143.3,12.7z"/>
<path fill="#C3DB98" stroke="#000000" stroke-miterlimit="10" d="M156.7,12.7L156.7,12.7c-2.8,0-5-2.2-5-4.9v0
	c0-2.7,2.2-4.9,4.9-4.9h0.1c2.7,0,4.9,2.2,4.9,4.9v0C161.6,10.5,159.4,12.7,156.7,12.7z"/>
<path fill="#C3DB98" stroke="#000000" stroke-miterlimit="10" d="M292.5,155.3L292.5,155.3c-2.8,0-5-2.2-5-4.9l0,0
	c0-2.7,2.2-4.9,4.9-4.9h0.1c2.7,0,4.9,2.2,4.9,4.9l0,0C297.4,153.1,295.2,155.3,292.5,155.3z"/>
<path fill="#C3DB98" stroke="#000000" stroke-miterlimit="10" d="M150,297L150,297c-2.8,0-5-2.2-5-4.9l0,0c0-2.7,2.2-4.9,4.9-4.9
	h0.1c2.7,0,4.9,2.2,4.9,4.9l0,0C155,294.8,152.7,297,150,297z"/>
<path fill="#C3DB98" stroke="#000000" stroke-miterlimit="10" d="M7,155.3L7,155.3c-2.8,0-5-2.2-5-4.9l0,0c0-2.7,2.2-4.9,4.9-4.9H7
	c2.7,0,4.9,2.2,4.9,4.9l0,0C11.9,153.1,9.7,155.3,7,155.3z"/>
</svg>
