<?xml version="1.0" encoding="UTF-8"?>
<svg width="62px" height="59px" viewBox="0 0 62 59" version="1.1" xmlns="http://www.w3.org/2000/svg" xmlns:xlink="http://www.w3.org/1999/xlink">
    <!-- Generator: Sketch 52.3 (67297) - http://www.bohemiancoding.com/sketch -->
    <title>Group</title>
    <desc>Created with Sketch.</desc>
    <g id="Page-1" stroke="none" stroke-width="1" fill="none" fill-rule="evenodd">
        <g id="Desktop-HD-Copy" transform="translate(-209.000000, -322.000000)" fill="#f7e3bb">
            <g id="noun_Barber-Shop_1940259" transform="translate(209.000000, 322.000000)">
                <g id="Group">
                    <path d="M10,13.007 L23.382,13.007 C24.085,12.392 24.994,12.007 26,12.007 C26.506,12.007 26.986,12.111 27.431,12.283 L28.545,10.723 C28.288,10.356 28.118,9.929 28.046,9.468 L26.039,7.462 L25.893,6.007 L10,6.007 L10,13.007 Z" id="Path"></path>
                    <polygon id="Path" points="24 26.007 25.586 26.007 24 24.421"></polygon>
                    <polygon id="Path" points="8 4.007 25.695 4.007 25.495 2.007 6 2.007 6 13.007 8 13.007"></polygon>
                    <path d="M22.142,17.007 C22.058,16.685 22,16.354 22,16.007 C22,15.66 22.058,15.329 22.142,15.007 L2,15.007 L2,17.007 L6,17.007 L22.142,17.007 Z" id="Path"></path>
                    <path d="M26,14.007 C24.897,14.007 24,14.904 24,16.007 C24,16.373 24.106,16.712 24.278,17.007 L27.721,17.007 C27.893,16.712 27.999,16.373 27.999,16.007 C28,14.905 27.103,14.007 26,14.007 Z" id="Path"></path>
                    <path d="M28.615,7.208 C28.891,6.844 29.245,6.548 29.656,6.34 L27.365,0.614 L27.96,6.552 L28.615,7.208 Z" id="Path"></path>
                    <circle id="Oval" cx="31" cy="9.007" r="1"></circle>
                    <polygon id="Path" points="54 13.007 56 13.007 56 2.007 36.505 2.007 36.305 4.007 54 4.007"></polygon>
                    <path d="M56,17.007 L60,17.007 L60,15.007 L39.858,15.007 C39.942,15.329 40,15.66 40,16.007 C40,16.354 39.942,16.685 39.858,17.007 L56,17.007 Z" id="Path"></path>
                    <path d="M34,16.007 C34,16.373 34.106,16.712 34.278,17.007 L37.721,17.007 C37.893,16.712 37.999,16.373 37.999,16.007 C37.999,14.904 37.102,14.007 35.999,14.007 C34.896,14.007 34,14.905 34,16.007 Z" id="Path"></path>
                    <path d="M33.385,7.208 L34.04,6.553 L34.635,0.615 L32.344,6.341 C32.755,6.548 33.109,6.843 33.385,7.208 Z" id="Path"></path>
                    <path d="M31.822,11.878 C31.559,11.954 31.287,12.007 31,12.007 C30.713,12.007 30.441,11.954 30.178,11.878 L29.053,13.453 C29.635,14.148 30,15.032 30,16.007 C30,16.354 29.942,16.685 29.858,17.007 L32.142,17.007 C32.058,16.685 32,16.354 32,16.007 C32,15.031 32.365,14.148 32.947,13.453 L31.822,11.878 Z" id="Path"></path>
                    <path d="M33.454,10.723 L34.568,12.283 C35.014,12.111 35.494,12.007 35.999,12.007 C37.005,12.007 37.914,12.392 38.617,13.007 L52,13.007 L52,6.007 L36.105,6.007 L35.959,7.462 L33.952,9.468 C33.882,9.929 33.711,10.356 33.454,10.723 Z" id="Path"></path>
                    <rect id="Rectangle" x="48" y="38.007" width="2" height="2"></rect>
                    <path d="M50,34.007 C50,33.455 49.552,33.007 49,33.007 C48.448,33.007 48,33.455 48,34.007 L48,36.007 L50,36.007 L50,34.007 Z" id="Path"></path>
                    <rect id="Rectangle" x="48" y="42.007" width="2" height="2"></rect>
                    <path d="M54,19.007 L44,19.007 L44,56.007 L42,56.007 L42,19.007 L38.618,19.007 C37.915,19.622 37.006,20.007 36,20.007 C34.994,20.007 34.085,19.622 33.382,19.007 L28.618,19.007 C27.915,19.622 27.006,20.007 26,20.007 C24.994,20.007 24.085,19.622 23.382,19.007 L20,19.007 L20,56.007 L18,56.007 L18,19.007 L8,19.007 L8,56.007 L4,56.007 L4,58.007 L58,58.007 L58,56.007 L54,56.007 L54,19.007 Z M22,22.007 L40,22.007 L40,28.007 L22,28.007 L22,22.007 Z M38,56.007 L38,36.007 L32,36.007 L32,56.007 L30,56.007 L30,36.007 L24,36.007 L24,56.007 L22,56.007 L22,34.007 L40,34.007 L40,56.007 L38,56.007 Z M34,46.007 L34,44.007 L36,44.007 L36,46.007 L34,46.007 Z M26,46.007 L26,44.007 L28,44.007 L28,46.007 L26,46.007 Z M46,34.007 C46,32.353 47.346,31.007 49,31.007 C50.654,31.007 52,32.353 52,34.007 L52,48.007 C52,49.661 50.654,51.007 49,51.007 C47.346,51.007 46,49.661 46,48.007 L46,34.007 Z" id="Shape" fill-rule="nonzero"></path>
                    <path d="M49,49.007 C49.552,49.007 50,48.559 50,48.007 L50,46.007 L48,46.007 L48,48.007 C48,48.559 48.448,49.007 49,49.007 Z" id="Path"></path>
                    <polygon id="Path" points="26.414 24.007 28.414 26.007 30.586 26.007 28.586 24.007"></polygon>
                    <polygon id="Path" points="31.414 24.007 33.414 26.007 35.586 26.007 33.586 24.007"></polygon>
                    <polygon id="Path" points="38 25.593 38 24.007 36.414 24.007"></polygon>
                    <rect id="Rectangle" x="0" y="56.007" width="2" height="2"></rect>
                    <rect id="Rectangle" x="60" y="56.007" width="2" height="2"></rect>
                </g>
            </g>
        </g>
    </g>
</svg>