<?xml version="1.0" encoding="UTF-8"?>
<svg width="68px" height="59px" viewBox="0 0 68 59" version="1.1" xmlns="http://www.w3.org/2000/svg" xmlns:xlink="http://www.w3.org/1999/xlink">
    <!-- Generator: Sketch 52.3 (67297) - http://www.bohemiancoding.com/sketch -->
    <title>noun_Telephone_486303</title>
    <desc>Created with Sketch.</desc>
    <g id="Page-1" stroke="none" stroke-width="1" fill="none" fill-rule="evenodd">
        <g id="Desktop-HD-Copy" transform="translate(-1095.000000, -568.000000)" fill="#f7e3bb">
            <g id="noun_Telephone_486303" transform="translate(1095.000000, 568.000000)">
                <path d="M45.2824566,20.9246069 L45.2824566,16.8413593 C45.2824566,14.3795465 43.3109195,12.3755686 40.884873,12.3755686 C38.4618217,12.3755686 36.488787,14.3795465 36.488787,16.8413593 L36.488787,20.0112189 L30.8497266,20.0112189 L30.8497266,16.8413593 C30.8497266,14.3795465 28.8774406,12.3755686 26.4536405,12.3755686 C24.0275941,12.3755686 22.0560569,14.3795465 22.0560569,16.8413593 L22.0560569,20.9246069 L11.9767324,33.6139322 C11.5379475,34.1653113 11.2316966,35.0475179 11.2316966,35.7555647 L11.2316966,53.7959293 C11.2316966,56.1292137 13.1021484,58.029 15.4009023,58.029 L51.9361137,58.029 C54.2341188,58.029 56.1045707,56.1292137 56.1045707,53.7959293 L56.1045707,35.7555647 C56.1053194,35.0467574 55.7998173,34.1645508 55.3610324,33.6154532 L45.2824566,20.9246069 Z M33.6688824,50.435939 C27.264569,50.435939 22.0553081,45.1449809 22.0553081,38.6394677 C22.0553081,32.1369966 27.264569,26.8445175 33.6688824,26.8445175 C40.0731958,26.8445175 45.2824566,32.1369966 45.2824566,38.6394677 C45.2824566,45.1449809 40.0731958,50.435939 33.6688824,50.435939 Z" id="Shape" fill-rule="nonzero"></path>
                <path d="M33.4891753,32.149165 C29.8875446,32.149165 26.9560717,35.1273728 26.9560717,38.7854881 C26.9560717,42.445885 29.8875446,45.4218113 33.4891753,45.4218113 C37.0915547,45.4218113 40.0222788,42.4466455 40.0222788,38.7854881 C40.0222788,35.1273728 37.0915547,32.149165 33.4891753,32.149165 Z" id="Path"></path>
                <path d="M47.9276933,18.5867594 C47.8737811,19.0932677 48.2017467,19.5609893 48.6921974,19.6788704 L63.4761052,23.229752 C63.9253731,23.3377462 64.3866214,23.1209972 64.595531,22.7057517 L66.4030854,19.1191255 L48.3312856,14.6571374 L47.9276933,18.5867594 Z" id="Path"></path>
                <path d="M65.7278306,10.0209896 C64.5709659,7.71888667 53.9854663,0.207201616 33.6935345,0.207201616 C18.9792632,0.208722662 6.85277483,4.07065814 3.66222422,7.31124637 C2.58547891,8.40487836 1.98121364,9.38899504 1.66223346,10.0232712 C0.500127251,12.3390635 -0.391669456,15.4534049 0.17515683,17.9015283 L18.5876514,13.3528406 C18.558449,13.2874356 18.5299954,13.2227912 18.5007929,13.1558651 C18.0440373,12.1352434 17.9519374,11.7344478 18.3106029,11.3709178 C18.8901584,10.7830336 26.2139734,9.79587481 33.6950321,9.79435376 C41.9780339,9.79511428 48.8742956,11.0043458 49.2037587,11.5237829 C49.4291414,11.8797077 49.2172367,12.4250026 48.8892712,13.1543441 C48.85932,13.2212701 48.8308663,13.2866751 48.8024127,13.3528406 L67.2156561,17.8992467 C67.7824823,15.4503628 66.8906856,12.3367819 65.7278306,10.0209896 Z" id="Path"></path>
                <path d="M19.2249206,18.5852384 L18.8205795,14.6571374 L0.748779771,19.1206465 L2.55708292,22.7065122 C2.76749003,23.1217577 3.22798959,23.3385067 3.67650867,23.231273 L18.4611652,19.6773493 C18.9508672,19.5602288 19.2773352,19.0925072 19.2249206,18.5852384 Z" id="Path"></path>
            </g>
        </g>
    </g>
</svg>