<?xml version="1.0" encoding="UTF-8"?>
<svg width="58px" height="58px" viewBox="0 0 58 58" version="1.1" xmlns="http://www.w3.org/2000/svg" xmlns:xlink="http://www.w3.org/1999/xlink">
    <!-- Generator: Sketch 52.3 (67297) - http://www.bohemiancoding.com/sketch -->
    <title>noun_scissor_1940250</title>
    <desc>Created with Sketch.</desc>
    <g id="Page-1" stroke="none" stroke-width="1" fill="none" fill-rule="evenodd">
        <g id="Desktop-HD-Copy" transform="translate(-1051.000000, -85.000000)" fill="#f7e3bb">
            <g id="noun_scissor_1940250" transform="translate(1051.000000, 85.000000)">
                <g id="Group">
                    <path d="M38.007,9.637 C35.596,7.317 32.383,6.007 29,6.007 C23.382,6.007 18.519,9.534 16.726,14.732 L26.825,14.017 L33.615,12.078 L38.007,9.637 Z" id="Path"></path>
                    <path d="M29,4.007 C33.108,4.007 36.984,5.693 39.808,8.637 L42.02,7.408 C42.064,6.745 42.187,6.104 42.368,5.487 C38.8,1.958 34.093,0.007 29.062,0.007 L28.937,0.007 C19.95,0.007 12.16,6.467 10.394,15.18 L14.587,14.883 C16.417,8.446 22.232,4.007 29,4.007 Z" id="Path"></path>
                    <path d="M29.4,15.346 L27.071,16.004 L1.063,17.845 C0.889,17.859 0.732,17.922 0.587,18.007 L27.141,18.007 C27.452,16.814 28.289,15.834 29.4,15.346 Z" id="Path"></path>
                    <path d="M30.377,15.07 C30.582,15.038 30.787,15.007 31,15.007 C32.352,15.007 33.545,15.685 34.269,16.715 L44.605,10.992 L45.112,11.781 C46.635,14.154 49.428,15.378 52.236,14.902 C55.21,14.396 57.614,11.841 57.954,8.827 C58.183,6.799 57.568,4.852 56.223,3.346 C54.895,1.86 52.991,1.007 51,1.007 C47.141,1.007 44,4.148 44,8.007 L44,8.596 L34.274,13.969 L30.377,15.07 Z M51,3.007 C53.757,3.007 56,5.25 56,8.007 C56,10.764 53.757,13.007 51,13.007 C48.243,13.007 46,10.764 46,8.007 C46,5.25 48.243,3.007 51,3.007 Z" id="Shape" fill-rule="nonzero"></path>
                    <path d="M29.37,22.652 C28.274,22.16 27.449,21.189 27.142,20.007 L0.592,20.007 C0.738,20.092 0.897,20.155 1.074,20.169 L27.275,22.045 L29.37,22.652 Z" id="Path"></path>
                    <path d="M41.381,22.951 C41.785,21.681 42,20.361 42,19.008 C42,17.655 41.785,16.334 41.381,15.064 L34.961,18.619 C34.973,18.748 35,18.874 35,19.007 C35,19.14 34.973,19.266 34.961,19.396 L41.381,22.951 Z" id="Path"></path>
                    <path d="M29,19.007 C29,20.11 29.897,21.007 31,21.007 C32.103,21.007 33,20.11 33,19.007 C33,17.904 32.103,17.007 31,17.007 C29.897,17.007 29,17.905 29,19.007 Z M32,20.007 L30,20.007 L30,18.007 L32,18.007 L32,20.007 Z" id="Shape" fill-rule="nonzero"></path>
                    <path d="M43.977,24.388 C44.992,23.115 46.318,22.167 47.805,21.601 C47.929,20.72 48,19.828 48,18.945 C48,18.099 47.936,17.251 47.825,16.418 C46.334,15.856 45,14.904 43.978,13.626 L43.155,14.082 C43.706,15.662 44.001,17.312 44.001,19.008 C44.001,20.703 43.706,22.353 43.155,23.933 L43.977,24.388 Z" id="Path"></path>
                    <path d="M16.726,23.283 C18.52,28.48 23.382,32.007 29,32.007 C32.384,32.007 35.596,30.698 38.007,28.377 L33.615,25.936 L26.825,23.997 L16.726,23.283 Z" id="Path"></path>
                    <path d="M39.808,29.378 C36.985,32.321 33.109,34.008 29,34.008 C22.233,34.008 16.417,29.57 14.588,23.132 L10.421,22.837 C10.798,24.633 11.416,26.362 12.294,27.981 L28.401,57.652 C28.639,58.091 29.359,58.091 29.599,57.652 L42.71,33.498 C42.327,32.587 42.085,31.615 42.019,30.608 L39.808,29.378 Z M26,40.007 L24,40.007 L24,38.007 L26,38.007 L26,40.007 Z M30,40.007 L28,40.007 L28,38.007 L30,38.007 L30,40.007 Z M34,40.007 L32,40.007 L32,38.007 L34,38.007 L34,40.007 Z" id="Shape" fill-rule="nonzero"></path>
                    <path d="M51,23.007 C48.609,23.007 46.408,24.213 45.111,26.234 L44.604,27.023 L34.268,21.3 C33.544,22.33 32.351,23.008 30.999,23.008 C30.787,23.008 30.582,22.977 30.379,22.945 L34.484,24.134 L44,29.418 L44,30.007 C44,32.106 44.93,34.075 46.551,35.411 C48.171,36.747 50.308,37.275 52.414,36.869 C55.143,36.339 57.332,34.149 57.862,31.421 C58.271,29.315 57.74,27.178 56.404,25.558 C55.068,23.937 53.099,23.007 51,23.007 Z M51,35.007 C48.243,35.007 46,32.764 46,30.007 C46,27.25 48.243,25.007 51,25.007 C53.757,25.007 56,27.25 56,30.007 C56,32.764 53.757,35.007 51,35.007 Z" id="Shape" fill-rule="nonzero"></path>
                </g>
            </g>
        </g>
    </g>
</svg>