<?xml version="1.0" encoding="UTF-8"?>
<svg width="49px" height="47px" viewBox="0 0 49 47" version="1.1" xmlns="http://www.w3.org/2000/svg" xmlns:xlink="http://www.w3.org/1999/xlink">
    <!-- Generator: Sketch 52.3 (67297) - http://www.bohemiancoding.com/sketch -->
    <title>noun_facebook profile_1703547</title>
    <desc>Created with Sketch.</desc>
    <g id="Page-1" stroke="none" stroke-width="1" fill="none" fill-rule="evenodd">
        <g id="Desktop-HD-Copy" transform="translate(-576.000000, -91.000000)" fill="#f7e3bb">
            <g id="noun_facebook-profile_1703547" transform="translate(576.000000, 91.000000)">
                <path d="M16.469,22.866 L16.469,29 C16.469,29.276 16.245,29.5 15.969,29.5 L2.702,29.5 C2.426,29.5 2.202,29.276 2.202,29 L2.202,22.866 L0,22.866 L0,46.5 C0,46.776 0.224,47 0.5,47 L19.25,47 L19.25,28.083 C19.25,27.807 19.474,27.583 19.75,27.583 C20.026,27.583 20.25,27.807 20.25,28.083 L20.25,47 L48.5,47 C48.776,47 49,46.776 49,46.5 L49,22.866 L16.469,22.866 Z M32.709,43.75 L24.5,43.75 C24.224,43.75 24,43.526 24,43.25 C24,42.974 24.224,42.75 24.5,42.75 L32.709,42.75 C32.985,42.75 33.209,42.974 33.209,43.25 C33.209,43.526 32.985,43.75 32.709,43.75 Z M41.542,39.75 L24.5,39.75 C24.224,39.75 24,39.526 24,39.25 C24,38.974 24.224,38.75 24.5,38.75 L41.542,38.75 C41.818,38.75 42.042,38.974 42.042,39.25 C42.042,39.526 41.818,39.75 41.542,39.75 Z M24,35.25 C24,34.974 24.224,34.75 24.5,34.75 L40.375,34.75 C40.651,34.75 40.875,34.974 40.875,35.25 C40.875,35.526 40.651,35.75 40.375,35.75 L24.5,35.75 C24.224,35.75 24,35.526 24,35.25 Z M43,31.75 L24.5,31.75 C24.224,31.75 24,31.526 24,31.25 C24,30.974 24.224,30.75 24.5,30.75 L43,30.75 C43.276,30.75 43.5,30.974 43.5,31.25 C43.5,31.526 43.276,31.75 43,31.75 Z" id="Shape" fill-rule="nonzero"></path>
                <path d="M0,21.866 L2.202,21.866 L2.202,15.733 C2.202,15.457 2.426,15.233 2.702,15.233 L15.969,15.233 C16.245,15.233 16.469,15.457 16.469,15.733 L16.469,21.866 L49,21.866 L49,5.167 L0,5.167 L0,21.866 Z M19.278,18.937 C19.288,18.904 19.299,18.873 19.316,18.843 C19.323,18.83 19.324,18.816 19.332,18.803 L26.499,7.877 C26.509,7.863 26.523,7.855 26.533,7.842 C26.544,7.829 26.548,7.814 26.559,7.801 C26.57,7.788 26.587,7.784 26.6,7.773 C26.627,7.75 26.657,7.73 26.688,7.713 C26.714,7.7 26.739,7.689 26.766,7.68 C26.799,7.669 26.832,7.663 26.868,7.659 C26.897,7.656 26.926,7.656 26.955,7.658 C26.988,7.661 27.019,7.667 27.052,7.676 C27.084,7.685 27.114,7.697 27.143,7.713 C27.16,7.721 27.176,7.723 27.192,7.733 C27.206,7.742 27.213,7.757 27.226,7.767 C27.24,7.777 27.255,7.782 27.267,7.793 L33.009,13.412 L37.098,10.016 C37.12,9.997 37.148,9.99 37.172,9.976 C37.2,9.959 37.227,9.94 37.257,9.93 C37.289,9.919 37.321,9.917 37.355,9.913 C37.385,9.909 37.415,9.902 37.445,9.904 C37.48,9.906 37.511,9.917 37.546,9.926 C37.574,9.934 37.603,9.938 37.63,9.95 C37.661,9.965 37.688,9.989 37.716,10.01 C37.737,10.026 37.762,10.035 37.78,10.055 L46.03,18.731 C46.047,18.749 46.053,18.771 46.067,18.79 C46.09,18.823 46.116,18.853 46.13,18.891 C46.146,18.93 46.149,18.971 46.154,19.012 C46.157,19.034 46.167,19.054 46.167,19.076 C46.167,19.078 46.166,19.08 46.166,19.082 C46.165,19.13 46.151,19.176 46.138,19.222 C46.133,19.239 46.133,19.257 46.126,19.273 C46.118,19.292 46.102,19.307 46.092,19.325 C46.069,19.364 46.047,19.403 46.016,19.434 C46.014,19.435 46.014,19.437 46.012,19.439 C45.991,19.46 45.964,19.469 45.94,19.485 C45.913,19.504 45.887,19.526 45.856,19.539 C45.795,19.564 45.732,19.577 45.668,19.577 L19.75,19.577 C19.75,19.577 19.75,19.577 19.75,19.577 C19.75,19.577 19.75,19.577 19.749,19.577 C19.659,19.577 19.578,19.546 19.505,19.504 C19.496,19.499 19.484,19.501 19.476,19.495 C19.462,19.486 19.454,19.471 19.441,19.461 C19.414,19.439 19.39,19.416 19.368,19.389 C19.347,19.365 19.331,19.34 19.316,19.312 C19.301,19.284 19.29,19.256 19.28,19.226 C19.27,19.193 19.263,19.161 19.26,19.127 C19.258,19.11 19.25,19.095 19.25,19.078 C19.25,19.063 19.257,19.05 19.259,19.035 C19.262,19.001 19.269,18.969 19.278,18.937 Z M15.969,6.625 C17.75,6.625 19.199,8.074 19.199,9.855 C19.199,11.636 17.75,13.085 15.969,13.085 C14.188,13.085 12.739,11.636 12.739,9.855 C12.739,8.074 14.188,6.625 15.969,6.625 Z" id="Shape" fill-rule="nonzero"></path>
                <polygon id="Path" points="44.502 18.577 37.377 11.084 33.728 14.115 38.287 18.577"></polygon>
                <polygon id="Path" points="36.857 18.577 27.002 8.933 20.676 18.577"></polygon>
                <circle id="Oval" cx="3.203" cy="2.521" r="1"></circle>
                <path d="M49,4.167 L49,0.5 C49,0.224 48.776,0 48.5,0 L0.5,0 C0.224,0 0,0.224 0,0.5 L0,4.167 L49,4.167 Z M9.437,1.555 C9.632,1.36 9.949,1.36 10.144,1.555 L10.404,1.815 L10.663,1.555 C10.858,1.36 11.175,1.36 11.37,1.555 C11.565,1.75 11.565,2.067 11.37,2.262 L11.111,2.522 L11.37,2.781 C11.565,2.976 11.565,3.293 11.37,3.488 C11.272,3.586 11.144,3.634 11.016,3.634 C10.888,3.634 10.76,3.585 10.662,3.488 L10.403,3.229 L10.144,3.488 C10.046,3.586 9.918,3.634 9.79,3.634 C9.662,3.634 9.534,3.585 9.436,3.488 C9.241,3.293 9.241,2.976 9.436,2.781 L9.695,2.522 L9.435,2.262 C9.241,2.066 9.241,1.75 9.437,1.555 Z M6.057,2.021 L7.79,2.021 C8.066,2.021 8.29,2.245 8.29,2.521 C8.29,2.797 8.066,3.021 7.79,3.021 L6.057,3.021 C5.781,3.021 5.557,2.797 5.557,2.521 C5.557,2.245 5.78,2.021 6.057,2.021 Z M3.203,1.167 C3.949,1.167 4.557,1.774 4.557,2.521 C4.557,3.268 3.95,3.875 3.203,3.875 C2.456,3.875 1.849,3.268 1.849,2.521 C1.849,1.774 2.456,1.167 3.203,1.167 Z" id="Shape" fill-rule="nonzero"></path>
                <path d="M9.33,22.83 C10.291,22.83 11.114,21.539 11.114,20.483 C11.114,19.441 10.314,18.593 9.33,18.593 C8.346,18.593 7.546,19.441 7.546,20.483 C7.546,21.539 8.369,22.83 9.33,22.83 Z" id="Path"></path>
                <circle id="Oval" cx="15.969" cy="9.855" r="2.23"></circle>
                <path d="M15.469,16.233 L3.202,16.233 L3.202,28.5 L15.469,28.5 L15.469,16.233 Z M14.845,26.989 C14.754,27.081 14.629,27.138 14.49,27.138 L4.182,27.138 C4.043,27.138 3.917,27.08 3.827,26.989 C3.809,26.97 3.799,26.947 3.785,26.926 C3.762,26.895 3.737,26.865 3.722,26.829 C3.697,26.768 3.683,26.704 3.683,26.638 C3.683,26.606 3.696,26.577 3.702,26.547 C3.708,26.513 3.708,26.479 3.722,26.445 L3.722,26.444 C3.722,26.443 3.722,26.442 3.723,26.441 C4.706,24.089 5.379,22.71 7.109,22.365 C6.759,21.787 6.547,21.116 6.547,20.481 C6.547,18.888 7.796,17.591 9.331,17.591 C10.866,17.591 12.115,18.887 12.115,20.481 C12.115,21.115 11.903,21.785 11.554,22.362 C13.292,22.703 13.965,24.084 14.95,26.44 C14.95,26.441 14.951,26.442 14.951,26.443 L14.951,26.444 C14.968,26.483 14.969,26.524 14.975,26.564 C14.979,26.588 14.99,26.611 14.99,26.636 C14.99,26.702 14.976,26.767 14.951,26.827 C14.936,26.862 14.911,26.89 14.889,26.921 C14.874,26.945 14.864,26.971 14.845,26.989 Z" id="Shape" fill-rule="nonzero"></path>
                <path d="M13.73,26.139 C12.78,23.961 12.223,23.32 10.758,23.283 C10.342,23.614 9.859,23.83 9.33,23.83 C8.801,23.83 8.318,23.614 7.903,23.283 C6.446,23.323 5.888,23.966 4.941,26.139 L13.73,26.139 Z" id="Path"></path>
            </g>
        </g>
    </g>
</svg>