<?xml version="1.0" encoding="UTF-8"?>
<svg width="42px" height="58px" viewBox="0 0 42 58" version="1.1" xmlns="http://www.w3.org/2000/svg" xmlns:xlink="http://www.w3.org/1999/xlink">
    <!-- Generator: Sketch 52.3 (67297) - http://www.bohemiancoding.com/sketch -->
    <title>noun_barber chair_1940278</title>
    <desc>Created with Sketch.</desc>
    <g id="Page-1" stroke="none" stroke-width="1" fill="none" fill-rule="evenodd">
        <g id="Desktop-HD-Copy" transform="translate(-1179.000000, -574.000000)" fill="#f7e3bb" fill-rule="nonzero">
            <g id="noun_barber-chair_1940278" transform="translate(1179.000000, 574.000000)">
                <path d="M9,54 L9,52 L33,52 L33,54 L9,54 Z M27,44 L27,50 L15,50 L15,44 L27,44 Z M31,50 L29,50 L29,44 L31,44 L31,50 Z M41,27 C41,27.552 40.552,28 40,28 L34,28 C33.448,28 33,27.552 33,27 C33,26.448 33.448,26 34,26 L40,26 C40.552,26 41,26.449 41,27 Z M8,35 C8,34.448 8.448,34 9,34 L33,34 C33.552,34 34,34.448 34,35 L34,38 L8,38 L8,35 Z M34,32.185 C33.686,32.073 33.352,32.001 33,32.001 L9,32.001 C8.648,32.001 8.314,32.073 8,32.185 L8,30.001 C9.302,30.001 10.402,29.162 10.816,28.001 L31.185,28.001 C31.599,29.162 32.699,30.001 34.001,30.001 L34.001,32.185 L34,32.185 Z M18,6 L18,26 L15,26 L15,6 L18,6 Z M24,26 L24,6 L27,6 L27,26 L24,26 Z M22,26 L20,26 L20,6 L22,6 L22,26 Z M36,9 L36,24 L34,24 C32.698,24 31.598,24.839 31.184,26 L29,26 L29,6 L33,6 C34.654,6 36,7.346 36,9 Z M12,3 L12,1 C12,0.448 12.448,0 13,0 L29,0 C29.552,0 30,0.448 30,1 L30,3 C30,3.552 29.552,4 29,4 L13,4 C12.448,4 12,3.552 12,3 Z M6,9 C6,7.346 7.346,6 9,6 L13,6 L13,26 L10.816,26 C10.402,24.839 9.302,24 8,24 L6,24 L6,9 Z M1,27 C1,26.448 1.448,26 2,26 L8,26 C8.552,26 9,26.448 9,27 C9,27.552 8.552,28 8,28 L2,28 C1.448,28 1,27.552 1,27 Z M4,39 L4,30 L6,30 L6,40 L36,40 L36,30 L38,30 L38,39 C38,40.654 36.654,42 35,42 L7,42 C5.346,42 4,40.655 4,39 Z M13,44 L13,50 L11,50 L11,44 L13,44 Z M0,52 C0,50.51 2.798,48.473 9,47.158 L9,50 L7,50 L7,56 L9.203,56 L9.416,56.929 C2.968,55.631 0,53.523 0,52 Z M11.714,58 L11.255,56 L30.745,56 L30.286,58 L11.714,58 Z M32.584,56.929 L32.797,56 L35,56 L35,50 L33,50 L33,47.158 C39.202,48.473 42,50.51 42,52 C42,53.523 39.032,55.631 32.584,56.929 Z" id="Shape"></path>
            </g>
        </g>
    </g>
</svg>