<?xml version="1.0" encoding="utf-8"?>
<svg version="1.1" id="Layer_1" xmlns="http://www.w3.org/2000/svg" xmlns:xlink="http://www.w3.org/1999/xlink" x="0px" y="0px"
	 viewBox="0 0 180.2 34.6" style="enable-background:new 0 0 180.2 34.6;" xml:space="preserve">
<style type="text/css">
	.date-color{fill:inherit;}
</style>
<g>
	<g>
		<g>
			<path class="date-color" d="M71.1,26.3h13.6v3.6H66.5v-0.5l3.9-4.1c4.9-5.1,7.5-9,7.5-12.5c0-3.2-2.1-5.3-4.9-5.3
				c-2.5,0-4.2,1.8-5.5,3.8l-0.8-0.4c1.1-3.2,3.7-6.6,7.9-6.6c4.2,0,7.2,2.9,7.2,6.7c0,3.5-1.5,6-7.6,12.1L71.1,26.3z"/>
		</g>
		<g>
			<path class="date-color" d="M87.4,17.7c0-7.2,6.1-13.4,12.9-13.4c8,0,13,5.7,13,13.1c0,7.4-6,13.5-13,13.5
				C92.9,30.9,87.4,25.9,87.4,17.7z M92,16.7c0,7.3,3.9,13,9,13c4.7,0,7.9-5,7.9-11.1c0-7.7-4.2-13-9.1-13C95.2,5.6,92,10.5,92,16.7
				z"/>
		</g>
	</g>
	<g>
		<g>
			<path class="date-color" d="M12.3,22.3c0,2.5-0.8,4.3-3.9,4.8l-0.1-0.4c1.8-0.7,2.1-2,2.1-4V12.5L9,12.2v-0.4h4.6v0.4l-1.3,0.4V22.3z"/>
		</g>
		<g>
			<path class="date-color" d="M17.4,18.8v-6.3l-1.3-0.4v-0.4h4.7v0.4l-1.5,0.4v6c0,2.3,0.7,4.2,3,4.2c2.3,0,3.3-1.4,3.4-3.7l0-6.3l-2-0.5
				v-0.4h4.2v0.4l-1.3,0.4v6.2c0,3.3-2,4.9-4.6,4.9C18.6,23.6,17.4,21.7,17.4,18.8z"/>
		</g>
		<g>
			<path class="date-color" d="M40,23.4l-7.6-9.8l0,8.8l1.5,0.4v0.4h-3.5v-0.4l1.3-0.4v-9.5c-0.3-0.3-0.8-0.6-1.2-0.7l-0.3-0.1v-0.4h3
				l6.5,8.4l0-7.6l-1.5-0.4v-0.4h3.5v0.4l-1.3,0.4v8.7l0,2.1L40,23.4z"/>
		</g>
		<g>
			<path class="date-color" d="M47.4,17.6v4.6c0.2,0.3,0.5,0.4,0.9,0.4h3.1l1.7-2.9h0.5l-0.9,3.5h-8.4v-0.4l1.3-0.3v-10l-1.3-0.4v-0.4h7.3
				l1.3-0.1v3.1h-0.5l-0.9-2.5h-4.1V17h2.3l0.6-1.6h0.4v3.8h-0.5l-0.5-1.5H47.4z"/>
		</g>
	</g>
	<g>
		<line class="st1" x1="3.4" y1="5.6" x2="58.2" y2="5.6"/>
		<rect x="3.4" y="5.2" class="date-color" width="54.9" height="0.8"/>
	</g>
	<g>
		<line class="st1" x1="3.4" y1="29.6" x2="58.2" y2="29.6"/>
		<rect x="3.4" y="29.2" class="date-color" width="54.9" height="0.8"/>
	</g>
	<g>
		<g>
			<path class="date-color" d="M128.2,21.8h6.1v1.5h-7.7v-0.6l2.2-2.5c1.3-1.5,3-3.1,3-5c0-1.5-1-2.3-2.1-2.3c-1.1,0-1.8,0.6-2.6,1.8
				l-0.4-0.2c0.5-1.6,1.7-3,3.6-3s3.2,1.3,3.2,3c0,2-1.7,3.6-4,5.9L128.2,21.8z"/>
		</g>
		<g>
			<path class="date-color" d="M146.5,17.4c0,3.9-2.1,6.2-4.6,6.2c-2.7,0-4.6-2.4-4.6-5.9c0-3.8,2.1-6.2,4.6-6.2
				C145,11.5,146.5,14.4,146.5,17.4z M139.1,17c0,2.7,1,6,3,6c1.7,0,2.5-2.7,2.5-5.2c0-3.1-1.2-5.9-3-5.9
				C139.8,12,139.1,14.6,139.1,17z"/>
		</g>
		<g>
			<path class="date-color" d="M150.8,21.8h6.1v1.5h-7.7v-0.6l2.2-2.5c1.3-1.5,3-3.1,3-5c0-1.5-1-2.3-2.1-2.3c-1.1,0-1.8,0.6-2.6,1.8
				l-0.4-0.2c0.5-1.6,1.7-3,3.6-3s3.2,1.3,3.2,3c0,2-1.7,3.6-4,5.9L150.8,21.8z"/>
		</g>
		<g>
			<path class="date-color" d="M169.2,17.4c0,3.9-2.1,6.2-4.6,6.2c-2.7,0-4.6-2.4-4.6-5.9c0-3.8,2.1-6.2,4.6-6.2
				C167.7,11.5,169.2,14.4,169.2,17.4z M161.8,17c0,2.7,1,6,3,6c1.7,0,2.5-2.7,2.5-5.2c0-3.1-1.2-5.9-3-5.9
				C162.5,12,161.8,14.6,161.8,17z"/>
		</g>
	</g>
	<g>
		<line class="st1" x1="119.7" y1="5.6" x2="176.6" y2="5.6"/>
		<rect x="119.7" y="5.2" class="date-color" width="56.9" height="0.8"/>
	</g>
	<g>
		<line class="st1" x1="119.7" y1="29.6" x2="176.6" y2="29.6"/>
		<rect x="119.7" y="29.2" class="date-color" width="56.9" height="0.8"/>
	</g>
</g>
</svg>
