<?xml version="1.0" encoding="utf-8"?>
<svg version="1.1" id="Layer_1" xmlns="http://www.w3.org/2000/svg" xmlns:xlink="http://www.w3.org/1999/xlink" x="0px" y="0px"
	 viewBox="0 0 106.9 61.3" style="enable-background:new 0 0 106.9 61.3;" xml:space="preserve">
<style type="text/css">
	.st0{fill:inherit;}
</style>
<g>
	<path class="st0" d="M33.7,26.7c0-0.8,0.6-1.8,1.5-2.7l0,0c0,0-0.3,0.3-0.5,0.4c-0.3,0.3-0.5,0.4-0.6,0.3c-0.1-0.1,0.1-0.4,0.5-0.7
		c0.3-0.4,1.1-1,1.7-1.3c0.9-0.6,1.8-1.1,3-1.7c1.3-0.6,3.1-1.2,4.7-1.1c1.3,0,1.7,1,1.5,1.6h0c1.1-1.2,1.5-1.5,2.9-1.5
		c1.3,0,1.5,0.2,1,0.8c-0.9,1-1.5,1.9-2.4,3.2c-0.9,1.2-2.8,3.8-4.8,6.7c2.6-0.4,5.5-0.6,8.3-0.6c14.2,0,22.5,4.8,23,13.3
		c0.5,9.6-9.6,16.1-20,16.1c-7.5,0-12.7-3.6-12.9-9c-0.1-3.7,2.5-7.4,6.3-9c0.7-0.3,1-0.3,1-0.2s-0.1,0.1-0.6,0.4
		c-3.8,1.7-6.3,5.4-6.1,8.8c0.3,5.3,5.5,7.9,12.3,7.9c10.2,0,19.7-5.8,19.2-15.3c-0.4-7.9-9-12.6-22.2-12.6c-2.9,0-6,0.2-8.7,0.7
		c-2.6,3.5-6.5,8.7-9.1,11.5c-7.7,8.5-13.3,12.7-18.8,15.4c-3.4,1.7-6.3,2.3-8.5,2.2c-2.3,0-4.3-1.1-4.2-4.2
		c0.2-3.7,4.3-8.5,10-12.9c6.5-5,16.5-10.1,27.1-12.2c1.3-1.8,2.8-3.8,3.9-5.3l0,0c-1.2,1.1-3.5,2.9-5.8,2.9
		C34.8,28.6,33.7,28.1,33.7,26.7z M5.4,59.8c1.9,0,4.3-0.4,7.3-2c6-3.2,10.8-8.6,17.6-16.6c2.4-2.8,5-6.2,7.5-9.5
		c-10,2.1-19.7,6.9-26.3,12c-5.4,4.2-9.6,9.1-9.8,12.6C1.6,58.7,3.3,59.7,5.4,59.8L5.4,59.8z M44,20.4c-0.9,0-2.7,1.4-4.4,3.1
		c-1.8,1.8-2.7,3.2-2.6,3.8c0,0.3,0.3,0.5,0.6,0.5c0.9,0,2.7-1.1,4-2.2c1.5-1.3,3.3-3.5,3.3-4.2C45,20.6,44.6,20.4,44,20.4L44,20.4z
		"/>
	<path class="st0" d="M50.1,22.7c-0.7,0.6-1.4,1.1-1.9,1.6c-0.4,0.3-0.6,0.5-0.7,0.3c-0.1-0.1,0-0.3,0.4-0.7
		c0.5-0.4,2.1-1.8,3.4-2.7c1.2-0.9,2.4-1.3,3.8-1.3c1.6,0,1.9,0.2,1.3,0.8c-1.1,1.2-1.8,2-2.7,3.2c-0.8,1-1.3,1.8-1.6,2.3
		c-0.3,0.6-0.3,0.9-0.1,1.1c0.2,0.1,0.6,0,1.1-0.2c0.5-0.2,1.3-0.8,2.1-1.4c1-0.8,1.5-1.2,2.2-1.9c0.3-0.3,0.5-0.5,0.7-0.3
		c0.1,0.1-0.2,0.4-0.4,0.7c-0.6,0.6-1.9,1.8-2.8,2.4c-1.4,1-2.9,2.1-4.8,2.1c-1.4,0-1.9-0.6-1.9-1.3c0-0.6,0.3-1.3,0.7-1.8
		c1-1.6,3.2-4,3.9-4.4C52.2,21.2,51.2,21.8,50.1,22.7z M59.6,13.4c0.9,0,1.2,0.7,0.5,1.6c-0.8,1-2.3,1.7-2.9,1.7
		c-0.3-0.4-0.4-1.4,0-2.1C57.5,13.6,58.4,13.4,59.6,13.4L59.6,13.4z"/>
	<path class="st0" d="M58.3,21.2c0.5-0.8,1.6-0.9,2.3-0.9c1.5-1.9,4.2-5.2,5.7-6.9c-0.6,0.1-1.4,0.2-2.3,0.2c-2.9,0-6.3-0.8-6.2-3.6
		c0.1-2,2.5-4.2,5.9-4.3c1.1,0,1.8,0.3,1.7,0.4c-0.1,0.1-0.4-0.1-1.5-0.1c-2.9,0.2-4.4,2.1-4.6,3.5c-0.2,2.5,2.4,3.6,4.8,3.6
		c1,0,2.1-0.1,2.7-0.2c3.1-3.5,6-6.3,7.9-7.9c3.1-2.5,5.8-4,7.4-4c1.2,0,1.9,0.7,1.8,1.8c-0.3,2-2.8,4.1-5.3,5.8
		C75.7,10.5,72.4,12,70,13c-1.9,2.3-4.1,5-5.8,7.3c1.1,0,3.3-0.1,4.3-0.1c0.4,0,0.9,0,0.9,0.3c0,0.3-0.4,0.3-0.9,0.3
		c-2,0-3.7,0-4.7,0c-2,2.5-4.1,5.3-5.6,7.3c-0.9,3-2.2,7.4-4.6,11.5c-1.7,3-3.9,5.6-5.9,7.1c-0.9,0.7-1.8,1-2.5,0.9
		c-1-0.1-1.4-0.9-1.2-2.2c0.4-2.3,3.5-7.8,6.9-12.4c1.9-2.5,4.5-6.1,6.6-8.6C57.9,22.9,57.7,22.1,58.3,21.2z M51.2,37.7
		c-1.6,2.4-3.9,5.9-4.6,7.7c-0.2,0.5-0.2,0.9,0,1.1c0.3,0.1,0.6,0,1.2-0.4c1.2-1,3.2-3.4,5.3-6.9c2-3.3,3.6-7.4,4.4-10.2
		C55.4,31.7,53.8,34,51.2,37.7z M60.2,20.8c-0.6,0-1,0.1-1.4,0.5c-0.5,0.6-0.5,1.4-0.7,2.1C58.7,22.6,59.5,21.7,60.2,20.8z
		 M78.3,7.5c1.8-1.4,3.6-3.6,4-5.1c0.1-0.5,0-1.1-0.5-1.1c-1,0-2.1,1.1-4,2.7c-2,1.9-5.1,5.6-7.3,8.2C72.7,11.3,75.5,9.8,78.3,7.5z"
		/>
	<path class="st0" d="M64,24.2c-0.3,0.3-0.5,0.4-0.7,0.3c-0.1-0.1,0.1-0.4,0.4-0.7c1.3-1.1,2.8-2.4,3.7-3.3c-0.5,0-1.1,0-1.7,0
		c-0.4,0-0.6,0-0.6-0.2c0-0.2,0.6-0.3,1.2-0.3c0.6,0,1.1,0,1.4,0c1.5-1.8,3.1-3.5,4.4-4.9c1.4-1.4,2.4-2.1,3.6-2.1
		c0.7,0,1.1,0.2,1.3,0.4c-0.6,0.5-1.8,1.8-2.9,3.1c-1.1,1.3-1.9,2.3-2.9,3.5c1.1,0,1.9,0,2.7,0c0.3,0,0.8,0,0.7,0.3
		c0,0.2-0.5,0.2-0.9,0.2c-1,0-1.8,0-2.9,0c-1,1.1-2.7,3.7-3.5,5.3c-0.2,0.5-0.4,1.1-0.1,1.3c0.2,0.1,0.8,0,1.3-0.2
		c0.6-0.3,1.3-0.8,2.1-1.4c0.8-0.6,1.6-1.3,2.3-2c0.3-0.2,0.5-0.4,0.7-0.3c0.1,0.1,0,0.2-0.2,0.5c-0.7,0.7-2.1,2-3.1,2.7
		c-1,0.7-2.8,2.1-5,2.1c-1.4,0-2-0.7-2-1.4c0-1.1,0.8-2.5,2.4-4.7C65.3,23,64.5,23.8,64,24.2z"/>
	<path class="st0" d="M69.9,25.8c0.1-1.6,1.3-2.5,2.4-2.5c0.9,0,1.3,0.5,1.3,1.1c0,0.5-0.3,0.8-0.9,1.2c-0.4,0.3-0.9,0.8-0.9,1.4
		c0,0.8,0.6,1.1,1.3,1.1c1,0,2.1-0.8,3.1-2.4c1-1.6,1.7-4.3,2.2-5.1v0c-0.4,0.4-1.5,1.3-2.2,1.8c-0.7,0.5-1.7,1.2-2.1,1.4
		c-0.3,0.1-0.5,0.2-0.6,0.1c-0.1-0.1,0.1-0.3,0.3-0.5c0.7-0.4,1.3-0.9,2.1-1.4c1.1-0.8,2.1-1.6,2.9-2.3c0.1-0.2,0.4-0.7,0.8-1.1
		c0.4-0.4,1-0.6,1.4-0.6c1.1,0,1.1,0.6,0,1.3c-0.4,0.3-0.9,0.4-1.1,0.7c-0.4,0.4-0.3,0.9,0,1.4c0.5,1.2,0.7,2.6,0.1,3.9
		c-0.2,0.6-0.7,1.2-1.4,1.7c1.3-0.4,3-0.7,5-0.7c4,0,6.3,0.8,11.2,1c4.6,0.1,10.5-1.3,10.3-6.1c0-2-1.8-3.3-3.9-3.2
		c-1,0-2.3,0.5-3,1.2c-0.2,0.2-0.3,0.3-0.4,0.3c0,0,0-0.2,0.1-0.5c0.6-0.8,2-1.4,3.2-1.5c2.3-0.1,4.4,1.1,4.7,3.6
		c0.5,5.3-4.9,7.8-10.5,7.7c-4.6-0.1-8.1-2-11.9-2c-3,0-4.7,0.5-6.6,1.3s-4.1,2.5-4.1,4.7c0,0.3,0,0.9,0.1,1.1
		c0,0.2,0.1,0.3,0.1,0.4c-0.1,0.1-0.3-0.1-0.3-0.3c-0.1-0.3-0.2-0.9-0.2-1.2c0-1.9,1-3.2,2.9-4.4c-0.5,0.1-1.1,0.2-1.8,0.2
		C71.1,28.6,69.8,27.3,69.9,25.8z"/>
</g>
</svg>
