<?xml version="1.0" encoding="utf-8"?>
<svg version="1.1" xmlns="http://www.w3.org/2000/svg" xmlns:xlink="http://www.w3.org/1999/xlink" x="0px" y="0px"
	 viewBox="0 0 39 54" style="enable-background:new 0 0 39 54;" xml:space="preserve">
<g transform="translate(1625.002 210.552)">
	<g transform="translate(416.152 83)">
		<path d="M-2027.1-276.4l1.6-1.6c0.3,0.3,0.8,0.7,0.8,1c0,0.5-0.2,1.1-0.7,1.4c-0.4,0.2-1.1-0.2-1.6-0.3
			L-2027.1-276.4z"/>
		<path d="M-2029.1-271.7c0.4-0.5,0.8-1,1.2-1.5c0.3,0.2,0.4,0.5,0.6,0.8C-2027.4-271.7-2027.7-271.2-2029.1-271.7
			z"/>
		<path d="M-2018.8-242.8c-0.3,0.9,0.1,1.9,0.9,2.3c0.2,0.1,0.4,0.3,0.6,0.5c0.3,0,0.5-0.1,0.7-0.1
			c0.2,0,0.4-0.1,0.6-0.1l0-0.1c3.9,0.5,7.8,0.1,11.6-1.1c0.6-0.3,1.1-0.8,1.3-1.5c0.1-0.2-0.6-0.9-1.1-1.2
			c-0.6-0.4-1.3-0.5-1.9-0.8c-2.5-1.3-3.1-3.7-3.8-6.2c-1.1-3.8-1-7.5-0.8-11.4c0.1-0.4,0.1-0.9,0-1.3c-0.3-0.9,0.1-1.2,0.7-1.7
			c2.8-2.1,4.6-4.7,4.1-8.5c-0.4-3.2-0.3-6.4-0.6-9.6c-0.2-2.1-0.4-4.2-0.7-6.3c0-0.2-0.1-0.5-0.3-0.6c-1.6-0.7-2.7-2.2-4.8-1.9
			c-2.3,0.2-4.6,0.3-6.9,0.2c-0.4,0.6-0.7,1.3-1.1,2c-0.1,2.9-0.3,5.5-0.3,8.2c-0.1,2.3,0,4.5,0.2,6.8c0.2,2.5,0.7,5,1.4,7.4
			c1.2,1.2,2.8,2,4,3c0.2,0.2,0.3,0.3,0.5,0.6c0.1,0,0.3,0.1,0.4,0.1c0.2,4,0.7,8.1,0.7,12.1c-0.1,2.2-0.5,4.4-1.1,6.5
			c-0.3,1.4-1.6,1.6-2.7,1.9C-2017.8-243.6-2018.6-243.3-2018.8-242.8z M-2009.9-290.5c-2.2,1.8-6.9,1.7-8.1-0.1
			C-2016.4-291.6-2012.2-291.6-2009.9-290.5z M-2013.1-266.3c-0.8-0.9-1.9-1.5-3.1-1.8c-0.4-0.2-0.8-0.4-1.1-0.8
			c-1.2-1.6-1.9-3.5-2.1-5.5c-0.4-2.4-0.5-4.9-0.3-7.3c0.2-1.9,0.5-3.9,1-5.8c0.3-0.4,0.7-0.6,1.2-0.6c3.2,0.3,6.4,0.9,9.7-0.7
			c0.3,2.1,0.5,4,0.8,5.9c-0.7,0-1.4,0.1-2.1,0.2c-1.9,1-3.9,1.6-6,2c-0.7,0.2-1.5,0-2.1-0.5c-0.5-0.5-1.2-1.2-2.3,0
			c1.4,0.6,2.6,1.5,3.9,1.7c2.1,0.3,4-0.7,5.9-1.5c1-0.5,2.1-0.8,2.7,0c0.5,0.6,0.4,1.8,0.4,2.8c0,2-0.3,3.9-0.2,5.9
			c0.1,1.8-0.5,4.3-2.5,4.8c-0.7,0.2-1.5,0.5-2.2,0.8l0,0.2l2,0.1C-2011-265.7-2012.3-265.4-2013.1-266.3L-2013.1-266.3z
			 M-2017.6-242.2c0-0.3,0.2-0.5,0.5-0.6c0.5-0.2,1-0.3,1.5-0.4c1.8-0.4,3.1-2,3.1-3.9c0.2-3.3,0.1-6.7-0.1-10
			c-0.1-2.6-0.3-5.2-0.5-7.9l0.5-0.3c0.3,0.3,0.6,0.7,0.8,1.1c0.1,0.6,0.2,1.3,0.2,2c0.1,3.3,0.1,6.7,0.4,10c0.2,2.6,0.8,5.1,3,6.8
			c1.2,0.9,2.4,1.8,3.6,2.7c0.1-0.1,0,0-0.1,0.1c-4,1.9-8.2,1.6-12.4,1C-2017.4-241.7-2017.6-241.9-2017.6-242.2L-2017.6-242.2z"/>
	</g>
	<path d="M-1598.8-193.4l-1.6-1.6c-0.3,0.3-0.8,0.7-0.8,1c0,0.5,0.2,1.1,0.7,1.4c0.4,0.2,1.1-0.2,1.6-0.3
		L-1598.8-193.4z"/>
	<path d="M-1596.8-188.7c-0.4-0.5-0.8-1-1.2-1.5c-0.3,0.2-0.5,0.5-0.6,0.8
		C-1598.5-188.7-1598.1-188.2-1596.8-188.7z"/>
</g>
<path d="M15.3,49.7c-1.2-0.3-2.4-0.5-2.7-1.9c-0.6-2.1-0.9-4.3-1.1-6.5c0-4,0.4-8.1,0.7-12.1
	c0.1,0,0.3-0.1,0.4-0.1c0.1-0.2,0.3-0.4,0.5-0.6c1.2-1.1,2.9-1.8,4-3c0.7-2.4,1.2-4.9,1.4-7.4c0.2-2.3,0.3-4.5,0.2-6.8
	c-0.1-2.7-0.2-5.3-0.3-8.2c-0.4-0.7-0.7-1.3-1.1-1.9c-2.3,0.1-4.6,0-6.9-0.2C8.2,0.8,7,2.3,5.4,3C5.3,3.2,5.2,3.4,5.2,3.6
	C4.9,5.7,4.6,7.8,4.5,9.9c-0.2,3.2-0.2,6.4-0.6,9.6c-0.4,3.8,1.4,6.4,4.1,8.5c0.6,0.5,1.1,0.8,0.7,1.7c-0.1,0.4-0.1,0.8,0,1.3
	c0.1,3.8,0.3,7.6-0.8,11.4c-0.7,2.4-1.3,4.9-3.8,6.2c-0.6,0.3-1.4,0.5-1.9,0.8c-0.5,0.3-1.2,1-1.1,1.2c0.2,0.6,0.7,1.2,1.4,1.5
	c3.7,1.2,7.7,1.6,11.6,1.1l0,0.1c0.2,0,0.4,0,0.6,0.1c0.2,0.1,0.5,0.1,0.7,0.1c0.2-0.2,0.4-0.3,0.6-0.5c0.9-0.4,1.3-1.4,0.9-2.3
	C16.7,50.2,15.9,49.9,15.3,49.7z M16.1,2.9C15,4.7,10.2,4.8,8,3C10.3,1.9,14.5,1.9,16.1,2.9L16.1,2.9z M7.8,27l2-0.1l0-0.2
	c-0.7-0.3-1.4-0.6-2.2-0.8c-2-0.5-2.6-3.1-2.5-4.8c0.1-2-0.2-3.9-0.2-5.9c0-1-0.1-2.2,0.4-2.8c0.6-0.8,1.7-0.5,2.7,0
	c1.8,0.9,3.8,1.8,5.9,1.5c1.3-0.2,2.4-1,3.9-1.7c-1.1-1.2-1.9-0.5-2.3,0c-0.6,0.5-1.4,0.7-2.1,0.5c-2.1-0.4-4.1-1.1-6-2
	c-0.7-0.2-1.4-0.2-2.1-0.2C5.4,8.7,5.7,6.8,6,4.7c3.2,1.7,6.5,1,9.7,0.7c0.5,0,0.9,0.2,1.2,0.6c0.5,1.9,0.9,3.8,1,5.8
	c0.2,2.5,0,4.9-0.3,7.3c-0.2,2-0.9,3.9-2.1,5.5c-0.3,0.4-0.7,0.7-1.1,0.8c-1.2,0.3-2.3,0.9-3.1,1.8C10.4,28.1,9.1,27.8,7.8,27
	L7.8,27z M15.3,52c-4.2,0.6-8.4,0.9-12.4-1c-0.1-0.1-0.2-0.2-0.1-0.1C4,50,5.2,49.1,6.4,48.2c2.2-1.7,2.8-4.3,3-6.8
	c0.3-3.3,0.3-6.7,0.4-10c0-0.7,0.1-1.3,0.2-2c0.2-0.4,0.4-0.8,0.8-1.1l0.5,0.3c-0.2,2.6-0.4,5.2-0.5,7.9c-0.2,3.3-0.3,6.7-0.1,10
	c0,1.9,1.3,3.5,3.1,3.9c0.5,0.1,1,0.2,1.5,0.4c0.2,0.1,0.4,0.3,0.5,0.6C15.7,51.6,15.5,51.9,15.3,52L15.3,52z"/>
</svg>
