<?xml version="1.0" encoding="utf-8"?>
<svg version="1.1" id="Layer_1" xmlns="http://www.w3.org/2000/svg" xmlns:xlink="http://www.w3.org/1999/xlink" x="0px" y="0px"
	 viewBox="0 0 233.4 96.2" style="enable-background:new 0 0 233.4 96.2;" xml:space="preserve">
<style type="text/css">
	.st0{fill:inherit;stroke-width:0}
</style>
<g>
	<path class="st0" d="M24.5,63.1c-12.3,0-23.1-6.3-23.1-17.4c0-14.2,16.1-22.4,28.3-22.4c8.2,0,16.3,3.6,16.3,11.2
		c0,8.4-10.6,13.4-17.1,13.6c-1.8,0.1-3.4-0.2-3.4-0.6c0.1-0.4,0.5,0.3,3.3,0c6.1-0.6,13.8-5.1,13.8-13c0-6.6-5.7-10.5-13-10.5
		c-12.2,0-26,7.8-26,21.7c0,10.4,8.3,16.7,21,16.7c18.7,0,29.5-8.8,42.1-23.3c7-8.2,20.2-26.6,32.2-32.1c-3,0.4-5.4,0.5-9.1,0.7
		C78.1,8.6,65.5,11.8,65.5,21c0,3.3,1.8,5.3,5,5.3c0.9,0,1.8-0.1,2.9-0.4c0.3-0.1,0.8-0.3,0.9-0.2s-0.5,0.5-0.8,0.6
		c-0.9,0.5-2.2,1-3.8,1c-3.8,0-7.2-2.6-7.2-6.5c0-9.2,15.2-13,27.1-13.8c3.6-0.2,5-0.2,6.8-0.5c3.2-0.4,4.4-1.1,7.7-2.9
		c2.1-1.1,4.5-2.5,6.2-2.5c1,0,1.5,0.4,1.4,1.3c-0.1,1.1-1.6,1.7-2.9,2.1c-3.7,1.1-6.2,1.8-8.1,2.2c-1.2,0.6-2.7,1.7-3.6,2.4
		c-7.3,6-13.7,14.6-19.5,22.6C64.4,50.1,47.2,63.1,24.5,63.1L24.5,63.1z"/>
	<path class="st0" d="M67,52.3c-0.6,0.5-0.8,0.6-1,0.4c-0.2-0.2,0-0.5,0.6-1c2.2-1.9,4.3-3.8,5.8-5.2c-1,0-1.9,0.1-2.9,0.1
		c-0.6,0-1,0-0.9-0.4c0.1-0.3,0.9-0.4,2.2-0.5c1-0.1,1.9-0.1,2.2-0.1c2.5-3,5.7-6.6,7.5-8.3c1.4-1.4,3.4-3.3,5-3.3
		c0.8,0,1.1,0.2,1.2,0.5c-1,0.9-3,3.1-4.9,5.2s-3.3,3.8-4.9,5.9c1.8-0.1,3.3-0.1,4.6-0.1c0.6,0,1.2,0.1,1.1,0.5
		c-0.1,0.5-0.8,0.4-1.4,0.4c-1.8,0-3,0-4.9,0.1c-1.6,1.9-4.3,6-5.8,8.8c-0.5,0.9-0.7,2-0.1,2.3c0.5,0.2,1.4,0,2-0.3
		c1-0.5,2.3-1.4,3.6-2.4c1.4-1.1,2.8-2.4,3.8-3.2c0.4-0.3,0.9-0.8,1.1-0.6c0.2,0.2,0,0.4-0.6,1c-0.9,0.9-3.2,3-4.9,4.2
		c-1.4,1.1-4.3,3.3-7.4,3.3c-1.8,0-2.5-1-2.4-2.2c0.2-2,2-4.9,4.3-7.9C69,50.5,68,51.4,67,52.3z"/>
	<path class="st0" d="M83.1,50c-1.2,1-2.1,1.7-2.9,2.4c-0.6,0.6-1,0.8-1.2,0.6c-0.2-0.2,0-0.5,0.9-1.3s3.8-3.2,5.7-4.5
		c2.1-1.4,3.1-1.8,4.6-1.8c1.7,0,1.8,0.2,0.9,1.3c-1.4,1.6-2.7,3.1-4.3,5.1c-1.4,1.7-2.3,3.1-2.8,3.9c-0.5,0.9-0.6,1.4-0.2,1.8
		c0.4,0.3,1.1,0.2,1.9-0.2c0.8-0.4,2.2-1.3,3.5-2.4c1.7-1.4,2.4-2,3.7-3.2c0.7-0.6,1-1,1.3-0.7s-0.6,1-0.9,1.3c-1,1-3,2.7-4.6,4
		c-1.6,1.3-4.3,3.3-7,3.3c-1.7,0-2.4-0.8-2.4-2.1c0-1,0.6-2.1,1.2-3c1.6-2.5,4.7-5.8,6-6.9C86,47.9,84.3,49.1,83.1,50z M97.8,34.8
		c1,0,1.5,0.9,0.6,2.1c-1,1.3-3,2.2-3.8,2.2c-0.4-0.5-0.5-1.7-0.1-2.7C95,35.1,96.2,34.8,97.8,34.8L97.8,34.8z"/>
	<path class="st0" d="M107.2,57.5c0.1-1.8,1.8-3.8,3.4-5.6c1.2-1.4,2.4-2.8,3.4-3.9c0.3-0.4,0.5-0.9,0.1-1.1
		c-0.4-0.2-1.3,0.1-2.1,0.5c-1.4,0.7-3.7,2.1-6.2,4.1c-3.5,2.7-5.4,4.6-9,7.3c-0.7,0.6-1.2,0.7-2.1,0.7c-1.1,0-1.7-0.2-1-1.3
		c0.6-1,2.2-3.7,3.5-5.4c0.9-1.2,2.3-3,3.2-4.2c0.6-0.7,0.7-1.1,0.6-1.4c-0.2-0.3-0.7-0.2-1.2,0.1c-1,0.5-2.2,1.4-3.1,2.2
		c-1,0.9-2.3,2-3.4,3c-0.8,0.7-1.1,1-1.4,0.7C91.6,53,92,52.6,93,51.7s2.7-2.6,4.2-3.7c2.2-1.7,3.8-2.6,5.4-2.6c1.5,0,2,0.9,2,1.8
		c0,1-0.6,2-1.7,3.4c-1.2,1.6-2.9,3.8-3.8,5l0.1,0.1c1.9-1.6,4.6-3.9,7.4-6s6.3-4.3,8.7-4.3c1.7,0,2.6,0.8,2.5,2.2
		c-0.2,1.4-1.9,3.3-3.2,4.9c-1.3,1.5-2.2,2.9-2.6,3.5c-0.6,1-0.6,1.5-0.3,1.8c0.4,0.3,1.3,0,1.9-0.3c1-0.5,2.1-1.1,3.8-2.5
		c1.4-1,3-2.5,3.8-3.3c0.6-0.6,0.9-0.6,1-0.5c0.2,0.2-0.1,0.5-0.6,1c-0.7,0.7-3.1,2.9-4.8,4.2c-1.6,1.2-4.7,3.2-7.2,3.2
		C108.1,59.6,107.1,58.8,107.2,57.5z"/>
	<path class="st0" d="M119.4,56.5c0.1-2.6,2.3-5.4,4.3-6.9c2.6-2.2,7-4.3,10-4.3c1.8,0,2.4,1.1,2.3,2.2c-0.2,2.1-2.7,3.7-5.1,4.9
		c-2.3,1.1-5,2.1-6.9,2.6c-0.3,0.6-0.5,1.4-0.5,1.8c0,1.2,0.6,1.8,1.8,1.8h0.1c1,0,3.8-0.6,7.3-3c1.5-1,3.6-2.7,4.9-3.8
		c0.5-0.4,0.7-0.5,0.9-0.3c0.2,0.2-0.1,0.6-0.6,1c-1,1-3.3,2.9-4.7,3.8c-3.4,2.2-6.6,3.4-9.4,3.4C120.9,59.8,119.4,58.6,119.4,56.5z
		 M130,51.6c2-1.4,3.2-3,3.3-4.2c0.1-0.7-0.2-1.1-1-1.1s-1.9,0.8-3.5,2.3c-1.3,1.2-3.3,3.8-4.2,5.4C126.2,53.6,128.3,52.8,130,51.6z
		"/>
	<path class="st0" d="M135.6,59.6c-1,0-1.6-0.2-1-1.3c0.8-1.5,2.2-3.7,3.7-5.6c1.3-1.7,2.7-3.4,4.3-5.2c1.1-1.2,2.1-2,3.7-2
		c1.7-0.1,1.8,0.2,0.9,1.3c-1.4,1.5-2.3,2.7-3.1,3.8c-0.7,1-1.8,2.3-2.4,3.2l0.2,0.2c0.9-0.9,3.1-3,4.9-4.5c1.6-1.4,5.1-3.9,7.6-4.1
		c1.7-0.1,2.8,0.6,2.5,2.2c-0.3,1.8-3.4,4.6-4.7,3.2c-0.6-0.6,0.4-1.8,1-2.8c0.2-0.5,0.2-0.9-0.2-1c-0.5-0.2-1.4,0.2-1.9,0.5
		c-1.4,0.7-3,1.9-5,3.8c-2.3,2-5.1,4.7-8.2,7.8C137.2,59.5,136.5,59.6,135.6,59.6L135.6,59.6z"/>
	<path class="st0" d="M154.5,56.4c0.2-1.9,1.8-4.7,5.8-7.6c2.6-1.9,7.2-3.8,9.8-3.4c1.6,0.2,2.2,1.7,1.7,3c1.9-2,3.3-3,4.6-3
		c1.7-0.1,1.8,0.3,1,1.3c-1,1.2-2.8,3.2-4.5,5.3c-1,1.3-2.1,2.6-2.8,3.9c-0.6,1-0.6,1.6-0.2,1.8c0.4,0.3,1.2,0,1.8-0.3
		c0.8-0.4,2.3-1.4,3.6-2.5c1.7-1.4,3-2.5,3.8-3.3c0.5-0.4,0.9-0.8,1.1-0.6c0.2,0.2-0.2,0.6-1,1.4c-1,1-3,2.6-4.5,3.8
		c-1.6,1.3-4.2,3.2-6.9,3.2c-1.5,0-2.2-0.7-2.3-1.7c-0.1-0.9,0.4-2,1.1-2.9l-0.1-0.1c-2.1,1.8-5.8,4.5-8.8,4.6
		C156.1,59.6,154.3,59,154.5,56.4z M162.5,51.2c-3.3,3.2-4.6,5.3-4.5,6.3c0.1,0.6,0.5,0.8,1,0.8c1.5,0,4.6-1.8,6.7-3.8
		c2.6-2.2,5.4-5.7,5.5-7c0.1-1-0.6-1.4-1.4-1.4C168.2,46.2,165.3,48.4,162.5,51.2z"/>
	<path class="st0" d="M192.9,47.6c0,1-1.9,2.7-3.7,4.8c-1.4,1.6-2.3,3-2.7,3.8c-0.4,0.7-0.4,1.3-0.1,1.5c0.3,0.2,0.9,0.2,1.8-0.3
		c0.9-0.5,2.3-1.4,3.6-2.4c1.8-1.4,2.7-2.2,3.8-3.1c0.6-0.6,1-0.8,1.2-0.6c0.2,0.2-0.3,0.7-1,1.4c-1,0.9-2.6,2.3-4.6,3.8
		c-1.7,1.3-4.5,3.2-7.1,3.2c-1.7,0-2.6-0.9-2.5-2.1c0.1-1.8,2.1-4,3.8-5.7c1.9-1.8,5-4,5.2-4.6c0.3-0.9-1.2-0.6-3.2-0.6
		c-0.8,0-1.4,0-1.8-0.2c-0.6,0.7-1.8,1.8-3,3c-1.4,1.3-2.3,2.2-3.2,3c-0.7,0.6-1,0.8-1.2,0.6s0.1-0.6,0.9-1.3c1-0.9,1.7-1.5,3.1-2.9
		c1.1-1,2.2-2.1,2.8-2.8c-0.7-0.5-0.8-1.6,0-2.6c0.6-0.8,1.8-1.4,3-1.4c0.6,0,1.4,0.3,1.4,0.8c-0.6,0.4-0.9,0.6-1.4,1.1
		c-1,1.1-0.8,1.7,0.2,1.8C190.5,46,192.9,46,192.9,47.6L192.9,47.6z"/>
	<path class="st0" d="M212.6,50c-1.6,1.4-4.4,3.5-6.5,5.1c-3.3,2.5-6.2,4.4-8.6,4.4c-1.7,0-2.6-0.9-2.6-2.3c0.1-0.9,0.6-2,1.4-3.2
		c1.6-2.2,3.7-4.5,5.7-6.4c-0.6,0.2-2.3,1.5-3.5,2.5s-2,1.6-2.8,2.3c-0.6,0.6-1,0.8-1.2,0.6c-0.2-0.2,0-0.5,0.9-1.3s3.8-3.2,5.7-4.5
		c2.1-1.4,3.1-1.8,4.6-1.8c1.7,0,1.8,0.2,0.9,1.3c-1,1.1-2.6,3-4.2,5c-1.3,1.7-2.6,3.4-3,4.3c-0.3,0.6-0.3,1.2-0.1,1.4
		c0.3,0.3,1,0.2,1.8-0.2c1.8-1,3.5-2.2,6-4.1c3.8-3,6.1-5,8.6-7c0.6-0.5,1.1-0.9,2.3-0.9c1.6,0,2,0.2,1.1,1.2
		c-1.3,1.7-2.6,3.3-4.2,5.4c-1.4,1.8-4.6,6.2-7,9.4c1.8-1,4.3-2.4,7-4c2.9-1.8,6.4-4.2,9.3-6.9c2.2-2.2,5.6-6.5,5.6-11.2
		c0-6-3.4-8.4-7.9-8.4c-3.1,0-5.3,1.6-6.2,2.6c-0.2,0.2-0.4,0.4-0.6,0.2c-0.1-0.1,0.1-0.4,0.3-0.7c0.6-0.8,2.9-3,6.9-3
		c5.3,0,9.7,2.6,9.7,9.2c0,5-4.8,10-6.9,11.8c-3.4,3-7.1,5.4-10,7.1c-2.2,1.3-5.4,3-8,4.4c-3.4,5-8.2,11.2-10.5,13.8
		c-9.3,10.4-20.6,18.5-26,18.5h-0.1c-1.4,0-3.4-0.6-3.3-3.4c0.2-4.4,7-10.6,19.5-18.7c7.3-4.8,10.1-5.9,16.4-10.1
		C205,60.8,207.9,56.7,212.6,50L212.6,50z M176.6,92.4c3.8-2.2,10.2-7.5,18.2-17.7c3.2-4,6.4-8.3,8-10.6c-4.6,3.1-8.4,5-15.8,9.9
		c-11,7.3-17,13.4-17.3,17.6c-0.1,1.2,0.4,2.1,1.4,2.2C172.7,94.1,174.8,93.4,176.6,92.4z"/>
</g>
</svg>
