<?xml version="1.0" encoding="utf-8"?>
<svg version="1.1" xmlns="http://www.w3.org/2000/svg" xmlns:xlink="http://www.w3.org/1999/xlink" x="0px" y="0px"
	 viewBox="0 0 61 62" style="enable-background:new 0 0 61 62;" xml:space="preserve">
<g id="Group_71_1_" transform="translate(1648.002 212.52)">
	<path id="Path_617_1_" d="M-1618.3-182.6c0-0.4,0-0.7,0-1.1c1.1-4.9,2.2-9.8,3.2-14.6c0.3-1.4,0.5-2.9,0.7-4.4
		c0.1-0.5,0.1-0.9,0.8-0.7c0.8,0.1,1.5,0.2,2.3,0.3c0.5,0,0.9,0.4,0.9,0.8c0,0,0,0,0,0c0,0.1,0,0.2,0,0.3c-0.1,0.6,0.2,1.4-0.8,1.5
		c-0.2,0.1-0.4,0.3-0.5,0.5c-1.5,3.6-3.1,7.2-4.4,10.8c-0.6,2-1,4-1.4,6c-0.1,0.3-0.3,0.5-0.4,0.7L-1618.3-182.6z M-1614-196.7
		l0.2,0.1c0.7-1.6,1.4-3.1,2.1-4.7c0-0.4,0-0.8-0.2-1.2c-0.6,0.2-1.6-0.4-1.8,0.6c-0.5,2-0.9,4-1.3,5.9l0.1,0l2-4.5l0.3,0.1
		C-1613.2-199.2-1613.6-197.9-1614-196.7z"/>
	<path id="Path_618_1_" d="M-1613.9-153.1c-0.7,1.5-1.4,2.6-3.2,2.2c0-0.7-0.1-1.3-1-1.5c-0.6-0.1-0.7-1.3-0.2-1.8
		c0.5-0.4,1-0.8,1.5-1.1c0.9-0.3,1.4-1.3,1.2-2.2c0-0.3,0-0.7,0.1-1l0.3-0.1c0.3,0.3,0.5,0.7,0.7,1c0.1,0.5,0.7,0.9,1.2,0.7
		c0.1,0,0.1,0,0.2-0.1c0.4-0.1,0.9-0.1,1.3,0c0,0.5-0.2,1-0.4,1.4c-0.6,0.6-1,1.2-0.3,1.9c0.2,0.2,0.3,0.5,0.3,0.8
		c0,0.2,0,0.4-0.2,0.6c-0.2,0-0.5,0-0.6-0.2C-1613.3-152.5-1613.6-152.8-1613.9-153.1z"/>
	<path id="Path_619_1_" d="M-1626.8-209.7c0.7-0.6,1.3-1.2,1.9-1.7c0.2-0.1,0.5-0.2,0.7-0.2c0,0.3-0.1,0.5-0.1,0.8
		c0,0.1-0.1,0.2-0.2,0.3c-0.5,0.7-1.4,1.3-1.5,2c-0.1,0.7,0.7,1.4,1.1,2.2c0.1,0.4,0.1,0.8,0.1,1.2c-0.4,0-0.7-0.1-1-0.2
		c-1.5-1-1.5-1-2.2,0.7c-0.1,0.4-0.4,0.7-0.7,1l0.6-2.6c-0.6-0.3-1-0.2-1.1,0.5c-0.1,0.5-0.2,1-0.4,1.4c-0.2,0.1-0.5,0.2-0.7,0.2
		c0-0.2,0-0.5,0-0.7c0.1-0.5,0.4-1,0.6-1.6l-1.6-0.2c0.2-0.3,0.5-0.6,0.8-0.8c1.4-0.2,1.5-1.2,1.6-2.3c0.1-0.6,0-1.1,0-1.7
		c0-0.2,0.1-0.4,0.2-0.6c0.2,0.1,0.4,0.2,0.6,0.3C-1627.7-211.1-1627.3-210.5-1626.8-209.7z"/>
	<path id="Path_620_1_" d="M-1594-181.2l-4.8,4.1l-0.2-0.1l1-1.9c-0.9,0.2-1.6,0.3-2.2,0.4c-0.3,0-0.6,0-0.9,0
		c-1-0.1-2.1-0.3-3.1-0.5c-1.3-0.2-2.6-0.4-3.9-0.5c-2-0.1-4-0.1-6.1-0.2c-0.4-0.1-0.7-0.4-1-0.7c1.2-1.1,2.7-1.7,4.2-1.7
		c3.1-0.3,6.1-0.4,9.2-0.4c2.4,0.2,4.9,0.6,7.2,1.1C-1594.3-181.5-1594.2-181.4-1594-181.2z M-1614.1-180.8l0,0.3
		c2.4,0.1,4.9,0.2,7.3,0.4c2.4,0,4.8,0.2,7.1,0.5c2,0.4,3.2-0.4,4.6-1.7C-1601.6-182.4-1607.9-183.2-1614.1-180.8L-1614.1-180.8z"/>
	<path id="Path_621_1_" d="M-1606.3-164.8c-0.9,0.3-1.7,0.7-2.5,1.2c-0.8,0.6-1.5,1.4-2,2.2c-0.4,0.6-0.8,0.6-1.5-0.2
		c1.4-1.1,0.6-2.5,0.4-3.7c-0.7-3.7-2.2-7.3-4.4-10.4c-0.2-0.4-0.3-0.9-0.4-1.4c4.4,2.9,6.7,7.1,9.2,11.1
		C-1607.2-165.4-1606.7-165.1-1606.3-164.8z M-1607.7-165.1c-2.4-3.2-4.1-7-7.2-9.7c2.2,3.5,3.6,7.5,4.1,11.6L-1607.7-165.1z"/>
	<path id="Path_622_1_" d="M-1621.4-187c-0.6-2.7-1.2-5.5-1.8-8.2c-0.5-2.1-1-4.1-1.5-6.2c0-0.4,0.1-0.9,0.4-1.2
		c1.3,7.3,3.5,14.4,4.8,21.7l-0.5,0.1l-1-2.7c-1.9-5.4-3.9-10.8-5.8-16.2c-0.2-0.4-0.3-0.8-0.5-1.2c-0.4-0.6-0.2-1.3,0.3-1.7
		c0.1-0.1,0.3-0.1,0.4-0.2c0.3-0.1,0.6-0.2,0.9-0.4c0.3-0.1,0.6-0.2,0.9-0.4l0.2,0.3l-2.3,1.7c1.7,4.7,3.5,9.7,5.3,14.6L-1621.4-187
		z"/>
	<path id="Path_623_1_" d="M-1633.2-189.9l-0.9,1.4l-0.4-0.3c-0.1-1.2,0.3-2.5,1.1-3.4l-1.1-0.5l0.1-0.3c1-0.2,2-0.1,2.8,0.4
		c-1.5,0.5-1.8,1.5-0.6,2.4c1.2,0.9,2.6,1.6,4,2.5c0.4,0.3,0.8,0.5,1.6,0.9l-1.2-2.1l0.3-0.2c1,1.3,1.9,2.7,2.9,4
		c0.7,1,1.5,1.9,2.2,2.8c0.1,0.2,0.2,0.4,0.2,0.6l-0.3,0.2c-0.8-0.6-1.7-1.2-2.4-1.9c-0.4-0.5-1.1-0.8-1.7-0.7
		c-2.9,0.4-5.8,0.7-8.6,1.1c-0.4,0-0.9-0.1-1.3-0.2l0-0.4l10.8-1C-1627.5-187.3-1630.6-188-1633.2-189.9z"/>
	<path id="Path_624_1_" d="M-1597.9-197.2l-2.4,1.7h1.1c-5.7,4-12.2,6.5-16.4,12.3c-0.3-1.4,2.2-4.6,5.4-7l-1.7,2.2
		c2.4-1.5,4.6-2.8,6.6-4.3c2.1-1.5,4-3.1,6-4.8c-1.6-0.1-3.3-0.8-4.7,0.9c-0.7,0.8-1.5,1.4-2.3,1.8l4.4-5l0.1,1.2l3.8,0.6
		L-1597.9-197.2z"/>
	<path id="Path_625_1_" d="M-1601.4-168.9c0.2-1.3,0.4-2.5,0.6-3.6l0.4-0.1l1.1,2.2c0.6-0.5,1.2-1,1.9-1.4c0.4-0.1,0.8-0.1,1.1,0
		c-0.1,0.3-0.2,0.7-0.3,1c-0.1,0.2-0.2,0.3-0.3,0.4c-1.2,1-2,2-0.8,3.5c0,0.3,0,0.7-0.2,0.9c-0.3,0-0.6-0.1-0.8-0.2
		c-0.5-0.4-0.8-0.7-1.2,0c-0.1,0-0.1-0.1-0.2-0.2c-0.1-0.4-0.2-0.8-0.4-1.3c-0.3,0.4-0.6,0.7-0.9,1.1c-0.2,0.4-0.3,0.8-0.5,1.2
		c-0.2,0.2-0.4,0.3-0.7,0.3c-0.1-0.2-0.1-0.4-0.1-0.7c0.1-0.3,0.2-0.5,0.4-0.8c0.3-0.8,0.8-1.6-0.5-1.9c-0.2-0.2-0.3-0.4-0.4-0.7
		c0.2-0.1,0.5-0.1,0.7-0.2C-1602-169.1-1601.7-169-1601.4-168.9z"/>
	<path id="Path_626_1_" d="M-1633.4-172.6c0.4,0,0.8,0.1,1.2,0.1c0.2,0.1,0.4,0.2,0.5,0.4c-0.1,0.2-0.3,0.3-0.5,0.4
		c-2-0.3-4-0.6-6-0.9c-0.2,0-0.3-0.2-0.4-0.4c0-0.2,0.2-0.4,0.3-0.5c1.5-0.9,3-1.8,4.4-2.7c2.4-1.5,5-2.6,7.7-3.2
		c1.2-0.3,2.3-0.4,3.7-0.7l-0.6,0.9l0.9,0.4l-0.1,0.2c-0.2,0.1-0.4,0.1-0.5,0.1c-1-0.6-2.2-0.5-3,0.3c-2.5,1.8-5.1,3.5-7.6,5.3
		L-1633.4-172.6z M-1626.5-178.7c-0.1,0-0.3-0.1-0.4-0.1c-2.1,0.9-4.3,1.8-6.4,2.8c-0.9,0.5-1.8,1-2.6,1.6c-0.3,0.3-0.5,0.6-0.6,0.9
		c0.3,0.2,0.6,0.3,0.9,0.4c0.7-0.1,1.3-0.2,1.9-0.6C-1631.4-175.2-1629-176.9-1626.5-178.7L-1626.5-178.7z"/>
	<path id="Path_627_1_" d="M-1616-207.8c1.1-0.3,2.1-0.8,3-1.5c0.7-0.9,1.3-1.8,1.7-2.8l0.3,0.1l0.2,2l3.7-1.5l0.3,0.3
		c-0.3,0.3-0.6,0.7-0.9,1c-0.5,0.4-1.1,0.7-1.6,1.1c-1.2,0.9-1.2,1.1-0.7,2.4c0,0.3,0,0.6,0,0.9c-0.3-0.1-0.5-0.3-0.7-0.4
		c-0.5-0.6-0.8-0.7-1.3,0c-0.4,0.5-0.9,1-1.4,1.4l-0.2-0.2l1.4-2c-1.2-0.8-1,0.9-1.9,0.9l-0.1-1l-1.8-0.2L-1616-207.8z"/>
	<path id="Path_628_1_" d="M-1621.8-168.9l1,0.2c-1.7,0.6-3.1,1.7-4.2,3.1c-0.2,0.1-0.4,0.2-0.6,0.1c-0.1-0.1-0.2-0.3-0.2-0.5
		c-0.2-3.7,1.5-6.7,3.3-9.7c0.7-1,1.4-1.9,2.2-2.8c0.3-0.2,0.5-0.3,0.8-0.4C-1620.3-175.4-1621-172.1-1621.8-168.9z M-1620.6-176.7
		l-0.4-0.2c-1.8,2.9-3.8,5.7-3.9,9.6c1.3-0.8,2.6-1.2,2.8-2.9C-1621.7-172.3-1621.2-174.5-1620.6-176.7z"/>
	<path id="Path_629_1_" d="M-1637-162.6l-1.3-1c0.4-0.2,0.8-0.4,1.2-0.6c1.1-0.2,2-0.9,2.3-2c0.2-0.3,0.4-0.6,0.7-0.8
		c0.1,0.3,0.2,0.6,0.3,0.9c0,0.2,0.1,0.3,0.1,0.5l2-0.6c-0.2,0.4-0.4,0.8-0.7,1.2c-1,0.8-1.5,2.2-1.1,3.5c0,0.5,0,0.9-0.1,1.4
		l-1.1-1l-0.8,0.2l-0.1-1.6l-1.6,2l-0.4-0.3L-1637-162.6z"/>
	<path id="Path_630_1_" d="M-1641.1-177.5l-1.4-2.7l-1.4,0.8l-0.1-0.2l0.5-1l-0.3-0.2c-0.2,0.4-0.5,0.9-0.7,1.3
		c-0.2,0.2-0.5,0.4-0.8,0.6c-0.1-0.3-0.1-0.6-0.1-1c0.2-0.7,0.8-1.4-0.3-1.8c0.1-0.2,0.2-0.5,0.4-0.7c0.9,0.3,1-0.2,1.2-0.8
		c0.2-0.5,0.4-0.9,0.7-1.3l0.3,0c0.2,0.4,0.3,0.8,0.5,1.2c0.2,0.8,0.6,0.8,1.1,0.5c0.6-0.4,1.1-0.8,1.7-1.1c0.4-0.2,0.8-0.3,1.2-0.4
		l0.2,0.4c-0.4,0.3-0.8,0.7-1.2,1c-0.4,0.3-0.9,0.5-1.2,0.8c-1.3,1-1.3,1-0.3,2.4C-1640.5-178.8-1640.4-178.2-1641.1-177.5z"/>
	<path id="Path_631_1_" d="M-1595.6-199.6l-1.4-0.1c0.3-1.4,0.3-1.4-2.2-1.5l-0.2-1.5c2.1,0.4,2.7-1.5,4.1-2.8l0.2,2.8
		c0.5-0.2,1.1-0.5,1.6-0.6c0.3,0,0.6,0,0.8,0.1c-0.1,0.3-0.3,0.5-0.5,0.7C-1594.4-202.1-1595.3-201-1595.6-199.6z"/>
	<path id="Path_632_1_" d="M-1619.3-211.5c-0.5,6.5-1.7,12.9-0.7,19.4l-0.3,0.1c-0.1-0.2-0.3-0.5-0.3-0.7c-0.2-2.4-0.3-4.9-0.2-7.3
		c0.3-3.8,0.9-7.5,1.4-11.3C-1619.4-211.4-1619.4-211.4-1619.3-211.5z"/>
	<path id="Path_633_1_" d="M-1590.2-193.5c0,1.4-0.7,2.4-1.4,2.2c-0.5-0.2-1.2-1-1.1-1.2c0.4-0.7,0.9-1.3,1.5-1.8L-1590.2-193.5z"/>
	<path id="Path_634_1_" d="M-1613.3-191c0.1-1.5,5.6-9.2,7.8-11L-1613.3-191z"/>
	<path id="Path_635_1_" d="M-1603.6-189.2l-9.1,4.6l-0.2-0.4c2.7-2.1,6.1-3,9.1-4.5L-1603.6-189.2z"/>
	<path id="Path_636_1_" d="M-1636.2-195c0,1.2-0.6,2.1-1.3,2.2c-0.7,0-1.5-1-1.2-2c0.2-0.6,0.7-1,1.3-1.2c0.5-0.1,1.1,0.3,1.2,0.8
		C-1636.2-195.2-1636.2-195.1-1636.2-195z M-1637.7-194l0.5,0.1l0.3-1.2l-0.7-0.1L-1637.7-194z"/>
	<path id="Path_637_1_" d="M-1598.6-186.2c-1.7-0.4-2.7,0.3-3.8,2.1c-0.1-1.7,1.2-3.1,2.9-3.1c0.1,0,0.2,0,0.3,0
		c0.3,0,0.7,0.1,0.9,0.4c0.1,0.3,0.1,0.7-0.1,0.9c-0.5,0.7-1,1.3-1.6,1.8c-0.3,0.1-0.6,0.1-0.9,0.1c0.1-0.3,0.3-0.5,0.5-0.8
		C-1599.7-185.3-1599.1-185.7-1598.6-186.2z"/>
	<path id="Path_638_1_" d="M-1623.6-159.9c0-0.5,0-0.9,0.1-1.4c0.3-0.4,0.7-0.7,1-1c0.3,0.4,0.6,0.8,0.7,1.2c0,0.5-0.1,0.9-0.4,1.3
		c-0.3,0.3-0.7,0.6-1.1,0.8L-1623.6-159.9z"/>
	<path id="Path_639_1_" d="M-1634.1-200.8c0,1.5-0.5,2.3-1.2,2.2c-0.4-0.1-0.8-0.4-0.9-0.9c-0.1-0.8,0.8-2.2,1.3-2.1
		C-1634.6-201.3-1634.3-201.1-1634.1-200.8z"/>
	<path id="Path_640_1_" d="M-1617-166.2c0.7,0,1.2,0.5,1.3,1.2c0,0,0,0,0,0.1c0,0.8-0.6,1.6-1.2,1.4c-0.7-0.2-1.4-0.6-1.9-1.2
		C-1619.2-165.2-1617.9-166.2-1617-166.2z M-1617.1-165.8c-0.2,0.2-0.4,0.5-0.5,0.7c0.2,0.3,0.5,0.6,0.8,0.9
		c0.2-0.2,0.4-0.5,0.5-0.7C-1616.5-165.3-1616.8-165.6-1617.1-165.8L-1617.1-165.8z"/>
	<path id="Path_641_1_" d="M-1606.4-205.6c0.2-0.9,0.9-1.9,1.6-2c0.3,0,0.6,0.1,0.8,0.3c0.2,0.5,0.2,1.1,0,1.6
		c-0.4,0.5-0.9,1-1.5,1.4L-1606.4-205.6z M-1605.4-205.3l0.3,0.2l0.9-1.5l-0.4-0.2C-1605.2-206.7-1605.6-206.1-1605.4-205.3
		C-1605.4-205.4-1605.4-205.4-1605.4-205.3L-1605.4-205.3z"/>
	<path id="Path_642_1_" d="M-1627-173.4c-0.9,2.9-1.9,5.9-2.8,8.8C-1629.4-167.7-1628.8-170.8-1627-173.4z"/>
	<path id="Path_643_1_" d="M-1608.1-171.6c0.6,0,1.2-0.1,1.8-0.2c0.1-0.3,0.2-0.6,0.1-0.9l-1.5,0.4c0.1-0.4,0.1-1,0.3-1.1
		c0.4-0.2,0.9-0.2,1.3,0c0.5,0.3,0.7,1,0.4,1.6c0,0-0.1,0.1-0.1,0.1c-0.3,0.7-1,1.1-1.8,0.8C-1607.6-171-1607.9-171.2-1608.1-171.6z
		"/>
	<path id="Path_644_1_" d="M-1643.4-164.7c-0.3,0.3-0.6,0.9-0.8,0.9c-0.4-0.1-0.7-0.4-1-0.7c0-0.1,0-0.1,0-0.2c0-0.6,0-1.1,0.1-1.7
		c0.2-0.1,0.4-0.1,0.6-0.1C-1644.1-166-1643.8-165.4-1643.4-164.7z"/>
	<path id="Path_645_1_" d="M-1646.2-193.6c-0.5-0.7-1-1.1-1-1.5c0-0.4,0.6-0.7,0.9-1.1c0.4,0.3,0.8,0.7,1.1,1.2
		C-1645.1-194.8-1645.7-194.3-1646.2-193.6z"/>
	<path id="Path_646_1_" d="M-1602.3-155.5l1-0.3c-0.2-0.1-0.5-0.3-0.7-0.5c-0.1-0.2-0.2-0.5-0.3-0.7c0.3-0.1,0.6-0.1,0.9-0.1
		c0.3,0.1,0.4,0.3,0.5,0.6c0.2,0.5,0.3,1.1,0.4,1.6l-1.9-0.1L-1602.3-155.5z"/>
	<path id="Path_647_1_" d="M-1587.5-175.9c-0.3,0.3-0.6,0.5-0.9,0.6c-0.5-0.4-1-0.8-1.4-1.2c0.2-0.3,0.5-0.6,0.8-0.9L-1587.5-175.9z
		"/>
	<path id="Path_648_1_" d="M-1635.3-209.6l-0.8,0.9c-0.4-0.3-0.7-0.7-0.9-1.1c-0.1-0.2,0.5-0.6,0.8-0.9L-1635.3-209.6z"/>
	<path id="Path_649_1_" d="M-1617.8-171l-1.2-4.1l0.4-0.1c0.8,1.2,0.9,2.7,1.1,4.1L-1617.8-171z"/>
	<path id="Path_650_1_" d="M-1633.5-151.8c-0.4-0.1-0.7-0.3-1-0.5c-0.2-0.3-0.3-0.6-0.3-0.9c0.3-0.1,0.7,0,1,0.1
		c0.3,0.3,0.5,0.7,0.6,1.1L-1633.5-151.8z"/>
</g>
</svg>
