<?xml version="1.0" encoding="utf-8"?>
<svg version="1.1" xmlns="http://www.w3.org/2000/svg" xmlns:xlink="http://www.w3.org/1999/xlink" x="0px" y="0px"
	 viewBox="0 0 56.6 47.5" style="enable-background:new 0 0 56.6 47.5;" xml:space="preserve">
<g id="Group_72_1_" transform="translate(1674.002 217.726)">
	<path id="Path_651_1_" d="M-1674-182.3c0.3-1.4,0.6-2.6,0.9-3.8c0.6-2,1.3-4,1.7-6.1c0.4-2.1,0.4-4.1-1.1-5.9
		c-0.4-0.9-0.6-1.8-0.5-2.8c-0.1-3.5,0.2-6.9,2.4-9.9c2-2.7,3.2-3.3,7-1.5c1.2,0.6,2.3,1.3,3.3,2.1c0.7,0.6,1.7,0.7,2.5,0.2
		c1.4-0.8,2.8-1.6,3.1-3.5c0.3-2.3,2.1-4,4.4-4.3c1.1-0.1,2.3,0,3.4,0.3c2.2,0.4,4.5,0.9,6.7,1.5c1.2,0.2,2.3,0.8,3.1,1.6
		c1.6,2,3.7,2.5,6,3.1c3.2,0.8,6.4,1.4,9.4,2.6c2.5,1.1,4.6,3.2,4.5,6.4c-0.1,2.4-1.2,4.7-3,6.3c-2.1,1.8-4.4,3.4-6.6,5.2
		c-2,1.6-2.3,3.3-1.5,5.6c1,2.7-0.1,4.6-2.9,5.1c-3.1,0.5-6.3,1-9.4,1.6c-0.7,0.1-1.3,0.5-1.8,0.9c-1.3,1.3-2.4,2.9-3.7,4.2
		c-1.1,1.1-2.3,2.1-3.7,2.8c-2.1,1-4.7-0.5-5.5-2.7c-0.7-2.1-1.3-4.2-3.4-5.4c-1.2-0.8-2.7-0.9-4-0.3c-1.3,0.5-2.6,1-4,1.4
		c-2.1,0.6-4.3,0-5.8-1.7C-1673.5-180-1673.6-181.3-1674-182.3z M-1635.8-180.6l0.1,0.3c1.1-0.2,2.3-0.5,3.4-0.7
		c3.1-0.6,3.5-1.3,2.5-4.3c-0.6-2.3,0.1-4.8,1.9-6.4c2.2-1.7,4.5-3.3,6.7-5c1.8-1.4,2.8-3.5,2.6-5.8c-0.1-2.8-2.2-4.1-4.3-5.2
		c-1.3-0.5-2.6-0.9-3.9-1.1c-2-0.6-4.1-1-6.1-1.7c-1.5-0.4-3-1-4.2-2c-1.2-1.2-2.7-1.9-4.3-2.2c-2.2-0.4-4.3-1-6.4-1.7
		c-2.7-0.7-5.4,1-6.1,3.7c0,0,0,0,0,0c0,0.1,0,0.2-0.1,0.3c-0.1,0.6-0.4,1.2-0.8,1.6c-2,2.1-3.8,4-6.9,1.3c-0.9-0.7-1.9-1.3-3-1.8
		c-1.4-0.8-3.4-0.6-4.3,0.5c-2,2.5-3.6,5.3-3,8.7c0.4,1.7,0.9,3.3,1.5,4.9c0.8,2.8,0.6,5.8-0.5,8.5c-0.9,2.4-1.9,4.8-1.3,7.5
		c0.1,0.6,0.4,1.2,0.9,1.7c1.4,1.2,3.3,1.5,5,0.7c1.3-0.5,2.5-1,3.8-1.4c1.6-0.6,3.4-0.3,4.7,0.9c1.5,1.3,2.6,3,3,4.9
		c0.5,1.4,1,2.7,2.7,2.9c1.7,0.3,3.4-0.4,4.4-1.8c1.4-1.7,2.8-3.3,4.2-4.8c0.5-0.6,1.1-1,1.8-1.2
		C-1639.7-180-1637.7-180.3-1635.8-180.6L-1635.8-180.6z"/>
	<path id="Path_652_1_" d="M-1649-186.8c-4.5,0.2-9.2-4-9-8.6c0.1-3.1,2.5-8.7,6.1-9.9c1.7-0.6,3.6-0.6,5.4,0
		c5.4,1.7,8.9,5.3,7.4,11.1c-0.8,2.6-2.6,4.7-5,5.9C-1645.7-187.6-1647.3-187.1-1649-186.8z M-1649.1-188.4c3.2,0,4.6-0.6,6.8-3
		c2.3-2.6,3.1-4.7,1.4-8.4c-1.2-2.7-3.6-3.5-6-4.3c-3.9-1.3-6.9,1-8.1,3.9c-0.2,0.4-0.4,0.9-0.6,1.3c-2,3.3-0.9,7.6,2.4,9.6
		C-1651.9-188.7-1650.5-188.3-1649.1-188.4z"/>
	<path id="Path_653_1_" d="M-1651.6-200.7c0.2,0.5,0.6,0.9,0.5,1.1c-1.5,2.7-0.2,5.2,0.4,7.7c0,0.5,0,0.9-0.2,1.4
		c-0.5-0.1-0.9-0.3-1.3-0.6c-2.5-2.8-2.3-5.7-0.6-8.7C-1652.4-200.2-1652-200.5-1651.6-200.7z"/>
</g>
</svg>
