<?xml version="1.0" encoding="utf-8"?>
<svg version="1.1" xmlns="http://www.w3.org/2000/svg" xmlns:xlink="http://www.w3.org/1999/xlink" x="0px" y="0px"
	 viewBox="0 0 536 150" style="enable-background:new 0 0 536 150;" xml:space="preserve">
<style type="text/css">
	.rsvp-color{fill:inherit;}
</style>
<g>
	<path class="rsvp-color" class="rsvp-color" d="M60.9,58.2c-1.8,0.7-3.7,1.8-4.6,2.5c1.7,1.1,5.5,4.6,3.5,9.4c-1.8,4.1-7.4,5.8-10.6,5.8V76c1.4,0.6,2.6,1.8,2.8,3.4
		c0.2,1.6-0.8,3.4-1.6,4.6c-1.4,2.2-2.9,3.9-2.9,5.6c0,0.6,0.4,1.4,1.5,1.4c1.3,0,3.1-1,5.8-3c1.7-1.3,3-2.4,3.8-3.2
		c0.5-0.5,0.9-0.8,1.1-0.6c0.2,0.2-0.1,0.5-0.6,1c-1,1-2.3,2.2-4.2,3.7c-2.3,1.8-5,3.4-7.4,3.4c-2.6,0-3.8-1.3-3.8-3.2
		c-0.1-2,1.4-4.4,2.8-6.2c1.5-1.9,2.9-3.4,2.8-5c0-1-0.8-1.5-1.4-1.8c-0.5,0.1-1.2,0.2-1.8,0.1c-0.7-0.1-1.1-0.2-1.4-0.4
		c-0.6,0.8-1.6,2.2-2.2,3c-5.8,7.1-10.6,9.6-15,11.5c1,0.2,3,0.6,3.9,0.6c2.2,0.2,4.2-0.2,5.8-1.4c1.2-0.8,1.2-1,1.4-1
		c0.2,0.1,0.1,0.6-0.7,1.4c-2.2,1.9-4.8,2.6-7.5,2.6c-1.9,0-4.8-0.7-6.2-1.1c-3.2,1-8.2,1.4-12.1,1.4c-2.9,0-7.3-0.6-7.3-2.6
		c0-2.1,3.2-3.4,8.2-3.1c3.4,0.2,9,1.8,13.1,2.7c3-1.4,6.5-4.6,11.7-11.6c7-9.1,12.6-14.6,16.5-17.1c-1.8-1.1-5-2.2-10-2.2
		c-10.2,0-21,6.2-23,14.7c-1,4.2,0.3,7.9,4.2,8.2c1.8,0.2,2-0.3,2.2-0.1s-0.8,0.9-2.3,0.9c-4.8-0.2-8.2-3.6-7.1-9.1
		c1.7-9,13.8-15.4,26.1-15.4c5.6,0,9.4,1.2,11.1,2.1c1.3-1,3.5-2.1,5.1-2.7c1.7-0.7,4.6-1.5,7.3-1.5c2.4,0,4.9,0.7,5.8,2.1
		c0.4,0.6,0.4,1.2,0.2,1.2c-0.2,0-0.1-0.2-0.7-0.9c-1-1-3-1.7-5.4-1.7C65.7,56.7,62.9,57.4,60.9,58.2z M12.6,89
		c-3.9-0.4-6.9-0.2-6.9,1.3c0,1.3,4.1,1.8,6.2,1.8c3.9,0.1,8.6-0.4,10.8-1C20,90.5,15.5,89.2,12.6,89z M50.1,67.7
		c-1.8,2.4-3.4,5-5,7.2c0.3,0,0.8,0,1.5,0.1c0.6,0.1,1.1,0.2,1.6,0.4c3.5-0.2,7.2-2.5,8.6-5.9c1.4-3.4,0.4-6.3-1.5-7.8
		C53.6,63,51.8,65.2,50.1,67.7z"/>
	<path class="rsvp-color" d="M70.9,88.4c1.5-1,3.4-2.5,4.9-3.8c0.5-0.4,0.7-0.5,0.9-0.3c0.2,0.2-0.2,0.6-0.6,1c-1,1-3.6,3-5,4c-3.4,2.2-6.3,3.3-9,3.3
		c-3,0-4.3-1.1-4.2-3.2c0.1-1.6,0.8-3,2.4-5L60,84.3c-0.2,0.2-1.1,1-1.6,1.4c-0.4,0.3-0.6,0.4-0.8,0.2c-0.2-0.2,0.2-0.6,0.5-0.9
		c1-1,1.8-1.5,3-2.4c0.9-0.6,2.4-1.6,3.9-2.4c2.3-1.2,4.7-2.2,6.9-2.2h0.1c1.8,0,2.4,1.1,2.3,2.2c-0.2,2.1-2.7,3.7-5.1,4.9
		c-2.3,1.1-5,2.1-6.9,2.6c-0.3,0.6-0.5,1.4-0.5,1.8c0,1.2,0.6,1.8,1.8,1.8C64.6,91.4,67.3,90.8,70.9,88.4z M68.1,84.4
		c2-1.4,3.2-3,3.3-4.2c0.1-0.7-0.2-1.1-1-1.1c-0.7,0-1.9,0.8-3.5,2.3c-1.3,1.2-3.3,3.8-4.2,5.4C64.3,86.4,66.5,85.5,68.1,84.4z
		 M78.1,64.3c0.2,0,0.4,0.2,0.6,0.4c0.5,0.8,0.2,1.9-0.6,2.6c-1.2,1.2-5,3.7-6.6,4.6c-0.5,0.2-0.8,0.4-1,0.2
		c-0.2-0.2,0.1-0.5,0.4-0.8c1.5-1.4,4.3-4.3,6-6.3C77.3,64.6,77.6,64.3,78.1,64.3L78.1,64.3z"/>
	<path class="rsvp-color" d="M76,85.3c-0.6,0.6-1,1-1.3,0.7c-0.2-0.2,0.3-0.8,1.1-1.5c1.8-1.6,3.9-3.6,5.4-5c1.5-1.4,4.6-4.2,7.3-6.6
		c0.9-0.8,2-1.6,3.1-1.6c1.8,0,1.3,0.4-0.1,2c-4.7,5.5-12.8,16-20.6,26.5c-7,9.5-9,12.2-14.3,20.6c-0.6,1-0.6,1.4-0.5,1.6
		c0.2,0.2,0.6,0,1-0.5c1-1.2,3.9-5.4,6.2-8.6c1.7-2.4,5.4-7.3,9.2-12.4c3.3-4.3,6.6-8.6,9.7-12.2c2.1-2.4,4.9-5.2,7-6.8
		c2.2-1.6,4.8-3.1,6.9-3.1c1.8,0,2.6,0.8,2.4,2.1c-0.2,1.4-1.8,3.1-3.3,4.8c-1.3,1.4-2.3,2.6-2.8,3.4c-0.6,1-0.6,1.6-0.2,1.8
		c0.4,0.3,1.2,0.2,2.2-0.2c1-0.5,2.2-1.3,3.7-2.4c1.4-1.1,2.6-2.2,3.7-3.1c0.4-0.4,1-0.9,1.2-0.6c0.2,0.2-0.4,0.8-0.6,1
		c-0.9,0.9-3.3,3-4.9,4.2c-1.7,1.3-4.5,3.2-7.2,3.2c-2,0-2.7-1.1-2.6-2.3c0.2-1.7,2.1-3.8,3.5-5.4c1.3-1.4,2.9-3.2,3.4-4
		c0.3-0.5,0.3-0.9,0-1c-0.3-0.2-1.1,0.1-1.8,0.4c-2.6,1.3-5.2,3.3-8.3,6.6c-2.5,2.7-7.4,8.8-11.6,14.5c-3.5,4.7-7.3,9.7-9.7,13.2
		c-2.6,3.8-5.4,7.8-6.9,9c-0.6,0.6-1.5,1-2.3,0.8c-0.9-0.2-1.4-0.8-1.4-1.7c0-1.8,1.4-4.3,3-6.7c3-4.5,5.4-8,11.2-15.8
		c3.8-5.3,12.8-17,16.9-22C80.3,81.4,77.3,84.2,76,85.3z"/>
	<path class="rsvp-color" d="M102.3,85.1c-0.6,0.5-0.9,0.6-1,0.5c-0.2-0.2,0.2-0.6,0.6-1c0.6-0.6,1.7-1.4,2.5-2c1-0.7,2.2-1.4,3.8-2.3
		c2.3-1.2,4.8-2.1,6.6-2.2c0.6,0,1.2,0,1.2,0.3c0,0.2-0.2,0.2-0.9,0.5c-1.9,0.9-3.5,2.2-5.8,4.4c-2.3,2.3-4.5,5.4-4.6,7
		c-0.1,0.8,0.2,1.4,1.1,1.4c1.8,0,5-2.2,7.4-4.9c0.1-0.8,0.4-2,1.4-3.4c0.9-1.2,2-1.8,2.6-2.1c0.2-0.6,0.2-1.4,0.2-1.8
		c0-0.9-0.3-1.1-0.1-1.3c0.3-0.2,0.8,0.2,1.1,0.5c0.6,0.6,1.1,1.6,1,2.8c-0.2,1.9-2.1,4.2-4.6,6.5c0.3,0.2,1.2,0.1,1.5,0
		c0.7-0.2,1.6-0.6,2.7-1.4c1-0.7,1.7-1.3,2.6-2.1c0.7-0.6,1.1-1,1.4-0.8c0.2,0.2-0.2,0.7-1,1.4c-0.7,0.6-1.5,1.4-2.6,2.1
		c-1.3,0.9-2.2,1.3-3,1.4c-0.7,0.2-1.7,0.2-2.2-0.2c-2.1,1.6-5.8,3.9-9.1,3.9c-2.5,0-4-1.2-3.9-3.5c0.1-1.6,1-3.5,2.6-5.1l-0.1-0.1
		C103.2,84.3,102.9,84.6,102.3,85.1z"/>
	<path class="rsvp-color" d="M136.1,90.2c0.1-1.8,1.8-3.8,3.4-5.6c1.2-1.4,2.4-2.8,3.4-3.9c0.3-0.4,0.5-0.9,0.1-1.1c-0.4-0.2-1.3,0.1-2.1,0.5
		c-1.4,0.7-3.7,2.1-6.2,4.1c-3.5,2.7-5.4,4.6-9,7.3c-0.7,0.6-1.2,0.7-2.1,0.7c-1.1,0-1.7-0.2-1-1.3c0.6-1,2.2-3.7,3.5-5.4
		c0.9-1.2,2.3-3,3.2-4.2c0.6-0.7,0.7-1.1,0.6-1.4c-0.2-0.3-0.7-0.2-1.2,0.1c-1,0.5-2.2,1.4-3.1,2.2c-1,0.9-2.3,2-3.4,3
		c-0.8,0.7-1.1,1-1.4,0.7c-0.2-0.2,0.2-0.6,1.2-1.5s2.7-2.6,4.2-3.7c2.2-1.7,3.8-2.6,5.4-2.6c1.5,0,2,0.9,2,1.8c0,1-0.6,2-1.7,3.4
		c-1.2,1.6-2.9,3.8-3.8,5l0.1,0.1c1.9-1.6,4.6-3.9,7.4-6s6.3-4.3,8.7-4.3c1.7,0,2.6,0.8,2.5,2.2c-0.2,1.4-1.9,3.3-3.2,4.9
		c-1.3,1.5-2.2,2.9-2.6,3.5c-0.6,1-0.6,1.5-0.3,1.8c0.4,0.3,1.3,0,1.9-0.3c1-0.5,2.1-1.1,3.8-2.5c1.4-1,3-2.5,3.8-3.3
		c0.6-0.6,0.9-0.6,1-0.5c0.2,0.2-0.1,0.5-0.6,1c-0.7,0.7-3.1,2.9-4.8,4.2c-1.6,1.2-4.7,3.2-7.2,3.2C137,92.3,136.1,91.6,136.1,90.2z
		"/>
	<path class="rsvp-color" d="M153.6,92.6c-2.3,0-3.9-1.3-3.9-3.4c0-2.1,1-3.8,2.4-5.3l-0.1-0.1c-0.5,0.4-1,0.9-1.8,1.5c-0.7,0.6-1,0.9-1.3,0.7
		c-0.2-0.2-0.1-0.4,0.2-0.7c0.7-0.7,2-1.8,3-2.4c1.6-1.1,3.1-2.1,5-3c1.4-0.6,4.6-2.1,7-1.8c1.6,0.2,2.1,1.9,1.8,3.2
		c1.7-3.2,2.4-5.7,3-9.4c1.6-11.8-5-23.6-14.6-30.9c-8.7-6.6-22.9-12.6-38.8-11.7c-17.4,1-27.8,9.6-29.1,21
		c-0.9,8.9,3.4,16.6,13.6,19.4c2.2,0.6,3.7,0.4,3.6,0.7c-0.1,0.3-1.7,0.3-3.9-0.1C89.2,68.3,82.3,59.8,83,50.8
		c1-12.8,13.8-21.1,32.3-22.2c16.7-0.9,30.6,4.3,40.2,11.1c10.6,7.3,17.7,19.3,16.6,30.3c-1.1,11.8-6.1,15.8-8.6,18.2
		C161.1,90.4,157.3,92.6,153.6,92.6z M161.7,86.9c1.3-1.4,3.3-4.7,3.3-6.5c0-0.9-0.2-1.4-1.3-1.4c-1.9,0-4.7,2.5-6.5,4.4
		c-2.1,2.2-4.2,5.4-4.2,7c0,1,0.6,1.3,1.3,1.3C156.7,91.7,159.7,89.2,161.7,86.9z"/>
	<path class="rsvp-color" d="M169.3,89.3c0.1-2.6,2.3-5.4,4.3-6.9c2.6-2.2,7-4.3,10-4.3c1.8,0,2.4,1.1,2.3,2.2c-0.2,2.1-2.7,3.7-5.1,4.9
		c-2.3,1.1-5,2.1-6.9,2.6c-0.3,0.6-0.5,1.4-0.5,1.8c0,1.2,0.6,1.8,1.8,1.8h0.1c1,0,3.8-0.6,7.3-3c1.5-1,3.6-2.7,4.9-3.8
		c0.5-0.4,0.7-0.5,0.9-0.3c0.2,0.2-0.1,0.6-0.6,1c-1,1-3.3,2.9-4.7,3.8c-3.4,2.2-6.6,3.4-9.4,3.4C170.8,92.6,169.3,91.4,169.3,89.3z
		 M179.9,84.4c2-1.4,3.2-3,3.3-4.2c0.1-0.7-0.2-1.1-1-1.1s-1.9,0.8-3.5,2.3c-1.3,1.2-3.3,3.8-4.2,5.4
		C176.1,86.4,178.2,85.5,179.9,84.4z"/>
	<path class="rsvp-color" d="M188,85c-0.6,0.5-0.7,0.5-0.9,0.3c-0.2-0.2,0.1-0.5,0.5-0.9c1.2-1.1,2.7-2.7,4-4.2c-0.2-1,0.1-1.9,0.8-2.8
		c0.7-0.9,1.8-1.3,2.9-1.3c0.6,0,1.4,0.3,1.4,0.9c-0.3,0.2-1,0.4-1.3,1.3c-0.2,0.6,0.2,1.6,2.2,1.6c2.2,0,4.6-0.6,6.5-1.4
		c0.6-0.2,1.4-0.4,1.6-0.1c0.4,0.4-0.2,1.5-0.5,1.8c-1.1,1.5-3.4,3.5-6.9,5.4c-2.7,1.4-4.8,2.2-6.7,3.2c0.6-0.2,1.2-0.2,1.9-0.2
		c3.4,0,4.9,2.3,4.9,4.7c0,1-0.2,1.9-0.4,2.6c4.6-0.6,9.2-1,14.1-1c23.8,0,37.8,8.1,38.5,22.3c0.8,16.2-16.4,26.6-33.4,26.6
		c-12.6,0-21.4-5.7-21.8-14.6c-0.2-6.2,4.2-12.5,10.5-15c1.2-0.5,1.6-0.6,1.7-0.4c0.1,0.2-0.2,0.2-1,0.6
		c-6.4,2.9-10.5,9.1-10.2,14.8c0.5,8.8,9.3,13.3,20.6,13.3c17,0.1,33-9.7,32.2-25.7c-0.6-13.3-15.1-21.1-37.1-21.1
		c-5,0-9.8,0.4-14.4,1.1c-2.2,6.5-8.9,15.2-13.9,20.6c-12.2,13-22.6,20.2-31.8,24.7c-5.7,2.8-9.8,3.4-12.2,3.4h-0.1
		c-3.4,0.1-6.6-1.7-5.8-6.9c0.9-6.1,7.8-14.6,16.8-21.6c10.8-8.5,25.5-16.7,43-20.3c0.6-1,0.9-2,1.2-2.9c0.9-2.8-0.1-4.4-1.9-4.4
		c-2.4,0-4.6,1.8-5.8,3c-0.2,0.2-0.6,0.7-1,0.4c-0.4-0.3-0.1-1,0.2-1.4c0.6-0.6,1.9-1.6,3.4-2.4c3-1.6,5.1-2.3,7.8-3.9
		c2.7-1.6,4.6-3,5.8-4.5c0.2-0.2,0.4-0.5,0.3-0.7c-0.1-0.2-0.3-0.1-0.5,0c-2.7,1.5-5.5,2.5-7.5,2.5c-1.8,0-3.3-0.5-3.9-1.5
		C190.5,82.5,189.3,83.8,188,85z M139.9,144.7c2.1,0,6.7-0.8,11.4-3.2c9.6-5,16.6-11.4,30.1-26.5c4.2-4.6,9-11.8,11.8-17.3
		c-16.7,3.6-31.2,11.5-42,20.1c-8.6,6.9-15.6,15.3-16.3,21C134.3,143,136.7,144.6,139.9,144.7L139.9,144.7z"/>
	<path class="rsvp-color" d="M222.2,84.2c-0.3,0.2-0.6,0.3-0.8,0.1c-0.1-0.2,0-0.4,0.4-0.6c0.8-0.5,2.1-1.3,3.4-2.2c1.4-1,2.9-2.2,4.7-3.8
		c0.2-0.3,0.7-1,1.3-1.4c0.9-0.6,1.8-0.9,2.3-0.9c1.8,0,0.6,1-0.4,1.7c-0.7,0.5-1.5,0.8-1.9,1.2c-0.6,0.6-0.6,1.3-0.6,2.2
		c0.1,2.2,0.2,4.3-0.7,6.6c-0.5,1.1-1.4,2.2-2.6,3.3c-2.2,1.8-4.5,2.4-6.9,2.4h-0.1c-4.2,0-5-2.6-4.7-4.8c0.3-2.3,2.2-4.2,4.1-4.2
		c1.1,0.1,1.7,0.9,1.5,1.8c-0.2,0.8-0.7,1.4-1.8,2c-0.7,0.4-1.8,1.3-1.8,2.4c-0.1,1.3,0.9,2,2.3,2c1.6,0,3.6-1.3,5.4-4.3
		c1.4-2.3,2.9-7.1,3.8-8.2v-0.1c-0.8,0.8-2.5,2.1-3.8,3C224.1,83,222.9,83.8,222.2,84.2z"/>
	<path class="rsvp-color" d="M249.8,64c0,0.2-0.2,0.7-0.6,1.2c-2,2.3-5.1,4.4-6.3,5.2c-0.5,0.3-0.8,0.6-1,0.4c-0.2-0.2,0.2-0.4,0.6-0.9
		c1-1,2-2.2,2.6-3.4c0.4-0.7,0-1.1,0.2-1.7c0.4-0.9,1.8-1.4,3.3-1.5C249.5,63.2,249.8,63.5,249.8,64L249.8,64z"/>
	<path class="rsvp-color" d="M246,82.8c-1.2,1-2.1,1.7-2.9,2.4c-0.6,0.6-1,0.8-1.2,0.6c-0.2-0.2,0-0.5,0.9-1.3s3.8-3.2,5.7-4.5c2.1-1.4,3.1-1.8,4.6-1.8
		c1.7,0,1.8,0.2,0.9,1.3c-1.4,1.6-2.7,3.1-4.3,5.1c-1.4,1.7-2.3,3.1-2.8,3.9c-0.5,0.9-0.6,1.4-0.2,1.8c0.4,0.3,1.1,0.2,1.9-0.2
		c0.8-0.4,2.2-1.3,3.5-2.4c1.7-1.4,2.4-2,3.7-3.2c0.7-0.6,1-1,1.3-0.7s-0.6,1-0.9,1.3c-1,1-3,2.7-4.6,4c-1.6,1.3-4.3,3.3-7,3.3
		c-1.7,0-2.4-0.8-2.4-2.1c0-1,0.6-2.1,1.2-3c1.6-2.5,4.7-5.8,6-6.9C248.9,80.6,247.2,81.8,246,82.8z M260.6,67.5
		c1,0,1.5,0.9,0.6,2.1c-1,1.3-3,2.2-3.8,2.2c-0.4-0.5-0.5-1.7-0.1-2.7C257.8,67.8,259,67.5,260.6,67.5L260.6,67.5z"/>
	<path class="rsvp-color" d="M259.6,82c-1.2,1-2.4,2.2-3.3,3c-0.5,0.4-0.7,0.5-0.9,0.2c-0.1-0.2,0.2-0.5,0.4-0.7c0.3-0.3,3-2.6,5.2-4.5
		c2.2-3,6.2-8,8.6-10.9c-2.7,0.2-5.4,0.3-7.8,0.3c-18.3,0-48.1-5.2-46.8-29.5c0.8-14.7,17.4-25,36-25.4c20.9-0.6,28.6,8.7,28.6,17.5
		c0,9.4-10.3,17-21.5,17.6c-1,0.1-2.6,0-2.6-0.4c0-0.2,1-0.1,2.4-0.2c10.9-0.5,21-8.1,21-17c0-8.3-7.4-17.3-28-16.8
		c-19,0.5-33.1,11.1-33.8,24.5c-1.1,23.8,26.9,29,44.6,29c2.6,0,5.4-0.2,8.4-0.4c9.9-11.5,18.6-20.9,27.2-29.2
		c9.3-9,21.4-18.4,33.7-25.1c11.2-6.2,22.5-10.2,31.7-9.6c5.8,0.3,10.9,3.1,10.9,9.6c0,13.4-19.5,27.6-40,37.8
		c-19,9.2-41.4,15-59.5,16.9c-2.6,3-5.2,6.2-7.5,9.3c-3.2,4.2-5.8,7.9-6.7,10.2c-0.2,0.6-0.7,1.7-0.2,2.2c0.6,0.4,1.8-0.1,2.5-0.5
		c1-0.6,2.2-1.4,3.3-2.2c1.4-1.1,2.5-2,3.5-3c0.3-0.3,1-0.9,1.2-0.6c0.2,0.2-0.1,0.5-0.6,1c-1,1-3,2.7-4.9,4.2
		c-1.6,1.2-4.6,3.2-7.2,3.2c-1.6,0-2.6-0.7-2.5-2.2C255.3,88.2,257.3,85.1,259.6,82L259.6,82z M333.3,50.9
		c20.2-9.9,39.4-24.5,39.4-37c0-5.8-4.8-8.5-9.8-8.7c-9.2-0.5-20.2,3.7-31.2,10.2c-11.8,7-23.1,16.3-30.8,24.2
		c-9,9.3-17.2,17.9-26.1,28.3C292.8,65.8,315.1,59.8,333.3,50.9z"/>
	<path class="rsvp-color" d="M294.9,92.4L294.9,92.4c-1.7,0-2.7-0.6-3-1.7c-0.3-1.2,0-2.5,0.4-3.4c0.6-1.7,1.9-3.7,3.6-5.8c0.8-1,1.8-1.9,3-3
		c-2.2-0.1-5.7-0.6-9.5-0.6c-3.7,0-7.5,1-8.8,3.8c-0.7,1.6-0.8,3.8-0.4,5c0.2,0.7,0.4,0.9,0.3,1s-0.5-0.2-0.7-0.6
		c-0.7-1.4-0.9-3.8,0-5.9c1.3-3.3,4.6-5,9.5-4.9c3,0.1,5.7,0.7,8.1,1.1c0.9,0.2,1.8,0.2,2.4,0c0.5-0.2,1-0.5,1.3-0.7
		c0.8-0.6,1.3-0.6,2.1-0.7c1.4-0.1,1.6,0.5,0.7,1.4c-1.5,1.6-4.1,4.8-5.7,7.2c-1.1,1.7-1.9,3.4-2.2,4.5c-0.2,0.7-0.2,1.2,0.2,1.5
		c0.4,0.3,1.4,0.2,2,0c1.8-0.6,4.6-2,7-4.4c0-1.8,1.1-4,1.9-5.1c1.4-2.1,2.8-3.2,3.8-3c1,0.2,0.9,1.8,0.2,2.9c-1.2,2.1-3.2,4-5,5.5
		c0.2,0.6,0.9,0.9,1.6,1c1.1,0.1,2.5-0.3,3.8-1.3c1-0.7,1.7-1.4,2-1.7c0.4-0.4,1-0.9,1.2-0.6c0.2,0.2-0.3,0.7-0.8,1.2
		c-0.5,0.5-1,0.9-1.9,1.6c-1.4,1-2.7,1.5-4.2,1.5c-1,0-2-0.5-2.3-1.1C301,91.1,297.3,92.4,294.9,92.4z"/>
	<path class="rsvp-color" d="M314.1,85.1c-0.6,0.5-0.9,0.6-1,0.5c-0.2-0.2,0.2-0.6,0.6-1c0.6-0.6,1.7-1.4,2.5-2c1-0.7,2.2-1.4,3.8-2.3
		c2.3-1.2,4.8-2.1,6.6-2.2c0.6,0,1.2,0,1.2,0.3c0,0.2-0.2,0.2-0.9,0.5c-1.9,0.9-3.5,2.2-5.8,4.4c-2.3,2.3-4.5,5.4-4.6,7
		c-0.1,0.8,0.2,1.4,1.1,1.4c1.8,0,5-2.2,7.4-4.9c0.1-0.8,0.4-2,1.4-3.4c0.9-1.2,2-1.8,2.6-2.1c0.2-0.6,0.2-1.4,0.2-1.8
		c0-0.9-0.3-1.1-0.1-1.3c0.3-0.2,0.8,0.2,1.1,0.5c0.6,0.6,1.1,1.6,1,2.8c-0.2,1.9-2.1,4.2-4.6,6.5c0.3,0.2,1.2,0.1,1.5,0
		c0.7-0.2,1.6-0.6,2.7-1.4c1-0.7,1.7-1.3,2.6-2.1c0.7-0.6,1.1-1,1.4-0.8c0.2,0.2-0.2,0.7-1,1.4c-0.7,0.6-1.5,1.4-2.6,2.1
		c-1.3,0.9-2.2,1.3-3,1.4c-0.7,0.2-1.7,0.2-2.2-0.2c-2.1,1.6-5.8,3.9-9.1,3.9c-2.5,0-4-1.2-3.9-3.5c0.1-1.6,1-3.5,2.6-5.1l-0.1-0.1
		C314.9,84.3,314.6,84.6,314.1,85.1z"/>
	<path class="rsvp-color" d="M336.8,82.8c-1.2,1-2.1,1.7-2.9,2.4c-0.6,0.6-1,0.8-1.2,0.6c-0.2-0.2,0-0.5,0.9-1.3s3.8-3.2,5.7-4.5
		c2.1-1.4,3.1-1.8,4.6-1.8c1.7,0,1.8,0.2,0.9,1.3c-1,1.1-2.6,3-4.2,5c-1.3,1.7-2.6,3.4-3,4.3c-0.3,0.6-0.3,1.2-0.1,1.4
		c0.3,0.3,1,0.2,1.8-0.2c1.8-1,3.5-2.2,6-4.2c3.8-3,6.1-5,8.6-7c0.6-0.5,1.1-0.9,2.3-0.9c1.4,0,2.2,0.2,1.2,1.3
		c-1.4,1.8-2.6,3-4.2,5.1c-1.4,1.7-2.4,3.1-3,4.1c-0.5,0.8-0.6,1.5-0.2,1.8c0.4,0.3,1,0.2,1.8-0.2c0.8-0.4,2.3-1.4,3.6-2.4
		c1.6-1.3,3-2.5,3.8-3.3c0.5-0.5,1-0.8,1.1-0.6c0.2,0.2-0.4,0.8-0.6,1c-1,1-3,2.6-4.9,4.2c-1.4,1.1-4.2,3.2-6.9,3.2
		c-1.6,0-2.5-0.7-2.5-1.9c0-1.1,0.6-2.2,1.3-3.3c0.9-1.3,2.4-2.8,3.8-4.2l-0.1-0.1c-1.6,1.3-4.3,3.4-6.4,5c-3.3,2.5-6.2,4.4-8.6,4.4
		c-1.7,0-2.7-0.8-2.6-2.2c0.1-1.1,0.8-2.3,1.5-3.3c1.6-2.2,3.2-4.1,5.7-6.4C339.7,80.6,338,81.8,336.8,82.8z"/>
	<path class="rsvp-color" d="M363.9,84.2c-0.3,0.2-0.6,0.3-0.8,0.1c-0.1-0.2,0-0.4,0.4-0.6c0.8-0.5,2.1-1.3,3.4-2.2c1.4-1,2.9-2.2,4.7-3.8
		c0.2-0.3,0.7-1,1.3-1.4c0.9-0.6,1.8-0.9,2.3-0.9c1.8,0,0.6,1-0.4,1.7c-0.7,0.5-1.5,0.8-1.9,1.2c-0.6,0.6-0.6,1.3-0.6,2.2
		c0.1,2.2,0.2,4.3-0.7,6.6c-0.5,1.1-1.4,2.2-2.6,3.3c-2.2,1.8-4.5,2.4-6.9,2.4h-0.1c-4.2,0-5-2.6-4.7-4.8c0.3-2.3,2.2-4.2,4.1-4.2
		c1.1,0.1,1.7,0.9,1.5,1.8c-0.2,0.8-0.7,1.4-1.8,2c-0.7,0.4-1.8,1.3-1.8,2.4c-0.1,1.3,0.9,2,2.3,2c1.6,0,3.6-1.3,5.4-4.3
		c1.4-2.3,2.9-7.1,3.8-8.2v-0.1c-0.8,0.8-2.5,2.1-3.8,3C365.8,83,364.5,83.8,363.9,84.2z"/>
	<path class="rsvp-color" d="M401.2,73.3c2-1.4,3.4-2,4.8-2c0.8,0,0.7,0.2,0.3,0.5c-0.6,0.6-1.5,1.4-3.9,4.2c-1.9,2.3-5,6.1-7.1,9.1l0.1,0.2
		c2.3-1.9,4-3.3,6.4-4.8c1.8-1.1,4.9-2.6,7-2.3c1.7,0.2,2.7,1.2,2.5,3c-0.3,2.3-2.5,5.2-5,7.4c-2.8,2.3-6.7,3.7-8.8,3.7
		c-1.7,0-3-0.4-3.7-1.5c-0.3-0.6-0.6-1.8,0-3c-0.7,0.7-1.5,1.6-2.5,2.7c-1.6,1.8-4.7,5.8-7.3,9.3c-3.1,4.2-6.1,8.2-8.7,12
		c-3,4.3-5.9,8.7-7.6,10.6c-0.6,0.6-1.8,1.8-2.6,1.8c-0.7,0-0.8-0.4-0.4-1.3c0.7-1.6,6.7-11.5,15-22.9c3.8-5.3,13-17,17.1-22V78
		c-3.7,3.4-6.6,6.2-7.9,7.3c-0.6,0.6-1,1-1.3,0.7c-0.2-0.2,0.3-0.8,1.1-1.5c1.8-1.6,3.9-3.6,5.4-5C395.7,78,399,74.8,401.2,73.3z
		 M394.7,90.3c0.6,0.6,1.7,1,3,0.8c2-0.2,4.2-1.9,6.5-4.5c1.4-1.6,2.7-3.4,3.2-4.9c0.3-0.9,0.6-2.4-0.8-2.4c-1.5,0-4.2,1.3-7,3.4
		c-2.2,1.7-3.7,2.8-5.2,4.3C393.9,88.2,394,89.5,394.7,90.3z"/>
	<path class="rsvp-color" d="M418.1,93.1c-1.1,0-3.8-3-4.9-3c-0.2,0-0.5,0.1-0.7,0.2c-0.4,0.3-1.6,1-2.6,1.3c-1.1,0.4-1.7,0.5-1.8,0.2s0.4-1,1.4-1.4
		c1.1-0.6,2.1-0.8,2.6-0.9c0.6-0.3,1.4-0.9,2.2-1.6c1.1-1,2.4-2.7,3.7-4.6c3.8-5.7,7.4-12.3,11-16.9c5.3-6.9,9.8-11,13.8-13.8
		c3-2.2,6.6-3.8,9.2-3.8c4.4,0,5.6,2.6,5.3,4.6c-0.2,1-1,2-1.9,2.1c-0.8,0.1-0.3-0.9-0.2-2.6c0.2-2-1.2-3.2-3.6-3.2
		c-2,0-5,1.4-6.9,3c-3.1,2.5-5.9,5.6-8.5,9c-3,4-7.8,11.7-10.6,15.7c-4.2,6-7.5,8.7-10,10.6c-0.7,0.5-2.5,1.5-3.2,1.9l0.1,0.1
		c0.9-0.5,1.8-0.9,2.7-0.9c1.2,0,2.8,1.4,3.7,1.4c2,0,5.1-3.2,7.8-5.8c0.5-0.5,0.8-0.6,1-0.5c0.2,0.2-0.1,0.6-0.6,1.1
		C421.5,90.7,419.6,93.1,418.1,93.1L418.1,93.1z"/>
	<path class="rsvp-color" d="M447,78.2c1.7-0.1,1.8,0.3,1,1.3c-1,1.2-2.8,3.2-4.5,5.3c-1,1.3-2.1,2.6-2.8,3.9c-0.6,1-0.6,1.6-0.2,1.8
		c0.4,0.3,1.2,0,1.8-0.3c0.8-0.4,2.3-1.4,3.6-2.5c1.7-1.4,3-2.5,3.8-3.3c0.5-0.4,0.9-0.8,1.1-0.6c0.2,0.2-0.2,0.6-1,1.4
		c-1,1-3,2.6-4.5,3.8c-1.6,1.3-4.2,3.2-6.9,3.2c-1.5,0-2.2-0.7-2.3-1.7c-0.1-0.9,0.4-2,1.1-2.9l-0.1-0.1c-2.1,1.8-5.8,4.5-8.8,4.6
		c-1.8,0.1-3.6-0.6-3.3-3.2c0.2-1.2,0.8-2.5,2.2-4.2l-0.1-0.1c-0.2,0.2-0.6,0.6-1,1c-0.3,0.2-0.6,0.4-0.7,0.2
		c-0.2-0.2,0.2-0.7,1.1-1.5c0.2-0.2,1.6-1.4,2.4-1.9s2.2-1.4,3.7-2.2c3.1-1.6,5.9-2.6,8-2.2c1.6,0.2,2.2,1.7,1.7,3
		C444.4,79.2,445.7,78.2,447,78.2z M433.1,84c-3.3,3.2-4.6,5.3-4.5,6.3c0.1,0.6,0.5,0.8,1,0.8c1.5,0,4.6-1.8,6.7-3.8
		c2.6-2.2,5.4-5.7,5.5-7c0.1-1-0.6-1.4-1.4-1.4C438.9,79,436,81.1,433.1,84z"/>
	<path class="rsvp-color" d="M452.8,82.9c-1.2,1-2,1.6-2.8,2.3c-0.6,0.6-1,0.8-1.2,0.6c-0.2-0.2,0-0.5,0.9-1.3s3.8-3.2,5.7-4.5c2.1-1.4,3.1-1.8,4.6-1.8
		c1.7,0,1.8,0.2,0.9,1.3c-1.4,1.6-2.6,3.1-4.2,5.1c-1.4,1.7-2.4,3.1-2.9,3.9c-0.5,0.9-0.6,1.4-0.2,1.8c0.4,0.3,1.1,0.2,1.9-0.2
		c0.8-0.4,2.2-1.3,3.5-2.4c1.7-1.4,2.4-2,3.7-3.2c0.7-0.6,1-1,1.3-0.7s-0.6,1-0.9,1.3c-1,1-3,2.7-4.6,4c-1.6,1.3-4.3,3.3-7,3.3
		c-1.7,0-2.4-0.8-2.4-2.1c0-1,0.6-2.1,1.2-3c1.6-2.5,4.7-5.8,6-6.9C455.7,80.6,454,81.9,452.8,82.9z M465.2,66.2
		c0.2,0,0.3,0.3,0.4,0.6c0.9,1.9,1.8,3.9,2.7,5.3c0.2,0.3,0.2,0.5,0.2,0.6c-0.2,0.2-0.6-0.1-0.9-0.2c-0.8-0.6-2.3-1.8-3.4-3.4
		c-3.1,1.8-7,3.4-8.4,3.8c-0.2,0.1-0.6,0.2-0.7-0.1c-0.1-0.2,0.3-0.3,0.6-0.5c2.6-1.5,6.8-4.2,8.7-5.6
		C464.6,66.3,464.8,66.2,465.2,66.2L465.2,66.2z"/>
	<path class="rsvp-color" d="M463.1,85c-0.6,0.5-0.8,0.6-1,0.4c-0.2-0.2,0-0.5,0.6-1c2.2-1.9,4.2-3.8,5.8-5.1c-1,0-2,0-2.6-0.2c-0.8-0.2-1.4-0.8-1-1
		c0.2-0.2,0.6,0.3,2.2,0.3c0.9,0,1.4,0,2.2,0c1.8-2.4,4.8-5.6,7.5-8.4c1.1-1.2,3.4-3.3,5-3.3c0.9,0,1,0.2,1.2,0.5
		c-1,0.9-3,3.1-4.9,5.2s-3.8,4.5-5,6c0.5,0,1.1,0,2.1,0c10.7,0,24-2.7,35.8-2.7c9.8,0,19.5,3.2,19.5,13.6c0,11.9-14.3,18.8-27.6,19
		c-8.3,0-17-2.5-17.6-9.5c-0.4-5,4.6-8.7,9.4-9.5c1.2-0.2,2.1-0.1,2,0.2c-0.1,0.2-0.6,0.1-2,0.4c-4.1,1-8.1,4.1-7.7,9
		c0.5,6.1,9,8.6,16,8.6c12.2,0,26.4-6.6,26.4-18.2c0-8-10.2-11.3-19-11.3c-13.4,0-21.5,1.3-35.3,1.3c-1.2,0-1.9,0-2.7,0
		c-1,1.4-2.4,3-3.6,5c-0.9,1.2-2.6,3.9-2.5,3.9c0,0.1,0.5-0.2,0.8-0.5c1.2-0.9,4-2.6,5.8-3.6c0.5-0.2,0.8-0.5,1-0.2
		c0.2,0.3-0.1,0.5-0.7,0.9c-2.2,1.3-7.7,5.2-9.4,6.6c-0.7,0.6-1.7,1-2.5,1c-1.5,0-0.7-1.5-0.4-2.2c1.2-2.1,3.6-5.5,5.4-7.9
		C465,83.3,464.1,84.2,463.1,85z"/>
</g>
</svg>
