<?xml version="1.0" encoding="utf-8"?>
<!-- Generator: Adobe Illustrator 18.0.0, SVG Export Plug-In . SVG Version: 6.00 Build 0)  -->
<!DOCTYPE svg PUBLIC "-//W3C//DTD SVG 1.1//EN" "http://www.w3.org/Graphics/SVG/1.1/DTD/svg11.dtd">
<svg version="1.1" id="Layer_1" xmlns="http://www.w3.org/2000/svg" xmlns:xlink="http://www.w3.org/1999/xlink" x="0px" y="0px"
	 viewBox="0 0 286 286" enable-background="new 0 0 286 286" xml:space="preserve">
<g id="Shaver">
	<path fill="none" stroke="#000000" stroke-width="8" stroke-miterlimit="10" d="M179.9,62.1c-1.9-3.8-5.6-6.1-9.7-6.1h-52.6
		c-4.2,0-7.9,2.4-9.8,6.3l-7.7,16v164.3c0,9.6,7.4,17.5,16.5,17.5h55c9.1,0,16.5-7.9,16.5-17.5V78.2L179.9,62.1z"/>
	<path fill="none" stroke="#000000" stroke-width="4" stroke-miterlimit="10" d="M102,77h84"/>
	<path fill="none" stroke="#000000" stroke-width="4" stroke-miterlimit="10" d="M102,240h83"/>
	<path fill="none" stroke="#000000" stroke-width="4" stroke-miterlimit="10" d="M154,156.5c0,5.8-4.5,10.5-10,10.5l0,0
		c-5.5,0-10-4.7-10-10.5v-25c0-5.8,4.5-10.5,10-10.5l0,0c5.5,0,10,4.7,10,10.5V156.5z"/>
	<path fill="none" stroke="#000000" stroke-width="4" stroke-miterlimit="10" d="M154,131.1c0,5.5-4.5,10-10,10s-10-4.5-10-10
		c0-5.5,4.5-10,10-10S154,125.6,154,131.1z"/>
	<path fill="none" stroke="#000000" stroke-width="8" stroke-miterlimit="10" d="M147.9,204.1c0,2.2-1.8,4-4,4s-4-1.8-4-4s1.8-4,4-4
		S147.9,201.9,147.9,204.1z"/>
	<path fill="none" stroke="#000000" stroke-width="8" stroke-miterlimit="10" d="M182,42c0,2.2-1.8,4-4,4h-68c-2.2,0-4-1.8-4-4v-8
		c0-2.2,1.8-4,4-4h68c2.2,0,4,1.8,4,4V42z"/>
	<path fill="none" stroke="#000000" stroke-width="4" stroke-miterlimit="10" d="M109,22h70 M111,10v12 M117,10v12 M123,10v12
		 M129,10v12 M135,10v12 M141,10v12 M147,10v12 M153,10v12 M159,10v12 M165,10v12 M171,10v12 M177,10v12"/>
</g>
</svg>
