<?xml version="1.0" standalone="no"?>
<!DOCTYPE svg PUBLIC "-//W3C//DTD SVG 1.1//EN" "http://www.w3.org/Graphics/SVG/1.1/DTD/svg11.dtd" >
<svg xmlns="http://www.w3.org/2000/svg" xmlns:xlink="http://www.w3.org/1999/xlink" version="1.1">
<metadata>
Created by Christoph Koeberlin (http://christoph.koe.berlin)
Copyright (c) 2011 Swiss Typefaces Sa`rl. All rights reserved.
</metadata>
<defs>
<font id="Font" horiz-adv-x="558" >
  <font-face 
    font-family="Font"
    font-weight="700"
    font-style="italic"
    font-stretch="normal"
    units-per-em="1000"
    panose-1="2 11 8 0 3 0 0 0 0 0"
    ascent="800"
    descent="-200"
    x-height="516"
    cap-height="700"
    bbox="-201 -304 1174 884"
    underline-thickness="100"
    underline-position="0"
    slope="-12"
    unicode-range="U+0020-FB04"
  />
<missing-glyph horiz-adv-x="500" 
d="M1 0l148 700h387l-148 -700h-387zM277 404l160 242h-216zM244 354l-59 256l-109 -512zM461 603l-170 -258l60 -257zM314 54l-56 241l-159 -241h215z" />
    <glyph glyph-name=".notdef" horiz-adv-x="500" 
d="M1 0l148 700h387l-148 -700h-387zM277 404l160 242h-216zM244 354l-59 256l-109 -512zM461 603l-170 -258l60 -257zM314 54l-56 241l-159 -241h215z" />
    <glyph glyph-name=".null" horiz-adv-x="0" 
 />
    <glyph glyph-name="nonmarkingreturn" horiz-adv-x="0" 
 />
    <glyph glyph-name="space" unicode=" " horiz-adv-x="210" 
 />
    <glyph glyph-name="exclam" unicode="!" horiz-adv-x="300" 
d="M206 210h-132l104 490h132zM49 160h160l-35 -160h-160z" />
    <glyph glyph-name="quotedbl" unicode="&#x22;" horiz-adv-x="492" 
d="M134 476v224h132v-224h-132zM365 476v224h132v-224h-132z" />
    <glyph glyph-name="numbersign" unicode="#" horiz-adv-x="699" 
d="M390 179h-129l-44 -179h-127l44 179h-62v120h92l26 102h-93v120h123l45 179h127l-45 -179h129l45 179h127l-45 -179h63v-120h-93l-26 -102h94v-120h-124l-44 -179h-127zM291 299h129l26 102h-129z" />
    <glyph glyph-name="dollar" unicode="$" horiz-adv-x="527" 
d="M187 -4q-37 7 -67.5 23.5t-52.5 41.5t-34.5 57t-12.5 70v16.5t2 16.5h129q-1 -5 -1 -9v-9q0 -33 16 -57.5t45 -34.5l40 186l-34 12q-38 13 -62.5 35t-38.5 47.5t-20 52t-6 50.5q0 26 8 63t33 71t71.5 58t123.5 24q3 0 6 -0.5t6 -0.5l20 91h43l-21 -96q33 -8 61 -24
t49 -39t33 -52.5t12 -63.5v-6.5t-1 -9.5h-128v8q0 29 -15 45.5t-35 24.5l-38 -178l27 -9q33 -12 56.5 -32.5t38.5 -46t22.5 -53t7.5 -52.5q0 -28 -7.5 -67t-31.5 -74t-68.5 -60t-119.5 -25h-14l-19 -90h-43zM218 505q0 -25 13.5 -46t46.5 -35l36 170q-38 0 -67 -22.5
t-29 -66.5zM342 198q0 23 -11 45.5t-40 37.5l-38 -175q25 1 42 9t27.5 21t15 29t4.5 33z" />
    <glyph glyph-name="percent" unicode="%" horiz-adv-x="884" 
d="M755 700l-481 -700h-106l481 700h106zM222 369q24 0 36 12.5t17 34.5q5 23 11.5 51.5t12 54.5t9 45t3.5 24q0 13 -9 23.5t-35 10.5q-24 0 -36.5 -12.5t-17.5 -34.5q-5 -23 -11.5 -51.5t-11.5 -54.5t-8.5 -45t-3.5 -24q0 -13 9 -23.5t35 -10.5zM217 288q-27 0 -50.5 8
t-41 22.5t-27.5 35t-10 46.5q0 10 4.5 37t10 56t10.5 52.5t6 27.5q7 32 18 56.5t29 41.5t44 26t62 9q27 0 50.5 -8t41 -22.5t27.5 -35t10 -46.5q0 -11 -4.5 -37.5t-10.5 -55.5t-11 -52.5t-6 -27.5q-7 -32 -18 -56.5t-28.5 -41.5t-43.5 -26t-62 -9zM654 75q24 0 36 12.5
t17 34.5q5 23 11.5 51.5t12 54.5t9 45t3.5 24q0 13 -9 23.5t-35 10.5q-24 0 -36.5 -12.5t-17.5 -34.5q-5 -23 -11.5 -51.5t-11.5 -54.5t-8.5 -45t-3.5 -24q0 -13 9 -23.5t35 -10.5zM649 -6q-27 0 -50.5 8t-41 22.5t-27.5 35t-10 46.5q0 10 4.5 37t10 56t10.5 52.5t6 27.5
q7 32 18 56.5t29 41.5t44 26t62 9q27 0 50.5 -8t41 -22.5t27.5 -35t10 -46.5q0 -11 -4.5 -37.5t-10.5 -55.5t-11 -52.5t-6 -27.5q-7 -32 -18 -56.5t-28.5 -41.5t-43.5 -26t-62 -9z" />
    <glyph glyph-name="ampersand" unicode="&#x26;" horiz-adv-x="612" 
d="M332 584q-69 -2 -94 -26.5t-25 -64.5q0 -32 22 -56t65 -30h96l18 81h132l-17 -81h121l-25 -116h-121l-61 -291h-223q-46 0 -83 15t-63 40t-40 57.5t-14 67.5q0 61 25.5 111.5t91.5 84.5q-24 20 -38 53t-14 67q0 102 69.5 153t193.5 51h111l-25 -116h-102zM335 116l37 175
h-101q-21 0 -43 -5t-39.5 -16.5t-29 -29.5t-11.5 -44q0 -33 19.5 -56.5t56.5 -23.5h111z" />
    <glyph glyph-name="quotesingle" unicode="'" horiz-adv-x="261" 
d="M134 476v224h132v-224h-132z" />
    <glyph glyph-name="parenleft" unicode="(" horiz-adv-x="298" 
d="M263 540q-27 -125 -46 -214t-32 -150t-21 -98.5t-12 -58t-5.5 -29t-1.5 -12.5q0 -31 31 -31h36l-26 -119h-21q-37 0 -63.5 10.5t-43.5 28t-25 41t-8 50.5q0 17 2 36t7.5 47t14 69.5t22 103.5t32.5 148.5t44 205.5q7 35 17.5 60t28 41t45 23.5t69.5 7.5h64l-26 -119h-36
q-24 0 -33 -11.5t-13 -29.5z" />
    <glyph glyph-name="parenright" unicode=")" horiz-adv-x="299" 
d="M38 -12q26 125 45.5 214t32.5 150t21 98.5t12 58t5.5 29t1.5 12.5q0 31 -31 31h-36l26 119h21q37 0 63.5 -10.5t43.5 -28t25 -41t8 -50.5q0 -17 -2 -36t-7.5 -47t-14 -69.5t-22 -103.5t-32.5 -148.5t-44 -205.5q-8 -35 -18 -60t-27.5 -41t-45 -23.5t-69.5 -7.5h-64
l26 119h36q24 0 33 11.5t13 29.5z" />
    <glyph glyph-name="asterisk" unicode="*" horiz-adv-x="536" 
d="M264 576l26 124h120l-26 -124l126 38l14 -119l-128 -36l59 -112l-99 -63l-59 112l-100 -112l-89 77l100 112l-111 35l57 106z" />
    <glyph glyph-name="plus" unicode="+" 
d="M342 335h170v-120h-170v-170h-120v170h-170v120h170v170h120v-170z" />
    <glyph glyph-name="comma" unicode="," horiz-adv-x="300" 
d="M49 160h160l-34 -160l-68 -114h-94l68 114h-66z" />
    <glyph glyph-name="hyphen" unicode="-" horiz-adv-x="370" 
d="M345 335l-25 -120h-290l25 120h290z" />
    <glyph glyph-name="period" unicode="." horiz-adv-x="300" 
d="M49 160h160l-34 -160h-160z" />
    <glyph glyph-name="slash" unicode="/" horiz-adv-x="377" 
d="M263 700h134l-283 -700h-134z" />
    <glyph glyph-name="zero" unicode="0" horiz-adv-x="556" 
d="M496 209q-12 -54 -31.5 -94.5t-49.5 -68.5t-72 -42t-99 -14q-46 0 -84 14t-65 38.5t-42 58t-15 72.5q0 12 3.5 37.5t9.5 57.5t13 67t13.5 66.5t12 55.5t7.5 34q12 54 31.5 94.5t49.5 68.5t72 42t99 14q46 0 84 -14t65 -38.5t42 -58t15 -72.5q0 -12 -3.5 -37.5t-9.5 -57.5
t-13 -67t-13.5 -66.5t-12 -55.5t-7.5 -34zM230 498q-5 -24 -11.5 -54.5t-14 -63.5t-14 -65.5t-12 -60.5t-9 -47.5t-3.5 -26.5q0 -30 20 -52t68 -22q44 0 71.5 25t37.5 71q7 35 18 85.5t21.5 98.5t17.5 85.5t7 48.5q0 30 -20 52t-68 22q-44 0 -71.5 -25t-37.5 -71z" />
    <glyph glyph-name="one" unicode="1" horiz-adv-x="366" 
d="M389 700l-148 -700h-132l112 530l-158 -116l36 170l158 116h132z" />
    <glyph glyph-name="two" unicode="2" horiz-adv-x="530" 
d="M538 527q0 -78 -37 -138t-100 -111l-199 -162h257l-24 -116h-459l24 116l319 260q38 32 64.5 66t26.5 78q0 30 -20 52t-68 22q-28 0 -48 -9.5t-33.5 -25.5t-21 -36.5t-10.5 -42.5h-131q11 55 30 98t49 72.5t73 44.5t102 15q46 0 84 -14t65 -38.5t42 -58t15 -72.5z" />
    <glyph glyph-name="three" unicode="3" horiz-adv-x="536" 
d="M229 -10q-48 0 -86.5 14t-65 38.5t-40.5 58t-14 72.5q0 5 0.5 13.5t1.5 13.5h128q-1 -5 -1.5 -11t-0.5 -9q0 -30 20 -52t68 -22q25 0 45.5 9.5t35 25.5t22.5 35t8 39q0 33 -23 54.5t-63 21.5h-58l25 116h58q54 0 88.5 31t34.5 82q0 30 -20 52t-68 22q-43 0 -71 -24.5
t-38 -69.5h-131q13 51 32.5 90.5t49 66t71 40t97.5 13.5q46 0 84 -14t65 -38.5t42 -58t15 -72.5q0 -69 -33 -118.5t-85 -71.5q24 -19 37 -50t13 -66q0 -109 -64.5 -170t-178.5 -61z" />
    <glyph glyph-name="four" unicode="4" horiz-adv-x="519" 
d="M412 160l-34 -160h-132l34 160h-302l24 113l392 427h132l-91 -427h72l-23 -113h-72zM303 273l43 194l-178 -194h135z" />
    <glyph glyph-name="five" unicode="5" horiz-adv-x="542" 
d="M364 202q6 26 9 40.5t4.5 22t1.5 10v4.5q0 25 -17.5 44t-60.5 19q-33 0 -61.5 -14.5t-42.5 -42.5h-134l88 415h424l-25 -116h-292l-32 -154q14 11 37.5 19.5t62.5 8.5q35 0 67.5 -13t58 -36.5t41 -56t15.5 -71.5q0 -6 -0.5 -10.5t-1.5 -12t-3 -19t-6 -30.5
q-11 -53 -30.5 -94t-49.5 -69t-72.5 -42t-99.5 -14q-46 0 -84 14t-65 38.5t-42 58t-15 72.5q0 5 0.5 11.5t1.5 15.5h128q-1 -7 -1.5 -12t-0.5 -8q0 -30 20 -52t68 -22q44 0 71 25t38 71z" />
    <glyph glyph-name="six" unicode="6" horiz-adv-x="546" 
d="M214 423q15 12 41 20t59 8q36 0 70 -13t60 -37.5t41.5 -60t15.5 -80.5q0 -12 -1 -24.5t-4 -26.5q-12 -53 -31.5 -94t-49.5 -69t-72 -42t-99 -14q-46 0 -84 14t-65 38.5t-41.5 58t-14.5 72.5q0 15 3.5 41t9.5 58.5t13 67t13 65t11.5 53.5t7.5 33q12 54 31.5 94.5
t49.5 68.5t72 42t99 14q46 0 84 -14t65 -38.5t42 -58t15 -72.5q0 -5 -0.5 -11.5t-1.5 -15.5h-128q1 7 1.5 12t0.5 8q0 30 -20 52t-68 22q-44 0 -71 -25t-38 -71q-4 -15 -7.5 -34t-8.5 -41zM175 239q-5 -22 -7 -37.5t-2 -21.5q0 -30 20 -52t68 -22q44 0 71.5 25t37.5 71
q5 22 7 37.5t2 21.5q0 30 -20 52t-68 22q-44 0 -71.5 -25t-37.5 -71z" />
    <glyph glyph-name="seven" unicode="7" horiz-adv-x="464" 
d="M182 0h-148l343 584h-306l24 116h454l-24 -116z" />
    <glyph glyph-name="eight" unicode="8" horiz-adv-x="532" 
d="M100 483q0 35 10.5 75t37 73.5t72 56t115.5 22.5q45 0 82.5 -14.5t64 -39.5t41 -58.5t14.5 -71.5q0 -25 -5 -52.5t-17 -53.5t-32 -49.5t-50 -40.5q19 -24 29.5 -53t10.5 -64q0 -28 -8.5 -66.5t-34 -73t-71.5 -59t-120 -24.5q-45 0 -84 14t-67.5 39.5t-44.5 61t-16 78.5
q0 20 4.5 46.5t16 53.5t32 52t53.5 43q-16 22 -24.5 49t-8.5 56zM155 193q0 -39 23.5 -63t68.5 -24q27 0 46 10t30.5 25.5t16.5 34.5t5 37q0 39 -23.5 63t-68.5 24q-27 0 -46 -10t-30.5 -25.5t-16.5 -34.5t-5 -37zM409 514q0 35 -21 57.5t-62 22.5q-26 0 -44.5 -9.5
t-30.5 -24.5t-17.5 -34t-5.5 -39q0 -35 21 -57.5t62 -22.5q25 0 43.5 9.5t30.5 24.5t18 34t6 39z" />
    <glyph glyph-name="nine" unicode="9" horiz-adv-x="546" 
d="M369 277q-15 -12 -41 -20t-59 -8q-36 0 -70 13t-60 37.5t-41.5 60t-15.5 80.5q0 12 1 24.5t4 26.5q12 53 31.5 94t49.5 68.5t72 42t99 14.5q46 0 84 -14t65 -38.5t41.5 -58t14.5 -72.5q0 -15 -3.5 -41t-9.5 -58.5t-13 -67t-13 -65t-11.5 -53.5t-7.5 -33
q-12 -54 -31.5 -94.5t-49.5 -68.5t-72 -42t-99 -14q-46 0 -84 14t-65 38.5t-42 58t-15 72.5q0 5 0.5 11.5t1.5 15.5h128q-1 -7 -1.5 -12t-0.5 -8q0 -30 20 -52t68 -22q44 0 71 25t38 71q4 15 7.5 34t8.5 41zM408 461q5 22 7 37.5t2 21.5q0 30 -20 52t-68 22q-44 0 -71.5 -25
t-37.5 -71q-5 -22 -7 -37.5t-2 -21.5q0 -30 20 -52t68 -22q44 0 71.5 25t37.5 71z" />
    <glyph glyph-name="colon" unicode=":" horiz-adv-x="300" 
d="M125 516h160l-34 -160h-160zM49 160h160l-34 -160h-160z" />
    <glyph glyph-name="semicolon" unicode=";" horiz-adv-x="300" 
d="M125 516h160l-34 -160h-160zM49 160h160l-34 -160l-68 -114h-94l68 114h-66z" />
    <glyph glyph-name="less" unicode="&#x3c;" 
d="M512 126v-131l-460 197v134l460 197v-131l-311 -133z" />
    <glyph glyph-name="equal" unicode="=" 
d="M52 335v120h460v-120h-460zM512 215v-120h-460v120h460z" />
    <glyph glyph-name="greater" unicode="&#x3e;" 
d="M363 259l-311 133v131l460 -197v-134l-460 -197v131z" />
    <glyph glyph-name="question" unicode="?" horiz-adv-x="527" 
d="M75 500q13 51 32.5 90.5t49 66t71 40t97.5 13.5q46 0 84 -14t65 -38.5t42 -58t15 -72.5q0 -70 -25.5 -117.5t-79.5 -88.5l-62 -48q-12 -9 -21 -16t-15.5 -13t-10.5 -13t-7 -17l-1 -4h-132l5 22q4 20 10.5 36.5t16.5 31t24.5 29t36.5 31.5l62 48q19 15 33 26.5t22 23
t12 25t4 31.5q0 35 -20 57.5t-68 22.5q-43 0 -71 -24.5t-38 -69.5h-131zM152 160h160l-34 -160h-160z" />
    <glyph glyph-name="at" unicode="@" horiz-adv-x="936" 
d="M234 143q0 57 22 92.5t76 61.5q19 9 46.5 15t59 10.5t64.5 7.5t62 5q-7 35 -31 55.5t-65 20.5q-35 0 -58 -15.5t-33 -41.5h-133q16 81 72.5 128.5t151.5 47.5q55 0 98 -17t72.5 -48t44.5 -74.5t15 -97.5v-148q0 -19 8.5 -26.5t21.5 -7.5t22 7.5t9 26.5v163
q0 134 -75 207.5t-216 73.5t-216 -73.5t-75 -207.5v-100q0 -134 75 -207.5t216 -73.5q108 0 179 45l60 -110q-51 -29 -111.5 -42.5t-127.5 -13.5q-85 0 -160 22t-131.5 70.5t-89 125.5t-32.5 187v94q0 110 32.5 187t89 125.5t131.5 70.5t160 22t160 -22t131 -70.5t89 -125.5
t33 -187v-179q0 -29 -11 -54t-31 -43t-48 -28.5t-63 -10.5q-63 0 -101 16t-61 43q-20 -28 -56.5 -43.5t-84.5 -15.5q-91 0 -141 40.5t-50 112.5zM394 202q-17 -8 -22.5 -17.5t-5.5 -26.5q0 -19 17 -35.5t61 -16.5q51 0 86.5 27t35.5 76v17q-57 -4 -105 -9t-67 -15z" />
    <glyph glyph-name="A" unicode="A" horiz-adv-x="625" 
d="M373 495l-130 -229h163zM172 142l-81 -142h-147l398 700h128l101 -700h-127l-21 142h-251z" />
    <glyph glyph-name="B" unicode="B" horiz-adv-x="626" 
d="M347 130q21 0 39.5 5.5t32.5 17t22.5 28t8.5 38.5q0 29 -18 49.5t-59 20.5h-169l-33 -159h176zM158 700h282q50 0 86 -16.5t59 -43t34 -59t11 -65.5q0 -24 -6 -49.5t-18.5 -49t-31.5 -44t-44 -33.5q26 -23 40 -52t14 -64q0 -112 -67.5 -168t-191.5 -56h-315zM397 419
q45 0 72 25t27 60q0 26 -16 46t-59 20h-157l-32 -151h165z" />
    <glyph glyph-name="C" unicode="C" horiz-adv-x="605" 
d="M480 466q2 9 2 12v5q0 48 -29.5 72.5t-85.5 24.5q-55 0 -94.5 -32.5t-53.5 -93.5q-1 -6 -5 -24t-9.5 -42t-11.5 -51.5t-11 -52t-8 -43t-3 -24.5q0 -48 29.5 -72.5t85.5 -24.5q52 0 90.5 29.5t54.5 84.5h135q-13 -55 -34 -100t-55.5 -77t-85 -49.5t-122.5 -17.5
q-56 0 -99.5 16.5t-73 44.5t-44.5 65t-15 78q0 18 6 54t14 75.5t15.5 75t11.5 52.5q12 58 33 106t55.5 82t86 52.5t125.5 18.5q56 0 99.5 -16.5t73 -44.5t44.5 -65t15 -78q0 -8 -1 -18t-3 -22h-132z" />
    <glyph glyph-name="D" unicode="D" horiz-adv-x="636" 
d="M10 0l148 700h245q56 0 99.5 -16.5t73 -44.5t44.5 -65t15 -78q0 -18 -5.5 -51t-12.5 -68.5t-14 -68t-11 -49.5q-12 -58 -33 -106t-55.5 -82t-86 -52.5t-125.5 -18.5h-282zM309 130q55 0 94.5 32.5t53.5 93.5q1 6 5 22.5t9 38.5t10 46.5t9.5 46.5t7.5 39t3 24
q0 48 -29.5 72.5t-85.5 24.5h-122l-94 -440h139z" />
    <glyph glyph-name="E" unicode="E" horiz-adv-x="539" 
d="M232 419h292l-28 -130h-292l-34 -159h292l-27 -130h-425l148 700h425l-28 -130h-291z" />
    <glyph glyph-name="F" unicode="F" horiz-adv-x="529" 
d="M232 419h292l-28 -130h-292l-61 -289h-133l148 700h426l-29 -130h-291z" />
    <glyph glyph-name="G" unicode="G" horiz-adv-x="613" 
d="M308 269l28 130h264q-8 -45 -17.5 -87.5t-14.5 -62.5q-13 -58 -33.5 -106t-55 -82t-86 -52.5t-125.5 -18.5q-56 0 -99.5 16.5t-73 44.5t-44.5 65t-15 78q0 18 6 54t14 75.5t15.5 75t11.5 52.5q12 58 33 106t55.5 82t86 52.5t125.5 18.5q56 0 99.5 -16.5t73 -44.5
t44.5 -65t15 -78q0 -5 -0.5 -12t-1.5 -15h-132v4q0 48 -29.5 72.5t-85.5 24.5q-55 0 -94.5 -32.5t-53.5 -93.5q-1 -6 -5 -24t-9.5 -42t-11.5 -51.5t-11 -52t-8 -43t-3 -24.5q0 -48 29.5 -72.5t85.5 -24.5q55 0 94.5 32.5t53.5 93.5l5 23h-130z" />
    <glyph glyph-name="H" unicode="H" horiz-adv-x="658" 
d="M553 700h133l-148 -700h-133l61 289h-262l-61 -289h-133l148 700h133l-59 -281h262z" />
    <glyph glyph-name="I" unicode="I" horiz-adv-x="263" 
d="M143 0h-133l148 700h133z" />
    <glyph glyph-name="J" unicode="J" horiz-adv-x="470" 
d="M375 700h133l-106 -500q-11 -52 -26.5 -91.5t-40.5 -65.5t-63 -39.5t-95 -13.5q-38 0 -72 12.5t-59.5 35.5t-40.5 55.5t-15 71.5v15t2 20h133q-1 -5 -1 -15q0 -31 18 -49t47 -18q39 0 56 25.5t25 60.5z" />
    <glyph glyph-name="K" unicode="K" horiz-adv-x="645" 
d="M143 0h-133l148 700h133l-59 -284l302 284h188l-308 -289l184 -411h-143l-141 316l-130 -119z" />
    <glyph glyph-name="L" unicode="L" horiz-adv-x="491" 
d="M170 130h292l-27 -130h-425l148 700h134z" />
    <glyph glyph-name="M" unicode="M" horiz-adv-x="743" 
d="M305 188l-66 264l-96 -452h-133l148 700h131l91 -362l258 362h134l-149 -700h-133l92 429l-173 -241h-104z" />
    <glyph glyph-name="N" unicode="N" horiz-adv-x="657" 
d="M537 0h-134l-159 475l-101 -475h-133l148 700h134l159 -475l101 475h134z" />
    <glyph glyph-name="O" unicode="O" horiz-adv-x="615" 
d="M84 451q12 58 33 106t55.5 82t86 52.5t125.5 18.5q56 0 99.5 -16.5t73 -44.5t44.5 -65t15 -78q0 -18 -6 -54t-14 -75.5t-15.5 -75t-11.5 -52.5q-12 -58 -33 -106t-55.5 -82t-86 -52.5t-125.5 -18.5q-56 0 -99.5 16.5t-73 44.5t-44.5 65t-15 78q0 18 6 54t14 75.5t15.5 75
t11.5 52.5zM219 454q-1 -6 -5 -24t-9.5 -42t-11.5 -51.5t-11 -52t-8 -43t-3 -24.5q0 -48 29.5 -72.5t85.5 -24.5q55 0 94.5 32.5t53.5 93.5q1 6 5 24t9.5 42t11.5 51.5t11 52t8 42.5t3 25q0 48 -29.5 72.5t-85.5 24.5q-55 0 -94.5 -32.5t-53.5 -93.5z" />
    <glyph glyph-name="P" unicode="P" horiz-adv-x="607" 
d="M362 347q27 0 52.5 8.5t45.5 24.5t32 39t12 52q0 18 -6.5 35.5t-19 31.5t-32 23t-46.5 9h-136l-47 -223h145zM143 0h-133l148 700h269q50 0 89 -19t66 -50t41.5 -70.5t14.5 -79.5q0 -128 -78 -196t-219 -68h-152z" />
    <glyph glyph-name="Q" unicode="Q" horiz-adv-x="626" 
d="M84 451q12 58 33 106t55.5 82t86 52.5t125.5 18.5q56 0 99.5 -16.5t73 -44.5t44.5 -65t15 -78q0 -18 -6 -54t-14 -75.5t-15.5 -75t-11.5 -52.5q-11 -50 -27 -92t-42 -75l38 -50l-96 -77l-42 55q-55 -20 -131 -20q-56 0 -99.5 16.5t-73 44.5t-44.5 65t-15 78q0 18 6 54
t14 75.5t15.5 75t11.5 52.5zM219 454q-1 -6 -5 -24t-9.5 -42t-11.5 -51.5t-11 -52t-8 -43t-3 -24.5q0 -48 29.5 -72.5t85.5 -24.5h14.5t14.5 2l-47 63l96 77l51 -67q6 11 11 24t8 27q1 6 5 24t9.5 42t11.5 51.5t11 52t8 42.5t3 25q0 48 -29.5 72.5t-85.5 24.5
q-55 0 -94.5 -32.5t-53.5 -93.5z" />
    <glyph glyph-name="R" unicode="R" horiz-adv-x="618" 
d="M635 516q0 -27 -7.5 -62t-29 -67.5t-60 -58t-100.5 -35.5l110 -293h-137l-109 289h-98l-61 -289h-133l148 700h287q50 0 86 -16.5t59 -43t34 -59t11 -65.5zM402 419q45 0 72 25t27 60q0 26 -16 46t-59 20h-162l-32 -151h170z" />
    <glyph glyph-name="S" unicode="S" horiz-adv-x="541" 
d="M256 -10q-54 0 -98.5 16t-76.5 45t-49.5 70.5t-17.5 91.5v8h134v-7q0 -42 35 -68t88 -26q40 0 69 21t29 60q0 26 -14 49.5t-53 34.5l-86 25q-64 19 -100 66t-36 115q0 114 64 166.5t183 52.5q54 0 95 -17.5t69 -45.5t42.5 -63.5t14.5 -71.5v-10h-135q-7 34 -29.5 56
t-71.5 22t-73.5 -20.5t-24.5 -54.5q0 -29 17.5 -48.5t40.5 -26.5l86 -25q66 -19 105.5 -67t39.5 -115q0 -114 -61 -173.5t-186 -59.5z" />
    <glyph glyph-name="T" unicode="T" horiz-adv-x="526" 
d="M398 570l-121 -570h-138l121 570h-195l27 130h529l-28 -130h-195z" />
    <glyph glyph-name="U" unicode="U" horiz-adv-x="639" 
d="M182 217q0 -48 30 -72.5t86 -24.5q55 0 95 32.5t54 93.5q3 13 8.5 40t13 61.5t16 74t16.5 78.5q19 92 42 200h133q-23 -106 -42 -198q-8 -39 -16.5 -78.5t-15.5 -73.5t-12.5 -61t-8.5 -40q-12 -58 -32.5 -106t-55 -82t-86.5 -52.5t-126 -18.5q-56 0 -99.5 16.5t-73 44.5
t-45 65t-15.5 78q0 37 26.5 161t73.5 345h133q-21 -101 -39.5 -185.5t-31.5 -147.5t-20.5 -101.5t-7.5 -48.5z" />
    <glyph glyph-name="V" unicode="V" horiz-adv-x="628" 
d="M573 700h150l-399 -700h-130l-101 700h131l68 -504z" />
    <glyph glyph-name="W" unicode="W" horiz-adv-x="751" 
d="M409 400l-178 -400h-145l20 700h129l-21 -480l170 380h130l-1 -371l181 471h140l-278 -700h-146z" />
    <glyph glyph-name="X" unicode="X" horiz-adv-x="622" 
d="M310 238l-195 -238h-167l306 366l-143 334h140l94 -224l185 224h167l-297 -352l150 -348h-140z" />
    <glyph glyph-name="Y" unicode="Y" horiz-adv-x="605" 
d="M315 0h-134l54 255l-153 445h138l101 -304l230 304h161l-343 -445z" />
    <glyph glyph-name="Z" unicode="Z" horiz-adv-x="583" 
d="M-29 0l27 130l441 440h-342l27 130h522l-27 -130l-441 -440h352l-27 -130h-532z" />
    <glyph glyph-name="bracketleft" unicode="[" horiz-adv-x="297" 
d="M137 -53h74l-26 -119h-195l184 872h196l-26 -119h-74z" />
    <glyph glyph-name="backslash" unicode="\" horiz-adv-x="486" 
d="M471 0h-134l-283 700h134z" />
    <glyph glyph-name="bracketright" unicode="]" horiz-adv-x="298" 
d="M163 581h-74l26 119h196l-185 -872h-195l26 119h73z" />
    <glyph glyph-name="asciicircum" unicode="^" horiz-adv-x="626" 
d="M601 300h-138l-125 250l-125 -250h-138l200 400h126z" />
    <glyph glyph-name="underscore" unicode="_" horiz-adv-x="430" 
d="M382 -34l-25 -120h-459l25 120h459z" />
    <glyph glyph-name="grave" unicode="`" horiz-adv-x="321" 
d="M303 700l33 -129h-109l-91 129h167z" />
    <glyph glyph-name="a" unicode="a" horiz-adv-x="555" 
d="M67 354q13 43 33 76t49 55t68 33.5t90 11.5q46 0 84 -14t65 -40t42 -62t15 -79q0 -11 -2 -26.5t-5.5 -33t-7 -34.5t-6.5 -32l-45 -209h-132l12 53q-21 -29 -54 -46t-81 -17q-38 0 -69.5 12t-54 32t-35 47t-12.5 57q0 61 30 101.5t84 58.5q56 19 116.5 24.5t134.5 9.5v4
q0 30 -20 54t-69 24q-33 0 -58 -16t-39 -44h-133zM186 203q-20 -8 -29 -19.5t-9 -31.5q0 -17 15.5 -33t56.5 -16q51 0 90 28.5t50 77.5l3 14q-57 -3 -106.5 -7t-70.5 -13z" />
    <glyph glyph-name="b" unicode="b" horiz-adv-x="564" 
d="M236 467q4 8 14 19t24.5 20.5t34.5 16.5t45 7q45 0 77.5 -17.5t54 -45.5t32 -62.5t10.5 -68.5q0 -12 -2 -29.5t-5.5 -36.5t-7 -37.5t-6.5 -33.5q-23 -108 -76 -158.5t-144 -50.5q-51 0 -85 21t-51 53l-14 -64h-132l148 700h132zM204 315q-7 -33 -11.5 -55t-7.5 -35.5
t-4 -20t-1 -10.5q0 -37 19 -61t69 -24q44 0 71.5 25t37.5 71q7 33 11.5 55t7.5 35.5t4 20t1 10.5q0 37 -19 61t-69 24q-44 0 -71.5 -25t-37.5 -71z" />
    <glyph glyph-name="c" unicode="c" horiz-adv-x="539" 
d="M514 332h-128v4q0 31 -20 54.5t-68 23.5q-44 0 -71.5 -25t-37.5 -71q-7 -33 -12 -56t-8 -37.5t-4.5 -22t-1.5 -11.5q0 -37 19 -61t69 -24q40 0 66.5 21.5t38.5 60.5h132q-13 -48 -33 -85t-49.5 -62t-70 -38t-94.5 -13q-47 0 -85 14t-65 40t-41.5 61.5t-14.5 79.5
q0 11 2 26.5t5 33t7 35t7 31.5q12 54 31.5 94.5t49.5 68.5t72 42t99 14q46 0 84 -14t65 -39.5t42 -61.5t15 -79v-4z" />
    <glyph glyph-name="d" unicode="d" horiz-adv-x="563" 
d="M327 53q-5 -8 -14.5 -19t-24 -21t-34.5 -16.5t-45 -6.5q-45 0 -77.5 17.5t-54 45.5t-32 62.5t-10.5 68.5q0 12 2 29.5t5.5 36.5t7 37.5t6.5 33.5q23 108 76 158.5t144 50.5q51 0 85 -21t51 -53l52 244h132l-148 -700h-132zM359 205q7 33 11.5 55t7.5 35.5t4 20t1 10.5
q0 37 -19 61t-69 24q-44 0 -71.5 -25t-37.5 -71q-7 -33 -11.5 -55t-7.5 -35.5t-4 -20t-1 -10.5q0 -37 19 -61t69 -24q44 0 71.5 25t37.5 71z" />
    <glyph glyph-name="e" unicode="e" horiz-adv-x="546" 
d="M166 214q-3 -17 -3 -23q0 -37 19 -61t69 -24q34 0 58.5 15.5t38.5 44.5h133q-14 -43 -33.5 -76t-48.5 -55t-68 -33.5t-90 -11.5q-47 0 -85 14t-65 40t-41.5 61.5t-14.5 79.5q0 11 2 26.5t5 33t7 35t7 31.5q12 54 31.5 94.5t49.5 68.5t72 42t99 14q46 0 84 -14t65 -40
t42 -62t15 -79q0 -11 -2 -26t-5 -31.5t-6.5 -33t-6.5 -30.5h-328zM386 329q0 37 -19 61t-69 24q-43 0 -70.5 -25t-38.5 -69h197v9z" />
    <glyph glyph-name="f" unicode="f" horiz-adv-x="344" 
d="M326 584q-24 0 -34.5 -13t-14.5 -31l-5 -24h128l-25 -116h-127l-85 -400h-132l85 400h-73l25 116h72l11 52q13 59 57 95.5t107 36.5h124l-24 -116h-89z" />
    <glyph glyph-name="g" unicode="g" horiz-adv-x="561" 
d="M122 -7q0 -26 20.5 -48.5t67.5 -22.5q44 0 71.5 25t37.5 71l15 72q-5 -8 -15 -19t-25 -21t-35.5 -16.5t-45.5 -6.5q-45 0 -77.5 17.5t-54 45.5t-32 62.5t-10.5 68.5q0 17 4.5 41t12.5 59q23 108 76 158.5t144 50.5q51 0 85 -21t51 -53l12 60h132l-104 -491
q-11 -54 -30.5 -95t-49.5 -68.5t-72.5 -41.5t-99.5 -14q-47 0 -85 14t-65 39t-41.5 59.5t-14.5 74.5v4h128v-4zM367 242q8 42 12 59t4 25q0 37 -19 61t-69 24q-44 0 -71.5 -25t-37.5 -71q-10 -44 -13 -60.5t-3 -23.5q0 -37 19 -61t69 -24q44 0 72 25t37 71z" />
    <glyph glyph-name="h" unicode="h" horiz-adv-x="573" 
d="M465 0h-132l44 205q7 33 12 55t8 35.5t4 20t1 10.5q0 37 -19 61t-69 24q-44 0 -71.5 -25t-37.5 -71l-68 -315h-132l149 700h132l-50 -233q4 8 14 19t25 20.5t35 16.5t45 7q48 0 81.5 -17.5t54 -45.5t29.5 -62.5t9 -68.5q0 -12 -2 -29.5t-5 -36.5t-7 -37.5t-7 -33.5z" />
    <glyph glyph-name="i" unicode="i" horiz-adv-x="252" 
d="M261 583h-132l25 117h132zM137 0h-132l110 516h132z" />
    <glyph glyph-name="j" unicode="j" horiz-adv-x="251" 
d="M261 583h-132l24 117h132zM114 516h132l-120 -568q-13 -59 -57 -95.5t-107 -36.5h-59l24 116h24q24 0 34.5 13t14.5 31z" />
    <glyph glyph-name="k" unicode="k" horiz-adv-x="538" 
d="M212 354l183 162h176l-230 -203l147 -313h-139l-107 226l-71 -64l-34 -162h-132l149 700h132z" />
    <glyph glyph-name="l" unicode="l" horiz-adv-x="280" 
d="M223 116l-24 -116h-34q-68 0 -98 34.5t-30 86.5q0 21 7.5 64t22 113t36 169t49.5 233h132q-35 -163 -57.5 -269t-36 -169t-18.5 -90t-5 -31q0 -25 30 -25h26z" />
    <glyph glyph-name="m" unicode="m" horiz-adv-x="889" 
d="M137 0h-132l110 516h132l-11 -49q5 8 15.5 19t25.5 20.5t35.5 16.5t44.5 7q48 0 78 -20t45 -46q9 10 23 21.5t34 21.5t45.5 16.5t57.5 6.5q60 0 99.5 -17.5t63 -45.5t33 -61.5t9.5 -64.5q0 -13 -2 -29.5t-4.5 -34.5t-6 -35.5l-6.5 -32.5l-45 -209h-132l44 205
q4 18 8.5 37.5t8 36.5t6 29.5t2.5 17.5q0 36 -19 60.5t-67 24.5q-38 0 -67 -23.5t-38 -67.5l-68 -320h-132l44 205q4 18 8.5 37.5t8 36.5t6 29.5t2.5 17.5q0 36 -19 60.5t-67 24.5q-38 0 -67 -23.5t-38 -67.5z" />
    <glyph glyph-name="n" unicode="n" horiz-adv-x="573" 
d="M465 0h-132l44 205q7 33 12 55t8 35.5t4 20t1 10.5q0 37 -19 61t-69 24q-44 0 -71.5 -25t-37.5 -71l-68 -315h-132l110 516h132l-11 -49q4 8 14 19t25 20.5t35 16.5t45 7q48 0 81.5 -17.5t54 -45.5t29.5 -62.5t9 -68.5q0 -12 -2 -29.5t-5 -36.5t-7 -37.5t-7 -33.5z" />
    <glyph glyph-name="o" unicode="o" horiz-adv-x="549" 
d="M493 209q-12 -54 -31.5 -94.5t-49.5 -68.5t-72 -42t-99 -14q-47 0 -85 14t-65 40t-41.5 61.5t-14.5 79.5q0 11 2 26.5t5 33t7 35t7 31.5q12 54 31.5 94.5t49.5 68.5t72 42t99 14q46 0 84 -14t65 -40t42 -62t15 -79q0 -11 -2 -26.5t-5 -33t-7 -35t-7 -31.5zM189 318
q-3 -15 -7.5 -35t-8.5 -39.5t-7 -35.5t-3 -23q0 -33 20 -56t68 -23q44 0 71.5 25t37.5 71q3 15 7.5 35t8.5 39.5t7 35.5t3 23q0 33 -20 56t-68 23q-44 0 -71 -25t-38 -71z" />
    <glyph glyph-name="p" unicode="p" horiz-adv-x="565" 
d="M237 467q4 8 14 19t24.5 20.5t34.5 16.5t45 7q45 0 77.5 -17.5t54 -45.5t32 -62.5t10.5 -68.5q0 -12 -2 -29.5t-5.5 -36.5t-7 -37.5t-6.5 -33.5q-23 -108 -76 -158.5t-144 -50.5q-51 0 -85 21t-51 53l-53 -248h-132l148 700h132zM205 315q-7 -33 -11.5 -55t-7.5 -35.5
t-4 -20t-1 -10.5q0 -37 19 -61t69 -24q44 0 71.5 25t37.5 71q7 33 11.5 55t7.5 35.5t4 20t1 10.5q0 37 -19 61t-69 24q-44 0 -71.5 -25t-37.5 -71z" />
    <glyph glyph-name="q" unicode="q" horiz-adv-x="562" 
d="M327 53q-5 -8 -14.5 -19t-24 -21t-34.5 -16.5t-45 -6.5q-45 0 -77.5 17.5t-54 45.5t-32 62.5t-10.5 68.5q0 12 2 29.5t5.5 36.5t7 37.5t6.5 33.5q23 108 76 158.5t144 50.5q51 0 85 -21t51 -53l13 60h132l-148 -700h-132zM359 205q7 33 11.5 55t7.5 35.5t4 20t1 10.5
q0 37 -19 61t-69 24q-44 0 -71.5 -25t-37.5 -71q-7 -33 -11.5 -55t-7.5 -35.5t-4 -20t-1 -10.5q0 -37 19 -61t69 -24q44 0 71.5 25t37.5 71z" />
    <glyph glyph-name="r" unicode="r" horiz-adv-x="364" 
d="M311 401q-44 0 -71.5 -25t-37.5 -71l-65 -305h-132l110 516h132l-13 -54q4 8 14 19t25 20.5t35 16.5t45 7h56l-26 -124h-72z" />
    <glyph glyph-name="s" unicode="s" horiz-adv-x="477" 
d="M208 -10q-43 0 -80.5 12.5t-65.5 35t-44 53t-16 67.5v9h128v-4q0 -28 27.5 -43.5t65.5 -15.5q12 0 25.5 2.5t25 7.5t18.5 13.5t7 20.5q0 19 -13 28t-33 14l-72 19q-24 6 -47 18.5t-41 30.5t-28.5 42.5t-10.5 55.5q0 45 16 77.5t44.5 54t66.5 32t82 10.5q34 0 68 -11.5
t61 -32t43.5 -50t16.5 -65.5v-8h-128v3q-1 23 -24 36.5t-52 13.5t-47.5 -11.5t-18.5 -31.5q0 -19 12.5 -27.5t26.5 -12.5l80 -21q55 -14 91.5 -50.5t36.5 -93.5q0 -94 -57 -136t-164 -42z" />
    <glyph glyph-name="t" unicode="t" horiz-adv-x="367" 
d="M41 400l24 116h73l25 117h132l-25 -117h127l-24 -116h-127q-15 -72 -25.5 -120t-16.5 -78t-8.5 -44t-2.5 -17q0 -25 30 -25h89l-24 -116h-97q-68 0 -98 34.5t-30 86.5q0 28 12.5 95t38.5 184h-73z" />
    <glyph glyph-name="u" unicode="u" horiz-adv-x="568" 
d="M259 109q41 0 68 25.5t37 70.5l67 311h132l-110 -516h-132l12 53q-4 -7 -14 -18t-25 -21t-35.5 -17t-44.5 -7q-44 0 -75.5 16.5t-52.5 43.5t-31 60.5t-10 68.5q0 13 1.5 29.5t4.5 34.5t6.5 35.5l6.5 32.5l44 205h132l-43 -201q-4 -18 -8.5 -37.5t-8 -36.5t-5.5 -29.5
t-2 -17.5q0 -36 19 -60.5t67 -24.5z" />
    <glyph glyph-name="v" unicode="v" horiz-adv-x="490" 
d="M408 516h146l-295 -516h-136l-77 516h132l43 -331z" />
    <glyph glyph-name="w" unicode="w" horiz-adv-x="704" 
d="M377 359l-163 -359h-134l-27 516h130l12 -324l147 324h122l11 -316l144 316h142l-245 -516h-126z" />
    <glyph glyph-name="x" unicode="x" horiz-adv-x="506" 
d="M390 516h164l-229 -261l115 -255h-138l-63 146l-127 -146h-164l230 265l-114 251h137l63 -145z" />
    <glyph glyph-name="y" unicode="y" horiz-adv-x="491" 
d="M46 516h132l43 -325l182 325h151l-323 -565q-17 -29 -30.5 -54t-30 -43t-39.5 -28t-57 -10h-97l23 116h55q18 0 26.5 7.5t13.5 15.5l27 49z" />
    <glyph glyph-name="z" unicode="z" horiz-adv-x="442" 
d="M168 116h221l-24 -116h-394l25 116l274 284h-208l24 116h381l-25 -116z" />
    <glyph glyph-name="braceleft" unicode="{" horiz-adv-x="333" 
d="M60 -42q0 25 6 59t13 67t13 59.5t6 35.5q0 11 -6.5 17.5t-24.5 6.5h-36l25 122h36q24 0 33.5 11.5t13.5 29.5q10 45 20.5 94t22.5 108q7 35 17 60t28 41t45.5 23.5t69.5 7.5h64l-26 -119h-36q-24 0 -33 -11.5t-13 -29.5q-13 -63 -24 -112t-19 -93q-7 -35 -18 -51.5
t-34 -27.5q9 -8 15 -19t6 -31q0 -7 -3.5 -25.5t-8 -42t-10.5 -49.5t-10.5 -48.5t-8 -39.5t-3.5 -23q0 -31 31 -31h36l-26 -119h-21q-37 0 -63.5 10.5t-43.5 28t-25 41t-8 50.5z" />
    <glyph glyph-name="bar" unicode="|" horiz-adv-x="252" 
d="M187 -100h-122v800h122v-800z" />
    <glyph glyph-name="braceright" unicode="}" horiz-adv-x="333" 
d="M276 570q0 -25 -6 -59t-13 -67t-13 -59.5t-6 -35.5q0 -11 6.5 -17.5t24.5 -6.5h36l-25 -122h-36q-24 0 -33.5 -11.5t-13.5 -29.5q-10 -45 -20.5 -94t-22.5 -108q-7 -35 -17 -60t-28 -41t-45.5 -23.5t-69.5 -7.5h-64l26 119h36q24 0 33 11.5t13 29.5q13 63 24 112t19 93
q7 35 18 51.5t34 27.5q-9 8 -15 19t-6 31q0 8 3.5 26t8 41.5t10.5 49t10.5 48.5t8 40t3.5 23q0 31 -31 31h-36l26 119h21q37 0 63.5 -10.5t43.5 -28t25 -41t8 -50.5z" />
    <glyph glyph-name="asciitilde" unicode="~" horiz-adv-x="550" 
d="M48 277q42 46 82.5 63.5t75.5 17.5q23 0 41.5 -7t34.5 -16t31 -16t31 -7q22 0 41.5 10.5t45.5 35.5l77 -85q-42 -46 -82.5 -63.5t-75.5 -17.5q-23 0 -41.5 7t-34.5 16t-31 16t-31 7q-22 0 -41.5 -10.5t-45.5 -35.5z" />
    <glyph glyph-name="uni00A0" unicode="&#xa0;" horiz-adv-x="210" 
 />
    <glyph glyph-name="exclamdown" unicode="&#xa1;" horiz-adv-x="270" 
d="M79 306h132l-104 -490h-132zM236 356h-160l35 160h160z" />
    <glyph glyph-name="cent" unicode="&#xa2;" horiz-adv-x="550" 
d="M521 332h-128v4q0 26 -14 46.5t-46 28.5l-64 -305q71 6 94 82h132q-13 -48 -33 -85t-49.5 -62t-70 -38t-94.5 -13h-4l-19 -90h-43l20 94q-74 13 -117 64t-43 127q0 11 2 26.5t5 33t7 35t7 31.5q12 54 31.5 94.5t49.5 68.5t72 42t99 14h1l19 90h43l-20 -94q75 -12 119 -63
t44 -127v-4zM170 191q0 -30 12.5 -52t43.5 -30l65 304q-38 -4 -62 -28.5t-33 -66.5q-7 -33 -12 -56t-8 -37.5t-4.5 -22t-1.5 -11.5z" />
    <glyph glyph-name="sterling" unicode="&#xa3;" horiz-adv-x="614" 
d="M489 481q2 14 3.5 24t1.5 15q0 30 -20 52t-68 22q-44 0 -71.5 -25t-37.5 -71l-23 -107h196l-17 -80h-196l-35 -164q-2 -11 -6.5 -20t-9.5 -11h338l-25 -116h-523l25 116h29q21 0 30 13.5t13 30.5l32 151h-64l17 80h64l22 100q12 54 31 94.5t49 68.5t72.5 42t99.5 14
q46 0 84 -14t65 -38.5t42 -58t15 -72.5q0 -7 -1.5 -19t-3.5 -27h-128z" />
    <glyph glyph-name="currency" unicode="&#xa4;" horiz-adv-x="704" 
d="M528 122q-34 -25 -74.5 -38.5t-85.5 -13.5q-46 0 -86.5 14t-74.5 39l-86 -86l-56 56l86 86q-26 34 -39.5 75t-13.5 86t13.5 85.5t39.5 74.5l-86 87l56 56l86 -87q34 26 74.5 40t86.5 14q45 0 85.5 -14t74.5 -39l85 86l56 -56l-85 -86q26 -34 40 -75t14 -86q0 -46 -14 -87
t-40 -75l85 -85l-56 -56zM217 340q0 -31 12 -58.5t32.5 -48t48 -32.5t58.5 -12t58.5 12t48 32.5t32.5 48t12 58.5t-12 58.5t-32.5 48t-48 32.5t-58.5 12t-58.5 -12t-48 -32.5t-32.5 -48t-12 -58.5z" />
    <glyph glyph-name="yen" unicode="&#xa5;" horiz-adv-x="648" 
d="M362 128l-27 -128h-132l27 128h-164l17 80h164l10 47h-164l17 80h119l-126 365h134l104 -311l237 311h155l-282 -365h118l-17 -80h-163l-10 -47h163l-17 -80h-163z" />
    <glyph glyph-name="brokenbar" unicode="&#xa6;" horiz-adv-x="252" 
d="M65 239h122v-339h-122v339zM65 700h122v-339h-122v339z" />
    <glyph glyph-name="section" unicode="&#xa7;" horiz-adv-x="526" 
d="M128 -17q0 -13 6 -24t16 -19.5t23 -13t26 -4.5q31 0 52 16.5t21 48.5q0 23 -13 39t-34 24l-84 33q-45 18 -75 58t-30 104q0 72 32 115t86 66q-12 20 -19 42t-7 48q0 44 12 80t37.5 61.5t63.5 39t91 13.5q35 0 67 -11t57.5 -32t41.5 -52.5t18 -72.5h-125q-2 24 -23.5 38
t-47.5 14q-31 0 -52 -16.5t-21 -48.5q0 -23 13 -39t34 -24l84 -33q45 -18 75 -58t30 -104q0 -72 -32.5 -115.5t-86.5 -66.5q13 -19 20 -41.5t7 -47.5q0 -89 -49.5 -141.5t-154.5 -52.5q-35 0 -67.5 11.5t-58 34t-41.5 55.5t-17 76h125zM279 345q-26 0 -48.5 -7.5t-39 -20.5
t-26 -29t-9.5 -34q0 -51 53 -71l30 -12q26 0 48.5 7.5t39.5 20.5t26.5 29t9.5 34q0 51 -53 71z" />
    <glyph glyph-name="dieresis" unicode="&#xa8;" horiz-adv-x="432" 
d="M251 577h-132l25 117h132zM447 577h-132l25 117h132z" />
    <glyph glyph-name="copyright" unicode="&#xa9;" horiz-adv-x="780" 
d="M49 350q0 75 28.5 140.5t77 114t114 77t140.5 28.5t140.5 -28.5t114 -77t77 -114t28.5 -140.5t-28.5 -140.5t-77 -114t-114 -77t-140.5 -28.5t-140.5 28.5t-114 77t-77 114t-28.5 140.5zM157 350q0 -52 20 -97.5t54 -79.5t80 -54t98 -20t97.5 20t79.5 54t53.5 79.5
t19.5 97.5t-19.5 97.5t-53.5 79.5t-79.5 54t-97.5 20t-98 -20t-80 -54t-54 -79.5t-20 -97.5zM409 168q-73 0 -109.5 38.5t-36.5 98.5v86q0 60 36.5 98t109.5 38q72 0 108.5 -36.5t38.5 -96.5h-94q-2 18 -16.5 29.5t-36.5 11.5q-23 0 -38 -12t-15 -32v-86q0 -20 15 -32.5
t38 -12.5q22 0 36.5 11t16.5 30h94q-2 -60 -38.5 -96.5t-108.5 -36.5z" />
    <glyph glyph-name="ordfeminine" unicode="&#xaa;" horiz-adv-x="336" 
d="M177 395q-44 0 -72.5 26t-28.5 63q0 34 17.5 58t43.5 34q35 12 68 15.5t78 5.5q-1 4 -3 9.5t-6.5 10t-13.5 8t-23 3.5t-24.5 -6.5t-17.5 -16.5h-94q16 48 47 75.5t95 27.5q62 0 95.5 -35.5t33.5 -91.5q0 -11 -3 -27t-5 -27l-27 -126h-93l7 30q-13 -17 -30 -26.5t-44 -9.5
zM196 473q28 0 49 15.5t26 38.5q-14 0 -28 -1t-26.5 -2t-22 -3t-13.5 -3q-17 -7 -17 -24q0 -6 6 -13.5t26 -7.5z" />
    <glyph glyph-name="guillemotleft" unicode="&#xab;" horiz-adv-x="492" 
d="M32 216l25 114l210 155l-38 -176l-69 -51l47 -51l-31 -146zM249 216l25 114l210 155l-38 -176l-69 -51l47 -51l-31 -146z" />
    <glyph glyph-name="logicalnot" unicode="&#xac;" 
d="M512 335v-290h-120v170h-340v120h460z" />
    <glyph glyph-name="uni00AD" unicode="&#xad;" horiz-adv-x="370" 
d="M345 335l-25 -120h-290l25 120h290z" />
    <glyph glyph-name="registered" unicode="&#xae;" horiz-adv-x="780" 
d="M49 350q0 75 28.5 140.5t77 114t114 77t140.5 28.5t140.5 -28.5t114 -77t77 -114t28.5 -140.5t-28.5 -140.5t-77 -114t-114 -77t-140.5 -28.5t-140.5 28.5t-114 77t-77 114t-28.5 140.5zM157 350q0 -52 20 -97.5t54 -79.5t80 -54t98 -20t97.5 20t79.5 54t53.5 79.5
t19.5 97.5t-19.5 97.5t-53.5 79.5t-79.5 54t-97.5 20t-98 -20t-80 -54t-54 -79.5t-20 -97.5zM460 173l-76 130h-21v-130h-93v349h166q60 0 90 -28.5t30 -80.5q0 -82 -70 -103l81 -137h-107zM363 394h75q25 0 25 18t-25 18h-75v-36z" />
    <glyph glyph-name="macron" unicode="&#xaf;" horiz-adv-x="439" 
d="M481 688l-23 -104h-341l23 104h341z" />
    <glyph glyph-name="degree" unicode="&#xb0;" horiz-adv-x="383" 
d="M91 549q0 32 12.5 60.5t33.5 49.5t49.5 33.5t60.5 12.5t60.5 -12.5t49.5 -33.5t33.5 -49.5t12.5 -60.5t-12.5 -60.5t-33.5 -49.5t-49.5 -33.5t-60.5 -12.5t-60.5 12.5t-49.5 33.5t-33.5 49.5t-12.5 60.5zM188 549q0 -25 17 -42.5t42 -17.5t42 17.5t17 42.5t-17 42.5
t-42 17.5t-42 -17.5t-17 -42.5z" />
    <glyph glyph-name="plusminus" unicode="&#xb1;" 
d="M52 280v120h170v116h120v-116h170v-120h-170v-116h-120v116h-170zM512 120v-120h-460v120h460z" />
    <glyph glyph-name="twosuperior" unicode="&#xb2;" horiz-adv-x="321" 
d="M63 481l188 147q22 17 34 33.5t12 36.5q0 13 -9 23.5t-35 10.5q-17 0 -27 -5.5t-16 -14t-9 -18t-4 -17.5h-92q6 31 17 56.5t29 43t44 27t63 9.5q27 0 50.5 -8t41 -22.5t27.5 -35t10 -46.5q0 -83 -78 -143l-102 -77h138l-16 -80h-283z" />
    <glyph glyph-name="threesuperior" unicode="&#xb3;" horiz-adv-x="325" 
d="M204 395q-59 0 -94 30t-35 82v10h91q0 -1 -0.5 -3.5t-0.5 -3.5q0 -13 9 -23.5t35 -10.5t40 16.5t14 33.5t-12 26.5t-33 9.5h-36l18 81h36q27 0 44.5 13.5t17.5 41.5q0 13 -9 23.5t-35 10.5q-41 0 -52 -38h-92q8 28 19.5 50t28.5 37.5t41.5 23.5t59.5 8q27 0 50.5 -8
t41 -22.5t27.5 -35t10 -46.5q0 -37 -18 -65.5t-47 -40.5q13 -11 19 -29t6 -37q0 -67 -39.5 -100.5t-104.5 -33.5z" />
    <glyph glyph-name="acute" unicode="&#xb4;" horiz-adv-x="321" 
d="M363 700l-118 -129h-114l60 129h172z" />
    <glyph glyph-name="mu" unicode="&#xb5;" horiz-adv-x="575" 
d="M237 -10q-38 0 -60.5 19t-27.5 45l-51 -238h-131l148 700h132l-43 -201q-4 -18 -8.5 -37.5t-8 -36.5t-5.5 -29.5t-2 -17.5q0 -36 18.5 -60.5t66.5 -24.5q42 0 69 25.5t37 70.5l67 311h132l-110 -516h-132l11 49q-10 -21 -35 -40t-67 -19z" />
    <glyph glyph-name="mu" unicode="&#x3bc;" horiz-adv-x="575" 
d="M237 -10q-38 0 -60.5 19t-27.5 45l-51 -238h-131l148 700h132l-43 -201q-4 -18 -8.5 -37.5t-8 -36.5t-5.5 -29.5t-2 -17.5q0 -36 18.5 -60.5t66.5 -24.5q42 0 69 25.5t37 70.5l67 311h132l-110 -516h-132l11 49q-10 -21 -35 -40t-67 -19z" />
    <glyph glyph-name="paragraph" unicode="&#xb6;" horiz-adv-x="650" 
d="M230 300q-36 0 -65.5 14.5t-50.5 38.5t-33 56t-12 67q0 49 18 90t50.5 71t77.5 46.5t100 16.5h364l-167 -787h-122l141 665h-110l-141 -665h-122l82 387h-10z" />
    <glyph glyph-name="periodcentered" unicode="&#xb7;" horiz-adv-x="310" 
d="M98 365h160l-34 -160h-160z" />
    <glyph glyph-name="cedilla" unicode="&#xb8;" horiz-adv-x="270" 
d="M12 0h111l-38 -158h-130z" />
    <glyph glyph-name="onesuperior" unicode="&#xb9;" horiz-adv-x="226" 
d="M184 689l-92 -68l25 118l92 68h93l-86 -406h-93z" />
    <glyph glyph-name="ordmasculine" unicode="&#xba;" horiz-adv-x="331" 
d="M219 476q21 0 33 12t17 33q2 7 4 17t4 19.5t3.5 17t1.5 10.5q0 15 -8 29t-38 14q-21 0 -33 -12.5t-17 -33.5q-2 -7 -4 -16.5t-4 -19.5l-3.5 -17.5t-1.5 -9.5q0 -16 8 -29.5t38 -13.5zM213 395q-62 0 -95.5 36t-33.5 91q0 11 2.5 27.5t5.5 26.5q7 31 18 55.5t28 41.5
t42.5 26t61.5 9q62 0 95.5 -35.5t33.5 -91.5q0 -11 -2.5 -27t-5.5 -27q-8 -30 -18.5 -54.5t-28 -42t-42.5 -26.5t-61 -9z" />
    <glyph glyph-name="guillemotright" unicode="&#xbb;" horiz-adv-x="492" 
d="M248 330l-25 -114l-210 -155l38 176l69 51l-47 51l31 146zM465 330l-25 -114l-210 -155l38 176l69 51l-47 51l31 146z" />
    <glyph glyph-name="onequarter" unicode="&#xbc;" horiz-adv-x="730" 
d="M181 582l-92 -68l25 118l92 68h93l-86 -406h-93zM651 700l-481 -700h-106l481 700h106zM533 84h-170l17 79l221 243h93l-52 -243h41l-15 -79h-42l-18 -84h-93zM549 163l18 78l-70 -78h52z" />
    <glyph glyph-name="onehalf" unicode="&#xbd;" horiz-adv-x="778" 
d="M181 582l-92 -68l25 118l92 68h93l-86 -406h-93zM651 700l-481 -700h-106l481 700h106zM410 80l188 147q22 17 34 33.5t12 36.5q0 13 -9 23.5t-35 10.5q-17 0 -27 -5.5t-16 -14t-9 -18t-4 -17.5h-92q6 31 17 56.5t29 43t44 27t63 9.5q27 0 50.5 -8t41 -22.5t27.5 -35
t10 -46.5q0 -83 -78 -143l-102 -77h138l-16 -80h-283z" />
    <glyph glyph-name="threequarters" unicode="&#xbe;" horiz-adv-x="829" 
d="M202 288q-59 0 -94 30t-35 82v10h91q0 -1 -0.5 -3.5t-0.5 -3.5q0 -13 9 -23.5t35 -10.5t40 16.5t14 33.5t-12 26.5t-33 9.5h-36l18 81h36q27 0 44.5 13.5t17.5 41.5q0 13 -9 23.5t-35 10.5q-41 0 -52 -38h-92q8 28 19.5 50t28.5 37.5t41.5 23.5t59.5 8q27 0 50.5 -8
t41 -22.5t27.5 -35t10 -46.5q0 -37 -18 -65.5t-47 -40.5q13 -11 19 -29t6 -37q0 -67 -39.5 -100.5t-104.5 -33.5zM750 700l-481 -700h-106l481 700h106zM631 84h-170l17 79l221 243h93l-52 -243h41l-15 -79h-42l-18 -84h-93zM647 163l18 78l-70 -78h52z" />
    <glyph glyph-name="questiondown" unicode="&#xbf;" horiz-adv-x="510" 
d="M444 16q-13 -51 -32.5 -90.5t-49 -66t-71 -40t-97.5 -13.5q-46 0 -84 14t-65 38.5t-42 58t-15 72.5q0 70 25.5 117.5t79.5 88.5l62 48q12 9 21 16t15.5 13t10.5 13t7 17l1 4h132l-5 -22q-5 -20 -11 -36.5t-16 -31t-24.5 -29t-36.5 -31.5l-62 -48q-20 -15 -33.5 -26.5
t-21.5 -23t-12 -25t-4 -31.5q0 -35 20 -57.5t68 -22.5q43 0 71 24.5t38 69.5h131zM367 356h-160l34 160h160z" />
    <glyph glyph-name="Agrave" unicode="&#xc0;" horiz-adv-x="625" 
d="M373 495l-130 -229h163zM172 142l-81 -142h-147l398 700h128l101 -700h-127l-21 142h-251zM429 854l52 -109h-116l-105 109h169z" />
    <glyph glyph-name="Aacute" unicode="&#xc1;" horiz-adv-x="625" 
d="M373 495l-130 -229h163zM172 142l-81 -142h-147l398 700h128l101 -700h-127l-21 142h-251zM581 854l-128 -109h-121l75 109h174z" />
    <glyph glyph-name="Acircumflex" unicode="&#xc2;" horiz-adv-x="625" 
d="M373 495l-130 -229h163zM172 142l-81 -142h-147l398 700h128l101 -700h-127l-21 142h-251zM432 780l-51 -35h-152l154 109h110l108 -109h-132z" />
    <glyph glyph-name="Atilde" unicode="&#xc3;" horiz-adv-x="625" 
d="M373 495l-130 -229h163zM172 142l-81 -142h-147l398 700h128l101 -700h-127l-21 142h-251zM609 864q-5 -26 -14.5 -49.5t-24.5 -41.5t-35 -28.5t-45 -10.5q-18 0 -31 3t-30 11l-27 13q-9 4 -18 4q-21 0 -32 -29h-104q5 26 14.5 49.5t24.5 41.5t34.5 28.5t45.5 10.5
q18 0 31 -3t30 -11l27 -13q9 -4 18 -4q21 0 32 29h104z" />
    <glyph glyph-name="Adieresis" unicode="&#xc4;" horiz-adv-x="625" 
d="M373 495l-130 -229h163zM172 142l-81 -142h-147l398 700h128l101 -700h-127l-21 142h-251zM384 741h-134l25 117h134zM580 741h-134l25 117h134z" />
    <glyph glyph-name="Aring" unicode="&#xc5;" horiz-adv-x="625" 
d="M373 495l-130 -229h163zM172 142l-81 -142h-147l398 700h128l101 -700h-127l-21 142h-251zM353 799q0 31 21.5 53t52.5 22t53 -22t22 -53t-22 -52.5t-53 -21.5t-52.5 21.5t-21.5 52.5zM409 799q0 -8 5 -13t13 -5t13 5t5 13t-5 13t-13 5t-13 -5t-5 -13z" />
    <glyph glyph-name="AE" unicode="&#xc6;" horiz-adv-x="878" 
d="M922 700l-28 -130h-291l-32 -151h292l-28 -130h-292l-34 -159h292l-27 -130h-425l34 159h-188l-107 -159h-150l470 700h514zM409 284l60 282l-189 -282h129z" />
    <glyph glyph-name="Ccedilla" unicode="&#xc7;" horiz-adv-x="605" 
d="M480 466q2 9 2 12v5q0 48 -29.5 72.5t-85.5 24.5q-55 0 -94.5 -32.5t-53.5 -93.5q-1 -6 -5 -24t-9.5 -42t-11.5 -51.5t-11 -52t-8 -43t-3 -24.5q0 -48 29.5 -72.5t85.5 -24.5q52 0 90.5 29.5t54.5 84.5h135q-13 -55 -34 -100t-55.5 -77t-85 -49.5t-122.5 -17.5
q-56 0 -99.5 16.5t-73 44.5t-44.5 65t-15 78q0 18 6 54t14 75.5t15.5 75t11.5 52.5q12 58 33 106t55.5 82t86 52.5t125.5 18.5q56 0 99.5 -16.5t73 -44.5t44.5 -65t15 -78q0 -8 -1 -18t-3 -22h-132zM205 0h118l-38 -158h-132z" />
    <glyph glyph-name="Egrave" unicode="&#xc8;" horiz-adv-x="539" 
d="M232 419h292l-28 -130h-292l-34 -159h292l-27 -130h-425l148 700h425l-28 -130h-291zM394 854l52 -109h-116l-105 109h169z" />
    <glyph glyph-name="Eacute" unicode="&#xc9;" horiz-adv-x="539" 
d="M232 419h292l-28 -130h-292l-34 -159h292l-27 -130h-425l148 700h425l-28 -130h-291zM546 854l-128 -109h-121l75 109h174z" />
    <glyph glyph-name="Ecircumflex" unicode="&#xca;" horiz-adv-x="539" 
d="M232 419h292l-28 -130h-292l-34 -159h292l-27 -130h-425l148 700h425l-28 -130h-291zM396 780l-51 -35h-152l154 109h110l108 -109h-132z" />
    <glyph glyph-name="Edieresis" unicode="&#xcb;" horiz-adv-x="539" 
d="M232 419h292l-28 -130h-292l-34 -159h292l-27 -130h-425l148 700h425l-28 -130h-291zM349 741h-134l25 117h134zM545 741h-134l25 117h134z" />
    <glyph glyph-name="Igrave" unicode="&#xcc;" horiz-adv-x="263" 
d="M143 0h-133l148 700h133zM249 854l52 -109h-116l-105 109h169z" />
    <glyph glyph-name="Iacute" unicode="&#xcd;" horiz-adv-x="263" 
d="M143 0h-133l148 700h133zM401 854l-128 -109h-121l75 109h174z" />
    <glyph glyph-name="Icircumflex" unicode="&#xce;" horiz-adv-x="263" 
d="M143 0h-133l148 700h133zM252 780l-51 -35h-152l154 109h110l108 -109h-132z" />
    <glyph glyph-name="Idieresis" unicode="&#xcf;" horiz-adv-x="263" 
d="M143 0h-133l148 700h133zM204 741h-134l25 117h134zM400 741h-134l25 117h134z" />
    <glyph glyph-name="Eth" unicode="&#xd0;" horiz-adv-x="647" 
d="M21 0l64 303h-70l19 90h70l65 307h245q56 0 99.5 -16.5t73 -44.5t44.5 -65t15 -78q0 -18 -5.5 -51t-12.5 -68.5t-14 -68t-11 -49.5q-12 -58 -33 -106t-55.5 -82t-86 -52.5t-125.5 -18.5h-282zM320 130q55 0 94.5 32.5t53.5 93.5q1 6 5 22.5t9 38.5t10 46.5t9.5 46.5
t7.5 39t3 24q0 48 -29.5 72.5t-85.5 24.5h-122l-38 -177h130l-19 -90h-130l-37 -173h139z" />
    <glyph glyph-name="Ntilde" unicode="&#xd1;" horiz-adv-x="657" 
d="M537 0h-134l-159 475l-101 -475h-133l148 700h134l159 -475l101 475h134zM624 864q-5 -26 -14.5 -49.5t-24.5 -41.5t-35 -28.5t-45 -10.5q-18 0 -31 3t-30 11l-27 13q-9 4 -18 4q-21 0 -32 -29h-104q5 26 14.5 49.5t24.5 41.5t34.5 28.5t45.5 10.5q18 0 31 -3t30 -11
l27 -13q9 -4 18 -4q21 0 32 29h104z" />
    <glyph glyph-name="Ograve" unicode="&#xd2;" horiz-adv-x="615" 
d="M84 451q12 58 33 106t55.5 82t86 52.5t125.5 18.5q56 0 99.5 -16.5t73 -44.5t44.5 -65t15 -78q0 -18 -6 -54t-14 -75.5t-15.5 -75t-11.5 -52.5q-12 -58 -33 -106t-55.5 -82t-86 -52.5t-125.5 -18.5q-56 0 -99.5 16.5t-73 44.5t-44.5 65t-15 78q0 18 6 54t14 75.5t15.5 75
t11.5 52.5zM219 454q-1 -6 -5 -24t-9.5 -42t-11.5 -51.5t-11 -52t-8 -43t-3 -24.5q0 -48 29.5 -72.5t85.5 -24.5q55 0 94.5 32.5t53.5 93.5q1 6 5 24t9.5 42t11.5 51.5t11 52t8 42.5t3 25q0 48 -29.5 72.5t-85.5 24.5q-55 0 -94.5 -32.5t-53.5 -93.5zM424 854l52 -109h-116
l-105 109h169z" />
    <glyph glyph-name="Oacute" unicode="&#xd3;" horiz-adv-x="615" 
d="M84 451q12 58 33 106t55.5 82t86 52.5t125.5 18.5q56 0 99.5 -16.5t73 -44.5t44.5 -65t15 -78q0 -18 -6 -54t-14 -75.5t-15.5 -75t-11.5 -52.5q-12 -58 -33 -106t-55.5 -82t-86 -52.5t-125.5 -18.5q-56 0 -99.5 16.5t-73 44.5t-44.5 65t-15 78q0 18 6 54t14 75.5t15.5 75
t11.5 52.5zM219 454q-1 -6 -5 -24t-9.5 -42t-11.5 -51.5t-11 -52t-8 -43t-3 -24.5q0 -48 29.5 -72.5t85.5 -24.5q55 0 94.5 32.5t53.5 93.5q1 6 5 24t9.5 42t11.5 51.5t11 52t8 42.5t3 25q0 48 -29.5 72.5t-85.5 24.5q-55 0 -94.5 -32.5t-53.5 -93.5zM576 854l-128 -109
h-121l75 109h174z" />
    <glyph glyph-name="Ocircumflex" unicode="&#xd4;" horiz-adv-x="615" 
d="M84 451q12 58 33 106t55.5 82t86 52.5t125.5 18.5q56 0 99.5 -16.5t73 -44.5t44.5 -65t15 -78q0 -18 -6 -54t-14 -75.5t-15.5 -75t-11.5 -52.5q-12 -58 -33 -106t-55.5 -82t-86 -52.5t-125.5 -18.5q-56 0 -99.5 16.5t-73 44.5t-44.5 65t-15 78q0 18 6 54t14 75.5t15.5 75
t11.5 52.5zM219 454q-1 -6 -5 -24t-9.5 -42t-11.5 -51.5t-11 -52t-8 -43t-3 -24.5q0 -48 29.5 -72.5t85.5 -24.5q55 0 94.5 32.5t53.5 93.5q1 6 5 24t9.5 42t11.5 51.5t11 52t8 42.5t3 25q0 48 -29.5 72.5t-85.5 24.5q-55 0 -94.5 -32.5t-53.5 -93.5zM427 780l-51 -35h-152
l154 109h110l108 -109h-132z" />
    <glyph glyph-name="Otilde" unicode="&#xd5;" horiz-adv-x="615" 
d="M84 451q12 58 33 106t55.5 82t86 52.5t125.5 18.5q56 0 99.5 -16.5t73 -44.5t44.5 -65t15 -78q0 -18 -6 -54t-14 -75.5t-15.5 -75t-11.5 -52.5q-12 -58 -33 -106t-55.5 -82t-86 -52.5t-125.5 -18.5q-56 0 -99.5 16.5t-73 44.5t-44.5 65t-15 78q0 18 6 54t14 75.5t15.5 75
t11.5 52.5zM219 454q-1 -6 -5 -24t-9.5 -42t-11.5 -51.5t-11 -52t-8 -43t-3 -24.5q0 -48 29.5 -72.5t85.5 -24.5q55 0 94.5 32.5t53.5 93.5q1 6 5 24t9.5 42t11.5 51.5t11 52t8 42.5t3 25q0 48 -29.5 72.5t-85.5 24.5q-55 0 -94.5 -32.5t-53.5 -93.5zM604 864
q-5 -26 -14.5 -49.5t-24.5 -41.5t-35 -28.5t-45 -10.5q-18 0 -31 3t-30 11l-27 13q-9 4 -18 4q-21 0 -32 -29h-104q5 26 14.5 49.5t24.5 41.5t34.5 28.5t45.5 10.5q18 0 31 -3t30 -11l27 -13q9 -4 18 -4q21 0 32 29h104z" />
    <glyph glyph-name="Odieresis" unicode="&#xd6;" horiz-adv-x="615" 
d="M84 451q12 58 33 106t55.5 82t86 52.5t125.5 18.5q56 0 99.5 -16.5t73 -44.5t44.5 -65t15 -78q0 -18 -6 -54t-14 -75.5t-15.5 -75t-11.5 -52.5q-12 -58 -33 -106t-55.5 -82t-86 -52.5t-125.5 -18.5q-56 0 -99.5 16.5t-73 44.5t-44.5 65t-15 78q0 18 6 54t14 75.5t15.5 75
t11.5 52.5zM219 454q-1 -6 -5 -24t-9.5 -42t-11.5 -51.5t-11 -52t-8 -43t-3 -24.5q0 -48 29.5 -72.5t85.5 -24.5q55 0 94.5 32.5t53.5 93.5q1 6 5 24t9.5 42t11.5 51.5t11 52t8 42.5t3 25q0 48 -29.5 72.5t-85.5 24.5q-55 0 -94.5 -32.5t-53.5 -93.5zM379 741h-134l25 117
h134zM575 741h-134l25 117h134z" />
    <glyph glyph-name="multiply" unicode="&#xd7;" 
d="M366 275l144 -143l-85 -85l-144 143l-143 -143l-85 85l143 143l-143 144l85 85l143 -144l144 144l85 -85z" />
    <glyph glyph-name="Oslash" unicode="&#xd8;" horiz-adv-x="621" 
d="M87 451q12 58 33 106t55.5 82t86 52.5t125.5 18.5q46 0 83 -11t66 -31l62 75l73 -49l-76 -92q24 -44 24 -96q0 -18 -6 -54t-14 -75.5t-15.5 -75t-11.5 -52.5q-12 -58 -33 -106t-55.5 -82t-86 -52.5t-125.5 -18.5q-46 0 -83 11t-66 31l-61 -74l-73 48l75 91q-24 43 -24 97
q0 18 6 54t14 75.5t15.5 75t11.5 52.5zM222 454q-2 -8 -8.5 -36.5t-14 -63.5t-14.5 -69.5t-10 -53.5l272 330q-30 19 -77 19q-55 0 -94.5 -32.5t-53.5 -93.5zM437 246q1 7 7.5 35.5t14 63t14.5 68.5t10 54l-271 -328q28 -19 77 -19q55 0 94.5 32.5t53.5 93.5z" />
    <glyph glyph-name="Ugrave" unicode="&#xd9;" horiz-adv-x="639" 
d="M182 217q0 -48 30 -72.5t86 -24.5q55 0 95 32.5t54 93.5q3 13 8.5 40t13 61.5t16 74t16.5 78.5q19 92 42 200h133q-23 -106 -42 -198q-8 -39 -16.5 -78.5t-15.5 -73.5t-12.5 -61t-8.5 -40q-12 -58 -32.5 -106t-55 -82t-86.5 -52.5t-126 -18.5q-56 0 -99.5 16.5t-73 44.5
t-45 65t-15.5 78q0 37 26.5 161t73.5 345h133q-21 -101 -39.5 -185.5t-31.5 -147.5t-20.5 -101.5t-7.5 -48.5zM434 854l52 -109h-116l-105 109h169z" />
    <glyph glyph-name="Uacute" unicode="&#xda;" horiz-adv-x="639" 
d="M182 217q0 -48 30 -72.5t86 -24.5q55 0 95 32.5t54 93.5q3 13 8.5 40t13 61.5t16 74t16.5 78.5q19 92 42 200h133q-23 -106 -42 -198q-8 -39 -16.5 -78.5t-15.5 -73.5t-12.5 -61t-8.5 -40q-12 -58 -32.5 -106t-55 -82t-86.5 -52.5t-126 -18.5q-56 0 -99.5 16.5t-73 44.5
t-45 65t-15.5 78q0 37 26.5 161t73.5 345h133q-21 -101 -39.5 -185.5t-31.5 -147.5t-20.5 -101.5t-7.5 -48.5zM587 854l-128 -109h-121l75 109h174z" />
    <glyph glyph-name="Ucircumflex" unicode="&#xdb;" horiz-adv-x="639" 
d="M182 217q0 -48 30 -72.5t86 -24.5q55 0 95 32.5t54 93.5q3 13 8.5 40t13 61.5t16 74t16.5 78.5q19 92 42 200h133q-23 -106 -42 -198q-8 -39 -16.5 -78.5t-15.5 -73.5t-12.5 -61t-8.5 -40q-12 -58 -32.5 -106t-55 -82t-86.5 -52.5t-126 -18.5q-56 0 -99.5 16.5t-73 44.5
t-45 65t-15.5 78q0 37 26.5 161t73.5 345h133q-21 -101 -39.5 -185.5t-31.5 -147.5t-20.5 -101.5t-7.5 -48.5zM438 780l-51 -35h-152l154 109h110l108 -109h-132z" />
    <glyph glyph-name="Udieresis" unicode="&#xdc;" horiz-adv-x="639" 
d="M182 217q0 -48 30 -72.5t86 -24.5q55 0 95 32.5t54 93.5q3 13 8.5 40t13 61.5t16 74t16.5 78.5q19 92 42 200h133q-23 -106 -42 -198q-8 -39 -16.5 -78.5t-15.5 -73.5t-12.5 -61t-8.5 -40q-12 -58 -32.5 -106t-55 -82t-86.5 -52.5t-126 -18.5q-56 0 -99.5 16.5t-73 44.5
t-45 65t-15.5 78q0 37 26.5 161t73.5 345h133q-21 -101 -39.5 -185.5t-31.5 -147.5t-20.5 -101.5t-7.5 -48.5zM390 741h-134l25 117h134zM586 741h-134l25 117h134z" />
    <glyph glyph-name="Yacute" unicode="&#xdd;" horiz-adv-x="605" 
d="M315 0h-134l54 255l-153 445h138l101 -304l230 304h161l-343 -445zM572 854l-128 -109h-121l75 109h174z" />
    <glyph glyph-name="Thorn" unicode="&#xde;" horiz-adv-x="597" 
d="M339 240q27 0 52.5 8.5t45.5 24.5t32 39t12 52q0 18 -6.5 35.5t-19 31.5t-32 23t-46.5 9h-136l-47 -223h145zM143 0h-133l148 700h133l-23 -107h136q50 0 89 -19t66 -50t41.5 -70.5t14.5 -79.5q0 -128 -78 -196t-219 -68h-152z" />
    <glyph glyph-name="germandbls" unicode="&#xdf;" horiz-adv-x="553" 
d="M252 322l23 106h25q20 0 37.5 9t31 23.5t21 32t7.5 35.5q0 27 -18.5 46.5t-47.5 19.5q-35 0 -56.5 -22t-28.5 -55l-110 -517h-131l110 518q10 48 27 84t44 60t66 36t94 12q44 0 77.5 -17.5t56 -43.5t34 -57.5t11.5 -58.5q0 -61 -23 -97.5t-52 -58.5q35 -29 49.5 -67
t14.5 -74q0 -61 -18.5 -107t-53 -77t-83.5 -46.5t-110 -15.5q-15 0 -34 1.5t-32 3.5l27 125q9 -8 23 -11t31 -3q25 0 47.5 8.5t39 24t26 37.5t9.5 48q0 42 -27.5 70t-69.5 28h-37z" />
    <glyph glyph-name="agrave" unicode="&#xe0;" horiz-adv-x="555" 
d="M67 354q13 43 33 76t49 55t68 33.5t90 11.5q46 0 84 -14t65 -40t42 -62t15 -79q0 -11 -2 -26.5t-5.5 -33t-7 -34.5t-6.5 -32l-45 -209h-132l12 53q-21 -29 -54 -46t-81 -17q-38 0 -69.5 12t-54 32t-35 47t-12.5 57q0 61 30 101.5t84 58.5q56 19 116.5 24.5t134.5 9.5v4
q0 30 -20 54t-69 24q-33 0 -58 -16t-39 -44h-133zM186 203q-20 -8 -29 -19.5t-9 -31.5q0 -17 15.5 -33t56.5 -16q51 0 90 28.5t50 77.5l3 14q-57 -3 -106.5 -7t-70.5 -13zM373 700l33 -129h-109l-91 129h167z" />
    <glyph glyph-name="aacute" unicode="&#xe1;" horiz-adv-x="555" 
d="M67 354q13 43 33 76t49 55t68 33.5t90 11.5q46 0 84 -14t65 -40t42 -62t15 -79q0 -11 -2 -26.5t-5.5 -33t-7 -34.5t-6.5 -32l-45 -209h-132l12 53q-21 -29 -54 -46t-81 -17q-38 0 -69.5 12t-54 32t-35 47t-12.5 57q0 61 30 101.5t84 58.5q56 19 116.5 24.5t134.5 9.5v4
q0 30 -20 54t-69 24q-33 0 -58 -16t-39 -44h-133zM186 203q-20 -8 -29 -19.5t-9 -31.5q0 -17 15.5 -33t56.5 -16q51 0 90 28.5t50 77.5l3 14q-57 -3 -106.5 -7t-70.5 -13zM493 700l-118 -129h-114l60 129h172z" />
    <glyph glyph-name="acircumflex" unicode="&#xe2;" horiz-adv-x="555" 
d="M67 354q13 43 33 76t49 55t68 33.5t90 11.5q46 0 84 -14t65 -40t42 -62t15 -79q0 -11 -2 -26.5t-5.5 -33t-7 -34.5t-6.5 -32l-45 -209h-132l12 53q-21 -29 -54 -46t-81 -17q-38 0 -69.5 12t-54 32t-35 47t-12.5 57q0 61 30 101.5t84 58.5q56 19 116.5 24.5t134.5 9.5v4
q0 30 -20 54t-69 24q-33 0 -58 -16t-39 -44h-133zM186 203q-20 -8 -29 -19.5t-9 -31.5q0 -17 15.5 -33t56.5 -16q51 0 90 28.5t50 77.5l3 14q-57 -3 -106.5 -7t-70.5 -13zM533 571h-128l-39 45l-58 -45h-147l153 129h120z" />
    <glyph glyph-name="atilde" unicode="&#xe3;" horiz-adv-x="555" 
d="M67 354q13 43 33 76t49 55t68 33.5t90 11.5q46 0 84 -14t65 -40t42 -62t15 -79q0 -11 -2 -26.5t-5.5 -33t-7 -34.5t-6.5 -32l-45 -209h-132l12 53q-21 -29 -54 -46t-81 -17q-38 0 -69.5 12t-54 32t-35 47t-12.5 57q0 61 30 101.5t84 58.5q56 19 116.5 24.5t134.5 9.5v4
q0 30 -20 54t-69 24q-33 0 -58 -16t-39 -44h-133zM186 203q-20 -8 -29 -19.5t-9 -31.5q0 -17 15.5 -33t56.5 -16q51 0 90 28.5t50 77.5l3 14q-57 -3 -106.5 -7t-70.5 -13zM182 572q5 26 14.5 49.5t24.5 41.5t34.5 28.5t45.5 10.5q18 0 31 -3.5t30 -11.5l27 -13
q5 -2 10.5 -3.5t13.5 -1.5t17.5 7t14.5 24h98q-5 -26 -14.5 -49.5t-24.5 -41.5t-35 -28.5t-45 -10.5q-18 0 -31 3.5t-30 11.5l-27 13q-5 2 -10.5 3.5t-13.5 1.5t-17.5 -7t-15.5 -24h-97z" />
    <glyph glyph-name="adieresis" unicode="&#xe4;" horiz-adv-x="555" 
d="M67 354q13 43 33 76t49 55t68 33.5t90 11.5q46 0 84 -14t65 -40t42 -62t15 -79q0 -11 -2 -26.5t-5.5 -33t-7 -34.5t-6.5 -32l-45 -209h-132l12 53q-21 -29 -54 -46t-81 -17q-38 0 -69.5 12t-54 32t-35 47t-12.5 57q0 61 30 101.5t84 58.5q56 19 116.5 24.5t134.5 9.5v4
q0 30 -20 54t-69 24q-33 0 -58 -16t-39 -44h-133zM186 203q-20 -8 -29 -19.5t-9 -31.5q0 -17 15.5 -33t56.5 -16q51 0 90 28.5t50 77.5l3 14q-57 -3 -106.5 -7t-70.5 -13zM315 577h-132l25 117h132zM511 577h-132l25 117h132z" />
    <glyph glyph-name="aring" unicode="&#xe5;" horiz-adv-x="555" 
d="M67 354q13 43 33 76t49 55t68 33.5t90 11.5q46 0 84 -14t65 -40t42 -62t15 -79q0 -11 -2 -26.5t-5.5 -33t-7 -34.5t-6.5 -32l-45 -209h-132l12 53q-21 -29 -54 -46t-81 -17q-38 0 -69.5 12t-54 32t-35 47t-12.5 57q0 61 30 101.5t84 58.5q56 19 116.5 24.5t134.5 9.5v4
q0 30 -20 54t-69 24q-33 0 -58 -16t-39 -44h-133zM186 203q-20 -8 -29 -19.5t-9 -31.5q0 -17 15.5 -33t56.5 -16q51 0 90 28.5t50 77.5l3 14q-57 -3 -106.5 -7t-70.5 -13zM287 635q0 31 21.5 53t52.5 22t53 -22t22 -53t-22 -52.5t-53 -21.5t-52.5 21.5t-21.5 52.5zM341 635
q0 -8 6 -14t14 -6t14 6t6 14t-6 14t-14 6t-14 -6t-6 -14z" />
    <glyph glyph-name="ae" unicode="&#xe6;" horiz-adv-x="872" 
d="M386 336q0 30 -20 54t-69 24q-33 0 -58 -16t-39 -44h-133q13 43 33 76t49 55t68 33.5t90 11.5q48 0 88 -18.5t65 -47.5q25 27 66.5 46.5t107.5 19.5q46 0 84 -14t65 -40t42 -62t15 -79q0 -11 -2 -26t-5 -31.5t-6.5 -33t-6.5 -30.5h-328q-3 -17 -3 -23q0 -37 19 -61
t69 -24q34 0 58.5 15.5t38.5 44.5h133q-14 -43 -33.5 -76t-48.5 -55t-68 -33.5t-90 -11.5q-63 0 -109 24.5t-72 68.5q-27 -40 -73.5 -66.5t-120.5 -26.5q-38 0 -69.5 12t-54 32t-35 47t-12.5 57q0 61 30 101.5t84 58.5q56 19 116.5 24.5t134.5 9.5v4zM186 203
q-20 -8 -29 -19.5t-9 -31.5q0 -17 15.5 -33t56.5 -16q51 0 90 28.5t50 77.5l3 14q-57 -3 -106.5 -7t-70.5 -13zM712 329q0 37 -19 61t-69 24q-43 0 -70.5 -25t-38.5 -69h197v9z" />
    <glyph glyph-name="ccedilla" unicode="&#xe7;" horiz-adv-x="539" 
d="M514 332h-128v4q0 31 -20 54.5t-68 23.5q-44 0 -71.5 -25t-37.5 -71q-7 -33 -12 -56t-8 -37.5t-4.5 -22t-1.5 -11.5q0 -37 19 -61t69 -24q40 0 66.5 21.5t38.5 60.5h132q-13 -48 -33 -85t-49.5 -62t-70 -38t-94.5 -13q-47 0 -85 14t-65 40t-41.5 61.5t-14.5 79.5
q0 11 2 26.5t5 33t7 35t7 31.5q12 54 31.5 94.5t49.5 68.5t72 42t99 14q46 0 84 -14t65 -39.5t42 -61.5t15 -79v-4zM174 0h111l-38 -158h-130z" />
    <glyph glyph-name="egrave" unicode="&#xe8;" horiz-adv-x="546" 
d="M166 214q-3 -17 -3 -23q0 -37 19 -61t69 -24q34 0 58.5 15.5t38.5 44.5h133q-14 -43 -33.5 -76t-48.5 -55t-68 -33.5t-90 -11.5q-47 0 -85 14t-65 40t-41.5 61.5t-14.5 79.5q0 11 2 26.5t5 33t7 35t7 31.5q12 54 31.5 94.5t49.5 68.5t72 42t99 14q46 0 84 -14t65 -40
t42 -62t15 -79q0 -11 -2 -26t-5 -31.5t-6.5 -33t-6.5 -30.5h-328zM386 329q0 37 -19 61t-69 24q-43 0 -70.5 -25t-38.5 -69h197v9zM378 700l33 -129h-109l-91 129h167z" />
    <glyph glyph-name="eacute" unicode="&#xe9;" horiz-adv-x="546" 
d="M166 214q-3 -17 -3 -23q0 -37 19 -61t69 -24q34 0 58.5 15.5t38.5 44.5h133q-14 -43 -33.5 -76t-48.5 -55t-68 -33.5t-90 -11.5q-47 0 -85 14t-65 40t-41.5 61.5t-14.5 79.5q0 11 2 26.5t5 33t7 35t7 31.5q12 54 31.5 94.5t49.5 68.5t72 42t99 14q46 0 84 -14t65 -40
t42 -62t15 -79q0 -11 -2 -26t-5 -31.5t-6.5 -33t-6.5 -30.5h-328zM386 329q0 37 -19 61t-69 24q-43 0 -70.5 -25t-38.5 -69h197v9zM497 700l-118 -129h-114l60 129h172z" />
    <glyph glyph-name="ecircumflex" unicode="&#xea;" horiz-adv-x="546" 
d="M166 214q-3 -17 -3 -23q0 -37 19 -61t69 -24q34 0 58.5 15.5t38.5 44.5h133q-14 -43 -33.5 -76t-48.5 -55t-68 -33.5t-90 -11.5q-47 0 -85 14t-65 40t-41.5 61.5t-14.5 79.5q0 11 2 26.5t5 33t7 35t7 31.5q12 54 31.5 94.5t49.5 68.5t72 42t99 14q46 0 84 -14t65 -40
t42 -62t15 -79q0 -11 -2 -26t-5 -31.5t-6.5 -33t-6.5 -30.5h-328zM386 329q0 37 -19 61t-69 24q-43 0 -70.5 -25t-38.5 -69h197v9zM527 571h-128l-39 45l-58 -45h-147l153 129h120z" />
    <glyph glyph-name="edieresis" unicode="&#xeb;" horiz-adv-x="546" 
d="M166 214q-3 -17 -3 -23q0 -37 19 -61t69 -24q34 0 58.5 15.5t38.5 44.5h133q-14 -43 -33.5 -76t-48.5 -55t-68 -33.5t-90 -11.5q-47 0 -85 14t-65 40t-41.5 61.5t-14.5 79.5q0 11 2 26.5t5 33t7 35t7 31.5q12 54 31.5 94.5t49.5 68.5t72 42t99 14q46 0 84 -14t65 -40
t42 -62t15 -79q0 -11 -2 -26t-5 -31.5t-6.5 -33t-6.5 -30.5h-328zM386 329q0 37 -19 61t-69 24q-43 0 -70.5 -25t-38.5 -69h197v9zM309 577h-132l25 117h132zM505 577h-132l25 117h132z" />
    <glyph glyph-name="igrave" unicode="&#xec;" horiz-adv-x="252" 
d="M137 0h-132l110 516h132zM230 700l33 -129h-109l-91 129h167z" />
    <glyph glyph-name="iacute" unicode="&#xed;" horiz-adv-x="252" 
d="M137 0h-132l110 516h132zM348 700l-118 -129h-114l60 129h172z" />
    <glyph glyph-name="icircumflex" unicode="&#xee;" horiz-adv-x="312" 
d="M167 0h-132l110 516h132zM409 571h-128l-39 45l-58 -45h-147l153 129h120z" />
    <glyph glyph-name="idieresis" unicode="&#xef;" horiz-adv-x="292" 
d="M157 0h-132l110 516h132zM183 577h-132l25 117h132zM379 577h-132l25 117h132z" />
    <glyph glyph-name="eth" unicode="&#xf0;" horiz-adv-x="549" 
d="M493 209q-12 -54 -31.5 -94.5t-49.5 -68.5t-72 -42t-99 -14q-47 0 -85 14t-65 40t-41.5 61.5t-14.5 79.5q0 11 2 26.5t5 33t7 35t7 31.5q12 52 30.5 92t46.5 67.5t68 42.5t94 17l-18 35h-142l17 80h83l-28 55h145l28 -55h107l-17 -80h-49l59 -114q6 -13 12.5 -25
t11 -25.5t7.5 -29t3 -36.5q0 -11 -2 -26.5t-5 -33t-7 -35t-7 -31.5zM189 318q-3 -15 -7.5 -35t-8.5 -39.5t-7 -35.5t-3 -23q0 -33 20 -56t68 -23q44 0 71.5 25t37.5 71q3 15 7.5 35t8.5 39.5t7 35.5t3 23q0 33 -20 56t-68 23q-44 0 -71 -25t-38 -71z" />
    <glyph glyph-name="ntilde" unicode="&#xf1;" horiz-adv-x="573" 
d="M465 0h-132l44 205q7 33 12 55t8 35.5t4 20t1 10.5q0 37 -19 61t-69 24q-44 0 -71.5 -25t-37.5 -71l-68 -315h-132l110 516h132l-11 -49q4 8 14 19t25 20.5t35 16.5t45 7q48 0 81.5 -17.5t54 -45.5t29.5 -62.5t9 -68.5q0 -12 -2 -29.5t-5 -36.5t-7 -37.5t-7 -33.5z
M191 572q5 26 14.5 49.5t24.5 41.5t34.5 28.5t45.5 10.5q18 0 31 -3.5t30 -11.5l27 -13q5 -2 10.5 -3.5t13.5 -1.5t17.5 7t14.5 24h98q-5 -26 -14.5 -49.5t-24.5 -41.5t-35 -28.5t-45 -10.5q-18 0 -31 3.5t-30 11.5l-27 13q-5 2 -10.5 3.5t-13.5 1.5t-17.5 -7t-15.5 -24h-97
z" />
    <glyph glyph-name="ograve" unicode="&#xf2;" horiz-adv-x="549" 
d="M493 209q-12 -54 -31.5 -94.5t-49.5 -68.5t-72 -42t-99 -14q-47 0 -85 14t-65 40t-41.5 61.5t-14.5 79.5q0 11 2 26.5t5 33t7 35t7 31.5q12 54 31.5 94.5t49.5 68.5t72 42t99 14q46 0 84 -14t65 -40t42 -62t15 -79q0 -11 -2 -26.5t-5 -33t-7 -35t-7 -31.5zM189 318
q-3 -15 -7.5 -35t-8.5 -39.5t-7 -35.5t-3 -23q0 -33 20 -56t68 -23q44 0 71.5 25t37.5 71q3 15 7.5 35t8.5 39.5t7 35.5t3 23q0 33 -20 56t-68 23q-44 0 -71 -25t-38 -71zM377 700l33 -129h-109l-91 129h167z" />
    <glyph glyph-name="oacute" unicode="&#xf3;" horiz-adv-x="549" 
d="M493 209q-12 -54 -31.5 -94.5t-49.5 -68.5t-72 -42t-99 -14q-47 0 -85 14t-65 40t-41.5 61.5t-14.5 79.5q0 11 2 26.5t5 33t7 35t7 31.5q12 54 31.5 94.5t49.5 68.5t72 42t99 14q46 0 84 -14t65 -40t42 -62t15 -79q0 -11 -2 -26.5t-5 -33t-7 -35t-7 -31.5zM189 318
q-3 -15 -7.5 -35t-8.5 -39.5t-7 -35.5t-3 -23q0 -33 20 -56t68 -23q44 0 71.5 25t37.5 71q3 15 7.5 35t8.5 39.5t7 35.5t3 23q0 33 -20 56t-68 23q-44 0 -71 -25t-38 -71zM496 700l-118 -129h-114l60 129h172z" />
    <glyph glyph-name="ocircumflex" unicode="&#xf4;" horiz-adv-x="549" 
d="M493 209q-12 -54 -31.5 -94.5t-49.5 -68.5t-72 -42t-99 -14q-47 0 -85 14t-65 40t-41.5 61.5t-14.5 79.5q0 11 2 26.5t5 33t7 35t7 31.5q12 54 31.5 94.5t49.5 68.5t72 42t99 14q46 0 84 -14t65 -40t42 -62t15 -79q0 -11 -2 -26.5t-5 -33t-7 -35t-7 -31.5zM189 318
q-3 -15 -7.5 -35t-8.5 -39.5t-7 -35.5t-3 -23q0 -33 20 -56t68 -23q44 0 71.5 25t37.5 71q3 15 7.5 35t8.5 39.5t7 35.5t3 23q0 33 -20 56t-68 23q-44 0 -71 -25t-38 -71zM527 571h-128l-39 45l-58 -45h-147l153 129h120z" />
    <glyph glyph-name="otilde" unicode="&#xf5;" horiz-adv-x="549" 
d="M493 209q-12 -54 -31.5 -94.5t-49.5 -68.5t-72 -42t-99 -14q-47 0 -85 14t-65 40t-41.5 61.5t-14.5 79.5q0 11 2 26.5t5 33t7 35t7 31.5q12 54 31.5 94.5t49.5 68.5t72 42t99 14q46 0 84 -14t65 -40t42 -62t15 -79q0 -11 -2 -26.5t-5 -33t-7 -35t-7 -31.5zM189 318
q-3 -15 -7.5 -35t-8.5 -39.5t-7 -35.5t-3 -23q0 -33 20 -56t68 -23q44 0 71.5 25t37.5 71q3 15 7.5 35t8.5 39.5t7 35.5t3 23q0 33 -20 56t-68 23q-44 0 -71 -25t-38 -71zM175 572q5 26 14.5 49.5t24.5 41.5t34.5 28.5t45.5 10.5q18 0 31 -3.5t30 -11.5l27 -13
q5 -2 10.5 -3.5t13.5 -1.5t17.5 7t14.5 24h98q-5 -26 -14.5 -49.5t-24.5 -41.5t-35 -28.5t-45 -10.5q-18 0 -31 3.5t-30 11.5l-27 13q-5 2 -10.5 3.5t-13.5 1.5t-17.5 -7t-15.5 -24h-97z" />
    <glyph glyph-name="odieresis" unicode="&#xf6;" horiz-adv-x="549" 
d="M493 209q-12 -54 -31.5 -94.5t-49.5 -68.5t-72 -42t-99 -14q-47 0 -85 14t-65 40t-41.5 61.5t-14.5 79.5q0 11 2 26.5t5 33t7 35t7 31.5q12 54 31.5 94.5t49.5 68.5t72 42t99 14q46 0 84 -14t65 -40t42 -62t15 -79q0 -11 -2 -26.5t-5 -33t-7 -35t-7 -31.5zM189 318
q-3 -15 -7.5 -35t-8.5 -39.5t-7 -35.5t-3 -23q0 -33 20 -56t68 -23q44 0 71.5 25t37.5 71q3 15 7.5 35t8.5 39.5t7 35.5t3 23q0 33 -20 56t-68 23q-44 0 -71 -25t-38 -71zM310 577h-132l25 117h132zM506 577h-132l25 117h132z" />
    <glyph glyph-name="divide" unicode="&#xf7;" 
d="M209 449q0 30 21.5 51t51.5 21t51 -21t21 -51t-21 -51.5t-51 -21.5t-51.5 21.5t-21.5 51.5zM209 102q0 30 21.5 51t51.5 21t51 -21t21 -51t-21 -51.5t-51 -21.5t-51.5 21.5t-21.5 51.5zM512 335v-120h-460v120h460z" />
    <glyph glyph-name="oslash" unicode="&#xf8;" horiz-adv-x="555" 
d="M496 209q-12 -54 -31.5 -94.5t-49.5 -68.5t-72 -42t-99 -14q-77 0 -129 37l-63 -69l-61 46l72 79q-25 45 -25 102q0 11 2 26.5t5 33t7 35t7 31.5q12 54 31.5 94.5t49.5 68.5t72 42t99 14q38 0 70.5 -10t58.5 -28l64 70l61 -46l-74 -80q26 -44 26 -101q0 -11 -2 -26.5
t-5 -33t-7 -35t-7 -31.5zM192 318q-3 -13 -7 -30t-7.5 -34.5t-7 -33t-4.5 -25.5l190 206q-23 13 -55 13q-44 0 -71 -25t-38 -71zM363 202q3 13 6.5 29.5t7 33.5t6.5 32t5 26l-189 -205q21 -12 55 -12q44 0 71.5 25t37.5 71z" />
    <glyph glyph-name="ugrave" unicode="&#xf9;" horiz-adv-x="568" 
d="M259 109q41 0 68 25.5t37 70.5l67 311h132l-110 -516h-132l12 53q-4 -7 -14 -18t-25 -21t-35.5 -17t-44.5 -7q-44 0 -75.5 16.5t-52.5 43.5t-31 60.5t-10 68.5q0 13 1.5 29.5t4.5 34.5t6.5 35.5l6.5 32.5l44 205h132l-43 -201q-4 -18 -8.5 -37.5t-8 -36.5t-5.5 -29.5
t-2 -17.5q0 -36 19 -60.5t67 -24.5zM385 700l33 -129h-109l-91 129h167z" />
    <glyph glyph-name="uacute" unicode="&#xfa;" horiz-adv-x="568" 
d="M259 109q41 0 68 25.5t37 70.5l67 311h132l-110 -516h-132l12 53q-4 -7 -14 -18t-25 -21t-35.5 -17t-44.5 -7q-44 0 -75.5 16.5t-52.5 43.5t-31 60.5t-10 68.5q0 13 1.5 29.5t4.5 34.5t6.5 35.5l6.5 32.5l44 205h132l-43 -201q-4 -18 -8.5 -37.5t-8 -36.5t-5.5 -29.5
t-2 -17.5q0 -36 19 -60.5t67 -24.5zM503 700l-118 -129h-114l60 129h172z" />
    <glyph glyph-name="ucircumflex" unicode="&#xfb;" horiz-adv-x="568" 
d="M259 109q41 0 68 25.5t37 70.5l67 311h132l-110 -516h-132l12 53q-4 -7 -14 -18t-25 -21t-35.5 -17t-44.5 -7q-44 0 -75.5 16.5t-52.5 43.5t-31 60.5t-10 68.5q0 13 1.5 29.5t4.5 34.5t6.5 35.5l6.5 32.5l44 205h132l-43 -201q-4 -18 -8.5 -37.5t-8 -36.5t-5.5 -29.5
t-2 -17.5q0 -36 19 -60.5t67 -24.5zM534 571h-128l-39 45l-58 -45h-147l153 129h120z" />
    <glyph glyph-name="udieresis" unicode="&#xfc;" horiz-adv-x="568" 
d="M259 109q41 0 68 25.5t37 70.5l67 311h132l-110 -516h-132l12 53q-4 -7 -14 -18t-25 -21t-35.5 -17t-44.5 -7q-44 0 -75.5 16.5t-52.5 43.5t-31 60.5t-10 68.5q0 13 1.5 29.5t4.5 34.5t6.5 35.5l6.5 32.5l44 205h132l-43 -201q-4 -18 -8.5 -37.5t-8 -36.5t-5.5 -29.5
t-2 -17.5q0 -36 19 -60.5t67 -24.5zM316 577h-132l25 117h132zM512 577h-132l25 117h132z" />
    <glyph glyph-name="yacute" unicode="&#xfd;" horiz-adv-x="491" 
d="M46 516h132l43 -325l182 325h151l-323 -565q-17 -29 -30.5 -54t-30 -43t-39.5 -28t-57 -10h-97l23 116h55q18 0 26.5 7.5t13.5 15.5l27 49zM467 700l-118 -129h-114l60 129h172z" />
    <glyph glyph-name="thorn" unicode="&#xfe;" horiz-adv-x="564" 
d="M236 467q4 8 14 19t24.5 20.5t34.5 16.5t45 7q45 0 77.5 -17.5t54 -45.5t32 -62.5t10.5 -68.5q0 -12 -2 -29.5t-5.5 -36.5t-7 -37.5t-6.5 -33.5q-23 -108 -76 -158.5t-144 -50.5q-51 0 -85 21t-51 53l-53 -248h-132l188 884h132zM204 315q-7 -33 -11.5 -55t-7.5 -35.5
t-4 -20t-1 -10.5q0 -37 19 -61t69 -24q44 0 71.5 25t37.5 71q7 33 11.5 55t7.5 35.5t4 20t1 10.5q0 37 -19 61t-69 24q-44 0 -71.5 -25t-37.5 -71z" />
    <glyph glyph-name="ydieresis" unicode="&#xff;" horiz-adv-x="491" 
d="M46 516h132l43 -325l182 325h151l-323 -565q-17 -29 -30.5 -54t-30 -43t-39.5 -28t-57 -10h-97l23 116h55q18 0 26.5 7.5t13.5 15.5l27 49zM281 577h-132l25 117h132zM477 577h-132l25 117h132z" />
    <glyph glyph-name="Abreve" unicode="&#x102;" horiz-adv-x="625" 
d="M373 495l-130 -229h163zM172 142l-81 -142h-147l398 700h128l101 -700h-127l-21 142h-251zM484 830q10 0 18.5 7t10.5 17h101q-5 -23 -18 -43t-31 -34.5t-39.5 -23t-44.5 -8.5h-132q-23 0 -41 8.5t-30 23t-16.5 34.5t0.5 43h89q-2 -10 3.5 -17t15.5 -7h114v0z" />
    <glyph glyph-name="Amacron" unicode="&#x100;" horiz-adv-x="625" 
d="M373 495l-130 -229h163zM172 142l-81 -142h-147l398 700h128l101 -700h-127l-21 142h-251zM610 853l-23 -106h-341l23 106h341z" />
    <glyph glyph-name="Aogonek" unicode="&#x104;" horiz-adv-x="625" 
d="M423 142h-251l-81 -142h-147l398 700h128l101 -700q-42 -25 -69.5 -42.5t-27.5 -36.5q0 -15 23 -15q15 0 31 5t26 10l-20 -92q-14 -8 -36.5 -13t-48.5 -5q-21 0 -41.5 5.5t-37 16.5t-27 27.5t-10.5 38.5q0 35 31 61t80 40zM373 495l-130 -229h163z" />
    <glyph glyph-name="Cacute" unicode="&#x106;" horiz-adv-x="605" 
d="M480 466q2 9 2 12v5q0 48 -29.5 72.5t-85.5 24.5q-55 0 -94.5 -32.5t-53.5 -93.5q-1 -6 -5 -24t-9.5 -42t-11.5 -51.5t-11 -52t-8 -43t-3 -24.5q0 -48 29.5 -72.5t85.5 -24.5q52 0 90.5 29.5t54.5 84.5h135q-13 -55 -34 -100t-55.5 -77t-85 -49.5t-122.5 -17.5
q-56 0 -99.5 16.5t-73 44.5t-44.5 65t-15 78q0 18 6 54t14 75.5t15.5 75t11.5 52.5q12 58 33 106t55.5 82t86 52.5t125.5 18.5q56 0 99.5 -16.5t73 -44.5t44.5 -65t15 -78q0 -8 -1 -18t-3 -22h-132zM576 854l-128 -109h-121l75 109h174z" />
    <glyph glyph-name="Ccaron" unicode="&#x10c;" horiz-adv-x="605" 
d="M480 466q2 9 2 12v5q0 48 -29.5 72.5t-85.5 24.5q-55 0 -94.5 -32.5t-53.5 -93.5q-1 -6 -5 -24t-9.5 -42t-11.5 -51.5t-11 -52t-8 -43t-3 -24.5q0 -48 29.5 -72.5t85.5 -24.5q52 0 90.5 29.5t54.5 84.5h135q-13 -55 -34 -100t-55.5 -77t-85 -49.5t-122.5 -17.5
q-56 0 -99.5 16.5t-73 44.5t-44.5 65t-15 78q0 18 6 54t14 75.5t15.5 75t11.5 52.5q12 58 33 106t55.5 82t86 52.5t125.5 18.5q56 0 99.5 -16.5t73 -44.5t44.5 -65t15 -78q0 -8 -1 -18t-3 -22h-132zM416 819l51 35h152l-154 -109h-110l-108 109h132z" />
    <glyph glyph-name="Ccircumflex" unicode="&#x108;" horiz-adv-x="605" 
d="M480 466q2 9 2 12v5q0 48 -29.5 72.5t-85.5 24.5q-55 0 -94.5 -32.5t-53.5 -93.5q-1 -6 -5 -24t-9.5 -42t-11.5 -51.5t-11 -52t-8 -43t-3 -24.5q0 -48 29.5 -72.5t85.5 -24.5q52 0 90.5 29.5t54.5 84.5h135q-13 -55 -34 -100t-55.5 -77t-85 -49.5t-122.5 -17.5
q-56 0 -99.5 16.5t-73 44.5t-44.5 65t-15 78q0 18 6 54t14 75.5t15.5 75t11.5 52.5q12 58 33 106t55.5 82t86 52.5t125.5 18.5q56 0 99.5 -16.5t73 -44.5t44.5 -65t15 -78q0 -8 -1 -18t-3 -22h-132zM426 780l-51 -35h-152l154 109h110l108 -109h-132z" />
    <glyph glyph-name="Cdotaccent" unicode="&#x10a;" horiz-adv-x="605" 
d="M480 466q2 9 2 12v5q0 48 -29.5 72.5t-85.5 24.5q-55 0 -94.5 -32.5t-53.5 -93.5q-1 -6 -5 -24t-9.5 -42t-11.5 -51.5t-11 -52t-8 -43t-3 -24.5q0 -48 29.5 -72.5t85.5 -24.5q52 0 90.5 29.5t54.5 84.5h135q-13 -55 -34 -100t-55.5 -77t-85 -49.5t-122.5 -17.5
q-56 0 -99.5 16.5t-73 44.5t-44.5 65t-15 78q0 18 6 54t14 75.5t15.5 75t11.5 52.5q12 58 33 106t55.5 82t86 52.5t125.5 18.5q56 0 99.5 -16.5t73 -44.5t44.5 -65t15 -78q0 -8 -1 -18t-3 -22h-132zM477 741h-134l25 117h134z" />
    <glyph glyph-name="Dcaron" unicode="&#x10e;" horiz-adv-x="636" 
d="M10 0l148 700h245q56 0 99.5 -16.5t73 -44.5t44.5 -65t15 -78q0 -18 -5.5 -51t-12.5 -68.5t-14 -68t-11 -49.5q-12 -58 -33 -106t-55.5 -82t-86 -52.5t-125.5 -18.5h-282zM309 130q55 0 94.5 32.5t53.5 93.5q1 6 5 22.5t9 38.5t10 46.5t9.5 46.5t7.5 39t3 24
q0 48 -29.5 72.5t-85.5 24.5h-122l-94 -440h139zM402 819l51 35h152l-154 -109h-110l-108 109h132z" />
    <glyph glyph-name="Dcroat" unicode="&#x110;" horiz-adv-x="647" 
d="M21 0l64 303h-70l19 90h70l65 307h245q56 0 99.5 -16.5t73 -44.5t44.5 -65t15 -78q0 -18 -5.5 -51t-12.5 -68.5t-14 -68t-11 -49.5q-12 -58 -33 -106t-55.5 -82t-86 -52.5t-125.5 -18.5h-282zM320 130q55 0 94.5 32.5t53.5 93.5q1 6 5 22.5t9 38.5t10 46.5t9.5 46.5
t7.5 39t3 24q0 48 -29.5 72.5t-85.5 24.5h-122l-38 -177h130l-19 -90h-130l-37 -173h139z" />
    <glyph glyph-name="Ebreve" unicode="&#x114;" horiz-adv-x="539" 
d="M232 419h292l-28 -130h-292l-34 -159h292l-27 -130h-425l148 700h425l-28 -130h-291zM449 830q10 0 18.5 7t10.5 17h101q-5 -23 -18 -43t-31 -34.5t-39.5 -23t-44.5 -8.5h-132q-23 0 -41 8.5t-30 23t-16.5 34.5t0.5 43h89q-2 -10 3.5 -17t15.5 -7h114v0z" />
    <glyph glyph-name="Ecaron" unicode="&#x11a;" horiz-adv-x="539" 
d="M232 419h292l-28 -130h-292l-34 -159h292l-27 -130h-425l148 700h425l-28 -130h-291zM225 884h128l39 -45l58 45h147l-153 -129h-120z" />
    <glyph glyph-name="Emacron" unicode="&#x112;" horiz-adv-x="539" 
d="M232 419h292l-28 -130h-292l-34 -159h292l-27 -130h-425l148 700h425l-28 -130h-291zM575 853l-23 -106h-341l23 106h341z" />
    <glyph glyph-name="Eogonek" unicode="&#x118;" horiz-adv-x="539" 
d="M232 419h292l-28 -130h-292l-34 -159h292l-27 -130h-425l148 700h425l-28 -130h-291zM435 0q-42 -25 -69.5 -42.5t-27.5 -36.5q0 -15 23 -15q15 0 31 5t26 10l-20 -92q-14 -8 -36.5 -13t-48.5 -5q-21 0 -41.5 5.5t-37 16.5t-27 27.5t-10.5 38.5q0 35 30 60.5t78 40.5h130
z" />
    <glyph glyph-name="Edotaccent" unicode="&#x116;" horiz-adv-x="539" 
d="M232 419h292l-28 -130h-292l-34 -159h292l-27 -130h-425l148 700h425l-28 -130h-291zM447 741h-134l25 117h134z" />
    <glyph glyph-name="Gbreve" unicode="&#x11e;" horiz-adv-x="613" 
d="M308 269l28 130h264q-8 -45 -17.5 -87.5t-14.5 -62.5q-13 -58 -33.5 -106t-55 -82t-86 -52.5t-125.5 -18.5q-56 0 -99.5 16.5t-73 44.5t-44.5 65t-15 78q0 18 6 54t14 75.5t15.5 75t11.5 52.5q12 58 33 106t55.5 82t86 52.5t125.5 18.5q56 0 99.5 -16.5t73 -44.5
t44.5 -65t15 -78q0 -5 -0.5 -12t-1.5 -15h-132v4q0 48 -29.5 72.5t-85.5 24.5q-55 0 -94.5 -32.5t-53.5 -93.5q-1 -6 -5 -24t-9.5 -42t-11.5 -51.5t-11 -52t-8 -43t-3 -24.5q0 -48 29.5 -72.5t85.5 -24.5q55 0 94.5 32.5t53.5 93.5l5 23h-130zM478 830q10 0 18.5 7t10.5 17
h101q-5 -23 -18 -43t-31 -34.5t-39.5 -23t-44.5 -8.5h-132q-23 0 -41 8.5t-30 23t-16.5 34.5t0.5 43h89q-2 -10 3.5 -17t15.5 -7h114v0z" />
    <glyph glyph-name="Gcircumflex" unicode="&#x11c;" horiz-adv-x="613" 
d="M308 269l28 130h264q-8 -45 -17.5 -87.5t-14.5 -62.5q-13 -58 -33.5 -106t-55 -82t-86 -52.5t-125.5 -18.5q-56 0 -99.5 16.5t-73 44.5t-44.5 65t-15 78q0 18 6 54t14 75.5t15.5 75t11.5 52.5q12 58 33 106t55.5 82t86 52.5t125.5 18.5q56 0 99.5 -16.5t73 -44.5
t44.5 -65t15 -78q0 -5 -0.5 -12t-1.5 -15h-132v4q0 48 -29.5 72.5t-85.5 24.5q-55 0 -94.5 -32.5t-53.5 -93.5q-1 -6 -5 -24t-9.5 -42t-11.5 -51.5t-11 -52t-8 -43t-3 -24.5q0 -48 29.5 -72.5t85.5 -24.5q55 0 94.5 32.5t53.5 93.5l5 23h-130zM426 780l-51 -35h-152l154 109
h110l108 -109h-132z" />
    <glyph glyph-name="Gcommaaccent" unicode="&#x122;" horiz-adv-x="613" 
d="M308 269l28 130h264q-8 -45 -17.5 -87.5t-14.5 -62.5q-13 -58 -33.5 -106t-55 -82t-86 -52.5t-125.5 -18.5q-56 0 -99.5 16.5t-73 44.5t-44.5 65t-15 78q0 18 6 54t14 75.5t15.5 75t11.5 52.5q12 58 33 106t55.5 82t86 52.5t125.5 18.5q56 0 99.5 -16.5t73 -44.5
t44.5 -65t15 -78q0 -5 -0.5 -12t-1.5 -15h-132v4q0 48 -29.5 72.5t-85.5 24.5q-55 0 -94.5 -32.5t-53.5 -93.5q-1 -6 -5 -24t-9.5 -42t-11.5 -51.5t-11 -52t-8 -43t-3 -24.5q0 -48 29.5 -72.5t85.5 -24.5q55 0 94.5 32.5t53.5 93.5l5 23h-130zM166 -50h150l-31 -150
l-55 -104h-94l55 104h-56z" />
    <glyph glyph-name="Gdotaccent" unicode="&#x120;" horiz-adv-x="613" 
d="M308 269l28 130h264q-8 -45 -17.5 -87.5t-14.5 -62.5q-13 -58 -33.5 -106t-55 -82t-86 -52.5t-125.5 -18.5q-56 0 -99.5 16.5t-73 44.5t-44.5 65t-15 78q0 18 6 54t14 75.5t15.5 75t11.5 52.5q12 58 33 106t55.5 82t86 52.5t125.5 18.5q56 0 99.5 -16.5t73 -44.5
t44.5 -65t15 -78q0 -5 -0.5 -12t-1.5 -15h-132v4q0 48 -29.5 72.5t-85.5 24.5q-55 0 -94.5 -32.5t-53.5 -93.5q-1 -6 -5 -24t-9.5 -42t-11.5 -51.5t-11 -52t-8 -43t-3 -24.5q0 -48 29.5 -72.5t85.5 -24.5q55 0 94.5 32.5t53.5 93.5l5 23h-130zM476 741h-134l25 117h134z" />
    <glyph glyph-name="Hbar" unicode="&#x126;" horiz-adv-x="658" 
d="M271 605h262l20 95h133l-148 -700h-133l61 289h-262l-61 -289h-133l148 700h133zM514 515h-262l-20 -96h262z" />
    <glyph glyph-name="Hcircumflex" unicode="&#x124;" horiz-adv-x="658" 
d="M553 700h133l-148 -700h-133l61 289h-262l-61 -289h-133l148 700h133l-59 -281h262zM448 780l-51 -35h-152l154 109h110l108 -109h-132z" />
    <glyph glyph-name="Ibreve" unicode="&#x12c;" horiz-adv-x="263" 
d="M143 0h-133l148 700h133zM304 830q10 0 18.5 7t10.5 17h101q-5 -23 -18 -43t-31 -34.5t-39.5 -23t-44.5 -8.5h-132q-23 0 -41 8.5t-30 23t-16.5 34.5t0.5 43h89q-2 -10 3.5 -17t15.5 -7h114v0z" />
    <glyph glyph-name="Idotaccent" unicode="&#x130;" horiz-adv-x="263" 
d="M143 0h-133l148 700h133zM301 741h-134l25 117h134z" />
    <glyph glyph-name="Imacron" unicode="&#x12a;" horiz-adv-x="263" 
d="M143 0h-133l148 700h133zM434 872l-23 -104h-341l23 104h341z" />
    <glyph glyph-name="Iogonek" unicode="&#x12e;" horiz-adv-x="263" 
d="M158 700h133l-148 -700q-42 -25 -69.5 -42.5t-27.5 -36.5q0 -15 23 -15q15 0 31 5t26 10l-20 -92q-14 -8 -36.5 -13t-48.5 -5q-21 0 -41.5 5.5t-37 16.5t-27 27.5t-10.5 38.5q0 35 28.5 60.5t76.5 40.5z" />
    <glyph glyph-name="Itilde" unicode="&#x128;" horiz-adv-x="263" 
d="M143 0h-133l148 700h133zM429 864q-5 -26 -14.5 -49.5t-24.5 -41.5t-35 -28.5t-45 -10.5q-18 0 -31 3t-30 11l-27 13q-9 4 -18 4q-21 0 -32 -29h-104q5 26 14.5 49.5t24.5 41.5t34.5 28.5t45.5 10.5q18 0 31 -3t30 -11l27 -13q9 -4 18 -4q21 0 32 29h104z" />
    <glyph glyph-name="uni1ECA" unicode="&#x1eca;" horiz-adv-x="263" 
d="M143 0h-133l148 700h133zM110 -166h-134l25 117h134z" />
    <glyph glyph-name="Jcircumflex" unicode="&#x134;" horiz-adv-x="470" 
d="M375 700h133l-106 -500q-11 -52 -26.5 -91.5t-40.5 -65.5t-63 -39.5t-95 -13.5q-38 0 -72 12.5t-59.5 35.5t-40.5 55.5t-15 71.5v15t2 20h133q-1 -5 -1 -15q0 -31 18 -49t47 -18q39 0 56 25.5t25 60.5zM467 780l-51 -35h-152l154 109h110l108 -109h-132z" />
    <glyph glyph-name="Kcommaaccent" unicode="&#x136;" horiz-adv-x="645" 
d="M143 0h-133l148 700h133l-59 -284l302 284h188l-308 -289l184 -411h-143l-141 316l-130 -119zM195 -50h150l-31 -150l-55 -104h-94l55 104h-56z" />
    <glyph glyph-name="Lacute" unicode="&#x139;" horiz-adv-x="491" 
d="M170 130h292l-27 -130h-425l148 700h134zM401 854l-128 -109h-121l75 109h174z" />
    <glyph glyph-name="Lcaron" unicode="&#x13d;" horiz-adv-x="491" 
d="M456 542h-116l61 158h169zM170 130h292l-27 -130h-425l148 700h134z" />
    <glyph glyph-name="Lcommaaccent" unicode="&#x13b;" horiz-adv-x="491" 
d="M170 130h292l-27 -130h-425l148 700h134zM138 -50h150l-31 -150l-55 -104h-94l55 104h-56z" />
    <glyph glyph-name="Ldot" unicode="&#x13f;" horiz-adv-x="491" 
d="M170 130h292l-27 -130h-425l148 700h134zM464 359h-134l25 117h134z" />
    <glyph glyph-name="Lslash" unicode="&#x141;" horiz-adv-x="502" 
d="M246 436l145 73l-24 -112l-145 -73l-41 -194h292l-27 -130h-425l53 249l-79 -39l24 112l78 39l72 339h134z" />
    <glyph glyph-name="Eng" unicode="&#x14a;" horiz-adv-x="657" 
d="M537 0q-20 -93 -73 -138.5t-146 -45.5h-82l27 130h63q30 0 48 15.5t29 38.5l-159 475l-101 -475h-133l148 700h134l159 -475l101 475h134z" />
    <glyph glyph-name="Nacute" unicode="&#x143;" horiz-adv-x="657" 
d="M537 0h-134l-159 475l-101 -475h-133l148 700h134l159 -475l101 475h134zM597 854l-128 -109h-121l75 109h174z" />
    <glyph glyph-name="Ncaron" unicode="&#x147;" horiz-adv-x="657" 
d="M537 0h-134l-159 475l-101 -475h-133l148 700h134l159 -475l101 475h134zM437 819l51 35h152l-154 -109h-110l-108 109h132z" />
    <glyph glyph-name="Ncommaaccent" unicode="&#x145;" horiz-adv-x="657" 
d="M537 0h-134l-159 475l-101 -475h-133l148 700h134l159 -475l101 475h134zM188 -50h150l-31 -150l-55 -104h-94l55 104h-56z" />
    <glyph glyph-name="OE" unicode="&#x152;" horiz-adv-x="912" 
d="M605 419h292l-28 -130h-292l-34 -159h292l-27 -130h-425l5 23q-22 -16 -54 -24.5t-65 -8.5q-56 0 -99.5 16.5t-73 44.5t-44.5 65t-15 78q0 18 6 54t14 75.5t15.5 75t11.5 52.5q12 58 33 106t55 82t83.5 52.5t118.5 18.5q32 0 57 -5.5t43 -14t30 -17.5t18 -16l9 43h425
l-28 -130h-291zM219 454q-1 -6 -5 -24t-9.5 -42t-11.5 -51.5t-11 -52t-8 -43t-3 -24.5q0 -48 29.5 -72.5t85.5 -24.5q55 0 94.5 32.5t53.5 93.5q1 6 5 24t9.5 42t11.5 51.5t11 52t8 42.5t3 25q0 48 -29.5 72.5t-85.5 24.5q-55 0 -94.5 -32.5t-53.5 -93.5z" />
    <glyph glyph-name="Obreve" unicode="&#x14e;" horiz-adv-x="615" 
d="M84 451q12 58 33 106t55.5 82t86 52.5t125.5 18.5q56 0 99.5 -16.5t73 -44.5t44.5 -65t15 -78q0 -18 -6 -54t-14 -75.5t-15.5 -75t-11.5 -52.5q-12 -58 -33 -106t-55.5 -82t-86 -52.5t-125.5 -18.5q-56 0 -99.5 16.5t-73 44.5t-44.5 65t-15 78q0 18 6 54t14 75.5t15.5 75
t11.5 52.5zM219 454q-1 -6 -5 -24t-9.5 -42t-11.5 -51.5t-11 -52t-8 -43t-3 -24.5q0 -48 29.5 -72.5t85.5 -24.5q55 0 94.5 32.5t53.5 93.5q1 6 5 24t9.5 42t11.5 51.5t11 52t8 42.5t3 25q0 48 -29.5 72.5t-85.5 24.5q-55 0 -94.5 -32.5t-53.5 -93.5zM479 830q10 0 18.5 7
t10.5 17h101q-5 -23 -18 -43t-31 -34.5t-39.5 -23t-44.5 -8.5h-132q-23 0 -41 8.5t-30 23t-16.5 34.5t0.5 43h89q-2 -10 3.5 -17t15.5 -7h114v0z" />
    <glyph glyph-name="Ohungarumlaut" unicode="&#x150;" horiz-adv-x="615" 
d="M84 451q12 58 33 106t55.5 82t86 52.5t125.5 18.5q56 0 99.5 -16.5t73 -44.5t44.5 -65t15 -78q0 -18 -6 -54t-14 -75.5t-15.5 -75t-11.5 -52.5q-12 -58 -33 -106t-55.5 -82t-86 -52.5t-125.5 -18.5q-56 0 -99.5 16.5t-73 44.5t-44.5 65t-15 78q0 18 6 54t14 75.5t15.5 75
t11.5 52.5zM219 454q-1 -6 -5 -24t-9.5 -42t-11.5 -51.5t-11 -52t-8 -43t-3 -24.5q0 -48 29.5 -72.5t85.5 -24.5q55 0 94.5 32.5t53.5 93.5q1 6 5 24t9.5 42t11.5 51.5t11 52t8 42.5t3 25q0 48 -29.5 72.5t-85.5 24.5q-55 0 -94.5 -32.5t-53.5 -93.5zM482 854l-118 -109
h-116l65 109h169zM674 854l-118 -109h-116l65 109h169z" />
    <glyph glyph-name="Omacron" unicode="&#x14c;" horiz-adv-x="615" 
d="M84 451q12 58 33 106t55.5 82t86 52.5t125.5 18.5q56 0 99.5 -16.5t73 -44.5t44.5 -65t15 -78q0 -18 -6 -54t-14 -75.5t-15.5 -75t-11.5 -52.5q-12 -58 -33 -106t-55.5 -82t-86 -52.5t-125.5 -18.5q-56 0 -99.5 16.5t-73 44.5t-44.5 65t-15 78q0 18 6 54t14 75.5t15.5 75
t11.5 52.5zM219 454q-1 -6 -5 -24t-9.5 -42t-11.5 -51.5t-11 -52t-8 -43t-3 -24.5q0 -48 29.5 -72.5t85.5 -24.5q55 0 94.5 32.5t53.5 93.5q1 6 5 24t9.5 42t11.5 51.5t11 52t8 42.5t3 25q0 48 -29.5 72.5t-85.5 24.5q-55 0 -94.5 -32.5t-53.5 -93.5zM605 853l-23 -106h-341
l23 106h341z" />
    <glyph glyph-name="uni1ECC" unicode="&#x1ecc;" horiz-adv-x="615" 
d="M84 451q12 58 33 106t55.5 82t86 52.5t125.5 18.5q56 0 99.5 -16.5t73 -44.5t44.5 -65t15 -78q0 -18 -6 -54t-14 -75.5t-15.5 -75t-11.5 -52.5q-12 -58 -33 -106t-55.5 -82t-86 -52.5t-125.5 -18.5q-56 0 -99.5 16.5t-73 44.5t-44.5 65t-15 78q0 18 6 54t14 75.5t15.5 75
t11.5 52.5zM219 454q-1 -6 -5 -24t-9.5 -42t-11.5 -51.5t-11 -52t-8 -43t-3 -24.5q0 -48 29.5 -72.5t85.5 -24.5q55 0 94.5 32.5t53.5 93.5q1 6 5 24t9.5 42t11.5 51.5t11 52t8 42.5t3 25q0 48 -29.5 72.5t-85.5 24.5q-55 0 -94.5 -32.5t-53.5 -93.5zM283 -166h-134l25 117
h134z" />
    <glyph glyph-name="Racute" unicode="&#x154;" horiz-adv-x="618" 
d="M635 516q0 -27 -7.5 -62t-29 -67.5t-60 -58t-100.5 -35.5l110 -293h-137l-109 289h-98l-61 -289h-133l148 700h287q50 0 86 -16.5t59 -43t34 -59t11 -65.5zM402 419q45 0 72 25t27 60q0 26 -16 46t-59 20h-162l-32 -151h170zM563 854l-128 -109h-121l75 109h174z" />
    <glyph glyph-name="Rcaron" unicode="&#x158;" horiz-adv-x="618" 
d="M635 516q0 -27 -7.5 -62t-29 -67.5t-60 -58t-100.5 -35.5l110 -293h-137l-109 289h-98l-61 -289h-133l148 700h287q50 0 86 -16.5t59 -43t34 -59t11 -65.5zM402 419q45 0 72 25t27 60q0 26 -16 46t-59 20h-162l-32 -151h170zM402 819l51 35h152l-154 -109h-110l-108 109
h132z" />
    <glyph glyph-name="Rcommaaccent" unicode="&#x156;" horiz-adv-x="618" 
d="M635 516q0 -27 -7.5 -62t-29 -67.5t-60 -58t-100.5 -35.5l110 -293h-137l-109 289h-98l-61 -289h-133l148 700h287q50 0 86 -16.5t59 -43t34 -59t11 -65.5zM402 419q45 0 72 25t27 60q0 26 -16 46t-59 20h-162l-32 -151h170zM174 -50h150l-31 -150l-55 -104h-94l55 104
h-56z" />
    <glyph glyph-name="Sacute" unicode="&#x15a;" horiz-adv-x="541" 
d="M256 -10q-54 0 -98.5 16t-76.5 45t-49.5 70.5t-17.5 91.5v8h134v-7q0 -42 35 -68t88 -26q40 0 69 21t29 60q0 26 -14 49.5t-53 34.5l-86 25q-64 19 -100 66t-36 115q0 114 64 166.5t183 52.5q54 0 95 -17.5t69 -45.5t42.5 -63.5t14.5 -71.5v-10h-135q-7 34 -29.5 56
t-71.5 22t-73.5 -20.5t-24.5 -54.5q0 -29 17.5 -48.5t40.5 -26.5l86 -25q66 -19 105.5 -67t39.5 -115q0 -114 -61 -173.5t-186 -59.5zM536 854l-128 -109h-121l75 109h174z" />
    <glyph glyph-name="Scaron" unicode="&#x160;" horiz-adv-x="541" 
d="M256 -10q-54 0 -98.5 16t-76.5 45t-49.5 70.5t-17.5 91.5v8h134v-7q0 -42 35 -68t88 -26q40 0 69 21t29 60q0 26 -14 49.5t-53 34.5l-86 25q-64 19 -100 66t-36 115q0 114 64 166.5t183 52.5q54 0 95 -17.5t69 -45.5t42.5 -63.5t14.5 -71.5v-10h-135q-7 34 -29.5 56
t-71.5 22t-73.5 -20.5t-24.5 -54.5q0 -29 17.5 -48.5t40.5 -26.5l86 -25q66 -19 105.5 -67t39.5 -115q0 -114 -61 -173.5t-186 -59.5zM376 819l51 35h152l-154 -109h-110l-108 109h132z" />
    <glyph glyph-name="Scedilla" unicode="&#x15e;" horiz-adv-x="541" 
d="M256 -10q-54 0 -98.5 16t-76.5 45t-49.5 70.5t-17.5 91.5v8h134v-7q0 -42 35 -68t88 -26q40 0 69 21t29 60q0 26 -14 49.5t-53 34.5l-86 25q-64 19 -100 66t-36 115q0 114 64 166.5t183 52.5q54 0 95 -17.5t69 -45.5t42.5 -63.5t14.5 -71.5v-10h-135q-7 34 -29.5 56
t-71.5 22t-73.5 -20.5t-24.5 -54.5q0 -29 17.5 -48.5t40.5 -26.5l86 -25q66 -19 105.5 -67t39.5 -115q0 -114 -61 -173.5t-186 -59.5zM190 0h118l-38 -158h-132z" />
    <glyph glyph-name="Scircumflex" unicode="&#x15c;" horiz-adv-x="541" 
d="M256 -10q-54 0 -98.5 16t-76.5 45t-49.5 70.5t-17.5 91.5v8h134v-7q0 -42 35 -68t88 -26q40 0 69 21t29 60q0 26 -14 49.5t-53 34.5l-86 25q-64 19 -100 66t-36 115q0 114 64 166.5t183 52.5q54 0 95 -17.5t69 -45.5t42.5 -63.5t14.5 -71.5v-10h-135q-7 34 -29.5 56
t-71.5 22t-73.5 -20.5t-24.5 -54.5q0 -29 17.5 -48.5t40.5 -26.5l86 -25q66 -19 105.5 -67t39.5 -115q0 -114 -61 -173.5t-186 -59.5zM387 780l-51 -35h-152l154 109h110l108 -109h-132z" />
    <glyph glyph-name="Scommaaccent" unicode="&#x218;" horiz-adv-x="541" 
d="M256 -10q-54 0 -98.5 16t-76.5 45t-49.5 70.5t-17.5 91.5v8h134v-7q0 -42 35 -68t88 -26q40 0 69 21t29 60q0 26 -14 49.5t-53 34.5l-86 25q-64 19 -100 66t-36 115q0 114 64 166.5t183 52.5q54 0 95 -17.5t69 -45.5t42.5 -63.5t14.5 -71.5v-10h-135q-7 34 -29.5 56
t-71.5 22t-73.5 -20.5t-24.5 -54.5q0 -29 17.5 -48.5t40.5 -26.5l86 -25q66 -19 105.5 -67t39.5 -115q0 -114 -61 -173.5t-186 -59.5zM147 -50h150l-31 -150l-55 -104h-94l55 104h-56z" />
    <glyph glyph-name="Tbar" unicode="&#x166;" horiz-adv-x="525" 
d="M396 570l-38 -177h125l-19 -90h-125l-64 -303h-138l64 303h-125l19 90h125l38 177h-195l27 130h529l-28 -130h-195z" />
    <glyph glyph-name="Tcaron" unicode="&#x164;" horiz-adv-x="526" 
d="M398 570l-121 -570h-138l121 570h-195l27 130h529l-28 -130h-195zM372 819l51 35h152l-154 -109h-110l-108 109h132z" />
    <glyph glyph-name="uni0162" unicode="&#x162;" horiz-adv-x="526" 
d="M398 570l-121 -570h-138l121 570h-195l27 130h529l-28 -130h-195zM123 -50h150l-31 -150l-55 -104h-94l55 104h-56z" />
    <glyph glyph-name="Tcommaaccent" unicode="&#x21a;" horiz-adv-x="526" 
d="M398 570l-121 -570h-138l121 570h-195l27 130h529l-28 -130h-195zM123 -50h150l-31 -150l-55 -104h-94l55 104h-56z" />
    <glyph glyph-name="Ubreve" unicode="&#x16c;" horiz-adv-x="639" 
d="M182 217q0 -48 30 -72.5t86 -24.5q55 0 95 32.5t54 93.5q3 13 8.5 40t13 61.5t16 74t16.5 78.5q19 92 42 200h133q-23 -106 -42 -198q-8 -39 -16.5 -78.5t-15.5 -73.5t-12.5 -61t-8.5 -40q-12 -58 -32.5 -106t-55 -82t-86.5 -52.5t-126 -18.5q-56 0 -99.5 16.5t-73 44.5
t-45 65t-15.5 78q0 37 26.5 161t73.5 345h133q-21 -101 -39.5 -185.5t-31.5 -147.5t-20.5 -101.5t-7.5 -48.5zM490 830q10 0 18.5 7t10.5 17h101q-5 -23 -18 -43t-31 -34.5t-39.5 -23t-44.5 -8.5h-132q-23 0 -41 8.5t-30 23t-16.5 34.5t0.5 43h89q-2 -10 3.5 -17t15.5 -7
h114v0z" />
    <glyph glyph-name="Uhungarumlaut" unicode="&#x170;" horiz-adv-x="639" 
d="M182 217q0 -48 30 -72.5t86 -24.5q55 0 95 32.5t54 93.5q3 13 8.5 40t13 61.5t16 74t16.5 78.5q19 92 42 200h133q-23 -106 -42 -198q-8 -39 -16.5 -78.5t-15.5 -73.5t-12.5 -61t-8.5 -40q-12 -58 -32.5 -106t-55 -82t-86.5 -52.5t-126 -18.5q-56 0 -99.5 16.5t-73 44.5
t-45 65t-15.5 78q0 37 26.5 161t73.5 345h133q-21 -101 -39.5 -185.5t-31.5 -147.5t-20.5 -101.5t-7.5 -48.5zM482 854l-118 -109h-116l65 109h169zM674 854l-118 -109h-116l65 109h169z" />
    <glyph glyph-name="Umacron" unicode="&#x16a;" horiz-adv-x="639" 
d="M182 217q0 -48 30 -72.5t86 -24.5q55 0 95 32.5t54 93.5q3 13 8.5 40t13 61.5t16 74t16.5 78.5q19 92 42 200h133q-23 -106 -42 -198q-8 -39 -16.5 -78.5t-15.5 -73.5t-12.5 -61t-8.5 -40q-12 -58 -32.5 -106t-55 -82t-86.5 -52.5t-126 -18.5q-56 0 -99.5 16.5t-73 44.5
t-45 65t-15.5 78q0 37 26.5 161t73.5 345h133q-21 -101 -39.5 -185.5t-31.5 -147.5t-20.5 -101.5t-7.5 -48.5zM616 853l-23 -106h-341l23 106h341z" />
    <glyph glyph-name="Uogonek" unicode="&#x172;" horiz-adv-x="639" 
d="M182 217q0 -48 30 -72.5t86 -24.5q55 0 95 32.5t54 93.5q3 13 8.5 40t13 61.5t16 74t16.5 78.5q19 92 42 200h133q-23 -106 -42 -198q-8 -39 -16.5 -78.5t-15.5 -73.5t-12.5 -61t-8.5 -40q-15 -74 -44.5 -130t-83.5 -89q-20 -12 -45.5 -26t-48 -28t-38 -28t-15.5 -27
q0 -15 23 -15q15 0 31 5t26 10l-20 -92q-14 -8 -36.5 -13t-48.5 -5q-21 0 -41.5 5.5t-37 16.5t-27 27.5t-10.5 38.5q0 31 23 54t61 39q-49 4 -86.5 22t-63 45.5t-38.5 62t-13 72.5q0 37 26.5 161t73.5 345h133q-21 -101 -39.5 -185.5t-31.5 -147.5t-20.5 -101.5t-7.5 -48.5z
" />
    <glyph glyph-name="Uring" unicode="&#x16e;" horiz-adv-x="639" 
d="M182 217q0 -48 30 -72.5t86 -24.5q55 0 95 32.5t54 93.5q3 13 8.5 40t13 61.5t16 74t16.5 78.5q19 92 42 200h133q-23 -106 -42 -198q-8 -39 -16.5 -78.5t-15.5 -73.5t-12.5 -61t-8.5 -40q-12 -58 -32.5 -106t-55 -82t-86.5 -52.5t-126 -18.5q-56 0 -99.5 16.5t-73 44.5
t-45 65t-15.5 78q0 37 26.5 161t73.5 345h133q-21 -101 -39.5 -185.5t-31.5 -147.5t-20.5 -101.5t-7.5 -48.5zM350 799q0 31 21.5 53t52.5 22t53 -22t22 -53t-22 -52.5t-53 -21.5t-52.5 21.5t-21.5 52.5zM406 799q0 -8 5 -13t13 -5t13 5t5 13t-5 13t-13 5t-13 -5t-5 -13z
" />
    <glyph glyph-name="Utilde" unicode="&#x168;" horiz-adv-x="639" 
d="M182 217q0 -48 30 -72.5t86 -24.5q55 0 95 32.5t54 93.5q3 13 8.5 40t13 61.5t16 74t16.5 78.5q19 92 42 200h133q-23 -106 -42 -198q-8 -39 -16.5 -78.5t-15.5 -73.5t-12.5 -61t-8.5 -40q-12 -58 -32.5 -106t-55 -82t-86.5 -52.5t-126 -18.5q-56 0 -99.5 16.5t-73 44.5
t-45 65t-15.5 78q0 37 26.5 161t73.5 345h133q-21 -101 -39.5 -185.5t-31.5 -147.5t-20.5 -101.5t-7.5 -48.5zM615 864q-5 -26 -14.5 -49.5t-24.5 -41.5t-35 -28.5t-45 -10.5q-18 0 -31 3t-30 11l-27 13q-9 4 -18 4q-21 0 -32 -29h-104q5 26 14.5 49.5t24.5 41.5t34.5 28.5
t45.5 10.5q18 0 31 -3t30 -11l27 -13q9 -4 18 -4q21 0 32 29h104z" />
    <glyph glyph-name="uni1EE4" unicode="&#x1ee4;" horiz-adv-x="639" 
d="M182 217q0 -48 30 -72.5t86 -24.5q55 0 95 32.5t54 93.5q3 13 8.5 40t13 61.5t16 74t16.5 78.5q19 92 42 200h133q-23 -106 -42 -198q-8 -39 -16.5 -78.5t-15.5 -73.5t-12.5 -61t-8.5 -40q-12 -58 -32.5 -106t-55 -82t-86.5 -52.5t-126 -18.5q-56 0 -99.5 16.5t-73 44.5
t-45 65t-15.5 78q0 37 26.5 161t73.5 345h133q-21 -101 -39.5 -185.5t-31.5 -147.5t-20.5 -101.5t-7.5 -48.5zM294 -166h-134l25 117h134z" />
    <glyph glyph-name="Wacute" unicode="&#x1e82;" horiz-adv-x="751" 
d="M408 400l-178 -400h-145l20 700h129l-21 -480l170 380h130l-1 -371l181 471h140l-278 -700h-146zM643 854l-128 -109h-121l75 109h174z" />
    <glyph glyph-name="Wcircumflex" unicode="&#x174;" horiz-adv-x="751" 
d="M409 400l-178 -400h-145l20 700h129l-21 -480l170 380h130l-1 -371l181 471h140l-278 -700h-146zM496 780l-51 -35h-152l154 109h110l108 -109h-132z" />
    <glyph glyph-name="Wdieresis" unicode="&#x1e84;" horiz-adv-x="751" 
d="M409 400l-178 -400h-145l20 700h129l-21 -480l170 380h130l-1 -371l181 471h140l-278 -700h-146zM448 741h-134l25 117h134zM644 741h-134l25 117h134z" />
    <glyph glyph-name="Wgrave" unicode="&#x1e80;" horiz-adv-x="751" 
d="M409 400l-178 -400h-145l20 700h129l-21 -480l170 380h130l-1 -371l181 471h140l-278 -700h-146zM493 854l52 -109h-116l-105 109h169z" />
    <glyph glyph-name="Ycircumflex" unicode="&#x176;" horiz-adv-x="605" 
d="M315 0h-134l54 255l-153 445h138l101 -304l230 304h161l-343 -445zM423 780l-51 -35h-152l154 109h110l108 -109h-132z" />
    <glyph glyph-name="Ydieresis" unicode="&#x178;" horiz-adv-x="605" 
d="M315 0h-134l54 255l-153 445h138l101 -304l230 304h161l-343 -445zM375 741h-134l25 117h134zM571 741h-134l25 117h134z" />
    <glyph glyph-name="Ygrave" unicode="&#x1ef2;" horiz-adv-x="605" 
d="M315 0h-134l54 255l-153 445h138l101 -304l230 304h161l-343 -445zM420 854l52 -109h-116l-105 109h169z" />
    <glyph glyph-name="uni0232" unicode="&#x232;" horiz-adv-x="605" 
d="M315 0h-134l54 255l-153 445h138l101 -304l230 304h161l-343 -445zM601 853l-23 -106h-341l23 106h341z" />
    <glyph glyph-name="Zacute" unicode="&#x179;" horiz-adv-x="583" 
d="M-29 0l27 130l441 440h-342l27 130h522l-27 -130l-441 -440h352l-27 -130h-532zM560 854l-128 -109h-121l75 109h174z" />
    <glyph glyph-name="Zcaron" unicode="&#x17d;" horiz-adv-x="583" 
d="M-29 0l27 130l441 440h-342l27 130h522l-27 -130l-441 -440h352l-27 -130h-532zM400 819l51 35h152l-154 -109h-110l-108 109h132z" />
    <glyph glyph-name="Zdotaccent" unicode="&#x17b;" horiz-adv-x="583" 
d="M-29 0l27 130l441 440h-342l27 130h522l-27 -130l-441 -440h352l-27 -130h-532zM460 741h-134l25 117h134z" />
    <glyph glyph-name="abreve" unicode="&#x103;" horiz-adv-x="555" 
d="M67 354q13 43 33 76t49 55t68 33.5t90 11.5q46 0 84 -14t65 -40t42 -62t15 -79q0 -11 -2 -26.5t-5.5 -33t-7 -34.5t-6.5 -32l-45 -209h-132l12 53q-21 -29 -54 -46t-81 -17q-38 0 -69.5 12t-54 32t-35 47t-12.5 57q0 61 30 101.5t84 58.5q56 19 116.5 24.5t134.5 9.5v4
q0 30 -20 54t-69 24q-33 0 -58 -16t-39 -44h-133zM186 203q-20 -8 -29 -19.5t-9 -31.5q0 -17 15.5 -33t56.5 -16q51 0 90 28.5t50 77.5l3 14q-57 -3 -106.5 -7t-70.5 -13zM300 571q-47 0 -76 29.5t-29 73.5q0 12 3 26h87q-1 -3 -1 -6v-4q0 -11 8 -18.5t22 -7.5h94
q15 0 27.5 10.5t15.5 25.5h99q-6 -27 -21 -50.5t-36 -41t-46.5 -27.5t-52.5 -10h-94v0z" />
    <glyph glyph-name="amacron" unicode="&#x101;" horiz-adv-x="555" 
d="M67 354q13 43 33 76t49 55t68 33.5t90 11.5q46 0 84 -14t65 -40t42 -62t15 -79q0 -11 -2 -26.5t-5.5 -33t-7 -34.5t-6.5 -32l-45 -209h-132l12 53q-21 -29 -54 -46t-81 -17q-38 0 -69.5 12t-54 32t-35 47t-12.5 57q0 61 30 101.5t84 58.5q56 19 116.5 24.5t134.5 9.5v4
q0 30 -20 54t-69 24q-33 0 -58 -16t-39 -44h-133zM186 203q-20 -8 -29 -19.5t-9 -31.5q0 -17 15.5 -33t56.5 -16q51 0 90 28.5t50 77.5l3 14q-57 -3 -106.5 -7t-70.5 -13zM544 688l-23 -104h-341l23 104h341z" />
    <glyph glyph-name="aogonek" unicode="&#x105;" horiz-adv-x="555" 
d="M67 354q13 43 33 76t49 55t68 33.5t90 11.5q46 0 84 -14t65 -40t42 -62t15 -79q0 -11 -2 -26.5t-5.5 -33t-7 -34.5t-6.5 -32l-45 -209h-132l12 53q-21 -29 -54 -46t-81 -17q-38 0 -69.5 12t-54 32t-35 47t-12.5 57q0 61 30 101.5t84 58.5q56 19 116.5 24.5t134.5 9.5v4
q0 30 -20 54t-69 24q-33 0 -58 -16t-39 -44h-133zM186 203q-20 -8 -29 -19.5t-9 -31.5q0 -17 15.5 -33t56.5 -16q51 0 90 28.5t50 77.5l3 14q-57 -3 -106.5 -7t-70.5 -13zM447 0q-42 -25 -70.5 -42.5t-28.5 -36.5q0 -17 25 -17q15 0 31 6t26 11l-20 -92q-14 -8 -36.5 -13
t-48.5 -5q-21 0 -41.5 5.5t-37 16.5t-27 27.5t-10.5 38.5q0 35 29 60.5t77 40.5h132z" />
    <glyph glyph-name="cacute" unicode="&#x107;" horiz-adv-x="539" 
d="M514 332h-128v4q0 31 -20 54.5t-68 23.5q-44 0 -71.5 -25t-37.5 -71q-7 -33 -12 -56t-8 -37.5t-4.5 -22t-1.5 -11.5q0 -37 19 -61t69 -24q40 0 66.5 21.5t38.5 60.5h132q-13 -48 -33 -85t-49.5 -62t-70 -38t-94.5 -13q-47 0 -85 14t-65 40t-41.5 61.5t-14.5 79.5
q0 11 2 26.5t5 33t7 35t7 31.5q12 54 31.5 94.5t49.5 68.5t72 42t99 14q46 0 84 -14t65 -39.5t42 -61.5t15 -79v-4zM496 700l-118 -129h-114l60 129h172z" />
    <glyph glyph-name="ccaron" unicode="&#x10d;" horiz-adv-x="539" 
d="M514 332h-128v4q0 31 -20 54.5t-68 23.5q-44 0 -71.5 -25t-37.5 -71q-7 -33 -12 -56t-8 -37.5t-4.5 -22t-1.5 -11.5q0 -37 19 -61t69 -24q40 0 66.5 21.5t38.5 60.5h132q-13 -48 -33 -85t-49.5 -62t-70 -38t-94.5 -13q-47 0 -85 14t-65 40t-41.5 61.5t-14.5 79.5
q0 11 2 26.5t5 33t7 35t7 31.5q12 54 31.5 94.5t49.5 68.5t72 42t99 14q46 0 84 -14t65 -39.5t42 -61.5t15 -79v-4zM182 700h128l39 -45l58 45h147l-153 -129h-120z" />
    <glyph glyph-name="ccircumflex" unicode="&#x109;" horiz-adv-x="539" 
d="M514 332h-128v4q0 31 -20 54.5t-68 23.5q-44 0 -71.5 -25t-37.5 -71q-7 -33 -12 -56t-8 -37.5t-4.5 -22t-1.5 -11.5q0 -37 19 -61t69 -24q40 0 66.5 21.5t38.5 60.5h132q-13 -48 -33 -85t-49.5 -62t-70 -38t-94.5 -13q-47 0 -85 14t-65 40t-41.5 61.5t-14.5 79.5
q0 11 2 26.5t5 33t7 35t7 31.5q12 54 31.5 94.5t49.5 68.5t72 42t99 14q46 0 84 -14t65 -39.5t42 -61.5t15 -79v-4zM527 571h-128l-39 45l-58 -45h-147l153 129h120z" />
    <glyph glyph-name="cdotaccent" unicode="&#x10b;" horiz-adv-x="539" 
d="M514 332h-128v4q0 31 -20 54.5t-68 23.5q-44 0 -71.5 -25t-37.5 -71q-7 -33 -12 -56t-8 -37.5t-4.5 -22t-1.5 -11.5q0 -37 19 -61t69 -24q40 0 66.5 21.5t38.5 60.5h132q-13 -48 -33 -85t-49.5 -62t-70 -38t-94.5 -13q-47 0 -85 14t-65 40t-41.5 61.5t-14.5 79.5
q0 11 2 26.5t5 33t7 35t7 31.5q12 54 31.5 94.5t49.5 68.5t72 42t99 14q46 0 84 -14t65 -39.5t42 -61.5t15 -79v-4zM407 577h-132l25 117h132z" />
    <glyph glyph-name="dcaron" unicode="&#x10f;" horiz-adv-x="563" 
d="M702 542h-109l61 158h167zM327 53q-5 -8 -14.5 -19t-24 -21t-34.5 -16.5t-45 -6.5q-45 0 -77.5 17.5t-54 45.5t-32 62.5t-10.5 68.5q0 12 2 29.5t5.5 36.5t7 37.5t6.5 33.5q23 108 76 158.5t144 50.5q51 0 85 -21t51 -53l52 244h132l-148 -700h-132zM359 205
q7 33 11.5 55t7.5 35.5t4 20t1 10.5q0 37 -19 61t-69 24q-44 0 -71.5 -25t-37.5 -71q-7 -33 -11.5 -55t-7.5 -35.5t-4 -20t-1 -10.5q0 -37 19 -61t69 -24q44 0 71.5 25t37.5 71z" />
    <glyph glyph-name="dcroat" unicode="&#x111;" horiz-adv-x="563" 
d="M327 53q-5 -8 -14.5 -19t-24 -21t-34.5 -16.5t-45 -6.5q-45 0 -77.5 17.5t-54 45.5t-32 62.5t-10.5 68.5q0 12 2 29.5t5.5 36.5t7 37.5t6.5 33.5q23 108 76 158.5t144 50.5q51 0 85 -21t51 -53l23 109h-133l17 80h133l12 55h132l-12 -55h70l-17 -80h-70l-119 -565h-132z
M359 205q7 33 11.5 55t7.5 35.5t4 20t1 10.5q0 37 -19 61t-69 24q-44 0 -71.5 -25t-37.5 -71q-7 -33 -11.5 -55t-7.5 -35.5t-4 -20t-1 -10.5q0 -37 19 -61t69 -24q44 0 71.5 25t37.5 71z" />
    <glyph glyph-name="ebreve" unicode="&#x115;" horiz-adv-x="546" 
d="M166 214q-3 -17 -3 -23q0 -37 19 -61t69 -24q34 0 58.5 15.5t38.5 44.5h133q-14 -43 -33.5 -76t-48.5 -55t-68 -33.5t-90 -11.5q-47 0 -85 14t-65 40t-41.5 61.5t-14.5 79.5q0 11 2 26.5t5 33t7 35t7 31.5q12 54 31.5 94.5t49.5 68.5t72 42t99 14q46 0 84 -14t65 -40
t42 -62t15 -79q0 -11 -2 -26t-5 -31.5t-6.5 -33t-6.5 -30.5h-328zM386 329q0 37 -19 61t-69 24q-43 0 -70.5 -25t-38.5 -69h197v9zM294 571q-47 0 -76 29.5t-29 73.5q0 12 3 26h87q-1 -3 -1 -6v-4q0 -11 8 -18.5t22 -7.5h94q15 0 27.5 10.5t15.5 25.5h99q-6 -27 -21 -50.5
t-36 -41t-46.5 -27.5t-52.5 -10h-94v0z" />
    <glyph glyph-name="ecaron" unicode="&#x11b;" horiz-adv-x="546" 
d="M166 214q-3 -17 -3 -23q0 -37 19 -61t69 -24q34 0 58.5 15.5t38.5 44.5h133q-14 -43 -33.5 -76t-48.5 -55t-68 -33.5t-90 -11.5q-47 0 -85 14t-65 40t-41.5 61.5t-14.5 79.5q0 11 2 26.5t5 33t7 35t7 31.5q12 54 31.5 94.5t49.5 68.5t72 42t99 14q46 0 84 -14t65 -40
t42 -62t15 -79q0 -11 -2 -26t-5 -31.5t-6.5 -33t-6.5 -30.5h-328zM386 329q0 37 -19 61t-69 24q-43 0 -70.5 -25t-38.5 -69h197v9zM182 700h128l39 -45l58 45h147l-153 -129h-120z" />
    <glyph glyph-name="emacron" unicode="&#x113;" horiz-adv-x="546" 
d="M166 214q-3 -17 -3 -23q0 -37 19 -61t69 -24q34 0 58.5 15.5t38.5 44.5h133q-14 -43 -33.5 -76t-48.5 -55t-68 -33.5t-90 -11.5q-47 0 -85 14t-65 40t-41.5 61.5t-14.5 79.5q0 11 2 26.5t5 33t7 35t7 31.5q12 54 31.5 94.5t49.5 68.5t72 42t99 14q46 0 84 -14t65 -40
t42 -62t15 -79q0 -11 -2 -26t-5 -31.5t-6.5 -33t-6.5 -30.5h-328zM386 329q0 37 -19 61t-69 24q-43 0 -70.5 -25t-38.5 -69h197v9zM538 688l-23 -104h-341l23 104h341z" />
    <glyph glyph-name="eogonek" unicode="&#x119;" horiz-adv-x="546" 
d="M166 214q-3 -17 -3 -23q0 -37 19 -61t69 -24q34 0 58.5 15.5t38.5 44.5h133q-15 -49 -39 -85t-57 -56q-20 -12 -45 -25t-46.5 -26t-36 -26.5t-14.5 -26.5q0 -17 25 -17q15 0 31 6t26 11l-20 -92q-14 -8 -36.5 -13t-48.5 -5q-21 0 -41.5 5.5t-37 16.5t-27 27.5t-10.5 38.5
q0 32 23.5 56t64.5 39q-72 14 -114.5 65t-42.5 126q0 11 2 26.5t5 33t7 35t7 31.5q12 54 31.5 94.5t49.5 68.5t72 42t99 14q46 0 84 -14t65 -40t42 -62t15 -79q0 -11 -2 -26t-5 -31.5t-6.5 -33t-6.5 -30.5h-328zM386 329q0 37 -19 61t-69 24q-43 0 -70.5 -25t-38.5 -69h197
v9z" />
    <glyph glyph-name="edotaccent" unicode="&#x117;" horiz-adv-x="546" 
d="M166 214q-3 -17 -3 -23q0 -37 19 -61t69 -24q34 0 58.5 15.5t38.5 44.5h133q-14 -43 -33.5 -76t-48.5 -55t-68 -33.5t-90 -11.5q-47 0 -85 14t-65 40t-41.5 61.5t-14.5 79.5q0 11 2 26.5t5 33t7 35t7 31.5q12 54 31.5 94.5t49.5 68.5t72 42t99 14q46 0 84 -14t65 -40
t42 -62t15 -79q0 -11 -2 -26t-5 -31.5t-6.5 -33t-6.5 -30.5h-328zM386 329q0 37 -19 61t-69 24q-43 0 -70.5 -25t-38.5 -69h197v9zM407 577h-132l25 117h132z" />
    <glyph glyph-name="gbreve" unicode="&#x11f;" horiz-adv-x="561" 
d="M122 -7q0 -26 20.5 -48.5t67.5 -22.5q44 0 71.5 25t37.5 71l15 72q-5 -8 -15 -19t-25 -21t-35.5 -16.5t-45.5 -6.5q-45 0 -77.5 17.5t-54 45.5t-32 62.5t-10.5 68.5q0 17 4.5 41t12.5 59q23 108 76 158.5t144 50.5q51 0 85 -21t51 -53l12 60h132l-104 -491
q-11 -54 -30.5 -95t-49.5 -68.5t-72.5 -41.5t-99.5 -14q-47 0 -85 14t-65 39t-41.5 59.5t-14.5 74.5v4h128v-4zM367 242q8 42 12 59t4 25q0 37 -19 61t-69 24q-44 0 -71.5 -25t-37.5 -71q-10 -44 -13 -60.5t-3 -23.5q0 -37 19 -61t69 -24q44 0 72 25t37 71zM292 571
q-47 0 -76 29.5t-29 73.5q0 12 3 26h87q-1 -3 -1 -6v-4q0 -11 8 -18.5t22 -7.5h94q15 0 27.5 10.5t15.5 25.5h99q-6 -27 -21 -50.5t-36 -41t-46.5 -27.5t-52.5 -10h-94v0z" />
    <glyph glyph-name="gcircumflex" unicode="&#x11d;" horiz-adv-x="561" 
d="M122 -7q0 -26 20.5 -48.5t67.5 -22.5q44 0 71.5 25t37.5 71l15 72q-5 -8 -15 -19t-25 -21t-35.5 -16.5t-45.5 -6.5q-45 0 -77.5 17.5t-54 45.5t-32 62.5t-10.5 68.5q0 17 4.5 41t12.5 59q23 108 76 158.5t144 50.5q51 0 85 -21t51 -53l12 60h132l-104 -491
q-11 -54 -30.5 -95t-49.5 -68.5t-72.5 -41.5t-99.5 -14q-47 0 -85 14t-65 39t-41.5 59.5t-14.5 74.5v4h128v-4zM367 242q8 42 12 59t4 25q0 37 -19 61t-69 24q-44 0 -71.5 -25t-37.5 -71q-10 -44 -13 -60.5t-3 -23.5q0 -37 19 -61t69 -24q44 0 72 25t37 71zM524 571h-128
l-39 45l-58 -45h-147l153 129h120z" />
    <glyph glyph-name="gcommaaccent" unicode="&#x123;" horiz-adv-x="561" 
d="M122 -7q0 -26 20.5 -48.5t67.5 -22.5q44 0 71.5 25t37.5 71l15 72q-5 -8 -15 -19t-25 -21t-35.5 -16.5t-45.5 -6.5q-45 0 -77.5 17.5t-54 45.5t-32 62.5t-10.5 68.5q0 17 4.5 41t12.5 59q23 108 76 158.5t144 50.5q51 0 85 -21t51 -53l12 60h132l-104 -491
q-11 -54 -30.5 -95t-49.5 -68.5t-72.5 -41.5t-99.5 -14q-47 0 -85 14t-65 39t-41.5 59.5t-14.5 74.5v4h128v-4zM367 242q8 42 12 59t4 25q0 37 -19 61t-69 24q-44 0 -71.5 -25t-37.5 -71q-10 -44 -13 -60.5t-3 -23.5q0 -37 19 -61t69 -24q44 0 72 25t37 71zM412.975 570.965
h-149.99l30.998 149.991l54.9961 103.993h93.9941l-54.9961 -103.993h55.9961z" />
    <glyph glyph-name="gdotaccent" unicode="&#x121;" horiz-adv-x="561" 
d="M122 -7q0 -26 20.5 -48.5t67.5 -22.5q44 0 71.5 25t37.5 71l15 72q-5 -8 -15 -19t-25 -21t-35.5 -16.5t-45.5 -6.5q-45 0 -77.5 17.5t-54 45.5t-32 62.5t-10.5 68.5q0 17 4.5 41t12.5 59q23 108 76 158.5t144 50.5q51 0 85 -21t51 -53l12 60h132l-104 -491
q-11 -54 -30.5 -95t-49.5 -68.5t-72.5 -41.5t-99.5 -14q-47 0 -85 14t-65 39t-41.5 59.5t-14.5 74.5v4h128v-4zM367 242q8 42 12 59t4 25q0 37 -19 61t-69 24q-44 0 -71.5 -25t-37.5 -71q-10 -44 -13 -60.5t-3 -23.5q0 -37 19 -61t69 -24q44 0 72 25t37 71zM405 577h-132
l25 117h132z" />
    <glyph glyph-name="hbar" unicode="&#x127;" horiz-adv-x="573" 
d="M465 0h-132l44 205q7 33 12 55t8 35.5t4 20t1 10.5q0 37 -19 61t-69 24q-44 0 -71.5 -25t-37.5 -71l-68 -315h-132l121 570h-69l17 80h69l11 50h132l-11 -50h121l-17 -80h-121l-22 -103q4 8 14 19t25 20.5t35 16.5t45 7q48 0 81.5 -17.5t54 -45.5t29.5 -62.5t9 -68.5
q0 -12 -2 -29.5t-5 -36.5t-7 -37.5t-7 -33.5z" />
    <glyph glyph-name="hcircumflex" unicode="&#x125;" horiz-adv-x="573" 
d="M465 0h-132l44 205q7 33 12 55t8 35.5t4 20t1 10.5q0 37 -19 61t-69 24q-44 0 -71.5 -25t-37.5 -71l-68 -315h-132l149 700h132l-50 -233q4 8 14 19t25 20.5t35 16.5t45 7q48 0 81.5 -17.5t54 -45.5t29.5 -62.5t9 -68.5q0 -12 -2 -29.5t-5 -36.5t-7 -37.5t-7 -33.5z
M580 745h-128l-39 45l-58 -45h-147l153 129h120z" />
    <glyph glyph-name="dotlessi" unicode="&#x131;" horiz-adv-x="252" 
d="M137 0h-132l110 516h132z" />
    <glyph glyph-name="ibreve" unicode="&#x12d;" horiz-adv-x="292" 
d="M157 0h-132l110 516h132zM167 571q-47 0 -76 29.5t-29 73.5q0 12 3 26h87q-1 -3 -1 -6v-4q0 -11 8 -18.5t22 -7.5h94q15 0 27.5 10.5t15.5 25.5h99q-6 -27 -21 -50.5t-36 -41t-46.5 -27.5t-52.5 -10h-94v0z" />
    <glyph glyph-name="imacron" unicode="&#x12b;" horiz-adv-x="292" 
d="M157 0h-132l110 516h132zM411 688l-23 -104h-341l23 104h341z" />
    <glyph glyph-name="iogonek" unicode="&#x12f;" horiz-adv-x="252" 
d="M115 516h132l-110 -516q-42 -25 -70.5 -42.5t-28.5 -36.5q0 -17 25 -17q15 0 31 6t26 11l-20 -92q-14 -8 -36.5 -13t-48.5 -5q-21 0 -41.5 5.5t-37 16.5t-27 27.5t-10.5 38.5q0 35 29 60.5t77 40.5zM261 583h-132l25 117h132z" />
    <glyph glyph-name="itilde" unicode="&#x129;" horiz-adv-x="292" 
d="M157 0h-132l110 516h132zM47 572q5 26 14.5 49.5t24.5 41.5t34.5 28.5t45.5 10.5q18 0 31 -3.5t30 -11.5l27 -13q5 -2 10.5 -3.5t13.5 -1.5t17.5 7t14.5 24h98q-5 -26 -14.5 -49.5t-24.5 -41.5t-35 -28.5t-45 -10.5q-18 0 -31 3.5t-30 11.5l-27 13q-5 2 -10.5 3.5
t-13.5 1.5t-17.5 -7t-15.5 -24h-97z" />
    <glyph glyph-name="uni1ECB" unicode="&#x1ecb;" horiz-adv-x="252" 
d="M261 583h-132l25 117h132zM137 0h-132l110 516h132zM101 -166h-132l25 117h132z" />
    <glyph glyph-name="dotlessj" unicode="&#x237;" horiz-adv-x="251" 
d="M114 516h132l-120 -568q-13 -59 -57 -95.5t-107 -36.5h-59l24 116h24q24 0 34.5 13t14.5 31z" />
    <glyph glyph-name="jcircumflex" unicode="&#x135;" horiz-adv-x="312" 
d="M157 -52q-14 -63 -52.5 -97.5t-107.5 -34.5h-63l24 116h25q24 0 33.5 11.5t13.5 29.5l115 543h132zM409 571h-128l-39 45l-58 -45h-147l153 129h120z" />
    <glyph glyph-name="kcommaaccent" unicode="&#x137;" horiz-adv-x="538" 
d="M212 354l183 162h176l-230 -203l147 -313h-139l-107 226l-71 -64l-34 -162h-132l149 700h132zM140 -50h150l-31 -150l-55 -104h-94l55 104h-56z" />
    <glyph glyph-name="lacute" unicode="&#x13a;" horiz-adv-x="280" 
d="M223 116l-24 -116h-34q-68 0 -98 34.5t-30 86.5q0 21 7.5 64t22 113t36 169t49.5 233h132q-35 -163 -57.5 -269t-36 -169t-18.5 -90t-5 -31q0 -25 30 -25h26zM383 874l-118 -129h-114l60 129h172z" />
    <glyph glyph-name="lcaron" unicode="&#x13e;" horiz-adv-x="280" 
d="M389 542h-109l61 158h167zM223 116l-24 -116h-34q-68 0 -98 34.5t-30 86.5q0 21 7.5 64t22 113t36 169t49.5 233h132q-35 -163 -57.5 -269t-36 -169t-18.5 -90t-5 -31q0 -25 30 -25h26z" />
    <glyph glyph-name="lcommaaccent" unicode="&#x13c;" horiz-adv-x="280" 
d="M223 116l-24 -116h-34q-68 0 -98 34.5t-30 86.5q0 21 7.5 64t22 113t36 169t49.5 233h132q-35 -163 -57.5 -269t-36 -169t-18.5 -90t-5 -31q0 -25 30 -25h26zM16 -50h150l-31 -150l-55 -104h-94l55 104h-56z" />
    <glyph glyph-name="ldot" unicode="&#x140;" horiz-adv-x="361" 
d="M223 116l-24 -116h-34q-68 0 -98 34.5t-30 86.5q0 21 7.5 64t22 113t36 169t49.5 233h132q-35 -163 -57.5 -269t-36 -169t-18.5 -90t-5 -31q0 -25 30 -25h26zM392 352h-132l25 117h132z" />
    <glyph glyph-name="lslash" unicode="&#x142;" horiz-adv-x="300" 
d="M233 116l-24 -116h-34q-68 0 -98 34.5t-30 86.5q0 40 28 170l-71 -35l22 101l70 35q13 62 29.5 138t36.5 170h132l-50 -233l72 36l-22 -101l-72 -36q-13 -62 -21.5 -103.5t-14 -67.5t-7.5 -38.5t-2 -15.5q0 -25 30 -25h26z" />
    <glyph glyph-name="eng" unicode="&#x14b;" horiz-adv-x="573" 
d="M454 -52q-14 -63 -52.5 -97.5t-107.5 -34.5h-63l24 116h25q24 0 33.5 11.5t13.5 29.5l50 232q7 33 12 55t8 35.5t4 20t1 10.5q0 37 -19 61t-69 24q-44 0 -71.5 -25t-37.5 -71l-68 -315h-132l110 516h132l-11 -49q4 8 14 19t25 20.5t35 16.5t45 7q48 0 81.5 -17.5
t54 -45.5t29.5 -62.5t9 -68.5q0 -12 -2 -29.5t-5 -36.5t-7 -37.5t-7 -33.5z" />
    <glyph glyph-name="nacute" unicode="&#x144;" horiz-adv-x="573" 
d="M465 0h-132l44 205q7 33 12 55t8 35.5t4 20t1 10.5q0 37 -19 61t-69 24q-44 0 -71.5 -25t-37.5 -71l-68 -315h-132l110 516h132l-11 -49q4 8 14 19t25 20.5t35 16.5t45 7q48 0 81.5 -17.5t54 -45.5t29.5 -62.5t9 -68.5q0 -12 -2 -29.5t-5 -36.5t-7 -37.5t-7 -33.5z
M511 700l-118 -129h-114l60 129h172z" />
    <glyph glyph-name="ncaron" unicode="&#x148;" horiz-adv-x="573" 
d="M465 0h-132l44 205q7 33 12 55t8 35.5t4 20t1 10.5q0 37 -19 61t-69 24q-44 0 -71.5 -25t-37.5 -71l-68 -315h-132l110 516h132l-11 -49q4 8 14 19t25 20.5t35 16.5t45 7q48 0 81.5 -17.5t54 -45.5t29.5 -62.5t9 -68.5q0 -12 -2 -29.5t-5 -36.5t-7 -37.5t-7 -33.5z
M198 700h128l39 -45l58 45h147l-153 -129h-120z" />
    <glyph glyph-name="ncommaaccent" unicode="&#x146;" horiz-adv-x="573" 
d="M465 0h-132l44 205q7 33 12 55t8 35.5t4 20t1 10.5q0 37 -19 61t-69 24q-44 0 -71.5 -25t-37.5 -71l-68 -315h-132l110 516h132l-11 -49q4 8 14 19t25 20.5t35 16.5t45 7q48 0 81.5 -17.5t54 -45.5t29.5 -62.5t9 -68.5q0 -12 -2 -29.5t-5 -36.5t-7 -37.5t-7 -33.5z
M150 -50h150l-31 -150l-55 -104h-94l55 104h-56z" />
    <glyph glyph-name="oe" unicode="&#x153;" horiz-adv-x="873" 
d="M568 -10q-48 0 -88 18.5t-65 47.5q-25 -27 -66.5 -46.5t-107.5 -19.5q-47 0 -85 14t-65 40t-41.5 61.5t-14.5 79.5q0 11 2 26.5t5 33t7 35t7 31.5q12 54 31.5 94.5t49.5 68.5t72 42t99 14q48 0 88 -18.5t65 -47.5q25 27 66.5 46.5t107.5 19.5q46 0 84 -14t65 -40t42 -62
t15 -79q0 -11 -2 -26t-5 -31.5t-6.5 -33t-6.5 -30.5h-328q-3 -17 -3 -23q0 -37 19 -61t69 -24q34 0 58.5 15.5t38.5 44.5h133q-14 -43 -33.5 -76t-48.5 -55t-68 -33.5t-90 -11.5zM189 318q-3 -15 -7.5 -35t-8.5 -39.5t-7 -35.5t-3 -23q0 -33 20 -56t68 -23q44 0 71.5 25
t37.5 71q3 15 7.5 35t8.5 39.5t7 35.5t3 23q0 33 -20 56t-68 23q-44 0 -71 -25t-38 -71zM713 329q0 37 -19 61t-69 24q-43 0 -70.5 -25t-38.5 -69h197v9z" />
    <glyph glyph-name="obreve" unicode="&#x14f;" horiz-adv-x="549" 
d="M493 209q-12 -54 -31.5 -94.5t-49.5 -68.5t-72 -42t-99 -14q-47 0 -85 14t-65 40t-41.5 61.5t-14.5 79.5q0 11 2 26.5t5 33t7 35t7 31.5q12 54 31.5 94.5t49.5 68.5t72 42t99 14q46 0 84 -14t65 -40t42 -62t15 -79q0 -11 -2 -26.5t-5 -33t-7 -35t-7 -31.5zM189 318
q-3 -15 -7.5 -35t-8.5 -39.5t-7 -35.5t-3 -23q0 -33 20 -56t68 -23q44 0 71.5 25t37.5 71q3 15 7.5 35t8.5 39.5t7 35.5t3 23q0 33 -20 56t-68 23q-44 0 -71 -25t-38 -71zM294 571q-47 0 -76 29.5t-29 73.5q0 12 3 26h87q-1 -3 -1 -6v-4q0 -11 8 -18.5t22 -7.5h94
q15 0 27.5 10.5t15.5 25.5h99q-6 -27 -21 -50.5t-36 -41t-46.5 -27.5t-52.5 -10h-94v0z" />
    <glyph glyph-name="ohungarumlaut" unicode="&#x151;" horiz-adv-x="549" 
d="M493 209q-12 -54 -31.5 -94.5t-49.5 -68.5t-72 -42t-99 -14q-47 0 -85 14t-65 40t-41.5 61.5t-14.5 79.5q0 11 2 26.5t5 33t7 35t7 31.5q12 54 31.5 94.5t49.5 68.5t72 42t99 14q46 0 84 -14t65 -40t42 -62t15 -79q0 -11 -2 -26.5t-5 -33t-7 -35t-7 -31.5zM189 318
q-3 -15 -7.5 -35t-8.5 -39.5t-7 -35.5t-3 -23q0 -33 20 -56t68 -23q44 0 71.5 25t37.5 71q3 15 7.5 35t8.5 39.5t7 35.5t3 23q0 33 -20 56t-68 23q-44 0 -71 -25t-38 -71zM380 700l-108 -129h-109l50 129h167zM572 700l-108 -129h-109l50 129h167z" />
    <glyph glyph-name="omacron" unicode="&#x14d;" horiz-adv-x="549" 
d="M493 209q-12 -54 -31.5 -94.5t-49.5 -68.5t-72 -42t-99 -14q-47 0 -85 14t-65 40t-41.5 61.5t-14.5 79.5q0 11 2 26.5t5 33t7 35t7 31.5q12 54 31.5 94.5t49.5 68.5t72 42t99 14q46 0 84 -14t65 -40t42 -62t15 -79q0 -11 -2 -26.5t-5 -33t-7 -35t-7 -31.5zM189 318
q-3 -15 -7.5 -35t-8.5 -39.5t-7 -35.5t-3 -23q0 -33 20 -56t68 -23q44 0 71.5 25t37.5 71q3 15 7.5 35t8.5 39.5t7 35.5t3 23q0 33 -20 56t-68 23q-44 0 -71 -25t-38 -71zM537 688l-23 -104h-341l23 104h341z" />
    <glyph glyph-name="uni1ECD" unicode="&#x1ecd;" horiz-adv-x="549" 
d="M493 209q-12 -54 -31.5 -94.5t-49.5 -68.5t-72 -42t-99 -14q-47 0 -85 14t-65 40t-41.5 61.5t-14.5 79.5q0 11 2 26.5t5 33t7 35t7 31.5q12 54 31.5 94.5t49.5 68.5t72 42t99 14q46 0 84 -14t65 -40t42 -62t15 -79q0 -11 -2 -26.5t-5 -33t-7 -35t-7 -31.5zM189 318
q-3 -15 -7.5 -35t-8.5 -39.5t-7 -35.5t-3 -23q0 -33 20 -56t68 -23q44 0 71.5 25t37.5 71q3 15 7.5 35t8.5 39.5t7 35.5t3 23q0 33 -20 56t-68 23q-44 0 -71 -25t-38 -71zM250 -166h-132l25 117h132z" />
    <glyph glyph-name="racute" unicode="&#x155;" horiz-adv-x="364" 
d="M311 401q-44 0 -71.5 -25t-37.5 -71l-65 -305h-132l110 516h132l-13 -54q4 8 14 19t25 20.5t35 16.5t45 7h56l-26 -124h-72zM427 700l-118 -129h-114l60 129h172z" />
    <glyph glyph-name="rcaron" unicode="&#x159;" horiz-adv-x="364" 
d="M311 401q-44 0 -71.5 -25t-37.5 -71l-65 -305h-132l110 516h132l-13 -54q4 8 14 19t25 20.5t35 16.5t45 7h56l-26 -124h-72zM115 700h128l39 -45l58 45h147l-153 -129h-120z" />
    <glyph glyph-name="rcommaaccent" unicode="&#x157;" horiz-adv-x="364" 
d="M311 401q-44 0 -71.5 -25t-37.5 -71l-65 -305h-132l110 516h132l-13 -54q4 8 14 19t25 20.5t35 16.5t45 7h56l-26 -124h-72zM-14 -50h150l-31 -150l-55 -104h-94l55 104h-56z" />
    <glyph glyph-name="sacute" unicode="&#x15b;" horiz-adv-x="477" 
d="M208 -10q-43 0 -80.5 12.5t-65.5 35t-44 53t-16 67.5v9h128v-4q0 -28 27.5 -43.5t65.5 -15.5q12 0 25.5 2.5t25 7.5t18.5 13.5t7 20.5q0 19 -13 28t-33 14l-72 19q-24 6 -47 18.5t-41 30.5t-28.5 42.5t-10.5 55.5q0 45 16 77.5t44.5 54t66.5 32t82 10.5q34 0 68 -11.5
t61 -32t43.5 -50t16.5 -65.5v-8h-128v3q-1 23 -24 36.5t-52 13.5t-47.5 -11.5t-18.5 -31.5q0 -19 12.5 -27.5t26.5 -12.5l80 -21q55 -14 91.5 -50.5t36.5 -93.5q0 -94 -57 -136t-164 -42zM455 700l-118 -129h-114l60 129h172z" />
    <glyph glyph-name="scaron" unicode="&#x161;" horiz-adv-x="477" 
d="M208 -10q-43 0 -80.5 12.5t-65.5 35t-44 53t-16 67.5v9h128v-4q0 -28 27.5 -43.5t65.5 -15.5q12 0 25.5 2.5t25 7.5t18.5 13.5t7 20.5q0 19 -13 28t-33 14l-72 19q-24 6 -47 18.5t-41 30.5t-28.5 42.5t-10.5 55.5q0 45 16 77.5t44.5 54t66.5 32t82 10.5q34 0 68 -11.5
t61 -32t43.5 -50t16.5 -65.5v-8h-128v3q-1 23 -24 36.5t-52 13.5t-47.5 -11.5t-18.5 -31.5q0 -19 12.5 -27.5t26.5 -12.5l80 -21q55 -14 91.5 -50.5t36.5 -93.5q0 -94 -57 -136t-164 -42zM141 700h128l39 -45l58 45h147l-153 -129h-120z" />
    <glyph glyph-name="scedilla" unicode="&#x15f;" horiz-adv-x="477" 
d="M208 -10q-43 0 -80.5 12.5t-65.5 35t-44 53t-16 67.5v9h128v-4q0 -28 27.5 -43.5t65.5 -15.5q12 0 25.5 2.5t25 7.5t18.5 13.5t7 20.5q0 19 -13 28t-33 14l-72 19q-24 6 -47 18.5t-41 30.5t-28.5 42.5t-10.5 55.5q0 45 16 77.5t44.5 54t66.5 32t82 10.5q34 0 68 -11.5
t61 -32t43.5 -50t16.5 -65.5v-8h-128v3q-1 23 -24 36.5t-52 13.5t-47.5 -11.5t-18.5 -31.5q0 -19 12.5 -27.5t26.5 -12.5l80 -21q55 -14 91.5 -50.5t36.5 -93.5q0 -94 -57 -136t-164 -42zM148 0h111l-38 -158h-130z" />
    <glyph glyph-name="scircumflex" unicode="&#x15d;" horiz-adv-x="477" 
d="M208 -10q-43 0 -80.5 12.5t-65.5 35t-44 53t-16 67.5v9h128v-4q0 -28 27.5 -43.5t65.5 -15.5q12 0 25.5 2.5t25 7.5t18.5 13.5t7 20.5q0 19 -13 28t-33 14l-72 19q-24 6 -47 18.5t-41 30.5t-28.5 42.5t-10.5 55.5q0 45 16 77.5t44.5 54t66.5 32t82 10.5q34 0 68 -11.5
t61 -32t43.5 -50t16.5 -65.5v-8h-128v3q-1 23 -24 36.5t-52 13.5t-47.5 -11.5t-18.5 -31.5q0 -19 12.5 -27.5t26.5 -12.5l80 -21q55 -14 91.5 -50.5t36.5 -93.5q0 -94 -57 -136t-164 -42zM486 571h-128l-39 45l-58 -45h-147l153 129h120z" />
    <glyph glyph-name="scommaaccent" unicode="&#x219;" horiz-adv-x="477" 
d="M208 -10q-43 0 -80.5 12.5t-65.5 35t-44 53t-16 67.5v9h128v-4q0 -28 27.5 -43.5t65.5 -15.5q12 0 25.5 2.5t25 7.5t18.5 13.5t7 20.5q0 19 -13 28t-33 14l-72 19q-24 6 -47 18.5t-41 30.5t-28.5 42.5t-10.5 55.5q0 45 16 77.5t44.5 54t66.5 32t82 10.5q34 0 68 -11.5
t61 -32t43.5 -50t16.5 -65.5v-8h-128v3q-1 23 -24 36.5t-52 13.5t-47.5 -11.5t-18.5 -31.5q0 -19 12.5 -27.5t26.5 -12.5l80 -21q55 -14 91.5 -50.5t36.5 -93.5q0 -94 -57 -136t-164 -42zM112 -50h150l-31 -150l-55 -104h-94l55 104h-56z" />
    <glyph glyph-name="tbar" unicode="&#x167;" horiz-adv-x="368" 
d="M42 400l24 116h73l25 117h132l-25 -117h127l-24 -116h-127l-18 -83h127l-17 -80h-127q-11 -49 -14.5 -70.5t-3.5 -25.5q0 -25 30 -25h89l-24 -116h-97q-68 0 -98 34.5t-30 86.5q0 33 16 116h-73l17 80h73l18 83h-73z" />
    <glyph glyph-name="tcaron" unicode="&#x165;" horiz-adv-x="367" 
d="M443 571h-109l45 129h167zM41 400l24 116h73l25 117h132l-25 -117h127l-24 -116h-127q-15 -72 -25.5 -120t-16.5 -78t-8.5 -44t-2.5 -17q0 -25 30 -25h89l-24 -116h-97q-68 0 -98 34.5t-30 86.5q0 28 12.5 95t38.5 184h-73z" />
    <glyph glyph-name="uni0163" unicode="&#x163;" horiz-adv-x="367" 
d="M41 400l24 116h73l25 117h132l-25 -117h127l-24 -116h-127q-15 -72 -25.5 -120t-16.5 -78t-8.5 -44t-2.5 -17q0 -25 30 -25h89l-24 -116h-97q-68 0 -98 34.5t-30 86.5q0 28 12.5 95t38.5 184h-73zM72 -50h150l-31 -150l-55 -104h-94l55 104h-56z" />
    <glyph glyph-name="tcommaaccent" unicode="&#x21b;" horiz-adv-x="367" 
d="M41 400l24 116h73l25 117h132l-25 -117h127l-24 -116h-127q-15 -72 -25.5 -120t-16.5 -78t-8.5 -44t-2.5 -17q0 -25 30 -25h89l-24 -116h-97q-68 0 -98 34.5t-30 86.5q0 28 12.5 95t38.5 184h-73zM72 -50h150l-31 -150l-55 -104h-94l55 104h-56z" />
    <glyph glyph-name="ubreve" unicode="&#x16d;" horiz-adv-x="568" 
d="M259 109q41 0 68 25.5t37 70.5l67 311h132l-110 -516h-132l12 53q-4 -7 -14 -18t-25 -21t-35.5 -17t-44.5 -7q-44 0 -75.5 16.5t-52.5 43.5t-31 60.5t-10 68.5q0 13 1.5 29.5t4.5 34.5t6.5 35.5l6.5 32.5l44 205h132l-43 -201q-4 -18 -8.5 -37.5t-8 -36.5t-5.5 -29.5
t-2 -17.5q0 -36 19 -60.5t67 -24.5zM300 571q-47 0 -76 29.5t-29 73.5q0 12 3 26h87q-1 -3 -1 -6v-4q0 -11 8 -18.5t22 -7.5h94q15 0 27.5 10.5t15.5 25.5h99q-6 -27 -21 -50.5t-36 -41t-46.5 -27.5t-52.5 -10h-94v0z" />
    <glyph glyph-name="uhungarumlaut" unicode="&#x171;" horiz-adv-x="568" 
d="M259 109q41 0 68 25.5t37 70.5l67 311h132l-110 -516h-132l12 53q-4 -7 -14 -18t-25 -21t-35.5 -17t-44.5 -7q-44 0 -75.5 16.5t-52.5 43.5t-31 60.5t-10 68.5q0 13 1.5 29.5t4.5 34.5t6.5 35.5l6.5 32.5l44 205h132l-43 -201q-4 -18 -8.5 -37.5t-8 -36.5t-5.5 -29.5
t-2 -17.5q0 -36 19 -60.5t67 -24.5zM382 700l-108 -129h-109l50 129h167zM574 700l-108 -129h-109l50 129h167z" />
    <glyph glyph-name="umacron" unicode="&#x16b;" horiz-adv-x="568" 
d="M259 109q41 0 68 25.5t37 70.5l67 311h132l-110 -516h-132l12 53q-4 -7 -14 -18t-25 -21t-35.5 -17t-44.5 -7q-44 0 -75.5 16.5t-52.5 43.5t-31 60.5t-10 68.5q0 13 1.5 29.5t4.5 34.5t6.5 35.5l6.5 32.5l44 205h132l-43 -201q-4 -18 -8.5 -37.5t-8 -36.5t-5.5 -29.5
t-2 -17.5q0 -36 19 -60.5t67 -24.5zM544 688l-23 -104h-341l23 104h341z" />
    <glyph glyph-name="uogonek" unicode="&#x173;" horiz-adv-x="568" 
d="M259 109q41 0 68 25.5t37 70.5l67 311h132l-110 -516h-132l12 53q-4 -7 -14 -18t-25 -21t-35.5 -17t-44.5 -7q-44 0 -75.5 16.5t-52.5 43.5t-31 60.5t-10 68.5q0 13 1.5 29.5t4.5 34.5t6.5 35.5l6.5 32.5l44 205h132l-43 -201q-4 -18 -8.5 -37.5t-8 -36.5t-5.5 -29.5
t-2 -17.5q0 -36 19 -60.5t67 -24.5zM453 0q-42 -25 -70.5 -42.5t-28.5 -36.5q0 -17 25 -17q15 0 31 6t26 11l-20 -92q-14 -8 -36.5 -13t-48.5 -5q-21 0 -41.5 5.5t-37 16.5t-27 27.5t-10.5 38.5q0 35 29 60.5t77 40.5h132z" />
    <glyph glyph-name="uring" unicode="&#x16f;" horiz-adv-x="568" 
d="M259 109q41 0 68 25.5t37 70.5l67 311h132l-110 -516h-132l12 53q-4 -7 -14 -18t-25 -21t-35.5 -17t-44.5 -7q-44 0 -75.5 16.5t-52.5 43.5t-31 60.5t-10 68.5q0 13 1.5 29.5t4.5 34.5t6.5 35.5l6.5 32.5l44 205h132l-43 -201q-4 -18 -8.5 -37.5t-8 -36.5t-5.5 -29.5
t-2 -17.5q0 -36 19 -60.5t67 -24.5zM276 635q0 31 21.5 53t52.5 22t53 -22t22 -53t-22 -52.5t-53 -21.5t-52.5 21.5t-21.5 52.5zM330 635q0 -8 6 -14t14 -6t14 6t6 14t-6 14t-14 6t-14 -6t-6 -14z" />
    <glyph glyph-name="utilde" unicode="&#x169;" horiz-adv-x="568" 
d="M259 109q41 0 68 25.5t37 70.5l67 311h132l-110 -516h-132l12 53q-4 -7 -14 -18t-25 -21t-35.5 -17t-44.5 -7q-44 0 -75.5 16.5t-52.5 43.5t-31 60.5t-10 68.5q0 13 1.5 29.5t4.5 34.5t6.5 35.5l6.5 32.5l44 205h132l-43 -201q-4 -18 -8.5 -37.5t-8 -36.5t-5.5 -29.5
t-2 -17.5q0 -36 19 -60.5t67 -24.5zM181 572q5 26 14.5 49.5t24.5 41.5t34.5 28.5t45.5 10.5q18 0 31 -3.5t30 -11.5l27 -13q5 -2 10.5 -3.5t13.5 -1.5t17.5 7t14.5 24h98q-5 -26 -14.5 -49.5t-24.5 -41.5t-35 -28.5t-45 -10.5q-18 0 -31 3.5t-30 11.5l-27 13
q-5 2 -10.5 3.5t-13.5 1.5t-17.5 -7t-15.5 -24h-97z" />
    <glyph glyph-name="uni1EE5" unicode="&#x1ee5;" horiz-adv-x="568" 
d="M259 109q41 0 68 25.5t37 70.5l67 311h132l-110 -516h-132l12 53q-4 -7 -14 -18t-25 -21t-35.5 -17t-44.5 -7q-44 0 -75.5 16.5t-52.5 43.5t-31 60.5t-10 68.5q0 13 1.5 29.5t4.5 34.5t6.5 35.5l6.5 32.5l44 205h132l-43 -201q-4 -18 -8.5 -37.5t-8 -36.5t-5.5 -29.5
t-2 -17.5q0 -36 19 -60.5t67 -24.5zM257 -166h-132l25 117h132z" />
    <glyph glyph-name="wacute" unicode="&#x1e83;" horiz-adv-x="704" 
d="M377 359l-163 -359h-134l-27 516h130l12 -324l147 324h122l11 -316l144 316h142l-245 -516h-126zM573 700l-118 -129h-114l60 129h172z" />
    <glyph glyph-name="wcircumflex" unicode="&#x175;" horiz-adv-x="704" 
d="M377 359l-163 -359h-134l-27 516h130l12 -324l147 324h122l11 -316l144 316h142l-245 -516h-126zM604 571h-128l-39 45l-58 -45h-147l153 129h120z" />
    <glyph glyph-name="wdieresis" unicode="&#x1e85;" horiz-adv-x="704" 
d="M377 359l-163 -359h-134l-27 516h130l12 -324l147 324h122l11 -316l144 316h142l-245 -516h-126zM388 577h-132l25 117h132zM584 577h-132l25 117h132z" />
    <glyph glyph-name="wgrave" unicode="&#x1e81;" horiz-adv-x="704" 
d="M377 359l-163 -359h-134l-27 516h130l12 -324l147 324h122l11 -316l144 316h142l-245 -516h-126zM445 700l33 -129h-109l-91 129h167z" />
    <glyph glyph-name="ycircumflex" unicode="&#x177;" horiz-adv-x="491" 
d="M46 516h132l43 -325l182 325h151l-323 -565q-17 -29 -30.5 -54t-30 -43t-39.5 -28t-57 -10h-97l23 116h55q18 0 26.5 7.5t13.5 15.5l27 49zM498 571h-128l-39 45l-58 -45h-147l153 129h120z" />
    <glyph glyph-name="ygrave" unicode="&#x1ef3;" horiz-adv-x="491" 
d="M46 516h132l43 -325l182 325h151l-323 -565q-17 -29 -30.5 -54t-30 -43t-39.5 -28t-57 -10h-97l23 116h55q18 0 26.5 7.5t13.5 15.5l27 49zM339 700l33 -129h-109l-91 129h167z" />
    <glyph glyph-name="uni0233" unicode="&#x233;" horiz-adv-x="491" 
d="M46 516h132l43 -325l182 325h151l-323 -565q-17 -29 -30.5 -54t-30 -43t-39.5 -28t-57 -10h-97l23 116h55q18 0 26.5 7.5t13.5 15.5l27 49zM508 688l-23 -104h-341l23 104h341z" />
    <glyph glyph-name="zacute" unicode="&#x17a;" horiz-adv-x="442" 
d="M168 116h221l-24 -116h-394l25 116l274 284h-208l24 116h381l-25 -116zM442 700l-118 -129h-114l60 129h172z" />
    <glyph glyph-name="zcaron" unicode="&#x17e;" horiz-adv-x="442" 
d="M168 116h221l-24 -116h-394l25 116l274 284h-208l24 116h381l-25 -116zM130 700h128l39 -45l58 45h147l-153 -129h-120z" />
    <glyph glyph-name="zdotaccent" unicode="&#x17c;" horiz-adv-x="442" 
d="M168 116h221l-24 -116h-394l25 116l274 284h-208l24 116h381l-25 -116zM355 577h-132l25 117h132z" />
    <glyph glyph-name="ellipsis" unicode="&#x2026;" horiz-adv-x="858" 
d="M327 160h160l-34 -160h-160zM613 160h160l-34 -160h-160zM42 160h160l-34 -160h-160z" />
    <glyph glyph-name="endash" unicode="&#x2013;" horiz-adv-x="540" 
d="M515 335l-25 -120h-460l25 120h460z" />
    <glyph glyph-name="emdash" unicode="&#x2014;" horiz-adv-x="856" 
d="M831 335l-25 -120h-776l25 120h776z" />
    <glyph glyph-name="guilsinglleft" unicode="&#x2039;" horiz-adv-x="275" 
d="M32 216l25 114l210 155l-38 -176l-69 -51l47 -51l-31 -146z" />
    <glyph glyph-name="guilsinglright" unicode="&#x203a;" horiz-adv-x="275" 
d="M248 330l-25 -114l-210 -155l38 176l69 51l-47 51l31 146z" />
    <glyph glyph-name="quoteleft" unicode="&#x2018;" horiz-adv-x="266" 
d="M248 426h-160l34 160l68 114h94l-68 -114h66z" />
    <glyph glyph-name="quoteright" unicode="&#x2019;" horiz-adv-x="266" 
d="M146 700h160l-34 -160l-68 -114h-94l67 114h-65z" />
    <glyph glyph-name="quotedblleft" unicode="&#x201c;" horiz-adv-x="506" 
d="M248 426h-160l34 160l68 114h94l-68 -114h66zM488 426h-160l34 160l68 114h94l-68 -114h66z" />
    <glyph glyph-name="quotedblright" unicode="&#x201d;" horiz-adv-x="506" 
d="M385.977 699.957h159.99l-33.998 -159.99l-67.9961 -113.993h-93.9941l67.9961 113.993h-65.9961zM145.991 699.957h159.99l-33.998 -159.99l-67.9961 -113.993h-93.9941l67.9961 113.993h-65.9961z" />
    <glyph glyph-name="quotesinglbase" unicode="&#x201a;" horiz-adv-x="266" 
d="M32 160h160l-34 -160l-68 -114h-94l67 114h-65z" />
    <glyph glyph-name="quotedblbase" unicode="&#x201e;" horiz-adv-x="506" 
d="M272 160h160l-34 -160l-68 -114h-94l67 114h-65zM32 160h160l-34 -160l-68 -114h-94l67 114h-65z" />
    <glyph glyph-name="bullet" unicode="&#x2022;" horiz-adv-x="800" 
d="M250 298q0 35 13 65.5t36 53.5t53.5 36t65.5 13t65.5 -13t53.5 -36t36 -53.5t13 -65.5t-13 -65.5t-36 -53.5t-53.5 -36t-65.5 -13t-65.5 13t-53.5 36t-36 53.5t-13 65.5z" />
    <glyph glyph-name="dagger" unicode="&#x2020;" horiz-adv-x="610" 
d="M299 516l39 184h122l-39 -184h169l-24 -117h-170l-103 -486h-122l103 486h-168l24 117h169z" />
    <glyph glyph-name="daggerdbl" unicode="&#x2021;" horiz-adv-x="610" 
d="M299 516l39 184h122l-39 -184h169l-24 -117h-170l-39 -185h168l-24 -117h-169l-39 -184h-122l39 184h-169l24 117h170l39 185h-168l24 117h169z" />
    <glyph glyph-name="perthousand" unicode="&#x2030;" horiz-adv-x="1225" 
d="M995 75q24 0 36 12.5t17 34.5q5 23 11.5 51.5t12 54.5t9 45t3.5 24q0 13 -9 23.5t-35 10.5q-24 0 -36.5 -12.5t-17.5 -34.5q-5 -23 -11.5 -51.5t-11.5 -54.5t-8.5 -45t-3.5 -24q0 -13 9 -23.5t35 -10.5zM990 -6q-27 0 -50.5 8t-41 22.5t-27.5 35t-10 46.5q0 10 4.5 37
t10 56t10.5 52.5t6 27.5q7 32 18 56.5t29 41.5t44 26t62 9q27 0 50.5 -8t41 -22.5t27.5 -35t10 -46.5q0 -11 -4.5 -37.5t-10.5 -55.5t-11 -52.5t-6 -27.5q-7 -32 -18 -56.5t-28.5 -41.5t-43.5 -26t-62 -9zM755 700l-481 -700h-106l481 700h106zM222 369q24 0 36 12.5
t17 34.5q5 23 11.5 51.5t12 54.5t9 45t3.5 24q0 13 -9 23.5t-35 10.5q-24 0 -36.5 -12.5t-17.5 -34.5q-5 -23 -11.5 -51.5t-11.5 -54.5t-8.5 -45t-3.5 -24q0 -13 9 -23.5t35 -10.5zM217 288q-27 0 -50.5 8t-41 22.5t-27.5 35t-10 46.5q0 10 4.5 37t10 56t10.5 52.5t6 27.5
q7 32 18 56.5t29 41.5t44 26t62 9q27 0 50.5 -8t41 -22.5t27.5 -35t10 -46.5q0 -11 -4.5 -37.5t-10.5 -55.5t-11 -52.5t-6 -27.5q-7 -32 -18 -56.5t-28.5 -41.5t-43.5 -26t-62 -9zM654 75q24 0 36 12.5t17 34.5q5 23 11.5 51.5t12 54.5t9 45t3.5 24q0 13 -9 23.5t-35 10.5
q-24 0 -36.5 -12.5t-17.5 -34.5q-5 -23 -11.5 -51.5t-11.5 -54.5t-8.5 -45t-3.5 -24q0 -13 9 -23.5t35 -10.5zM649 -6q-27 0 -50.5 8t-41 22.5t-27.5 35t-10 46.5q0 10 4.5 37t10 56t10.5 52.5t6 27.5q7 32 18 56.5t29 41.5t44 26t62 9q27 0 50.5 -8t41 -22.5t27.5 -35
t10 -46.5q0 -11 -4.5 -37.5t-10.5 -55.5t-11 -52.5t-6 -27.5q-7 -32 -18 -56.5t-28.5 -41.5t-43.5 -26t-62 -9z" />
    <glyph glyph-name="uni2117" unicode="&#x2117;" horiz-adv-x="780" 
d="M285 522h162q38 0 63.5 -12t41.5 -31t22.5 -43t6.5 -47t-6.5 -47t-22.5 -43.5t-41.5 -32t-63.5 -12.5h-69v-81h-93v349zM447 347q13 0 21 4.5t12.5 11.5t6 14t1.5 12q0 4 -1.5 11t-6 14t-12.5 11.5t-21 4.5h-69v-83h69zM49 350q0 75 28.5 140.5t77 114t114 77t140.5 28.5
t140.5 -28.5t114 -77t77 -114t28.5 -140.5t-28.5 -140.5t-77 -114t-114 -77t-140.5 -28.5t-140.5 28.5t-114 77t-77 114t-28.5 140.5zM157 350q0 -52 20 -97.5t54 -79.5t80 -54t98 -20t97.5 20t79.5 54t53.5 79.5t19.5 97.5t-19.5 97.5t-53.5 79.5t-79.5 54t-97.5 20
t-98 -20t-80 -54t-54 -79.5t-20 -97.5z" />
    <glyph glyph-name="trademark" unicode="&#x2122;" horiz-adv-x="763" 
d="M179 611h-115v89h323v-89h-115v-317h-93v317zM424 700h89l95 -195l94 195h90v-406h-90v234l-60 -125h-69l-60 125v-234h-89v406z" />
    <glyph glyph-name="lozenge" unicode="&#x25ca;" horiz-adv-x="568" 
d="M354 0h-102l-203 350l203 350h102l203 -350zM303 155l113 195l-113 195l-113 -195z" />
    <glyph glyph-name="afii61289" unicode="&#x2113;" horiz-adv-x="356" 
d="M124 550q18 84 56 122t110 38q59 0 87.5 -29t28.5 -79q0 -47 -18 -96t-48 -95t-68.5 -86t-78.5 -69q-11 -51 -17 -79.5t-9 -44t-3.5 -22.5t-0.5 -14q0 -30 14.5 -42.5t40.5 -12.5q14 0 30.5 4t34.5 8l3 -31q-29 -18 -62.5 -25t-64.5 -7q-26 0 -49.5 7.5t-40.5 21.5
t-27 34.5t-10 46.5q0 8 1 18t5 30l-54 -37l-16 31l80 55zM205 309q25 22 52.5 52.5t50 63.5t37.5 65.5t15 60.5q0 20 -9 37t-33 17t-41 -18t-27 -66z" />
    <glyph glyph-name="afii61352" unicode="&#x2116;" horiz-adv-x="961" 
d="M957 365l-19 -90h-282l19 90h282zM847 476q21 0 33 12t17 33q2 7 4 17t4 19.5t3.5 17t1.5 10.5q0 15 -8 29t-38 14q-21 0 -33 -12.5t-17 -33.5q-2 -7 -4 -16.5t-4 -19.5l-3.5 -17.5t-1.5 -9.5q0 -16 8 -29.5t38 -13.5zM841 395q-62 0 -95.5 36t-33.5 91q0 11 2.5 27.5
t5.5 26.5q7 31 18 55.5t28 41.5t42.5 26t61.5 9q62 0 95.5 -35.5t33.5 -91.5q0 -11 -2.5 -27t-5.5 -27q-8 -30 -18.5 -54.5t-28 -42t-42.5 -26.5t-61 -9zM537 0h-134l-159 475l-101 -475h-133l148 700h134l159 -475l101 475h134z" />
    <glyph glyph-name="apple" horiz-adv-x="598" 
d="M167 26q-28 6 -38.5 24.5t-10.5 53.5v256q-27 0 -37 24q-24 10 -24 37q0 17 11 28q-17 8 -26.5 23.5t-9.5 35.5q0 19 9.5 35t26.5 24q-11 11 -11 28q0 15 9 26.5t23 13.5q6 20 23 34t40 14q24 0 44 -17q7 19 23.5 31.5t37.5 12.5q17 0 31.5 -8.5t23.5 -22.5q14 7 29 7
q19 0 35 -10t24 -27q12 12 28 12q13 0 22.5 -6.5t14.5 -17.5q22 -5 36.5 -23t14.5 -41q0 -19 -9.5 -34t-24.5 -23v-38h4q47 0 63.5 -18.5t16.5 -61.5v-215q0 -43 -16.5 -61.5t-63.5 -18.5h-4q0 -35 -10.5 -53t-38.5 -24v-26h-266v26zM433 510q-17 4 -29 17h-83
q-19 -19 -46 -19q-34 0 -53 27q-8 -3 -16 -3q-18 0 -29 11q-2 -4 -4.5 -7.5t-5.5 -7.5v-424q0 -19 7 -26.5t25 -7.5h202q18 0 25 7.5t7 26.5v406zM97 443q-10 0 -15.5 -7t-5.5 -15q0 -9 6 -15t15 -6q0 -9 6 -15t15 -6v147q19 0 32 12t15 30v4h19q0 -10 6.5 -15.5t15.5 -5.5
t15 6t6 15h19q0 -8 -2.5 -14.5t-6.5 -11.5q13 -19 38 -19q20 0 33.5 13t13.5 33h82q0 -20 13 -33t33 -13t33.5 13t13.5 33t-13.5 33.5t-33.5 13.5q0 9 -6.5 15.5t-15.5 6.5q-8 0 -14.5 -5.5t-6.5 -16.5h-19q0 20 -13.5 33.5t-33.5 13.5q-15 0 -26.5 -8.5t-16.5 -21.5
q12 -4 20 -14t8 -24h-19q0 9 -6.5 15t-15.5 6t-15 -6t-6 -15h-19q0 15 9.5 26t23.5 13q6 19 19 30q-6 11 -17 17t-23 6q-19 0 -32 -13t-14 -32q7 -16 7 -29h-19q0 20 -13.5 33.5t-33.5 13.5q-15 0 -26.5 -8t-16.5 -22q13 -4 21 -14.5t8 -24.5h-19q0 9 -6.5 15.5t-15.5 6.5
t-15 -6.5t-6 -15.5q0 -19 17 -21h4v-19h-4q-18 -2 -30 -15t-12 -32t12 -32t30 -14h4v-19zM517 398q0 19 -7 26.5t-24 7.5h-4v-283h4q17 0 24 7.5t7 26.5v215zM208 478h15v-375h-15v375zM376 478h15v-375h-15v375zM320 478h15v-375h-15v375zM264 478h15v-375h-15v375z" />
    <glyph glyph-name="estimated" unicode="&#x212e;" horiz-adv-x="784" 
d="M174 117q0 -15 12 -25q35 -29 78 -46q32 -12 67 -17t73 -5t73 5t67 17q57 23 98 64h50q-54 -65 -131 -95q-36 -14 -75.5 -19.5t-81.5 -5.5t-81.5 5.5t-75.5 19.5q-44 18 -81.5 47t-65 67.5t-43 86t-15.5 101.5t15.5 101.5t43 86t65 67.5t81.5 47q36 14 75.5 19.5
t81.5 5.5t81.5 -5.5t75.5 -19.5q44 -18 81.5 -47t65 -67.5t43 -86t15.5 -101.5v-17h-582q-10 0 -10 -10v-173zM634 517q0 15 -12 25q-35 29 -78 46q-32 12 -67 17t-73 5t-73 -5t-67 -17q-43 -17 -78 -46q-12 -10 -12 -25v-173q0 -10 10 -10h440q10 0 10 10v173z" />
    <glyph glyph-name="minus" unicode="&#x2212;" 
d="M512 335v-120h-460v120h460z" />
    <glyph glyph-name="lessequal" unicode="&#x2264;" 
d="M52 270v134l460 119v-125l-237 -61l237 -61v-125zM512 120v-120h-460v120h460z" />
    <glyph glyph-name="greaterequal" unicode="&#x2265;" 
d="M52 151v125l237 61l-237 61v125l460 -119v-134zM512 120v-120h-460v120h460z" />
    <glyph glyph-name="notequal" unicode="&#x2260;" 
d="M174 215l76 120h-198v120h274l87 136l99 -63l-47 -73h47v-120h-123l-76 -120h199v-120h-275l-86 -135l-99 63l46 72h-46v120h122z" />
    <glyph glyph-name="approxequal" unicode="&#x2248;" 
d="M52 397q42 46 82.5 63.5t75.5 17.5q23 0 41.5 -7t34.5 -16t31 -16t31 -7q22 0 41.5 10.5t45.5 35.5l77 -85q-42 -46 -82.5 -63.5t-75.5 -17.5q-23 0 -41.5 7t-34.5 16t-31 16t-31 7q-22 0 -41.5 -10.5t-45.5 -35.5zM52 158q42 46 82.5 63.5t75.5 17.5q23 0 41.5 -7
t34.5 -16t31 -16t31 -7q22 0 41.5 10.5t45.5 35.5l77 -85q-42 -46 -82.5 -63.5t-75.5 -17.5q-23 0 -41.5 7t-34.5 16t-31 16t-31 7q-22 0 -41.5 -10.5t-45.5 -35.5z" />
    <glyph glyph-name="partialdiff" unicode="&#x2202;" horiz-adv-x="588" 
d="M380 200q1 3 2.5 10t3 14.5t2.5 14t1 9.5q0 39 -24 60t-64 21q-50 0 -78 -23t-42 -65q-1 -3 -2.5 -10t-3 -14.5t-2.5 -14t-1 -9.5q0 -39 24 -60t64 -21q50 0 78 23t42 65zM438 481q3 13 3 26q0 39 -24 60t-64 21q-97 0 -120 -88h-126q13 49 33.5 88t52 66t75 41.5
t101.5 14.5q46 0 82 -15t61.5 -41t39 -60.5t13.5 -74.5q0 -14 -2 -29t-5 -32l-52 -258q-20 -101 -83 -155.5t-179 -54.5q-46 0 -82 15t-61.5 41t-39 60.5t-13.5 74.5q0 14 2 29t5 31q20 101 83 155.5t179 54.5q33 0 61.5 -11t45.5 -28z" />
    <glyph glyph-name="product" unicode="&#x220f;" horiz-adv-x="643" 
d="M84 700h513v-700h-135v566h-243v-566h-135v700z" />
    <glyph glyph-name="radical" unicode="&#x221a;" horiz-adv-x="571" 
d="M350 0h-180l-54 178h-68v122h157l55 -184l174 584h125z" />
    <glyph glyph-name="summation" unicode="&#x2211;" horiz-adv-x="692" 
d="M231 -62h381v-122h-542v122l255 320l-255 320v122h542v-122h-381l255 -320z" />
    <glyph glyph-name="integral" unicode="&#x222b;" horiz-adv-x="288" 
d="M224 -52q0 -63 -31.5 -97.5t-100.5 -34.5h-28v122q24 0 31 11.5t7 29.5v589q0 63 31.5 97.5t100.5 34.5h28v-122q-24 0 -31 -11.5t-7 -29.5v-589z" />
    <glyph glyph-name="infinity" unicode="&#x221e;" 
d="M73 336q0 26 9.5 49t26.5 40t40 27t49 10q29 0 54.5 -12.5t42.5 -32.5q17 20 42 32.5t54 12.5q26 0 49 -10t40 -27t27 -40t10 -49t-10 -49t-27 -40t-40 -26.5t-49 -9.5q-29 0 -54 12t-42 32q-17 -20 -42.5 -32t-54.5 -12q-26 0 -49 9.5t-40 26.5t-26.5 40t-9.5 49z
M161 336q0 -15 11 -26t26 -11t26.5 10.5t11.5 26.5t-11 27t-27 11t-26.5 -11.5t-10.5 -26.5zM354 336q0 -15 11 -26t26 -11t26.5 10.5t11.5 26.5t-11 27t-27 11t-26.5 -11.5t-10.5 -26.5z" />
    <glyph glyph-name="Delta" unicode="&#x394;" horiz-adv-x="628" 
d="M-31 0l250 700h130l250 -700h-630zM157 133h253l-126 354z" />
    <glyph glyph-name="Delta" unicode="&#x2206;" horiz-adv-x="628" 
d="M-31 0l250 700h130l250 -700h-630zM157 133h253l-126 354z" />
    <glyph glyph-name="Omega" unicode="&#x3a9;" horiz-adv-x="608" 
d="M342 219q39 11 66.5 41.5t38.5 78.5q2 9 6.5 28.5t9.5 42t9 43t4 30.5q0 48 -29.5 72.5t-85.5 24.5q-55 0 -94.5 -32.5t-53.5 -93.5q-2 -9 -6.5 -28.5t-9.5 -42t-9 -43t-4 -30.5q0 -68 59 -89l-47 -221h-208l28 130h110q-38 29 -57 69.5t-19 87.5q0 18 3 39.5t7.5 43.5
t9 43t8.5 38q12 58 33 106t55.5 82t86 52.5t125.5 18.5q56 0 99.5 -16.5t73 -44.5t44.5 -65t15 -78q0 -18 -3 -39.5t-7.5 -43.5t-9 -43t-8.5 -38q-15 -70 -41.5 -124t-76.5 -88h69l-28 -130h-209z" />
    <glyph glyph-name="Omega" unicode="&#x2126;" horiz-adv-x="608" 
d="M342 219q39 11 66.5 41.5t38.5 78.5q2 9 6.5 28.5t9.5 42t9 43t4 30.5q0 48 -29.5 72.5t-85.5 24.5q-55 0 -94.5 -32.5t-53.5 -93.5q-2 -9 -6.5 -28.5t-9.5 -42t-9 -43t-4 -30.5q0 -68 59 -89l-47 -221h-208l28 130h110q-38 29 -57 69.5t-19 87.5q0 18 3 39.5t7.5 43.5
t9 43t8.5 38q12 58 33 106t55.5 82t86 52.5t125.5 18.5q56 0 99.5 -16.5t73 -44.5t44.5 -65t15 -78q0 -18 -3 -39.5t-7.5 -43.5t-9 -43t-8.5 -38q-15 -70 -41.5 -124t-76.5 -88h69l-28 -130h-209z" />
    <glyph glyph-name="pi" unicode="&#x3c0;" horiz-adv-x="632" 
d="M43 400l25 116h606l-25 -116h-73l-84 -400h-132l84 400h-196l-84 -400h-132l84 400h-73z" />
    <glyph glyph-name="Euro" unicode="&#x20ac;" horiz-adv-x="615" 
d="M252 238q-2 -13 -2.5 -19t-0.5 -11q0 -58 26.5 -80t80.5 -22q32 0 61.5 13t52.5 36l77 -91q-42 -36 -91.5 -55t-114.5 -19q-48 0 -88 13t-69.5 39t-46 64.5t-16.5 89.5v19.5t2 22.5h-83l38 80h59q2 14 5 30t8 35h-81l38 80h60l1 2q11 51 30 95.5t50.5 77.5t78.5 52.5
t114 19.5q41 0 73.5 -10t57.5 -24.5t41.5 -31.5t25.5 -31l-96 -76q-13 23 -40.5 40t-69.5 17q-106 0 -132 -125l-2 -6h246l-38 -80h-225q-4 -20 -7.5 -35.5t-6.5 -29.5h208l-38 -80h-186z" />
    <glyph glyph-name="fi" unicode="&#xfb01;" horiz-adv-x="596" 
d="M326 584q-24 0 -34.5 -13t-14.5 -31l-5 -24h128l-25 -116h-127l-85 -400h-132l85 400h-73l25 116h72l11 52q13 59 57 95.5t107 36.5h124l-24 -116h-89zM605 583h-132l25 117h132zM481 0h-132l110 516h132z" />
    <glyph glyph-name="fl" unicode="&#xfb02;" horiz-adv-x="624" 
d="M326 584q-24 0 -34.5 -13t-14.5 -31l-5 -24h128l-25 -116h-127l-85 -400h-132l85 400h-73l25 116h72l11 52q13 59 57 95.5t107 36.5h124l-24 -116h-89zM567 116l-24 -116h-34q-68 0 -98 34.5t-30 86.5q0 21 7.5 64t22 113t36 169t49.5 233h132q-35 -163 -57.5 -269
t-36 -169t-18.5 -90t-5 -31q0 -25 30 -25h26z" />
    <glyph glyph-name="uniFB00" unicode="&#xfb00;" horiz-adv-x="688" 
d="M248 400l-85 -400h-132l85 400h-73l25 116h72l11 52q13 59 57 95.5t107 36.5h124l-24 -116h-89q-24 0 -34.5 -13t-14.5 -31l-5 -24h212l11 52q13 59 57 95.5t107 36.5h124l-24 -116h-89q-24 0 -34.5 -13t-14.5 -31l-5 -24h128l-25 -116h-127l-85 -400h-132l85 400h-212z
" />
    <glyph glyph-name="uniFB03" unicode="&#xfb03;" horiz-adv-x="940" 
d="M248 400l-85 -400h-132l85 400h-73l25 116h72l11 52q13 59 57 95.5t107 36.5h124l-24 -116h-89q-24 0 -34.5 -13t-14.5 -31l-5 -24h212l11 52q13 59 57 95.5t107 36.5h124l-24 -116h-89q-24 0 -34.5 -13t-14.5 -31l-5 -24h128l-25 -116h-127l-85 -400h-132l85 400h-212z
M949 583h-132l25 117h132zM825 0h-132l110 516h132z" />
    <glyph glyph-name="uniFB04" unicode="&#xfb04;" horiz-adv-x="968" 
d="M248 400l-85 -400h-132l85 400h-73l25 116h72l11 52q13 59 57 95.5t107 36.5h124l-24 -116h-89q-24 0 -34.5 -13t-14.5 -31l-5 -24h212l11 52q13 59 57 95.5t107 36.5h124l-24 -116h-89q-24 0 -34.5 -13t-14.5 -31l-5 -24h128l-25 -116h-127l-85 -400h-132l85 400h-212z
M911 116l-24 -116h-34q-68 0 -98 34.5t-30 86.5q0 21 7.5 64t22 113t36 169t49.5 233h132q-35 -163 -57.5 -269t-36 -169t-18.5 -90t-5 -31q0 -25 30 -25h26z" />
    <glyph glyph-name="breve" unicode="&#x2d8;" horiz-adv-x="420" 
d="M229 571q-47 0 -76 29.5t-29 73.5q0 12 3 26h87q-1 -3 -1 -6v-4q0 -11 8 -18.5t22 -7.5h94q15 0 27.5 10.5t15.5 25.5h99q-6 -27 -21 -50.5t-36 -41t-46.5 -27.5t-52.5 -10h-94v0z" />
    <glyph glyph-name="caron" unicode="&#x2c7;" horiz-adv-x="458" 
d="M136 700h128l39 -45l58 45h147l-153 -129h-120z" />
    <glyph glyph-name="circumflex" unicode="&#x2c6;" horiz-adv-x="458" 
d="M481 571h-128l-39 45l-58 -45h-147l153 129h120z" />
    <glyph glyph-name="dotaccent" unicode="&#x2d9;" horiz-adv-x="210" 
d="M238 577h-132l25 117h132z" />
    <glyph glyph-name="hungarumlaut" unicode="&#x2dd;" horiz-adv-x="499" 
d="M349 700l-108 -129h-109l50 129h167zM541 700l-108 -129h-109l50 129h167z" />
    <glyph glyph-name="commaaccent" horiz-adv-x="290" 
d="M11 -50h150l-31 -150l-55 -104h-94l55 104h-56z" />
    <glyph glyph-name="ogonek" unicode="&#x2db;" horiz-adv-x="269" 
d="M179 0q-42 -25 -70.5 -42.5t-28.5 -36.5q0 -17 25 -17q15 0 31 6t26 11l-20 -92q-14 -8 -36.5 -13t-48.5 -5q-21 0 -41.5 5.5t-37 16.5t-27 27.5t-10.5 38.5q0 35 29 60.5t77 40.5h132z" />
    <glyph glyph-name="ring" unicode="&#x2da;" horiz-adv-x="215" 
d="M113 635q0 31 21.5 53t52.5 22t53 -22t22 -53t-22 -52.5t-53 -21.5t-52.5 21.5t-21.5 52.5zM167 635q0 -8 6 -14t14 -6t14 6t6 14t-6 14t-14 6t-14 -6t-6 -14z" />
    <glyph glyph-name="tilde" unicode="&#x2dc;" horiz-adv-x="453" 
d="M126 572q5 26 14.5 49.5t24.5 41.5t34.5 28.5t45.5 10.5q18 0 31 -3.5t30 -11.5l27 -13q5 -2 10.5 -3.5t13.5 -1.5t17.5 7t14.5 24h98q-5 -26 -14.5 -49.5t-24.5 -41.5t-35 -28.5t-45 -10.5q-18 0 -31 3.5t-30 11.5l-27 13q-5 2 -10.5 3.5t-13.5 1.5t-17.5 -7t-15.5 -24
h-97z" />
    <glyph glyph-name="uni032C" unicode="&#x32c;" horiz-adv-x="458" 
d="M-19 0h128l39 -45l58 45h147l-153 -129h-120z" />
    <glyph glyph-name="zero.slashed" horiz-adv-x="556" 
d="M496 209q-12 -54 -31.5 -94.5t-49.5 -68.5t-72 -42t-99 -14q-46 0 -84 14t-65 38.5t-42 58t-15 72.5q0 12 3.5 37.5t9.5 57.5t13 67t13.5 66.5t12 55.5t7.5 34q12 54 31.5 94.5t49.5 68.5t72 42t99 14q46 0 84 -14t65 -38.5t42 -58t15 -72.5q0 -12 -3.5 -37.5t-9.5 -57.5
t-13 -67t-13.5 -66.5t-12 -55.5t-7.5 -34zM403 387l-236 -194q-1 -5 -1 -8v-5q0 -30 20 -52t68 -22q44 0 71.5 25t37.5 71zM230 498q-8 -36 -19 -86.5t-21 -99.5l236 195q1 4 1 7.5v5.5q0 30 -20 52t-68 22q-44 0 -71.5 -25t-37.5 -71z" />
    <glyph glyph-name="one.tlf" 
d="M292 530l-158 -116l36 170l158 116h132l-123 -584h165l-25 -116h-459l24 116h163z" />
    <glyph glyph-name="two.tlf" 
d="M552 527q0 -78 -37 -138t-100 -111l-199 -162h257l-24 -116h-459l24 116l319 260q38 32 64.5 66t26.5 78q0 30 -20 52t-68 22q-28 0 -48 -9.5t-33.5 -25.5t-21 -36.5t-10.5 -42.5h-131q11 55 30 98t49 72.5t73 44.5t102 15q46 0 84 -14t65 -38.5t42 -58t15 -72.5z" />
    <glyph glyph-name="three.tlf" 
d="M236 -10q-48 0 -86.5 14t-65 38.5t-40.5 58t-14 72.5q0 5 0.5 13.5t1.5 13.5h128q-1 -5 -1.5 -11t-0.5 -9q0 -30 20 -52t68 -22q25 0 45.5 9.5t35 25.5t22.5 35t8 39q0 33 -23 54.5t-63 21.5h-58l25 116h58q54 0 88.5 31t34.5 82q0 30 -20 52t-68 22q-43 0 -71 -24.5
t-38 -69.5h-131q13 51 32.5 90.5t49 66t71 40t97.5 13.5q46 0 84 -14t65 -38.5t42 -58t15 -72.5q0 -69 -33 -118.5t-85 -71.5q24 -19 37 -50t13 -66q0 -109 -64.5 -170t-178.5 -61z" />
    <glyph glyph-name="four.tlf" 
d="M426 160l-34 -160h-132l34 160h-302l24 113l392 427h132l-91 -427h72l-23 -113h-72zM317 273l43 194l-178 -194h135z" />
    <glyph glyph-name="five.tlf" 
d="M378 202q6 26 9 40.5t4.5 22t1.5 10v4.5q0 25 -17.5 44t-60.5 19q-33 0 -61.5 -14.5t-42.5 -42.5h-134l88 415h424l-25 -116h-292l-32 -154q14 11 37.5 19.5t62.5 8.5q35 0 67.5 -13t58 -36.5t41 -56t15.5 -71.5q0 -6 -0.5 -10.5t-1.5 -12t-3 -19t-6 -30.5
q-11 -53 -30.5 -94t-49.5 -69t-72.5 -42t-99.5 -14q-46 0 -84 14t-65 38.5t-42 58t-15 72.5q0 5 0.5 11.5t1.5 15.5h128q-1 -7 -1.5 -12t-0.5 -8q0 -30 20 -52t68 -22q44 0 71 25t38 71z" />
    <glyph glyph-name="six.tlf" 
d="M220 423q15 12 41 20t59 8q36 0 70 -13t60 -37.5t41.5 -60t15.5 -80.5q0 -12 -1 -24.5t-4 -26.5q-12 -53 -31.5 -94t-49.5 -69t-72 -42t-99 -14q-46 0 -84 14t-65 38.5t-41.5 58t-14.5 72.5q0 15 3.5 41t9.5 58.5t13 67t13 65t11.5 53.5t7.5 33q12 54 31.5 94.5
t49.5 68.5t72 42t99 14q46 0 84 -14t65 -38.5t42 -58t15 -72.5q0 -5 -0.5 -11.5t-1.5 -15.5h-128q1 7 1.5 12t0.5 8q0 30 -20 52t-68 22q-44 0 -71 -25t-38 -71q-4 -15 -7.5 -34t-8.5 -41zM181 239q-5 -22 -7 -37.5t-2 -21.5q0 -30 20 -52t68 -22q44 0 71.5 25t37.5 71
q5 22 7 37.5t2 21.5q0 30 -20 52t-68 22q-44 0 -71.5 -25t-37.5 -71z" />
    <glyph glyph-name="seven.tlf" 
d="M223 0h-148l343 584h-306l24 116h454l-24 -116z" />
    <glyph glyph-name="eight.tlf" 
d="M116 483q0 35 10.5 75t37 73.5t72 56t115.5 22.5q45 0 82.5 -14.5t64 -39.5t41 -58.5t14.5 -71.5q0 -25 -5 -52.5t-17 -53.5t-32 -49.5t-50 -40.5q19 -24 29.5 -53t10.5 -64q0 -28 -8.5 -66.5t-34 -73t-71.5 -59t-120 -24.5q-45 0 -84 14t-67.5 39.5t-44.5 61t-16 78.5
q0 20 4.5 46.5t16 53.5t32 52t53.5 43q-16 22 -24.5 49t-8.5 56zM171 193q0 -39 23.5 -63t68.5 -24q27 0 46 10t30.5 25.5t16.5 34.5t5 37q0 39 -23.5 63t-68.5 24q-27 0 -46 -10t-30.5 -25.5t-16.5 -34.5t-5 -37zM425 514q0 35 -21 57.5t-62 22.5q-26 0 -44.5 -9.5
t-30.5 -24.5t-17.5 -34t-5.5 -39q0 -35 21 -57.5t62 -22.5q25 0 43.5 9.5t30.5 24.5t18 34t6 39z" />
    <glyph glyph-name="nine.tlf" 
d="M379 277q-15 -12 -41 -20t-59 -8q-36 0 -70 13t-60 37.5t-41.5 60t-15.5 80.5q0 12 1 24.5t4 26.5q12 53 31.5 94t49.5 68.5t72 42t99 14.5q46 0 84 -14t65 -38.5t41.5 -58t14.5 -72.5q0 -15 -3.5 -41t-9.5 -58.5t-13 -67t-13 -65t-11.5 -53.5t-7.5 -33
q-12 -54 -31.5 -94.5t-49.5 -68.5t-72 -42t-99 -14q-46 0 -84 14t-65 38.5t-42 58t-15 72.5q0 5 0.5 11.5t1.5 15.5h128q-1 -7 -1.5 -12t-0.5 -8q0 -30 20 -52t68 -22q44 0 71 25t38 71q4 15 7.5 34t8.5 41zM418 461q5 22 7 37.5t2 21.5q0 30 -20 52t-68 22q-44 0 -71.5 -25
t-37.5 -71q-5 -22 -7 -37.5t-2 -21.5q0 -30 20 -52t68 -22q44 0 71.5 25t37.5 71z" />
    <glyph glyph-name="zero.tlf" 
d="M497 209q-12 -54 -31.5 -94.5t-49.5 -68.5t-72 -42t-99 -14q-46 0 -84 14t-65 38.5t-42 58t-15 72.5q0 12 3.5 37.5t9.5 57.5t13 67t13.5 66.5t12 55.5t7.5 34q12 54 31.5 94.5t49.5 68.5t72 42t99 14q46 0 84 -14t65 -38.5t42 -58t15 -72.5q0 -12 -3.5 -37.5t-9.5 -57.5
t-13 -67t-13.5 -66.5t-12 -55.5t-7.5 -34zM231 498q-5 -24 -11.5 -54.5t-14 -63.5t-14 -65.5t-12 -60.5t-9 -47.5t-3.5 -26.5q0 -30 20 -52t68 -22q44 0 71.5 25t37.5 71q7 35 18 85.5t21.5 98.5t17.5 85.5t7 48.5q0 30 -20 52t-68 22q-44 0 -71.5 -25t-37.5 -71z" />
    <glyph glyph-name="zero.slashed.tlf" 
d="M496 209q-12 -54 -31.5 -94.5t-49.5 -68.5t-72 -42t-99 -14q-46 0 -84 14t-65 38.5t-42 58t-15 72.5q0 12 3.5 37.5t9.5 57.5t13 67t13.5 66.5t12 55.5t7.5 34q12 54 31.5 94.5t49.5 68.5t72 42t99 14q46 0 84 -14t65 -38.5t42 -58t15 -72.5q0 -12 -3.5 -37.5t-9.5 -57.5
t-13 -67t-13.5 -66.5t-12 -55.5t-7.5 -34zM230 498q-8 -36 -19 -87t-21 -100l236 195q1 5 1 8.5v5.5q0 30 -20 52t-68 22q-44 0 -71.5 -25t-37.5 -71zM363 202q8 35 18.5 85.5t20.5 98.5l-235 -194q-1 -4 -1 -7v-5q0 -30 20 -52t68 -22q44 0 71.5 25t37.5 71z" />
    <glyph glyph-name="one.case" horiz-adv-x="378" 
d="M226 510l-158 -116l36 190l158 116h134l-148 -700h-134z" />
    <glyph glyph-name="two.case" horiz-adv-x="542" 
d="M6 130l319 255q38 31 64 61.5t26 69.5q0 25 -20 44.5t-67 19.5q-28 0 -47.5 -9.5t-33 -24.5t-21 -33.5t-10.5 -35.5h-133q11 55 30 98.5t49.5 73.5t73.5 45.5t102 15.5q46 0 84 -13.5t65.5 -38.5t42.5 -60t15 -77q0 -74 -35.5 -136.5t-101.5 -110.5l-197 -144h256
l-25 -130h-461z" />
    <glyph glyph-name="three.case" horiz-adv-x="547" 
d="M235 -10q-98 0 -152.5 52t-54.5 137q0 4 0.5 11t0.5 10h130q0 -2 -0.5 -7.5t-0.5 -8.5q0 -25 20 -44.5t67 -19.5q25 0 45 8.5t34 22t22 30.5t8 34q0 31 -22.5 49.5t-62.5 18.5h-58l25 130h58q54 0 88 26.5t34 76.5q0 25 -20 44.5t-67 19.5q-42 0 -70 -20t-37 -57h-134
q13 49 32.5 88t49.5 65t71 40t98 14q46 0 84 -13.5t65.5 -38.5t42.5 -60t15 -77q0 -66 -32.5 -115t-84.5 -71q23 -19 36 -50t13 -64q0 -113 -64.5 -172t-178.5 -59z" />
    <glyph glyph-name="four.case" horiz-adv-x="531" 
d="M284 151h-301l25 127l391 422h134l-91 -422h72l-23 -127h-72l-34 -151h-134zM311 278l41 190l-176 -190h135z" />
    <glyph glyph-name="five.case" horiz-adv-x="553" 
d="M251 -10q-46 0 -84 13.5t-65.5 38.5t-42.5 60t-15 77v8.5t1 12.5h130q0 -5 -0.5 -9t-0.5 -7q0 -25 20 -44.5t67 -19.5q43 0 70.5 22t36.5 62q15 67 15 75q0 21 -17 37t-59 16q-33 0 -61.5 -12.5t-42.5 -37.5h-136l88 418h426l-25 -130h-292l-31 -130q14 8 37 15t62 7
q34 0 67 -12.5t58.5 -36t41 -57t15.5 -74.5q0 -6 -0.5 -10.5t-1.5 -11t-3 -17t-5 -28.5q-11 -54 -30 -95.5t-49.5 -70.5t-73 -44t-100.5 -15z" />
    <glyph glyph-name="six.case" horiz-adv-x="557" 
d="M250 -10q-46 0 -84 13.5t-65 38.5t-42 60t-15 77q0 15 3.5 42t9.5 59t12.5 65.5t13 62.5t11.5 49.5t7 27.5q12 54 31.5 96t49.5 70.5t72 43.5t100 15q46 0 84 -13.5t65.5 -38.5t42.5 -60t15 -77q0 -4 -0.5 -8.5t-1.5 -12.5h-130q1 5 1.5 9t0.5 7q0 25 -20 44.5t-67 19.5
q-44 0 -70.5 -22.5t-37.5 -63.5l-15 -60q15 9 40.5 15t58.5 6q36 0 69.5 -12.5t60 -37t42 -62t15.5 -87.5q0 -25 -4 -41q-13 -54 -32.5 -95.5t-49 -70.5t-71.5 -44t-100 -15zM260 120q43 0 70.5 22.5t36.5 63.5q5 18 7 32.5t2 19.5q0 28 -19.5 47.5t-67.5 19.5
q-43 0 -70.5 -22.5t-37.5 -63.5q-4 -21 -6 -35t-2 -20q0 -25 20 -44.5t67 -19.5z" />
    <glyph glyph-name="seven.case" horiz-adv-x="476" 
d="M382 570h-306l24 130h456l-24 -130l-342 -570h-150z" />
    <glyph glyph-name="eight.case" horiz-adv-x="543" 
d="M245 -10q-45 0 -84 13.5t-67.5 39t-45 62.5t-16.5 84q0 16 4 40.5t15.5 51.5t31.5 53t52 45q-30 45 -30 105q0 31 10.5 70t37 73.5t72 58.5t115.5 24q46 0 83.5 -14.5t64 -40t41 -60.5t14.5 -76q0 -21 -5 -47t-16 -52t-30.5 -50t-47.5 -42q17 -23 26 -52t9 -64
q0 -14 -3.5 -36.5t-13 -47t-25.5 -49.5t-42 -44.5t-63 -32t-87 -12.5zM253 120q27 0 45.5 10t30 24t16 30.5t4.5 30.5q0 37 -23 58t-68 21q-27 0 -45.5 -10t-30 -24t-16 -31t-4.5 -30q0 -37 23 -58t68 -21zM317 414q25 0 43 8t30 21.5t17.5 30t5.5 33.5q0 32 -20.5 52.5
t-61.5 20.5q-25 0 -43 -8.5t-30 -22t-17.5 -30t-5.5 -33.5q0 -32 20.5 -52t61.5 -20z" />
    <glyph glyph-name="nine.case" horiz-adv-x="557" 
d="M344 710q46 0 84 -13.5t65 -38.5t42 -60t15 -77q0 -15 -3.5 -42t-9.5 -58.5t-12.5 -65.5t-13 -63t-11.5 -50t-7 -27q-12 -54 -31.5 -96t-49.5 -70.5t-72 -43.5t-100 -15q-46 0 -84 13.5t-65.5 38.5t-42.5 60t-15 77q0 4 0.5 8.5t1.5 12.5h130q-1 -5 -1.5 -9t-0.5 -7
q0 -25 20 -44.5t67 -19.5q44 0 70.5 22.5t37.5 63.5l15 60q-15 -9 -40.5 -15t-58.5 -6q-36 0 -69.5 12.5t-60 37t-42 62t-15.5 87.5q0 7 1.5 22t3.5 24q13 54 32 95t49 68.5t71.5 42t99.5 14.5zM334 580q-43 0 -70.5 -22.5t-36.5 -63.5q-5 -18 -7 -32.5t-2 -19.5
q0 -28 19.5 -47.5t67.5 -19.5q43 0 70.5 22.5t37.5 63.5q4 21 6 35t2 20q0 25 -20 44.5t-67 19.5z" />
    <glyph glyph-name="zero.case" horiz-adv-x="567" 
d="M236 494q-8 -38 -19 -88t-21 -96t-16.5 -81.5t-6.5 -44.5q0 -25 20 -44.5t67 -19.5q44 0 71 22.5t36 63.5q8 38 19 88t21 96t17 81.5t7 44.5q0 25 -20 44.5t-67 19.5q-44 0 -71.5 -22.5t-36.5 -63.5zM503 215q-14 -54 -34 -95.5t-49 -70.5t-70.5 -44t-99.5 -15
q-46 0 -84 13.5t-65.5 38.5t-42.5 60t-15 77q0 12 4 37.5t9.5 57t12.5 66t13.5 64.5t11.5 52t7 29q14 54 34 95.5t49 70.5t70.5 44t99.5 15q46 0 84 -13.5t65.5 -38.5t42.5 -60t15 -77q0 -12 -4 -37.5t-9.5 -57t-12.5 -66t-13.5 -64.5t-11.5 -52t-7 -29z" />
    <glyph glyph-name="zero.slashed.case" horiz-adv-x="567" 
d="M503 215q-14 -54 -34 -95.5t-49 -70.5t-70.5 -44t-99.5 -15q-46 0 -84 13.5t-65.5 38.5t-42.5 60t-15 77q0 12 4 37.5t9.5 57t12.5 66t13.5 64.5t11.5 52t7 29q14 54 34 95.5t49 70.5t70.5 44t99.5 15q46 0 84 -13.5t65.5 -38.5t42.5 -60t15 -77q0 -12 -4 -37.5t-9.5 -57
t-12.5 -66t-13.5 -64.5t-11.5 -52t-7 -29zM236 494q-8 -37 -18.5 -83.5t-19.5 -91.5l232 192q0 2 0.5 2.5t0.5 2.5q0 25 -20 44.5t-67 19.5q-44 0 -71.5 -22.5t-36.5 -63.5zM367 206q8 36 18 82t20 91l-232 -191v-4q0 -25 20 -44.5t67 -19.5q44 0 71 22.5t36 63.5z" />
    <glyph glyph-name="uni21B2" unicode="&#x21b2;" horiz-adv-x="800" 
d="M755 237h-481l161 -161l-84 -86l-306 306l306 306l84 -86l-160 -160h361v344h119v-463z" />
    <glyph glyph-name="uni21B3" unicode="&#x21b3;" horiz-adv-x="800" 
d="M45 700h119v-344h361l-160 160l84 86l306 -306l-306 -306l-84 86l161 161h-481v463z" />
    <glyph glyph-name="uni21B0" unicode="&#x21b0;" horiz-adv-x="800" 
d="M435 76l-84 -86l-306 306l306 306l84 -86l-160 -160h480v-540h-119v421h-362z" />
    <glyph glyph-name="uni21B1" unicode="&#x21b1;" horiz-adv-x="800" 
d="M526 237h-362v-421h-119v540h480l-160 160l84 86l306 -306l-306 -306l-84 86z" />
    <glyph glyph-name="uni2190" unicode="&#x2190;" horiz-adv-x="800" 
d="M435 76l-84 -86l-306 306l306 306l84 -86l-160 -160h480v-119h-481z" />
    <glyph glyph-name="uni2191" unicode="&#x2191;" horiz-adv-x="800" 
d="M180 320l-86 84l306 306l306 -306l-86 -84l-160 160v-480h-119v481z" />
    <glyph glyph-name="uni2192" unicode="&#x2192;" horiz-adv-x="800" 
d="M526 237h-481v119h480l-160 160l84 86l306 -306l-306 -306l-84 86z" />
    <glyph glyph-name="uni2193" unicode="&#x2193;" horiz-adv-x="800" 
d="M341 219v481h119v-480l160 160l86 -84l-306 -306l-306 306l86 84z" />
    <glyph glyph-name="uni2196" unicode="&#x2196;" horiz-adv-x="800" 
d="M251 139h-120v433h433v-121h-228l373 -372l-84 -84l-374 373v-229z" />
    <glyph glyph-name="uni2197" unicode="&#x2197;" horiz-adv-x="800" 
d="M549 368l-374 -373l-84 84l373 372h-228v121h433v-433h-120v229z" />
    <glyph glyph-name="uni2198" unicode="&#x2198;" horiz-adv-x="800" 
d="M549 433h120v-433h-433v121h228l-373 372l84 84l374 -373v229z" />
    <glyph glyph-name="uni2199" unicode="&#x2199;" horiz-adv-x="800" 
d="M251 204l374 373l84 -84l-373 -372h228v-121h-433v433h120v-229z" />
    <glyph glyph-name="uni25A0" unicode="&#x25a0;" horiz-adv-x="800" 
d="M142 516h516v-516h-516v516z" />
    <glyph glyph-name="uni25A1" unicode="&#x25a1;" horiz-adv-x="800" 
d="M142 516h516v-516h-516v516zM261 119h278v278h-278v-278z" />
    <glyph glyph-name="uni25CB" unicode="&#x25cb;" horiz-adv-x="800" 
d="M130 260q0 56 21 105t58 86t86 58t105 21t105 -21t86 -58t58 -86t21 -105t-21 -105t-58 -86t-86 -58t-105 -21t-105 21t-86 58t-58 86t-21 105zM249 260q0 -31 12 -58.5t32.5 -48t48 -32.5t58.5 -12t58.5 12t48 32.5t32.5 48t12 58.5t-12 58.5t-32.5 48t-48 32.5
t-58.5 12t-58.5 -12t-48 -32.5t-32.5 -48t-12 -58.5z" />
    <glyph glyph-name="uni25CF" unicode="&#x25cf;" horiz-adv-x="800" 
d="M130 260q0 56 21 105t58 86t86 58t105 21t105 -21t86 -58t58 -86t21 -105t-21 -105t-58 -86t-86 -58t-105 -21t-105 21t-86 58t-58 86t-21 105z" />
    <glyph glyph-name="onethird" unicode="&#x2153;" horiz-adv-x="776" 
d="M181 582l-92 -68l25 118l92 68h93l-86 -406h-93zM651 700l-481 -700h-106l481 700h106zM550 -6q-59 0 -94 30t-35 82v10h91q0 -1 -0.5 -3.5t-0.5 -3.5q0 -13 9 -23.5t35 -10.5t40 16.5t14 33.5t-12 26.5t-33 9.5h-36l18 81h36q27 0 44.5 13.5t17.5 41.5q0 13 -9 23.5
t-35 10.5q-41 0 -52 -38h-92q8 28 19.5 50t28.5 37.5t41.5 23.5t59.5 8q27 0 50.5 -8t41 -22.5t27.5 -35t10 -46.5q0 -37 -18 -65.5t-47 -40.5q13 -11 19 -29t6 -37q0 -67 -39.5 -100.5t-104.5 -33.5z" />
    <glyph glyph-name="uni2155" unicode="&#x2155;" horiz-adv-x="777" 
d="M181 582l-92 -68l25 118l92 68h93l-86 -406h-93zM651 700l-481 -700h-106l481 700h106zM560 -6q-27 0 -50.5 8t-41 22.5t-27.5 35t-10 46.5v10h91q0 -2 -0.5 -4t-0.5 -3q0 -13 9 -23.5t35 -10.5q24 0 36 12t17 32q5 25 7 33t2 10q0 11 -7.5 19t-27.5 8q-18 0 -33 -6.5
t-22 -20.5h-94l52 244h262l-18 -80h-169l-13 -67q8 3 19 7t34 4q17 0 36 -7t35 -20.5t26.5 -33.5t10.5 -45q0 -7 -0.5 -12t-4.5 -25q-7 -31 -18 -55.5t-29 -42t-44 -26.5t-62 -9z" />
    <glyph glyph-name="uni2159" unicode="&#x2159;" horiz-adv-x="772" 
d="M181 582l-92 -68l25 118l92 68h93l-86 -406h-93zM651 700l-481 -700h-106l481 700h106zM554 -6q-27 0 -50.5 8t-41 22.5t-27.5 35t-10 46.5q0 13 4.5 40.5t10 55.5t10.5 50.5t6 26.5q7 31 18.5 56t29 42t43.5 26t62 9q27 0 50.5 -8t41 -22.5t27.5 -35t10 -46.5v-10h-90v7
q0 13 -9 23.5t-35 10.5q-24 0 -36.5 -12.5t-17.5 -34.5l-6 -28q8 5 20.5 7.5t30.5 2.5q19 0 38.5 -7t35.5 -22t25.5 -37.5t9.5 -53.5q0 -7 -1 -18.5t-3 -19.5q-6 -23 -15.5 -43.5t-26 -36t-42 -25t-62.5 -9.5zM559 75q24 0 36 12.5t17 34.5q5 18 5 26q0 16 -10 26.5
t-34 10.5t-36.5 -12.5t-17.5 -34.5q-2 -11 -3 -18.5t-1 -10.5q0 -13 9 -23.5t35 -10.5z" />
    <glyph glyph-name="oneeighth" unicode="&#x215b;" horiz-adv-x="744" 
d="M181 582l-92 -68l25 118l92 68h93l-86 -406h-93zM651 700l-481 -700h-106l481 700h106zM542 -6q-26 0 -49.5 7.5t-41.5 22.5t-29 37t-11 51q0 7 1.5 20.5t7.5 29.5t17.5 31.5t31.5 27.5q-17 26 -17 61q0 16 5 38.5t20 42.5t42 34.5t72 14.5q57 0 92.5 -31.5t35.5 -82.5
q0 -11 -2.5 -26t-8.5 -30t-17 -29.5t-29 -24.5q9 -14 14.5 -30t5.5 -36q0 -10 -3.5 -31.5t-18 -43t-42.5 -37.5t-76 -16zM546 75q16 0 25 5.5t13.5 13.5t5.5 16.5t1 14.5q0 21 -12 32.5t-32 11.5q-16 0 -25.5 -5.5t-14 -14t-5.5 -17t-1 -14.5q0 -20 12 -31.5t33 -11.5z
M584 242q27 0 36 16t9 33t-9.5 28.5t-32.5 11.5q-26 0 -35 -16t-9 -33t9 -28.5t32 -11.5z" />
    <glyph glyph-name="twothirds" unicode="&#x2154;" horiz-adv-x="877" 
d="M61 374l188 147q22 17 34 33.5t12 36.5q0 13 -9 23.5t-35 10.5q-17 0 -27 -5.5t-16 -14t-9 -18t-4 -17.5h-92q6 31 17 56.5t29 43t44 27t63 9.5q27 0 50.5 -8t41 -22.5t27.5 -35t10 -46.5q0 -83 -78 -143l-102 -77h138l-16 -80h-283zM753 700l-481 -700h-106l481 700h106
zM651 -6q-59 0 -94 30t-35 82v10h91q0 -1 -0.5 -3.5t-0.5 -3.5q0 -13 9 -23.5t35 -10.5t40 16.5t14 33.5t-12 26.5t-33 9.5h-36l18 81h36q27 0 44.5 13.5t17.5 41.5q0 13 -9 23.5t-35 10.5q-41 0 -52 -38h-92q8 28 19.5 50t28.5 37.5t41.5 23.5t59.5 8q27 0 50.5 -8
t41 -22.5t27.5 -35t10 -46.5q0 -37 -18 -65.5t-47 -40.5q13 -11 19 -29t6 -37q0 -67 -39.5 -100.5t-104.5 -33.5z" />
    <glyph glyph-name="uni2156" unicode="&#x2156;" horiz-adv-x="878" 
d="M61 374l188 147q22 17 34 33.5t12 36.5q0 13 -9 23.5t-35 10.5q-17 0 -27 -5.5t-16 -14t-9 -18t-4 -17.5h-92q6 31 17 56.5t29 43t44 27t63 9.5q27 0 50.5 -8t41 -22.5t27.5 -35t10 -46.5q0 -83 -78 -143l-102 -77h138l-16 -80h-283zM753 700l-481 -700h-106l481 700h106
zM661 -6q-27 0 -50.5 8t-41 22.5t-27.5 35t-10 46.5v10h91q0 -2 -0.5 -4t-0.5 -3q0 -13 9 -23.5t35 -10.5q24 0 36 12t17 32q5 25 7 33t2 10q0 11 -7.5 19t-27.5 8q-18 0 -33 -6.5t-22 -20.5h-94l52 244h262l-18 -80h-169l-13 -67q8 3 19 7t34 4q17 0 36 -7t35 -20.5
t26.5 -33.5t10.5 -45q0 -7 -0.5 -12t-4.5 -25q-7 -31 -18 -55.5t-29 -42t-44 -26.5t-62 -9z" />
    <glyph glyph-name="uni2157" unicode="&#x2157;" horiz-adv-x="875" 
d="M202 288q-59 0 -94 30t-35 82v10h91q0 -1 -0.5 -3.5t-0.5 -3.5q0 -13 9 -23.5t35 -10.5t40 16.5t14 33.5t-12 26.5t-33 9.5h-36l18 81h36q27 0 44.5 13.5t17.5 41.5q0 13 -9 23.5t-35 10.5q-41 0 -52 -38h-92q8 28 19.5 50t28.5 37.5t41.5 23.5t59.5 8q27 0 50.5 -8
t41 -22.5t27.5 -35t10 -46.5q0 -37 -18 -65.5t-47 -40.5q13 -11 19 -29t6 -37q0 -67 -39.5 -100.5t-104.5 -33.5zM750 700l-481 -700h-106l481 700h106zM658 -6q-27 0 -50.5 8t-41 22.5t-27.5 35t-10 46.5v10h91q0 -2 -0.5 -4t-0.5 -3q0 -13 9 -23.5t35 -10.5q24 0 36 12
t17 32q5 25 7 33t2 10q0 11 -7.5 19t-27.5 8q-18 0 -33 -6.5t-22 -20.5h-94l52 244h262l-18 -80h-169l-13 -67q8 3 19 7t34 4q17 0 36 -7t35 -20.5t26.5 -33.5t10.5 -45q0 -7 -0.5 -12t-4.5 -25q-7 -31 -18 -55.5t-29 -42t-44 -26.5t-62 -9z" />
    <glyph glyph-name="threeeighths" unicode="&#x215c;" horiz-adv-x="843" 
d="M202 288q-59 0 -94 30t-35 82v10h91q0 -1 -0.5 -3.5t-0.5 -3.5q0 -13 9 -23.5t35 -10.5t40 16.5t14 33.5t-12 26.5t-33 9.5h-36l18 81h36q27 0 44.5 13.5t17.5 41.5q0 13 -9 23.5t-35 10.5q-41 0 -52 -38h-92q8 28 19.5 50t28.5 37.5t41.5 23.5t59.5 8q27 0 50.5 -8
t41 -22.5t27.5 -35t10 -46.5q0 -37 -18 -65.5t-47 -40.5q13 -11 19 -29t6 -37q0 -67 -39.5 -100.5t-104.5 -33.5zM750 700l-481 -700h-106l481 700h106zM640 -6q-26 0 -49.5 7.5t-41.5 22.5t-29 37t-11 51q0 7 1.5 20.5t7.5 29.5t17.5 31.5t31.5 27.5q-17 26 -17 61
q0 16 5 38.5t20 42.5t42 34.5t72 14.5q57 0 92.5 -31.5t35.5 -82.5q0 -11 -2.5 -26t-8.5 -30t-17 -29.5t-29 -24.5q9 -14 14.5 -30t5.5 -36q0 -10 -3.5 -31.5t-18 -43t-42.5 -37.5t-76 -16zM644 75q16 0 25 5.5t13.5 13.5t5.5 16.5t1 14.5q0 21 -12 32.5t-32 11.5
q-16 0 -25.5 -5.5t-14 -14t-5.5 -17t-1 -14.5q0 -20 12 -31.5t33 -11.5zM682 242q27 0 36 16t9 33t-9.5 28.5t-32.5 11.5q-26 0 -35 -16t-9 -33t9 -28.5t32 -11.5z" />
    <glyph glyph-name="uni2158" unicode="&#x2158;" horiz-adv-x="830" 
d="M184 378h-170l17 79l221 243h93l-52 -243h41l-15 -79h-42l-18 -84h-93zM200 457l18 78l-70 -78h52zM705 700l-481 -700h-106l481 700h106zM613 -6q-27 0 -50.5 8t-41 22.5t-27.5 35t-10 46.5v10h91q0 -2 -0.5 -4t-0.5 -3q0 -13 9 -23.5t35 -10.5q24 0 36 12t17 32
q5 25 7 33t2 10q0 11 -7.5 19t-27.5 8q-18 0 -33 -6.5t-22 -20.5h-94l52 244h262l-18 -80h-169l-13 -67q8 3 19 7t34 4q17 0 36 -7t35 -20.5t26.5 -33.5t10.5 -45q0 -7 -0.5 -12t-4.5 -25q-7 -31 -18 -55.5t-29 -42t-44 -26.5t-62 -9z" />
    <glyph glyph-name="uni215A" unicode="&#x215a;" horiz-adv-x="871" 
d="M211 288q-27 0 -50.5 8t-41 22.5t-27.5 35t-10 46.5v10h91q0 -2 -0.5 -4t-0.5 -3q0 -13 9 -23.5t35 -10.5q24 0 36 12t17 32q5 25 7 33t2 10q0 11 -7.5 19t-27.5 8q-18 0 -33 -6.5t-22 -20.5h-94l52 244h262l-18 -80h-169l-13 -67q8 3 19 7t34 4q17 0 36 -7t35 -20.5
t26.5 -33.5t10.5 -45q0 -7 -0.5 -12t-4.5 -25q-7 -31 -18 -55.5t-29 -42t-44 -26.5t-62 -9zM751 700l-481 -700h-106l481 700h106zM653 -6q-27 0 -50.5 8t-41 22.5t-27.5 35t-10 46.5q0 13 4.5 40.5t10 55.5t10.5 50.5t6 26.5q7 31 18.5 56t29 42t43.5 26t62 9q27 0 50.5 -8
t41 -22.5t27.5 -35t10 -46.5v-10h-90v7q0 13 -9 23.5t-35 10.5q-24 0 -36.5 -12.5t-17.5 -34.5l-6 -28q8 5 20.5 7.5t30.5 2.5q19 0 38.5 -7t35.5 -22t25.5 -37.5t9.5 -53.5q0 -7 -1 -18.5t-3 -19.5q-6 -23 -15.5 -43.5t-26 -36t-42 -25t-62.5 -9.5zM658 75q24 0 36 12.5
t17 34.5q5 18 5 26q0 16 -10 26.5t-34 10.5t-36.5 -12.5t-17.5 -34.5q-2 -11 -3 -18.5t-1 -10.5q0 -13 9 -23.5t35 -10.5z" />
    <glyph glyph-name="fiveeighths" unicode="&#x215d;" horiz-adv-x="844" 
d="M211 288q-27 0 -50.5 8t-41 22.5t-27.5 35t-10 46.5v10h91q0 -2 -0.5 -4t-0.5 -3q0 -13 9 -23.5t35 -10.5q24 0 36 12t17 32q5 25 7 33t2 10q0 11 -7.5 19t-27.5 8q-18 0 -33 -6.5t-22 -20.5h-94l52 244h262l-18 -80h-169l-13 -67q8 3 19 7t34 4q17 0 36 -7t35 -20.5
t26.5 -33.5t10.5 -45q0 -7 -0.5 -12t-4.5 -25q-7 -31 -18 -55.5t-29 -42t-44 -26.5t-62 -9zM751 700l-481 -700h-106l481 700h106zM641 -6q-26 0 -49.5 7.5t-41.5 22.5t-29 37t-11 51q0 7 1.5 20.5t7.5 29.5t17.5 31.5t31.5 27.5q-17 26 -17 61q0 16 5 38.5t20 42.5t42 34.5
t72 14.5q57 0 92.5 -31.5t35.5 -82.5q0 -11 -2.5 -26t-8.5 -30t-17 -29.5t-29 -24.5q9 -14 14.5 -30t5.5 -36q0 -10 -3.5 -31.5t-18 -43t-42.5 -37.5t-76 -16zM645 75q16 0 25 5.5t13.5 13.5t5.5 16.5t1 14.5q0 21 -12 32.5t-32 11.5q-16 0 -25.5 -5.5t-14 -14t-5.5 -17
t-1 -14.5q0 -20 12 -31.5t33 -11.5zM683 242q27 0 36 16t9 33t-9.5 28.5t-32.5 11.5q-26 0 -35 -16t-9 -33t9 -28.5t32 -11.5z" />
    <glyph glyph-name="seveneighths" unicode="&#x215e;" horiz-adv-x="770" 
d="M274 620h-177l16 80h280l-17 -80l-195 -326h-102zM678 700l-481 -700h-106l481 700h106zM568 -6q-26 0 -49.5 7.5t-41.5 22.5t-29 37t-11 51q0 7 1.5 20.5t7.5 29.5t17.5 31.5t31.5 27.5q-17 26 -17 61q0 16 5 38.5t20 42.5t42 34.5t72 14.5q57 0 92.5 -31.5t35.5 -82.5
q0 -11 -2.5 -26t-8.5 -30t-17 -29.5t-29 -24.5q9 -14 14.5 -30t5.5 -36q0 -10 -3.5 -31.5t-18 -43t-42.5 -37.5t-76 -16zM572 75q16 0 25 5.5t13.5 13.5t5.5 16.5t1 14.5q0 21 -12 32.5t-32 11.5q-16 0 -25.5 -5.5t-14 -14t-5.5 -17t-1 -14.5q0 -20 12 -31.5t33 -11.5z
M610 242q27 0 36 16t9 33t-9.5 28.5t-32.5 11.5q-26 0 -35 -16t-9 -33t9 -28.5t32 -11.5z" />
    <glyph glyph-name="uni215F" unicode="&#x215f;" horiz-adv-x="411" 
d="M181 582l-92 -68l25 118l92 68h93l-86 -406h-93zM651 700l-481 -700h-106l481 700h106z" />
    <glyph glyph-name="fraction" unicode="&#x2044;" horiz-adv-x="145" 
d="M386 700l-481 -700h-106l481 700h106z" />
    <glyph glyph-name="a.superior" horiz-adv-x="336" 
d="M177 395q-44 0 -72.5 26t-28.5 63q0 34 17.5 58t43.5 34q35 12 68 15.5t78 5.5q-1 4 -3 9.5t-6.5 10t-13.5 8t-23 3.5t-24.5 -6.5t-17.5 -16.5h-94q16 48 47 75.5t95 27.5q62 0 95.5 -35.5t33.5 -91.5q0 -11 -3 -27t-5 -27l-27 -126h-93l7 30q-13 -17 -30 -26.5t-44 -9.5
zM196 473q28 0 49 15.5t26 38.5q-14 0 -28 -1t-26.5 -2t-22 -3t-13.5 -3q-17 -7 -17 -24q0 -6 6 -13.5t26 -7.5z" />
    <glyph glyph-name="b.superior" horiz-adv-x="340" 
d="M229 478q21 0 33.5 12.5t17.5 33.5q6 27 8.5 38t2.5 15q0 19 -7.5 33.5t-38.5 14.5q-21 0 -33 -12t-17 -33q-6 -29 -8.5 -41t-2.5 -18q0 -15 7.5 -29t37.5 -14zM247 395q-32 0 -52 12t-30 31l-8 -37h-93l85 406h93l-28 -135q1 4 6 10t12.5 12t18.5 10t25 4q30 0 50 -12.5
t31.5 -31t16.5 -41t5 -41.5q0 -14 -3 -33t-5 -31q-13 -61 -41.5 -92t-82.5 -31z" />
    <glyph glyph-name="c.superior" horiz-adv-x="326" 
d="M213 395q-62 0 -95.5 36t-33.5 91q0 11 2.5 27.5t5.5 26.5q7 31 18 55.5t28 41.5t42.5 26t61.5 9q32 0 56 -10t40.5 -27t24.5 -38.5t8 -45.5h-88q-1 5 -2.5 12t-6 13.5t-13.5 11t-25 4.5q-21 0 -33 -12.5t-17 -33.5q-5 -25 -9 -42t-4 -23t1.5 -13t6 -13.5t13.5 -10.5
t25 -4q37 0 48 40h94q-8 -28 -19.5 -50.5t-28.5 -38t-41.5 -24t-58.5 -8.5z" />
    <glyph glyph-name="d.superior" horiz-adv-x="339" 
d="M218 478q21 0 33 12.5t17 33.5q6 26 8.5 38t2.5 15q0 19 -7 33.5t-39 14.5q-20 0 -32.5 -12t-17.5 -33q-6 -27 -8.5 -40.5t-2.5 -17.5q0 -7 1.5 -14.5t6 -14t13.5 -11t25 -4.5zM187 395q-30 0 -50 12.5t-31.5 31t-16.5 40.5t-5 42q0 14 3 33.5t5 30.5q13 62 41.5 92.5
t82.5 30.5q32 0 52 -12t30 -31l30 142h93l-85 -406h-93l6 30q-2 -3 -6.5 -9t-12 -12t-18.5 -10.5t-25 -4.5z" />
    <glyph glyph-name="e.superior" horiz-adv-x="330" 
d="M213 395q-62 0 -95.5 36t-33.5 91q0 11 2.5 27.5t5.5 26.5q7 31 18 55.5t28 41.5t42.5 26t61.5 9q62 0 95.5 -35.5t33.5 -91.5q0 -12 -3.5 -32t-6.5 -32h-188q0 -5 1.5 -12t6 -13.5t13.5 -11t25 -4.5q14 0 24 6t18 16h94q-16 -48 -47 -75.5t-95 -27.5zM281 590
q0 4 -1 10.5t-5.5 12.5t-13.5 10.5t-25 4.5q-18 0 -30.5 -10.5t-18.5 -27.5h94z" />
    <glyph glyph-name="f.superior" horiz-adv-x="213" 
d="M125 620h-42l17 80h41l6 28q4 16 14 30t24 25t30 17.5t32 6.5h85l-17 -80h-55q-13 0 -18 -8t-6 -12l-1 -7h74l-17 -80h-74l-47 -219h-93z" />
    <glyph glyph-name="g.superior" horiz-adv-x="338" 
d="M224 505q23 0 33.5 12.5t16.5 32.5q4 13 4.5 20t0.5 10q0 19 -7.5 32t-37.5 13q-21 0 -33.5 -12t-17.5 -33q-2 -8 -3.5 -17.5t-1.5 -13.5q0 -19 9 -31.5t37 -12.5zM189 288q-30 0 -54 9t-41 25t-26 37t-9 44h90q0 -3 1.5 -9t6.5 -11.5t14 -9.5t24 -4q20 0 32.5 12.5
t17.5 33.5l9 43q-2 -4 -6.5 -10t-13 -12t-19.5 -10t-26 -4q-30 0 -49.5 12.5t-31.5 31t-16.5 40.5t-4.5 42q0 6 1 14.5t4 22.5q14 62 42.5 92.5t82.5 30.5q31 0 51 -12t30 -31l7 35h93l-59 -280q-6 -31 -17 -55.5t-28.5 -41.5t-43 -26t-61.5 -9z" />
    <glyph glyph-name="h.superior" horiz-adv-x="346" 
d="M150 807h93l-29 -135q1 4 6 10t12.5 12t18.5 10t26 4q33 0 53.5 -12.5t31.5 -31t14.5 -41t3.5 -41.5q0 -14 -2.5 -33t-5.5 -31l-25 -117h-93l26 123q4 17 7.5 32.5t3.5 20.5q0 10 -1 18.5t-5.5 15t-13.5 10.5t-25 4q-21 0 -33 -12t-17 -33l-39 -179h-93z" />
    <glyph glyph-name="i.superior" horiz-adv-x="160" 
d="M127 700h93l-63 -299h-93zM150 807h93l-16 -74h-93z" />
    <glyph glyph-name="j.superior" horiz-adv-x="159" 
d="M21 375h16q14 0 19 8t7 17l63 300h94l-69 -327q-7 -32 -30.5 -55.5t-69.5 -23.5h-47zM149 807h93l-15 -74h-93z" />
    <glyph glyph-name="k.superior" horiz-adv-x="328" 
d="M205 628l81 72h124l-134 -118l86 -181h-98l-57 120l-31 -29l-19 -91h-93l86 406h93z" />
    <glyph glyph-name="l.superior" horiz-adv-x="176" 
d="M168 401q-45 0 -64 23t-19 57q0 15 5 45t14 72t20.5 95t24.5 114h93q-34 -156 -49.5 -231t-15.5 -81q0 -14 14 -14h18l-16 -80h-25z" />
    <glyph glyph-name="m.superior" horiz-adv-x="534" 
d="M127 700h93l-6 -28q1 3 6.5 9t14 12t21 10.5t27.5 4.5q28 0 43.5 -11.5t21.5 -24.5q3 3 10 9t18 12t26.5 10.5t35.5 4.5q43 0 69 -12.5t39.5 -31t17.5 -39.5t4 -38q0 -15 -2 -31.5t-4 -28.5l-27 -126h-93l26 123l8.5 34t3.5 19q0 9 -1.5 17.5t-6 15.5t-13.5 11t-24 4
q-18 0 -31.5 -10.5t-18.5 -30.5l-39 -183h-93l26 123q5 20 8.5 34.5t3.5 18.5q0 9 -1.5 17.5t-6 15.5t-13.5 11t-24 4q-18 0 -31.5 -10.5t-18.5 -30.5l-39 -183h-93z" />
    <glyph glyph-name="n.superior" unicode="&#x207f;" horiz-adv-x="346" 
d="M127 700h93l-6 -28q1 4 6 10t12.5 12t18.5 10t26 4q33 0 53.5 -12.5t31.5 -31t14.5 -41t3.5 -41.5q0 -14 -2.5 -33t-5.5 -31l-25 -117h-93l26 123q6 28 9 39.5t3 14.5q0 18 -7.5 32.5t-38.5 14.5q-21 0 -33 -12t-17 -33l-39 -179h-93z" />
    <glyph glyph-name="o.superior" horiz-adv-x="331" 
d="M219 476q21 0 33 12t17 33q2 7 4 17t4 19.5t3.5 17t1.5 10.5q0 15 -8 29t-38 14q-21 0 -33 -12.5t-17 -33.5q-2 -7 -4 -16.5t-4 -19.5l-3.5 -17.5t-1.5 -9.5q0 -16 8 -29.5t38 -13.5zM213 395q-62 0 -95.5 36t-33.5 91q0 11 2.5 27.5t5.5 26.5q7 31 18 55.5t28 41.5
t42.5 26t61.5 9q62 0 95.5 -35.5t33.5 -91.5q0 -11 -2.5 -27t-5.5 -27q-8 -30 -18.5 -54.5t-28 -42t-42.5 -26.5t-61 -9z" />
    <glyph glyph-name="p.superior" horiz-adv-x="341" 
d="M230 478q21 0 33.5 12.5t17.5 33.5q6 28 8.5 40.5t2.5 17.5q0 7 -1.5 14.5t-6 14t-13.5 10.5t-25 4q-21 0 -33 -12t-17 -33q-12 -51 -12 -58t1.5 -15t6 -14.5t13.5 -10.5t25 -4zM127 700h93l-5 -28q1 4 5.5 10t12 12t18.5 10t26 4q30 0 50 -12.5t31.5 -31t16.5 -41
t5 -41.5q0 -14 -3 -33t-5 -31q-13 -61 -42 -92t-83 -31q-31 0 -51 12t-30 31l-31 -144h-93z" />
    <glyph glyph-name="q.superior" horiz-adv-x="338" 
d="M218 478q21 0 33 12.5t17 33.5q5 26 8 38.5t3 15.5q0 18 -7 32.5t-39 14.5q-20 0 -32.5 -12t-17.5 -33t-8 -34.5t-3 -18.5q0 -9 1.5 -18t6 -16t13.5 -11t25 -4zM249 431q-2 -3 -6.5 -9t-12 -12t-18.5 -10.5t-25 -4.5q-30 0 -50 12.5t-31.5 31t-16.5 40.5t-5 42
q0 14 3 33.5t5 30.5q13 62 41.5 92.5t82.5 30.5q32 0 52 -12t30 -31l8 35h93l-86 -406h-93z" />
    <glyph glyph-name="r.superior" horiz-adv-x="228" 
d="M64 401l63 299h93l-7 -30q1 3 5.5 9t12.5 12t19 10.5t26 4.5h39l-19 -88h-52q-41 0 -51 -46l-36 -171h-93z" />
    <glyph glyph-name="s.superior" horiz-adv-x="284" 
d="M185 395q-27 0 -50 8t-39.5 22t-25.5 31.5t-9 37.5v4h90q0 -10 13 -17t31 -7q11 0 23 3.5t12 11.5t-7.5 10t-12.5 4l-43 10q-14 4 -28.5 11t-25.5 18t-18 26t-7 35q0 29 10.5 49t28.5 32.5t41 18t48 5.5q19 0 39 -6.5t37 -19t28 -29.5t11 -38v-4h-90q0 8 -11 13.5
t-26 5.5q-27 0 -27 -14q0 -10 7.5 -12t9.5 -3l50 -12q32 -8 54.5 -30.5t22.5 -57.5q0 -59 -36 -82.5t-100 -23.5z" />
    <glyph glyph-name="t.superior" horiz-adv-x="226" 
d="M183 401q-45 0 -64 23t-19 57q0 19 7.5 58.5t16.5 80.5h-42l16 80h42l15 68h93l-15 -68h74l-16 -80h-74q-11 -53 -18 -86.5t-7 -38.5q0 -14 14 -14h54l-16 -80h-61z" />
    <glyph glyph-name="u.superior" horiz-adv-x="343" 
d="M190 395q-29 0 -48.5 11.5t-31 29.5t-16 39.5t-4.5 41.5q0 15 2 31.5t5 27.5l26 124h93l-25 -120q-5 -20 -8 -35.5t-3 -17.5q0 -9 1.5 -18t6 -15.5t13.5 -11t24 -4.5q18 0 30 12.5t17 33.5l39 176h93l-64 -299h-93l7 29q-2 -3 -7 -9t-13 -11.5t-19.5 -10t-24.5 -4.5z" />
    <glyph glyph-name="v.superior" horiz-adv-x="297" 
d="M87 700h94l19 -164l94 164h103l-171 -299h-94z" />
    <glyph glyph-name="w.superior" horiz-adv-x="420" 
d="M91 700h93l5 -168l71 168h83l2 -158l70 158h102l-143 -299h-87l-3 193l-83 -193h-94z" />
    <glyph glyph-name="x.superior" horiz-adv-x="309" 
d="M164 556l-66 144h97l29 -69l60 69h117l-134 -153l66 -146h-98l-28 68l-59 -68h-117z" />
    <glyph glyph-name="y.superior" horiz-adv-x="298" 
d="M63 375h37q8 0 12.5 3.5t6.5 7.5l12 21l-43 293h93l20 -159l88 159h108l-173 -304q-12 -21 -20.5 -39.5t-19 -32.5t-24.5 -22t-37 -8h-76z" />
    <glyph glyph-name="z.superior" horiz-adv-x="255" 
d="M182 481h108l-16 -80h-230l17 80l133 139h-100l16 80h223l-17 -80z" />
    <glyph glyph-name="four.superior" unicode="&#x2074;" horiz-adv-x="309" 
d="M216 485h-170l17 79l221 243h93l-52 -243h41l-15 -79h-42l-18 -84h-93zM232 564l18 78l-70 -78h52z" />
    <glyph glyph-name="five.superior" unicode="&#x2075;" horiz-adv-x="329" 
d="M213 395q-27 0 -50.5 8t-41 22.5t-27.5 35t-10 46.5v10h91q0 -2 -0.5 -4t-0.5 -3q0 -13 9 -23.5t35 -10.5q24 0 36 12t17 32q5 25 7 33t2 10q0 11 -7.5 19t-27.5 8q-18 0 -33 -6.5t-22 -20.5h-94l52 244h262l-18 -80h-169l-13 -67q8 3 19 7t34 4q17 0 36 -7t35 -20.5
t26.5 -33.5t10.5 -45q0 -7 -0.5 -12t-4.5 -25q-7 -31 -18 -55.5t-29 -42t-44 -26.5t-62 -9z" />
    <glyph glyph-name="six.superior" unicode="&#x2076;" horiz-adv-x="331" 
d="M213 395q-27 0 -50.5 8t-41 22.5t-27.5 35t-10 46.5q0 13 4.5 40.5t10 55.5t10.5 50.5t6 26.5q7 31 18.5 56t29 42t43.5 26t62 9q27 0 50.5 -8t41 -22.5t27.5 -35t10 -46.5v-10h-90v7q0 13 -9 23.5t-35 10.5q-24 0 -36.5 -12.5t-17.5 -34.5l-6 -28q8 5 20.5 7.5t30.5 2.5
q19 0 38.5 -7t35.5 -22t25.5 -37.5t9.5 -53.5q0 -7 -1 -18.5t-3 -19.5q-6 -23 -15.5 -43.5t-26 -36t-42 -25t-62.5 -9.5zM218 476q24 0 36 12.5t17 34.5q5 18 5 26q0 16 -10 26.5t-34 10.5t-36.5 -12.5t-17.5 -34.5q-2 -11 -3 -18.5t-1 -10.5q0 -13 9 -23.5t35 -10.5z" />
    <glyph glyph-name="seven.superior" unicode="&#x2077;" horiz-adv-x="282" 
d="M276 727h-177l16 80h280l-17 -80l-195 -326h-102z" />
    <glyph glyph-name="eight.superior" unicode="&#x2078;" horiz-adv-x="323" 
d="M210 395q-26 0 -49.5 7.5t-41.5 22.5t-29 37t-11 51q0 7 1.5 20.5t7.5 29.5t17.5 31.5t31.5 27.5q-17 26 -17 61q0 16 5 38.5t20 42.5t42 34.5t72 14.5q57 0 92.5 -31.5t35.5 -82.5q0 -11 -2.5 -26t-8.5 -30t-17 -29.5t-29 -24.5q9 -14 14.5 -30t5.5 -36
q0 -10 -3.5 -31.5t-18 -43t-42.5 -37.5t-76 -16zM214 476q16 0 25 5.5t13.5 13.5t5.5 16.5t1 14.5q0 21 -12 32.5t-32 11.5q-16 0 -25.5 -5.5t-14 -14t-5.5 -17t-1 -14.5q0 -20 12 -31.5t33 -11.5zM252 643q27 0 36 16t9 33t-9.5 28.5t-32.5 11.5q-26 0 -35 -16t-9 -33
t9 -28.5t32 -11.5z" />
    <glyph glyph-name="nine.superior" unicode="&#x2079;" horiz-adv-x="331" 
d="M262 813q27 0 50.5 -8t41 -22.5t27.5 -35t10 -46.5q0 -14 -4.5 -41t-10 -55t-10.5 -50.5t-6 -26.5q-8 -32 -19 -56.5t-28.5 -41.5t-43.5 -26t-62 -9q-27 0 -50.5 8t-41 22.5t-27.5 35t-10 46.5v10h90v-7q0 -13 9 -23.5t35 -10.5q24 0 36.5 12.5t17.5 34.5l6 28
q-8 -5 -20.5 -7.5t-30.5 -2.5q-20 0 -39 7t-35 22t-25.5 37.5t-9.5 53.5q0 7 1 18.5t3 19.5q6 22 15.5 43t26 36.5t42 25t62.5 9.5zM257 732q-24 0 -36 -12.5t-17 -34.5q-5 -18 -5 -26q0 -16 10 -26.5t34 -10.5t36.5 12.5t17.5 34.5q2 11 3 18.5t1 10.5q0 13 -9 23.5
t-35 10.5z" />
    <glyph glyph-name="zero.superior" unicode="&#x2070;" horiz-adv-x="336" 
d="M218 476q24 0 36 12.5t17 34.5q5 23 11.5 51.5t12 54.5t9 45t3.5 24q0 13 -9 23.5t-35 10.5q-24 0 -36.5 -12.5t-17.5 -34.5q-5 -23 -11.5 -51.5t-11.5 -54.5t-8.5 -45t-3.5 -24q0 -13 9 -23.5t35 -10.5zM213 395q-27 0 -50.5 8t-41 22.5t-27.5 35t-10 46.5q0 10 4.5 37
t10 56t10.5 52.5t6 27.5q7 32 18 56.5t29 41.5t44 26t62 9q27 0 50.5 -8t41 -22.5t27.5 -35t10 -46.5q0 -11 -4.5 -37.5t-10.5 -55.5t-11 -52.5t-6 -27.5q-7 -32 -18 -56.5t-28.5 -41.5t-43.5 -26t-62 -9z" />
    <glyph glyph-name="zero.slashed.superior" horiz-adv-x="336" 
d="M213 395q-27 0 -50.5 8t-41 22.5t-27.5 35t-10 46.5q0 10 4.5 37t10 56t10.5 52.5t6 27.5q7 32 18 56.5t29 41.5t44 26t62 9q27 0 50.5 -8t41 -22.5t27.5 -35t10 -46.5q0 -11 -4.5 -37.5t-10.5 -55.5t-11 -52.5t-6 -27.5q-7 -32 -18 -56.5t-28.5 -41.5t-43.5 -26t-62 -9z
M189 595l117 97q1 2 1 6q0 13 -9 23.5t-35 10.5q-24 0 -36.5 -12.5t-17.5 -34.5zM218 476q24 0 36 12.5t17 34.5l20 89l-117 -97v-5q0 -13 9 -23.5t35 -10.5z" />
    <glyph glyph-name="period.superior" horiz-adv-x="187" 
d="M92 510h109l-23 -109h-109z" />
    <glyph glyph-name="hyphen.superior" horiz-adv-x="212" 
d="M94 602h168l-18 -86h-168z" />
    <glyph glyph-name="comma.superior" horiz-adv-x="187" 
d="M92 510h109l-23 -109l-43 -72h-63l43 72h-46z" />
    <glyph glyph-name="equal.superior" unicode="&#x207c;" horiz-adv-x="330" 
d="M86 529h284v-86h-284v86zM86 678h284v-86h-284v86z" />
    <glyph glyph-name="plus.superior" unicode="&#x207a;" horiz-adv-x="330" 
d="M86 602h98v99h86v-99h100v-86h-100v-98h-86v98h-98v86z" />
    <glyph glyph-name="minus.superior" unicode="&#x207b;" horiz-adv-x="330" 
d="M86 602h284v-86h-284v86z" />
    <glyph glyph-name="parenleft.superior" unicode="&#x207d;" horiz-adv-x="186" 
d="M168 284q-50 0 -71.5 26t-21.5 61q0 20 3.5 44t11.5 63t21.5 98.5t33.5 150.5q4 19 10.5 34t17 25.5t27 15.5t41.5 5h51l-18 -85h-25q-12 0 -16 -7t-6 -15q-21 -98 -34 -158t-20 -93.5t-9.5 -46t-2.5 -15.5q0 -17 14 -17h25l-18 -86h-14z" />
    <glyph glyph-name="parenright.superior" unicode="&#x207e;" horiz-adv-x="187" 
d="M16 284l18 86h25q12 0 16.5 6.5t6.5 14.5q21 98 33.5 158t19.5 93.5t9.5 46.5t2.5 16q0 7 -3.5 12t-10.5 5h-25l18 85h14q50 0 71.5 -26t21.5 -60q0 -20 -3.5 -44t-11.5 -63t-21.5 -98.5t-33.5 -150.5q-5 -20 -11 -35t-16.5 -25.5t-27 -15.5t-41.5 -5h-51z" />
    <glyph glyph-name="a.inferior" horiz-adv-x="336" 
d="M72 -102q-44 0 -72.5 26t-28.5 63q0 34 17.5 58t43.5 34q35 12 68 15.5t78 5.5q-1 4 -3 9.5t-6.5 10t-13.5 8t-23 3.5t-24.5 -6.5t-17.5 -16.5h-94q16 48 47 75.5t95 27.5q62 0 95.5 -35.5t33.5 -91.5q0 -11 -3 -27t-5 -27l-27 -126h-93l7 30q-13 -17 -30 -26.5t-44 -9.5
zM91 -24q28 0 49 15.5t26 38.5q-14 0 -28 -1t-26.5 -2t-22 -3t-13.5 -3q-17 -7 -17 -24q0 -6 6 -13.5t26 -7.5z" />
    <glyph glyph-name="b.inferior" horiz-adv-x="340" 
d="M124 -19q21 0 33.5 12.5t17.5 33.5q6 27 8.5 38t2.5 15q0 19 -7.5 33.5t-38.5 14.5q-21 0 -33 -12t-17 -33q-6 -29 -8.5 -41t-2.5 -18q0 -15 7.5 -29t37.5 -14zM142 -102q-32 0 -52 12t-30 31l-8 -37h-93l85 406h93l-28 -135q1 4 6 10t12.5 12t18.5 10t25 4
q30 0 50 -12.5t31.5 -31t16.5 -41t5 -41.5q0 -14 -3 -33t-5 -31q-13 -61 -41.5 -92t-82.5 -31z" />
    <glyph glyph-name="c.inferior" horiz-adv-x="326" 
d="M108 -102q-62 0 -95.5 36t-33.5 91q0 11 2.5 27.5t5.5 26.5q7 31 18 55.5t28 41.5t42.5 26t61.5 9q32 0 56 -10t40.5 -27t24.5 -38.5t8 -45.5h-88q-1 5 -2.5 12t-6 13.5t-13.5 11t-25 4.5q-21 0 -33 -12.5t-17 -33.5q-5 -25 -9 -42t-4 -23t1.5 -13t6 -13.5t13.5 -10.5
t25 -4q37 0 48 40h94q-8 -28 -19.5 -50.5t-28.5 -38t-41.5 -24t-58.5 -8.5z" />
    <glyph glyph-name="d.inferior" horiz-adv-x="339" 
d="M113 -19q21 0 33 12.5t17 33.5q6 26 8.5 38t2.5 15q0 19 -7 33.5t-39 14.5q-20 0 -32.5 -12t-17.5 -33q-6 -27 -8.5 -40.5t-2.5 -17.5q0 -7 1.5 -14.5t6 -14t13.5 -11t25 -4.5zM82 -102q-30 0 -50 12.5t-31.5 31t-16.5 40.5t-5 42q0 14 3 33.5t5 30.5q13 62 41.5 92.5
t82.5 30.5q32 0 52 -12t30 -31l30 142h93l-85 -406h-93l6 30q-2 -3 -6.5 -9t-12 -12t-18.5 -10.5t-25 -4.5z" />
    <glyph glyph-name="e.inferior" horiz-adv-x="330" 
d="M108 -102q-62 0 -95.5 36t-33.5 91q0 11 2.5 27.5t5.5 26.5q7 31 18 55.5t28 41.5t42.5 26t61.5 9q62 0 95.5 -35.5t33.5 -91.5q0 -12 -3.5 -32t-6.5 -32h-188q0 -5 1.5 -12t6 -13.5t13.5 -11t25 -4.5q14 0 24 6t18 16h94q-16 -48 -47 -75.5t-95 -27.5zM176 93
q0 4 -1 10.5t-5.5 12.5t-13.5 10.5t-25 4.5q-18 0 -30.5 -10.5t-18.5 -27.5h94z" />
    <glyph glyph-name="f.inferior" horiz-adv-x="213" 
d="M20 123h-42l17 80h41l6 28q4 16 14 30t24 25t30 17.5t32 6.5h85l-17 -80h-55q-13 0 -18 -8t-6 -12l-1 -7h74l-17 -80h-74l-47 -219h-93z" />
    <glyph glyph-name="g.inferior" horiz-adv-x="338" 
d="M119 8q23 0 33.5 12.5t16.5 32.5q4 13 4.5 20t0.5 10q0 19 -7.5 32t-37.5 13q-21 0 -33.5 -12t-17.5 -33q-2 -8 -3.5 -17.5t-1.5 -13.5q0 -19 9 -31.5t37 -12.5zM84 -209q-30 0 -54 9t-41 25t-26 37t-9 44h90q0 -3 1.5 -9t6.5 -11.5t14 -9.5t24 -4q20 0 32.5 12.5
t17.5 33.5l9 43q-2 -4 -6.5 -10t-13 -12t-19.5 -10t-26 -4q-30 0 -49.5 12.5t-31.5 31t-16.5 40.5t-4.5 42q0 6 1 14.5t4 22.5q14 62 42.5 92.5t82.5 30.5q31 0 51 -12t30 -31l7 35h93l-59 -280q-6 -31 -17 -55.5t-28.5 -41.5t-43 -26t-61.5 -9z" />
    <glyph glyph-name="h.inferior" horiz-adv-x="346" 
d="M45 310h93l-29 -135q1 4 6 10t12.5 12t18.5 10t26 4q33 0 53.5 -12.5t31.5 -31t14.5 -41t3.5 -41.5q0 -14 -2.5 -33t-5.5 -31l-25 -117h-93l26 123q4 17 7.5 32.5t3.5 20.5q0 10 -1 18.5t-5.5 15t-13.5 10.5t-25 4q-21 0 -33 -12t-17 -33l-39 -179h-93z" />
    <glyph glyph-name="i.inferior" horiz-adv-x="160" 
d="M22 203h93l-63 -299h-93zM45 310h93l-16 -74h-93z" />
    <glyph glyph-name="j.inferior" horiz-adv-x="159" 
d="M-84 -122h16q14 0 19 8t7 17l63 300h94l-69 -327q-7 -32 -30.5 -55.5t-69.5 -23.5h-47zM44 310h93l-15 -74h-93z" />
    <glyph glyph-name="k.inferior" horiz-adv-x="328" 
d="M100 131l81 72h124l-134 -118l86 -181h-98l-57 120l-31 -29l-19 -91h-93l86 406h93z" />
    <glyph glyph-name="l.inferior" horiz-adv-x="176" 
d="M63 -96q-45 0 -64 23t-19 57q0 15 5 45t14 72t20.5 95t24.5 114h93q-34 -156 -49.5 -231t-15.5 -81q0 -14 14 -14h18l-16 -80h-25z" />
    <glyph glyph-name="m.inferior" horiz-adv-x="534" 
d="M22 203h93l-6 -28q1 3 6.5 9t14 12t21 10.5t27.5 4.5q28 0 43.5 -11.5t21.5 -24.5q3 3 10 9t18 12t26.5 10.5t35.5 4.5q43 0 69 -12.5t39.5 -31t17.5 -39.5t4 -38q0 -15 -2 -31.5t-4 -28.5l-27 -126h-93l26 123l8.5 34t3.5 19q0 9 -1.5 17.5t-6 15.5t-13.5 11t-24 4
q-18 0 -31.5 -10.5t-18.5 -30.5l-39 -183h-93l26 123q5 20 8.5 34.5t3.5 18.5q0 9 -1.5 17.5t-6 15.5t-13.5 11t-24 4q-18 0 -31.5 -10.5t-18.5 -30.5l-39 -183h-93z" />
    <glyph glyph-name="n.inferior" horiz-adv-x="346" 
d="M22 203h93l-6 -28q1 4 6 10t12.5 12t18.5 10t26 4q33 0 53.5 -12.5t31.5 -31t14.5 -41t3.5 -41.5q0 -14 -2.5 -33t-5.5 -31l-25 -117h-93l26 123q6 28 9 39.5t3 14.5q0 18 -7.5 32.5t-38.5 14.5q-21 0 -33 -12t-17 -33l-39 -179h-93z" />
    <glyph glyph-name="o.inferior" horiz-adv-x="331" 
d="M114 -21q21 0 33 12t17 33q2 7 4 17t4 19.5t3.5 17t1.5 10.5q0 15 -8 29t-38 14q-21 0 -33 -12.5t-17 -33.5q-2 -7 -4 -16.5t-4 -19.5l-3.5 -17.5t-1.5 -9.5q0 -16 8 -29.5t38 -13.5zM108 -102q-62 0 -95.5 36t-33.5 91q0 11 2.5 27.5t5.5 26.5q7 31 18 55.5t28 41.5
t42.5 26t61.5 9q62 0 95.5 -35.5t33.5 -91.5q0 -11 -2.5 -27t-5.5 -27q-8 -30 -18.5 -54.5t-28 -42t-42.5 -26.5t-61 -9z" />
    <glyph glyph-name="p.inferior" horiz-adv-x="341" 
d="M125 -19q21 0 33.5 12.5t17.5 33.5q6 28 8.5 40.5t2.5 17.5q0 7 -1.5 14.5t-6 14t-13.5 10.5t-25 4q-21 0 -33 -12t-17 -33q-12 -51 -12 -58t1.5 -15t6 -14.5t13.5 -10.5t25 -4zM22 203h93l-5 -28q1 4 5.5 10t12 12t18.5 10t26 4q30 0 50 -12.5t31.5 -31t16.5 -41
t5 -41.5q0 -14 -3 -33t-5 -31q-13 -61 -42 -92t-83 -31q-31 0 -51 12t-30 31l-31 -144h-93z" />
    <glyph glyph-name="q.inferior" horiz-adv-x="338" 
d="M113 -19q21 0 33 12.5t17 33.5q5 26 8 38.5t3 15.5q0 18 -7 32.5t-39 14.5q-20 0 -32.5 -12t-17.5 -33t-8 -34.5t-3 -18.5q0 -9 1.5 -18t6 -16t13.5 -11t25 -4zM144 -66q-2 -3 -6.5 -9t-12 -12t-18.5 -10.5t-25 -4.5q-30 0 -50 12.5t-31.5 31t-16.5 40.5t-5 42
q0 14 3 33.5t5 30.5q13 62 41.5 92.5t82.5 30.5q32 0 52 -12t30 -31l8 35h93l-86 -406h-93z" />
    <glyph glyph-name="r.inferior" horiz-adv-x="228" 
d="M-41 -96l63 299h93l-7 -30q1 3 5.5 9t12.5 12t19 10.5t26 4.5h39l-19 -88h-52q-41 0 -51 -46l-36 -171h-93z" />
    <glyph glyph-name="s.inferior" horiz-adv-x="284" 
d="M80 -102q-27 0 -50 8t-39.5 22t-25.5 31.5t-9 37.5v4h90q0 -10 13 -17t31 -7q11 0 23 3.5t12 11.5t-7.5 10t-12.5 4l-43 10q-14 4 -28.5 11t-25.5 18t-18 26t-7 35q0 29 10.5 49t28.5 32.5t41 18t48 5.5q19 0 39 -6.5t37 -19t28 -29.5t11 -38v-4h-90q0 8 -11 13.5
t-26 5.5q-27 0 -27 -14q0 -10 7.5 -12t9.5 -3l50 -12q32 -8 54.5 -30.5t22.5 -57.5q0 -59 -36 -82.5t-100 -23.5z" />
    <glyph glyph-name="t.inferior" horiz-adv-x="226" 
d="M78 -96q-45 0 -64 23t-19 57q0 19 7.5 58.5t16.5 80.5h-42l16 80h42l15 68h93l-15 -68h74l-16 -80h-74q-11 -53 -18 -86.5t-7 -38.5q0 -14 14 -14h54l-16 -80h-61z" />
    <glyph glyph-name="u.inferior" horiz-adv-x="343" 
d="M85 -102q-29 0 -48.5 11.5t-31 29.5t-16 39.5t-4.5 41.5q0 15 2 31.5t5 27.5l26 124h93l-25 -120q-5 -20 -8 -35.5t-3 -17.5q0 -9 1.5 -18t6 -15.5t13.5 -11t24 -4.5q18 0 30 12.5t17 33.5l39 176h93l-64 -299h-93l7 29q-2 -3 -7 -9t-13 -11.5t-19.5 -10t-24.5 -4.5z" />
    <glyph glyph-name="v.inferior" horiz-adv-x="297" 
d="M-18 203h94l19 -164l94 164h103l-171 -299h-94z" />
    <glyph glyph-name="w.inferior" horiz-adv-x="420" 
d="M-14 203h93l5 -168l71 168h83l2 -158l70 158h102l-143 -299h-87l-3 193l-83 -193h-94z" />
    <glyph glyph-name="x.inferior" horiz-adv-x="309" 
d="M59 59l-66 144h97l29 -69l60 69h117l-134 -153l66 -146h-98l-28 68l-59 -68h-117z" />
    <glyph glyph-name="y.inferior" horiz-adv-x="298" 
d="M-42 -122h37q8 0 12.5 3.5t6.5 7.5l12 21l-43 293h93l20 -159l88 159h108l-173 -304q-12 -21 -20.5 -39.5t-19 -32.5t-24.5 -22t-37 -8h-76z" />
    <glyph glyph-name="z.inferior" horiz-adv-x="255" 
d="M77 -16h108l-16 -80h-230l17 80l133 139h-100l16 80h223l-17 -80z" />
    <glyph glyph-name="one.inferior" unicode="&#x2081;" horiz-adv-x="226" 
d="M79 192l-92 -68l25 118l92 68h93l-86 -406h-93z" />
    <glyph glyph-name="two.inferior" unicode="&#x2082;" horiz-adv-x="321" 
d="M-42 -16l188 147q22 17 34 33.5t12 36.5q0 13 -9 23.5t-35 10.5q-17 0 -27 -5.5t-16 -14t-9 -18t-4 -17.5h-92q6 31 17 56.5t29 43t44 27t63 9.5q27 0 50.5 -8t41 -22.5t27.5 -35t10 -46.5q0 -83 -78 -143l-102 -77h138l-16 -80h-283z" />
    <glyph glyph-name="three.inferior" unicode="&#x2083;" horiz-adv-x="325" 
d="M99 -102q-59 0 -94 30t-35 82v10h91q0 -1 -0.5 -3.5t-0.5 -3.5q0 -13 9 -23.5t35 -10.5t40 16.5t14 33.5t-12 26.5t-33 9.5h-36l18 81h36q27 0 44.5 13.5t17.5 41.5q0 13 -9 23.5t-35 10.5q-41 0 -52 -38h-92q8 28 19.5 50t28.5 37.5t41.5 23.5t59.5 8q27 0 50.5 -8
t41 -22.5t27.5 -35t10 -46.5q0 -37 -18 -65.5t-47 -40.5q13 -11 19 -29t6 -37q0 -67 -39.5 -100.5t-104.5 -33.5z" />
    <glyph glyph-name="four.inferior" unicode="&#x2084;" horiz-adv-x="309" 
d="M111 -12h-170l17 79l221 243h93l-52 -243h41l-15 -79h-42l-18 -84h-93zM127 67l18 78l-70 -78h52z" />
    <glyph glyph-name="five.inferior" unicode="&#x2085;" horiz-adv-x="329" 
d="M108 -102q-27 0 -50.5 8t-41 22.5t-27.5 35t-10 46.5v10h91q0 -2 -0.5 -4t-0.5 -3q0 -13 9 -23.5t35 -10.5q24 0 36 12t17 32q5 25 7 33t2 10q0 11 -7.5 19t-27.5 8q-18 0 -33 -6.5t-22 -20.5h-94l52 244h262l-18 -80h-169l-13 -67q8 3 19 7t34 4q17 0 36 -7t35 -20.5
t26.5 -33.5t10.5 -45q0 -7 -0.5 -12t-4.5 -25q-7 -31 -18 -55.5t-29 -42t-44 -26.5t-62 -9z" />
    <glyph glyph-name="six.inferior" unicode="&#x2086;" horiz-adv-x="331" 
d="M108 -102q-27 0 -50.5 8t-41 22.5t-27.5 35t-10 46.5q0 13 4.5 40.5t10 55.5t10.5 50.5t6 26.5q7 31 18.5 56t29 42t43.5 26t62 9q27 0 50.5 -8t41 -22.5t27.5 -35t10 -46.5v-10h-90v7q0 13 -9 23.5t-35 10.5q-24 0 -36.5 -12.5t-17.5 -34.5l-6 -28q8 5 20.5 7.5
t30.5 2.5q19 0 38.5 -7t35.5 -22t25.5 -37.5t9.5 -53.5q0 -7 -1 -18.5t-3 -19.5q-6 -23 -15.5 -43.5t-26 -36t-42 -25t-62.5 -9.5zM113 -21q24 0 36 12.5t17 34.5q5 18 5 26q0 16 -10 26.5t-34 10.5t-36.5 -12.5t-17.5 -34.5q-2 -11 -3 -18.5t-1 -10.5q0 -13 9 -23.5
t35 -10.5z" />
    <glyph glyph-name="seven.inferior" unicode="&#x2087;" horiz-adv-x="282" 
d="M171 230h-177l16 80h280l-17 -80l-195 -326h-102z" />
    <glyph glyph-name="eight.inferior" unicode="&#x2088;" horiz-adv-x="323" 
d="M105 -102q-26 0 -49.5 7.5t-41.5 22.5t-29 37t-11 51q0 7 1.5 20.5t7.5 29.5t17.5 31.5t31.5 27.5q-17 26 -17 61q0 16 5 38.5t20 42.5t42 34.5t72 14.5q57 0 92.5 -31.5t35.5 -82.5q0 -11 -2.5 -26t-8.5 -30t-17 -29.5t-29 -24.5q9 -14 14.5 -30t5.5 -36
q0 -10 -3.5 -31.5t-18 -43t-42.5 -37.5t-76 -16zM109 -21q16 0 25 5.5t13.5 13.5t5.5 16.5t1 14.5q0 21 -12 32.5t-32 11.5q-16 0 -25.5 -5.5t-14 -14t-5.5 -17t-1 -14.5q0 -20 12 -31.5t33 -11.5zM147 146q27 0 36 16t9 33t-9.5 28.5t-32.5 11.5q-26 0 -35 -16t-9 -33
t9 -28.5t32 -11.5z" />
    <glyph glyph-name="nine.inferior" unicode="&#x2089;" horiz-adv-x="331" 
d="M157 316q27 0 50.5 -8t41 -22.5t27.5 -35t10 -46.5q0 -14 -4.5 -41t-10 -55t-10.5 -50.5t-6 -26.5q-8 -32 -19 -56.5t-28.5 -41.5t-43.5 -26t-62 -9q-27 0 -50.5 8t-41 22.5t-27.5 35t-10 46.5v10h90v-7q0 -13 9 -23.5t35 -10.5q24 0 36.5 12.5t17.5 34.5l6 28
q-8 -5 -20.5 -7.5t-30.5 -2.5q-20 0 -39 7t-35 22t-25.5 37.5t-9.5 53.5q0 7 1 18.5t3 19.5q6 22 15.5 43t26 36.5t42 25t62.5 9.5zM152 235q-24 0 -36 -12.5t-17 -34.5q-5 -18 -5 -26q0 -16 10 -26.5t34 -10.5t36.5 12.5t17.5 34.5q2 11 3 18.5t1 10.5q0 13 -9 23.5
t-35 10.5z" />
    <glyph glyph-name="zero.inferior" unicode="&#x2080;" horiz-adv-x="336" 
d="M113 -21q24 0 36 12.5t17 34.5q5 23 11.5 51.5t12 54.5t9 45t3.5 24q0 13 -9 23.5t-35 10.5q-24 0 -36.5 -12.5t-17.5 -34.5q-5 -23 -11.5 -51.5t-11.5 -54.5t-8.5 -45t-3.5 -24q0 -13 9 -23.5t35 -10.5zM108 -102q-27 0 -50.5 8t-41 22.5t-27.5 35t-10 46.5q0 10 4.5 37
t10 56t10.5 52.5t6 27.5q7 32 18 56.5t29 41.5t44 26t62 9q27 0 50.5 -8t41 -22.5t27.5 -35t10 -46.5q0 -11 -4.5 -37.5t-10.5 -55.5t-11 -52.5t-6 -27.5q-7 -32 -18 -56.5t-28.5 -41.5t-43.5 -26t-62 -9z" />
    <glyph glyph-name="zero.slashed.inferior" horiz-adv-x="336" 
d="M107 -103q-27 0 -50.5 8t-41 22.5t-27.5 35t-10 46.5q0 10 4.5 37t10 56t10.5 52.5t6 27.5q7 32 18 56.5t29 41.5t44 26t62 9q27 0 50.5 -8t41 -22.5t27.5 -35t10 -46.5q0 -11 -4.5 -37.5t-10.5 -55.5t-11 -52.5t-6 -27.5q-7 -32 -18 -56.5t-28.5 -41.5t-43.5 -26t-62 -9
zM83 97l117 97q1 2 1 6q0 13 -9 23.5t-35 10.5q-24 0 -36.5 -12.5t-17.5 -34.5zM112 -22q24 0 36 12.5t17 34.5l20 89l-117 -97v-5q0 -13 9 -23.5t35 -10.5z" />
    <glyph glyph-name="period.inferior" horiz-adv-x="187" 
d="M-13 13h109l-23 -109h-109z" />
    <glyph glyph-name="hyphen.inferior" horiz-adv-x="212" 
d="M-11 105h168l-18 -86h-168z" />
    <glyph glyph-name="comma.inferior" horiz-adv-x="187" 
d="M-13 13h109l-23 -109l-43 -72h-63l43 72h-46z" />
    <glyph glyph-name="equal.inferior" horiz-adv-x="330" 
d="M-19 32h284v-86h-284v86zM-19 181h284v-86h-284v86z" />
    <glyph glyph-name="plus.inferior" horiz-adv-x="330" 
d="M-19 105h98v99h86v-99h100v-86h-100v-98h-86v98h-98v86z" />
    <glyph glyph-name="minus.inferior" horiz-adv-x="330" 
d="M-19 105h284v-86h-284v86z" />
    <glyph glyph-name="parenleft.inferior" unicode="&#x208d;" horiz-adv-x="186" 
d="M63 -213q-50 0 -71.5 26t-21.5 61q0 20 3.5 44t11.5 63t21.5 98.5t33.5 150.5q4 19 10.5 34t17 25.5t27 15.5t41.5 5h51l-18 -85h-25q-12 0 -16 -7t-6 -15q-21 -98 -34 -158t-20 -93.5t-9.5 -46t-2.5 -15.5q0 -17 14 -17h25l-18 -86h-14z" />
    <glyph glyph-name="parenright.inferior" unicode="&#x208e;" horiz-adv-x="187" 
d="M-89 -213l18 86h25q12 0 16.5 6.5t6.5 14.5q21 98 33.5 158t19.5 93.5t9.5 46.5t2.5 16q0 7 -3.5 12t-10.5 5h-25l18 85h14q50 0 71.5 -26t21.5 -60q0 -20 -3.5 -44t-11.5 -63t-21.5 -98.5t-33.5 -150.5q-5 -20 -11 -35t-16.5 -25.5t-27 -15.5t-41.5 -5h-51z" />
    <glyph glyph-name="one.numerator" horiz-adv-x="266" 
d="M181 582l-92 -68l25 118l92 68h93l-86 -406h-93z" />
    <glyph glyph-name="two.numerator" horiz-adv-x="367" 
d="M61 374l188 147q22 17 34 33.5t12 36.5q0 13 -9 23.5t-35 10.5q-17 0 -27 -5.5t-16 -14t-9 -18t-4 -17.5h-92q6 31 17 56.5t29 43t44 27t63 9.5q27 0 50.5 -8t41 -22.5t27.5 -35t10 -46.5q0 -83 -78 -143l-102 -77h138l-16 -80h-283z" />
    <glyph glyph-name="three.numerator" horiz-adv-x="365" 
d="M202 288q-59 0 -94 30t-35 82v10h91q0 -1 -0.5 -3.5t-0.5 -3.5q0 -13 9 -23.5t35 -10.5t40 16.5t14 33.5t-12 26.5t-33 9.5h-36l18 81h36q27 0 44.5 13.5t17.5 41.5q0 13 -9 23.5t-35 10.5q-41 0 -52 -38h-92q8 28 19.5 50t28.5 37.5t41.5 23.5t59.5 8q27 0 50.5 -8
t41 -22.5t27.5 -35t10 -46.5q0 -37 -18 -65.5t-47 -40.5q13 -11 19 -29t6 -37q0 -67 -39.5 -100.5t-104.5 -33.5z" />
    <glyph glyph-name="four.numerator" horiz-adv-x="319" 
d="M184 378h-170l17 79l221 243h93l-52 -243h41l-15 -79h-42l-18 -84h-93zM200 457l18 78l-70 -78h52z" />
    <glyph glyph-name="five.numerator" horiz-adv-x="366" 
d="M211 288q-27 0 -50.5 8t-41 22.5t-27.5 35t-10 46.5v10h91q0 -2 -0.5 -4t-0.5 -3q0 -13 9 -23.5t35 -10.5q24 0 36 12t17 32q5 25 7 33t2 10q0 11 -7.5 19t-27.5 8q-18 0 -33 -6.5t-22 -20.5h-94l52 244h262l-18 -80h-169l-13 -67q8 3 19 7t34 4q17 0 36 -7t35 -20.5
t26.5 -33.5t10.5 -45q0 -7 -0.5 -12t-4.5 -25q-7 -31 -18 -55.5t-29 -42t-44 -26.5t-62 -9z" />
    <glyph glyph-name="six.numerator" horiz-adv-x="361" 
d="M206 288q-27 0 -50.5 8t-41 22.5t-27.5 35t-10 46.5q0 13 4.5 40.5t10 55.5t10.5 50.5t6 26.5q7 31 18.5 56t29 42t43.5 26t62 9q27 0 50.5 -8t41 -22.5t27.5 -35t10 -46.5v-10h-90v7q0 13 -9 23.5t-35 10.5q-24 0 -36.5 -12.5t-17.5 -34.5l-6 -28q8 5 20.5 7.5t30.5 2.5
q19 0 38.5 -7t35.5 -22t25.5 -37.5t9.5 -53.5q0 -7 -1 -18.5t-3 -19.5q-6 -23 -15.5 -43.5t-26 -36t-42 -25t-62.5 -9.5zM211 369q24 0 36 12.5t17 34.5q5 18 5 26q0 16 -10 26.5t-34 10.5t-36.5 -12.5t-17.5 -34.5q-2 -11 -3 -18.5t-1 -10.5q0 -13 9 -23.5t35 -10.5z" />
    <glyph glyph-name="seven.numerator" horiz-adv-x="292" 
d="M274 620h-177l16 80h280l-17 -80l-195 -326h-102z" />
    <glyph glyph-name="eight.numerator" horiz-adv-x="333" 
d="M193 288q-26 0 -49.5 7.5t-41.5 22.5t-29 37t-11 51q0 7 1.5 20.5t7.5 29.5t17.5 31.5t31.5 27.5q-17 26 -17 61q0 16 5 38.5t20 42.5t42 34.5t72 14.5q57 0 92.5 -31.5t35.5 -82.5q0 -11 -2.5 -26t-8.5 -30t-17 -29.5t-29 -24.5q9 -14 14.5 -30t5.5 -36
q0 -10 -3.5 -31.5t-18 -43t-42.5 -37.5t-76 -16zM197 369q16 0 25 5.5t13.5 13.5t5.5 16.5t1 14.5q0 21 -12 32.5t-32 11.5q-16 0 -25.5 -5.5t-14 -14t-5.5 -17t-1 -14.5q0 -20 12 -31.5t33 -11.5zM235 536q27 0 36 16t9 33t-9.5 28.5t-32.5 11.5q-26 0 -35 -16t-9 -33
t9 -28.5t32 -11.5z" />
    <glyph glyph-name="nine.numerator" horiz-adv-x="361" 
d="M255 706q27 0 50.5 -8t41 -22.5t27.5 -35t10 -46.5q0 -14 -4.5 -41t-10 -55t-10.5 -50.5t-6 -26.5q-8 -32 -19 -56.5t-28.5 -41.5t-43.5 -26t-62 -9q-27 0 -50.5 8t-41 22.5t-27.5 35t-10 46.5v10h90v-7q0 -13 9 -23.5t35 -10.5q24 0 36.5 12.5t17.5 34.5l6 28
q-8 -5 -20.5 -7.5t-30.5 -2.5q-20 0 -39 7t-35 22t-25.5 37.5t-9.5 53.5q0 7 1 18.5t3 19.5q6 22 15.5 43t26 36.5t42 25t62.5 9.5zM250 625q-24 0 -36 -12.5t-17 -34.5q-5 -18 -5 -26q0 -16 10 -26.5t34 -10.5t36.5 12.5t17.5 34.5q2 11 3 18.5t1 10.5q0 13 -9 23.5
t-35 10.5z" />
    <glyph glyph-name="zero.numerator" horiz-adv-x="366" 
d="M211 369q24 0 36 12.5t17 34.5q5 23 11.5 51.5t12 54.5t9 45t3.5 24q0 13 -9 23.5t-35 10.5q-24 0 -36.5 -12.5t-17.5 -34.5q-5 -23 -11.5 -51.5t-11.5 -54.5t-8.5 -45t-3.5 -24q0 -13 9 -23.5t35 -10.5zM206 288q-27 0 -50.5 8t-41 22.5t-27.5 35t-10 46.5q0 10 4.5 37
t10 56t10.5 52.5t6 27.5q7 32 18 56.5t29 41.5t44 26t62 9q27 0 50.5 -8t41 -22.5t27.5 -35t10 -46.5q0 -11 -4.5 -37.5t-10.5 -55.5t-11 -52.5t-6 -27.5q-7 -32 -18 -56.5t-28.5 -41.5t-43.5 -26t-62 -9z" />
    <glyph glyph-name="zero.slashed.numerator" horiz-adv-x="366" 
d="M206 288q-27 0 -50.5 8t-41 22.5t-27.5 35t-10 46.5q0 10 4.5 37t10 56t10.5 52.5t6 27.5q7 32 18 56.5t29 41.5t44 26t62 9q27 0 50.5 -8t41 -22.5t27.5 -35t10 -46.5q0 -11 -4.5 -37.5t-10.5 -55.5t-11 -52.5t-6 -27.5q-7 -32 -18 -56.5t-28.5 -41.5t-43.5 -26t-62 -9z
M182 488l117 97q1 2 1 6q0 13 -9 23.5t-35 10.5q-24 0 -36.5 -12.5t-17.5 -34.5zM211 369q24 0 36 12.5t17 34.5l20 89l-117 -97v-5q0 -13 9 -23.5t35 -10.5z" />
    <glyph glyph-name="one.denominator" horiz-adv-x="266" 
d="M119 288l-92 -68l25 118l92 68h93l-86 -406h-93z" />
    <glyph glyph-name="two.denominator" horiz-adv-x="367" 
d="M-1 80l188 147q22 17 34 33.5t12 36.5q0 13 -9 23.5t-35 10.5q-17 0 -27 -5.5t-16 -14t-9 -18t-4 -17.5h-92q6 31 17 56.5t29 43t44 27t63 9.5q27 0 50.5 -8t41 -22.5t27.5 -35t10 -46.5q0 -83 -78 -143l-102 -77h138l-16 -80h-283z" />
    <glyph glyph-name="three.denominator" horiz-adv-x="365" 
d="M139 -6q-59 0 -94 30t-35 82v10h91q0 -1 -0.5 -3.5t-0.5 -3.5q0 -13 9 -23.5t35 -10.5t40 16.5t14 33.5t-12 26.5t-33 9.5h-36l18 81h36q27 0 44.5 13.5t17.5 41.5q0 13 -9 23.5t-35 10.5q-41 0 -52 -38h-92q8 28 19.5 50t28.5 37.5t41.5 23.5t59.5 8q27 0 50.5 -8
t41 -22.5t27.5 -35t10 -46.5q0 -37 -18 -65.5t-47 -40.5q13 -11 19 -29t6 -37q0 -67 -39.5 -100.5t-104.5 -33.5z" />
    <glyph glyph-name="four.denominator" horiz-adv-x="319" 
d="M122 84h-170l17 79l221 243h93l-52 -243h41l-15 -79h-42l-18 -84h-93zM138 163l18 78l-70 -78h52z" />
    <glyph glyph-name="five.denominator" horiz-adv-x="366" 
d="M149 -6q-27 0 -50.5 8t-41 22.5t-27.5 35t-10 46.5v10h91q0 -2 -0.5 -4t-0.5 -3q0 -13 9 -23.5t35 -10.5q24 0 36 12t17 32q5 25 7 33t2 10q0 11 -7.5 19t-27.5 8q-18 0 -33 -6.5t-22 -20.5h-94l52 244h262l-18 -80h-169l-13 -67q8 3 19 7t34 4q17 0 36 -7t35 -20.5
t26.5 -33.5t10.5 -45q0 -7 -0.5 -12t-4.5 -25q-7 -31 -18 -55.5t-29 -42t-44 -26.5t-62 -9z" />
    <glyph glyph-name="six.denominator" horiz-adv-x="361" 
d="M143 -6q-27 0 -50.5 8t-41 22.5t-27.5 35t-10 46.5q0 13 4.5 40.5t10 55.5t10.5 50.5t6 26.5q7 31 18.5 56t29 42t43.5 26t62 9q27 0 50.5 -8t41 -22.5t27.5 -35t10 -46.5v-10h-90v7q0 13 -9 23.5t-35 10.5q-24 0 -36.5 -12.5t-17.5 -34.5l-6 -28q8 5 20.5 7.5t30.5 2.5
q19 0 38.5 -7t35.5 -22t25.5 -37.5t9.5 -53.5q0 -7 -1 -18.5t-3 -19.5q-6 -23 -15.5 -43.5t-26 -36t-42 -25t-62.5 -9.5zM148 75q24 0 36 12.5t17 34.5q5 18 5 26q0 16 -10 26.5t-34 10.5t-36.5 -12.5t-17.5 -34.5q-2 -11 -3 -18.5t-1 -10.5q0 -13 9 -23.5t35 -10.5z" />
    <glyph glyph-name="seven.denominator" horiz-adv-x="292" 
d="M211 326h-177l16 80h280l-17 -80l-195 -326h-102z" />
    <glyph glyph-name="eight.denominator" horiz-adv-x="333" 
d="M131 -6q-26 0 -49.5 7.5t-41.5 22.5t-29 37t-11 51q0 7 1.5 20.5t7.5 29.5t17.5 31.5t31.5 27.5q-17 26 -17 61q0 16 5 38.5t20 42.5t42 34.5t72 14.5q57 0 92.5 -31.5t35.5 -82.5q0 -11 -2.5 -26t-8.5 -30t-17 -29.5t-29 -24.5q9 -14 14.5 -30t5.5 -36q0 -10 -3.5 -31.5
t-18 -43t-42.5 -37.5t-76 -16zM135 75q16 0 25 5.5t13.5 13.5t5.5 16.5t1 14.5q0 21 -12 32.5t-32 11.5q-16 0 -25.5 -5.5t-14 -14t-5.5 -17t-1 -14.5q0 -20 12 -31.5t33 -11.5zM173 242q27 0 36 16t9 33t-9.5 28.5t-32.5 11.5q-26 0 -35 -16t-9 -33t9 -28.5t32 -11.5z" />
    <glyph glyph-name="nine.denominator" horiz-adv-x="361" 
d="M192 412q27 0 50.5 -8t41 -22.5t27.5 -35t10 -46.5q0 -14 -4.5 -41t-10 -55t-10.5 -50.5t-6 -26.5q-8 -32 -19 -56.5t-28.5 -41.5t-43.5 -26t-62 -9q-27 0 -50.5 8t-41 22.5t-27.5 35t-10 46.5v10h90v-7q0 -13 9 -23.5t35 -10.5q24 0 36.5 12.5t17.5 34.5l6 28
q-8 -5 -20.5 -7.5t-30.5 -2.5q-20 0 -39 7t-35 22t-25.5 37.5t-9.5 53.5q0 7 1 18.5t3 19.5q6 22 15.5 43t26 36.5t42 25t62.5 9.5zM187 331q-24 0 -36 -12.5t-17 -34.5q-5 -18 -5 -26q0 -16 10 -26.5t34 -10.5t36.5 12.5t17.5 34.5q2 11 3 18.5t1 10.5q0 13 -9 23.5
t-35 10.5z" />
    <glyph glyph-name="zero.denominator" horiz-adv-x="366" 
d="M148 75q24 0 36 12.5t17 34.5q5 23 11.5 51.5t12 54.5t9 45t3.5 24q0 13 -9 23.5t-35 10.5q-24 0 -36.5 -12.5t-17.5 -34.5q-5 -23 -11.5 -51.5t-11.5 -54.5t-8.5 -45t-3.5 -24q0 -13 9 -23.5t35 -10.5zM143 -6q-27 0 -50.5 8t-41 22.5t-27.5 35t-10 46.5q0 10 4.5 37
t10 56t10.5 52.5t6 27.5q7 32 18 56.5t29 41.5t44 26t62 9q27 0 50.5 -8t41 -22.5t27.5 -35t10 -46.5q0 -11 -4.5 -37.5t-10.5 -55.5t-11 -52.5t-6 -27.5q-7 -32 -18 -56.5t-28.5 -41.5t-43.5 -26t-62 -9z" />
    <glyph glyph-name="zero.slashed.denominator" horiz-adv-x="366" 
d="M143 -6q-27 0 -50.5 8t-41 22.5t-27.5 35t-10 46.5q0 10 4.5 37t10 56t10.5 52.5t6 27.5q7 32 18 56.5t29 41.5t44 26t62 9q27 0 50.5 -8t41 -22.5t27.5 -35t10 -46.5q0 -11 -4.5 -37.5t-10.5 -55.5t-11 -52.5t-6 -27.5q-7 -32 -18 -56.5t-28.5 -41.5t-43.5 -26t-62 -9z
M119 194l117 97q1 2 1 6q0 13 -9 23.5t-35 10.5q-24 0 -36.5 -12.5t-17.5 -34.5zM148 75q24 0 36 12.5t17 34.5l20 89l-117 -97v-5q0 -13 9 -23.5t35 -10.5z" />
    <glyph glyph-name="ampersand.case" horiz-adv-x="624" 
d="M227 0q-46 0 -83.5 16.5t-63.5 43t-40.5 59.5t-14.5 67q0 58 25.5 108t91.5 85q-24 21 -38 53.5t-14 64.5q0 101 69.5 152t194.5 51h110l-25 -130h-101q-35 0 -57.5 -6.5t-36 -17t-19 -25t-5.5 -29.5q0 -14 5.5 -27.5t16.5 -25t27 -18.5t38 -7h95l17 80h135l-17 -80h120
l-25 -131h-123l-59 -283h-223zM341 130l33 153h-97q-21 0 -42.5 -4t-39 -13t-29 -24.5t-11.5 -38.5q0 -30 19.5 -51.5t55.5 -21.5h111z" />
    <glyph glyph-name="hyphen.case" horiz-adv-x="379" 
d="M363 392l-25 -120h-290l25 120h290z" />
    <glyph glyph-name="endash.case" horiz-adv-x="549" 
d="M533 392l-25 -120h-460l25 120h460z" />
    <glyph glyph-name="emdash.case" horiz-adv-x="865" 
d="M849 392l-25 -120h-776l25 120h776z" />
    <glyph glyph-name="question.case" horiz-adv-x="539" 
d="M80 500q13 50 32.5 89t49 66t71 41t98.5 14q46 0 84 -13.5t65.5 -38.5t42.5 -60t15 -77q0 -35 -6.5 -64t-19 -54t-32.5 -47.5t-47 -45.5l-62 -46q-23 -17 -36 -25.5t-19 -28.5h-134l5 22q4 20 10 36.5t16 31.5t24.5 29.5t37.5 31.5l62 46q40 34 55.5 54.5t15.5 46.5
q0 31 -19.5 51.5t-67.5 20.5q-42 0 -70 -19.5t-38 -60.5h-133zM157 160h160l-34 -160h-160z" />
    <glyph glyph-name="questiondown.case" horiz-adv-x="539" 
d="M490 200q-13 -50 -32.5 -89t-49 -66t-71 -41t-98.5 -14q-46 0 -84 13.5t-65.5 38.5t-42.5 60t-15 77q0 35 6.5 64t19 54t32.5 47.5t47 45.5l62 46q23 17 36 25.5t19 28.5h134l-5 -22q-5 -20 -10.5 -36.5t-15.5 -31.5t-25 -30t-37 -31l-62 -46q-20 -17 -33.5 -30
t-22 -24.5t-12 -22.5t-3.5 -24q0 -31 19.5 -51.5t67.5 -20.5q42 0 70 19.5t38 60.5h133zM413 540h-160l34 160h160z" />
    <glyph glyph-name="exclam.case" horiz-adv-x="310" 
d="M212 210h-134l104 490h134zM54 160h160l-35 -160h-160z" />
    <glyph glyph-name="exclamdown.case" horiz-adv-x="310" 
d="M137 490h134l-104 -490h-134zM295 540h-160l35 160h160z" />
    <glyph glyph-name="guilsinglleft.case" horiz-adv-x="279" 
d="M49 273l25 114l210 155l-38 -176l-69 -51l47 -51l-31 -146z" />
    <glyph glyph-name="guilsinglright.case" horiz-adv-x="279" 
d="M259 387l-25 -114l-210 -155l38 176l69 51l-47 51l31 146z" />
    <glyph glyph-name="guillemotleft.case" horiz-adv-x="496" 
d="M49 273l25 114l210 155l-38 -176l-69 -51l47 -51l-31 -146zM266 273l25 114l210 155l-38 -176l-69 -51l47 -51l-31 -146z" />
    <glyph glyph-name="guillemotright.case" horiz-adv-x="496" 
d="M259 387l-25 -114l-210 -155l38 176l69 51l-47 51l31 146zM476 387l-25 -114l-210 -155l38 176l69 51l-47 51l31 146z" />
    <glyph glyph-name="parenleft.case" horiz-adv-x="309" 
d="M269 540q-7 -32 -15.5 -72.5t-17.5 -82.5t-18 -82.5t-16 -73t-11 -54t-4 -25.5q0 -31 31 -31h36l-26 -119h-21q-37 0 -63.5 10.5t-43.5 28t-25 41t-8 50.5q0 25 8.5 70.5t21.5 104l28 126t28 137.5q7 35 17 60t28 41t45.5 23.5t69.5 7.5h64l-26 -119h-36q-24 0 -33 -11.5
t-13 -29.5z" />
    <glyph glyph-name="parenright.case" horiz-adv-x="308" 
d="M80 160q7 32 15.5 72.5t17.5 82.5t18 82.5t16 73t11 54t4 25.5q0 31 -31 31h-36l26 119h21q37 0 63.5 -10.5t43.5 -28t25 -41t8 -50.5q0 -26 -8.5 -71t-21.5 -103.5l-28 -126t-28 -137.5q-7 -35 -17 -60t-28 -41t-45.5 -23.5t-69.5 -7.5h-64l26 119h36q24 0 33 11.5
t13 29.5z" />
    <glyph glyph-name="bracketleft.case" horiz-adv-x="309" 
d="M179 119h74l-26 -119h-195l148 700h196l-26 -119h-74z" />
    <glyph glyph-name="bracketright.case" horiz-adv-x="310" 
d="M169 581h-74l26 119h195l-148 -700h-196l26 119h74z" />
    <glyph glyph-name="braceleft.case" horiz-adv-x="342" 
d="M99 130q0 50 10 83.5t10 51.5q0 11 -6.5 17.5t-24.5 6.5h-36l25 122h36q24 0 33.5 11.5t13.5 29.5q5 22 7 32t4 19l5 22.5t9 42.5q7 35 17 60t28 41t45.5 23.5t69.5 7.5h64l-26 -119h-36q-24 0 -33 -11.5t-13 -29.5q-6 -32 -9.5 -46t-5.5 -23t-4 -18.5t-6 -31.5
q-7 -35 -18 -51.5t-34 -27.5q9 -8 15 -19t6 -31q0 -11 -4 -31.5t-9 -42t-9 -40.5t-4 -28q0 -31 31 -31h36l-26 -119h-21q-37 0 -63.5 10.5t-43.5 28t-25 41t-8 50.5z" />
    <glyph glyph-name="braceright.case" horiz-adv-x="343" 
d="M282 570q0 -50 -10 -83.5t-10 -51.5q0 -11 6.5 -17.5t24.5 -6.5h36l-25 -122h-36q-24 0 -33.5 -11.5t-13.5 -29.5q-5 -22 -7 -32t-4 -19l-5 -22.5t-9 -42.5q-7 -35 -17 -60t-28 -41t-45.5 -23.5t-69.5 -7.5h-64l26 119h36q24 0 33 11.5t13 29.5q6 31 9.5 45.5t5.5 23.5
t4 18.5t6 31.5q7 35 18 51.5t34 27.5q-9 8 -15 19t-6 31q0 11 4 31.5t9 42t9 40.5t4 28q0 31 -31 31h-36l26 119h21q37 0 63.5 -10.5t43.5 -28t25 -41t8 -50.5z" />
    <glyph glyph-name="bar.case" horiz-adv-x="262" 
d="M211 0h-122v700h122v-700z" />
    <glyph glyph-name="brokenbar.case" horiz-adv-x="262" 
d="M89 289h122v-289h-122v289zM89 700h122v-289h-122v289z" />
    <glyph glyph-name="periodcentered.case" horiz-adv-x="319" 
d="M115 422h160l-35 -160h-160z" />
    <glyph glyph-name="at.case" horiz-adv-x="946" 
d="M253 235q0 57 22 92.5t76 61.5q19 9 46.5 15t59 10.5t64.5 7.5t62 5q-7 35 -31 55.5t-65 20.5q-35 0 -58 -15.5t-33 -41.5h-133q16 81 72.5 128.5t151.5 47.5q55 0 98 -17t72.5 -48t44.5 -74.5t15 -97.5v-148q0 -19 8.5 -26.5t21.5 -7.5t22 7.5t9 26.5v163
q0 134 -75 207.5t-216 73.5t-216 -73.5t-75 -207.5v-100q0 -134 75 -207.5t216 -73.5q108 0 179 45l60 -110q-51 -29 -111.5 -42.5t-127.5 -13.5q-85 0 -160 22t-131.5 70.5t-89 125.5t-32.5 187v94q0 110 32.5 187t89 125.5t131.5 70.5t160 22t160 -22t131 -70.5t89 -125.5
t33 -187v-179q0 -29 -11 -54t-31 -43t-48 -28.5t-63 -10.5q-63 0 -101 16t-61 43q-20 -28 -56.5 -43.5t-84.5 -15.5q-91 0 -141 40.5t-50 112.5zM413 294q-17 -8 -22.5 -17.5t-5.5 -26.5q0 -19 17 -35.5t61 -16.5q51 0 86.5 27t35.5 76v17q-57 -4 -105 -9t-67 -15z" />
    <glyph glyph-name="plus.case" 
d="M354 392h170v-120h-170v-170h-120v170h-170v120h170v170h120v-170z" />
    <glyph glyph-name="minus.case" 
d="M524 392v-120h-460v120h460z" />
    <glyph glyph-name="divide.case" 
d="M221 506q0 30 21.5 51t51.5 21t51 -21t21 -51t-21 -51.5t-51 -21.5t-51.5 21.5t-21.5 51.5zM221 159q0 30 21.5 51t51.5 21t51 -21t21 -51t-21 -51.5t-51 -21.5t-51.5 21.5t-21.5 51.5zM524 392v-120h-460v120h460z" />
    <glyph glyph-name="multiply.case" 
d="M379 332l144 -143l-85 -85l-144 143l-143 -143l-85 85l143 143l-143 144l85 85l143 -144l144 144l85 -85z" />
    <glyph glyph-name="equal.case" 
d="M64 392v120h460v-120h-460zM524 272v-120h-460v120h460z" />
    <glyph glyph-name="plusminus.case" 
d="M64 337v120h170v116h120v-116h170v-120h-170v-116h-120v116h-170zM524 177v-120h-460v120h460z" />
    <glyph glyph-name="less.case" 
d="M524 183v-131l-460 197v134l460 197v-131l-311 -133z" />
    <glyph glyph-name="greater.case" 
d="M375 316l-311 133v131l460 -197v-134l-460 -197v131z" />
    <glyph glyph-name="lessequal.case" 
d="M64 327v134l460 119v-125l-237 -61l237 -61v-125zM524 177v-120h-460v120h460z" />
    <glyph glyph-name="greaterequal.case" 
d="M64 208v125l237 61l-237 61v125l460 -119v-134zM524 177v-120h-460v120h460z" />
    <glyph glyph-name="notequal.case" 
d="M186 272l76 120h-198v120h274l87 136l99 -63l-47 -73h47v-120h-123l-76 -120h199v-120h-275l-86 -135l-99 63l46 72h-46v120h122z" />
    <glyph glyph-name="acute.case" horiz-adv-x="338" 
d="M415 854l-128 -109h-121l75 109h174z" />
    <glyph glyph-name="breve.case" horiz-adv-x="420" 
d="M382 830q10 0 18.5 7t10.5 17h101q-5 -23 -18 -43t-31 -34.5t-39.5 -23t-44.5 -8.5h-132q-23 0 -41 8.5t-30 23t-16.5 34.5t0.5 43h89q-2 -10 3.5 -17t15.5 -7h114v0z" />
    <glyph glyph-name="caron.case" horiz-adv-x="458" 
d="M338 819l51 35h152l-154 -109h-110l-108 109h132z" />
    <glyph glyph-name="cedilla.case" horiz-adv-x="272" 
d="M7 0h118l-38 -158h-132z" />
    <glyph glyph-name="circumflex.case" horiz-adv-x="458" 
d="M349 780l-51 -35h-152l154 109h110l108 -109h-132z" />
    <glyph glyph-name="dieresis.case" horiz-adv-x="434" 
d="M288 741h-134l25 117h134zM484 741h-134l25 117h134z" />
    <glyph glyph-name="dotaccent.case" horiz-adv-x="212" 
d="M275 741h-134l25 117h134z" />
    <glyph glyph-name="grave.case" horiz-adv-x="338" 
d="M338 854l52 -109h-116l-105 109h169z" />
    <glyph glyph-name="hungarumlaut.case" horiz-adv-x="516" 
d="M401 854l-118 -109h-116l65 109h169zM593 854l-118 -109h-116l65 109h169z" />
    <glyph glyph-name="macron.case" horiz-adv-x="439" 
d="M516 853l-23 -106h-341l23 106h341z" />
    <glyph glyph-name="ogonek.case" horiz-adv-x="271" 
d="M181 0q-42 -25 -69.5 -42.5t-27.5 -36.5q0 -15 23 -15q15 0 31 5t26 10l-20 -92q-14 -8 -36.5 -13t-48.5 -5q-21 0 -41.5 5.5t-37 16.5t-27 27.5t-10.5 38.5q0 35 30 60.5t78 40.5h130z" />
    <glyph glyph-name="ring.case" horiz-adv-x="215" 
d="M148 799q0 31 21.5 53t52.5 22t53 -22t22 -53t-22 -52.5t-53 -21.5t-52.5 21.5t-21.5 52.5zM204 799q0 -8 5 -13t13 -5t13 5t5 13t-5 13t-13 5t-13 -5t-5 -13z" />
    <glyph glyph-name="tilde.case" horiz-adv-x="453" 
d="M522 864q-5 -26 -14.5 -49.5t-24.5 -41.5t-35 -28.5t-45 -10.5q-18 0 -31 3t-30 11l-27 13q-9 4 -18 4q-21 0 -32 -29h-104q5 26 14.5 49.5t24.5 41.5t34.5 28.5t45.5 10.5q18 0 31 -3t30 -11l27 -13q9 -4 18 -4q21 0 32 29h104z" />
    <glyph glyph-name="at.case.ss01" horiz-adv-x="946" 
d="M697 237q0 -19 13.5 -26.5t26.5 -7.5t27 7.5t14 26.5v163q0 134 -75 207.5t-216 73.5t-216 -73.5t-75 -207.5v-100q0 -134 75 -207.5t216 -73.5q108 0 179 45l60 -110q-51 -29 -111.5 -42.5t-127.5 -13.5q-85 0 -160 22t-131.5 70.5t-89 125.5t-32.5 187v94
q0 110 32.5 187t89 125.5t131.5 70.5t160 22t160 -22t131 -70.5t89 -125.5t33 -187v-179q0 -29 -12.5 -54t-34 -43t-51.5 -28.5t-65 -10.5q-63 0 -106 16t-66 43q-9 -13 -22.5 -24t-29.5 -18.5t-34 -12t-35 -4.5q-39 0 -76.5 13.5t-66.5 41.5t-46.5 70t-17.5 99v92
q0 57 17.5 99t46.5 70t66.5 41.5t76.5 13.5q17 0 35 -4.5t34 -12t29.5 -18.5t22.5 -24v45h132v-371zM369 311q0 -26 8.5 -45t22 -31t31 -18t36.5 -6t36.5 6t31 18t22 31t8.5 45v82q0 26 -8.5 45t-22 31t-31 18t-36.5 6t-36.5 -6t-31 -18t-22 -31t-8.5 -45v-82z" />
    <glyph glyph-name="a.ss01" horiz-adv-x="562" 
d="M327 53q-5 -8 -14.5 -19t-24 -21t-34.5 -16.5t-45 -6.5q-45 0 -77.5 17.5t-54 45.5t-32 62.5t-10.5 68.5q0 12 2 29.5t5.5 36.5t7 37.5t6.5 33.5q23 108 76 158.5t144 50.5q51 0 85 -21t51 -53l13 60h132l-109 -516h-132zM359 205q7 33 11.5 55t7.5 35.5t4 20t1 10.5
q0 37 -19 61t-69 24q-44 0 -71.5 -25t-37.5 -71q-7 -33 -11.5 -55t-7.5 -35.5t-4 -20t-1 -10.5q0 -37 19 -61t69 -24q44 0 71.5 25t37.5 71z" />
    <glyph glyph-name="aacute.ss01" horiz-adv-x="562" 
d="M327 53q-5 -8 -14.5 -19t-24 -21t-34.5 -16.5t-45 -6.5q-45 0 -77.5 17.5t-54 45.5t-32 62.5t-10.5 68.5q0 12 2 29.5t5.5 36.5t7 37.5t6.5 33.5q23 108 76 158.5t144 50.5q51 0 85 -21t51 -53l13 60h132l-109 -516h-132zM359 205q7 33 11.5 55t7.5 35.5t4 20t1 10.5
q0 37 -19 61t-69 24q-44 0 -71.5 -25t-37.5 -71q-7 -33 -11.5 -55t-7.5 -35.5t-4 -20t-1 -10.5q0 -37 19 -61t69 -24q44 0 71.5 25t37.5 71zM494 700l-118 -129h-114l60 129h172z" />
    <glyph glyph-name="abreve.ss01" horiz-adv-x="562" 
d="M327 53q-5 -8 -14.5 -19t-24 -21t-34.5 -16.5t-45 -6.5q-45 0 -77.5 17.5t-54 45.5t-32 62.5t-10.5 68.5q0 12 2 29.5t5.5 36.5t7 37.5t6.5 33.5q23 108 76 158.5t144 50.5q51 0 85 -21t51 -53l13 60h132l-109 -516h-132zM359 205q7 33 11.5 55t7.5 35.5t4 20t1 10.5
q0 37 -19 61t-69 24q-44 0 -71.5 -25t-37.5 -71q-7 -33 -11.5 -55t-7.5 -35.5t-4 -20t-1 -10.5q0 -37 19 -61t69 -24q44 0 71.5 25t37.5 71zM307 571q-47 0 -76 29.5t-29 73.5q0 12 3 26h87q-1 -3 -1 -6v-4q0 -11 8 -18.5t22 -7.5h94q15 0 27.5 10.5t15.5 25.5h99
q-6 -27 -21 -50.5t-36 -41t-46.5 -27.5t-52.5 -10h-94v0z" />
    <glyph glyph-name="acircumflex.ss01" horiz-adv-x="562" 
d="M327 53q-5 -8 -14.5 -19t-24 -21t-34.5 -16.5t-45 -6.5q-45 0 -77.5 17.5t-54 45.5t-32 62.5t-10.5 68.5q0 12 2 29.5t5.5 36.5t7 37.5t6.5 33.5q23 108 76 158.5t144 50.5q51 0 85 -21t51 -53l13 60h132l-109 -516h-132zM359 205q7 33 11.5 55t7.5 35.5t4 20t1 10.5
q0 37 -19 61t-69 24q-44 0 -71.5 -25t-37.5 -71q-7 -33 -11.5 -55t-7.5 -35.5t-4 -20t-1 -10.5q0 -37 19 -61t69 -24q44 0 71.5 25t37.5 71zM525 571h-128l-39 45l-58 -45h-147l153 129h120z" />
    <glyph glyph-name="adieresis.ss01" horiz-adv-x="562" 
d="M327 53q-5 -8 -14.5 -19t-24 -21t-34.5 -16.5t-45 -6.5q-45 0 -77.5 17.5t-54 45.5t-32 62.5t-10.5 68.5q0 12 2 29.5t5.5 36.5t7 37.5t6.5 33.5q23 108 76 158.5t144 50.5q51 0 85 -21t51 -53l13 60h132l-109 -516h-132zM359 205q7 33 11.5 55t7.5 35.5t4 20t1 10.5
q0 37 -19 61t-69 24q-44 0 -71.5 -25t-37.5 -71q-7 -33 -11.5 -55t-7.5 -35.5t-4 -20t-1 -10.5q0 -37 19 -61t69 -24q44 0 71.5 25t37.5 71zM308 577h-132l25 117h132zM504 577h-132l25 117h132z" />
    <glyph glyph-name="agrave.ss01" horiz-adv-x="562" 
d="M327 53q-5 -8 -14.5 -19t-24 -21t-34.5 -16.5t-45 -6.5q-45 0 -77.5 17.5t-54 45.5t-32 62.5t-10.5 68.5q0 12 2 29.5t5.5 36.5t7 37.5t6.5 33.5q23 108 76 158.5t144 50.5q51 0 85 -21t51 -53l13 60h132l-109 -516h-132zM359 205q7 33 11.5 55t7.5 35.5t4 20t1 10.5
q0 37 -19 61t-69 24q-44 0 -71.5 -25t-37.5 -71q-7 -33 -11.5 -55t-7.5 -35.5t-4 -20t-1 -10.5q0 -37 19 -61t69 -24q44 0 71.5 25t37.5 71zM366 700l33 -129h-109l-91 129h167z" />
    <glyph glyph-name="amacron.ss01" horiz-adv-x="562" 
d="M327 53q-5 -8 -14.5 -19t-24 -21t-34.5 -16.5t-45 -6.5q-45 0 -77.5 17.5t-54 45.5t-32 62.5t-10.5 68.5q0 12 2 29.5t5.5 36.5t7 37.5t6.5 33.5q23 108 76 158.5t144 50.5q51 0 85 -21t51 -53l13 60h132l-109 -516h-132zM359 205q7 33 11.5 55t7.5 35.5t4 20t1 10.5
q0 37 -19 61t-69 24q-44 0 -71.5 -25t-37.5 -71q-7 -33 -11.5 -55t-7.5 -35.5t-4 -20t-1 -10.5q0 -37 19 -61t69 -24q44 0 71.5 25t37.5 71zM551 688l-23 -104h-341l23 104h341z" />
    </font>
</defs>
</svg>
