<?xml version="1.0" standalone="no"?>
<!DOCTYPE svg PUBLIC "-//W3C//DTD SVG 1.1//EN" "http://www.w3.org/Graphics/SVG/1.1/DTD/svg11.dtd" >
<svg xmlns="http://www.w3.org/2000/svg" xmlns:xlink="http://www.w3.org/1999/xlink" version="1.1">
<metadata>
Created by Christoph Koeberlin (http://christoph.koe.berlin)
Copyright (c) 2011 Swiss Typefaces Sa`rl. All rights reserved.
</metadata>
<defs>
<font id="Font" horiz-adv-x="558" >
  <font-face 
    font-family="Font"
    font-weight="300"
    font-style="italic"
    font-stretch="normal"
    units-per-em="1000"
    panose-1="2 11 3 0 3 0 0 0 0 0"
    ascent="800"
    descent="-200"
    x-height="516"
    cap-height="700"
    bbox="-200 -209 1036 874"
    underline-thickness="48"
    underline-position="-52"
    slope="-12"
    unicode-range="U+0020-FB04"
  />
<missing-glyph horiz-adv-x="500" 
d="M1 0l148 700h387l-148 -700h-387zM277 404l160 242h-216zM244 354l-59 256l-109 -512zM461 603l-170 -258l60 -257zM314 54l-56 241l-159 -241h215z" />
    <glyph glyph-name=".notdef" horiz-adv-x="500" 
d="M1 0l148 700h387l-148 -700h-387zM277 404l160 242h-216zM244 354l-59 256l-109 -512zM461 603l-170 -258l60 -257zM314 54l-56 241l-159 -241h215z" />
    <glyph glyph-name=".null" horiz-adv-x="0" 
 />
    <glyph glyph-name="nonmarkingreturn" horiz-adv-x="0" 
 />
    <glyph glyph-name="space" unicode=" " horiz-adv-x="230" 
 />
    <glyph glyph-name="exclam" unicode="!" horiz-adv-x="264" 
d="M252 700l-104 -490h-53l104 490h53zM53 84h84l-18 -84h-84z" />
    <glyph glyph-name="quotedbl" unicode="&#x22;" horiz-adv-x="356" 
d="M155 476v224h53v-224h-53zM288 476v224h53v-224h-53z" />
    <glyph glyph-name="numbersign" unicode="#" horiz-adv-x="700" 
d="M488 216l-53 -216h-47l53 216h-211l-53 -216h-47l53 216h-71v45h82l44 178h-81v45h92l54 216h47l-54 -216h211l54 216h47l-54 -216h72v-45h-83l-44 -178h82v-45h-93zM241 261h211l44 178h-211z" />
    <glyph glyph-name="dollar" unicode="$" horiz-adv-x="505" 
d="M177 -3q-30 7 -57 21.5t-47 37.5t-31.5 54t-11.5 70v10t1 10h52q-1 -8 -1 -10v-7q0 -56 29.5 -90t76.5 -47l60 285l-15 6q-62 23 -93.5 70.5t-31.5 103.5q0 48 14.5 85t41.5 62.5t65 38.5t84 13h7.5t8.5 -1l19 91h43l-21 -98q26 -8 49 -21.5t40.5 -33.5t28 -46t10.5 -57
v-6t-1 -8h-51v4q0 47 -24.5 77t-61.5 42l-61 -285l23 -8q57 -21 89.5 -64t32.5 -102q0 -41 -12.5 -77.5t-38.5 -65t-66 -45t-95 -16.5q-3 0 -6.5 0.5t-6.5 0.5l-19 -91h-43zM288 316l-58 -276h11q29 0 56 10t47.5 29t33 47t12.5 65q0 42 -21 72.5t-72 49.5zM162 520
q0 -45 20 -80t70 -54l7 -3l59 277h-7q-72 0 -110.5 -40t-38.5 -100z" />
    <glyph glyph-name="percent" unicode="%" horiz-adv-x="807" 
d="M688 700l-481 -700h-48l481 700h48zM212 329q29 0 52 18.5t31 54.5q3 16 10 46t14 62t12 59t5 36q0 27 -17 43.5t-49 16.5q-29 0 -52 -18.5t-31 -54.5q-3 -16 -10 -46t-13.5 -62t-12 -59t-5.5 -36q0 -27 17 -43.5t49 -16.5zM205 288q-26 0 -45 8.5t-31 22t-18 30.5t-6 34
q0 10 4.5 37t11 58.5t13 62.5t10.5 50q14 60 46.5 87.5t86.5 27.5q26 0 45 -8.5t31 -22t18 -30.5t6 -34q0 -11 -4.5 -37.5t-11 -58t-13 -62.5t-10.5 -50q-14 -60 -46.5 -87.5t-86.5 -27.5zM577 35q29 0 52 18.5t31 54.5q3 16 10 46t14 62t12 59t5 36q0 27 -17 43.5t-49 16.5
q-29 0 -52 -18.5t-31 -54.5q-3 -16 -10 -46t-13.5 -62t-12 -59t-5.5 -36q0 -27 17 -43.5t49 -16.5zM570 -6q-26 0 -45 8.5t-31 22t-18 30.5t-6 34q0 10 4.5 37t11 58.5t13 62.5t10.5 50q14 60 46.5 87.5t86.5 27.5q26 0 45 -8.5t31 -22t18 -30.5t6 -34q0 -11 -4.5 -37.5
t-11 -58t-13 -62.5t-10.5 -50q-14 -60 -46.5 -87.5t-86.5 -27.5z" />
    <glyph glyph-name="ampersand" unicode="&#x26;" horiz-adv-x="595" 
d="M330 650q-75 0 -123 -36t-48 -107q0 -24 7.5 -47t22 -41.5t35.5 -29.5t49 -11h155l17 81h53l-18 -81h128l-11 -49h-127l-70 -329h-203q-39 0 -68.5 13.5t-49.5 37t-30 54t-10 64.5q0 67 31.5 119t103.5 78q-33 20 -50 56.5t-17 74.5q0 55 18 94t49 63t73 35t90 11h159
l-11 -50h-155zM358 50l59 279h-150q-37 0 -69 -8.5t-56 -27t-37.5 -47.5t-13.5 -70q0 -23 6 -45.5t20 -40.5t36 -29t55 -11h150z" />
    <glyph glyph-name="quotesingle" unicode="'" horiz-adv-x="223" 
d="M155 476v224h53v-224h-53z" />
    <glyph glyph-name="parenleft" unicode="(" horiz-adv-x="261" 
d="M173 597q7 32 16 52t23.5 31.5t36 15.5t53.5 4h10l-9 -41h-10q-20 0 -33 -3t-21.5 -10t-13.5 -19t-9 -30q-32 -149 -53.5 -251t-36 -168.5t-22 -103t-11.5 -55t-4.5 -24.5t-0.5 -11q0 -19 10.5 -27t43.5 -8h10l-9 -41h-10q-48 0 -68 21.5t-20 56.5q0 4 0.5 9.5t4.5 23.5
t11.5 55t22 103.5t36 168.5t53.5 251z" />
    <glyph glyph-name="parenright" unicode=")" horiz-adv-x="261" 
d="M108 11q-7 -32 -16 -52t-23.5 -31.5t-36.5 -15.5t-53 -4h-10l9 41h10q20 0 33 3t21.5 10t13.5 19t9 30q32 149 53.5 251t36 168.5t22 103t11.5 55t4.5 24.5t0.5 11q0 19 -10.5 27t-43.5 8h-10l9 41h10q48 0 68 -21.5t20 -56.5q0 -4 -0.5 -9.5t-4.5 -23.5t-11.5 -55
t-22 -103.5t-36 -168.5t-53.5 -251z" />
    <glyph glyph-name="asterisk" unicode="*" horiz-adv-x="453" 
d="M282 511l-100 -105l-32 27l98 102l-111 40l21 38l109 -39l28 126h45l-27 -125l127 39l4 -41l-127 -39l53 -101l-36 -23z" />
    <glyph glyph-name="plus" unicode="+" 
d="M262 258h-176v45h176v175h45v-175h175v-45h-175v-176h-45v176z" />
    <glyph glyph-name="comma" unicode="," horiz-adv-x="264" 
d="M53 84h84l-17 -84l-49 -84h-49l49 84h-35z" />
    <glyph glyph-name="hyphen" unicode="-" horiz-adv-x="410" 
d="M61 258l9 45h290l-9 -45h-290z" />
    <glyph glyph-name="period" unicode="." horiz-adv-x="264" 
d="M53 84h84l-17 -84h-84z" />
    <glyph glyph-name="slash" unicode="/" horiz-adv-x="332" 
d="M332 700l-283 -700h-49l283 700h49z" />
    <glyph glyph-name="zero" unicode="0" horiz-adv-x="534" 
d="M176 513q-12 -56 -24.5 -112.5t-23 -105.5t-17 -86t-6.5 -55q0 -60 34.5 -87t92.5 -27q59 0 104 38.5t60 108.5q12 56 24.5 112.5t23 105t17 86t6.5 55.5q0 60 -34.5 87t-92.5 27q-59 0 -104 -38.5t-60 -108.5zM449 187q-12 -54 -33 -91.5t-50.5 -61t-65.5 -34t-77 -10.5
q-28 0 -58 8.5t-55 27t-41 48t-16 71.5q0 21 6.5 59.5t16.5 88t22.5 106t24.5 114.5q12 54 33 91.5t50.5 61t65.5 34t77 10.5q28 0 58 -8.5t55 -27t41 -48t16 -71.5q0 -21 -6.5 -59.5t-16.5 -88t-22.5 -106t-24.5 -114.5z" />
    <glyph glyph-name="one" unicode="1" horiz-adv-x="329" 
d="M121 585l159 115h53l-149 -700h-53l133 627l-158 -114z" />
    <glyph glyph-name="two" unicode="2" horiz-adv-x="507" 
d="M102 495q6 44 22.5 83t44 68.5t68 46.5t95.5 17q28 0 58 -8.5t55 -27t41 -48t16 -71.5q0 -68 -34 -124t-86 -104l-302 -277h322l-11 -50h-395l11 51l337 310q19 18 38 38.5t34 44t24.5 49.5t9.5 53q0 60 -34.5 87t-92.5 27q-35 0 -63.5 -13t-50.5 -35t-36 -52.5
t-18 -64.5h-53z" />
    <glyph glyph-name="three" unicode="3" horiz-adv-x="509" 
d="M105 500q10 57 31 97t51 65t67 36.5t80 11.5q28 0 58 -8.5t55 -27t41 -48t16 -71.5q0 -78 -38 -131.5t-96 -76.5q35 -23 50 -57.5t15 -67.5q0 -55 -17.5 -98t-48.5 -73t-73.5 -45.5t-93.5 -15.5q-29 0 -58.5 9t-53.5 28t-39 48.5t-15 69.5q0 8 1 22t4 33h52
q-2 -15 -3.5 -26.5t-1.5 -19.5q0 -60 34.5 -87t88.5 -27q34 0 65 12t55 35t38 55t14 73q0 22 -7 42.5t-20.5 36.5t-34.5 25.5t-49 9.5h-49l11 50h51q36 0 67 13.5t53 36t34.5 53t12.5 64.5q0 60 -34.5 87t-92.5 27q-36 0 -64 -12.5t-49 -34.5t-34.5 -51t-19.5 -62h-53z" />
    <glyph glyph-name="four" unicode="4" horiz-adv-x="508" 
d="M496 700l-97 -452h73l-9 -48h-73l-43 -200h-53l43 200h-328l9 48l425 452h53zM346 248l77 358l-336 -358h259z" />
    <glyph glyph-name="five" unicode="5" horiz-adv-x="514" 
d="M159 382q17 20 54 37.5t82 17.5q28 0 58 -8.5t55 -27t41 -48t16 -71.5q0 -8 -1 -19.5t-3 -25t-4.5 -27t-4.5 -23.5q-12 -54 -33 -91.5t-50.5 -61t-65.5 -34t-77 -10.5q-28 0 -58 8.5t-55 27t-41 48t-16 71.5q0 20 6 55h51q-2 -15 -3.5 -26.5t-1.5 -19.5q0 -60 34.5 -87
t92.5 -27q59 0 104 38.5t60 108.5q5 20 9.5 45t4.5 41q0 60 -34.5 87t-92.5 27q-41 0 -75.5 -18.5t-57.5 -53.5h-61l82 385h360l-11 -50h-307z" />
    <glyph glyph-name="six" unicode="6" horiz-adv-x="522" 
d="M144 367q21 26 59.5 44.5t86.5 18.5q28 0 58 -8.5t55 -27t41 -48t16 -71.5q0 -22 -3.5 -47t-7.5 -41q-25 -108 -83 -152.5t-143 -44.5q-28 0 -58 8.5t-55 27t-41 48t-16 71.5q0 21 6.5 59.5t16.5 88t22.5 106t24.5 114.5q12 54 33 91.5t50.5 61t65.5 34t77 10.5
q28 0 58 -8.5t55 -27t41 -48t16 -71.5q0 -21 -6 -55h-51q2 15 3.5 26.5t1.5 19.5q0 60 -34.5 87t-92.5 27q-59 0 -104 -38.5t-60 -108.5zM117 233q-5 -27 -8.5 -47t-3.5 -32q0 -60 34.5 -87t92.5 -27q60 0 104.5 39t59.5 108l3 15t4 21t3.5 22.5t1.5 20.5q0 60 -34.5 87
t-92.5 27q-29 0 -55.5 -10t-48.5 -28.5t-37.5 -46t-22.5 -62.5z" />
    <glyph glyph-name="seven" unicode="7" horiz-adv-x="442" 
d="M507 700l-11 -50l-375 -650h-60l375 650h-330l11 50h390z" />
    <glyph glyph-name="eight" unicode="8" horiz-adv-x="498" 
d="M498 552q0 -69 -33 -125t-98 -82q28 -19 46 -48.5t18 -71.5q0 -45 -13 -87t-40 -75t-69.5 -53t-101.5 -20q-29 0 -60 9.5t-56.5 28.5t-41.5 48.5t-16 68.5q0 34 7.5 67.5t24 62.5t41 52t59.5 36q-25 20 -41 50t-16 74q0 45 14.5 85t42.5 71t70 49t97 18q29 0 58.5 -9
t53.5 -28.5t39 -49t15 -71.5zM379 212q0 51 -32.5 84t-94.5 33q-35 0 -65.5 -12.5t-53 -35.5t-35.5 -54.5t-13 -68.5q0 -51 32.5 -84.5t94.5 -33.5q35 0 65.5 13t53 35.5t35.5 54t13 69.5zM160 500q0 -35 10 -58t26.5 -37t38 -20t44.5 -6q33 0 63 11.5t53 32.5t37 50.5
t14 65.5q0 34 -10 57.5t-26.5 37.5t-38 20t-44.5 6q-33 0 -63 -11.5t-53 -32.5t-37 -50.5t-14 -65.5z" />
    <glyph glyph-name="nine" unicode="9" horiz-adv-x="522" 
d="M417 333q-21 -26 -59.5 -44.5t-86.5 -18.5q-28 0 -58 8.5t-55 27t-41 48t-16 71.5q0 22 3.5 47t7.5 41q25 108 83 152.5t143 44.5q28 0 58 -8.5t55 -27t41 -48t16 -71.5q0 -21 -6.5 -59.5t-16.5 -88t-22.5 -106t-24.5 -114.5q-12 -54 -33 -91.5t-50.5 -61t-65.5 -34
t-77 -10.5q-28 0 -58 8.5t-55 27t-41 48t-16 71.5q0 20 6 55h51q-2 -15 -3.5 -26.5t-1.5 -19.5q0 -60 34.5 -87t92.5 -27q59 0 104 38.5t60 108.5zM444 467q5 27 8.5 47t3.5 32q0 60 -34.5 87t-92.5 27q-60 0 -104.5 -39t-59.5 -108l-3 -15t-4 -21t-3.5 -22.5t-1.5 -20.5
q0 -60 34.5 -87t92.5 -27q29 0 55.5 10t48.5 28.5t37.5 46t22.5 62.5z" />
    <glyph glyph-name="colon" unicode=":" horiz-adv-x="264" 
d="M146 516h84l-17 -84h-84zM53 84h84l-17 -84h-84z" />
    <glyph glyph-name="semicolon" unicode=";" horiz-adv-x="264" 
d="M53 84h84l-17 -84l-49 -84h-49l49 84h-35zM146 516h84l-17 -84h-84z" />
    <glyph glyph-name="less" unicode="&#x3c;" 
d="M482 46v-51l-396 239v50l396 239v-51l-353 -213z" />
    <glyph glyph-name="equal" unicode="=" 
d="M482 395v-45h-396v45h396zM86 155v45h396v-45h-396z" />
    <glyph glyph-name="greater" unicode="&#x3e;" 
d="M439 259l-353 213v51l396 -239v-50l-396 -239v51z" />
    <glyph glyph-name="question" unicode="?" horiz-adv-x="505" 
d="M103 500q10 57 31.5 97t51 65t66.5 36.5t80 11.5q28 0 58 -8.5t55 -27t41 -48t16 -71.5q0 -60 -32 -111.5t-81 -89.5l-71 -55q-27 -21 -37 -34.5t-14 -32.5l-4 -22h-53l4 22q6 28 22 54.5t53 54.5l72 55q36 27 62.5 64t26.5 86q0 60 -34.5 87t-92.5 27q-36 0 -64.5 -13
t-49.5 -35t-34.5 -51t-18.5 -61h-53zM165 84h84l-18 -84h-84z" />
    <glyph glyph-name="at" unicode="@" horiz-adv-x="862" 
d="M576 328q0 35 -11 63t-30 47.5t-46 30t-58 10.5q-56 0 -94.5 -31.5t-47.5 -87.5h-54q5 47 24.5 79.5t46.5 52.5t60 29t65 9q35 0 70 -10.5t63.5 -34.5t46.5 -62.5t18 -94.5v-232q0 -11 3 -22.5t10 -20.5t18 -14.5t27 -5.5q31 0 44 20t13 43v295q0 45 -17.5 94t-55.5 89.5
t-97 67t-143 26.5t-143 -26.5t-97 -67t-55.5 -89.5t-17.5 -94v-266q0 -45 17.5 -94t55.5 -89.5t97 -67t143 -26.5q65 0 114.5 16.5t86.5 42.5l25 -36q-42 -29 -98 -47t-128 -18q-96 0 -163.5 30.5t-110.5 77.5t-62.5 103.5t-19.5 107.5v266q0 51 19.5 107.5t62.5 103.5
t110.5 77.5t163.5 30.5t163.5 -30.5t110.5 -77.5t62.5 -103.5t19.5 -107.5v-287q0 -59 -27 -86.5t-75 -27.5t-74.5 23t-34.5 50q-25 -36 -69 -54.5t-103 -18.5q-42 0 -74 12t-54 33t-33 48.5t-11 58.5q0 51 26 90.5t86 57.5q45 14 105.5 19.5t126.5 9.5v9zM576 272
q-86 -5 -141.5 -11.5t-84.5 -20.5q-37 -17 -51 -40t-14 -54q0 -21 7 -40t22.5 -33.5t40.5 -23t61 -8.5q34 0 63.5 11t51 30.5t33.5 47.5t12 62v80z" />
    <glyph glyph-name="A" unicode="A" horiz-adv-x="564" 
d="M410 218h-266l-120 -218h-59l386 700h50l89 -700h-52zM404 267l-44 343l-189 -343h233z" />
    <glyph glyph-name="B" unicode="B" horiz-adv-x="579" 
d="M155 329l-58 -276h197q33 0 63 12.5t53.5 34.5t37.5 52t14 65q0 48 -30 80t-81 32h-196zM223 648l-57 -268h178q36 0 67.5 11.5t54 32.5t35.5 50t13 64q0 51 -32.5 80.5t-92.5 29.5h-166zM447 352q32 -17 51 -52t19 -76q0 -47 -17 -87.5t-48 -71t-73.5 -48t-93.5 -17.5
h-255l149 700h222q39 0 70 -12t53 -33t33.5 -49.5t11.5 -61.5q0 -72 -34 -120t-88 -72z" />
    <glyph glyph-name="C" unicode="C" horiz-adv-x="559" 
d="M501 500q1 8 1 12v9q0 34 -11.5 59.5t-31 43t-45.5 26t-55 8.5q-33 0 -63.5 -10t-56 -31t-44 -54.5t-28.5 -80.5q-14 -66 -23.5 -111.5t-16.5 -76t-11 -49.5t-6 -30.5t-2.5 -19t-0.5 -16.5q0 -34 11.5 -59.5t31 -43t45.5 -26t55 -8.5q64 0 115 36.5t73 121.5h55
q-12 -49 -33 -88t-51.5 -66t-71.5 -41.5t-94 -14.5q-39 0 -73.5 12.5t-60.5 36t-41.5 57.5t-15.5 76q0 9 0.5 17.5t2.5 21t6 31.5t10.5 50.5t16.5 77.5t24 112q22 106 82.5 167t171.5 61q39 0 73.5 -12.5t60.5 -36t41.5 -57.5t15.5 -76q0 -8 -0.5 -15.5t-1.5 -12.5h-54z" />
    <glyph glyph-name="D" unicode="D" horiz-adv-x="590" 
d="M273 52q33 0 63.5 10t56 31t44 54.5t28.5 80.5q14 66 23.5 110t15.5 72.5t9.5 44.5t5 25.5t2 15.5t0.5 15q0 34 -11.5 59.5t-31 43t-45.5 26t-55 8.5h-155l-127 -596h177zM30 0l149 700h206q39 0 73.5 -12.5t60.5 -36t41.5 -57.5t15.5 -76q0 -14 -2.5 -32t-8.5 -49
t-17 -81t-28 -128q-12 -53 -32 -95.5t-51 -72t-73.5 -45t-97.5 -15.5h-236z" />
    <glyph glyph-name="E" unicode="E" horiz-adv-x="541" 
d="M95 52h332l-11 -52h-387l149 700h387l-11 -52h-332l-57 -268h332l-11 -51h-332z" />
    <glyph glyph-name="F" unicode="F" horiz-adv-x="531" 
d="M85 0h-55l149 700h387l-11 -52h-332l-57 -268h332l-11 -51h-332z" />
    <glyph glyph-name="G" unicode="G" horiz-adv-x="566" 
d="M501 500q1 7 1 11.5v9.5q0 34 -11.5 59.5t-31 43t-45.5 26t-55 8.5q-33 0 -63.5 -10t-56 -31t-44 -54.5t-28.5 -80.5q-14 -66 -23.5 -111.5t-16.5 -76t-11 -49.5t-6 -30.5t-2.5 -19t-0.5 -16.5q0 -34 11.5 -59.5t31 -43t45.5 -26t55 -8.5q33 0 63.5 10t56 31t44 54.5
t28.5 80.5q5 26 9.5 48.5t9.5 42.5h-165l11 51h220q-6 -28 -13 -62.5t-17 -79.5q-23 -107 -83 -167.5t-171 -60.5q-39 0 -73.5 12.5t-60.5 36t-41.5 57.5t-15.5 76q0 9 0.5 17.5t2.5 21t6 31.5t10.5 50.5t16.5 77.5t24 112q22 106 82.5 167t171.5 61q39 0 73.5 -12.5
t60.5 -36t41.5 -57.5t15.5 -76q0 -8 -0.5 -15.5t-1.5 -12.5h-54z" />
    <glyph glyph-name="H" unicode="H" horiz-adv-x="612" 
d="M566 700h55l-149 -700h-55l70 329h-332l-70 -329h-55l149 700h55l-68 -320h332z" />
    <glyph glyph-name="I" unicode="I" horiz-adv-x="225" 
d="M85 0h-55l149 700h55z" />
    <glyph glyph-name="J" unicode="J" horiz-adv-x="467" 
d="M430 700h55l-111 -523q-9 -44 -24 -78.5t-39 -58.5t-59 -37t-84 -13q-35 0 -65.5 12.5t-53.5 33.5t-36 49.5t-13 60.5q0 9 1.5 22t6.5 32h54q-5 -17 -6 -27.5t-1 -16.5q0 -23 8.5 -44t24.5 -36.5t39.5 -24.5t53.5 -9q32 0 55 10.5t39.5 29t27 43t16.5 52.5z" />
    <glyph glyph-name="K" unicode="K" horiz-adv-x="597" 
d="M85 0h-55l149 700h55l-86 -406l432 406h74l-308 -289l185 -411h-58l-168 372l-176 -166z" />
    <glyph glyph-name="L" unicode="L" horiz-adv-x="493" 
d="M97 52h332l-12 -52h-387l149 700h55z" />
    <glyph glyph-name="M" unicode="M" horiz-adv-x="706" 
d="M307 188l-97 408l-127 -596h-53l149 700h58l109 -456l311 456h58l-149 -700h-53l123 579l-267 -391h-62z" />
    <glyph glyph-name="N" unicode="N" horiz-adv-x="612" 
d="M472 0h-55l-204 605l-128 -605h-55l149 700h55l204 -605l128 605h55z" />
    <glyph glyph-name="O" unicode="O" horiz-adv-x="569" 
d="M497 218q-23 -107 -83 -167.5t-171 -60.5q-39 0 -73.5 12.5t-60.5 36t-41.5 57.5t-15.5 76q0 9 0.5 17.5t2.5 21t6 31.5t10.5 50.5t16.5 77.5t24 112q22 106 82.5 167t171.5 61q39 0 73.5 -12.5t60.5 -36t41.5 -57.5t15.5 -76q0 -10 -0.5 -18t-2.5 -20.5t-6 -31.5
t-10.5 -50.5t-16.5 -77.5t-24 -112zM167 482q-14 -66 -23.5 -111.5t-16.5 -76t-11 -49.5t-6 -30.5t-2.5 -19t-0.5 -16.5q0 -34 11.5 -59.5t31 -43t45.5 -26t55 -8.5q33 0 63.5 10t56 31t44 54.5t28.5 80.5q14 66 23.5 111.5t16.5 76t11 49.5t6 30.5t2.5 19t0.5 16.5
q0 34 -11.5 59.5t-31 43t-45.5 26t-55 8.5q-33 0 -63.5 -10t-56 -31t-44 -54.5t-28.5 -80.5z" />
    <glyph glyph-name="P" unicode="P" horiz-adv-x="548" 
d="M147 294l-62 -294h-55l149 700h206q48 0 83 -15t58 -40.5t34.5 -58t11.5 -67.5q0 -37 -14 -77t-43 -73t-74.5 -54t-108.5 -21h-185zM339 346q41 0 74 14.5t56 38.5t35.5 54t12.5 61q0 23 -6.5 47t-23 43.5t-44.5 31.5t-70 12h-150l-64 -302h180z" />
    <glyph glyph-name="Q" unicode="Q" horiz-adv-x="569" 
d="M497 218q-11 -51 -29.5 -91.5t-46.5 -69.5l55 -69l-40 -33l-55 70q-56 -35 -138 -35q-39 0 -73.5 12.5t-60.5 36t-41.5 57.5t-15.5 76q0 9 0.5 17.5t2.5 21t6 31.5t10.5 50.5t16.5 77.5t24 112q22 106 82.5 167t171.5 61q39 0 73.5 -12.5t60.5 -36t41.5 -57.5t15.5 -76
q0 -10 -0.5 -18t-2.5 -20.5t-6 -31.5t-10.5 -50.5t-16.5 -77.5t-24 -112zM167 482q-14 -66 -23.5 -111.5t-16.5 -76t-11 -49.5t-6 -30.5t-2.5 -19t-0.5 -16.5q0 -34 11.5 -59.5t31 -43t45.5 -26t55 -8.5q26 0 50.5 5.5t46.5 19.5l-60 77l39 33l61 -78q19 21 33 50.5t22 68.5
q14 66 23.5 111.5t16.5 76t11 49.5t6 30.5t2.5 19t0.5 16.5q0 34 -11.5 59.5t-31 43t-45.5 26t-55 8.5q-33 0 -63.5 -10t-56 -31t-44 -54.5t-28.5 -80.5z" />
    <glyph glyph-name="R" unicode="R" horiz-adv-x="572" 
d="M155 329l-70 -329h-55l149 700h226q39 0 70 -12t53 -33t33.5 -49.5t11.5 -61.5q0 -50 -17 -88.5t-46 -65.5t-68 -42.5t-83 -18.5l124 -329h-58l-123 329h-147zM349 380q36 1 67 13t53.5 32.5t35.5 49t13 63.5q0 51 -32.5 80.5t-92.5 29.5h-170l-57 -268h183z" />
    <glyph glyph-name="S" unicode="S" horiz-adv-x="515" 
d="M446 523v4q0 32 -11.5 56.5t-30 41t-42.5 25t-49 8.5q-73 0 -114.5 -38t-41.5 -100q0 -42 17.5 -75.5t63.5 -50.5l104 -39q54 -20 82.5 -63.5t28.5 -97.5q0 -41 -13 -78t-39.5 -65t-68 -44.5t-98.5 -16.5q-39 0 -76.5 11.5t-67 35t-47 59.5t-17.5 84v10t1 10h55
q-1 -5 -1 -8.5v-8.5q0 -40 14.5 -67t37.5 -43.5t52 -23.5t58 -7q31 0 59.5 9.5t49.5 27.5t33.5 45.5t12.5 63.5q0 35 -18.5 68t-59.5 48l-104 39q-31 12 -52.5 30t-35 40t-20 47t-6.5 51q0 49 15.5 86t44 62t67.5 38t87 13q39 0 72.5 -13.5t59 -37t40 -55.5t14.5 -70v-4.5
t-1 -6.5h-55z" />
    <glyph glyph-name="T" unicode="T" horiz-adv-x="481" 
d="M213 0h-55l138 648h-194l11 52h443l-11 -52h-194z" />
    <glyph glyph-name="U" unicode="U" horiz-adv-x="594" 
d="M119 179q0 -34 11.5 -59.5t31 -43t45.5 -26t55 -8.5q33 0 63.5 10t55.5 31t44 54.5t29 80.5l103 482h55l-103 -482q-23 -107 -83 -167.5t-171 -60.5q-39 0 -73.5 12.5t-61 36t-42 57.5t-15.5 76q0 9 1 18.5t4.5 28t10 50.5t18.5 87.5t30 139t44 204.5h55
q-26 -120 -44 -203t-29.5 -138t-18.5 -86.5t-10 -49.5t-4 -26.5t-1 -17.5z" />
    <glyph glyph-name="V" unicode="V" horiz-adv-x="564" 
d="M579 700h60l-387 -700h-50l-89 700h53l77 -608z" />
    <glyph glyph-name="W" unicode="W" horiz-adv-x="715" 
d="M411 509l-252 -509h-53l20 700h53l-17 -579l237 479h57l33 -485l232 585h57l-278 -700h-53z" />
    <glyph glyph-name="X" unicode="X" horiz-adv-x="564" 
d="M295 313l-260 -313h-67l300 362l-137 338h57l119 -294l244 294h68l-286 -344l145 -356h-57z" />
    <glyph glyph-name="Y" unicode="Y" horiz-adv-x="543" 
d="M306 291l-62 -291h-55l62 291l-149 409h56l129 -350l275 350h67z" />
    <glyph glyph-name="Z" unicode="Z" horiz-adv-x="537" 
d="M-9 0l11 52l500 596h-369l11 52h437l-11 -52l-500 -596h378l-11 -52h-446z" />
    <glyph glyph-name="bracketleft" unicode="[" horiz-adv-x="262" 
d="M195 700h117l-9 -41h-74l-151 -710h74l-9 -41h-117z" />
    <glyph glyph-name="backslash" unicode="\" horiz-adv-x="371" 
d="M88 700l283 -700h-49l-283 700h49z" />
    <glyph glyph-name="bracketright" unicode="]" horiz-adv-x="262" 
d="M86 -92h-116l9 41h73l151 710h-74l9 41h117z" />
    <glyph glyph-name="asciicircum" unicode="^" horiz-adv-x="606" 
d="M328 648l-182 -348h-51l209 400h48l209 -400h-51z" />
    <glyph glyph-name="underscore" unicode="_" horiz-adv-x="406" 
d="M-75 -114l9 45h396l-9 -45h-396z" />
    <glyph glyph-name="grave" unicode="`" horiz-adv-x="298" 
d="M233 700l58 -129h-46l-91 129h79z" />
    <glyph glyph-name="a" unicode="a" horiz-adv-x="527" 
d="M81 360q26 90 85 130t139 40q28 0 58 -8.5t54.5 -27.5t40 -48.5t15.5 -71.5q0 -11 -0.5 -20t-4 -27t-10.5 -50t-19 -90l-40 -187h-53l15 66q-24 -34 -65.5 -55t-101.5 -21q-37 0 -67 11t-51.5 30t-33 44.5t-11.5 53.5q0 66 32 105t93 56q25 7 56 12t64.5 8t69 5t68.5 4
q5 20 6 29.5t1 19.5q0 52 -31.5 82t-93.5 30q-54 0 -98 -31.5t-64 -88.5h-53zM404 271q-87 -4 -149.5 -11.5t-94.5 -18.5q-40 -14 -58 -43.5t-18 -64.5q0 -37 28.5 -65t92.5 -28q34 0 64.5 11t54 31t40 48t23.5 62z" />
    <glyph glyph-name="b" unicode="b" horiz-adv-x="543" 
d="M318 480q-60 0 -107 -38.5t-62 -108.5q-12 -56 -19 -88t-10.5 -49.5t-4.5 -26t-1 -17.5q0 -52 31.5 -82t93.5 -30q60 0 107 38.5t62 108.5q12 56 19 88t10.5 49.5t4.5 26t1 17.5q0 52 -31.5 82t-93.5 30zM175 457q20 30 58.5 51.5t93.5 21.5q28 0 58 -8.5t54.5 -27.5
t40 -48.5t15.5 -71.5q0 -11 -0.5 -20t-4 -27t-10.5 -50t-19 -90q-23 -105 -84 -151t-147 -46q-29 0 -52 8t-40.5 20t-28.5 26.5t-16 28.5l-15 -73h-53l149 700h53z" />
    <glyph glyph-name="c" unicode="c" horiz-adv-x="516" 
d="M481 360h-52v8q0 52 -31.5 82t-93.5 30q-60 0 -107 -38.5t-62 -108.5q-12 -56 -19 -88t-10.5 -49.5t-4.5 -26t-1 -17.5q0 -52 31.5 -82t93.5 -30q54 0 98 31.5t64 88.5h53q-26 -90 -85 -130t-139 -40q-29 0 -58.5 8.5t-54 27.5t-40 48.5t-15.5 71.5q0 11 0.5 20t4 27
t10.5 50t19 90q22 105 83.5 151t147.5 46q28 0 58 -8.5t54.5 -27.5t40 -48.5t15.5 -71.5v-14z" />
    <glyph glyph-name="d" unicode="d" horiz-adv-x="542" 
d="M225 40q60 0 107 38.5t62 108.5q12 56 19 88t10.5 49.5t4.5 26t1 17.5q0 52 -31.5 82t-93.5 30q-60 0 -107 -38.5t-62 -108.5q-12 -56 -19 -88t-10.5 -49.5t-4.5 -26t-1 -17.5q0 -52 31.5 -82t93.5 -30zM368 63q-20 -30 -58.5 -51.5t-93.5 -21.5q-29 0 -58.5 8.5
t-54 27.5t-40 48.5t-15.5 71.5q0 11 0.5 20t4 27t10.5 50t19 90q22 105 83.5 151t147.5 46q29 0 52 -8t40.5 -20t28.5 -27t16 -28l53 253h53l-149 -700h-53z" />
    <glyph glyph-name="e" unicode="e" horiz-adv-x="523" 
d="M118 253q-6 -27 -9.5 -43.5t-5.5 -27t-2.5 -17t-0.5 -13.5q0 -52 31.5 -82t93.5 -30q54 0 97.5 31.5t63.5 88.5h54q-26 -90 -85 -130t-139 -40q-29 0 -58.5 8.5t-54 27.5t-40 48.5t-15.5 71.5q0 11 0.5 20t4 27t10.5 50t19 90q22 105 83.5 151t147.5 46q28 0 58 -8.5
t54.5 -27.5t40 -48.5t15.5 -71.5q0 -9 -0.5 -16.5t-2.5 -19.5t-6 -31.5t-11 -53.5h-343zM419 303l5 25t3 17t1.5 12t0.5 11q0 52 -31.5 82t-93.5 30q-35 0 -64.5 -12.5t-52.5 -35.5t-38 -55.5t-20 -73.5h290z" />
    <glyph glyph-name="f" unicode="f" horiz-adv-x="305" 
d="M88 516h73l17 81q5 25 11.5 44t20 32t36.5 20t61 7h73l-11 -50h-73q-32 0 -45.5 -12.5t-19.5 -40.5l-17 -81h127l-11 -50h-127l-99 -466h-53l99 466h-73z" />
    <glyph glyph-name="g" unicode="g" horiz-adv-x="541" 
d="M60 -32q0 -52 31.5 -82t93.5 -30q60 0 107 38.5t62 108.5l16 74q-20 -30 -58.5 -51.5t-93.5 -21.5q-29 0 -58.5 8.5t-54 27.5t-40 48.5t-15.5 71.5q0 10 1.5 22t5 30.5t9.5 47.5t15 73q22 105 83.5 151t147.5 46q29 0 52 -8t40.5 -20t28.5 -27t16 -28l14 69h53l-109 -513
q-23 -105 -84 -151t-147 -46q-29 0 -58.5 8.5t-54 27.5t-40 48.5t-15.5 71.5v14h52v-8zM227 54q60 0 106 38.5t63 108.5q10 42 16.5 71.5t10 49t4.5 30.5t1 16q0 52 -31.5 82t-93.5 30q-60 0 -107 -38.5t-62 -108.5q-8 -38 -14 -65.5t-10 -47t-6 -32.5t-2 -22
q0 -52 31.5 -82t93.5 -30z" />
    <glyph glyph-name="h" unicode="h" horiz-adv-x="549" 
d="M327 530q28 0 58 -8.5t54.5 -27.5t40 -48.5t15.5 -71.5q0 -11 -0.5 -20t-4 -27t-10.5 -50t-19 -90l-40 -187h-53l40 187q12 56 19 88t10.5 49.5t4.5 26t1 17.5q0 52 -31.5 82t-93.5 30q-60 0 -107 -38.5t-62 -108.5l-71 -333h-53l149 700h53l-52 -243q20 30 58.5 51.5
t93.5 21.5z" />
    <glyph glyph-name="i" unicode="i" horiz-adv-x="213" 
d="M188 516l-110 -516h-53l110 516h53zM208 613h-53l19 87h53z" />
    <glyph glyph-name="j" unicode="j" horiz-adv-x="213" 
d="M208 613h-53l19 87h53zM61 -81q-5 -25 -11.5 -44t-20 -32t-36.5 -20t-61 -7h-9l11 50h9q32 0 45.5 12.5t19.5 40.5l127 597h53z" />
    <glyph glyph-name="k" unicode="k" horiz-adv-x="489" 
d="M132 252l299 264h73l-231 -204l146 -312h-56l-130 277l-118 -104l-37 -173h-53l149 700h53z" />
    <glyph glyph-name="l" unicode="l" horiz-adv-x="242" 
d="M226 700q-30 -140 -51 -239.5t-35.5 -167t-23 -108t-13 -63t-6 -31.5t-1.5 -13q0 -15 10 -21.5t26 -6.5h20l-11 -50h-6q-47 0 -69 20.5t-22 55.5q0 7 2 21t7.5 41t15 70.5t23.5 110.5t34 160.5t47 220.5h53z" />
    <glyph glyph-name="m" unicode="m" horiz-adv-x="852" 
d="M315 530q19 0 40.5 -5t41.5 -16t37 -28t28 -41q28 42 75 66t101 24q25 0 53 -8.5t52 -27.5t39.5 -48.5t15.5 -71.5q0 -11 -0.5 -20t-4 -27t-10.5 -50t-19 -90l-40 -187h-53l40 187q12 56 19 88t10.5 49.5t4.5 26t1 17.5q0 52 -31.5 82t-85.5 30q-24 0 -49 -10
t-46.5 -28.5t-38 -46t-23.5 -62.5l-71 -333h-53l40 187q12 56 19 88t10.5 49.5t4.5 26t1 17.5q0 52 -31.5 82t-85.5 30q-24 0 -49 -10t-46.5 -28.5t-38 -46t-23.5 -62.5l-71 -333h-53l110 516h53l-13 -59q8 13 21.5 26t31.5 23.5t39.5 17t47.5 6.5z" />
    <glyph glyph-name="n" unicode="n" horiz-adv-x="549" 
d="M327 530q28 0 58 -8.5t54.5 -27.5t40 -48.5t15.5 -71.5q0 -11 -0.5 -20t-4 -27t-10.5 -50t-19 -90l-40 -187h-53l40 187q12 56 19 88t10.5 49.5t4.5 26t1 17.5q0 52 -31.5 82t-93.5 30q-60 0 -107 -38.5t-62 -108.5l-71 -333h-53l110 516h53l-13 -59q20 30 58.5 51.5
t93.5 21.5z" />
    <glyph glyph-name="o" unicode="o" horiz-adv-x="529" 
d="M135 333q-12 -56 -19 -88t-10.5 -49.5t-4.5 -26t-1 -17.5q0 -52 31.5 -82t93.5 -30q60 0 107 38.5t62 108.5q12 56 19 88t10.5 49.5t4.5 26t1 17.5q0 52 -31.5 82t-93.5 30q-60 0 -107 -38.5t-62 -108.5zM447 187q-23 -105 -84 -151t-147 -46q-29 0 -58.5 8.5t-54 27.5
t-40 48.5t-15.5 71.5q0 11 0.5 20t4 27t10.5 50t19 90q22 105 83.5 151t147.5 46q28 0 58 -8.5t54.5 -27.5t40 -48.5t15.5 -71.5q0 -11 -0.5 -20t-4 -27t-10.5 -50t-19 -90z" />
    <glyph glyph-name="p" unicode="p" horiz-adv-x="543" 
d="M318 480q-60 0 -107 -38.5t-62 -108.5q-12 -56 -19 -88t-10.5 -49.5t-4.5 -26t-1 -17.5q0 -52 31.5 -82t93.5 -30q60 0 107 38.5t62 108.5q12 56 19 88t10.5 49.5t4.5 26t1 17.5q0 52 -31.5 82t-93.5 30zM175 457q20 30 58.5 51.5t93.5 21.5q28 0 58 -8.5t54.5 -27.5
t40 -48.5t15.5 -71.5q0 -11 -0.5 -20t-4 -27t-10.5 -50t-19 -90q-23 -105 -84 -151t-147 -46q-29 0 -52 8t-40.5 20t-28.5 26.5t-16 28.5l-54 -257h-53l149 700h53z" />
    <glyph glyph-name="q" unicode="q" horiz-adv-x="542" 
d="M225 40q60 0 107 38.5t62 108.5q12 56 19 88t10.5 49.5t4.5 26t1 17.5q0 52 -31.5 82t-93.5 30q-60 0 -107 -38.5t-62 -108.5q-12 -56 -19 -88t-10.5 -49.5t-4.5 -26t-1 -17.5q0 -52 31.5 -82t93.5 -30zM368 63q-20 -30 -58.5 -51.5t-93.5 -21.5q-29 0 -58.5 8.5
t-54 27.5t-40 48.5t-15.5 71.5q0 11 0.5 20t4 27t10.5 50t19 90q22 105 83.5 151t147.5 46q29 0 52 -8t40.5 -20t28.5 -27t16 -28l14 69h53l-149 -700h-53z" />
    <glyph glyph-name="r" unicode="r" horiz-adv-x="315" 
d="M317 475q-60 0 -107 -38.5t-62 -108.5l-70 -328h-53l110 516h53l-14 -64q20 30 58.5 51.5t93.5 21.5h24l-11 -50h-22z" />
    <glyph glyph-name="s" unicode="s" horiz-adv-x="484" 
d="M392 368v8q0 27 -11 46.5t-29.5 32t-42 19t-47.5 6.5t-47 -6t-41.5 -18t-29.5 -29.5t-11 -39.5q0 -36 19 -54.5t61 -31.5l93 -28q48 -14 77 -46t29 -79q0 -81 -54.5 -119.5t-144.5 -38.5q-36 0 -70 9.5t-60.5 29t-42.5 49t-16 70.5v13h52v-11q0 -29 11.5 -49.5t31.5 -34
t46.5 -20t56.5 -6.5q26 0 50.5 6t44 18.5t31.5 31.5t12 45q0 35 -21.5 55t-53.5 29l-100 30q-46 11 -75 45t-29 81q0 37 15.5 65t41 47t57.5 28t66 9q33 0 66 -9t59 -27.5t42 -46.5t16 -66v-13h-52z" />
    <glyph glyph-name="t" unicode="t" horiz-adv-x="329" 
d="M76 466l11 50h73l25 117h53l-25 -117h127l-11 -50h-127q-18 -85 -31 -146t-22 -103t-14.5 -67.5t-8 -40.5t-3.5 -21.5t-1 -9.5q0 -15 10 -21.5t26 -6.5h83l-11 -50h-69q-47 0 -69 20.5t-22 55.5q0 9 3.5 28.5t12 62t24 114.5t39.5 185h-73z" />
    <glyph glyph-name="u" unicode="u" horiz-adv-x="542" 
d="M223 -10q-29 0 -58.5 9t-54 28t-40 48.5t-15.5 70.5q0 10 1 20.5t4.5 29.5t10 50.5t17.5 82.5l40 187h53l-40 -187q-11 -49 -17.5 -79t-10 -49t-5 -29.5t-1.5 -19.5q0 -51 31 -81.5t91 -30.5q28 0 54.5 10t48.5 28.5t38 46t24 62.5l70 329h53l-110 -516h-53l14 63
q-8 -13 -22.5 -26t-33 -23.5t-41.5 -17t-48 -6.5z" />
    <glyph glyph-name="v" unicode="v" horiz-adv-x="452" 
d="M436 516h60l-295 -516h-58l-77 516h52l66 -444z" />
    <glyph glyph-name="w" unicode="w" horiz-adv-x="676" 
d="M426 516l24 -441l206 441h57l-245 -516h-63l-25 447l-217 -447h-63l-27 516h52l20 -440l212 440h69z" />
    <glyph glyph-name="x" unicode="x" horiz-adv-x="460" 
d="M421 516h65l-225 -257l117 -259h-57l-99 221l-191 -221h-65l231 264l-115 252h57l96 -214z" />
    <glyph glyph-name="y" unicode="y" horiz-adv-x="452" 
d="M66 516h52l66 -444l252 444h60l-342 -597q-12 -22 -24 -40.5t-26.5 -32.5t-34 -22t-47.5 -8h-26l11 50h27q26 0 39.5 17t27.5 42l42 74z" />
    <glyph glyph-name="z" unicode="z" horiz-adv-x="477" 
d="M70 50h320l-11 -50h-389l11 50l400 416h-307l11 50h376l-11 -50z" />
    <glyph glyph-name="braceleft" unicode="{" horiz-adv-x="294" 
d="M128 247q0 18 -11.5 27t-42.5 9h-10l9 42h10q40 0 55 15t22 46l45 211q7 32 16 52t23.5 31.5t36 15.5t53.5 4h10l-9 -41h-10q-20 0 -33 -3t-21.5 -10t-13.5 -19t-9 -30l-45 -211q-8 -34 -19 -55.5t-32 -32.5q8 -8 13.5 -20.5t5.5 -29.5q0 -8 -4 -28t-9.5 -47t-12 -56.5
t-12 -56.5t-9.5 -47.5t-4 -28.5q0 -19 10.5 -27t43.5 -8h10l-9 -41h-10q-48 0 -68 21.5t-20 56.5q0 7 4 27.5t9.5 47t12 56.5t12 56.5t9.5 46.5t4 27z" />
    <glyph glyph-name="bar" unicode="|" horiz-adv-x="213" 
d="M85 700h43v-800h-43v800z" />
    <glyph glyph-name="braceright" unicode="}" horiz-adv-x="294" 
d="M186 361q0 -18 11.5 -27t42.5 -9h10l-9 -42h-10q-40 0 -55 -15t-22 -46l-45 -211q-7 -32 -16 -52t-23.5 -31.5t-36.5 -15.5t-53 -4h-10l9 41h10q20 0 33 3t21.5 10t13.5 19t9 30l45 211q8 34 19 55.5t32 32.5q-8 8 -13.5 20.5t-5.5 29.5q0 8 4 28t9.5 47t12 56.5t12 56.5
t9.5 47.5t4 28.5q0 19 -10.5 27t-43.5 8h-10l9 41h10q48 0 68 -21.5t20 -56.5q0 -7 -4 -27.5t-9.5 -47t-12 -56.5t-12 -56.5t-9.5 -46.5t-4 -27z" />
    <glyph glyph-name="asciitilde" unicode="~" horiz-adv-x="527" 
d="M71 268q23 26 56 42t62 16q23 0 44.5 -7t41.5 -16t38.5 -16t35.5 -7q14 0 37.5 10t50.5 36l30 -33q-23 -26 -56 -42t-62 -16q-23 0 -44.5 7t-41.5 16t-38.5 16t-35.5 7q-14 0 -37.5 -10t-50.5 -36z" />
    <glyph glyph-name="uni00A0" unicode="&#xa0;" horiz-adv-x="230" 
 />
    <glyph glyph-name="exclamdown" unicode="&#xa1;" horiz-adv-x="234" 
d="M-3 -184l104 490h53l-104 -490h-53zM196 432h-84l18 84h84z" />
    <glyph glyph-name="cent" unicode="&#xa2;" horiz-adv-x="526" 
d="M486 360h-52v8q0 45 -24.5 74t-72.5 36l-93 -438q50 5 89.5 35.5t58.5 84.5h53q-26 -87 -81 -126.5t-130 -42.5l-19 -91h-43l19 92q-26 4 -50.5 14.5t-44 29.5t-31.5 46t-12 64q0 11 0.5 20t4 27t10.5 50t19 90q22 102 79.5 148t138.5 49l20 90h43l-20 -92q25 -4 50 -15
t44.5 -29.5t31.5 -46t12 -63.5v-14zM105 152q0 -46 24.5 -74.5t72.5 -35.5l93 437q-56 -5 -98.5 -42.5t-56.5 -103.5q-12 -56 -19 -88t-10.5 -49.5t-4.5 -26t-1 -17.5z" />
    <glyph glyph-name="sterling" unicode="&#xa3;" horiz-adv-x="590" 
d="M529 508q2 9 3 20t1 18q0 60 -34.5 87t-92.5 27q-59 0 -104 -38.5t-60 -108.5l-31 -141h290l-9 -42h-290l-48 -227q-3 -15 -8.5 -30t-16.5 -23h357l-11 -50h-459l10 50h16q20 0 36.5 13.5t22.5 39.5l48 227h-64l9 42h64l31 141q12 54 33 91.5t50.5 61t65.5 34t77 10.5
q28 0 58 -8.5t55 -27t41 -48t16 -71.5q0 -9 -1 -21t-3 -26h-52z" />
    <glyph glyph-name="currency" unicode="&#xa4;" horiz-adv-x="720" 
d="M106 340q0 51 17 95.5t47 79.5l-84 85l31 30l84 -85q35 31 79.5 48t95.5 17t95.5 -17t79.5 -48l84 85l31 -30l-85 -85q31 -35 48 -79.5t17 -95.5t-17 -95.5t-48 -79.5l85 -85l-31 -30l-84 84q-35 -30 -79.5 -47t-95.5 -17t-95.5 17t-79.5 47l-84 -84l-31 30l84 85
q-30 35 -47 79.5t-17 95.5zM157 340q0 -45 17 -85t47 -70t70 -47t85 -17t85 17t70 47t47 70t17 85t-17 85t-47 70t-70 47t-85 17t-85 -17t-70 -47t-47 -70t-17 -85z" />
    <glyph glyph-name="yen" unicode="&#xa5;" horiz-adv-x="586" 
d="M257 334l-134 366h54l129 -352l280 352h65l-291 -366h146l-9 -43h-171l-22 -102h171l-9 -43h-171l-31 -146h-53l31 146h-171l9 43h171l22 102h-171l9 43h146z" />
    <glyph glyph-name="brokenbar" unicode="&#xa6;" horiz-adv-x="213" 
d="M85 239h43v-339h-43v339zM85 700h43v-339h-43v339z" />
    <glyph glyph-name="section" unicode="&#xa7;" horiz-adv-x="554" 
d="M174 120q-16 6 -35 16.5t-35 26.5t-27 38.5t-11 52.5q0 72 39 111t102 54q-21 20 -34.5 50t-13.5 66q0 40 14 72.5t39.5 55t61 35t77.5 12.5q37 0 68.5 -11t53.5 -31t34.5 -47t12.5 -59v-5t-1 -9h-45v8q0 25 -9.5 45.5t-27 35.5t-40.5 23t-50 8q-28 0 -54 -8.5t-45.5 -25
t-31 -40t-11.5 -53.5q0 -35 18 -64.5t47 -40.5l109 -40q16 -6 35 -16.5t35 -26.5t27 -38.5t11 -52.5q0 -72 -39.5 -111t-102.5 -55q21 -20 35 -49.5t14 -65.5q0 -40 -14 -72.5t-39.5 -55t-61 -35t-77.5 -12.5q-38 0 -69 11t-53 31t-34.5 47t-12.5 59v9.5t2 14.5h45l-1 -18
q0 -25 9.5 -45.5t27 -35.5t40.5 -23t50 -8q28 0 54 8.5t45.5 25t31 40t11.5 53.5q0 35 -18 64.5t-47 40.5zM275 384q-30 0 -59.5 -8t-52.5 -23.5t-37 -37.5t-14 -51q0 -38 23 -63.5t58 -37.5l84 -31q30 0 59.5 8t53 23.5t37.5 37.5t14 51q0 38 -23 63.5t-58 37.5z" />
    <glyph glyph-name="dieresis" unicode="&#xa8;" horiz-adv-x="410" 
d="M195 592h-53l19 87h53zM408 592h-53l19 87h53z" />
    <glyph glyph-name="copyright" unicode="&#xa9;" horiz-adv-x="820" 
d="M69 350q0 75 28.5 140.5t77 114t114 77t140.5 28.5t140.5 -28.5t114 -77t77 -114t28.5 -140.5t-28.5 -140.5t-77 -114t-114 -77t-140.5 -28.5t-140.5 28.5t-114 77t-77 114t-28.5 140.5zM112 350q0 -66 25 -123.5t67.5 -101t100.5 -68.5t124 -25t124 25t100.5 68.5
t67.5 101t25 123.5t-25 123.5t-67.5 101t-100.5 68.5t-124 25t-124 -25t-100.5 -68.5t-67.5 -101t-25 -123.5zM429 125q-62 0 -101 39.5t-39 108.5v153q0 69 39 108.5t101 39.5q59 0 96.5 -35.5t42.5 -98.5h-43q-4 46 -31 69t-65 23q-41 0 -69 -26.5t-28 -79.5v-153
q0 -54 28 -80t69 -26q38 0 65 23t31 69h43q-5 -63 -42.5 -98.5t-96.5 -35.5z" />
    <glyph glyph-name="ordfeminine" unicode="&#xaa;" horiz-adv-x="312" 
d="M185 436q35 0 61 19t34 57l8 36q-50 -3 -77.5 -6.5t-51.5 -13.5q-17 -7 -26.5 -18t-9.5 -31q0 -18 15 -30.5t47 -12.5zM176 395q-47 0 -71.5 25t-24.5 55q0 39 17 60.5t60 34.5q27 8 64 11.5t75 5.5q2 9 3 17t1 13q0 26 -19.5 38.5t-42.5 12.5q-30 0 -52 -15t-33 -44h-43
q15 54 48.5 76.5t84.5 22.5q19 0 37.5 -5.5t32 -16.5t22 -26.5t8.5 -36.5q0 -16 -7 -48t-13 -63l-12 -56q-5 -21 -8.5 -38.5t-3.5 -16.5h-43l7 32q-12 -17 -35 -27.5t-52 -10.5z" />
    <glyph glyph-name="guillemotleft" unicode="&#xab;" horiz-adv-x="461" 
d="M57 246l11 54l193 143l-14 -65l-148 -110l101 -110l-12 -55zM224 246l11 54l193 143l-14 -65l-148 -110l101 -110l-12 -55z" />
    <glyph glyph-name="logicalnot" unicode="&#xac;" 
d="M86 303h396v-221h-45v176h-351v45z" />
    <glyph glyph-name="uni00AD" unicode="&#xad;" horiz-adv-x="410" 
d="M61 258l9 45h290l-9 -45h-290z" />
    <glyph glyph-name="registered" unicode="&#xae;" horiz-adv-x="820" 
d="M69 350q0 75 28.5 140.5t77 114t114 77t140.5 28.5t140.5 -28.5t114 -77t77 -114t28.5 -140.5t-28.5 -140.5t-77 -114t-114 -77t-140.5 -28.5t-140.5 28.5t-114 77t-77 114t-28.5 140.5zM112 350q0 -66 25 -123.5t67.5 -101t100.5 -68.5t124 -25t124 25t100.5 68.5
t67.5 101t25 123.5t-25 123.5t-67.5 101t-100.5 68.5t-124 25t-124 -25t-100.5 -68.5t-67.5 -101t-25 -123.5zM545 131l-118 200h-76v-200h-43v437h149q32 0 55 -10t38 -26.5t22.5 -38t7.5 -44.5q0 -42 -25 -76.5t-79 -40.5l119 -201h-50zM351 373h106q36 0 58 20.5t22 55.5
t-22 55.5t-58 20.5h-106v-152z" />
    <glyph glyph-name="macron" unicode="&#xaf;" horiz-adv-x="427" 
d="M144 613l9 45h289l-9 -45h-289z" />
    <glyph glyph-name="degree" unicode="&#xb0;" horiz-adv-x="425" 
d="M115 549q0 32 12.5 60.5t33.5 49.5t49.5 33.5t60.5 12.5t60.5 -12.5t49.5 -33.5t33.5 -49.5t12.5 -60.5t-12.5 -60.5t-33.5 -49.5t-49.5 -33.5t-60.5 -12.5t-60.5 12.5t-49.5 33.5t-33.5 49.5t-12.5 60.5zM160 549q0 -23 8.5 -43.5t23.5 -35.5t35.5 -24t43.5 -9t43.5 9
t35.5 24t23.5 35.5t8.5 43.5t-8.5 43.5t-23.5 35.5t-35.5 24t-43.5 9t-43.5 -9t-35.5 -24t-23.5 -35.5t-8.5 -43.5z" />
    <glyph glyph-name="plusminus" unicode="&#xb1;" 
d="M86 317v45h176v154h45v-154h175v-45h-175v-154h-45v154h-176zM86 0v45h396v-45h-396z" />
    <glyph glyph-name="twosuperior" unicode="&#xb2;" horiz-adv-x="299" 
d="M70 442l178 160q11 10 23 22t21.5 26t16 29.5t6.5 32.5q0 27 -16.5 43.5t-48.5 16.5t-56.5 -22.5t-29.5 -64.5h-43q13 66 45.5 97t89.5 31q26 0 45 -8.5t31.5 -22t18.5 -30.5t6 -34q0 -26 -7 -47t-18 -38t-25.5 -32t-30.5 -29l-144 -130h171l-8 -41h-234z" />
    <glyph glyph-name="threesuperior" unicode="&#xb3;" horiz-adv-x="300" 
d="M186 395q-26 0 -45 8.5t-31 22t-18 30.5t-6 34q0 4 0.5 12.5t2.5 14.5h41q-3 -14 -3 -21q0 -27 17 -43.5t48 -16.5q19 0 34.5 7.5t27 20.5t18 29t6.5 33q0 24 -15.5 41.5t-44.5 17.5h-29l9 41h29q19 0 35.5 7.5t28.5 19.5t19 27.5t7 31.5q0 27 -17 43.5t-49 16.5
t-56 -22.5t-30 -64.5h-43q13 67 45.5 97.5t90.5 30.5q26 0 45 -8.5t31 -22t18 -30.5t6 -34q0 -45 -21.5 -74.5t-52.5 -43.5q17 -11 26.5 -29.5t9.5 -40.5q0 -28 -8.5 -52.5t-25 -43t-42 -29t-58.5 -10.5z" />
    <glyph glyph-name="acute" unicode="&#xb4;" horiz-adv-x="298" 
d="M320 700l-118 -129h-51l85 129h84z" />
    <glyph glyph-name="mu" unicode="&#xb5;" horiz-adv-x="549" 
d="M230 -10q-46 0 -83 21.5t-52 59.5l-55 -255h-53l148 700h53l-40 -187q-11 -49 -17.5 -79t-10 -49t-5 -29.5t-1.5 -19.5q0 -51 31 -81.5t91 -30.5q28 0 54.5 10t48.5 28.5t38 46t24 62.5l70 329h53l-110 -516h-53l14 63q-8 -13 -22.5 -26t-33 -23.5t-41.5 -17t-48 -6.5z
" />
    <glyph glyph-name="mu" unicode="&#x3bc;" horiz-adv-x="549" 
d="M230 -10q-46 0 -83 21.5t-52 59.5l-55 -255h-53l148 700h53l-40 -187q-11 -49 -17.5 -79t-10 -49t-5 -29.5t-1.5 -19.5q0 -51 31 -81.5t91 -30.5q28 0 54.5 10t48.5 28.5t38 46t24 62.5l70 329h53l-110 -516h-53l14 63q-8 -13 -22.5 -26t-33 -23.5t-41.5 -17t-48 -6.5z
" />
    <glyph glyph-name="paragraph" unicode="&#xb6;" horiz-adv-x="533" 
d="M246 300q-36 0 -65.5 14.5t-50.5 38.5t-33 56t-12 67q0 49 18 90t50.5 71t77.5 46.5t100 16.5h206l-167 -787h-43l158 745h-110l-158 -745h-43l82 387h-10z" />
    <glyph glyph-name="periodcentered" unicode="&#xb7;" horiz-adv-x="274" 
d="M111 332h84l-17 -84h-84z" />
    <glyph glyph-name="cedilla" unicode="&#xb8;" horiz-adv-x="249" 
d="M33 0h49l-38 -158h-69z" />
    <glyph glyph-name="onesuperior" unicode="&#xb9;" horiz-adv-x="204" 
d="M213 748l-93 -67l12 59l93 67h43l-87 -406h-43z" />
    <glyph glyph-name="ordmasculine" unicode="&#xba;" horiz-adv-x="312" 
d="M194 436q35 0 58 19t31 57q3 13 6.5 28.5t6.5 30.5t5 27t2 19q0 26 -19 38.5t-43 12.5q-34 0 -57.5 -19t-31.5 -57q-3 -13 -6.5 -28.5t-6.5 -30.5t-5 -27t-2 -19q0 -27 19.5 -39t42.5 -12zM189 395q-20 0 -38 5.5t-31.5 16.5t-22 27t-8.5 37q0 15 7 47.5t13 62.5
q14 65 48.5 91t89.5 26q19 0 37 -5.5t32 -16.5t22.5 -26.5t8.5 -36.5q0 -16 -7 -48t-14 -63q-14 -64 -48 -90.5t-89 -26.5z" />
    <glyph glyph-name="guillemotright" unicode="&#xbb;" horiz-adv-x="461" 
d="M237 300l-11 -54l-193 -143l14 65l148 110l-101 110l12 55zM404 300l-11 -54l-193 -143l14 65l148 110l-101 110l12 55z" />
    <glyph glyph-name="onequarter" unicode="&#xbc;" horiz-adv-x="680" 
d="M231 641l-93 -67l12 59l93 67h43l-87 -406h-43zM612 700l-481 -700h-48l481 700h48zM523 110h-185l8 39l241 257h43l-55 -257h42l-8 -39h-43l-23 -110h-43zM532 149l39 183l-171 -183h132z" />
    <glyph glyph-name="onehalf" unicode="&#xbd;" horiz-adv-x="717" 
d="M231 641l-93 -67l12 59l93 67h43l-87 -406h-43zM612 700l-481 -700h-48l481 700h48zM377 41l178 160q11 10 23 22t21.5 26t16 29.5t6.5 32.5q0 27 -16.5 43.5t-48.5 16.5t-56.5 -22.5t-29.5 -64.5h-43q13 66 45.5 97t89.5 31q26 0 45 -8.5t31.5 -22t18.5 -30.5t6 -34
q0 -26 -7 -47t-18 -38t-25.5 -32t-30.5 -29l-144 -130h171l-8 -41h-234z" />
    <glyph glyph-name="threequarters" unicode="&#xbe;" horiz-adv-x="736" 
d="M184 288q-26 0 -45 8.5t-31 22t-18 30.5t-6 34q0 4 0.5 12.5t2.5 14.5h41q-3 -14 -3 -21q0 -27 17 -43.5t48 -16.5q19 0 34.5 7.5t27 20.5t18 29t6.5 33q0 24 -15.5 41.5t-44.5 17.5h-29l9 41h29q19 0 35.5 7.5t28.5 19.5t19 27.5t7 31.5q0 27 -17 43.5t-49 16.5
t-56 -22.5t-30 -64.5h-43q13 67 45.5 97.5t90.5 30.5q26 0 45 -8.5t31 -22t18 -30.5t6 -34q0 -45 -21.5 -74.5t-52.5 -43.5q17 -11 26.5 -29.5t9.5 -40.5q0 -28 -8.5 -52.5t-25 -43t-42 -29t-58.5 -10.5zM668 700l-481 -700h-48l481 700h48zM580 110h-185l8 39l241 257h43
l-55 -257h42l-8 -39h-43l-23 -110h-43zM589 149l39 183l-171 -183h132z" />
    <glyph glyph-name="questiondown" unicode="&#xbf;" horiz-adv-x="487" 
d="M394 16q-11 -57 -32 -97t-50.5 -65t-66.5 -36.5t-80 -11.5q-28 0 -58 8.5t-55 27t-41 48t-16 71.5q0 60 32 111.5t81 89.5l71 55q13 10 22 18.5t14.5 16t9 15t5.5 17.5l4 22h53l-4 -22q-6 -28 -22 -54.5t-53 -54.5l-72 -55q-36 -27 -62.5 -64t-26.5 -86q0 -60 34.5 -87
t92.5 -27q36 0 64.5 13t49.5 35t34.5 51t18.5 61h53zM332 432h-84l18 84h84z" />
    <glyph glyph-name="Agrave" unicode="&#xc0;" horiz-adv-x="564" 
d="M410 218h-266l-120 -218h-59l386 700h50l89 -700h-52zM404 267l-44 343l-189 -343h233zM353 854l77 -109h-53l-105 109h81z" />
    <glyph glyph-name="Aacute" unicode="&#xc1;" horiz-adv-x="564" 
d="M410 218h-266l-120 -218h-59l386 700h50l89 -700h-52zM404 267l-44 343l-189 -343h233zM509 854l-128 -109h-58l100 109h86z" />
    <glyph glyph-name="Acircumflex" unicode="&#xc2;" horiz-adv-x="564" 
d="M410 218h-266l-120 -218h-59l386 700h50l89 -700h-52zM404 267l-44 343l-189 -343h233zM536 745h-67l-66 63l-92 -63h-77l148 109h52z" />
    <glyph glyph-name="Atilde" unicode="&#xc3;" horiz-adv-x="564" 
d="M410 218h-266l-120 -218h-59l386 700h50l89 -700h-52zM404 267l-44 343l-189 -343h233zM346 845q11 0 22 -2.5t23 -9.5l33 -17q8 -4 15 -7t14 -3q27 0 44 37h56q-9 -29 -21.5 -46.5t-26 -26.5t-28 -12t-26.5 -3q-11 0 -22 2.5t-23 9.5l-33 17q-8 4 -15 7t-14 3
q-27 0 -44 -37h-56q9 29 21.5 46.5t26 26.5t28 12t26.5 3z" />
    <glyph glyph-name="Adieresis" unicode="&#xc4;" horiz-adv-x="564" 
d="M410 218h-266l-120 -218h-59l386 700h50l89 -700h-52zM404 267l-44 343l-189 -343h233zM310 756h-55l19 87h55zM521 756h-55l19 87h55z" />
    <glyph glyph-name="Aring" unicode="&#xc5;" horiz-adv-x="564" 
d="M410 218h-266l-120 -218h-59l386 700h50l89 -700h-52zM404 267l-44 343l-189 -343h233zM323 799q0 31 21.5 53t52.5 22t53 -22t22 -53t-22 -52.5t-53 -21.5t-52.5 21.5t-21.5 52.5zM368 799q0 -12 8.5 -20.5t20.5 -8.5t21 8.5t9 20.5t-9 21t-21 9t-20.5 -9t-8.5 -21z" />
    <glyph glyph-name="AE" unicode="&#xc6;" horiz-adv-x="824" 
d="M378 52h332l-11 -52h-387l46 218h-191l-146 -218h-64l470 700h421l-11 -52h-332l-57 -268h332l-11 -51h-332zM369 267l78 367l-247 -367h169z" />
    <glyph glyph-name="Ccedilla" unicode="&#xc7;" horiz-adv-x="559" 
d="M501 500q1 8 1 12v9q0 34 -11.5 59.5t-31 43t-45.5 26t-55 8.5q-33 0 -63.5 -10t-56 -31t-44 -54.5t-28.5 -80.5q-14 -66 -23.5 -111.5t-16.5 -76t-11 -49.5t-6 -30.5t-2.5 -19t-0.5 -16.5q0 -34 11.5 -59.5t31 -43t45.5 -26t55 -8.5q64 0 115 36.5t73 121.5h55
q-12 -49 -33 -88t-51.5 -66t-71.5 -41.5t-94 -14.5q-39 0 -73.5 12.5t-60.5 36t-41.5 57.5t-15.5 76q0 9 0.5 17.5t2.5 21t6 31.5t10.5 50.5t16.5 77.5t24 112q22 106 82.5 167t171.5 61q39 0 73.5 -12.5t60.5 -36t41.5 -57.5t15.5 -76q0 -8 -0.5 -15.5t-1.5 -12.5h-54z
M210 0h56l-38 -158h-71z" />
    <glyph glyph-name="Egrave" unicode="&#xc8;" horiz-adv-x="541" 
d="M95 52h332l-11 -52h-387l149 700h387l-11 -52h-332l-57 -268h332l-11 -51h-332zM348 854l77 -109h-53l-105 109h81z" />
    <glyph glyph-name="Eacute" unicode="&#xc9;" horiz-adv-x="541" 
d="M95 52h332l-11 -52h-387l149 700h387l-11 -52h-332l-57 -268h332l-11 -51h-332zM504 854l-128 -109h-58l100 109h86z" />
    <glyph glyph-name="Ecircumflex" unicode="&#xca;" horiz-adv-x="541" 
d="M95 52h332l-11 -52h-387l149 700h387l-11 -52h-332l-57 -268h332l-11 -51h-332zM531 745h-67l-66 63l-92 -63h-77l148 109h52z" />
    <glyph glyph-name="Edieresis" unicode="&#xcb;" horiz-adv-x="541" 
d="M95 52h332l-11 -52h-387l149 700h387l-11 -52h-332l-57 -268h332l-11 -51h-332zM305 756h-55l19 87h55zM516 756h-55l19 87h55z" />
    <glyph glyph-name="Igrave" unicode="&#xcc;" horiz-adv-x="225" 
d="M85 0h-55l149 700h55zM184 854l77 -109h-53l-105 109h81z" />
    <glyph glyph-name="Iacute" unicode="&#xcd;" horiz-adv-x="225" 
d="M85 0h-55l149 700h55zM340 854l-128 -109h-58l100 109h86z" />
    <glyph glyph-name="Icircumflex" unicode="&#xce;" horiz-adv-x="225" 
d="M85 0h-55l149 700h55zM367 745h-67l-66 63l-92 -63h-77l148 109h52z" />
    <glyph glyph-name="Idieresis" unicode="&#xcf;" horiz-adv-x="225" 
d="M85 0h-55l149 700h55zM141 756h-55l19 87h55zM352 756h-55l19 87h55z" />
    <glyph glyph-name="Eth" unicode="&#xd0;" horiz-adv-x="601" 
d="M41 0l70 328h-70l9 45h70l70 327h206q39 0 73.5 -12.5t60.5 -36t41.5 -57.5t15.5 -76q0 -14 -2.5 -32t-8.5 -49t-17 -81t-28 -128q-12 -53 -32 -95.5t-51 -72t-73.5 -45t-97.5 -15.5h-236zM284 52q33 0 63.5 10t56 31t44 54.5t28.5 80.5q14 66 23.5 110t15.5 72.5
t9.5 44.5t5 25.5t2 15.5t0.5 15q0 34 -11.5 59.5t-31 43t-45.5 26t-55 8.5h-155l-59 -275h166l-9 -45h-166l-59 -276h177z" />
    <glyph glyph-name="Ntilde" unicode="&#xd1;" horiz-adv-x="612" 
d="M472 0h-55l-204 605l-128 -605h-55l149 700h55l204 -605l128 605h55zM370 845q11 0 22 -2.5t23 -9.5l33 -17q8 -4 15 -7t14 -3q27 0 44 37h56q-9 -29 -21.5 -46.5t-26 -26.5t-28 -12t-26.5 -3q-11 0 -22 2.5t-23 9.5l-33 17q-8 4 -15 7t-14 3q-27 0 -44 -37h-56
q9 29 21.5 46.5t26 26.5t28 12t26.5 3z" />
    <glyph glyph-name="Ograve" unicode="&#xd2;" horiz-adv-x="569" 
d="M497 218q-23 -107 -83 -167.5t-171 -60.5q-39 0 -73.5 12.5t-60.5 36t-41.5 57.5t-15.5 76q0 9 0.5 17.5t2.5 21t6 31.5t10.5 50.5t16.5 77.5t24 112q22 106 82.5 167t171.5 61q39 0 73.5 -12.5t60.5 -36t41.5 -57.5t15.5 -76q0 -10 -0.5 -18t-2.5 -20.5t-6 -31.5
t-10.5 -50.5t-16.5 -77.5t-24 -112zM167 482q-14 -66 -23.5 -111.5t-16.5 -76t-11 -49.5t-6 -30.5t-2.5 -19t-0.5 -16.5q0 -34 11.5 -59.5t31 -43t45.5 -26t55 -8.5q33 0 63.5 10t56 31t44 54.5t28.5 80.5q14 66 23.5 111.5t16.5 76t11 49.5t6 30.5t2.5 19t0.5 16.5
q0 34 -11.5 59.5t-31 43t-45.5 26t-55 8.5q-33 0 -63.5 -10t-56 -31t-44 -54.5t-28.5 -80.5zM357 854l77 -109h-53l-105 109h81z" />
    <glyph glyph-name="Oacute" unicode="&#xd3;" horiz-adv-x="569" 
d="M497 218q-23 -107 -83 -167.5t-171 -60.5q-39 0 -73.5 12.5t-60.5 36t-41.5 57.5t-15.5 76q0 9 0.5 17.5t2.5 21t6 31.5t10.5 50.5t16.5 77.5t24 112q22 106 82.5 167t171.5 61q39 0 73.5 -12.5t60.5 -36t41.5 -57.5t15.5 -76q0 -10 -0.5 -18t-2.5 -20.5t-6 -31.5
t-10.5 -50.5t-16.5 -77.5t-24 -112zM167 482q-14 -66 -23.5 -111.5t-16.5 -76t-11 -49.5t-6 -30.5t-2.5 -19t-0.5 -16.5q0 -34 11.5 -59.5t31 -43t45.5 -26t55 -8.5q33 0 63.5 10t56 31t44 54.5t28.5 80.5q14 66 23.5 111.5t16.5 76t11 49.5t6 30.5t2.5 19t0.5 16.5
q0 34 -11.5 59.5t-31 43t-45.5 26t-55 8.5q-33 0 -63.5 -10t-56 -31t-44 -54.5t-28.5 -80.5zM513 854l-128 -109h-58l100 109h86z" />
    <glyph glyph-name="Ocircumflex" unicode="&#xd4;" horiz-adv-x="569" 
d="M497 218q-23 -107 -83 -167.5t-171 -60.5q-39 0 -73.5 12.5t-60.5 36t-41.5 57.5t-15.5 76q0 9 0.5 17.5t2.5 21t6 31.5t10.5 50.5t16.5 77.5t24 112q22 106 82.5 167t171.5 61q39 0 73.5 -12.5t60.5 -36t41.5 -57.5t15.5 -76q0 -10 -0.5 -18t-2.5 -20.5t-6 -31.5
t-10.5 -50.5t-16.5 -77.5t-24 -112zM167 482q-14 -66 -23.5 -111.5t-16.5 -76t-11 -49.5t-6 -30.5t-2.5 -19t-0.5 -16.5q0 -34 11.5 -59.5t31 -43t45.5 -26t55 -8.5q33 0 63.5 10t56 31t44 54.5t28.5 80.5q14 66 23.5 111.5t16.5 76t11 49.5t6 30.5t2.5 19t0.5 16.5
q0 34 -11.5 59.5t-31 43t-45.5 26t-55 8.5q-33 0 -63.5 -10t-56 -31t-44 -54.5t-28.5 -80.5zM540 745h-67l-66 63l-92 -63h-77l148 109h52z" />
    <glyph glyph-name="Otilde" unicode="&#xd5;" horiz-adv-x="569" 
d="M497 218q-23 -107 -83 -167.5t-171 -60.5q-39 0 -73.5 12.5t-60.5 36t-41.5 57.5t-15.5 76q0 9 0.5 17.5t2.5 21t6 31.5t10.5 50.5t16.5 77.5t24 112q22 106 82.5 167t171.5 61q39 0 73.5 -12.5t60.5 -36t41.5 -57.5t15.5 -76q0 -10 -0.5 -18t-2.5 -20.5t-6 -31.5
t-10.5 -50.5t-16.5 -77.5t-24 -112zM167 482q-14 -66 -23.5 -111.5t-16.5 -76t-11 -49.5t-6 -30.5t-2.5 -19t-0.5 -16.5q0 -34 11.5 -59.5t31 -43t45.5 -26t55 -8.5q33 0 63.5 10t56 31t44 54.5t28.5 80.5q14 66 23.5 111.5t16.5 76t11 49.5t6 30.5t2.5 19t0.5 16.5
q0 34 -11.5 59.5t-31 43t-45.5 26t-55 8.5q-33 0 -63.5 -10t-56 -31t-44 -54.5t-28.5 -80.5zM349 845q11 0 22 -2.5t23 -9.5l33 -17q8 -4 15 -7t14 -3q27 0 44 37h56q-9 -29 -21.5 -46.5t-26 -26.5t-28 -12t-26.5 -3q-11 0 -22 2.5t-23 9.5l-33 17q-8 4 -15 7t-14 3
q-27 0 -44 -37h-56q9 29 21.5 46.5t26 26.5t28 12t26.5 3z" />
    <glyph glyph-name="Odieresis" unicode="&#xd6;" horiz-adv-x="569" 
d="M497 218q-23 -107 -83 -167.5t-171 -60.5q-39 0 -73.5 12.5t-60.5 36t-41.5 57.5t-15.5 76q0 9 0.5 17.5t2.5 21t6 31.5t10.5 50.5t16.5 77.5t24 112q22 106 82.5 167t171.5 61q39 0 73.5 -12.5t60.5 -36t41.5 -57.5t15.5 -76q0 -10 -0.5 -18t-2.5 -20.5t-6 -31.5
t-10.5 -50.5t-16.5 -77.5t-24 -112zM167 482q-14 -66 -23.5 -111.5t-16.5 -76t-11 -49.5t-6 -30.5t-2.5 -19t-0.5 -16.5q0 -34 11.5 -59.5t31 -43t45.5 -26t55 -8.5q33 0 63.5 10t56 31t44 54.5t28.5 80.5q14 66 23.5 111.5t16.5 76t11 49.5t6 30.5t2.5 19t0.5 16.5
q0 34 -11.5 59.5t-31 43t-45.5 26t-55 8.5q-33 0 -63.5 -10t-56 -31t-44 -54.5t-28.5 -80.5zM313 756h-55l19 87h55zM524 756h-55l19 87h55z" />
    <glyph glyph-name="multiply" unicode="&#xd7;" 
d="M315 280l171 -169l-32 -32l-171 169l-170 -169l-32 32l170 169l-170 170l32 32l170 -170l171 170l32 -32z" />
    <glyph glyph-name="Oslash" unicode="&#xd8;" horiz-adv-x="575" 
d="M500 218q-23 -107 -83 -167.5t-171 -60.5q-42 0 -79.5 14.5t-64.5 42.5l-51 -66l-38 24l62 81q-20 37 -20 86q0 9 0.5 17.5t2.5 21t6 31.5t10.5 50.5t16.5 77.5t24 112q22 106 82.5 167t171.5 61q42 0 79.5 -15t63.5 -43l53 68l38 -25l-63 -82q9 -18 14.5 -39.5
t5.5 -45.5q0 -10 -0.5 -18t-2.5 -20.5t-6 -31.5t-10.5 -50.5t-16.5 -77.5t-24 -112zM170 482q-14 -66 -23.5 -111.5t-16.5 -76t-11 -49.5t-6 -30.5t-2.5 -19t-0.5 -16.5q0 -12 1 -22.5t4 -19.5l363 470q-20 26 -50.5 38.5t-65.5 12.5q-33 0 -63.5 -10t-56 -31t-44 -54.5
t-28.5 -80.5zM505 521q0 11 -1.5 21t-3.5 20l-363 -470q20 -25 50 -37.5t66 -12.5q33 0 63.5 10t56 31t44 54.5t28.5 80.5q14 66 23.5 111.5t16.5 76t11 49.5t6 30.5t2.5 19t0.5 16.5z" />
    <glyph glyph-name="Ugrave" unicode="&#xd9;" horiz-adv-x="594" 
d="M119 179q0 -34 11.5 -59.5t31 -43t45.5 -26t55 -8.5q33 0 63.5 10t55.5 31t44 54.5t29 80.5l103 482h55l-103 -482q-23 -107 -83 -167.5t-171 -60.5q-39 0 -73.5 12.5t-61 36t-42 57.5t-15.5 76q0 9 1 18.5t4.5 28t10 50.5t18.5 87.5t30 139t44 204.5h55
q-26 -120 -44 -203t-29.5 -138t-18.5 -86.5t-10 -49.5t-4 -26.5t-1 -17.5zM366 854l77 -109h-53l-105 109h81z" />
    <glyph glyph-name="Uacute" unicode="&#xda;" horiz-adv-x="594" 
d="M119 179q0 -34 11.5 -59.5t31 -43t45.5 -26t55 -8.5q33 0 63.5 10t55.5 31t44 54.5t29 80.5l103 482h55l-103 -482q-23 -107 -83 -167.5t-171 -60.5q-39 0 -73.5 12.5t-61 36t-42 57.5t-15.5 76q0 9 1 18.5t4.5 28t10 50.5t18.5 87.5t30 139t44 204.5h55
q-26 -120 -44 -203t-29.5 -138t-18.5 -86.5t-10 -49.5t-4 -26.5t-1 -17.5zM524 854l-128 -109h-58l100 109h86z" />
    <glyph glyph-name="Ucircumflex" unicode="&#xdb;" horiz-adv-x="594" 
d="M119 179q0 -34 11.5 -59.5t31 -43t45.5 -26t55 -8.5q33 0 63.5 10t55.5 31t44 54.5t29 80.5l103 482h55l-103 -482q-23 -107 -83 -167.5t-171 -60.5q-39 0 -73.5 12.5t-61 36t-42 57.5t-15.5 76q0 9 1 18.5t4.5 28t10 50.5t18.5 87.5t30 139t44 204.5h55
q-26 -120 -44 -203t-29.5 -138t-18.5 -86.5t-10 -49.5t-4 -26.5t-1 -17.5zM551 745h-67l-66 63l-92 -63h-77l148 109h52z" />
    <glyph glyph-name="Udieresis" unicode="&#xdc;" horiz-adv-x="594" 
d="M119 179q0 -34 11.5 -59.5t31 -43t45.5 -26t55 -8.5q33 0 63.5 10t55.5 31t44 54.5t29 80.5l103 482h55l-103 -482q-23 -107 -83 -167.5t-171 -60.5q-39 0 -73.5 12.5t-61 36t-42 57.5t-15.5 76q0 9 1 18.5t4.5 28t10 50.5t18.5 87.5t30 139t44 204.5h55
q-26 -120 -44 -203t-29.5 -138t-18.5 -86.5t-10 -49.5t-4 -26.5t-1 -17.5zM325 756h-55l19 87h55zM536 756h-55l19 87h55z" />
    <glyph glyph-name="Yacute" unicode="&#xdd;" horiz-adv-x="543" 
d="M306 291l-62 -291h-55l62 291l-149 409h56l129 -350l275 350h67zM498 854l-128 -109h-58l100 109h86z" />
    <glyph glyph-name="Thorn" unicode="&#xde;" horiz-adv-x="539" 
d="M116 148l-31 -148h-55l149 700h55l-31 -146h151q48 0 83 -15t58 -40.5t34.5 -58t11.5 -67.5q0 -37 -14 -77t-43 -73t-74.5 -54t-108.5 -21h-185zM308 200q41 0 74 14.5t56 38.5t35.5 54t12.5 61q0 23 -6.5 47t-23 43.5t-44.5 31.5t-70 12h-150l-64 -302h180z" />
    <glyph glyph-name="germandbls" unicode="&#xdf;" horiz-adv-x="529" 
d="M284 404q33 0 60.5 11.5t48 32t31.5 49t11 62.5q0 44 -26.5 72.5t-80.5 28.5q-58 0 -91.5 -35.5t-44.5 -88.5l-114 -536h-53l114 536q7 35 20 66.5t36 55.5t58 38t86 14q33 0 60 -12t47 -32t31 -46.5t11 -55.5q0 -52 -23 -103.5t-78 -82.5q38 -19 59 -60t21 -90
q0 -38 -11.5 -80t-39.5 -77t-74.5 -58t-115.5 -23q-31 0 -56 6l12 54q25 -10 55 -10q40 0 73 14.5t56 39.5t36 58.5t13 71.5q0 55 -33 92.5t-101 37.5h-35l11 50h27z" />
    <glyph glyph-name="agrave" unicode="&#xe0;" horiz-adv-x="527" 
d="M81 360q26 90 85 130t139 40q28 0 58 -8.5t54.5 -27.5t40 -48.5t15.5 -71.5q0 -11 -0.5 -20t-4 -27t-10.5 -50t-19 -90l-40 -187h-53l15 66q-24 -34 -65.5 -55t-101.5 -21q-37 0 -67 11t-51.5 30t-33 44.5t-11.5 53.5q0 66 32 105t93 56q25 7 56 12t64.5 8t69 5t68.5 4
q5 20 6 29.5t1 19.5q0 52 -31.5 82t-93.5 30q-54 0 -98 -31.5t-64 -88.5h-53zM404 271q-87 -4 -149.5 -11.5t-94.5 -18.5q-40 -14 -58 -43.5t-18 -64.5q0 -37 28.5 -65t92.5 -28q34 0 64.5 11t54 31t40 48t23.5 62zM303 700l58 -129h-46l-91 129h79z" />
    <glyph glyph-name="aacute" unicode="&#xe1;" horiz-adv-x="527" 
d="M81 360q26 90 85 130t139 40q28 0 58 -8.5t54.5 -27.5t40 -48.5t15.5 -71.5q0 -11 -0.5 -20t-4 -27t-10.5 -50t-19 -90l-40 -187h-53l15 66q-24 -34 -65.5 -55t-101.5 -21q-37 0 -67 11t-51.5 30t-33 44.5t-11.5 53.5q0 66 32 105t93 56q25 7 56 12t64.5 8t69 5t68.5 4
q5 20 6 29.5t1 19.5q0 52 -31.5 82t-93.5 30q-54 0 -98 -31.5t-64 -88.5h-53zM404 271q-87 -4 -149.5 -11.5t-94.5 -18.5q-40 -14 -58 -43.5t-18 -64.5q0 -37 28.5 -65t92.5 -28q34 0 64.5 11t54 31t40 48t23.5 62zM435 700l-118 -129h-51l85 129h84z" />
    <glyph glyph-name="acircumflex" unicode="&#xe2;" horiz-adv-x="527" 
d="M81 360q26 90 85 130t139 40q28 0 58 -8.5t54.5 -27.5t40 -48.5t15.5 -71.5q0 -11 -0.5 -20t-4 -27t-10.5 -50t-19 -90l-40 -187h-53l15 66q-24 -34 -65.5 -55t-101.5 -21q-37 0 -67 11t-51.5 30t-33 44.5t-11.5 53.5q0 66 32 105t93 56q25 7 56 12t64.5 8t69 5t68.5 4
q5 20 6 29.5t1 19.5q0 52 -31.5 82t-93.5 30q-54 0 -98 -31.5t-64 -88.5h-53zM404 271q-87 -4 -149.5 -11.5t-94.5 -18.5q-40 -14 -58 -43.5t-18 -64.5q0 -37 28.5 -65t92.5 -28q34 0 64.5 11t54 31t40 48t23.5 62zM349 654l-104 -83h-69l152 129h52l98 -129h-59z" />
    <glyph glyph-name="atilde" unicode="&#xe3;" horiz-adv-x="527" 
d="M81 360q26 90 85 130t139 40q28 0 58 -8.5t54.5 -27.5t40 -48.5t15.5 -71.5q0 -11 -0.5 -20t-4 -27t-10.5 -50t-19 -90l-40 -187h-53l15 66q-24 -34 -65.5 -55t-101.5 -21q-37 0 -67 11t-51.5 30t-33 44.5t-11.5 53.5q0 66 32 105t93 56q25 7 56 12t64.5 8t69 5t68.5 4
q5 20 6 29.5t1 19.5q0 52 -31.5 82t-93.5 30q-54 0 -98 -31.5t-64 -88.5h-53zM404 271q-87 -4 -149.5 -11.5t-94.5 -18.5q-40 -14 -58 -43.5t-18 -64.5q0 -37 28.5 -65t92.5 -28q34 0 64.5 11t54 31t40 48t23.5 62zM496 679q-9 -29 -21.5 -46.5t-26 -26.5t-28 -12t-26.5 -3
q-11 0 -22 2.5t-23 9.5l-33 19q-5 3 -13.5 6.5t-19.5 3.5t-23.5 -8t-23.5 -31h-49q9 29 21.5 46.5t26 26.5t28 12t26.5 3q11 0 22 -2.5t23 -9.5l33 -19q5 -3 13.5 -6.5t19.5 -3.5t23.5 8t23.5 31h49z" />
    <glyph glyph-name="adieresis" unicode="&#xe4;" horiz-adv-x="527" 
d="M81 360q26 90 85 130t139 40q28 0 58 -8.5t54.5 -27.5t40 -48.5t15.5 -71.5q0 -11 -0.5 -20t-4 -27t-10.5 -50t-19 -90l-40 -187h-53l15 66q-24 -34 -65.5 -55t-101.5 -21q-37 0 -67 11t-51.5 30t-33 44.5t-11.5 53.5q0 66 32 105t93 56q25 7 56 12t64.5 8t69 5t68.5 4
q5 20 6 29.5t1 19.5q0 52 -31.5 82t-93.5 30q-54 0 -98 -31.5t-64 -88.5h-53zM404 271q-87 -4 -149.5 -11.5t-94.5 -18.5q-40 -14 -58 -43.5t-18 -64.5q0 -37 28.5 -65t92.5 -28q34 0 64.5 11t54 31t40 48t23.5 62zM251 592h-53l19 87h53zM464 592h-53l19 87h53z" />
    <glyph glyph-name="aring" unicode="&#xe5;" horiz-adv-x="527" 
d="M81 360q26 90 85 130t139 40q28 0 58 -8.5t54.5 -27.5t40 -48.5t15.5 -71.5q0 -11 -0.5 -20t-4 -27t-10.5 -50t-19 -90l-40 -187h-53l15 66q-24 -34 -65.5 -55t-101.5 -21q-37 0 -67 11t-51.5 30t-33 44.5t-11.5 53.5q0 66 32 105t93 56q25 7 56 12t64.5 8t69 5t68.5 4
q5 20 6 29.5t1 19.5q0 52 -31.5 82t-93.5 30q-54 0 -98 -31.5t-64 -88.5h-53zM404 271q-87 -4 -149.5 -11.5t-94.5 -18.5q-40 -14 -58 -43.5t-18 -64.5q0 -37 28.5 -65t92.5 -28q34 0 64.5 11t54 31t40 48t23.5 62zM266 635q0 31 21.5 53t52.5 22t53 -22t22 -53t-22 -52.5
t-53 -21.5t-52.5 21.5t-21.5 52.5zM309 635q0 -13 9 -22t22 -9t22.5 9t9.5 22t-9.5 22.5t-22.5 9.5t-22 -9.5t-9 -22.5z" />
    <glyph glyph-name="ae" unicode="&#xe6;" horiz-adv-x="856" 
d="M389 94q-9 -15 -24.5 -33.5t-39 -34t-56.5 -26t-77 -10.5q-37 0 -67 11t-51.5 30t-33 44.5t-11.5 53.5q0 66 32 105t93 56q25 7 56 12t64.5 8t69 5t68.5 4q5 20 6 29.5t1 19.5q0 52 -31.5 82t-93.5 30q-54 0 -98 -31.5t-64 -88.5h-53q26 90 85 130t139 40q51 0 94 -22.5
t62 -75.5q68 98 187 98q28 0 58 -8.5t54.5 -27.5t40 -48.5t15.5 -71.5q0 -9 -0.5 -16.5t-2.5 -19.5t-6 -31.5t-11 -53.5h-343q-6 -27 -9.5 -43.5t-5.5 -27t-2.5 -17t-0.5 -13.5q0 -52 31.5 -82t93.5 -30q54 0 97.5 31.5t63.5 88.5h54q-26 -90 -85 -130t-139 -40
q-24 0 -48.5 6t-46 18.5t-39 32t-26.5 47.5zM402 271q-87 -4 -149.5 -11.5t-94.5 -18.5q-40 -14 -58 -43.5t-18 -64.5q0 -37 28.5 -65t92.5 -28q34 0 64.5 11t54 31t40 48t23.5 62zM752 303l5 25t3 17t1.5 12t0.5 11q0 52 -31.5 82t-93.5 30q-35 0 -64.5 -12.5t-52.5 -35.5
t-38 -55.5t-20 -73.5h290z" />
    <glyph glyph-name="ccedilla" unicode="&#xe7;" horiz-adv-x="516" 
d="M481 360h-52v8q0 52 -31.5 82t-93.5 30q-60 0 -107 -38.5t-62 -108.5q-12 -56 -19 -88t-10.5 -49.5t-4.5 -26t-1 -17.5q0 -52 31.5 -82t93.5 -30q54 0 98 31.5t64 88.5h53q-26 -90 -85 -130t-139 -40q-29 0 -58.5 8.5t-54 27.5t-40 48.5t-15.5 71.5q0 11 0.5 20t4 27
t10.5 50t19 90q22 105 83.5 151t147.5 46q28 0 58 -8.5t54.5 -27.5t40 -48.5t15.5 -71.5v-14zM194 0h49l-38 -158h-69z" />
    <glyph glyph-name="egrave" unicode="&#xe8;" horiz-adv-x="523" 
d="M118 253q-6 -27 -9.5 -43.5t-5.5 -27t-2.5 -17t-0.5 -13.5q0 -52 31.5 -82t93.5 -30q54 0 97.5 31.5t63.5 88.5h54q-26 -90 -85 -130t-139 -40q-29 0 -58.5 8.5t-54 27.5t-40 48.5t-15.5 71.5q0 11 0.5 20t4 27t10.5 50t19 90q22 105 83.5 151t147.5 46q28 0 58 -8.5
t54.5 -27.5t40 -48.5t15.5 -71.5q0 -9 -0.5 -16.5t-2.5 -19.5t-6 -31.5t-11 -53.5h-343zM419 303l5 25t3 17t1.5 12t0.5 11q0 52 -31.5 82t-93.5 30q-35 0 -64.5 -12.5t-52.5 -35.5t-38 -55.5t-20 -73.5h290zM312 700l58 -129h-46l-91 129h79z" />
    <glyph glyph-name="eacute" unicode="&#xe9;" horiz-adv-x="523" 
d="M118 253q-6 -27 -9.5 -43.5t-5.5 -27t-2.5 -17t-0.5 -13.5q0 -52 31.5 -82t93.5 -30q54 0 97.5 31.5t63.5 88.5h54q-26 -90 -85 -130t-139 -40q-29 0 -58.5 8.5t-54 27.5t-40 48.5t-15.5 71.5q0 11 0.5 20t4 27t10.5 50t19 90q22 105 83.5 151t147.5 46q28 0 58 -8.5
t54.5 -27.5t40 -48.5t15.5 -71.5q0 -9 -0.5 -16.5t-2.5 -19.5t-6 -31.5t-11 -53.5h-343zM419 303l5 25t3 17t1.5 12t0.5 11q0 52 -31.5 82t-93.5 30q-35 0 -64.5 -12.5t-52.5 -35.5t-38 -55.5t-20 -73.5h290zM444 700l-118 -129h-51l85 129h84z" />
    <glyph glyph-name="ecircumflex" unicode="&#xea;" horiz-adv-x="523" 
d="M118 253q-6 -27 -9.5 -43.5t-5.5 -27t-2.5 -17t-0.5 -13.5q0 -52 31.5 -82t93.5 -30q54 0 97.5 31.5t63.5 88.5h54q-26 -90 -85 -130t-139 -40q-29 0 -58.5 8.5t-54 27.5t-40 48.5t-15.5 71.5q0 11 0.5 20t4 27t10.5 50t19 90q22 105 83.5 151t147.5 46q28 0 58 -8.5
t54.5 -27.5t40 -48.5t15.5 -71.5q0 -9 -0.5 -16.5t-2.5 -19.5t-6 -31.5t-11 -53.5h-343zM419 303l5 25t3 17t1.5 12t0.5 11q0 52 -31.5 82t-93.5 30q-35 0 -64.5 -12.5t-52.5 -35.5t-38 -55.5t-20 -73.5h290zM353 654l-104 -83h-69l152 129h52l98 -129h-59z" />
    <glyph glyph-name="edieresis" unicode="&#xeb;" horiz-adv-x="523" 
d="M118 253q-6 -27 -9.5 -43.5t-5.5 -27t-2.5 -17t-0.5 -13.5q0 -52 31.5 -82t93.5 -30q54 0 97.5 31.5t63.5 88.5h54q-26 -90 -85 -130t-139 -40q-29 0 -58.5 8.5t-54 27.5t-40 48.5t-15.5 71.5q0 11 0.5 20t4 27t10.5 50t19 90q22 105 83.5 151t147.5 46q28 0 58 -8.5
t54.5 -27.5t40 -48.5t15.5 -71.5q0 -9 -0.5 -16.5t-2.5 -19.5t-6 -31.5t-11 -53.5h-343zM419 303l5 25t3 17t1.5 12t0.5 11q0 52 -31.5 82t-93.5 30q-35 0 -64.5 -12.5t-52.5 -35.5t-38 -55.5t-20 -73.5h290zM255 592h-53l19 87h53zM468 592h-53l19 87h53z" />
    <glyph glyph-name="igrave" unicode="&#xec;" horiz-adv-x="213" 
d="M188 516l-109 -516h-53l109 516h53zM154 700l58 -129h-46l-91 129h79z" />
    <glyph glyph-name="iacute" unicode="&#xed;" horiz-adv-x="213" 
d="M188 516l-109 -516h-53l109 516h53zM286 700l-118 -129h-51l85 129h84z" />
    <glyph glyph-name="icircumflex" unicode="&#xee;" horiz-adv-x="213" 
d="M188 516l-109 -516h-53l109 516h53zM195 654l-104 -83h-69l152 129h52l98 -129h-59z" />
    <glyph glyph-name="idieresis" unicode="&#xef;" horiz-adv-x="213" 
d="M188 516l-109 -516h-53l109 516h53zM98 592h-53l19 87h53zM311 592h-53l19 87h53z" />
    <glyph glyph-name="eth" unicode="&#xf0;" horiz-adv-x="529" 
d="M447 187q-23 -105 -84 -151t-147 -46q-29 0 -58.5 8.5t-54 27.5t-40 48.5t-15.5 71.5q0 11 0.5 20t4 27t10.5 50t19 90q22 105 83.5 151t147.5 46q28 0 53 -7l-32 62h-129l9 43h99l-36 72h59l36 -72h84l-9 -43h-54l62 -122q10 -20 18 -40.5t8 -48.5q0 -11 -0.5 -20
t-4 -27t-10.5 -50t-19 -90zM135 333q-12 -56 -19 -88t-10.5 -49.5t-4.5 -26t-1 -17.5q0 -52 31.5 -82t93.5 -30q60 0 107 38.5t62 108.5q12 56 19 88t10.5 49.5t4.5 26t1 17.5q0 52 -31.5 82t-93.5 30q-60 0 -107 -38.5t-62 -108.5z" />
    <glyph glyph-name="ntilde" unicode="&#xf1;" horiz-adv-x="549" 
d="M327 530q28 0 58 -8.5t54.5 -27.5t40 -48.5t15.5 -71.5q0 -11 -0.5 -20t-4 -27t-10.5 -50t-19 -90l-40 -187h-53l40 187q12 56 19 88t10.5 49.5t4.5 26t1 17.5q0 52 -31.5 82t-93.5 30q-60 0 -107 -38.5t-62 -108.5l-71 -333h-53l110 516h53l-13 -59q20 30 58.5 51.5
t93.5 21.5zM513 679q-9 -29 -21.5 -46.5t-26 -26.5t-28 -12t-26.5 -3q-11 0 -22 2.5t-23 9.5l-33 19q-5 3 -13.5 6.5t-19.5 3.5t-23.5 -8t-23.5 -31h-49q9 29 21.5 46.5t26 26.5t28 12t26.5 3q11 0 22 -2.5t23 -9.5l33 -19q5 -3 13.5 -6.5t19.5 -3.5t23.5 8t23.5 31h49z" />
    <glyph glyph-name="ograve" unicode="&#xf2;" horiz-adv-x="529" 
d="M135 333q-12 -56 -19 -88t-10.5 -49.5t-4.5 -26t-1 -17.5q0 -52 31.5 -82t93.5 -30q60 0 107 38.5t62 108.5q12 56 19 88t10.5 49.5t4.5 26t1 17.5q0 52 -31.5 82t-93.5 30q-60 0 -107 -38.5t-62 -108.5zM447 187q-23 -105 -84 -151t-147 -46q-29 0 -58.5 8.5t-54 27.5
t-40 48.5t-15.5 71.5q0 11 0.5 20t4 27t10.5 50t19 90q22 105 83.5 151t147.5 46q28 0 58 -8.5t54.5 -27.5t40 -48.5t15.5 -71.5q0 -11 -0.5 -20t-4 -27t-10.5 -50t-19 -90zM312 700l58 -129h-46l-91 129h79z" />
    <glyph glyph-name="oacute" unicode="&#xf3;" horiz-adv-x="529" 
d="M135 333q-12 -56 -19 -88t-10.5 -49.5t-4.5 -26t-1 -17.5q0 -52 31.5 -82t93.5 -30q60 0 107 38.5t62 108.5q12 56 19 88t10.5 49.5t4.5 26t1 17.5q0 52 -31.5 82t-93.5 30q-60 0 -107 -38.5t-62 -108.5zM447 187q-23 -105 -84 -151t-147 -46q-29 0 -58.5 8.5t-54 27.5
t-40 48.5t-15.5 71.5q0 11 0.5 20t4 27t10.5 50t19 90q22 105 83.5 151t147.5 46q28 0 58 -8.5t54.5 -27.5t40 -48.5t15.5 -71.5q0 -11 -0.5 -20t-4 -27t-10.5 -50t-19 -90zM444 700l-118 -129h-51l85 129h84z" />
    <glyph glyph-name="ocircumflex" unicode="&#xf4;" horiz-adv-x="529" 
d="M135 333q-12 -56 -19 -88t-10.5 -49.5t-4.5 -26t-1 -17.5q0 -52 31.5 -82t93.5 -30q60 0 107 38.5t62 108.5q12 56 19 88t10.5 49.5t4.5 26t1 17.5q0 52 -31.5 82t-93.5 30q-60 0 -107 -38.5t-62 -108.5zM447 187q-23 -105 -84 -151t-147 -46q-29 0 -58.5 8.5t-54 27.5
t-40 48.5t-15.5 71.5q0 11 0.5 20t4 27t10.5 50t19 90q22 105 83.5 151t147.5 46q28 0 58 -8.5t54.5 -27.5t40 -48.5t15.5 -71.5q0 -11 -0.5 -20t-4 -27t-10.5 -50t-19 -90zM353 654l-104 -83h-69l152 129h52l98 -129h-59z" />
    <glyph glyph-name="otilde" unicode="&#xf5;" horiz-adv-x="529" 
d="M135 333q-12 -56 -19 -88t-10.5 -49.5t-4.5 -26t-1 -17.5q0 -52 31.5 -82t93.5 -30q60 0 107 38.5t62 108.5q12 56 19 88t10.5 49.5t4.5 26t1 17.5q0 52 -31.5 82t-93.5 30q-60 0 -107 -38.5t-62 -108.5zM447 187q-23 -105 -84 -151t-147 -46q-29 0 -58.5 8.5t-54 27.5
t-40 48.5t-15.5 71.5q0 11 0.5 20t4 27t10.5 50t19 90q22 105 83.5 151t147.5 46q28 0 58 -8.5t54.5 -27.5t40 -48.5t15.5 -71.5q0 -11 -0.5 -20t-4 -27t-10.5 -50t-19 -90zM499 679q-9 -29 -21.5 -46.5t-26 -26.5t-28 -12t-26.5 -3q-11 0 -22 2.5t-23 9.5l-33 19
q-5 3 -13.5 6.5t-19.5 3.5t-23.5 -8t-23.5 -31h-49q9 29 21.5 46.5t26 26.5t28 12t26.5 3q11 0 22 -2.5t23 -9.5l33 -19q5 -3 13.5 -6.5t19.5 -3.5t23.5 8t23.5 31h49z" />
    <glyph glyph-name="odieresis" unicode="&#xf6;" horiz-adv-x="529" 
d="M135 333q-12 -56 -19 -88t-10.5 -49.5t-4.5 -26t-1 -17.5q0 -52 31.5 -82t93.5 -30q60 0 107 38.5t62 108.5q12 56 19 88t10.5 49.5t4.5 26t1 17.5q0 52 -31.5 82t-93.5 30q-60 0 -107 -38.5t-62 -108.5zM447 187q-23 -105 -84 -151t-147 -46q-29 0 -58.5 8.5t-54 27.5
t-40 48.5t-15.5 71.5q0 11 0.5 20t4 27t10.5 50t19 90q22 105 83.5 151t147.5 46q28 0 58 -8.5t54.5 -27.5t40 -48.5t15.5 -71.5q0 -11 -0.5 -20t-4 -27t-10.5 -50t-19 -90zM255 592h-53l19 87h53zM468 592h-53l19 87h53z" />
    <glyph glyph-name="divide" unicode="&#xf7;" 
d="M243 479q0 17 12.5 29.5t29.5 12.5t29.5 -12.5t12.5 -29.5t-12.5 -29.5t-29.5 -12.5t-29.5 12.5t-12.5 29.5zM243 82q0 17 12.5 29.5t29.5 12.5t29.5 -12.5t12.5 -29.5t-12.5 -29.5t-29.5 -12.5t-29.5 12.5t-12.5 29.5zM86 258v45h396v-45h-396z" />
    <glyph glyph-name="oslash" unicode="&#xf8;" horiz-adv-x="535" 
d="M450 187q-23 -105 -84 -151t-147 -46q-32 0 -64.5 10.5t-57.5 33.5l-49 -56l-33 27l55 62q-19 33 -19 79q0 11 0.5 20t4 27t10.5 50t19 90q22 105 83.5 151t147.5 46q31 0 63.5 -10.5t57.5 -33.5l49 56l34 -27l-55 -63q19 -33 19 -78q0 -11 -0.5 -20t-4 -27t-10.5 -50
t-19 -90zM432 368q0 22 -6 40l-295 -335q33 -33 97 -33q60 0 107 38.5t62 108.5q12 56 19 88t10.5 49.5t4.5 26t1 17.5zM138 333q-12 -56 -19 -88t-10.5 -49.5t-4.5 -26t-1 -17.5q0 -23 6 -41l294 336q-33 33 -96 33q-60 0 -107 -38.5t-62 -108.5z" />
    <glyph glyph-name="ugrave" unicode="&#xf9;" horiz-adv-x="541" 
d="M223 -10q-29 0 -58.5 9t-54 28t-40 48.5t-15.5 70.5q0 10 1 20.5t4.5 29.5t10 50.5t17.5 82.5l40 187h53l-40 -187q-11 -49 -17.5 -79t-10 -49t-5 -29.5t-1.5 -19.5q0 -51 31 -81.5t91 -30.5q28 0 54.5 10t48.5 28.5t38 46t24 62.5l70 329h53l-110 -516h-53l14 63
q-8 -13 -22.5 -26t-33 -23.5t-41.5 -17t-48 -6.5zM314 700l58 -129h-46l-91 129h79z" />
    <glyph glyph-name="uacute" unicode="&#xfa;" horiz-adv-x="542" 
d="M223 -10q-29 0 -58.5 9t-54 28t-40 48.5t-15.5 70.5q0 10 1 20.5t4.5 29.5t10 50.5t17.5 82.5l40 187h53l-40 -187q-11 -49 -17.5 -79t-10 -49t-5 -29.5t-1.5 -19.5q0 -51 31 -81.5t91 -30.5q28 0 54.5 10t48.5 28.5t38 46t24 62.5l70 329h53l-110 -516h-53l14 63
q-8 -13 -22.5 -26t-33 -23.5t-41.5 -17t-48 -6.5zM447 700l-118 -129h-51l85 129h84z" />
    <glyph glyph-name="ucircumflex" unicode="&#xfb;" horiz-adv-x="541" 
d="M223 -10q-29 0 -58.5 9t-54 28t-40 48.5t-15.5 70.5q0 10 1 20.5t4.5 29.5t10 50.5t17.5 82.5l40 187h53l-40 -187q-11 -49 -17.5 -79t-10 -49t-5 -29.5t-1.5 -19.5q0 -51 31 -81.5t91 -30.5q28 0 54.5 10t48.5 28.5t38 46t24 62.5l70 329h53l-110 -516h-53l14 63
q-8 -13 -22.5 -26t-33 -23.5t-41.5 -17t-48 -6.5zM355 654l-104 -83h-69l152 129h52l98 -129h-59z" />
    <glyph glyph-name="udieresis" unicode="&#xfc;" horiz-adv-x="541" 
d="M223 -10q-29 0 -58.5 9t-54 28t-40 48.5t-15.5 70.5q0 10 1 20.5t4.5 29.5t10 50.5t17.5 82.5l40 187h53l-40 -187q-11 -49 -17.5 -79t-10 -49t-5 -29.5t-1.5 -19.5q0 -51 31 -81.5t91 -30.5q28 0 54.5 10t48.5 28.5t38 46t24 62.5l70 329h53l-110 -516h-53l14 63
q-8 -13 -22.5 -26t-33 -23.5t-41.5 -17t-48 -6.5zM257 592h-53l19 87h53zM470 592h-53l19 87h53z" />
    <glyph glyph-name="yacute" unicode="&#xfd;" horiz-adv-x="452" 
d="M66 516h52l66 -444l252 444h60l-342 -597q-12 -22 -24 -40.5t-26.5 -32.5t-34 -22t-47.5 -8h-26l11 50h27q26 0 39.5 17t27.5 42l42 74zM406 700l-118 -129h-51l85 129h84z" />
    <glyph glyph-name="thorn" unicode="&#xfe;" horiz-adv-x="544" 
d="M319 480q-60 0 -107 -38.5t-62 -108.5q-12 -56 -19 -88t-10.5 -49.5t-4.5 -26t-1 -17.5q0 -52 31.5 -82t93.5 -30q60 0 107 38.5t62 108.5q12 56 19 88t10.5 49.5t4.5 26t1 17.5q0 52 -31.5 82t-93.5 30zM176 457q20 30 58.5 51.5t93.5 21.5q28 0 58 -8.5t54.5 -27.5
t40 -48.5t15.5 -71.5q0 -11 -0.5 -20t-4 -27t-10.5 -50t-19 -90q-23 -105 -84 -151t-147 -46q-29 0 -52 8t-40.5 20t-28.5 26.5t-16 28.5l-54 -257h-53l187 884h53z" />
    <glyph glyph-name="ydieresis" unicode="&#xff;" horiz-adv-x="452" 
d="M66 516h52l66 -444l252 444h60l-342 -597q-12 -22 -24 -40.5t-26.5 -32.5t-34 -22t-47.5 -8h-26l11 50h27q26 0 39.5 17t27.5 42l42 74zM217 592h-53l19 87h53zM430 592h-53l19 87h53z" />
    <glyph glyph-name="Abreve" unicode="&#x102;" horiz-adv-x="564" 
d="M410 218h-266l-120 -218h-59l386 700h50l89 -700h-52zM404 267l-44 343l-189 -343h233zM419 796q12 0 24 5t22.5 13t18 18.5t9.5 21.5h56q-5 -23 -17.5 -42.5t-30.5 -34.5t-40 -23.5t-44 -8.5h-64q-39 0 -64 24.5t-25 61.5q0 11 3 23h48q-1 -4 -1 -12q0 -20 13.5 -33
t36.5 -13h55v0z" />
    <glyph glyph-name="Amacron" unicode="&#x100;" horiz-adv-x="564" 
d="M410 218h-266l-120 -218h-59l386 700h50l89 -700h-52zM404 267l-44 343l-189 -343h233zM248 774l9 47h289l-9 -47h-289z" />
    <glyph glyph-name="Aogonek" unicode="&#x104;" horiz-adv-x="564" 
d="M410 218h-266l-120 -218h-59l386 700h50l89 -700q-13 -8 -31 -18.5t-34.5 -23.5t-28 -29t-11.5 -35q0 -17 9 -24.5t23 -7.5q11 0 23 3.5t23 8.5l-11 -50q-12 -7 -25 -10t-25 -3q-35 0 -54 21t-19 50q0 46 32 74t77 44zM404 267l-44 343l-189 -343h233z" />
    <glyph glyph-name="Cacute" unicode="&#x106;" horiz-adv-x="559" 
d="M501 500q1 8 1 12v9q0 34 -11.5 59.5t-31 43t-45.5 26t-55 8.5q-33 0 -63.5 -10t-56 -31t-44 -54.5t-28.5 -80.5q-14 -66 -23.5 -111.5t-16.5 -76t-11 -49.5t-6 -30.5t-2.5 -19t-0.5 -16.5q0 -34 11.5 -59.5t31 -43t45.5 -26t55 -8.5q64 0 115 36.5t73 121.5h55
q-12 -49 -33 -88t-51.5 -66t-71.5 -41.5t-94 -14.5q-39 0 -73.5 12.5t-60.5 36t-41.5 57.5t-15.5 76q0 9 0.5 17.5t2.5 21t6 31.5t10.5 50.5t16.5 77.5t24 112q22 106 82.5 167t171.5 61q39 0 73.5 -12.5t60.5 -36t41.5 -57.5t15.5 -76q0 -8 -0.5 -15.5t-1.5 -12.5h-54z
M511 854l-128 -109h-58l100 109h86z" />
    <glyph glyph-name="Ccaron" unicode="&#x10c;" horiz-adv-x="559" 
d="M501 500q1 8 1 12v9q0 34 -11.5 59.5t-31 43t-45.5 26t-55 8.5q-33 0 -63.5 -10t-56 -31t-44 -54.5t-28.5 -80.5q-14 -66 -23.5 -111.5t-16.5 -76t-11 -49.5t-6 -30.5t-2.5 -19t-0.5 -16.5q0 -34 11.5 -59.5t31 -43t45.5 -26t55 -8.5q64 0 115 36.5t73 121.5h55
q-12 -49 -33 -88t-51.5 -66t-71.5 -41.5t-94 -14.5q-39 0 -73.5 12.5t-60.5 36t-41.5 57.5t-15.5 76q0 9 0.5 17.5t2.5 21t6 31.5t10.5 50.5t16.5 77.5t24 112q22 106 82.5 167t171.5 61q39 0 73.5 -12.5t60.5 -36t41.5 -57.5t15.5 -76q0 -8 -0.5 -15.5t-1.5 -12.5h-54z
M260 854h67l66 -63l92 63h77l-148 -109h-52z" />
    <glyph glyph-name="Ccircumflex" unicode="&#x108;" horiz-adv-x="559" 
d="M501 500q1 8 1 12v9q0 34 -11.5 59.5t-31 43t-45.5 26t-55 8.5q-33 0 -63.5 -10t-56 -31t-44 -54.5t-28.5 -80.5q-14 -66 -23.5 -111.5t-16.5 -76t-11 -49.5t-6 -30.5t-2.5 -19t-0.5 -16.5q0 -34 11.5 -59.5t31 -43t45.5 -26t55 -8.5q64 0 115 36.5t73 121.5h55
q-12 -49 -33 -88t-51.5 -66t-71.5 -41.5t-94 -14.5q-39 0 -73.5 12.5t-60.5 36t-41.5 57.5t-15.5 76q0 9 0.5 17.5t2.5 21t6 31.5t10.5 50.5t16.5 77.5t24 112q22 106 82.5 167t171.5 61q39 0 73.5 -12.5t60.5 -36t41.5 -57.5t15.5 -76q0 -8 -0.5 -15.5t-1.5 -12.5h-54z
M539 745h-67l-66 63l-92 -63h-77l148 109h52z" />
    <glyph glyph-name="Cdotaccent" unicode="&#x10a;" horiz-adv-x="559" 
d="M501 500q1 8 1 12v9q0 34 -11.5 59.5t-31 43t-45.5 26t-55 8.5q-33 0 -63.5 -10t-56 -31t-44 -54.5t-28.5 -80.5q-14 -66 -23.5 -111.5t-16.5 -76t-11 -49.5t-6 -30.5t-2.5 -19t-0.5 -16.5q0 -34 11.5 -59.5t31 -43t45.5 -26t55 -8.5q64 0 115 36.5t73 121.5h55
q-12 -49 -33 -88t-51.5 -66t-71.5 -41.5t-94 -14.5q-39 0 -73.5 12.5t-60.5 36t-41.5 57.5t-15.5 76q0 9 0.5 17.5t2.5 21t6 31.5t10.5 50.5t16.5 77.5t24 112q22 106 82.5 167t171.5 61q39 0 73.5 -12.5t60.5 -36t41.5 -57.5t15.5 -76q0 -8 -0.5 -15.5t-1.5 -12.5h-54z
M418 756h-55l19 87h55z" />
    <glyph glyph-name="Dcaron" unicode="&#x10e;" horiz-adv-x="591" 
d="M273 52q33 0 63.5 10t56 31t44 54.5t28.5 80.5q14 66 23.5 110t15.5 72.5t9.5 44.5t5 25.5t2 15.5t0.5 15q0 34 -11.5 59.5t-31 43t-45.5 26t-55 8.5h-155l-127 -596h177zM30 0l149 700h206q39 0 73.5 -12.5t60.5 -36t41.5 -57.5t15.5 -76q0 -14 -2.5 -32t-8.5 -49
t-17 -81t-28 -128q-12 -53 -32 -95.5t-51 -72t-73.5 -45t-97.5 -15.5h-236zM245 854h67l66 -63l92 63h77l-148 -109h-52z" />
    <glyph glyph-name="Dcroat" unicode="&#x110;" horiz-adv-x="601" 
d="M41 0l70 328h-70l9 45h70l70 327h206q39 0 73.5 -12.5t60.5 -36t41.5 -57.5t15.5 -76q0 -14 -2.5 -32t-8.5 -49t-17 -81t-28 -128q-12 -53 -32 -95.5t-51 -72t-73.5 -45t-97.5 -15.5h-236zM284 52q33 0 63.5 10t56 31t44 54.5t28.5 80.5q14 66 23.5 110t15.5 72.5
t9.5 44.5t5 25.5t2 15.5t0.5 15q0 34 -11.5 59.5t-31 43t-45.5 26t-55 8.5h-155l-59 -275h166l-9 -45h-166l-59 -276h177z" />
    <glyph glyph-name="Ebreve" unicode="&#x114;" horiz-adv-x="541" 
d="M95 52h332l-11 -52h-387l149 700h387l-11 -52h-332l-57 -268h332l-11 -51h-332zM414 796q12 0 24 5t22.5 13t18 18.5t9.5 21.5h56q-5 -23 -17.5 -42.5t-30.5 -34.5t-40 -23.5t-44 -8.5h-64q-39 0 -64 24.5t-25 61.5q0 11 3 23h48q-1 -4 -1 -12q0 -20 13.5 -33t36.5 -13
h55v0z" />
    <glyph glyph-name="Ecaron" unicode="&#x11a;" horiz-adv-x="541" 
d="M95 52h332l-11 -52h-387l149 700h387l-11 -52h-332l-57 -268h332l-11 -51h-332zM252 854h67l66 -63l92 63h77l-148 -109h-52z" />
    <glyph glyph-name="Emacron" unicode="&#x112;" horiz-adv-x="541" 
d="M95 52h332l-11 -52h-387l149 700h387l-11 -52h-332l-57 -268h332l-11 -51h-332zM243 774l9 47h289l-9 -47h-289z" />
    <glyph glyph-name="Eogonek" unicode="&#x118;" horiz-adv-x="541" 
d="M95 52h332l-11 -52h-387l149 700h387l-11 -52h-332l-57 -268h332l-11 -51h-332zM416 0q-13 -8 -31 -18.5t-34.5 -23.5t-28 -29t-11.5 -35q0 -17 9 -24.5t23 -7.5q11 0 23 3.5t23 8.5l-11 -50q-12 -7 -25 -10t-25 -3q-35 0 -54 21t-19 50q0 46 31 73.5t75 44.5h55z" />
    <glyph glyph-name="Edotaccent" unicode="&#x116;" horiz-adv-x="541" 
d="M95 52h332l-11 -52h-387l149 700h387l-11 -52h-332l-57 -268h332l-11 -51h-332zM411 756h-55l19 87h55z" />
    <glyph glyph-name="Gbreve" unicode="&#x11e;" horiz-adv-x="566" 
d="M501 500q1 7 1 11.5v9.5q0 34 -11.5 59.5t-31 43t-45.5 26t-55 8.5q-33 0 -63.5 -10t-56 -31t-44 -54.5t-28.5 -80.5q-14 -66 -23.5 -111.5t-16.5 -76t-11 -49.5t-6 -30.5t-2.5 -19t-0.5 -16.5q0 -34 11.5 -59.5t31 -43t45.5 -26t55 -8.5q33 0 63.5 10t56 31t44 54.5
t28.5 80.5q5 26 9.5 48.5t9.5 42.5h-165l11 51h220q-6 -28 -13 -62.5t-17 -79.5q-23 -107 -83 -167.5t-171 -60.5q-39 0 -73.5 12.5t-60.5 36t-41.5 57.5t-15.5 76q0 9 0.5 17.5t2.5 21t6 31.5t10.5 50.5t16.5 77.5t24 112q22 106 82.5 167t171.5 61q39 0 73.5 -12.5
t60.5 -36t41.5 -57.5t15.5 -76q0 -8 -0.5 -15.5t-1.5 -12.5h-54zM423 796q12 0 24 5t22.5 13t18 18.5t9.5 21.5h56q-5 -23 -17.5 -42.5t-30.5 -34.5t-40 -23.5t-44 -8.5h-64q-39 0 -64 24.5t-25 61.5q0 11 3 23h48q-1 -4 -1 -12q0 -20 13.5 -33t36.5 -13h55v0z" />
    <glyph glyph-name="Gcircumflex" unicode="&#x11c;" horiz-adv-x="566" 
d="M501 500q1 7 1 11.5v9.5q0 34 -11.5 59.5t-31 43t-45.5 26t-55 8.5q-33 0 -63.5 -10t-56 -31t-44 -54.5t-28.5 -80.5q-14 -66 -23.5 -111.5t-16.5 -76t-11 -49.5t-6 -30.5t-2.5 -19t-0.5 -16.5q0 -34 11.5 -59.5t31 -43t45.5 -26t55 -8.5q33 0 63.5 10t56 31t44 54.5
t28.5 80.5q5 26 9.5 48.5t9.5 42.5h-165l11 51h220q-6 -28 -13 -62.5t-17 -79.5q-23 -107 -83 -167.5t-171 -60.5q-39 0 -73.5 12.5t-60.5 36t-41.5 57.5t-15.5 76q0 9 0.5 17.5t2.5 21t6 31.5t10.5 50.5t16.5 77.5t24 112q22 106 82.5 167t171.5 61q39 0 73.5 -12.5
t60.5 -36t41.5 -57.5t15.5 -76q0 -8 -0.5 -15.5t-1.5 -12.5h-54zM539 745h-67l-66 63l-92 -63h-77l148 109h52z" />
    <glyph glyph-name="Gcommaaccent" unicode="&#x122;" horiz-adv-x="566" 
d="M501 500q1 7 1 11.5v9.5q0 34 -11.5 59.5t-31 43t-45.5 26t-55 8.5q-33 0 -63.5 -10t-56 -31t-44 -54.5t-28.5 -80.5q-14 -66 -23.5 -111.5t-16.5 -76t-11 -49.5t-6 -30.5t-2.5 -19t-0.5 -16.5q0 -34 11.5 -59.5t31 -43t45.5 -26t55 -8.5q33 0 63.5 10t56 31t44 54.5
t28.5 80.5q5 26 9.5 48.5t9.5 42.5h-165l11 51h220q-6 -28 -13 -62.5t-17 -79.5q-23 -107 -83 -167.5t-171 -60.5q-39 0 -73.5 12.5t-60.5 36t-41.5 57.5t-15.5 76q0 9 0.5 17.5t2.5 21t6 31.5t10.5 50.5t16.5 77.5t24 112q22 106 82.5 167t171.5 61q39 0 73.5 -12.5
t60.5 -36t41.5 -57.5t15.5 -76q0 -8 -0.5 -15.5t-1.5 -12.5h-54zM182 -50h74l-15 -74l-37 -74h-49l37 74h-25z" />
    <glyph glyph-name="Gdotaccent" unicode="&#x120;" horiz-adv-x="566" 
d="M501 500q1 7 1 11.5v9.5q0 34 -11.5 59.5t-31 43t-45.5 26t-55 8.5q-33 0 -63.5 -10t-56 -31t-44 -54.5t-28.5 -80.5q-14 -66 -23.5 -111.5t-16.5 -76t-11 -49.5t-6 -30.5t-2.5 -19t-0.5 -16.5q0 -34 11.5 -59.5t31 -43t45.5 -26t55 -8.5q33 0 63.5 10t56 31t44 54.5
t28.5 80.5q5 26 9.5 48.5t9.5 42.5h-165l11 51h220q-6 -28 -13 -62.5t-17 -79.5q-23 -107 -83 -167.5t-171 -60.5q-39 0 -73.5 12.5t-60.5 36t-41.5 57.5t-15.5 76q0 9 0.5 17.5t2.5 21t6 31.5t10.5 50.5t16.5 77.5t24 112q22 106 82.5 167t171.5 61q39 0 73.5 -12.5
t60.5 -36t41.5 -57.5t15.5 -76q0 -8 -0.5 -15.5t-1.5 -12.5h-54zM419 756h-55l19 87h55z" />
    <glyph glyph-name="Hbar" unicode="&#x126;" horiz-adv-x="612" 
d="M205 563h332l29 137h55l-149 -700h-55l70 329h-332l-70 -329h-55l149 700h55zM527 518h-332l-29 -138h332z" />
    <glyph glyph-name="Hcircumflex" unicode="&#x124;" horiz-adv-x="612" 
d="M566 700h55l-149 -700h-55l70 329h-332l-70 -329h-55l149 700h55l-68 -320h332zM560 745h-67l-66 63l-92 -63h-77l148 109h52z" />
    <glyph glyph-name="Ibreve" unicode="&#x12c;" horiz-adv-x="225" 
d="M85 0h-55l149 700h55zM250 796q12 0 24 5t22.5 13t18 18.5t9.5 21.5h56q-5 -23 -17.5 -42.5t-30.5 -34.5t-40 -23.5t-44 -8.5h-64q-39 0 -64 24.5t-25 61.5q0 11 3 23h48q-1 -4 -1 -12q0 -20 13.5 -33t36.5 -13h55v0z" />
    <glyph glyph-name="Idotaccent" unicode="&#x130;" horiz-adv-x="225" 
d="M85 0h-55l149 700h55zM246 756h-55l19 87h55z" />
    <glyph glyph-name="Imacron" unicode="&#x12a;" horiz-adv-x="225" 
d="M85 0h-55l149 700h55zM79 774l9 47h289l-9 -47h-289z" />
    <glyph glyph-name="Iogonek" unicode="&#x12e;" horiz-adv-x="225" 
d="M85 0h-55l149 700h55zM86 0q-13 -8 -31 -18.5t-34.5 -23.5t-28 -29t-11.5 -35q0 -17 9 -24.5t23 -7.5q11 0 23 3.5t23 8.5l-11 -50q-12 -7 -25 -10t-25 -3q-35 0 -54 21t-19 50q0 46 31 73.5t75 44.5h55z" />
    <glyph glyph-name="Itilde" unicode="&#x128;" horiz-adv-x="225" 
d="M85 0h-55l149 700h55zM177 845q11 0 22 -2.5t23 -9.5l33 -17q8 -4 15 -7t14 -3q27 0 44 37h56q-9 -29 -21.5 -46.5t-26 -26.5t-28 -12t-26.5 -3q-11 0 -22 2.5t-23 9.5l-33 17q-8 4 -15 7t-14 3q-27 0 -44 -37h-56q9 29 21.5 46.5t26 26.5t28 12t26.5 3z" />
    <glyph glyph-name="uni1ECA" unicode="&#x1eca;" horiz-adv-x="225" 
d="M85 0h-55l149 700h55zM56 -136h-55l19 87h55z" />
    <glyph glyph-name="Jcircumflex" unicode="&#x134;" horiz-adv-x="467" 
d="M430 700h55l-111 -523q-9 -44 -24 -78.5t-39 -58.5t-59 -37t-84 -13q-35 0 -65.5 12.5t-53.5 33.5t-36 49.5t-13 60.5q0 9 1.5 22t6.5 32h54q-5 -17 -6 -27.5t-1 -16.5q0 -23 8.5 -44t24.5 -36.5t39.5 -24.5t53.5 -9q32 0 55 10.5t39.5 29t27 43t16.5 52.5zM617 745h-67
l-66 63l-92 -63h-77l148 109h52z" />
    <glyph glyph-name="Kcommaaccent" unicode="&#x136;" horiz-adv-x="597" 
d="M85 0h-55l149 700h55l-86 -406l432 406h74l-308 -289l185 -411h-58l-168 372l-176 -166zM218 -50h74l-15 -74l-37 -74h-49l37 74h-25z" />
    <glyph glyph-name="Lacute" unicode="&#x139;" horiz-adv-x="493" 
d="M97 52h332l-12 -52h-387l149 700h55zM340 854l-128 -109h-58l100 109h86z" />
    <glyph glyph-name="Lcaron" unicode="&#x13d;" horiz-adv-x="493" 
d="M384 542h-51l61 158h79zM97 52h332l-12 -52h-387l149 700h55z" />
    <glyph glyph-name="Lcommaaccent" unicode="&#x13b;" horiz-adv-x="493" 
d="M97 52h332l-12 -52h-387l149 700h55zM176 -50h74l-15 -74l-37 -74h-49l37 74h-25z" />
    <glyph glyph-name="Ldot" unicode="&#x13f;" horiz-adv-x="493" 
d="M97 52h332l-12 -52h-387l149 700h55zM393 335h-55l19 87h55z" />
    <glyph glyph-name="Lslash" unicode="&#x141;" horiz-adv-x="504" 
d="M172 356l186 92l-13 -56l-185 -92l-52 -248h332l-12 -52h-387l57 270l-78 -39l13 56l77 38l80 375h55z" />
    <glyph glyph-name="Eng" unicode="&#x14a;" horiz-adv-x="612" 
d="M213 605l-128 -605h-55l149 700h55l204 -605l128 605h55l-149 -700q-9 -43 -24 -77t-39 -58t-58.5 -36.5t-83.5 -12.5h-54l11 52h56q30 0 53 10.5t39.5 28.5t27.5 42t17 51z" />
    <glyph glyph-name="Nacute" unicode="&#x143;" horiz-adv-x="612" 
d="M472 0h-55l-204 605l-128 -605h-55l149 700h55l204 -605l128 605h55zM533 854l-128 -109h-58l100 109h86z" />
    <glyph glyph-name="Ncaron" unicode="&#x147;" horiz-adv-x="612" 
d="M472 0h-55l-204 605l-128 -605h-55l149 700h55l204 -605l128 605h55zM281 854h67l66 -63l92 63h77l-148 -109h-52z" />
    <glyph glyph-name="Ncommaaccent" unicode="&#x145;" horiz-adv-x="612" 
d="M472 0h-55l-204 605l-128 -605h-55l149 700h55l204 -605l128 605h55zM204 -50h74l-15 -74l-37 -74h-49l37 74h-25z" />
    <glyph glyph-name="OE" unicode="&#x152;" horiz-adv-x="908" 
d="M243 -10q-39 0 -73.5 12.5t-60.5 36t-41.5 57.5t-15.5 76q0 9 0.5 17.5t2.5 21t6 31.5t10.5 50.5t16.5 77.5t24 112q22 106 82.5 167t171.5 61q34 0 61.5 -9.5t47.5 -23.5t32.5 -32t18.5 -34l19 89h387l-11 -52h-332l-57 -268h332l-11 -51h-332l-59 -277h332l-11 -52
h-387l13 59q-30 -38 -74 -53.5t-92 -15.5zM167 482q-14 -66 -23.5 -111.5t-16.5 -76t-11 -49.5t-6 -30.5t-2.5 -19t-0.5 -16.5q0 -34 11.5 -59.5t31 -43t45.5 -26t55 -8.5q33 0 63.5 10t56 31t44 54.5t28.5 80.5q14 66 23.5 111.5t16.5 76t11 49.5t6 30.5t2.5 19t0.5 16.5
q0 34 -11.5 59.5t-31 43t-45.5 26t-55 8.5q-33 0 -63.5 -10t-56 -31t-44 -54.5t-28.5 -80.5z" />
    <glyph glyph-name="Obreve" unicode="&#x14e;" horiz-adv-x="569" 
d="M497 218q-23 -107 -83 -167.5t-171 -60.5q-39 0 -73.5 12.5t-60.5 36t-41.5 57.5t-15.5 76q0 9 0.5 17.5t2.5 21t6 31.5t10.5 50.5t16.5 77.5t24 112q22 106 82.5 167t171.5 61q39 0 73.5 -12.5t60.5 -36t41.5 -57.5t15.5 -76q0 -10 -0.5 -18t-2.5 -20.5t-6 -31.5
t-10.5 -50.5t-16.5 -77.5t-24 -112zM167 482q-14 -66 -23.5 -111.5t-16.5 -76t-11 -49.5t-6 -30.5t-2.5 -19t-0.5 -16.5q0 -34 11.5 -59.5t31 -43t45.5 -26t55 -8.5q33 0 63.5 10t56 31t44 54.5t28.5 80.5q14 66 23.5 111.5t16.5 76t11 49.5t6 30.5t2.5 19t0.5 16.5
q0 34 -11.5 59.5t-31 43t-45.5 26t-55 8.5q-33 0 -63.5 -10t-56 -31t-44 -54.5t-28.5 -80.5zM423 796q12 0 24 5t22.5 13t18 18.5t9.5 21.5h56q-5 -23 -17.5 -42.5t-30.5 -34.5t-40 -23.5t-44 -8.5h-64q-39 0 -64 24.5t-25 61.5q0 11 3 23h48q-1 -4 -1 -12q0 -20 13.5 -33
t36.5 -13h55v0z" />
    <glyph glyph-name="Ohungarumlaut" unicode="&#x150;" horiz-adv-x="569" 
d="M497 218q-23 -107 -83 -167.5t-171 -60.5q-39 0 -73.5 12.5t-60.5 36t-41.5 57.5t-15.5 76q0 9 0.5 17.5t2.5 21t6 31.5t10.5 50.5t16.5 77.5t24 112q22 106 82.5 167t171.5 61q39 0 73.5 -12.5t60.5 -36t41.5 -57.5t15.5 -76q0 -10 -0.5 -18t-2.5 -20.5t-6 -31.5
t-10.5 -50.5t-16.5 -77.5t-24 -112zM167 482q-14 -66 -23.5 -111.5t-16.5 -76t-11 -49.5t-6 -30.5t-2.5 -19t-0.5 -16.5q0 -34 11.5 -59.5t31 -43t45.5 -26t55 -8.5q33 0 63.5 10t56 31t44 54.5t28.5 80.5q14 66 23.5 111.5t16.5 76t11 49.5t6 30.5t2.5 19t0.5 16.5
q0 34 -11.5 59.5t-31 43t-45.5 26t-55 8.5q-33 0 -63.5 -10t-56 -31t-44 -54.5t-28.5 -80.5zM446 854l-118 -109h-53l90 109h81zM610 854l-118 -109h-53l90 109h81z" />
    <glyph glyph-name="Omacron" unicode="&#x14c;" horiz-adv-x="569" 
d="M497 218q-23 -107 -83 -167.5t-171 -60.5q-39 0 -73.5 12.5t-60.5 36t-41.5 57.5t-15.5 76q0 9 0.5 17.5t2.5 21t6 31.5t10.5 50.5t16.5 77.5t24 112q22 106 82.5 167t171.5 61q39 0 73.5 -12.5t60.5 -36t41.5 -57.5t15.5 -76q0 -10 -0.5 -18t-2.5 -20.5t-6 -31.5
t-10.5 -50.5t-16.5 -77.5t-24 -112zM167 482q-14 -66 -23.5 -111.5t-16.5 -76t-11 -49.5t-6 -30.5t-2.5 -19t-0.5 -16.5q0 -34 11.5 -59.5t31 -43t45.5 -26t55 -8.5q33 0 63.5 10t56 31t44 54.5t28.5 80.5q14 66 23.5 111.5t16.5 76t11 49.5t6 30.5t2.5 19t0.5 16.5
q0 34 -11.5 59.5t-31 43t-45.5 26t-55 8.5q-33 0 -63.5 -10t-56 -31t-44 -54.5t-28.5 -80.5zM250 774l9 47h289l-9 -47h-289z" />
    <glyph glyph-name="uni1ECC" unicode="&#x1ecc;" horiz-adv-x="569" 
d="M497 218q-23 -107 -83 -167.5t-171 -60.5q-39 0 -73.5 12.5t-60.5 36t-41.5 57.5t-15.5 76q0 9 0.5 17.5t2.5 21t6 31.5t10.5 50.5t16.5 77.5t24 112q22 106 82.5 167t171.5 61q39 0 73.5 -12.5t60.5 -36t41.5 -57.5t15.5 -76q0 -10 -0.5 -18t-2.5 -20.5t-6 -31.5
t-10.5 -50.5t-16.5 -77.5t-24 -112zM167 482q-14 -66 -23.5 -111.5t-16.5 -76t-11 -49.5t-6 -30.5t-2.5 -19t-0.5 -16.5q0 -34 11.5 -59.5t31 -43t45.5 -26t55 -8.5q33 0 63.5 10t56 31t44 54.5t28.5 80.5q14 66 23.5 111.5t16.5 76t11 49.5t6 30.5t2.5 19t0.5 16.5
q0 34 -11.5 59.5t-31 43t-45.5 26t-55 8.5q-33 0 -63.5 -10t-56 -31t-44 -54.5t-28.5 -80.5zM228 -136h-55l19 87h55z" />
    <glyph glyph-name="Racute" unicode="&#x154;" horiz-adv-x="572" 
d="M155 329l-70 -329h-55l149 700h226q39 0 70 -12t53 -33t33.5 -49.5t11.5 -61.5q0 -50 -17 -88.5t-46 -65.5t-68 -42.5t-83 -18.5l124 -329h-58l-123 329h-147zM349 380q36 1 67 13t53.5 32.5t35.5 49t13 63.5q0 51 -32.5 80.5t-92.5 29.5h-170l-57 -268h183zM493 854
l-128 -109h-58l100 109h86z" />
    <glyph glyph-name="Rcaron" unicode="&#x158;" horiz-adv-x="572" 
d="M155 329l-70 -329h-55l149 700h226q39 0 70 -12t53 -33t33.5 -49.5t11.5 -61.5q0 -50 -17 -88.5t-46 -65.5t-68 -42.5t-83 -18.5l124 -329h-58l-123 329h-147zM349 380q36 1 67 13t53.5 32.5t35.5 49t13 63.5q0 51 -32.5 80.5t-92.5 29.5h-170l-57 -268h183zM246 854h67
l66 -63l92 63h77l-148 -109h-52z" />
    <glyph glyph-name="Rcommaaccent" unicode="&#x156;" horiz-adv-x="572" 
d="M155 329l-70 -329h-55l149 700h226q39 0 70 -12t53 -33t33.5 -49.5t11.5 -61.5q0 -50 -17 -88.5t-46 -65.5t-68 -42.5t-83 -18.5l124 -329h-58l-123 329h-147zM349 380q36 1 67 13t53.5 32.5t35.5 49t13 63.5q0 51 -32.5 80.5t-92.5 29.5h-170l-57 -268h183zM195 -50h74
l-15 -74l-37 -74h-49l37 74h-25z" />
    <glyph glyph-name="Sacute" unicode="&#x15a;" horiz-adv-x="515" 
d="M446 523v4q0 32 -11.5 56.5t-30 41t-42.5 25t-49 8.5q-73 0 -114.5 -38t-41.5 -100q0 -42 17.5 -75.5t63.5 -50.5l104 -39q54 -20 82.5 -63.5t28.5 -97.5q0 -41 -13 -78t-39.5 -65t-68 -44.5t-98.5 -16.5q-39 0 -76.5 11.5t-67 35t-47 59.5t-17.5 84v10t1 10h55
q-1 -5 -1 -8.5v-8.5q0 -40 14.5 -67t37.5 -43.5t52 -23.5t58 -7q31 0 59.5 9.5t49.5 27.5t33.5 45.5t12.5 63.5q0 35 -18.5 68t-59.5 48l-104 39q-31 12 -52.5 30t-35 40t-20 47t-6.5 51q0 49 15.5 86t44 62t67.5 38t87 13q39 0 72.5 -13.5t59 -37t40 -55.5t14.5 -70v-4.5
t-1 -6.5h-55zM476 854l-128 -109h-58l100 109h86z" />
    <glyph glyph-name="Scaron" unicode="&#x160;" horiz-adv-x="515" 
d="M446 523v4q0 32 -11.5 56.5t-30 41t-42.5 25t-49 8.5q-73 0 -114.5 -38t-41.5 -100q0 -42 17.5 -75.5t63.5 -50.5l104 -39q54 -20 82.5 -63.5t28.5 -97.5q0 -41 -13 -78t-39.5 -65t-68 -44.5t-98.5 -16.5q-39 0 -76.5 11.5t-67 35t-47 59.5t-17.5 84v10t1 10h55
q-1 -5 -1 -8.5v-8.5q0 -40 14.5 -67t37.5 -43.5t52 -23.5t58 -7q31 0 59.5 9.5t49.5 27.5t33.5 45.5t12.5 63.5q0 35 -18.5 68t-59.5 48l-104 39q-31 12 -52.5 30t-35 40t-20 47t-6.5 51q0 49 15.5 86t44 62t67.5 38t87 13q39 0 72.5 -13.5t59 -37t40 -55.5t14.5 -70v-4.5
t-1 -6.5h-55zM224 854h67l66 -63l92 63h77l-148 -109h-52z" />
    <glyph glyph-name="Scedilla" unicode="&#x15e;" horiz-adv-x="515" 
d="M446 523v4q0 32 -11.5 56.5t-30 41t-42.5 25t-49 8.5q-73 0 -114.5 -38t-41.5 -100q0 -42 17.5 -75.5t63.5 -50.5l104 -39q54 -20 82.5 -63.5t28.5 -97.5q0 -41 -13 -78t-39.5 -65t-68 -44.5t-98.5 -16.5q-39 0 -76.5 11.5t-67 35t-47 59.5t-17.5 84v10t1 10h55
q-1 -5 -1 -8.5v-8.5q0 -40 14.5 -67t37.5 -43.5t52 -23.5t58 -7q31 0 59.5 9.5t49.5 27.5t33.5 45.5t12.5 63.5q0 35 -18.5 68t-59.5 48l-104 39q-31 12 -52.5 30t-35 40t-20 47t-6.5 51q0 49 15.5 86t44 62t67.5 38t87 13q39 0 72.5 -13.5t59 -37t40 -55.5t14.5 -70v-4.5
t-1 -6.5h-55zM214 0h56l-38 -158h-71z" />
    <glyph glyph-name="Scircumflex" unicode="&#x15c;" horiz-adv-x="515" 
d="M446 523v4q0 32 -11.5 56.5t-30 41t-42.5 25t-49 8.5q-73 0 -114.5 -38t-41.5 -100q0 -42 17.5 -75.5t63.5 -50.5l104 -39q54 -20 82.5 -63.5t28.5 -97.5q0 -41 -13 -78t-39.5 -65t-68 -44.5t-98.5 -16.5q-39 0 -76.5 11.5t-67 35t-47 59.5t-17.5 84v10t1 10h55
q-1 -5 -1 -8.5v-8.5q0 -40 14.5 -67t37.5 -43.5t52 -23.5t58 -7q31 0 59.5 9.5t49.5 27.5t33.5 45.5t12.5 63.5q0 35 -18.5 68t-59.5 48l-104 39q-31 12 -52.5 30t-35 40t-20 47t-6.5 51q0 49 15.5 86t44 62t67.5 38t87 13q39 0 72.5 -13.5t59 -37t40 -55.5t14.5 -70v-4.5
t-1 -6.5h-55zM503 745h-67l-66 63l-92 -63h-77l148 109h52z" />
    <glyph glyph-name="Scommaaccent" unicode="&#x218;" horiz-adv-x="515" 
d="M446 523v4q0 32 -11.5 56.5t-30 41t-42.5 25t-49 8.5q-73 0 -114.5 -38t-41.5 -100q0 -42 17.5 -75.5t63.5 -50.5l104 -39q54 -20 82.5 -63.5t28.5 -97.5q0 -41 -13 -78t-39.5 -65t-68 -44.5t-98.5 -16.5q-39 0 -76.5 11.5t-67 35t-47 59.5t-17.5 84v10t1 10h55
q-1 -5 -1 -8.5v-8.5q0 -40 14.5 -67t37.5 -43.5t52 -23.5t58 -7q31 0 59.5 9.5t49.5 27.5t33.5 45.5t12.5 63.5q0 35 -18.5 68t-59.5 48l-104 39q-31 12 -52.5 30t-35 40t-20 47t-6.5 51q0 49 15.5 86t44 62t67.5 38t87 13q39 0 72.5 -13.5t59 -37t40 -55.5t14.5 -70v-4.5
t-1 -6.5h-55zM165 -50h74l-15 -74l-37 -74h-49l37 74h-25z" />
    <glyph glyph-name="Tbar" unicode="&#x166;" horiz-adv-x="481" 
d="M292 373h124l-9 -45h-124l-70 -328h-55l70 328h-124l9 45h124l59 275h-194l11 52h443l-11 -52h-194z" />
    <glyph glyph-name="Tcaron" unicode="&#x164;" horiz-adv-x="481" 
d="M213 0h-55l138 648h-194l11 52h443l-11 -52h-194zM215 854h67l66 -63l92 63h77l-148 -109h-52z" />
    <glyph glyph-name="uni0162" unicode="&#x162;" horiz-adv-x="481" 
d="M213 0h-55l138 648h-194l11 52h443l-11 -52h-194zM138 -50h74l-15 -74l-37 -74h-49l37 74h-25z" />
    <glyph glyph-name="Tcommaaccent" unicode="&#x21a;" horiz-adv-x="481" 
d="M213 0h-55l138 648h-194l11 52h443l-11 -52h-194zM138 -50h74l-15 -74l-37 -74h-49l37 74h-25z" />
    <glyph glyph-name="Ubreve" unicode="&#x16c;" horiz-adv-x="594" 
d="M119 179q0 -34 11.5 -59.5t31 -43t45.5 -26t55 -8.5q33 0 63.5 10t55.5 31t44 54.5t29 80.5l103 482h55l-103 -482q-23 -107 -83 -167.5t-171 -60.5q-39 0 -73.5 12.5t-61 36t-42 57.5t-15.5 76q0 9 1 18.5t4.5 28t10 50.5t18.5 87.5t30 139t44 204.5h55
q-26 -120 -44 -203t-29.5 -138t-18.5 -86.5t-10 -49.5t-4 -26.5t-1 -17.5zM435 796q12 0 24 5t22.5 13t18 18.5t9.5 21.5h56q-5 -23 -17.5 -42.5t-30.5 -34.5t-40 -23.5t-44 -8.5h-64q-39 0 -64 24.5t-25 61.5q0 11 3 23h48q-1 -4 -1 -12q0 -20 13.5 -33t36.5 -13h55v0z" />
    <glyph glyph-name="Uhungarumlaut" unicode="&#x170;" horiz-adv-x="594" 
d="M119 179q0 -34 11.5 -59.5t31 -43t45.5 -26t55 -8.5q33 0 63.5 10t55.5 31t44 54.5t29 80.5l103 482h55l-103 -482q-23 -107 -83 -167.5t-171 -60.5q-39 0 -73.5 12.5t-61 36t-42 57.5t-15.5 76q0 9 1 18.5t4.5 28t10 50.5t18.5 87.5t30 139t44 204.5h55
q-26 -120 -44 -203t-29.5 -138t-18.5 -86.5t-10 -49.5t-4 -26.5t-1 -17.5zM444 854l-118 -109h-53l90 109h81zM608 854l-118 -109h-53l90 109h81z" />
    <glyph glyph-name="Umacron" unicode="&#x16a;" horiz-adv-x="594" 
d="M119 179q0 -34 11.5 -59.5t31 -43t45.5 -26t55 -8.5q33 0 63.5 10t55.5 31t44 54.5t29 80.5l103 482h55l-103 -482q-23 -107 -83 -167.5t-171 -60.5q-39 0 -73.5 12.5t-61 36t-42 57.5t-15.5 76q0 9 1 18.5t4.5 28t10 50.5t18.5 87.5t30 139t44 204.5h55
q-26 -120 -44 -203t-29.5 -138t-18.5 -86.5t-10 -49.5t-4 -26.5t-1 -17.5zM263 774l9 47h289l-9 -47h-289z" />
    <glyph glyph-name="Uogonek" unicode="&#x172;" horiz-adv-x="594" 
d="M119 179q0 -34 11.5 -59.5t31 -43t45.5 -26t55 -8.5q33 0 63.5 10t55.5 31t44 54.5t29 80.5l103 482h55l-103 -482q-15 -70 -44.5 -120t-81.5 -79q-14 -8 -37 -19.5t-45 -27t-38 -35t-16 -43.5q0 -17 9 -24.5t23 -7.5q11 0 23 3.5t23 8.5l-11 -50q-12 -7 -25 -10t-25 -3
q-35 0 -54 21t-19 50q0 40 24 66t59 43q-5 -1 -9.5 -1h-9.5q-39 0 -73.5 12.5t-61 36t-42 57.5t-15.5 76q0 9 1 18.5t4.5 28t10 50.5t18.5 87.5t30 139t44 204.5h55q-26 -120 -44 -203t-29.5 -138t-18.5 -86.5t-10 -49.5t-4 -26.5t-1 -17.5z" />
    <glyph glyph-name="Uring" unicode="&#x16e;" horiz-adv-x="594" 
d="M119 179q0 -34 11.5 -59.5t31 -43t45.5 -26t55 -8.5q33 0 63.5 10t55.5 31t44 54.5t29 80.5l103 482h55l-103 -482q-23 -107 -83 -167.5t-171 -60.5q-39 0 -73.5 12.5t-61 36t-42 57.5t-15.5 76q0 9 1 18.5t4.5 28t10 50.5t18.5 87.5t30 139t44 204.5h55
q-26 -120 -44 -203t-29.5 -138t-18.5 -86.5t-10 -49.5t-4 -26.5t-1 -17.5zM329 799q0 31 21.5 53t52.5 22t53 -22t22 -53t-22 -52.5t-53 -21.5t-52.5 21.5t-21.5 52.5zM374 799q0 -12 8.5 -20.5t20.5 -8.5t21 8.5t9 20.5t-9 21t-21 9t-20.5 -9t-8.5 -21z" />
    <glyph glyph-name="Utilde" unicode="&#x168;" horiz-adv-x="594" 
d="M119 179q0 -34 11.5 -59.5t31 -43t45.5 -26t55 -8.5q33 0 63.5 10t55.5 31t44 54.5t29 80.5l103 482h55l-103 -482q-23 -107 -83 -167.5t-171 -60.5q-39 0 -73.5 12.5t-61 36t-42 57.5t-15.5 76q0 9 1 18.5t4.5 28t10 50.5t18.5 87.5t30 139t44 204.5h55
q-26 -120 -44 -203t-29.5 -138t-18.5 -86.5t-10 -49.5t-4 -26.5t-1 -17.5zM361 845q11 0 22 -2.5t23 -9.5l33 -17q8 -4 15 -7t14 -3q27 0 44 37h56q-9 -29 -21.5 -46.5t-26 -26.5t-28 -12t-26.5 -3q-11 0 -22 2.5t-23 9.5l-33 17q-8 4 -15 7t-14 3q-27 0 -44 -37h-56
q9 29 21.5 46.5t26 26.5t28 12t26.5 3z" />
    <glyph glyph-name="uni1EE4" unicode="&#x1ee4;" horiz-adv-x="594" 
d="M119 179q0 -34 11.5 -59.5t31 -43t45.5 -26t55 -8.5q33 0 63.5 10t55.5 31t44 54.5t29 80.5l103 482h55l-103 -482q-23 -107 -83 -167.5t-171 -60.5q-39 0 -73.5 12.5t-61 36t-42 57.5t-15.5 76q0 9 1 18.5t4.5 28t10 50.5t18.5 87.5t30 139t44 204.5h55
q-26 -120 -44 -203t-29.5 -138t-18.5 -86.5t-10 -49.5t-4 -26.5t-1 -17.5zM240 -136h-55l19 87h55z" />
    <glyph glyph-name="Wacute" unicode="&#x1e82;" horiz-adv-x="715" 
d="M411 509l-252 -509h-53l20 700h53l-17 -579l237 479h57l33 -485l232 585h57l-278 -700h-53zM585 854l-128 -109h-58l100 109h86z" />
    <glyph glyph-name="Wcircumflex" unicode="&#x174;" horiz-adv-x="715" 
d="M411 509l-252 -509h-53l20 700h53l-17 -579l237 479h57l33 -485l232 585h57l-278 -700h-53zM612 745h-67l-66 63l-92 -63h-77l148 109h52z" />
    <glyph glyph-name="Wdieresis" unicode="&#x1e84;" horiz-adv-x="715" 
d="M411 509l-252 -509h-53l20 700h53l-17 -579l237 479h57l33 -485l232 585h57l-278 -700h-53zM386 756h-55l19 87h55zM597 756h-55l19 87h55z" />
    <glyph glyph-name="Wgrave" unicode="&#x1e80;" horiz-adv-x="715" 
d="M411 509l-252 -509h-53l20 700h53l-17 -579l237 479h57l33 -485l232 585h57l-278 -700h-53zM429 854l77 -109h-53l-105 109h81z" />
    <glyph glyph-name="Ycircumflex" unicode="&#x176;" horiz-adv-x="543" 
d="M306 291l-62 -291h-55l62 291l-149 409h56l129 -350l275 350h67zM525 745h-67l-66 63l-92 -63h-77l148 109h52z" />
    <glyph glyph-name="Ydieresis" unicode="&#x178;" horiz-adv-x="543" 
d="M306 291l-62 -291h-55l62 291l-149 409h56l129 -350l275 350h67zM299 756h-55l19 87h55zM510 756h-55l19 87h55z" />
    <glyph glyph-name="Ygrave" unicode="&#x1ef2;" horiz-adv-x="543" 
d="M306 291l-62 -291h-55l62 291l-149 409h56l129 -350l275 350h67zM342 854l77 -109h-53l-105 109h81z" />
    <glyph glyph-name="uni0232" unicode="&#x232;" horiz-adv-x="543" 
d="M306 291l-62 -291h-55l62 291l-149 409h56l129 -350l275 350h67zM237 774l9 47h289l-9 -47h-289z" />
    <glyph glyph-name="Zacute" unicode="&#x179;" horiz-adv-x="537" 
d="M-9 0l11 52l500 596h-369l11 52h437l-11 -52l-500 -596h378l-11 -52h-446zM495 854l-128 -109h-58l100 109h86z" />
    <glyph glyph-name="Zcaron" unicode="&#x17d;" horiz-adv-x="537" 
d="M-9 0l11 52l500 596h-369l11 52h437l-11 -52l-500 -596h378l-11 -52h-446zM243 854h67l66 -63l92 63h77l-148 -109h-52z" />
    <glyph glyph-name="Zdotaccent" unicode="&#x17b;" horiz-adv-x="537" 
d="M-9 0l11 52l500 596h-369l11 52h437l-11 -52l-500 -596h378l-11 -52h-446zM402 756h-55l19 87h55z" />
    <glyph glyph-name="abreve" unicode="&#x103;" horiz-adv-x="527" 
d="M81 360q26 90 85 130t139 40q28 0 58 -8.5t54.5 -27.5t40 -48.5t15.5 -71.5q0 -11 -0.5 -20t-4 -27t-10.5 -50t-19 -90l-40 -187h-53l15 66q-24 -34 -65.5 -55t-101.5 -21q-37 0 -67 11t-51.5 30t-33 44.5t-11.5 53.5q0 66 32 105t93 56q25 7 56 12t64.5 8t69 5t68.5 4
q5 20 6 29.5t1 19.5q0 52 -31.5 82t-93.5 30q-54 0 -98 -31.5t-64 -88.5h-53zM404 271q-87 -4 -149.5 -11.5t-94.5 -18.5q-40 -14 -58 -43.5t-18 -64.5q0 -37 28.5 -65t92.5 -28q34 0 64.5 11t54 31t40 48t23.5 62zM348 620q13 0 27.5 6.5t28 17t24 25t13.5 31.5h54
q-6 -27 -21 -50.5t-36 -41t-46.5 -27.5t-52.5 -10h-24q-47 0 -76 29.5t-29 73.5q0 12 3 26h46q-1 -5 -1.5 -9t-0.5 -9q0 -27 17.5 -44.5t50.5 -17.5h23z" />
    <glyph glyph-name="amacron" unicode="&#x101;" horiz-adv-x="527" 
d="M81 360q26 90 85 130t139 40q28 0 58 -8.5t54.5 -27.5t40 -48.5t15.5 -71.5q0 -11 -0.5 -20t-4 -27t-10.5 -50t-19 -90l-40 -187h-53l15 66q-24 -34 -65.5 -55t-101.5 -21q-37 0 -67 11t-51.5 30t-33 44.5t-11.5 53.5q0 66 32 105t93 56q25 7 56 12t64.5 8t69 5t68.5 4
q5 20 6 29.5t1 19.5q0 52 -31.5 82t-93.5 30q-54 0 -98 -31.5t-64 -88.5h-53zM404 271q-87 -4 -149.5 -11.5t-94.5 -18.5q-40 -14 -58 -43.5t-18 -64.5q0 -37 28.5 -65t92.5 -28q34 0 64.5 11t54 31t40 48t23.5 62zM192 613l9 45h289l-9 -45h-289z" />
    <glyph glyph-name="aogonek" unicode="&#x105;" horiz-adv-x="527" 
d="M81 360q26 90 85 130t139 40q28 0 58 -8.5t54.5 -27.5t40 -48.5t15.5 -71.5q0 -11 -0.5 -20t-4 -27t-10.5 -50t-19 -90l-40 -187h-53l15 66q-24 -34 -65.5 -55t-101.5 -21q-37 0 -67 11t-51.5 30t-33 44.5t-11.5 53.5q0 66 32 105t93 56q25 7 56 12t64.5 8t69 5t68.5 4
q5 20 6 29.5t1 19.5q0 52 -31.5 82t-93.5 30q-54 0 -98 -31.5t-64 -88.5h-53zM404 271q-87 -4 -149.5 -11.5t-94.5 -18.5q-40 -14 -58 -43.5t-18 -64.5q0 -37 28.5 -65t92.5 -28q34 0 64.5 11t54 31t40 48t23.5 62zM399 0q-14 -8 -32.5 -19.5t-34.5 -25t-27 -29t-11 -32.5
t10.5 -25.5t25.5 -8.5q10 0 20.5 3.5t20.5 8.5l-10 -48q-12 -7 -25 -10t-25 -3q-35 0 -53.5 22t-18.5 51q0 42 32 71.5t75 44.5h53z" />
    <glyph glyph-name="cacute" unicode="&#x107;" horiz-adv-x="516" 
d="M481 360h-52v8q0 52 -31.5 82t-93.5 30q-60 0 -107 -38.5t-62 -108.5q-12 -56 -19 -88t-10.5 -49.5t-4.5 -26t-1 -17.5q0 -52 31.5 -82t93.5 -30q54 0 98 31.5t64 88.5h53q-26 -90 -85 -130t-139 -40q-29 0 -58.5 8.5t-54 27.5t-40 48.5t-15.5 71.5q0 11 0.5 20t4 27
t10.5 50t19 90q22 105 83.5 151t147.5 46q28 0 58 -8.5t54.5 -27.5t40 -48.5t15.5 -71.5v-14zM443 700l-118 -129h-51l85 129h84z" />
    <glyph glyph-name="ccaron" unicode="&#x10d;" horiz-adv-x="516" 
d="M481 360h-52v8q0 52 -31.5 82t-93.5 30q-60 0 -107 -38.5t-62 -108.5q-12 -56 -19 -88t-10.5 -49.5t-4.5 -26t-1 -17.5q0 -52 31.5 -82t93.5 -30q54 0 98 31.5t64 88.5h53q-26 -90 -85 -130t-139 -40q-29 0 -58.5 8.5t-54 27.5t-40 48.5t-15.5 71.5q0 11 0.5 20t4 27
t10.5 50t19 90q22 105 83.5 151t147.5 46q28 0 58 -8.5t54.5 -27.5t40 -48.5t15.5 -71.5v-14zM335 617l104 83h69l-152 -129h-52l-98 129h59z" />
    <glyph glyph-name="ccircumflex" unicode="&#x109;" horiz-adv-x="516" 
d="M481 360h-52v8q0 52 -31.5 82t-93.5 30q-60 0 -107 -38.5t-62 -108.5q-12 -56 -19 -88t-10.5 -49.5t-4.5 -26t-1 -17.5q0 -52 31.5 -82t93.5 -30q54 0 98 31.5t64 88.5h53q-26 -90 -85 -130t-139 -40q-29 0 -58.5 8.5t-54 27.5t-40 48.5t-15.5 71.5q0 11 0.5 20t4 27
t10.5 50t19 90q22 105 83.5 151t147.5 46q28 0 58 -8.5t54.5 -27.5t40 -48.5t15.5 -71.5v-14zM352 654l-104 -83h-69l152 129h52l98 -129h-59z" />
    <glyph glyph-name="cdotaccent" unicode="&#x10b;" horiz-adv-x="516" 
d="M481 360h-52v8q0 52 -31.5 82t-93.5 30q-60 0 -107 -38.5t-62 -108.5q-12 -56 -19 -88t-10.5 -49.5t-4.5 -26t-1 -17.5q0 -52 31.5 -82t93.5 -30q54 0 98 31.5t64 88.5h53q-26 -90 -85 -130t-139 -40q-29 0 -58.5 8.5t-54 27.5t-40 48.5t-15.5 71.5q0 11 0.5 20t4 27
t10.5 50t19 90q22 105 83.5 151t147.5 46q28 0 58 -8.5t54.5 -27.5t40 -48.5t15.5 -71.5v-14zM361 592h-53l19 87h53z" />
    <glyph glyph-name="dcaron" unicode="&#x10f;" horiz-adv-x="542" 
d="M598 542h-46l61 158h79zM225 40q60 0 107 38.5t62 108.5q12 56 19 88t10.5 49.5t4.5 26t1 17.5q0 52 -31.5 82t-93.5 30q-60 0 -107 -38.5t-62 -108.5q-12 -56 -19 -88t-10.5 -49.5t-4.5 -26t-1 -17.5q0 -52 31.5 -82t93.5 -30zM368 63q-20 -30 -58.5 -51.5t-93.5 -21.5
q-29 0 -58.5 8.5t-54 27.5t-40 48.5t-15.5 71.5q0 11 0.5 20t4 27t10.5 50t19 90q22 105 83.5 151t147.5 46q29 0 52 -8t40.5 -20t28.5 -27t16 -28l53 253h53l-149 -700h-53z" />
    <glyph glyph-name="dcroat" unicode="&#x111;" horiz-adv-x="542" 
d="M368 63q-20 -30 -58.5 -51.5t-93.5 -21.5q-29 0 -58.5 8.5t-54 27.5t-40 48.5t-15.5 71.5q0 11 0.5 20t4 27t10.5 50t19 90q22 105 83.5 151t147.5 46q29 0 52 -8t40.5 -20t28.5 -27t16 -28l30 144h-146l9 43h146l14 66h53l-14 -66h69l-9 -43h-69l-126 -591h-53zM225 40
q60 0 107 38.5t62 108.5q12 56 19 88t10.5 49.5t4.5 26t1 17.5q0 52 -31.5 82t-93.5 30q-60 0 -107 -38.5t-62 -108.5q-12 -56 -19 -88t-10.5 -49.5t-4.5 -26t-1 -17.5q0 -52 31.5 -82t93.5 -30z" />
    <glyph glyph-name="ebreve" unicode="&#x115;" horiz-adv-x="523" 
d="M118 253q-6 -27 -9.5 -43.5t-5.5 -27t-2.5 -17t-0.5 -13.5q0 -52 31.5 -82t93.5 -30q54 0 97.5 31.5t63.5 88.5h54q-26 -90 -85 -130t-139 -40q-29 0 -58.5 8.5t-54 27.5t-40 48.5t-15.5 71.5q0 11 0.5 20t4 27t10.5 50t19 90q22 105 83.5 151t147.5 46q28 0 58 -8.5
t54.5 -27.5t40 -48.5t15.5 -71.5q0 -9 -0.5 -16.5t-2.5 -19.5t-6 -31.5t-11 -53.5h-343zM419 303l5 25t3 17t1.5 12t0.5 11q0 52 -31.5 82t-93.5 30q-35 0 -64.5 -12.5t-52.5 -35.5t-38 -55.5t-20 -73.5h290zM352 620q13 0 27.5 6.5t28 17t24 25t13.5 31.5h54
q-6 -27 -21 -50.5t-36 -41t-46.5 -27.5t-52.5 -10h-24q-47 0 -76 29.5t-29 73.5q0 12 3 26h46q-1 -5 -1.5 -9t-0.5 -9q0 -27 17.5 -44.5t50.5 -17.5h23z" />
    <glyph glyph-name="ecaron" unicode="&#x11b;" horiz-adv-x="523" 
d="M118 253q-6 -27 -9.5 -43.5t-5.5 -27t-2.5 -17t-0.5 -13.5q0 -52 31.5 -82t93.5 -30q54 0 97.5 31.5t63.5 88.5h54q-26 -90 -85 -130t-139 -40q-29 0 -58.5 8.5t-54 27.5t-40 48.5t-15.5 71.5q0 11 0.5 20t4 27t10.5 50t19 90q22 105 83.5 151t147.5 46q28 0 58 -8.5
t54.5 -27.5t40 -48.5t15.5 -71.5q0 -9 -0.5 -16.5t-2.5 -19.5t-6 -31.5t-11 -53.5h-343zM419 303l5 25t3 17t1.5 12t0.5 11q0 52 -31.5 82t-93.5 30q-35 0 -64.5 -12.5t-52.5 -35.5t-38 -55.5t-20 -73.5h290zM336 617l104 83h69l-152 -129h-52l-98 129h59z" />
    <glyph glyph-name="emacron" unicode="&#x113;" horiz-adv-x="523" 
d="M118 253q-6 -27 -9.5 -43.5t-5.5 -27t-2.5 -17t-0.5 -13.5q0 -52 31.5 -82t93.5 -30q54 0 97.5 31.5t63.5 88.5h54q-26 -90 -85 -130t-139 -40q-29 0 -58.5 8.5t-54 27.5t-40 48.5t-15.5 71.5q0 11 0.5 20t4 27t10.5 50t19 90q22 105 83.5 151t147.5 46q28 0 58 -8.5
t54.5 -27.5t40 -48.5t15.5 -71.5q0 -9 -0.5 -16.5t-2.5 -19.5t-6 -31.5t-11 -53.5h-343zM419 303l5 25t3 17t1.5 12t0.5 11q0 52 -31.5 82t-93.5 30q-35 0 -64.5 -12.5t-52.5 -35.5t-38 -55.5t-20 -73.5h290zM196 613l9 45h289l-9 -45h-289z" />
    <glyph glyph-name="eogonek" unicode="&#x119;" horiz-adv-x="523" 
d="M336 18q-14 -8 -36.5 -20.5t-44.5 -28.5t-37.5 -35t-15.5 -40q0 -17 10.5 -25.5t25.5 -8.5q10 0 20.5 3.5t20.5 8.5l-10 -48q-12 -7 -25 -10t-25 -3q-35 0 -53.5 22t-18.5 51q0 37 24.5 63.5t59.5 43.5q-7 -1 -10 -1h-5q-29 0 -58.5 8.5t-54 27.5t-40 48.5t-15.5 71.5
q0 11 0.5 20t4 27t10.5 50t19 90q22 105 83.5 151t147.5 46q28 0 58 -8.5t54.5 -27.5t40 -48.5t15.5 -71.5q0 -9 -0.5 -16.5t-2.5 -19.5t-6 -31.5t-11 -53.5h-343q-6 -27 -9.5 -43.5t-5.5 -27t-2.5 -17t-0.5 -13.5q0 -52 31.5 -82t93.5 -30q54 0 97.5 31.5t63.5 88.5h54
q-16 -53 -41.5 -87t-62.5 -55zM419 303l5 25t3 17t1.5 12t0.5 11q0 52 -31.5 82t-93.5 30q-35 0 -64.5 -12.5t-52.5 -35.5t-38 -55.5t-20 -73.5h290z" />
    <glyph glyph-name="edotaccent" unicode="&#x117;" horiz-adv-x="523" 
d="M118 253q-6 -27 -9.5 -43.5t-5.5 -27t-2.5 -17t-0.5 -13.5q0 -52 31.5 -82t93.5 -30q54 0 97.5 31.5t63.5 88.5h54q-26 -90 -85 -130t-139 -40q-29 0 -58.5 8.5t-54 27.5t-40 48.5t-15.5 71.5q0 11 0.5 20t4 27t10.5 50t19 90q22 105 83.5 151t147.5 46q28 0 58 -8.5
t54.5 -27.5t40 -48.5t15.5 -71.5q0 -9 -0.5 -16.5t-2.5 -19.5t-6 -31.5t-11 -53.5h-343zM419 303l5 25t3 17t1.5 12t0.5 11q0 52 -31.5 82t-93.5 30q-35 0 -64.5 -12.5t-52.5 -35.5t-38 -55.5t-20 -73.5h290zM362 592h-53l19 87h53z" />
    <glyph glyph-name="gbreve" unicode="&#x11f;" horiz-adv-x="541" 
d="M60 -32q0 -52 31.5 -82t93.5 -30q60 0 107 38.5t62 108.5l16 74q-20 -30 -58.5 -51.5t-93.5 -21.5q-29 0 -58.5 8.5t-54 27.5t-40 48.5t-15.5 71.5q0 10 1.5 22t5 30.5t9.5 47.5t15 73q22 105 83.5 151t147.5 46q29 0 52 -8t40.5 -20t28.5 -27t16 -28l14 69h53l-109 -513
q-23 -105 -84 -151t-147 -46q-29 0 -58.5 8.5t-54 27.5t-40 48.5t-15.5 71.5v14h52v-8zM227 54q60 0 106 38.5t63 108.5q10 42 16.5 71.5t10 49t4.5 30.5t1 16q0 52 -31.5 82t-93.5 30q-60 0 -107 -38.5t-62 -108.5q-8 -38 -14 -65.5t-10 -47t-6 -32.5t-2 -22
q0 -52 31.5 -82t93.5 -30zM352 620q13 0 27.5 6.5t28 17t24 25t13.5 31.5h54q-6 -27 -21 -50.5t-36 -41t-46.5 -27.5t-52.5 -10h-24q-47 0 -76 29.5t-29 73.5q0 12 3 26h46q-1 -5 -1.5 -9t-0.5 -9q0 -27 17.5 -44.5t50.5 -17.5h23z" />
    <glyph glyph-name="gcircumflex" unicode="&#x11d;" horiz-adv-x="541" 
d="M60 -32q0 -52 31.5 -82t93.5 -30q60 0 107 38.5t62 108.5l16 74q-20 -30 -58.5 -51.5t-93.5 -21.5q-29 0 -58.5 8.5t-54 27.5t-40 48.5t-15.5 71.5q0 10 1.5 22t5 30.5t9.5 47.5t15 73q22 105 83.5 151t147.5 46q29 0 52 -8t40.5 -20t28.5 -27t16 -28l14 69h53l-109 -513
q-23 -105 -84 -151t-147 -46q-29 0 -58.5 8.5t-54 27.5t-40 48.5t-15.5 71.5v14h52v-8zM227 54q60 0 106 38.5t63 108.5q10 42 16.5 71.5t10 49t4.5 30.5t1 16q0 52 -31.5 82t-93.5 30q-60 0 -107 -38.5t-62 -108.5q-8 -38 -14 -65.5t-10 -47t-6 -32.5t-2 -22
q0 -52 31.5 -82t93.5 -30zM352 654l-104 -83h-69l152 129h52l98 -129h-59z" />
    <glyph glyph-name="gcommaaccent" unicode="&#x123;" horiz-adv-x="541" 
d="M60 -32q0 -52 31.5 -82t93.5 -30q60 0 107 38.5t62 108.5l16 74q-20 -30 -58.5 -51.5t-93.5 -21.5q-29 0 -58.5 8.5t-54 27.5t-40 48.5t-15.5 71.5q0 10 1.5 22t5 30.5t9.5 47.5t15 73q22 105 83.5 151t147.5 46q29 0 52 -8t40.5 -20t28.5 -27t16 -28l14 69h53l-109 -513
q-23 -105 -84 -151t-147 -46q-29 0 -58.5 8.5t-54 27.5t-40 48.5t-15.5 71.5v14h52v-8zM227 54q60 0 106 38.5t63 108.5q10 42 16.5 71.5t10 49t4.5 30.5t1 16q0 52 -31.5 82t-93.5 30q-60 0 -107 -38.5t-62 -108.5q-8 -38 -14 -65.5t-10 -47t-6 -32.5t-2 -22
q0 -52 31.5 -82t93.5 -30zM366.978 570.965h-73.9951l14.999 73.9961l36.9971 73.9951h48.9971l-36.9971 -73.9951h24.998z" />
    <glyph glyph-name="gdotaccent" unicode="&#x121;" horiz-adv-x="541" 
d="M60 -32q0 -52 31.5 -82t93.5 -30q60 0 107 38.5t62 108.5l16 74q-20 -30 -58.5 -51.5t-93.5 -21.5q-29 0 -58.5 8.5t-54 27.5t-40 48.5t-15.5 71.5q0 10 1.5 22t5 30.5t9.5 47.5t15 73q22 105 83.5 151t147.5 46q29 0 52 -8t40.5 -20t28.5 -27t16 -28l14 69h53l-109 -513
q-23 -105 -84 -151t-147 -46q-29 0 -58.5 8.5t-54 27.5t-40 48.5t-15.5 71.5v14h52v-8zM227 54q60 0 106 38.5t63 108.5q10 42 16.5 71.5t10 49t4.5 30.5t1 16q0 52 -31.5 82t-93.5 30q-60 0 -107 -38.5t-62 -108.5q-8 -38 -14 -65.5t-10 -47t-6 -32.5t-2 -22
q0 -52 31.5 -82t93.5 -30zM361 592h-53l19 87h53z" />
    <glyph glyph-name="hbar" unicode="&#x127;" horiz-adv-x="549" 
d="M327 530q28 0 58 -8.5t54.5 -27.5t40 -48.5t15.5 -71.5q0 -11 -0.5 -20t-4 -27t-10.5 -50t-19 -90l-40 -187h-53l40 187q12 56 19 88t10.5 49.5t4.5 26t1 17.5q0 52 -31.5 82t-93.5 30q-60 0 -107 -38.5t-62 -108.5l-71 -333h-53l126 591h-70l9 43h70l14 66h53l-14 -66
h145l-9 -43h-146l-28 -134q20 30 58.5 51.5t93.5 21.5z" />
    <glyph glyph-name="hcircumflex" unicode="&#x125;" horiz-adv-x="549" 
d="M327 530q28 0 58 -8.5t54.5 -27.5t40 -48.5t15.5 -71.5q0 -11 -0.5 -20t-4 -27t-10.5 -50t-19 -90l-40 -187h-53l40 187q12 56 19 88t10.5 49.5t4.5 26t1 17.5q0 52 -31.5 82t-93.5 30q-60 0 -107 -38.5t-62 -108.5l-71 -333h-53l149 700h53l-52 -243q20 30 58.5 51.5
t93.5 21.5zM404 828l-104 -83h-69l152 129h52l98 -129h-59z" />
    <glyph glyph-name="dotlessi" unicode="&#x131;" horiz-adv-x="213" 
d="M188 516l-109 -516h-53l109 516h53z" />
    <glyph glyph-name="ibreve" unicode="&#x12d;" horiz-adv-x="213" 
d="M188 516l-109 -516h-53l109 516h53zM195 620q13 0 27.5 6.5t28 17t24 25t13.5 31.5h54q-6 -27 -21 -50.5t-36 -41t-46.5 -27.5t-52.5 -10h-24q-47 0 -76 29.5t-29 73.5q0 12 3 26h46q-1 -5 -1.5 -9t-0.5 -9q0 -27 17.5 -44.5t50.5 -17.5h23z" />
    <glyph glyph-name="imacron" unicode="&#x12b;" horiz-adv-x="213" 
d="M188 516l-109 -516h-53l109 516h53zM39 613l9 45h289l-9 -45h-289z" />
    <glyph glyph-name="iogonek" unicode="&#x12f;" horiz-adv-x="213" 
d="M188 516l-110 -516h-53l110 516h53zM208 613h-53l19 87h53zM79 0q-14 -8 -32.5 -19.5t-34.5 -25t-27 -29t-11 -32.5t10.5 -25.5t25.5 -8.5q10 0 20.5 3.5t20.5 8.5l-10 -48q-12 -7 -25 -10t-25 -3q-35 0 -53.5 22t-18.5 51q0 42 32 71.5t75 44.5h53z" />
    <glyph glyph-name="itilde" unicode="&#x129;" horiz-adv-x="213" 
d="M188 516l-109 -516h-53l109 516h53zM342 679q-9 -29 -21.5 -46.5t-26 -26.5t-28 -12t-26.5 -3q-11 0 -22 2.5t-23 9.5l-33 19q-5 3 -13.5 6.5t-19.5 3.5t-23.5 -8t-23.5 -31h-49q9 29 21.5 46.5t26 26.5t28 12t26.5 3q11 0 22 -2.5t23 -9.5l33 -19q5 -3 13.5 -6.5
t19.5 -3.5t23.5 8t23.5 31h49z" />
    <glyph glyph-name="uni1ECB" unicode="&#x1ecb;" horiz-adv-x="213" 
d="M188 516l-110 -516h-53l110 516h53zM208 613h-53l19 87h53zM49 -136h-53l19 87h53z" />
    <glyph glyph-name="dotlessj" unicode="&#x237;" horiz-adv-x="213" 
d="M61 -81q-5 -25 -11.5 -44t-20 -32t-36.5 -20t-61 -7h-9l11 51h9q32 0 45.5 12t19.5 40l127 597h53z" />
    <glyph glyph-name="jcircumflex" unicode="&#x135;" horiz-adv-x="213" 
d="M135 516h53l-127 -597q-5 -25 -13.5 -44t-23 -32t-36.5 -20t-54 -7h-10l10 51h10q34 0 46.5 12t17.5 40zM195 654l-104 -83h-69l152 129h52l98 -129h-59z" />
    <glyph glyph-name="kcommaaccent" unicode="&#x137;" horiz-adv-x="489" 
d="M132 252l299 264h73l-231 -204l146 -312h-56l-130 277l-118 -104l-37 -173h-53l149 700h53zM161 -50h74l-15 -74l-37 -74h-49l37 74h-25z" />
    <glyph glyph-name="lacute" unicode="&#x13a;" horiz-adv-x="242" 
d="M226 700q-30 -140 -51 -239.5t-35.5 -167t-23 -108t-13 -63t-6 -31.5t-1.5 -13q0 -15 10 -21.5t26 -6.5h20l-11 -50h-6q-47 0 -69 20.5t-22 55.5q0 7 2 21t7.5 41t15 70.5t23.5 110.5t34 160.5t47 220.5h53zM322 874l-118 -129h-51l85 129h84z" />
    <glyph glyph-name="lcaron" unicode="&#x13e;" horiz-adv-x="242" 
d="M268 542h-46l61 158h79zM226 700q-30 -140 -51 -239.5t-35.5 -167t-23 -108t-13 -63t-6 -31.5t-1.5 -13q0 -15 10 -21.5t26 -6.5h20l-11 -50h-6q-47 0 -69 20.5t-22 55.5q0 7 2 21t7.5 41t15 70.5t23.5 110.5t34 160.5t47 220.5h53z" />
    <glyph glyph-name="lcommaaccent" unicode="&#x13c;" horiz-adv-x="242" 
d="M226 700q-30 -140 -51 -239.5t-35.5 -167t-23 -108t-13 -63t-6 -31.5t-1.5 -13q0 -15 10 -21.5t26 -6.5h20l-11 -50h-6q-47 0 -69 20.5t-22 55.5q0 7 2 21t7.5 41t15 70.5t23.5 110.5t34 160.5t47 220.5h53zM35 -50h74l-15 -74l-37 -74h-49l37 74h-25z" />
    <glyph glyph-name="ldot" unicode="&#x140;" horiz-adv-x="264" 
d="M226 700q-30 -140 -51 -239.5t-35.5 -167t-23 -108t-13 -63t-6 -31.5t-1.5 -13q0 -15 10 -21.5t26 -6.5h20l-11 -50h-6q-47 0 -69 20.5t-22 55.5q0 7 2 21t7.5 41t15 70.5t23.5 110.5t34 160.5t47 220.5h53zM280 333h-53l19 87h53z" />
    <glyph glyph-name="lslash" unicode="&#x142;" horiz-adv-x="262" 
d="M236 700l-62 -289l71 35l-10 -53l-72 -36q-19 -89 -30.5 -142t-17.5 -82t-7.5 -40t-1.5 -15q0 -15 10 -21.5t26 -6.5h20l-11 -50h-6q-47 0 -69 20.5t-22 55.5q0 7 2 21t8 42t15.5 73.5t24.5 115.5l-71 -35l10 53l72 36l68 318h53z" />
    <glyph glyph-name="eng" unicode="&#x14b;" horiz-adv-x="549" 
d="M175 457q20 30 58.5 51.5t93.5 21.5q28 0 58 -8.5t54.5 -27.5t40 -48.5t15.5 -71.5q0 -11 -0.5 -20t-4 -27t-10.5 -50t-19 -90l-57 -268q-5 -25 -11.5 -44t-20 -32t-36.5 -20t-61 -7h-10l11 50h10q32 0 45.5 12.5t19.5 40.5l57 268q12 56 19 88t10.5 49.5t4.5 26t1 17.5
q0 52 -31.5 82t-93.5 30q-60 0 -107 -38.5t-62 -108.5l-71 -333h-53l110 516h53z" />
    <glyph glyph-name="nacute" unicode="&#x144;" horiz-adv-x="549" 
d="M327 530q28 0 58 -8.5t54.5 -27.5t40 -48.5t15.5 -71.5q0 -11 -0.5 -20t-4 -27t-10.5 -50t-19 -90l-40 -187h-53l40 187q12 56 19 88t10.5 49.5t4.5 26t1 17.5q0 52 -31.5 82t-93.5 30q-60 0 -107 -38.5t-62 -108.5l-71 -333h-53l110 516h53l-13 -59q20 30 58.5 51.5
t93.5 21.5zM457 700l-118 -129h-51l85 129h84z" />
    <glyph glyph-name="ncaron" unicode="&#x148;" horiz-adv-x="549" 
d="M327 530q28 0 58 -8.5t54.5 -27.5t40 -48.5t15.5 -71.5q0 -11 -0.5 -20t-4 -27t-10.5 -50t-19 -90l-40 -187h-53l40 187q12 56 19 88t10.5 49.5t4.5 26t1 17.5q0 52 -31.5 82t-93.5 30q-60 0 -107 -38.5t-62 -108.5l-71 -333h-53l110 516h53l-13 -59q20 30 58.5 51.5
t93.5 21.5zM350 617l104 83h69l-152 -129h-52l-98 129h59z" />
    <glyph glyph-name="ncommaaccent" unicode="&#x146;" horiz-adv-x="549" 
d="M327 530q28 0 58 -8.5t54.5 -27.5t40 -48.5t15.5 -71.5q0 -11 -0.5 -20t-4 -27t-10.5 -50t-19 -90l-40 -187h-53l40 187q12 56 19 88t10.5 49.5t4.5 26t1 17.5q0 52 -31.5 82t-93.5 30q-60 0 -107 -38.5t-62 -108.5l-71 -333h-53l110 516h53l-13 -59q20 30 58.5 51.5
t93.5 21.5zM176 -50h74l-15 -74l-37 -74h-49l37 74h-25z" />
    <glyph glyph-name="oe" unicode="&#x153;" horiz-adv-x="866" 
d="M559 -10q-51 0 -94 22.5t-62 75.5q-68 -98 -187 -98q-29 0 -58.5 8.5t-54 27.5t-40 48.5t-15.5 71.5q0 11 0.5 20t4 27t10.5 50t19 90q22 105 83.5 151t147.5 46q51 0 94 -22.5t62 -75.5q68 98 187 98q28 0 58 -8.5t54.5 -27.5t40 -48.5t15.5 -71.5q0 -9 -0.5 -16.5
t-2.5 -19.5t-6 -31.5t-11 -53.5h-343q-6 -27 -9.5 -43.5t-5.5 -27t-2.5 -17t-0.5 -13.5q0 -52 31.5 -82t93.5 -30q54 0 97.5 31.5t63.5 88.5h54q-26 -90 -85 -130t-139 -40zM135 333q-12 -56 -19 -88t-10.5 -49.5t-4.5 -26t-1 -17.5q0 -52 31.5 -82t93.5 -30q60 0 107 38.5
t62 108.5q12 56 19 88t10.5 49.5t4.5 26t1 17.5q0 52 -31.5 82t-93.5 30q-60 0 -107 -38.5t-62 -108.5zM762 303l5 25t3 17t1.5 12t0.5 11q0 52 -31.5 82t-93.5 30q-35 0 -64.5 -12.5t-52.5 -35.5t-38 -55.5t-20 -73.5h290z" />
    <glyph glyph-name="obreve" unicode="&#x14f;" horiz-adv-x="529" 
d="M135 333q-12 -56 -19 -88t-10.5 -49.5t-4.5 -26t-1 -17.5q0 -52 31.5 -82t93.5 -30q60 0 107 38.5t62 108.5q12 56 19 88t10.5 49.5t4.5 26t1 17.5q0 52 -31.5 82t-93.5 30q-60 0 -107 -38.5t-62 -108.5zM447 187q-23 -105 -84 -151t-147 -46q-29 0 -58.5 8.5t-54 27.5
t-40 48.5t-15.5 71.5q0 11 0.5 20t4 27t10.5 50t19 90q22 105 83.5 151t147.5 46q28 0 58 -8.5t54.5 -27.5t40 -48.5t15.5 -71.5q0 -11 -0.5 -20t-4 -27t-10.5 -50t-19 -90zM352 620q13 0 27.5 6.5t28 17t24 25t13.5 31.5h54q-6 -27 -21 -50.5t-36 -41t-46.5 -27.5
t-52.5 -10h-24q-47 0 -76 29.5t-29 73.5q0 12 3 26h46q-1 -5 -1.5 -9t-0.5 -9q0 -27 17.5 -44.5t50.5 -17.5h23z" />
    <glyph glyph-name="ohungarumlaut" unicode="&#x151;" horiz-adv-x="529" 
d="M135 333q-12 -56 -19 -88t-10.5 -49.5t-4.5 -26t-1 -17.5q0 -52 31.5 -82t93.5 -30q60 0 107 38.5t62 108.5q12 56 19 88t10.5 49.5t4.5 26t1 17.5q0 52 -31.5 82t-93.5 30q-60 0 -107 -38.5t-62 -108.5zM447 187q-23 -105 -84 -151t-147 -46q-29 0 -58.5 8.5t-54 27.5
t-40 48.5t-15.5 71.5q0 11 0.5 20t4 27t10.5 50t19 90q22 105 83.5 151t147.5 46q28 0 58 -8.5t54.5 -27.5t40 -48.5t15.5 -71.5q0 -11 -0.5 -20t-4 -27t-10.5 -50t-19 -90zM365 700l-108 -129h-46l75 129h79zM529 700l-108 -129h-46l75 129h79z" />
    <glyph glyph-name="omacron" unicode="&#x14d;" horiz-adv-x="529" 
d="M135 333q-12 -56 -19 -88t-10.5 -49.5t-4.5 -26t-1 -17.5q0 -52 31.5 -82t93.5 -30q60 0 107 38.5t62 108.5q12 56 19 88t10.5 49.5t4.5 26t1 17.5q0 52 -31.5 82t-93.5 30q-60 0 -107 -38.5t-62 -108.5zM447 187q-23 -105 -84 -151t-147 -46q-29 0 -58.5 8.5t-54 27.5
t-40 48.5t-15.5 71.5q0 11 0.5 20t4 27t10.5 50t19 90q22 105 83.5 151t147.5 46q28 0 58 -8.5t54.5 -27.5t40 -48.5t15.5 -71.5q0 -11 -0.5 -20t-4 -27t-10.5 -50t-19 -90zM196 613l9 45h289l-9 -45h-289z" />
    <glyph glyph-name="uni1ECD" unicode="&#x1ecd;" horiz-adv-x="529" 
d="M135 333q-12 -56 -19 -88t-10.5 -49.5t-4.5 -26t-1 -17.5q0 -52 31.5 -82t93.5 -30q60 0 107 38.5t62 108.5q12 56 19 88t10.5 49.5t4.5 26t1 17.5q0 52 -31.5 82t-93.5 30q-60 0 -107 -38.5t-62 -108.5zM447 187q-23 -105 -84 -151t-147 -46q-29 0 -58.5 8.5t-54 27.5
t-40 48.5t-15.5 71.5q0 11 0.5 20t4 27t10.5 50t19 90q22 105 83.5 151t147.5 46q28 0 58 -8.5t54.5 -27.5t40 -48.5t15.5 -71.5q0 -11 -0.5 -20t-4 -27t-10.5 -50t-19 -90zM207 -136h-53l19 87h53z" />
    <glyph glyph-name="racute" unicode="&#x155;" horiz-adv-x="315" 
d="M317 475q-60 0 -107 -38.5t-62 -108.5l-70 -328h-53l110 516h53l-14 -64q20 30 58.5 51.5t93.5 21.5h24l-11 -50h-22zM365 700l-118 -129h-51l85 129h84z" />
    <glyph glyph-name="rcaron" unicode="&#x159;" horiz-adv-x="315" 
d="M317 475q-60 0 -107 -38.5t-62 -108.5l-70 -328h-53l110 516h53l-14 -64q20 30 58.5 51.5t93.5 21.5h24l-11 -50h-22zM259 617l104 83h69l-152 -129h-52l-98 129h59z" />
    <glyph glyph-name="rcommaaccent" unicode="&#x157;" horiz-adv-x="315" 
d="M317 475q-60 0 -107 -38.5t-62 -108.5l-70 -328h-53l110 516h53l-14 -64q20 30 58.5 51.5t93.5 21.5h24l-11 -50h-22zM5 -50h74l-15 -74l-37 -74h-49l37 74h-25z" />
    <glyph glyph-name="sacute" unicode="&#x15b;" horiz-adv-x="484" 
d="M392 368v8q0 27 -11 46.5t-29.5 32t-42 19t-47.5 6.5t-47 -6t-41.5 -18t-29.5 -29.5t-11 -39.5q0 -36 19 -54.5t61 -31.5l93 -28q48 -14 77 -46t29 -79q0 -81 -54.5 -119.5t-144.5 -38.5q-36 0 -70 9.5t-60.5 29t-42.5 49t-16 70.5v13h52v-11q0 -29 11.5 -49.5t31.5 -34
t46.5 -20t56.5 -6.5q26 0 50.5 6t44 18.5t31.5 31.5t12 45q0 35 -21.5 55t-53.5 29l-100 30q-46 11 -75 45t-29 81q0 37 15.5 65t41 47t57.5 28t66 9q33 0 66 -9t59 -27.5t42 -46.5t16 -66v-13h-52zM420 700l-118 -129h-51l85 129h84z" />
    <glyph glyph-name="scaron" unicode="&#x161;" horiz-adv-x="484" 
d="M392 368v8q0 27 -11 46.5t-29.5 32t-42 19t-47.5 6.5t-47 -6t-41.5 -18t-29.5 -29.5t-11 -39.5q0 -36 19 -54.5t61 -31.5l93 -28q48 -14 77 -46t29 -79q0 -81 -54.5 -119.5t-144.5 -38.5q-36 0 -70 9.5t-60.5 29t-42.5 49t-16 70.5v13h52v-11q0 -29 11.5 -49.5t31.5 -34
t46.5 -20t56.5 -6.5q26 0 50.5 6t44 18.5t31.5 31.5t12 45q0 35 -21.5 55t-53.5 29l-100 30q-46 11 -75 45t-29 81q0 37 15.5 65t41 47t57.5 28t66 9q33 0 66 -9t59 -27.5t42 -46.5t16 -66v-13h-52zM312 617l104 83h69l-152 -129h-52l-98 129h59z" />
    <glyph glyph-name="scedilla" unicode="&#x15f;" horiz-adv-x="484" 
d="M392 368v8q0 27 -11 46.5t-29.5 32t-42 19t-47.5 6.5t-47 -6t-41.5 -18t-29.5 -29.5t-11 -39.5q0 -36 19 -54.5t61 -31.5l93 -28q48 -14 77 -46t29 -79q0 -81 -54.5 -119.5t-144.5 -38.5q-36 0 -70 9.5t-60.5 29t-42.5 49t-16 70.5v13h52v-11q0 -29 11.5 -49.5t31.5 -34
t46.5 -20t56.5 -6.5q26 0 50.5 6t44 18.5t31.5 31.5t12 45q0 35 -21.5 55t-53.5 29l-100 30q-46 11 -75 45t-29 81q0 37 15.5 65t41 47t57.5 28t66 9q33 0 66 -9t59 -27.5t42 -46.5t16 -66v-13h-52zM196 0h49l-38 -158h-69z" />
    <glyph glyph-name="scircumflex" unicode="&#x15d;" horiz-adv-x="484" 
d="M392 368v8q0 27 -11 46.5t-29.5 32t-42 19t-47.5 6.5t-47 -6t-41.5 -18t-29.5 -29.5t-11 -39.5q0 -36 19 -54.5t61 -31.5l93 -28q48 -14 77 -46t29 -79q0 -81 -54.5 -119.5t-144.5 -38.5q-36 0 -70 9.5t-60.5 29t-42.5 49t-16 70.5v13h52v-11q0 -29 11.5 -49.5t31.5 -34
t46.5 -20t56.5 -6.5q26 0 50.5 6t44 18.5t31.5 31.5t12 45q0 35 -21.5 55t-53.5 29l-100 30q-46 11 -75 45t-29 81q0 37 15.5 65t41 47t57.5 28t66 9q33 0 66 -9t59 -27.5t42 -46.5t16 -66v-13h-52zM329 654l-104 -83h-69l152 129h52l98 -129h-59z" />
    <glyph glyph-name="scommaaccent" unicode="&#x219;" horiz-adv-x="484" 
d="M392 368v8q0 27 -11 46.5t-29.5 32t-42 19t-47.5 6.5t-47 -6t-41.5 -18t-29.5 -29.5t-11 -39.5q0 -36 19 -54.5t61 -31.5l93 -28q48 -14 77 -46t29 -79q0 -81 -54.5 -119.5t-144.5 -38.5q-36 0 -70 9.5t-60.5 29t-42.5 49t-16 70.5v13h52v-11q0 -29 11.5 -49.5t31.5 -34
t46.5 -20t56.5 -6.5q26 0 50.5 6t44 18.5t31.5 31.5t12 45q0 35 -21.5 55t-53.5 29l-100 30q-46 11 -75 45t-29 81q0 37 15.5 65t41 47t57.5 28t66 9q33 0 66 -9t59 -27.5t42 -46.5t16 -66v-13h-52zM158 -50h74l-15 -74l-37 -74h-49l37 74h-25z" />
    <glyph glyph-name="tbar" unicode="&#x167;" horiz-adv-x="329" 
d="M76 466l11 50h73l25 117h53l-25 -117h127l-11 -50h-127l-32 -149h127l-9 -43h-128q-13 -61 -20.5 -98t-11.5 -57.5t-5 -28.5t-1 -12q0 -15 10 -21.5t26 -6.5h83l-11 -50h-69q-47 0 -69 20.5t-22 55.5q0 6 1.5 18t6 34.5t12 57.5t18.5 88h-73l9 43h73l32 149h-73z" />
    <glyph glyph-name="tcaron" unicode="&#x165;" horiz-adv-x="329" 
d="M324 571h-46l47 129h79zM76 466l11 50h73l25 117h53l-25 -117h127l-11 -50h-127q-18 -85 -31 -146t-22 -103t-14.5 -67.5t-8 -40.5t-3.5 -21.5t-1 -9.5q0 -15 10 -21.5t26 -6.5h83l-11 -50h-69q-47 0 -69 20.5t-22 55.5q0 9 3.5 28.5t12 62t24 114.5t39.5 185h-73z" />
    <glyph glyph-name="uni0163" unicode="&#x163;" horiz-adv-x="329" 
d="M76 466l11 50h73l25 117h53l-25 -117h127l-11 -50h-127q-18 -85 -31 -146t-22 -103t-14.5 -67.5t-8 -40.5t-3.5 -21.5t-1 -9.5q0 -15 10 -21.5t26 -6.5h83l-11 -50h-69q-47 0 -69 20.5t-22 55.5q0 9 3.5 28.5t12 62t24 114.5t39.5 185h-73zM93 -50h74l-15 -74l-37 -74
h-49l37 74h-25z" />
    <glyph glyph-name="tcommaaccent" unicode="&#x21b;" horiz-adv-x="329" 
d="M76 466l11 50h73l25 117h53l-25 -117h127l-11 -50h-127q-18 -85 -31 -146t-22 -103t-14.5 -67.5t-8 -40.5t-3.5 -21.5t-1 -9.5q0 -15 10 -21.5t26 -6.5h83l-11 -50h-69q-47 0 -69 20.5t-22 55.5q0 9 3.5 28.5t12 62t24 114.5t39.5 185h-73zM93 -50h74l-15 -74l-37 -74
h-49l37 74h-25z" />
    <glyph glyph-name="ubreve" unicode="&#x16d;" horiz-adv-x="542" 
d="M223 -10q-29 0 -58.5 9t-54 28t-40 48.5t-15.5 70.5q0 10 1 20.5t4.5 29.5t10 50.5t17.5 82.5l40 187h53l-40 -187q-11 -49 -17.5 -79t-10 -49t-5 -29.5t-1.5 -19.5q0 -51 31 -81.5t91 -30.5q28 0 54.5 10t48.5 28.5t38 46t24 62.5l70 329h53l-110 -516h-53l14 63
q-8 -13 -22.5 -26t-33 -23.5t-41.5 -17t-48 -6.5zM355 620q13 0 27.5 6.5t28 17t24 25t13.5 31.5h54q-6 -27 -21 -50.5t-36 -41t-46.5 -27.5t-52.5 -10h-24q-47 0 -76 29.5t-29 73.5q0 12 3 26h46q-1 -5 -1.5 -9t-0.5 -9q0 -27 17.5 -44.5t50.5 -17.5h23z" />
    <glyph glyph-name="uhungarumlaut" unicode="&#x171;" horiz-adv-x="542" 
d="M223 -10q-29 0 -58.5 9t-54 28t-40 48.5t-15.5 70.5q0 10 1 20.5t4.5 29.5t10 50.5t17.5 82.5l40 187h53l-40 -187q-11 -49 -17.5 -79t-10 -49t-5 -29.5t-1.5 -19.5q0 -51 31 -81.5t91 -30.5q28 0 54.5 10t48.5 28.5t38 46t24 62.5l70 329h53l-110 -516h-53l14 63
q-8 -13 -22.5 -26t-33 -23.5t-41.5 -17t-48 -6.5zM365 700l-108 -129h-46l75 129h79zM529 700l-108 -129h-46l75 129h79z" />
    <glyph glyph-name="umacron" unicode="&#x16b;" horiz-adv-x="542" 
d="M223 -10q-29 0 -58.5 9t-54 28t-40 48.5t-15.5 70.5q0 10 1 20.5t4.5 29.5t10 50.5t17.5 82.5l40 187h53l-40 -187q-11 -49 -17.5 -79t-10 -49t-5 -29.5t-1.5 -19.5q0 -51 31 -81.5t91 -30.5q28 0 54.5 10t48.5 28.5t38 46t24 62.5l70 329h53l-110 -516h-53l14 63
q-8 -13 -22.5 -26t-33 -23.5t-41.5 -17t-48 -6.5zM199 613l9 45h289l-9 -45h-289z" />
    <glyph glyph-name="uogonek" unicode="&#x173;" horiz-adv-x="542" 
d="M223 -10q-29 0 -58.5 9t-54 28t-40 48.5t-15.5 70.5q0 10 1 20.5t4.5 29.5t10 50.5t17.5 82.5l40 187h53l-40 -187q-11 -49 -17.5 -79t-10 -49t-5 -29.5t-1.5 -19.5q0 -51 31 -81.5t91 -30.5q28 0 54.5 10t48.5 28.5t38 46t24 62.5l70 329h53l-110 -516h-53l14 63
q-8 -13 -22.5 -26t-33 -23.5t-41.5 -17t-48 -6.5zM407 0q-14 -8 -32.5 -19.5t-34.5 -25t-27 -29t-11 -32.5t10.5 -25.5t25.5 -8.5q10 0 20.5 3.5t20.5 8.5l-10 -48q-12 -7 -25 -10t-25 -3q-35 0 -53.5 22t-18.5 51q0 42 32 71.5t75 44.5h53z" />
    <glyph glyph-name="uring" unicode="&#x16f;" horiz-adv-x="542" 
d="M223 -10q-29 0 -58.5 9t-54 28t-40 48.5t-15.5 70.5q0 10 1 20.5t4.5 29.5t10 50.5t17.5 82.5l40 187h53l-40 -187q-11 -49 -17.5 -79t-10 -49t-5 -29.5t-1.5 -19.5q0 -51 31 -81.5t91 -30.5q28 0 54.5 10t48.5 28.5t38 46t24 62.5l70 329h53l-110 -516h-53l14 63
q-8 -13 -22.5 -26t-33 -23.5t-41.5 -17t-48 -6.5zM263 635q0 31 21.5 53t52.5 22t53 -22t22 -53t-22 -52.5t-53 -21.5t-52.5 21.5t-21.5 52.5zM306 635q0 -13 9 -22t22 -9t22.5 9t9.5 22t-9.5 22.5t-22.5 9.5t-22 -9.5t-9 -22.5z" />
    <glyph glyph-name="utilde" unicode="&#x169;" horiz-adv-x="542" 
d="M223 -10q-29 0 -58.5 9t-54 28t-40 48.5t-15.5 70.5q0 10 1 20.5t4.5 29.5t10 50.5t17.5 82.5l40 187h53l-40 -187q-11 -49 -17.5 -79t-10 -49t-5 -29.5t-1.5 -19.5q0 -51 31 -81.5t91 -30.5q28 0 54.5 10t48.5 28.5t38 46t24 62.5l70 329h53l-110 -516h-53l14 63
q-8 -13 -22.5 -26t-33 -23.5t-41.5 -17t-48 -6.5zM502 679q-9 -29 -21.5 -46.5t-26 -26.5t-28 -12t-26.5 -3q-11 0 -22 2.5t-23 9.5l-33 19q-5 3 -13.5 6.5t-19.5 3.5t-23.5 -8t-23.5 -31h-49q9 29 21.5 46.5t26 26.5t28 12t26.5 3q11 0 22 -2.5t23 -9.5l33 -19
q5 -3 13.5 -6.5t19.5 -3.5t23.5 8t23.5 31h49z" />
    <glyph glyph-name="uni1EE5" unicode="&#x1ee5;" horiz-adv-x="542" 
d="M223 -10q-29 0 -58.5 9t-54 28t-40 48.5t-15.5 70.5q0 10 1 20.5t4.5 29.5t10 50.5t17.5 82.5l40 187h53l-40 -187q-11 -49 -17.5 -79t-10 -49t-5 -29.5t-1.5 -19.5q0 -51 31 -81.5t91 -30.5q28 0 54.5 10t48.5 28.5t38 46t24 62.5l70 329h53l-110 -516h-53l14 63
q-8 -13 -22.5 -26t-33 -23.5t-41.5 -17t-48 -6.5zM210 -136h-53l19 87h53z" />
    <glyph glyph-name="wacute" unicode="&#x1e83;" horiz-adv-x="676" 
d="M426 516l24 -441l206 441h57l-245 -516h-63l-25 447l-217 -447h-63l-27 516h52l20 -440l212 440h69zM517 700l-118 -129h-51l85 129h84z" />
    <glyph glyph-name="wcircumflex" unicode="&#x175;" horiz-adv-x="676" 
d="M426 516l24 -441l206 441h57l-245 -516h-63l-25 447l-217 -447h-63l-27 516h52l20 -440l212 440h69zM426 654l-104 -83h-69l152 129h52l98 -129h-59z" />
    <glyph glyph-name="wdieresis" unicode="&#x1e85;" horiz-adv-x="676" 
d="M426 516l24 -441l206 441h57l-245 -516h-63l-25 447l-217 -447h-63l-27 516h52l20 -440l212 440h69zM329 592h-53l19 87h53zM542 592h-53l19 87h53z" />
    <glyph glyph-name="wgrave" unicode="&#x1e81;" horiz-adv-x="676" 
d="M426 516l24 -441l206 441h57l-245 -516h-63l-25 447l-217 -447h-63l-27 516h52l20 -440l212 440h69zM384 700l58 -129h-46l-91 129h79z" />
    <glyph glyph-name="ycircumflex" unicode="&#x177;" horiz-adv-x="452" 
d="M66 516h52l66 -444l252 444h60l-342 -597q-12 -22 -24 -40.5t-26.5 -32.5t-34 -22t-47.5 -8h-26l11 50h27q26 0 39.5 17t27.5 42l42 74zM315 654l-104 -83h-69l152 129h52l98 -129h-59z" />
    <glyph glyph-name="ygrave" unicode="&#x1ef3;" horiz-adv-x="452" 
d="M66 516h52l66 -444l252 444h60l-342 -597q-12 -22 -24 -40.5t-26.5 -32.5t-34 -22t-47.5 -8h-26l11 50h27q26 0 39.5 17t27.5 42l42 74zM274 700l58 -129h-46l-91 129h79z" />
    <glyph glyph-name="uni0233" unicode="&#x233;" horiz-adv-x="452" 
d="M66 516h52l66 -444l252 444h60l-342 -597q-12 -22 -24 -40.5t-26.5 -32.5t-34 -22t-47.5 -8h-26l11 50h27q26 0 39.5 17t27.5 42l42 74zM157 613l9 45h289l-9 -45h-289z" />
    <glyph glyph-name="zacute" unicode="&#x17a;" horiz-adv-x="477" 
d="M70 50h320l-11 -50h-389l11 50l400 416h-307l11 50h376l-11 -50zM417 700l-118 -129h-51l85 129h84z" />
    <glyph glyph-name="zcaron" unicode="&#x17e;" horiz-adv-x="477" 
d="M70 50h320l-11 -50h-389l11 50l400 416h-307l11 50h376l-11 -50zM310 617l104 83h69l-152 -129h-52l-98 129h59z" />
    <glyph glyph-name="zdotaccent" unicode="&#x17c;" horiz-adv-x="477" 
d="M70 50h320l-11 -50h-389l11 50l400 416h-307l11 50h376l-11 -50zM336 592h-53l19 87h53z" />
    <glyph glyph-name="ellipsis" unicode="&#x2026;" horiz-adv-x="750" 
d="M56 84h84l-17 -84h-84zM306 84h84l-17 -84h-84zM556 84h84l-17 -84h-84z" />
    <glyph glyph-name="endash" unicode="&#x2013;" horiz-adv-x="516" 
d="M61 258l9 45h396l-9 -45h-396z" />
    <glyph glyph-name="emdash" unicode="&#x2014;" horiz-adv-x="819" 
d="M61 258l9 45h699l-9 -45h-699z" />
    <glyph glyph-name="guilsinglleft" unicode="&#x2039;" horiz-adv-x="294" 
d="M57 246l11 54l193 143l-14 -65l-148 -110l101 -110l-12 -55z" />
    <glyph glyph-name="guilsinglright" unicode="&#x203a;" horiz-adv-x="294" 
d="M237 300l-11 -54l-193 -143l14 65l148 110l-101 110l12 55z" />
    <glyph glyph-name="quoteleft" unicode="&#x2018;" horiz-adv-x="230" 
d="M215 532h-84l18 84l48 84h49l-49 -84h36z" />
    <glyph glyph-name="quoteright" unicode="&#x2019;" horiz-adv-x="230" 
d="M167 700h84l-17 -84l-49 -84h-49l48 84h-34z" />
    <glyph glyph-name="quotedblleft" unicode="&#x201c;" horiz-adv-x="377" 
d="M362 532h-84l18 84l48 84h49l-49 -84h36zM215 532h-84l18 84l48 84h49l-49 -84h36z" />
    <glyph glyph-name="quotedblright" unicode="&#x201d;" horiz-adv-x="377" 
d="M314 700h84l-17 -84l-49 -84h-49l48 84h-34zM167 700h84l-17 -84l-49 -84h-49l48 84h-34z" />
    <glyph glyph-name="quotesinglbase" unicode="&#x201a;" horiz-adv-x="230" 
d="M36 84h84l-17 -84l-49 -84h-49l48 84h-34z" />
    <glyph glyph-name="quotedblbase" unicode="&#x201e;" horiz-adv-x="377" 
d="M183 84h84l-17 -84l-49 -84h-49l48 84h-34zM36 84h84l-17 -84l-49 -84h-49l48 84h-34z" />
    <glyph glyph-name="bullet" unicode="&#x2022;" horiz-adv-x="800" 
d="M251 298q0 35 13 65.5t36 53.5t53.5 36t65.5 13t65.5 -13t53.5 -36t36 -53.5t13 -65.5t-13 -65.5t-36 -53.5t-53.5 -36t-65.5 -13t-65.5 13t-53.5 36t-36 53.5t-13 65.5z" />
    <glyph glyph-name="dagger" unicode="&#x2020;" horiz-adv-x="585" 
d="M360 473l-119 -560h-43l119 560h-176l9 43h176l39 184h43l-39 -184h176l-9 -43h-176z" />
    <glyph glyph-name="daggerdbl" unicode="&#x2021;" horiz-adv-x="585" 
d="M280 97l-39 -184h-43l39 184h-176l9 43h176l71 333h-176l9 43h176l39 184h43l-39 -184h176l-9 -43h-176l-71 -333h176l-9 -43h-176z" />
    <glyph glyph-name="perthousand" unicode="&#x2030;" horiz-adv-x="1101" 
d="M871 35q29 0 52 18.5t31 54.5q3 16 10 46t14 62t12 59t5 36q0 27 -17 43.5t-49 16.5q-29 0 -52 -18.5t-31 -54.5q-3 -16 -10 -46t-13.5 -62t-12 -59t-5.5 -36q0 -27 17 -43.5t49 -16.5zM864 -6q-26 0 -45 8.5t-31 22t-18 30.5t-6 34q0 10 4.5 37t11 58.5t13 62.5t10.5 50
q14 60 46.5 87.5t86.5 27.5q26 0 45 -8.5t31 -22t18 -30.5t6 -34q0 -11 -4.5 -37.5t-11 -58t-13 -62.5t-10.5 -50q-14 -60 -46.5 -87.5t-86.5 -27.5zM688 700l-481 -700h-48l481 700h48zM212 329q29 0 52 18.5t31 54.5q3 16 10 46t14 62t12 59t5 36q0 27 -17 43.5t-49 16.5
q-29 0 -52 -18.5t-31 -54.5q-3 -16 -10 -46t-13.5 -62t-12 -59t-5.5 -36q0 -27 17 -43.5t49 -16.5zM205 288q-26 0 -45 8.5t-31 22t-18 30.5t-6 34q0 10 4.5 37t11 58.5t13 62.5t10.5 50q14 60 46.5 87.5t86.5 27.5q26 0 45 -8.5t31 -22t18 -30.5t6 -34q0 -11 -4.5 -37.5
t-11 -58t-13 -62.5t-10.5 -50q-14 -60 -46.5 -87.5t-86.5 -27.5zM577 35q29 0 52 18.5t31 54.5q3 16 10 46t14 62t12 59t5 36q0 27 -17 43.5t-49 16.5q-29 0 -52 -18.5t-31 -54.5q-3 -16 -10 -46t-13.5 -62t-12 -59t-5.5 -36q0 -27 17 -43.5t49 -16.5zM570 -6q-26 0 -45 8.5
t-31 22t-18 30.5t-6 34q0 10 4.5 37t11 58.5t13 62.5t10.5 50q14 60 46.5 87.5t86.5 27.5q26 0 45 -8.5t31 -22t18 -30.5t6 -34q0 -11 -4.5 -37.5t-11 -58t-13 -62.5t-10.5 -50q-14 -60 -46.5 -87.5t-86.5 -27.5z" />
    <glyph glyph-name="uni2117" unicode="&#x2117;" horiz-adv-x="820" 
d="M69 350q0 75 28.5 140.5t77 114t114 77t140.5 28.5t140.5 -28.5t114 -77t77 -114t28.5 -140.5t-28.5 -140.5t-77 -114t-114 -77t-140.5 -28.5t-140.5 28.5t-114 77t-77 114t-28.5 140.5zM112 350q0 -66 25 -123.5t67.5 -101t100.5 -68.5t124 -25t124 25t100.5 68.5
t67.5 101t25 123.5t-25 123.5t-67.5 101t-100.5 68.5t-124 25t-124 -25t-100.5 -68.5t-67.5 -101t-25 -123.5zM313 568h141q68 0 102 -35.5t34 -95.5t-34 -95.5t-102 -35.5h-98v-175h-43v437zM454 348q46 0 69 24.5t23 64.5q0 39 -23 63.5t-69 24.5h-98v-177h98z" />
    <glyph glyph-name="trademark" unicode="&#x2122;" horiz-adv-x="706" 
d="M186 658h-109v42h261v-42h-109v-364h-43v364zM400 700h43l118 -248l118 248h43v-406h-43v315l-98 -206h-41l-98 206v-315h-42v406z" />
    <glyph glyph-name="lozenge" unicode="&#x25ca;" horiz-adv-x="548" 
d="M293 50l174 300l-174 300l-174 -300zM69 350l203 350h42l203 -350l-203 -350h-42z" />
    <glyph glyph-name="afii61289" unicode="&#x2113;" horiz-adv-x="317" 
d="M147 567q8 38 18 65t25 44.5t35 25.5t48 8q36 0 54.5 -26t18.5 -70q0 -49 -18.5 -100.5t-48.5 -99.5t-68.5 -90t-78.5 -72q-12 -57 -19 -88.5t-10 -48t-3.5 -23t-0.5 -13.5q0 -25 12 -35.5t37 -10.5q16 0 34.5 3.5t39.5 11.5l3 -31q-33 -17 -54.5 -22t-42.5 -5
q-42 0 -62 21.5t-20 60.5q0 6 0.5 12.5t2.5 20t7 38t14 66.5l-51 -36l-19 31l81 56zM144 306q32 27 62 62.5t53.5 75.5t38 83t14.5 84q0 24 -8.5 39.5t-30.5 15.5q-23 0 -41.5 -18.5t-29.5 -69.5z" />
    <glyph glyph-name="afii61352" unicode="&#x2116;" horiz-adv-x="860" 
d="M600 320l10 45h234l-10 -45h-234zM743 436q35 0 58 19t31 57q3 13 6.5 28.5t6.5 30.5t5 27t2 19q0 26 -19 38.5t-43 12.5q-34 0 -57.5 -19t-31.5 -57q-3 -13 -6.5 -28.5t-6.5 -30.5t-5 -27t-2 -19q0 -27 19.5 -39t42.5 -12zM738 395q-20 0 -38 5.5t-31.5 16.5t-22 27
t-8.5 37q0 15 7 47.5t13 62.5q14 65 48.5 91t89.5 26q19 0 37 -5.5t32 -16.5t22.5 -26.5t8.5 -36.5q0 -16 -7 -48t-14 -63q-14 -64 -48 -90.5t-89 -26.5zM472 0h-55l-204 605l-128 -605h-55l149 700h55l204 -605l128 605h55z" />
    <glyph glyph-name="apple" horiz-adv-x="639" 
d="M188 26q-28 6 -38.5 24.5t-10.5 53.5v256q-27 0 -37 24q-24 10 -24 37q0 17 11 28q-17 8 -26.5 23.5t-9.5 35.5q0 19 9.5 35t26.5 24q-11 11 -11 28q0 15 9 26.5t23 13.5q6 20 23 34t40 14q24 0 44 -17q7 19 23.5 31.5t37.5 12.5q17 0 31.5 -8.5t23.5 -22.5q14 7 29 7
q19 0 35 -10t24 -27q12 12 28 12q13 0 22.5 -6.5t14.5 -17.5q22 -5 36.5 -23t14.5 -41q0 -19 -9.5 -34t-24.5 -23v-38h4q47 0 63.5 -18.5t16.5 -61.5v-215q0 -43 -16.5 -61.5t-63.5 -18.5h-4q0 -35 -10.5 -53t-38.5 -24v-26h-266v26zM454 510q-17 4 -29 17h-83
q-19 -19 -46 -19q-34 0 -53 27q-8 -3 -16 -3q-18 0 -29 11q-2 -4 -4.5 -7.5t-5.5 -7.5v-424q0 -19 7 -26.5t25 -7.5h202q18 0 25 7.5t7 26.5v406zM118 443q-10 0 -15.5 -7t-5.5 -15q0 -9 6 -15t15 -6q0 -9 6 -15t15 -6v147q19 0 32 12t15 30v4h19q0 -10 6.5 -15.5t15.5 -5.5
t15 6t6 15h19q0 -8 -2.5 -14.5t-6.5 -11.5q13 -19 38 -19q20 0 33.5 13t13.5 33h82q0 -20 13 -33t33 -13t33.5 13t13.5 33t-13.5 33.5t-33.5 13.5q0 9 -6.5 15.5t-15.5 6.5q-8 0 -14.5 -5.5t-6.5 -16.5h-19q0 20 -13.5 33.5t-33.5 13.5q-15 0 -26.5 -8.5t-16.5 -21.5
q12 -4 20 -14t8 -24h-19q0 9 -6.5 15t-15.5 6t-15 -6t-6 -15h-19q0 15 9.5 26t23.5 13q6 19 19 30q-6 11 -17 17t-23 6q-19 0 -32 -13t-14 -32q7 -16 7 -29h-19q0 20 -13.5 33.5t-33.5 13.5q-15 0 -26.5 -8t-16.5 -22q13 -4 21 -14.5t8 -24.5h-19q0 9 -6.5 15.5t-15.5 6.5
t-15 -6.5t-6 -15.5q0 -19 17 -21h4v-19h-4q-18 -2 -30 -15t-12 -32t12 -32t30 -14h4v-19zM538 398q0 19 -7 26.5t-24 7.5h-4v-283h4q17 0 24 7.5t7 26.5v215zM229 478h15v-375h-15v375zM397 478h15v-375h-15v375zM341 478h15v-375h-15v375zM285 478h15v-375h-15v375z" />
    <glyph glyph-name="estimated" unicode="&#x212e;" horiz-adv-x="824" 
d="M194 117q0 -15 12 -25q35 -29 78 -46q32 -12 67 -17t73 -5t73 5t67 17q57 23 98 64h50q-54 -65 -131 -95q-36 -14 -75.5 -19.5t-81.5 -5.5t-81.5 5.5t-75.5 19.5q-44 18 -81.5 47t-65 67.5t-43 86t-15.5 101.5t15.5 101.5t43 86t65 67.5t81.5 47q36 14 75.5 19.5
t81.5 5.5t81.5 -5.5t75.5 -19.5q44 -18 81.5 -47t65 -67.5t43 -86t15.5 -101.5v-17h-582q-10 0 -10 -10v-173zM654 517q0 15 -12 25q-35 29 -78 46q-32 12 -67 17t-73 5t-73 -5t-67 -17q-43 -17 -78 -46q-12 -10 -12 -25v-173q0 -10 10 -10h440q10 0 10 10v173z" />
    <glyph glyph-name="minus" unicode="&#x2212;" 
d="M86 258v45h396v-45h-396z" />
    <glyph glyph-name="lessequal" unicode="&#x2264;" 
d="M86 299v44l396 180v-48l-338 -154l338 -154v-48zM86 0v45h396v-45h-396z" />
    <glyph glyph-name="greaterequal" unicode="&#x2265;" 
d="M86 119v48l338 154l-338 154v48l396 -180v-44zM86 0v45h396v-45h-396z" />
    <glyph glyph-name="notequal" unicode="&#x2260;" 
d="M86 155v45h92l150 150h-242v45h287l79 79l30 -31l-48 -48h48v-45h-93l-150 -150h243v-45h-288l-78 -78l-30 31l47 47h-47z" />
    <glyph glyph-name="approxequal" unicode="&#x2248;" 
d="M86 360q23 26 56 42t62 16q23 0 44.5 -7t41.5 -16t38.5 -16t35.5 -7q14 0 37.5 10t50.5 36l30 -33q-23 -26 -56 -42t-62 -16q-23 0 -44.5 7t-41.5 16t-38.5 16t-35.5 7q-14 0 -37.5 -10t-50.5 -36zM86 166q23 26 56 42t62 16q23 0 44.5 -7t41.5 -16t38.5 -16t35.5 -7
q14 0 37.5 10t50.5 36l30 -33q-23 -26 -56 -42t-62 -16q-23 0 -44.5 7t-41.5 16t-38.5 16t-35.5 7q-14 0 -37.5 -10t-50.5 -36z" />
    <glyph glyph-name="partialdiff" unicode="&#x2202;" horiz-adv-x="578" 
d="M490 552q0 50 -30 81.5t-98 31.5q-33 0 -63 -11t-54.5 -31t-42 -49.5t-23.5 -65.5l-1 -8h-45l1 8q10 56 34.5 94.5t57.5 62.5t71 34.5t75 10.5q30 0 59 -8t52 -25.5t37.5 -46t14.5 -69.5q0 -12 -1 -25.5t-4 -27.5l-61 -316q-10 -56 -34.5 -94.5t-57.5 -62.5t-71 -34.5
t-75 -10.5q-30 0 -59 8t-52 25.5t-37.5 46t-14.5 69.5q0 21 4 43.5t8 45.5q10 56 34.5 94.5t57 62.5t70.5 34.5t75 10.5q50 0 87.5 -21.5t51.5 -53.5q0 1 1.5 8.5t3.5 18.5t4.5 24.5t5.5 27.5l14 74q2 13 3.5 23t1.5 21zM241 35q33 0 63 11t54.5 31t42 49.5t23.5 65.5
q4 21 8 40.5t4 39.5q0 50 -30.5 81.5t-98.5 31.5q-33 0 -63 -11t-54.5 -31t-41.5 -49.5t-23 -65.5q-4 -21 -8 -40.5t-4 -39.5q0 -50 30 -81.5t98 -31.5z" />
    <glyph glyph-name="product" unicode="&#x220f;" horiz-adv-x="612" 
d="M104 700h442v-700h-55v647h-333v-647h-54v700z" />
    <glyph glyph-name="radical" unicode="&#x221a;" horiz-adv-x="516" 
d="M438 700h46l-207 -700h-64l-77 258h-68v42h102l75 -253z" />
    <glyph glyph-name="summation" unicode="&#x2211;" horiz-adv-x="702" 
d="M411 258l-321 400v42h512v-42h-454l321 -400l-321 -400h454v-42h-512v42z" />
    <glyph glyph-name="integral" unicode="&#x222b;" horiz-adv-x="301" 
d="M191 -81q0 -25 -4.5 -44t-16.5 -32t-33 -20t-53 -7v42q40 0 52 15t12 46v678q0 25 4.5 44t16.5 32t33 20t53 7v-42q-40 0 -52 -15t-12 -46v-678z" />
    <glyph glyph-name="infinity" unicode="&#x221e;" 
d="M67 336q0 26 9.5 49t26.5 40t40 27t49 10q32 0 59.5 -15t44.5 -40q17 25 44 40t60 15q26 0 49 -10t40 -27t27 -40t10 -49t-10 -49t-27 -40t-40 -26.5t-49 -9.5q-33 0 -60 14.5t-44 39.5q-17 -25 -44.5 -39.5t-59.5 -14.5q-26 0 -49 9.5t-40 26.5t-26.5 40t-9.5 49z
M318 336q0 -35 23.5 -59t58.5 -24t59 24t24 59q0 17 -6.5 32.5t-17.5 27t-26 18t-33 6.5q-35 0 -58 -23.5t-24 -57.5v-3zM110 336q0 -35 23.5 -59t58.5 -24t59 24t24 59v3q-2 34 -25 57.5t-58 23.5t-58.5 -24.5t-23.5 -59.5z" />
    <glyph glyph-name="Delta" unicode="&#x394;" horiz-adv-x="564" 
d="M-1 0l238 700h50l238 -700h-526zM262 609l-189 -555h377z" />
    <glyph glyph-name="Delta" unicode="&#x2206;" horiz-adv-x="564" 
d="M-1 0l238 700h50l238 -700h-526zM262 609l-189 -555h377z" />
    <glyph glyph-name="Omega" unicode="&#x3a9;" horiz-adv-x="562" 
d="M496 521q0 34 -11.5 59.5t-31 43t-45.5 26t-55 8.5q-33 0 -63.5 -10t-55.5 -31t-44 -54.5t-29 -80.5q-16 -73 -27.5 -127.5t-11.5 -80.5q0 -47 23 -79.5t61 -45.5l-32 -149h-151l11 52h96l15 67q-35 23 -56.5 61.5t-21.5 86.5q0 29 10.5 79.5t28.5 135.5q22 106 82.5 167
t171.5 61q39 0 73.5 -12.5t60.5 -36t41.5 -57.5t15.5 -76q0 -29 -11 -81.5t-28 -133.5q-18 -84 -57 -137t-105 -75l-10 -49h96l-11 -52h-151l30 142q54 11 95 52t58 119q16 76 27.5 129t11.5 79z" />
    <glyph glyph-name="Omega" unicode="&#x2126;" horiz-adv-x="562" 
d="M496 521q0 34 -11.5 59.5t-31 43t-45.5 26t-55 8.5q-33 0 -63.5 -10t-55.5 -31t-44 -54.5t-29 -80.5q-16 -73 -27.5 -127.5t-11.5 -80.5q0 -47 23 -79.5t61 -45.5l-32 -149h-151l11 52h96l15 67q-35 23 -56.5 61.5t-21.5 86.5q0 29 10.5 79.5t28.5 135.5q22 106 82.5 167
t171.5 61q39 0 73.5 -12.5t60.5 -36t41.5 -57.5t15.5 -76q0 -29 -11 -81.5t-28 -133.5q-18 -84 -57 -137t-105 -75l-10 -49h96l-11 -52h-151l30 142q54 11 95 52t58 119q16 76 27.5 129t11.5 79z" />
    <glyph glyph-name="pi" unicode="&#x3c0;" horiz-adv-x="608" 
d="M77 466l11 50h542l-11 -50h-73l-98 -466h-53l98 466h-290l-98 -466h-53l98 466h-73z" />
    <glyph glyph-name="Euro" unicode="&#x20ac;" horiz-adv-x="577" 
d="M292 -10q-39 0 -73 14t-59 38.5t-39 59t-14 75.5q0 8 0.5 16t2 19t4 26t7.5 37h-77l23 43h63l14 65h-76l22 43h64l10 47q12 58 32.5 102t52 74t75.5 45.5t104 15.5q50 0 92 -19.5t67 -54.5l-44 -31q-38 55 -126 55q-78 0 -129 -46t-71 -141l-10 -47h302l-22 -43h-290
l-14 -65h271l-23 -43h-257q-6 -26 -9 -41t-4.5 -24.5t-1.5 -16v-13.5q0 -33 10.5 -59t28.5 -44t42.5 -27.5t52.5 -9.5q38 0 73 15.5t64 44.5l36 -36q-19 -18 -37 -32t-38 -23t-44 -14t-55 -5z" />
    <glyph glyph-name="fi" unicode="&#xfb01;" horiz-adv-x="518" 
d="M88 516h73l17 81q5 25 11.5 44t20 32t36.5 20t61 7h73l-11 -50h-73q-32 0 -45.5 -12.5t-19.5 -40.5l-17 -81h127l-11 -50h-127l-99 -466h-53l99 466h-73zM493 516l-110 -516h-53l110 516h53zM513 613h-53l19 87h53z" />
    <glyph glyph-name="fl" unicode="&#xfb02;" horiz-adv-x="547" 
d="M88 516h73l17 81q5 25 11.5 44t20 32t36.5 20t61 7h73l-11 -50h-73q-32 0 -45.5 -12.5t-19.5 -40.5l-17 -81h127l-11 -50h-127l-99 -466h-53l99 466h-73zM531 700q-30 -140 -51 -239.5t-35.5 -167t-23 -108t-13 -63t-6 -31.5t-1.5 -13q0 -15 10 -21.5t26 -6.5h20l-11 -50
h-6q-47 0 -69 20.5t-22 55.5q0 7 2 21t7.5 41t15 70.5t23.5 110.5t34 160.5t47 220.5h53z" />
    <glyph glyph-name="uniFB00" unicode="&#xfb00;" horiz-adv-x="610" 
d="M88 516h73l17 81q5 25 11.5 44t20 32t36.5 20t61 7h73l-11 -50h-73q-32 0 -45.5 -12.5t-19.5 -40.5l-17 -81h127l-11 -50h-127l-99 -466h-53l99 466h-73zM393 516h73l17 81q5 25 11.5 44t20 32t36.5 20t61 7h73l-11 -50h-73q-32 0 -45.5 -12.5t-19.5 -40.5l-17 -81h127
l-11 -50h-127l-99 -466h-53l99 466h-73z" />
    <glyph glyph-name="uniFB03" unicode="&#xfb03;" horiz-adv-x="823" 
d="M88 516h73l17 81q5 25 11.5 44t20 32t36.5 20t61 7h73l-11 -50h-73q-32 0 -45.5 -12.5t-19.5 -40.5l-17 -81h127l-11 -50h-127l-99 -466h-53l99 466h-73zM393 516h73l17 81q5 25 11.5 44t20 32t36.5 20t61 7h73l-11 -50h-73q-32 0 -45.5 -12.5t-19.5 -40.5l-17 -81h127
l-11 -50h-127l-99 -466h-53l99 466h-73zM798 516l-110 -516h-53l110 516h53zM818 613h-53l19 87h53z" />
    <glyph glyph-name="uniFB04" unicode="&#xfb04;" horiz-adv-x="852" 
d="M88 516h73l17 81q5 25 11.5 44t20 32t36.5 20t61 7h73l-11 -50h-73q-32 0 -45.5 -12.5t-19.5 -40.5l-17 -81h127l-11 -50h-127l-99 -466h-53l99 466h-73zM393 516h73l17 81q5 25 11.5 44t20 32t36.5 20t61 7h73l-11 -50h-73q-32 0 -45.5 -12.5t-19.5 -40.5l-17 -81h127
l-11 -50h-127l-99 -466h-53l99 466h-73zM836 700q-30 -140 -51 -239.5t-35.5 -167t-23 -108t-13 -63t-6 -31.5t-1.5 -13q0 -15 10 -21.5t26 -6.5h20l-11 -50h-6q-47 0 -69 20.5t-22 55.5q0 7 2 21t7.5 41t15 70.5t23.5 110.5t34 160.5t47 220.5h53z" />
    <glyph glyph-name="breve" unicode="&#x2d8;" horiz-adv-x="390" 
d="M282 620q13 0 27.5 6.5t28 17t24 25t13.5 31.5h54q-6 -27 -21 -50.5t-36 -41t-46.5 -27.5t-52.5 -10h-24q-47 0 -76 29.5t-29 73.5q0 12 3 26h46q-1 -5 -1.5 -9t-0.5 -9q0 -27 17.5 -44.5t50.5 -17.5h23z" />
    <glyph glyph-name="caron" unicode="&#x2c7;" horiz-adv-x="428" 
d="M285 617l104 83h69l-152 -129h-52l-98 129h59z" />
    <glyph glyph-name="circumflex" unicode="&#x2c6;" horiz-adv-x="428" 
d="M302 654l-104 -83h-69l152 129h52l98 -129h-59z" />
    <glyph glyph-name="dotaccent" unicode="&#x2d9;" horiz-adv-x="171" 
d="M182 592h-53l19 87h53z" />
    <glyph glyph-name="hungarumlaut" unicode="&#x2dd;" horiz-adv-x="447" 
d="M305 700l-108 -129h-46l75 129h79zM469 700l-108 -129h-46l75 129h79z" />
    <glyph glyph-name="commaaccent" horiz-adv-x="254" 
d="M20 -50h74l-15 -74l-37 -74h-49l37 74h-25z" />
    <glyph glyph-name="ogonek" unicode="&#x2db;" horiz-adv-x="230" 
d="M120 0q-14 -8 -32.5 -19.5t-34.5 -25t-27 -29t-11 -32.5t10.5 -25.5t25.5 -8.5q10 0 20.5 3.5t20.5 8.5l-10 -48q-12 -7 -25 -10t-25 -3q-35 0 -53.5 22t-18.5 51q0 42 32 71.5t75 44.5h53z" />
    <glyph glyph-name="ring" unicode="&#x2da;" horiz-adv-x="255" 
d="M133 635q0 31 21.5 53t52.5 22t53 -22t22 -53t-22 -52.5t-53 -21.5t-52.5 21.5t-21.5 52.5zM176 635q0 -13 9 -22t22 -9t22.5 9t9.5 22t-9.5 22.5t-22.5 9.5t-22 -9.5t-9 -22.5z" />
    <glyph glyph-name="tilde" unicode="&#x2dc;" horiz-adv-x="441" 
d="M455 679q-9 -29 -21.5 -46.5t-26 -26.5t-28 -12t-26.5 -3q-11 0 -22 2.5t-23 9.5l-33 19q-5 3 -13.5 6.5t-19.5 3.5t-23.5 -8t-23.5 -31h-49q9 29 21.5 46.5t26 26.5t28 12t26.5 3q11 0 22 -2.5t23 -9.5l33 -19q5 -3 13.5 -6.5t19.5 -3.5t23.5 8t23.5 31h49z" />
    <glyph glyph-name="uni032C" unicode="&#x32c;" horiz-adv-x="428" 
d="M139 -82l104 83h69l-152 -129h-52l-98 129h59z" />
    <glyph glyph-name="zero.slashed" horiz-adv-x="534" 
d="M449 187q-12 -54 -33 -91.5t-50.5 -61t-65.5 -34t-77 -10.5q-28 0 -58 8.5t-55 27t-41 48t-16 71.5q0 21 6.5 59.5t16.5 88t22.5 106t24.5 114.5q12 54 33 91.5t50.5 61t65.5 34t77 10.5q28 0 58 -8.5t55 -27t41 -48t16 -71.5q0 -21 -6.5 -59.5t-16.5 -88t-22.5 -106
t-24.5 -114.5zM396 187q16 75 32 147.5t27 127.5l-349 -287q-1 -7 -1 -12v-9q0 -60 34.5 -87t92.5 -27q59 0 104 38.5t60 108.5zM176 513q-16 -74 -32 -146t-27 -127l349 288q1 5 1 9.5v8.5q0 60 -34.5 87t-92.5 27q-59 0 -104 -38.5t-60 -108.5z" />
    <glyph glyph-name="one.tlf" 
d="M353 627l-158 -114l15 72l159 115h53l-138 -650h171l-11 -50h-396l11 50h172z" />
    <glyph glyph-name="two.tlf" 
d="M128 495q6 44 22.5 83t44 68.5t68 46.5t95.5 17q28 0 58 -8.5t55 -27t41 -48t16 -71.5q0 -68 -34 -124t-86 -104l-302 -277h322l-11 -50h-395l11 51l337 310q19 18 38 38.5t34 44t24.5 49.5t9.5 53q0 60 -34.5 87t-92.5 27q-35 0 -63.5 -13t-50.5 -35t-36 -52.5
t-18 -64.5h-53z" />
    <glyph glyph-name="three.tlf" 
d="M127 500q10 57 31 97t51 65t67 36.5t80 11.5q28 0 58 -8.5t55 -27t41 -48t16 -71.5q0 -78 -38 -131.5t-96 -76.5q35 -23 50 -57.5t15 -67.5q0 -55 -17.5 -98t-48.5 -73t-73.5 -45.5t-93.5 -15.5q-29 0 -58.5 9t-53.5 28t-39 48.5t-15 69.5q0 8 1 22t4 33h52
q-2 -15 -3.5 -26.5t-1.5 -19.5q0 -60 34.5 -87t88.5 -27q34 0 65 12t55 35t38 55t14 73q0 22 -7 42.5t-20.5 36.5t-34.5 25.5t-49 9.5h-49l11 50h51q36 0 67 13.5t53 36t34.5 53t12.5 64.5q0 60 -34.5 87t-92.5 27q-36 0 -64 -12.5t-49 -34.5t-34.5 -51t-19.5 -62h-53z" />
    <glyph glyph-name="four.tlf" 
d="M514 700l-97 -452h73l-9 -48h-73l-43 -200h-53l43 200h-328l9 48l425 452h53zM364 248l77 358l-336 -358h259z" />
    <glyph glyph-name="five.tlf" 
d="M182 382q17 20 54 37.5t82 17.5q28 0 58 -8.5t55 -27t41 -48t16 -71.5q0 -8 -1 -19.5t-3 -25t-4.5 -27t-4.5 -23.5q-12 -54 -33 -91.5t-50.5 -61t-65.5 -34t-77 -10.5q-28 0 -58 8.5t-55 27t-41 48t-16 71.5q0 20 6 55h51q-2 -15 -3.5 -26.5t-1.5 -19.5q0 -60 34.5 -87
t92.5 -27q59 0 104 38.5t60 108.5q5 20 9.5 45t4.5 41q0 60 -34.5 87t-92.5 27q-41 0 -75.5 -18.5t-57.5 -53.5h-61l82 385h360l-11 -50h-307z" />
    <glyph glyph-name="six.tlf" 
d="M158 367q21 26 59.5 44.5t86.5 18.5q28 0 58 -8.5t55 -27t41 -48t16 -71.5q0 -22 -3.5 -47t-7.5 -41q-25 -108 -83 -152.5t-143 -44.5q-28 0 -58 8.5t-55 27t-41 48t-16 71.5q0 21 6.5 59.5t16.5 88t22.5 106t24.5 114.5q12 54 33 91.5t50.5 61t65.5 34t77 10.5
q28 0 58 -8.5t55 -27t41 -48t16 -71.5q0 -21 -6 -55h-51q2 15 3.5 26.5t1.5 19.5q0 60 -34.5 87t-92.5 27q-59 0 -104 -38.5t-60 -108.5zM131 233q-5 -27 -8.5 -47t-3.5 -32q0 -60 34.5 -87t92.5 -27q60 0 104.5 39t59.5 108l3 15t4 21t3.5 22.5t1.5 20.5q0 60 -34.5 87
t-92.5 27q-29 0 -55.5 -10t-48.5 -28.5t-37.5 -46t-22.5 -62.5z" />
    <glyph glyph-name="seven.tlf" 
d="M558 700l-11 -50l-375 -650h-60l375 650h-330l11 50h390z" />
    <glyph glyph-name="eight.tlf" 
d="M527 552q0 -69 -33 -125t-98 -82q28 -19 46 -48.5t18 -71.5q0 -45 -13 -87t-40 -75t-69.5 -53t-101.5 -20q-29 0 -60 9.5t-56.5 28.5t-41.5 48.5t-16 68.5q0 34 7.5 67.5t24 62.5t41 52t59.5 36q-25 20 -41 50t-16 74q0 45 14.5 85t42.5 71t70 49t97 18q29 0 58.5 -9
t53.5 -28.5t39 -49t15 -71.5zM408 212q0 51 -32.5 84t-94.5 33q-35 0 -65.5 -12.5t-53 -35.5t-35.5 -54.5t-13 -68.5q0 -51 32.5 -84.5t94.5 -33.5q35 0 65.5 13t53 35.5t35.5 54t13 69.5zM189 500q0 -35 10 -58t26.5 -37t38 -20t44.5 -6q33 0 63 11.5t53 32.5t37 50.5
t14 65.5q0 34 -10 57.5t-26.5 37.5t-38 20t-44.5 6q-33 0 -63 -11.5t-53 -32.5t-37 -50.5t-14 -65.5z" />
    <glyph glyph-name="nine.tlf" 
d="M439 333q-21 -26 -59.5 -44.5t-86.5 -18.5q-28 0 -58 8.5t-55 27t-41 48t-16 71.5q0 22 3.5 47t7.5 41q25 108 83 152.5t143 44.5q28 0 58 -8.5t55 -27t41 -48t16 -71.5q0 -21 -6.5 -59.5t-16.5 -88t-22.5 -106t-24.5 -114.5q-12 -54 -33 -91.5t-50.5 -61t-65.5 -34
t-77 -10.5q-28 0 -58 8.5t-55 27t-41 48t-16 71.5q0 20 6 55h51q-2 -15 -3.5 -26.5t-1.5 -19.5q0 -60 34.5 -87t92.5 -27q59 0 104 38.5t60 108.5zM466 467q5 27 8.5 47t3.5 32q0 60 -34.5 87t-92.5 27q-60 0 -104.5 -39t-59.5 -108l-3 -15t-4 -21t-3.5 -22.5t-1.5 -20.5
q0 -60 34.5 -87t92.5 -27q29 0 55.5 10t48.5 28.5t37.5 46t22.5 62.5z" />
    <glyph glyph-name="zero.tlf" 
d="M188 513q-12 -56 -24.5 -112.5t-23 -105.5t-17 -86t-6.5 -55q0 -60 34.5 -87t92.5 -27q59 0 104 38.5t60 108.5q12 56 24.5 112.5t23 105t17 86t6.5 55.5q0 60 -34.5 87t-92.5 27q-59 0 -104 -38.5t-60 -108.5zM461 187q-12 -54 -33 -91.5t-50.5 -61t-65.5 -34t-77 -10.5
q-28 0 -58 8.5t-55 27t-41 48t-16 71.5q0 21 6.5 59.5t16.5 88t22.5 106t24.5 114.5q12 54 33 91.5t50.5 61t65.5 34t77 10.5q28 0 58 -8.5t55 -27t41 -48t16 -71.5q0 -21 -6.5 -59.5t-16.5 -88t-22.5 -106t-24.5 -114.5z" />
    <glyph glyph-name="zero.slashed.tlf" 
d="M461 187q-12 -54 -33 -91.5t-50.5 -61t-65.5 -34t-77 -10.5q-28 0 -58 8.5t-55 27t-41 48t-16 71.5q0 21 6.5 59.5t16.5 88t22.5 106t24.5 114.5q12 54 33 91.5t50.5 61t65.5 34t77 10.5q28 0 58 -8.5t55 -27t41 -48t16 -71.5q0 -21 -6.5 -59.5t-16.5 -88t-22.5 -106
t-24.5 -114.5zM408 187q16 75 32 147.5t27 127.5l-349 -287q-1 -7 -1 -12v-9q0 -60 34.5 -87t92.5 -27q59 0 104 38.5t60 108.5zM188 513q-16 -74 -32 -146t-27 -127l349 288q1 5 1 9.5v8.5q0 60 -34.5 87t-92.5 27q-59 0 -104 -38.5t-60 -108.5z" />
    <glyph glyph-name="one.case" horiz-adv-x="342" 
d="M269 623l-158 -114l16 76l159 115h55l-149 -700h-55z" />
    <glyph glyph-name="two.case" horiz-adv-x="517" 
d="M12 53l334 306q19 18 38 38.5t34.5 44t25 49.5t9.5 53q0 58 -34 86t-91 28q-34 0 -62.5 -12.5t-50 -34.5t-35.5 -52t-19 -65h-55q7 46 23.5 85.5t44.5 68.5t68.5 45.5t94.5 16.5q30 0 60 -9.5t54.5 -28.5t40 -48.5t15.5 -69.5q0 -36 -9 -67.5t-25.5 -60t-39 -54.5
t-48.5 -50l-297 -270h320l-12 -52h-395z" />
    <glyph glyph-name="three.case" horiz-adv-x="519" 
d="M208 -10q-31 0 -61 10t-53.5 29.5t-38 49t-14.5 67.5q0 8 1 22.5t4 31.5h54q-2 -14 -3.5 -25.5t-1.5 -18.5q0 -58 34 -86t88 -28q33 0 64 12.5t54 35.5t37 54.5t14 70.5q0 22 -7 42t-20.5 36t-34 25.5t-48.5 9.5h-49l12 52h50q36 0 66.5 13t52.5 35.5t34.5 52.5t12.5 63
q0 58 -34 86t-91 28q-35 0 -63 -12.5t-49 -34t-34.5 -50.5t-19.5 -62h-55q21 114 82 162.5t148 48.5q30 0 60 -9.5t54.5 -28.5t40 -48.5t15.5 -69.5q0 -78 -38 -131.5t-95 -76.5q35 -22 49.5 -56t14.5 -68q0 -54 -17 -97t-48 -73t-73.5 -46t-93.5 -16z" />
    <glyph glyph-name="four.case" horiz-adv-x="520" 
d="M341 198h-327l10 50l424 452h55l-97 -452h73l-10 -50h-73l-42 -198h-55zM351 248l76 353l-332 -353h256z" />
    <glyph glyph-name="five.case" horiz-adv-x="524" 
d="M231 -10q-30 0 -60 9.5t-54.5 28.5t-40 48.5t-15.5 69.5q0 21 6 54h52q-2 -14 -3.5 -25.5t-1.5 -18.5q0 -58 34.5 -86t91.5 -28q58 0 103 38.5t60 107.5q5 23 9 47t4 39q0 57 -33.5 84.5t-91.5 27.5q-41 0 -75 -19.5t-57 -54.5h-63l82 388h361l-11 -52h-306l-56 -264
q17 20 53 37t81 17q30 0 60 -9.5t54.5 -28.5t40 -48.5t15.5 -69.5q0 -15 -4 -42.5t-9 -52.5q-12 -54 -33 -91.5t-50 -61t-65 -34t-78 -10.5z" />
    <glyph glyph-name="six.case" horiz-adv-x="532" 
d="M228 -10q-30 0 -60 9.5t-54.5 28.5t-40 48.5t-15.5 69.5q0 21 6.5 60.5t16.5 89.5t22 106.5t24 110.5q23 107 83 152t144 45q30 0 60 -9.5t54.5 -28.5t40 -48.5t15.5 -69.5q0 -20 -6 -54h-53q2 14 3.5 25.5t1.5 18.5q0 58 -34 86t-91 28q-58 0 -103 -38t-60 -107
q0 -1 -2 -11.5t-5.5 -26t-7.5 -33t-7.5 -33t-6 -26.5t-2.5 -13q20 26 58 43.5t86 17.5q30 0 60 -9.5t54.5 -28.5t40 -48.5t15.5 -69.5q0 -20 -3 -45t-8 -43q-24 -107 -82.5 -152t-143.5 -45zM237 42q59 0 103 38t59 107q1 7 3.5 17.5t4 21.5l3 22t1.5 19q0 57 -33.5 84.5
t-91.5 27.5t-103 -38t-59 -107q-5 -27 -8.5 -47t-3.5 -31q0 -58 34 -86t91 -28z" />
    <glyph glyph-name="seven.case" horiz-adv-x="452" 
d="M439 648h-329l11 52h391l-11 -52l-373 -648h-62z" />
    <glyph glyph-name="eight.case" horiz-adv-x="508" 
d="M213 -10q-31 0 -62.5 10.5t-56.5 30.5t-40.5 49t-15.5 67q0 35 8 68.5t24 62t41 50.5t59 35q-26 20 -41.5 50.5t-15.5 72.5q0 45 14.5 85.5t42.5 71.5t70 49t97 18q30 0 60 -10t53.5 -29.5t38 -49t14.5 -69.5q0 -69 -33 -125t-97 -82q28 -20 46 -50t18 -71
q0 -45 -13 -87.5t-40.5 -75t-70 -52t-100.5 -19.5zM218 42q34 0 64 12.5t52.5 35t35.5 53.5t13 68q0 51 -32.5 84t-94.5 33q-34 0 -64 -12.5t-52 -35t-35 -53t-13 -67.5q0 -51 32.5 -84.5t93.5 -33.5zM285 379q32 0 62 12t52.5 33t36 50.5t13.5 64.5q0 33 -9.5 55.5t-26 37
t-37.5 20.5t-44 6q-33 0 -62.5 -12t-52.5 -33t-36.5 -50.5t-13.5 -64.5q0 -33 9.5 -55.5t26 -36.5t38 -20.5t44.5 -6.5z" />
    <glyph glyph-name="nine.case" horiz-adv-x="532" 
d="M343 710q30 0 60 -9.5t54.5 -28.5t40 -48.5t15.5 -69.5q0 -21 -6.5 -60.5t-16.5 -89.5t-22 -106.5t-24 -110.5q-23 -107 -83 -152t-144 -45q-30 0 -60 9.5t-54.5 28.5t-40 48.5t-15.5 69.5q0 19 6 54h53q-2 -14 -3.5 -25.5t-1.5 -18.5q0 -58 34 -86t91 -28q58 0 103 38
t60 107q0 1 4.5 23t10.5 47.5t11 47.5t5 25q-20 -26 -58 -43.5t-86 -17.5q-30 0 -60 9.5t-54.5 28.5t-40 48.5t-15.5 69.5q0 20 3 45t8 43q24 107 82 152t144 45zM334 658q-59 0 -103 -38t-59 -107q-2 -7 -4 -17.5t-3.5 -22t-3 -22t-1.5 -18.5q0 -57 33.5 -84.5t91.5 -27.5
t103 38t59 107q5 27 8.5 47t3.5 31q0 58 -34 86t-91 28z" />
    <glyph glyph-name="zero.case" horiz-adv-x="543" 
d="M399 187q11 52 23.5 107.5t23 105.5t17 88.5t6.5 55.5q0 58 -34 86t-91 28q-58 0 -102.5 -38t-59.5 -107q-11 -52 -23.5 -107.5t-23 -105.5t-17 -88.5t-6.5 -55.5q0 -58 34 -86t91 -28q58 0 102.5 38t59.5 107zM454 187q-12 -54 -33 -91.5t-50 -61t-65 -34t-78 -10.5
q-30 0 -60 9.5t-54.5 28.5t-40 48.5t-15.5 69.5q0 21 6.5 60.5t16.5 89.5t22 106.5t24 110.5t33 91.5t50 61t65 34t78 10.5q30 0 60 -9.5t54.5 -28.5t40 -48.5t15.5 -69.5q0 -21 -6.5 -60.5t-16.5 -89.5t-22 -106.5t-24 -110.5z" />
    <glyph glyph-name="zero.slashed.case" horiz-adv-x="543" 
d="M454 187q-12 -54 -33 -91.5t-50 -61t-65 -34t-78 -10.5q-30 0 -60 9.5t-54.5 28.5t-40 48.5t-15.5 69.5q0 21 6.5 60.5t16.5 89.5t22 106.5t24 110.5t33 91.5t50 61t65 34t78 10.5q30 0 60 -9.5t54.5 -28.5t40 -48.5t15.5 -69.5q0 -21 -6.5 -60.5t-16.5 -89.5t-22 -106.5
t-24 -110.5zM399 187q15 69 31 142t27 130l-344 -284q-1 -6 -1 -10.5v-8.5q0 -58 34 -86t91 -28q58 0 102.5 38t59.5 107zM182 513q-15 -69 -31 -141t-27 -129l344 283q0 5 0.5 9.5t0.5 8.5q0 58 -34 86t-91 28q-58 0 -102.5 -38t-59.5 -107z" />
    <glyph glyph-name="uni21B2" unicode="&#x21b2;" horiz-adv-x="800" 
d="M361 20l-30 -30l-286 285l286 285l30 -30l-234 -233h584v403h44v-447h-628z" />
    <glyph glyph-name="uni21B3" unicode="&#x21b3;" horiz-adv-x="800" 
d="M673 253h-628v447h44v-403h584l-234 233l30 30l286 -285l-286 -285l-30 30z" />
    <glyph glyph-name="uni21B0" unicode="&#x21b0;" horiz-adv-x="800" 
d="M361 20l-30 -30l-286 285l286 285l30 -30l-234 -233h628v-481h-44v437h-584z" />
    <glyph glyph-name="uni21B1" unicode="&#x21b1;" horiz-adv-x="800" 
d="M89 -184h-44v481h628l-234 233l30 30l286 -285l-286 -285l-30 30l234 233h-584v-437z" />
    <glyph glyph-name="uni2190" unicode="&#x2190;" horiz-adv-x="800" 
d="M361 20l-30 -30l-286 285l286 285l30 -30l-234 -233h628v-44h-628z" />
    <glyph glyph-name="uni2191" unicode="&#x2191;" horiz-adv-x="800" 
d="M422 628v-628h-44v628l-233 -234l-30 30l285 286l285 -286l-30 -30z" />
    <glyph glyph-name="uni2192" unicode="&#x2192;" horiz-adv-x="800" 
d="M673 253h-628v44h628l-234 233l30 30l286 -285l-286 -285l-30 30z" />
    <glyph glyph-name="uni2193" unicode="&#x2193;" horiz-adv-x="800" 
d="M655 306l30 -30l-285 -286l-285 286l30 30l233 -234v628h44v-628z" />
    <glyph glyph-name="uni2196" unicode="&#x2196;" horiz-adv-x="800" 
d="M206 529l503 -503l-31 -31l-504 503v-330h-43v404h405v-43h-330z" />
    <glyph glyph-name="uni2197" unicode="&#x2197;" horiz-adv-x="800" 
d="M264 529v43h405v-404h-43v330l-504 -503l-31 31l503 503h-330z" />
    <glyph glyph-name="uni2198" unicode="&#x2198;" horiz-adv-x="800" 
d="M594 43l-503 503l31 31l504 -503v330h43v-404h-405v43h330z" />
    <glyph glyph-name="uni2199" unicode="&#x2199;" horiz-adv-x="800" 
d="M536 43v-43h-405v404h43v-330l504 503l31 -31l-503 -503h330z" />
    <glyph glyph-name="uni25A0" unicode="&#x25a0;" horiz-adv-x="800" 
d="M142 516h516v-516h-516v516z" />
    <glyph glyph-name="uni25A1" unicode="&#x25a1;" horiz-adv-x="800" 
d="M142 516h516v-516h-516v516zM186 44h428v428h-428v-428z" />
    <glyph glyph-name="uni25CB" unicode="&#x25cb;" horiz-adv-x="800" 
d="M130 260q0 56 21 105t58 86t86 58t105 21t105 -21t86 -58t58 -86t21 -105t-21 -105t-58 -86t-86 -58t-105 -21t-105 21t-86 58t-58 86t-21 105zM173 260q0 -47 18 -88.5t48.5 -72t72 -48.5t88.5 -18t88.5 18t72 48.5t48.5 72t18 88.5t-18 88.5t-48.5 72t-72 48.5
t-88.5 18t-88.5 -18t-72 -48.5t-48.5 -72t-18 -88.5z" />
    <glyph glyph-name="uni25CF" unicode="&#x25cf;" horiz-adv-x="800" 
d="M130 260q0 56 21 105t58 86t86 58t105 21t105 -21t86 -58t58 -86t21 -105t-21 -105t-58 -86t-86 -58t-105 -21t-105 21t-86 58t-58 86t-21 105z" />
    <glyph glyph-name="onethird" unicode="&#x2153;" horiz-adv-x="713" 
d="M231 641l-93 -67l12 59l93 67h43l-87 -406h-43zM612 700l-481 -700h-48l481 700h48zM493 -6q-26 0 -45 8.5t-31 22t-18 30.5t-6 34q0 4 0.5 12.5t2.5 14.5h41q-3 -14 -3 -21q0 -27 17 -43.5t48 -16.5q19 0 34.5 7.5t27 20.5t18 29t6.5 33q0 24 -15.5 41.5t-44.5 17.5h-29
l9 41h29q19 0 35.5 7.5t28.5 19.5t19 27.5t7 31.5q0 27 -17 43.5t-49 16.5t-56 -22.5t-30 -64.5h-43q13 67 45.5 97.5t90.5 30.5q26 0 45 -8.5t31 -22t18 -30.5t6 -34q0 -45 -21.5 -74.5t-52.5 -43.5q17 -11 26.5 -29.5t9.5 -40.5q0 -28 -8.5 -52.5t-25 -43t-42 -29
t-58.5 -10.5z" />
    <glyph glyph-name="uni2155" unicode="&#x2155;" horiz-adv-x="714" 
d="M231 641l-93 -67l12 59l93 67h43l-87 -406h-43zM612 700l-481 -700h-48l481 700h48zM504 -6q-26 0 -45 8.5t-31.5 22t-18.5 30.5t-6 34q0 4 0.5 12.5t2.5 14.5h41q-2 -7 -2 -12v-9q0 -27 16.5 -43.5t48.5 -16.5q29 0 53 19.5t32 57.5q5 20 6 32t1 17q0 23 -15.5 39.5
t-49.5 16.5q-21 0 -40.5 -11t-31.5 -34h-44l50 234h213l-9 -41h-170l-29 -136q10 13 28.5 20.5t40.5 7.5q26 0 45 -8.5t31 -22t18 -30.5t6 -34q0 -6 -1.5 -16.5t-7.5 -36.5q-13 -60 -45.5 -87.5t-86.5 -27.5z" />
    <glyph glyph-name="uni2159" unicode="&#x2159;" horiz-adv-x="710" 
d="M231 641l-93 -67l12 59l93 67h43l-87 -406h-43zM612 700l-481 -700h-48l481 700h48zM496 -6q-26 0 -45 8.5t-31 22t-18 30.5t-6 34q0 10 4.5 37t11 58.5t13 62.5t10.5 50q14 60 46.5 87.5t86.5 27.5q26 0 45 -8.5t31 -22t18 -30.5t6 -34q0 -9 -3 -27h-41q3 13 3 21
q0 27 -17 43.5t-49 16.5q-29 0 -52 -18.5t-31 -54.5q-2 -11 -6.5 -31.5t-9.5 -43.5q11 13 31 21.5t42 8.5q26 0 45 -8.5t31 -22t18 -30.5t6 -34q0 -6 -1 -19t-5 -30q-13 -60 -46 -87.5t-87 -27.5zM503 35q29 0 52 18.5t31 54.5q5 20 5.5 32t0.5 17q0 23 -15.5 39.5
t-48.5 16.5q-29 0 -52.5 -19t-31.5 -55q-3 -14 -5 -26.5t-2 -17.5q0 -27 17 -43.5t49 -16.5z" />
    <glyph glyph-name="oneeighth" unicode="&#x215b;" horiz-adv-x="681" 
d="M231 641l-93 -67l12 59l93 67h43l-87 -406h-43zM612 700l-481 -700h-48l481 700h48zM483 -6q-28 0 -48 9.5t-33 24t-19 32t-6 34.5q0 42 17 74t52 46q-13 14 -19 30t-6 33q0 57 32.5 96t97.5 39q23 0 40.5 -8.5t29.5 -22t18.5 -30t6.5 -33.5q0 -41 -17 -72.5t-50 -47.5
q16 -15 23.5 -34t7.5 -37q0 -58 -31 -95.5t-96 -37.5zM489 35q32 0 56 23t24 62q0 27 -18 46t-53 19q-32 0 -56 -23.5t-24 -62.5q0 -27 18 -45.5t53 -18.5zM523 225q35 0 58.5 26t23.5 61q0 28 -17.5 43.5t-43.5 15.5q-35 0 -58.5 -26t-23.5 -61q0 -28 17.5 -43.5
t43.5 -15.5z" />
    <glyph glyph-name="twothirds" unicode="&#x2154;" horiz-adv-x="774" 
d="M68 335l178 160q11 10 23 22t21.5 26t16 29.5t6.5 32.5q0 27 -16.5 43.5t-48.5 16.5t-56.5 -22.5t-29.5 -64.5h-43q13 66 45.5 97t89.5 31q26 0 45 -8.5t31.5 -22t18.5 -30.5t6 -34q0 -26 -7 -47t-18 -38t-25.5 -32t-30.5 -29l-144 -130h171l-8 -41h-234zM673 700
l-481 -700h-48l481 700h48zM554 -6q-26 0 -45 8.5t-31 22t-18 30.5t-6 34q0 4 0.5 12.5t2.5 14.5h41q-3 -14 -3 -21q0 -27 17 -43.5t48 -16.5q19 0 34.5 7.5t27 20.5t18 29t6.5 33q0 24 -15.5 41.5t-44.5 17.5h-29l9 41h29q19 0 35.5 7.5t28.5 19.5t19 27.5t7 31.5
q0 27 -17 43.5t-49 16.5t-56 -22.5t-30 -64.5h-43q13 67 45.5 97.5t90.5 30.5q26 0 45 -8.5t31 -22t18 -30.5t6 -34q0 -45 -21.5 -74.5t-52.5 -43.5q17 -11 26.5 -29.5t9.5 -40.5q0 -28 -8.5 -52.5t-25 -43t-42 -29t-58.5 -10.5z" />
    <glyph glyph-name="uni2156" unicode="&#x2156;" horiz-adv-x="774" 
d="M68 335l178 160q11 10 23 22t21.5 26t16 29.5t6.5 32.5q0 27 -16.5 43.5t-48.5 16.5t-56.5 -22.5t-29.5 -64.5h-43q13 66 45.5 97t89.5 31q26 0 45 -8.5t31.5 -22t18.5 -30.5t6 -34q0 -26 -7 -47t-18 -38t-25.5 -32t-30.5 -29l-144 -130h171l-8 -41h-234zM673 700
l-481 -700h-48l481 700h48zM565 -6q-26 0 -45 8.5t-31.5 22t-18.5 30.5t-6 34q0 4 0.5 12.5t2.5 14.5h41q-2 -7 -2 -12v-9q0 -27 16.5 -43.5t48.5 -16.5q29 0 53 19.5t32 57.5q5 20 6 32t1 17q0 23 -15.5 39.5t-49.5 16.5q-21 0 -40.5 -11t-31.5 -34h-44l50 234h213l-9 -41
h-170l-29 -136q10 13 28.5 20.5t40.5 7.5q26 0 45 -8.5t31 -22t18 -30.5t6 -34q0 -6 -1.5 -16.5t-7.5 -36.5q-13 -60 -45.5 -87.5t-86.5 -27.5z" />
    <glyph glyph-name="uni2157" unicode="&#x2157;" horiz-adv-x="770" 
d="M184 288q-26 0 -45 8.5t-31 22t-18 30.5t-6 34q0 4 0.5 12.5t2.5 14.5h41q-3 -14 -3 -21q0 -27 17 -43.5t48 -16.5q19 0 34.5 7.5t27 20.5t18 29t6.5 33q0 24 -15.5 41.5t-44.5 17.5h-29l9 41h29q19 0 35.5 7.5t28.5 19.5t19 27.5t7 31.5q0 27 -17 43.5t-49 16.5
t-56 -22.5t-30 -64.5h-43q13 67 45.5 97.5t90.5 30.5q26 0 45 -8.5t31 -22t18 -30.5t6 -34q0 -45 -21.5 -74.5t-52.5 -43.5q17 -11 26.5 -29.5t9.5 -40.5q0 -28 -8.5 -52.5t-25 -43t-42 -29t-58.5 -10.5zM668 700l-481 -700h-48l481 700h48zM561 -6q-26 0 -45 8.5t-31.5 22
t-18.5 30.5t-6 34q0 4 0.5 12.5t2.5 14.5h41q-2 -7 -2 -12v-9q0 -27 16.5 -43.5t48.5 -16.5q29 0 53 19.5t32 57.5q5 20 6 32t1 17q0 23 -15.5 39.5t-49.5 16.5q-21 0 -40.5 -11t-31.5 -34h-44l50 234h213l-9 -41h-170l-29 -136q10 13 28.5 20.5t40.5 7.5q26 0 45 -8.5
t31 -22t18 -30.5t6 -34q0 -6 -1.5 -16.5t-7.5 -36.5q-13 -60 -45.5 -87.5t-86.5 -27.5z" />
    <glyph glyph-name="threeeighths" unicode="&#x215c;" horiz-adv-x="737" 
d="M184 288q-26 0 -45 8.5t-31 22t-18 30.5t-6 34q0 4 0.5 12.5t2.5 14.5h41q-3 -14 -3 -21q0 -27 17 -43.5t48 -16.5q19 0 34.5 7.5t27 20.5t18 29t6.5 33q0 24 -15.5 41.5t-44.5 17.5h-29l9 41h29q19 0 35.5 7.5t28.5 19.5t19 27.5t7 31.5q0 27 -17 43.5t-49 16.5
t-56 -22.5t-30 -64.5h-43q13 67 45.5 97.5t90.5 30.5q26 0 45 -8.5t31 -22t18 -30.5t6 -34q0 -45 -21.5 -74.5t-52.5 -43.5q17 -11 26.5 -29.5t9.5 -40.5q0 -28 -8.5 -52.5t-25 -43t-42 -29t-58.5 -10.5zM668 700l-481 -700h-48l481 700h48zM540 -6q-28 0 -48 9.5t-33 24
t-19 32t-6 34.5q0 42 17 74t52 46q-13 14 -19 30t-6 33q0 57 32.5 96t97.5 39q23 0 40.5 -8.5t29.5 -22t18.5 -30t6.5 -33.5q0 -41 -17 -72.5t-50 -47.5q16 -15 23.5 -34t7.5 -37q0 -58 -31 -95.5t-96 -37.5zM546 35q32 0 56 23t24 62q0 27 -18 46t-53 19q-32 0 -56 -23.5
t-24 -62.5q0 -27 18 -45.5t53 -18.5zM580 225q35 0 58.5 26t23.5 61q0 28 -17.5 43.5t-43.5 15.5q-35 0 -58.5 -26t-23.5 -61q0 -28 17.5 -43.5t43.5 -15.5z" />
    <glyph glyph-name="uni2158" unicode="&#x2158;" horiz-adv-x="737" 
d="M213 404h-185l8 39l241 257h43l-55 -257h42l-8 -39h-43l-23 -110h-43zM222 443l39 183l-171 -183h132zM636 700l-481 -700h-48l481 700h48zM528 -6q-26 0 -45 8.5t-31.5 22t-18.5 30.5t-6 34q0 4 0.5 12.5t2.5 14.5h41q-2 -7 -2 -12v-9q0 -27 16.5 -43.5t48.5 -16.5
q29 0 53 19.5t32 57.5q5 20 6 32t1 17q0 23 -15.5 39.5t-49.5 16.5q-21 0 -40.5 -11t-31.5 -34h-44l50 234h213l-9 -41h-170l-29 -136q10 13 28.5 20.5t40.5 7.5q26 0 45 -8.5t31 -22t18 -30.5t6 -34q0 -6 -1.5 -16.5t-7.5 -36.5q-13 -60 -45.5 -87.5t-86.5 -27.5z" />
    <glyph glyph-name="uni215A" unicode="&#x215a;" horiz-adv-x="767" 
d="M194 288q-26 0 -45 8.5t-31.5 22t-18.5 30.5t-6 34q0 4 0.5 12.5t2.5 14.5h41q-2 -7 -2 -12v-9q0 -27 16.5 -43.5t48.5 -16.5q29 0 53 19.5t32 57.5q5 20 6 32t1 17q0 23 -15.5 39.5t-49.5 16.5q-21 0 -40.5 -11t-31.5 -34h-44l50 234h213l-9 -41h-170l-29 -136
q10 13 28.5 20.5t40.5 7.5q26 0 45 -8.5t31 -22t18 -30.5t6 -34q0 -6 -1.5 -16.5t-7.5 -36.5q-13 -60 -45.5 -87.5t-86.5 -27.5zM669 700l-481 -700h-48l481 700h48zM553 -6q-26 0 -45 8.5t-31 22t-18 30.5t-6 34q0 10 4.5 37t11 58.5t13 62.5t10.5 50q14 60 46.5 87.5
t86.5 27.5q26 0 45 -8.5t31 -22t18 -30.5t6 -34q0 -9 -3 -27h-41q3 13 3 21q0 27 -17 43.5t-49 16.5q-29 0 -52 -18.5t-31 -54.5q-2 -11 -6.5 -31.5t-9.5 -43.5q11 13 31 21.5t42 8.5q26 0 45 -8.5t31 -22t18 -30.5t6 -34q0 -6 -1 -19t-5 -30q-13 -60 -46 -87.5t-87 -27.5z
M560 35q29 0 52 18.5t31 54.5q5 20 5.5 32t0.5 17q0 23 -15.5 39.5t-48.5 16.5q-29 0 -52.5 -19t-31.5 -55q-3 -14 -5 -26.5t-2 -17.5q0 -27 17 -43.5t49 -16.5z" />
    <glyph glyph-name="fiveeighths" unicode="&#x215d;" horiz-adv-x="737" 
d="M194 288q-26 0 -45 8.5t-31.5 22t-18.5 30.5t-6 34q0 4 0.5 12.5t2.5 14.5h41q-2 -7 -2 -12v-9q0 -27 16.5 -43.5t48.5 -16.5q29 0 53 19.5t32 57.5q5 20 6 32t1 17q0 23 -15.5 39.5t-49.5 16.5q-21 0 -40.5 -11t-31.5 -34h-44l50 234h213l-9 -41h-170l-29 -136
q10 13 28.5 20.5t40.5 7.5q26 0 45 -8.5t31 -22t18 -30.5t6 -34q0 -6 -1.5 -16.5t-7.5 -36.5q-13 -60 -45.5 -87.5t-86.5 -27.5zM669 700l-481 -700h-48l481 700h48zM540 -6q-28 0 -48 9.5t-33 24t-19 32t-6 34.5q0 42 17 74t52 46q-13 14 -19 30t-6 33q0 57 32.5 96
t97.5 39q23 0 40.5 -8.5t29.5 -22t18.5 -30t6.5 -33.5q0 -41 -17 -72.5t-50 -47.5q16 -15 23.5 -34t7.5 -37q0 -58 -31 -95.5t-96 -37.5zM546 35q32 0 56 23t24 62q0 27 -18 46t-53 19q-32 0 -56 -23.5t-24 -62.5q0 -27 18 -45.5t53 -18.5zM580 225q35 0 58.5 26t23.5 61
q0 28 -17.5 43.5t-43.5 15.5q-35 0 -58.5 -26t-23.5 -61q0 -28 17.5 -43.5t43.5 -15.5z" />
    <glyph glyph-name="seveneighths" unicode="&#x215e;" horiz-adv-x="668" 
d="M302 659h-183l9 41h230l-8 -41l-207 -365h-47zM600 700l-481 -700h-48l481 700h48zM471 -6q-28 0 -48 9.5t-33 24t-19 32t-6 34.5q0 42 17 74t52 46q-13 14 -19 30t-6 33q0 57 32.5 96t97.5 39q23 0 40.5 -8.5t29.5 -22t18.5 -30t6.5 -33.5q0 -41 -17 -72.5t-50 -47.5
q16 -15 23.5 -34t7.5 -37q0 -58 -31 -95.5t-96 -37.5zM477 35q32 0 56 23t24 62q0 27 -18 46t-53 19q-32 0 -56 -23.5t-24 -62.5q0 -27 18 -45.5t53 -18.5zM511 225q35 0 58.5 26t23.5 61q0 28 -17.5 43.5t-43.5 15.5q-35 0 -58.5 -26t-23.5 -61q0 -28 17.5 -43.5
t43.5 -15.5z" />
    <glyph glyph-name="uni215F" unicode="&#x215f;" horiz-adv-x="373" 
d="M231 641l-93 -67l12 59l93 67h43l-87 -406h-43zM612 700l-481 -700h-48l481 700h48z" />
    <glyph glyph-name="fraction" unicode="&#x2044;" horiz-adv-x="89" 
d="M329 700l-481 -700h-48l481 700h48z" />
    <glyph glyph-name="a.superior" horiz-adv-x="312" 
d="M185 436q35 0 61 19t34 57l8 36q-50 -3 -77.5 -6.5t-51.5 -13.5q-17 -7 -26.5 -18t-9.5 -31q0 -18 15 -30.5t47 -12.5zM176 395q-47 0 -71.5 25t-24.5 55q0 39 17 60.5t60 34.5q27 8 64 11.5t75 5.5q2 9 3 17t1 13q0 26 -19.5 38.5t-42.5 12.5q-30 0 -52 -15t-33 -44h-43
q15 54 48.5 76.5t84.5 22.5q19 0 37.5 -5.5t32 -16.5t22 -26.5t8.5 -36.5q0 -16 -7 -48t-13 -63l-12 -56q-5 -21 -8.5 -38.5t-3.5 -16.5h-43l7 32q-12 -17 -35 -27.5t-52 -10.5z" />
    <glyph glyph-name="b.superior" horiz-adv-x="320" 
d="M203 436q34 0 57.5 19t31.5 57q3 13 6 28.5t6 30t5 27t2 19.5q0 26 -19 38.5t-43 12.5q-34 0 -57.5 -19t-31.5 -57q-3 -13 -6 -28.5t-6 -30.5t-5 -27t-2 -19q0 -27 19 -39t43 -12zM201 395q-26 0 -45 12t-28 31l-8 -37h-43l86 406h43l-29 -136q11 14 31.5 25.5t50.5 11.5
q17 0 34.5 -5.5t31 -16.5t22 -26.5t8.5 -36.5q0 -16 -7 -48t-13 -63q-14 -64 -48.5 -90.5t-85.5 -26.5z" />
    <glyph glyph-name="c.superior" horiz-adv-x="305" 
d="M189 395q-20 0 -38 5.5t-31.5 16.5t-22 27t-8.5 37q0 15 7 47.5t13 62.5q14 65 48.5 91t89.5 26q19 0 37 -5.5t32 -16.5t22.5 -26.5t8.5 -36.5q0 -4 -0.5 -8t-1.5 -9h-43q1 4 1 11q0 26 -19 38.5t-43 12.5q-34 0 -57.5 -19t-31.5 -57q-3 -13 -6.5 -28.5t-6.5 -30.5
t-5 -27t-2 -19q0 -27 19.5 -39t42.5 -12q31 0 53.5 15.5t32.5 46.5h43q-15 -57 -48.5 -80t-85.5 -23z" />
    <glyph glyph-name="d.superior" horiz-adv-x="319" 
d="M194 436q35 0 58 19t31 57q3 13 6.5 28.5t6.5 30t5 27t2 19.5q0 26 -19 38.5t-43 12.5q-34 0 -57.5 -19t-31.5 -57q-3 -13 -6.5 -28.5t-6.5 -30.5t-5 -27t-2 -19q0 -27 19.5 -39t42.5 -12zM185 395q-18 0 -35 5.5t-30.5 16.5t-22 27t-8.5 37q0 15 7 47.5t13 62.5
q14 65 48.5 91t85.5 26q26 0 45 -11.5t28 -31.5l30 142h43l-86 -406h-43l7 32q-11 -15 -31.5 -26.5t-50.5 -11.5z" />
    <glyph glyph-name="e.superior" horiz-adv-x="308" 
d="M189 395q-20 0 -38 5.5t-31.5 16.5t-22 27t-8.5 37q0 15 7 47.5t13 62.5q14 65 48.5 91t89.5 26q19 0 37 -5.5t32 -16.5t22.5 -26.5t8.5 -36.5q0 -12 -4.5 -34.5l-9.5 -47.5h-192q-4 -17 -6.5 -31.5t-2.5 -22.5q0 -27 19.5 -39t42.5 -12q30 0 52 15t33 44h43
q-15 -54 -48.5 -77t-84.5 -23zM298 580q2 12 3.5 21.5t1.5 15.5q0 26 -19 38.5t-43 12.5q-38 0 -62 -23.5t-29 -64.5h148z" />
    <glyph glyph-name="f.superior" horiz-adv-x="190" 
d="M147 660h-42l9 40h42l8 36q4 19 9 32.5t14 22t24 12.5t39 4h45l-8 -41h-46q-16 0 -23.5 -6t-10.5 -21l-8 -39h74l-9 -40h-74l-55 -259h-43z" />
    <glyph glyph-name="g.superior" horiz-adv-x="319" 
d="M196 447q34 0 57.5 19t31.5 57q5 26 11.5 53t6.5 41q0 26 -19.5 38.5t-42.5 12.5q-35 0 -58 -19t-31 -57q-5 -26 -11.5 -53t-6.5 -41q0 -26 19.5 -38.5t42.5 -12.5zM166 288q-20 0 -38 5.5t-31.5 16.5t-22 27t-8.5 37v7.5t1 9.5h43q-1 -4 -1 -11q0 -26 19.5 -38.5
t42.5 -12.5q34 0 57.5 19t31.5 57l8 40q-10 -15 -30.5 -26.5t-50.5 -11.5q-18 0 -35 5.5t-30.5 16.5t-22 26.5t-8.5 36.5q0 16 5.5 42t12.5 57q14 65 48 91t85 26q26 0 45 -11.5t28 -31.5l8 35h43l-63 -294q-14 -65 -48 -91.5t-89 -26.5z" />
    <glyph glyph-name="h.superior" horiz-adv-x="323" 
d="M163 807h43l-29 -136q11 14 31.5 25.5t50.5 11.5q17 0 34.5 -5.5t31 -16.5t22 -26.5t8.5 -36.5q0 -15 -6.5 -47.5t-13.5 -63.5l-24 -111h-43l24 111q3 13 6.5 28.5t6 30t4.5 27t2 19.5q0 26 -19 38.5t-43 12.5q-34 0 -57.5 -19t-31.5 -57l-40 -191h-43z" />
    <glyph glyph-name="i.superior" horiz-adv-x="136" 
d="M141 700h43l-64 -299h-43zM163 807h43l-12 -56h-43z" />
    <glyph glyph-name="j.superior" horiz-adv-x="136" 
d="M27 335h8q16 0 23.5 6.5t10.5 20.5l72 338h43l-72 -335q-4 -19 -9 -32.5t-14 -22t-23.5 -12.5t-38.5 -4h-9zM163 807h43l-12 -56h-43z" />
    <glyph glyph-name="k.superior" horiz-adv-x="299" 
d="M154 562l157 138h57l-133 -117l85 -182h-46l-72 154l-61 -55l-21 -99h-43l86 406h43z" />
    <glyph glyph-name="l.superior" horiz-adv-x="153" 
d="M147 401q-29 0 -43.5 13.5t-14.5 36.5q0 8 2.5 23t10.5 52t22 103.5t38 177.5h43q-18 -85 -30.5 -143.5t-20.5 -97t-13 -60t-7 -32t-2.5 -13.5t-0.5 -4q0 -15 24 -15h9l-8 -41h-9z" />
    <glyph glyph-name="m.superior" horiz-adv-x="497" 
d="M141 700h43l-7 -29q11 17 30.5 27t43.5 10q26 0 47.5 -11t35.5 -31q17 24 43 33t55 9q18 0 35 -5.5t30.5 -16.5t22 -26.5t8.5 -36.5q0 -15 -6.5 -47.5t-13.5 -63.5l-24 -111h-43l24 111q3 13 6.5 28.5t6.5 30.5t5 27t2 19q0 26 -18.5 38.5t-41.5 12.5q-29 0 -51.5 -20.5
t-30.5 -55.5l-41 -191h-43l24 111q3 13 6.5 28.5t6.5 30.5t5 27t2 19q0 26 -18.5 38.5t-41.5 12.5q-29 0 -52 -20.5t-31 -55.5l-40 -191h-43z" />
    <glyph glyph-name="n.superior" unicode="&#x207f;" horiz-adv-x="323" 
d="M141 700h43l-7 -29q11 14 31.5 25.5t50.5 11.5q17 0 34.5 -5.5t31 -16.5t22 -26.5t8.5 -36.5q0 -15 -6.5 -47.5t-13.5 -63.5l-24 -111h-43l24 111q3 13 6.5 28.5t6 30t4.5 27t2 19.5q0 26 -19 38.5t-43 12.5q-34 0 -57.5 -19t-31.5 -57l-40 -191h-43z" />
    <glyph glyph-name="o.superior" horiz-adv-x="312" 
d="M194 436q35 0 58 19t31 57q3 13 6.5 28.5t6.5 30.5t5 27t2 19q0 26 -19 38.5t-43 12.5q-34 0 -57.5 -19t-31.5 -57q-3 -13 -6.5 -28.5t-6.5 -30.5t-5 -27t-2 -19q0 -27 19.5 -39t42.5 -12zM189 395q-20 0 -38 5.5t-31.5 16.5t-22 27t-8.5 37q0 15 7 47.5t13 62.5
q14 65 48.5 91t89.5 26q19 0 37 -5.5t32 -16.5t22.5 -26.5t8.5 -36.5q0 -16 -7 -48t-14 -63q-14 -64 -48 -90.5t-89 -26.5z" />
    <glyph glyph-name="p.superior" horiz-adv-x="320" 
d="M203 436q34 0 57.5 19t31.5 57q3 13 6 28.5t6 30t5 27t2 19.5q0 26 -19 38.5t-43 12.5q-34 0 -57.5 -19t-31.5 -57q-3 -13 -6 -28.5t-6 -30.5t-5 -27t-2 -19q0 -27 19 -39t43 -12zM141 700h43l-7 -29q11 14 31.5 25.5t50.5 11.5q17 0 34.5 -5.5t31 -16.5t22 -26.5
t8.5 -36.5q0 -16 -7 -48t-13 -63q-14 -64 -48.5 -90.5t-85.5 -26.5q-26 0 -45 12t-28 31l-31 -144h-43z" />
    <glyph glyph-name="q.superior" horiz-adv-x="319" 
d="M194 436q35 0 58 19t31 57q3 13 6.5 28.5t6.5 30.5t5 27t2 19q0 26 -19 38.5t-43 12.5q-34 0 -57.5 -19t-31.5 -57q-3 -13 -6.5 -28.5t-6.5 -30.5t-5 -27t-2 -19q0 -27 19.5 -39t42.5 -12zM267 433q-11 -15 -31.5 -26.5t-50.5 -11.5q-18 0 -35 5.5t-30.5 16.5t-22 27
t-8.5 37q0 15 7 47.5t13 62.5q14 65 48.5 91t85.5 26q26 0 45 -11.5t28 -31.5l8 35h43l-87 -406h-43z" />
    <glyph glyph-name="r.superior" horiz-adv-x="195" 
d="M77 401l64 299h43l-7 -32q10 14 30.5 26t50.5 12h19l-9 -41h-19q-34 0 -57.5 -19t-31.5 -57l-40 -188h-43z" />
    <glyph glyph-name="s.superior" horiz-adv-x="279" 
d="M187 395q-21 0 -40.5 5.5t-35.5 17t-25.5 29t-9.5 40.5q0 7 1 10h43v-6q0 -29 22 -42t51 -13q10 0 21 2.5t20.5 8t15.5 14.5t6 23t-8.5 26t-31.5 19l-39 12q-29 9 -46 27t-17 48q0 41 27 66.5t80 25.5q44 0 71.5 -23.5t27.5 -61.5v-10h-43v4q0 26 -18.5 38.5t-40.5 12.5
q-23 0 -42 -11.5t-19 -34.5q0 -14 7 -25.5t27 -17.5l40 -11q30 -9 49 -27.5t19 -47.5q0 -45 -27.5 -71.5t-84.5 -26.5z" />
    <glyph glyph-name="t.superior" horiz-adv-x="204" 
d="M162 401q-29 0 -43.5 13.5t-14.5 36.5q0 6 1.5 16.5t6 33t13 60t21.5 99.5h-43l9 40h42l15 68h43l-15 -68h74l-8 -40h-74q-15 -73 -24 -113t-13 -59.5t-5 -24t-1 -6.5q0 -15 24 -15h47l-9 -41h-46z" />
    <glyph glyph-name="u.superior" horiz-adv-x="320" 
d="M188 395q-17 0 -34 5.5t-30.5 16.5t-22 27t-8.5 37q0 15 7 47.5t13 62.5l23 109h43l-23 -108q-3 -13 -6 -28.5t-6 -30.5t-5 -27t-2 -19q0 -26 18.5 -38.5t41.5 -12.5q33 0 56 19t31 57l40 188h43l-64 -299h-43l7 32q-10 -14 -30.5 -26t-48.5 -12z" />
    <glyph glyph-name="v.superior" horiz-adv-x="277" 
d="M100 700h42l36 -248l140 248h46l-171 -299h-48z" />
    <glyph glyph-name="w.superior" horiz-adv-x="403" 
d="M105 700h41l10 -228l113 228h48l15 -234l110 234h44l-142 -299h-45l-15 239l-119 -239h-45z" />
    <glyph glyph-name="x.superior" horiz-adv-x="281" 
d="M176 553l-66 147h45l52 -114l99 114h51l-131 -148l68 -151h-44l-53 119l-103 -119h-52z" />
    <glyph glyph-name="y.superior" horiz-adv-x="277" 
d="M69 335h22q14 0 20 5.5t11 13.5l24 41l-46 305h42l36 -248l139 248h47l-214 -374q-10 -17 -27 -24t-46 -8h-17z" />
    <glyph glyph-name="z.superior" horiz-adv-x="277" 
d="M122 442h169l-8 -41h-225l8 41l211 218h-161l8 40h218l-9 -40z" />
    <glyph glyph-name="four.superior" unicode="&#x2074;" horiz-adv-x="302" 
d="M250 511h-185l8 39l241 257h43l-55 -257h42l-8 -39h-43l-23 -110h-43zM259 550l39 183l-171 -183h132z" />
    <glyph glyph-name="five.superior" unicode="&#x2075;" horiz-adv-x="303" 
d="M196 395q-26 0 -45 8.5t-31.5 22t-18.5 30.5t-6 34q0 4 0.5 12.5t2.5 14.5h41q-2 -7 -2 -12v-9q0 -27 16.5 -43.5t48.5 -16.5q29 0 53 19.5t32 57.5q5 20 6 32t1 17q0 23 -15.5 39.5t-49.5 16.5q-21 0 -40.5 -11t-31.5 -34h-44l50 234h213l-9 -41h-170l-29 -136
q10 13 28.5 20.5t40.5 7.5q26 0 45 -8.5t31 -22t18 -30.5t6 -34q0 -6 -1.5 -16.5t-7.5 -36.5q-13 -60 -45.5 -87.5t-86.5 -27.5z" />
    <glyph glyph-name="six.superior" unicode="&#x2076;" horiz-adv-x="307" 
d="M194 395q-26 0 -45 8.5t-31 22t-18 30.5t-6 34q0 10 4.5 37t11 58.5t13 62.5t10.5 50q14 60 46.5 87.5t86.5 27.5q26 0 45 -8.5t31 -22t18 -30.5t6 -34q0 -9 -3 -27h-41q3 13 3 21q0 27 -17 43.5t-49 16.5q-29 0 -52 -18.5t-31 -54.5q-2 -11 -6.5 -31.5t-9.5 -43.5
q11 13 31 21.5t42 8.5q26 0 45 -8.5t31 -22t18 -30.5t6 -34q0 -6 -1 -19t-5 -30q-13 -60 -46 -87.5t-87 -27.5zM201 436q29 0 52 18.5t31 54.5q5 20 5.5 32t0.5 17q0 23 -15.5 39.5t-48.5 16.5q-29 0 -52.5 -19t-31.5 -55q-3 -14 -5 -26.5t-2 -17.5q0 -27 17 -43.5t49 -16.5
z" />
    <glyph glyph-name="seven.superior" unicode="&#x2077;" horiz-adv-x="261" 
d="M304 766h-183l9 41h230l-8 -41l-207 -365h-47z" />
    <glyph glyph-name="eight.superior" unicode="&#x2078;" horiz-adv-x="298" 
d="M191 395q-28 0 -48 9.5t-33 24t-19 32t-6 34.5q0 42 17 74t52 46q-13 14 -19 30t-6 33q0 57 32.5 96t97.5 39q23 0 40.5 -8.5t29.5 -22t18.5 -30t6.5 -33.5q0 -41 -17 -72.5t-50 -47.5q16 -15 23.5 -34t7.5 -37q0 -58 -31 -95.5t-96 -37.5zM197 436q32 0 56 23t24 62
q0 27 -18 46t-53 19q-32 0 -56 -23.5t-24 -62.5q0 -27 18 -45.5t53 -18.5zM231 626q35 0 58.5 26t23.5 61q0 28 -17.5 43.5t-43.5 15.5q-35 0 -58.5 -26t-23.5 -61q0 -28 17.5 -43.5t43.5 -15.5z" />
    <glyph glyph-name="nine.superior" unicode="&#x2079;" horiz-adv-x="307" 
d="M187 395q-26 0 -45 8.5t-31 22t-18 30.5t-6 34q0 9 3 27h41q-3 -14 -3 -21q0 -27 17 -43.5t49 -16.5q29 0 52 18.5t31 54.5q2 11 6.5 31.5t9.5 43.5q-11 -13 -31 -21.5t-42 -8.5q-26 0 -45 8.5t-31 22t-18 30.5t-6 34q0 6 1 19t5 30q14 60 46.5 87.5t86.5 27.5
q26 0 45 -8.5t31 -22t18 -30.5t6 -34q0 -11 -4.5 -37.5t-11 -58t-13 -62.5t-10.5 -50q-14 -60 -46.5 -87.5t-86.5 -27.5zM227 594q29 0 52.5 19t31.5 55q3 14 5 26.5t2 17.5q0 27 -17 43.5t-49 16.5q-29 0 -52 -18.5t-31 -54.5q-5 -20 -5.5 -32t-0.5 -17q0 -23 15.5 -39.5
t48.5 -16.5z" />
    <glyph glyph-name="zero.superior" unicode="&#x2070;" horiz-adv-x="314" 
d="M201 436q29 0 52 18.5t31 54.5q3 16 10 46t14 62t12 59t5 36q0 27 -17 43.5t-49 16.5q-29 0 -52 -18.5t-31 -54.5q-3 -16 -10 -46t-13.5 -62t-12 -59t-5.5 -36q0 -27 17 -43.5t49 -16.5zM194 395q-26 0 -45 8.5t-31 22t-18 30.5t-6 34q0 10 4.5 37t11 58.5t13 62.5
t10.5 50q14 60 46.5 87.5t86.5 27.5q26 0 45 -8.5t31 -22t18 -30.5t6 -34q0 -11 -4.5 -37.5t-11 -58t-13 -62.5t-10.5 -50q-14 -60 -46.5 -87.5t-86.5 -27.5z" />
    <glyph glyph-name="zero.slashed.superior" horiz-adv-x="314" 
d="M194 395q-26 0 -45 8.5t-31 22t-18 30.5t-6 34q0 10 4.5 37t11 58.5t13 62.5t10.5 50q14 60 46.5 87.5t86.5 27.5q26 0 45 -8.5t31 -22t18 -30.5t6 -34q0 -11 -4.5 -37.5t-11 -58t-13 -62.5t-10.5 -50q-14 -60 -46.5 -87.5t-86.5 -27.5zM201 436q29 0 52 18.5t31 54.5
q2 10 6 27t8 36.5t8.5 41t8.5 40.5l-179 -148q-1 -3 -1 -5.5v-4.5q0 -27 17 -43.5t49 -16.5zM176 699q-2 -11 -5.5 -27.5t-8 -36.5t-9.5 -41.5t-9 -40.5l180 150q1 2 1 4.5v4.5q0 27 -17 43.5t-49 16.5q-29 0 -52 -18.5t-31 -54.5z" />
    <glyph glyph-name="period.superior" horiz-adv-x="165" 
d="M96 461h60l-13 -60h-60z" />
    <glyph glyph-name="hyphen.superior" horiz-adv-x="238" 
d="M103 582h169l-8 -37h-168z" />
    <glyph glyph-name="comma.superior" horiz-adv-x="165" 
d="M96 461h60l-13 -60l-32 -54h-37l32 54h-23z" />
    <glyph glyph-name="equal.superior" unicode="&#x207c;" horiz-adv-x="330" 
d="M113 520h234v-37h-234v37zM113 638h234v-37h-234v37z" />
    <glyph glyph-name="plus.superior" unicode="&#x207a;" horiz-adv-x="330" 
d="M113 582h99v98h38v-98h97v-37h-97v-99h-38v99h-99v37z" />
    <glyph glyph-name="minus.superior" unicode="&#x207b;" horiz-adv-x="330" 
d="M113 582h234v-37h-234v37z" />
    <glyph glyph-name="parenleft.superior" unicode="&#x207d;" horiz-adv-x="165" 
d="M146 335q-29 0 -43.5 15t-14.5 39q0 5 2.5 20t10.5 52t22.5 103t37.5 174q4 21 9.5 34.5t14.5 21t23.5 10.5t37.5 3h9l-8 -36h-12q-18 0 -25.5 -6.5t-10.5 -21.5q-23 -107 -37.5 -174.5t-22.5 -105.5t-11 -53t-3 -18q0 -21 26 -21h12l-8 -36h-9z" />
    <glyph glyph-name="parenright.superior" unicode="&#x207e;" horiz-adv-x="165" 
d="M151 807q29 0 43.5 -15t14.5 -39q0 -5 -2.5 -20t-10.5 -52t-22.5 -103t-37.5 -174q-5 -21 -10 -34.5t-14 -21t-23.5 -10.5t-37.5 -3h-9l8 36h12q18 0 25.5 6.5t10.5 21.5q23 107 37.5 174t22.5 105.5t11 53.5t3 18q0 21 -26 21h-12l8 36h9z" />
    <glyph glyph-name="a.inferior" horiz-adv-x="312" 
d="M80 -61q35 0 61 19t34 57l8 36q-50 -3 -77.5 -6.5t-51.5 -13.5q-17 -7 -26.5 -18t-9.5 -31q0 -18 15 -30.5t47 -12.5zM71 -102q-47 0 -71.5 25t-24.5 55q0 39 17 60.5t60 34.5q27 8 64 11.5t75 5.5q2 9 3 17t1 13q0 26 -19.5 38.5t-42.5 12.5q-30 0 -52 -15t-33 -44h-43
q15 54 48.5 76.5t84.5 22.5q19 0 37.5 -5.5t32 -16.5t22 -26.5t8.5 -36.5q0 -16 -7 -48t-13 -63l-12 -56q-5 -21 -8.5 -38.5t-3.5 -16.5h-43l7 32q-12 -17 -35 -27.5t-52 -10.5z" />
    <glyph glyph-name="b.inferior" horiz-adv-x="320" 
d="M98 -61q34 0 57.5 19t31.5 57q3 13 6 28.5t6 30t5 27t2 19.5q0 26 -19 38.5t-43 12.5q-34 0 -57.5 -19t-31.5 -57q-3 -13 -6 -28.5t-6 -30.5t-5 -27t-2 -19q0 -27 19 -39t43 -12zM96 -102q-26 0 -45 12t-28 31l-8 -37h-43l86 406h43l-29 -136q11 14 31.5 25.5t50.5 11.5
q17 0 34.5 -5.5t31 -16.5t22 -26.5t8.5 -36.5q0 -16 -7 -48t-13 -63q-14 -64 -48.5 -90.5t-85.5 -26.5z" />
    <glyph glyph-name="c.inferior" horiz-adv-x="305" 
d="M84 -102q-20 0 -38 5.5t-31.5 16.5t-22 27t-8.5 37q0 15 7 47.5t13 62.5q14 65 48.5 91t89.5 26q19 0 37 -5.5t32 -16.5t22.5 -26.5t8.5 -36.5q0 -4 -0.5 -8t-1.5 -9h-43q1 4 1 11q0 26 -19 38.5t-43 12.5q-34 0 -57.5 -19t-31.5 -57q-3 -13 -6.5 -28.5t-6.5 -30.5
t-5 -27t-2 -19q0 -27 19.5 -39t42.5 -12q31 0 53.5 15.5t32.5 46.5h43q-15 -57 -48.5 -80t-85.5 -23z" />
    <glyph glyph-name="d.inferior" horiz-adv-x="319" 
d="M89 -61q35 0 58 19t31 57q3 13 6.5 28.5t6.5 30t5 27t2 19.5q0 26 -19 38.5t-43 12.5q-34 0 -57.5 -19t-31.5 -57q-3 -13 -6.5 -28.5t-6.5 -30.5t-5 -27t-2 -19q0 -27 19.5 -39t42.5 -12zM80 -102q-18 0 -35 5.5t-30.5 16.5t-22 27t-8.5 37q0 15 7 47.5t13 62.5
q14 65 48.5 91t85.5 26q26 0 45 -11.5t28 -31.5l30 142h43l-86 -406h-43l7 32q-11 -15 -31.5 -26.5t-50.5 -11.5z" />
    <glyph glyph-name="e.inferior" horiz-adv-x="308" 
d="M84 -102q-20 0 -38 5.5t-31.5 16.5t-22 27t-8.5 37q0 15 7 47.5t13 62.5q14 65 48.5 91t89.5 26q19 0 37 -5.5t32 -16.5t22.5 -26.5t8.5 -36.5q0 -12 -4.5 -34.5l-9.5 -47.5h-192q-4 -17 -6.5 -31.5t-2.5 -22.5q0 -27 19.5 -39t42.5 -12q30 0 52 15t33 44h43
q-15 -54 -48.5 -77t-84.5 -23zM193 83q2 12 3.5 21.5t1.5 15.5q0 26 -19 38.5t-43 12.5q-38 0 -62 -23.5t-29 -64.5h148z" />
    <glyph glyph-name="f.inferior" horiz-adv-x="190" 
d="M42 163h-42l9 40h42l8 36q4 19 9 32.5t14 22t24 12.5t39 4h45l-8 -41h-46q-16 0 -23.5 -6t-10.5 -21l-8 -39h74l-9 -40h-74l-55 -259h-43z" />
    <glyph glyph-name="g.inferior" horiz-adv-x="319" 
d="M91 -50q34 0 57.5 19t31.5 57q5 26 11.5 53t6.5 41q0 26 -19.5 38.5t-42.5 12.5q-35 0 -58 -19t-31 -57q-5 -26 -11.5 -53t-6.5 -41q0 -26 19.5 -38.5t42.5 -12.5zM61 -209q-20 0 -38 5.5t-31.5 16.5t-22 27t-8.5 37v7.5t1 9.5h43q-1 -4 -1 -11q0 -26 19.5 -38.5
t42.5 -12.5q34 0 57.5 19t31.5 57l8 40q-10 -15 -30.5 -26.5t-50.5 -11.5q-18 0 -35 5.5t-30.5 16.5t-22 26.5t-8.5 36.5q0 16 5.5 42t12.5 57q14 65 48 91t85 26q26 0 45 -11.5t28 -31.5l8 35h43l-63 -294q-14 -65 -48 -91.5t-89 -26.5z" />
    <glyph glyph-name="h.inferior" horiz-adv-x="323" 
d="M58 310h43l-29 -136q11 14 31.5 25.5t50.5 11.5q17 0 34.5 -5.5t31 -16.5t22 -26.5t8.5 -36.5q0 -15 -6.5 -47.5t-13.5 -63.5l-24 -111h-43l24 111q3 13 6.5 28.5t6 30t4.5 27t2 19.5q0 26 -19 38.5t-43 12.5q-34 0 -57.5 -19t-31.5 -57l-40 -191h-43z" />
    <glyph glyph-name="i.inferior" horiz-adv-x="136" 
d="M36 203h43l-64 -299h-43zM58 310h43l-12 -56h-43z" />
    <glyph glyph-name="j.inferior" horiz-adv-x="136" 
d="M-78 -162h8q16 0 23.5 6.5t10.5 20.5l72 338h43l-72 -335q-4 -19 -9 -32.5t-14 -22t-23.5 -12.5t-38.5 -4h-9zM58 310h43l-12 -56h-43z" />
    <glyph glyph-name="k.inferior" horiz-adv-x="299" 
d="M49 65l157 138h57l-133 -117l85 -182h-46l-72 154l-61 -55l-21 -99h-43l86 406h43z" />
    <glyph glyph-name="l.inferior" horiz-adv-x="153" 
d="M42 -96q-29 0 -43.5 13.5t-14.5 36.5q0 8 2.5 23t10.5 52t22 103.5t38 177.5h43q-18 -85 -30.5 -143.5t-20.5 -97t-13 -60t-7 -32t-2.5 -13.5t-0.5 -4q0 -15 24 -15h9l-8 -41h-9z" />
    <glyph glyph-name="m.inferior" horiz-adv-x="497" 
d="M36 203h43l-7 -29q11 17 30.5 27t43.5 10q26 0 47.5 -11t35.5 -31q17 24 43 33t55 9q18 0 35 -5.5t30.5 -16.5t22 -26.5t8.5 -36.5q0 -15 -6.5 -47.5t-13.5 -63.5l-24 -111h-43l24 111q3 13 6.5 28.5t6.5 30.5t5 27t2 19q0 26 -18.5 38.5t-41.5 12.5q-29 0 -51.5 -20.5
t-30.5 -55.5l-41 -191h-43l24 111q3 13 6.5 28.5t6.5 30.5t5 27t2 19q0 26 -18.5 38.5t-41.5 12.5q-29 0 -52 -20.5t-31 -55.5l-40 -191h-43z" />
    <glyph glyph-name="n.inferior" horiz-adv-x="323" 
d="M36 203h43l-7 -29q11 14 31.5 25.5t50.5 11.5q17 0 34.5 -5.5t31 -16.5t22 -26.5t8.5 -36.5q0 -15 -6.5 -47.5t-13.5 -63.5l-24 -111h-43l24 111q3 13 6.5 28.5t6 30t4.5 27t2 19.5q0 26 -19 38.5t-43 12.5q-34 0 -57.5 -19t-31.5 -57l-40 -191h-43z" />
    <glyph glyph-name="o.inferior" horiz-adv-x="312" 
d="M89 -61q35 0 58 19t31 57q3 13 6.5 28.5t6.5 30.5t5 27t2 19q0 26 -19 38.5t-43 12.5q-34 0 -57.5 -19t-31.5 -57q-3 -13 -6.5 -28.5t-6.5 -30.5t-5 -27t-2 -19q0 -27 19.5 -39t42.5 -12zM84 -102q-20 0 -38 5.5t-31.5 16.5t-22 27t-8.5 37q0 15 7 47.5t13 62.5
q14 65 48.5 91t89.5 26q19 0 37 -5.5t32 -16.5t22.5 -26.5t8.5 -36.5q0 -16 -7 -48t-14 -63q-14 -64 -48 -90.5t-89 -26.5z" />
    <glyph glyph-name="p.inferior" horiz-adv-x="320" 
d="M98 -61q34 0 57.5 19t31.5 57q3 13 6 28.5t6 30t5 27t2 19.5q0 26 -19 38.5t-43 12.5q-34 0 -57.5 -19t-31.5 -57q-3 -13 -6 -28.5t-6 -30.5t-5 -27t-2 -19q0 -27 19 -39t43 -12zM36 203h43l-7 -29q11 14 31.5 25.5t50.5 11.5q17 0 34.5 -5.5t31 -16.5t22 -26.5
t8.5 -36.5q0 -16 -7 -48t-13 -63q-14 -64 -48.5 -90.5t-85.5 -26.5q-26 0 -45 12t-28 31l-31 -144h-43z" />
    <glyph glyph-name="q.inferior" horiz-adv-x="319" 
d="M89 -61q35 0 58 19t31 57q3 13 6.5 28.5t6.5 30.5t5 27t2 19q0 26 -19 38.5t-43 12.5q-34 0 -57.5 -19t-31.5 -57q-3 -13 -6.5 -28.5t-6.5 -30.5t-5 -27t-2 -19q0 -27 19.5 -39t42.5 -12zM162 -64q-11 -15 -31.5 -26.5t-50.5 -11.5q-18 0 -35 5.5t-30.5 16.5t-22 27
t-8.5 37q0 15 7 47.5t13 62.5q14 65 48.5 91t85.5 26q26 0 45 -11.5t28 -31.5l8 35h43l-87 -406h-43z" />
    <glyph glyph-name="r.inferior" horiz-adv-x="195" 
d="M-28 -96l64 299h43l-7 -32q10 14 30.5 26t50.5 12h19l-9 -41h-19q-34 0 -57.5 -19t-31.5 -57l-40 -188h-43z" />
    <glyph glyph-name="s.inferior" horiz-adv-x="279" 
d="M82 -102q-21 0 -40.5 5.5t-35.5 17t-25.5 29t-9.5 40.5q0 7 1 10h43v-6q0 -29 22 -42t51 -13q10 0 21 2.5t20.5 8t15.5 14.5t6 23t-8.5 26t-31.5 19l-39 12q-29 9 -46 27t-17 48q0 41 27 66.5t80 25.5q44 0 71.5 -23.5t27.5 -61.5v-10h-43v4q0 26 -18.5 38.5t-40.5 12.5
q-23 0 -42 -11.5t-19 -34.5q0 -14 7 -25.5t27 -17.5l40 -11q30 -9 49 -27.5t19 -47.5q0 -45 -27.5 -71.5t-84.5 -26.5z" />
    <glyph glyph-name="t.inferior" horiz-adv-x="204" 
d="M57 -96q-29 0 -43.5 13.5t-14.5 36.5q0 6 1.5 16.5t6 33t13 60t21.5 99.5h-43l9 40h42l15 68h43l-15 -68h74l-8 -40h-74q-15 -73 -24 -113t-13 -59.5t-5 -24t-1 -6.5q0 -15 24 -15h47l-9 -41h-46z" />
    <glyph glyph-name="u.inferior" horiz-adv-x="320" 
d="M83 -102q-17 0 -34 5.5t-30.5 16.5t-22 27t-8.5 37q0 15 7 47.5t13 62.5l23 109h43l-23 -108q-3 -13 -6 -28.5t-6 -30.5t-5 -27t-2 -19q0 -26 18.5 -38.5t41.5 -12.5q33 0 56 19t31 57l40 188h43l-64 -299h-43l7 32q-10 -14 -30.5 -26t-48.5 -12z" />
    <glyph glyph-name="v.inferior" horiz-adv-x="277" 
d="M-5 203h42l36 -248l140 248h46l-171 -299h-48z" />
    <glyph glyph-name="w.inferior" horiz-adv-x="403" 
d="M0 203h41l10 -228l113 228h48l15 -234l110 234h44l-142 -299h-45l-15 239l-119 -239h-45z" />
    <glyph glyph-name="x.inferior" horiz-adv-x="281" 
d="M71 56l-66 147h45l52 -114l99 114h51l-131 -148l68 -151h-44l-53 119l-103 -119h-52z" />
    <glyph glyph-name="y.inferior" horiz-adv-x="277" 
d="M-36 -162h22q14 0 20 5.5t11 13.5l24 41l-46 305h42l36 -248l139 248h47l-214 -374q-10 -17 -27 -24t-46 -8h-17z" />
    <glyph glyph-name="z.inferior" horiz-adv-x="277" 
d="M17 -55h169l-8 -41h-225l8 41l211 218h-161l8 40h218l-9 -40z" />
    <glyph glyph-name="one.inferior" unicode="&#x2081;" horiz-adv-x="204" 
d="M108 251l-93 -67l12 59l93 67h43l-87 -406h-43z" />
    <glyph glyph-name="two.inferior" unicode="&#x2082;" horiz-adv-x="299" 
d="M-35 -55l178 160q11 10 23 22t21.5 26t16 29.5t6.5 32.5q0 27 -16.5 43.5t-48.5 16.5t-56.5 -22.5t-29.5 -64.5h-43q13 66 45.5 97t89.5 31q26 0 45 -8.5t31.5 -22t18.5 -30.5t6 -34q0 -26 -7 -47t-18 -38t-25.5 -32t-30.5 -29l-144 -130h171l-8 -41h-234z" />
    <glyph glyph-name="three.inferior" unicode="&#x2083;" horiz-adv-x="300" 
d="M81 -102q-26 0 -45 8.5t-31 22t-18 30.5t-6 34q0 4 0.5 12.5t2.5 14.5h41q-3 -14 -3 -21q0 -27 17 -43.5t48 -16.5q19 0 34.5 7.5t27 20.5t18 29t6.5 33q0 24 -15.5 41.5t-44.5 17.5h-29l9 41h29q19 0 35.5 7.5t28.5 19.5t19 27.5t7 31.5q0 27 -17 43.5t-49 16.5
t-56 -22.5t-30 -64.5h-43q13 67 45.5 97.5t90.5 30.5q26 0 45 -8.5t31 -22t18 -30.5t6 -34q0 -45 -21.5 -74.5t-52.5 -43.5q17 -11 26.5 -29.5t9.5 -40.5q0 -28 -8.5 -52.5t-25 -43t-42 -29t-58.5 -10.5z" />
    <glyph glyph-name="four.inferior" unicode="&#x2084;" horiz-adv-x="302" 
d="M145 14h-185l8 39l241 257h43l-55 -257h42l-8 -39h-43l-23 -110h-43zM154 53l39 183l-171 -183h132z" />
    <glyph glyph-name="five.inferior" unicode="&#x2085;" horiz-adv-x="303" 
d="M91 -102q-26 0 -45 8.5t-31.5 22t-18.5 30.5t-6 34q0 4 0.5 12.5t2.5 14.5h41q-2 -7 -2 -12v-9q0 -27 16.5 -43.5t48.5 -16.5q29 0 53 19.5t32 57.5q5 20 6 32t1 17q0 23 -15.5 39.5t-49.5 16.5q-21 0 -40.5 -11t-31.5 -34h-44l50 234h213l-9 -41h-170l-29 -136
q10 13 28.5 20.5t40.5 7.5q26 0 45 -8.5t31 -22t18 -30.5t6 -34q0 -6 -1.5 -16.5t-7.5 -36.5q-13 -60 -45.5 -87.5t-86.5 -27.5z" />
    <glyph glyph-name="six.inferior" unicode="&#x2086;" horiz-adv-x="307" 
d="M89 -102q-26 0 -45 8.5t-31 22t-18 30.5t-6 34q0 10 4.5 37t11 58.5t13 62.5t10.5 50q14 60 46.5 87.5t86.5 27.5q26 0 45 -8.5t31 -22t18 -30.5t6 -34q0 -9 -3 -27h-41q3 13 3 21q0 27 -17 43.5t-49 16.5q-29 0 -52 -18.5t-31 -54.5q-2 -11 -6.5 -31.5t-9.5 -43.5
q11 13 31 21.5t42 8.5q26 0 45 -8.5t31 -22t18 -30.5t6 -34q0 -6 -1 -19t-5 -30q-13 -60 -46 -87.5t-87 -27.5zM96 -61q29 0 52 18.5t31 54.5q5 20 5.5 32t0.5 17q0 23 -15.5 39.5t-48.5 16.5q-29 0 -52.5 -19t-31.5 -55q-3 -14 -5 -26.5t-2 -17.5q0 -27 17 -43.5t49 -16.5z
" />
    <glyph glyph-name="seven.inferior" unicode="&#x2087;" horiz-adv-x="261" 
d="M199 269h-183l9 41h230l-8 -41l-207 -365h-47z" />
    <glyph glyph-name="eight.inferior" unicode="&#x2088;" horiz-adv-x="298" 
d="M86 -102q-28 0 -48 9.5t-33 24t-19 32t-6 34.5q0 42 17 74t52 46q-13 14 -19 30t-6 33q0 57 32.5 96t97.5 39q23 0 40.5 -8.5t29.5 -22t18.5 -30t6.5 -33.5q0 -41 -17 -72.5t-50 -47.5q16 -15 23.5 -34t7.5 -37q0 -58 -31 -95.5t-96 -37.5zM92 -61q32 0 56 23t24 62
q0 27 -18 46t-53 19q-32 0 -56 -23.5t-24 -62.5q0 -27 18 -45.5t53 -18.5zM126 129q35 0 58.5 26t23.5 61q0 28 -17.5 43.5t-43.5 15.5q-35 0 -58.5 -26t-23.5 -61q0 -28 17.5 -43.5t43.5 -15.5z" />
    <glyph glyph-name="nine.inferior" unicode="&#x2089;" horiz-adv-x="307" 
d="M82 -102q-26 0 -45 8.5t-31 22t-18 30.5t-6 34q0 9 3 27h41q-3 -14 -3 -21q0 -27 17 -43.5t49 -16.5q29 0 52 18.5t31 54.5q2 11 6.5 31.5t9.5 43.5q-11 -13 -31 -21.5t-42 -8.5q-26 0 -45 8.5t-31 22t-18 30.5t-6 34q0 6 1 19t5 30q14 60 46.5 87.5t86.5 27.5
q26 0 45 -8.5t31 -22t18 -30.5t6 -34q0 -11 -4.5 -37.5t-11 -58t-13 -62.5t-10.5 -50q-14 -60 -46.5 -87.5t-86.5 -27.5zM122 97q29 0 52.5 19t31.5 55q3 14 5 26.5t2 17.5q0 27 -17 43.5t-49 16.5q-29 0 -52 -18.5t-31 -54.5q-5 -20 -5.5 -32t-0.5 -17q0 -23 15.5 -39.5
t48.5 -16.5z" />
    <glyph glyph-name="zero.inferior" unicode="&#x2080;" horiz-adv-x="314" 
d="M96 -61q29 0 52 18.5t31 54.5q3 16 10 46t14 62t12 59t5 36q0 27 -17 43.5t-49 16.5q-29 0 -52 -18.5t-31 -54.5q-3 -16 -10 -46t-13.5 -62t-12 -59t-5.5 -36q0 -27 17 -43.5t49 -16.5zM89 -102q-26 0 -45 8.5t-31 22t-18 30.5t-6 34q0 10 4.5 37t11 58.5t13 62.5
t10.5 50q14 60 46.5 87.5t86.5 27.5q26 0 45 -8.5t31 -22t18 -30.5t6 -34q0 -11 -4.5 -37.5t-11 -58t-13 -62.5t-10.5 -50q-14 -60 -46.5 -87.5t-86.5 -27.5z" />
    <glyph glyph-name="zero.slashed.inferior" horiz-adv-x="314" 
d="M88 -103q-26 0 -45 8.5t-31 22t-18 30.5t-6 34q0 10 4.5 37t11 58.5t13 62.5t10.5 50q14 60 46.5 87.5t86.5 27.5q26 0 45 -8.5t31 -22t18 -30.5t6 -34q0 -11 -4.5 -37.5t-11 -58t-13 -62.5t-10.5 -50q-14 -60 -46.5 -87.5t-86.5 -27.5zM95 -62q29 0 52 18.5t31 54.5
q2 10 6 27t8 36.5t8.5 41t8.5 40.5l-179 -148q-1 -3 -1 -5.5v-4.5q0 -27 17 -43.5t49 -16.5zM70 201q-2 -11 -5.5 -27.5t-8 -36.5t-9.5 -41.5t-9 -40.5l180 150q1 2 1 4.5v4.5q0 27 -17 43.5t-49 16.5q-29 0 -52 -18.5t-31 -54.5z" />
    <glyph glyph-name="period.inferior" horiz-adv-x="165" 
d="M-9 -36h60l-13 -60h-60z" />
    <glyph glyph-name="hyphen.inferior" horiz-adv-x="238" 
d="M-2 85h169l-8 -37h-168z" />
    <glyph glyph-name="comma.inferior" horiz-adv-x="165" 
d="M-9 -36h60l-13 -60l-32 -54h-37l32 54h-23z" />
    <glyph glyph-name="equal.inferior" horiz-adv-x="330" 
d="M8 23h234v-37h-234v37zM8 141h234v-37h-234v37z" />
    <glyph glyph-name="plus.inferior" horiz-adv-x="330" 
d="M8 85h99v98h38v-98h97v-37h-97v-99h-38v99h-99v37z" />
    <glyph glyph-name="minus.inferior" horiz-adv-x="330" 
d="M8 85h234v-37h-234v37z" />
    <glyph glyph-name="parenleft.inferior" unicode="&#x208d;" horiz-adv-x="165" 
d="M41 -162q-29 0 -43.5 15t-14.5 39q0 5 2.5 20t10.5 52t22.5 103t37.5 174q4 21 9.5 34.5t14.5 21t23.5 10.5t37.5 3h9l-8 -36h-12q-18 0 -25.5 -6.5t-10.5 -21.5q-23 -107 -37.5 -174.5t-22.5 -105.5t-11 -53t-3 -18q0 -21 26 -21h12l-8 -36h-9z" />
    <glyph glyph-name="parenright.inferior" unicode="&#x208e;" horiz-adv-x="165" 
d="M46 310q29 0 43.5 -15t14.5 -39q0 -5 -2.5 -20t-10.5 -52t-22.5 -103t-37.5 -174q-5 -21 -10 -34.5t-14 -21t-23.5 -10.5t-37.5 -3h-9l8 36h12q18 0 25.5 6.5t10.5 21.5q23 107 37.5 174t22.5 105.5t11 53.5t3 18q0 21 -26 21h-12l8 36h9z" />
    <glyph glyph-name="one.numerator" horiz-adv-x="284" 
d="M231 641l-93 -67l12 59l93 67h43l-87 -406h-43z" />
    <glyph glyph-name="two.numerator" horiz-adv-x="344" 
d="M68 335l178 160q11 10 23 22t21.5 26t16 29.5t6.5 32.5q0 27 -16.5 43.5t-48.5 16.5t-56.5 -22.5t-29.5 -64.5h-43q13 66 45.5 97t89.5 31q26 0 45 -8.5t31.5 -22t18.5 -30.5t6 -34q0 -26 -7 -47t-18 -38t-25.5 -32t-30.5 -29l-144 -130h171l-8 -41h-234z" />
    <glyph glyph-name="three.numerator" horiz-adv-x="340" 
d="M184 288q-26 0 -45 8.5t-31 22t-18 30.5t-6 34q0 4 0.5 12.5t2.5 14.5h41q-3 -14 -3 -21q0 -27 17 -43.5t48 -16.5q19 0 34.5 7.5t27 20.5t18 29t6.5 33q0 24 -15.5 41.5t-44.5 17.5h-29l9 41h29q19 0 35.5 7.5t28.5 19.5t19 27.5t7 31.5q0 27 -17 43.5t-49 16.5
t-56 -22.5t-30 -64.5h-43q13 67 45.5 97.5t90.5 30.5q26 0 45 -8.5t31 -22t18 -30.5t6 -34q0 -45 -21.5 -74.5t-52.5 -43.5q17 -11 26.5 -29.5t9.5 -40.5q0 -28 -8.5 -52.5t-25 -43t-42 -29t-58.5 -10.5z" />
    <glyph glyph-name="four.numerator" horiz-adv-x="307" 
d="M213 404h-185l8 39l241 257h43l-55 -257h42l-8 -39h-43l-23 -110h-43zM222 443l39 183l-171 -183h132z" />
    <glyph glyph-name="five.numerator" horiz-adv-x="341" 
d="M194 288q-26 0 -45 8.5t-31.5 22t-18.5 30.5t-6 34q0 4 0.5 12.5t2.5 14.5h41q-2 -7 -2 -12v-9q0 -27 16.5 -43.5t48.5 -16.5q29 0 53 19.5t32 57.5q5 20 6 32t1 17q0 23 -15.5 39.5t-49.5 16.5q-21 0 -40.5 -11t-31.5 -34h-44l50 234h213l-9 -41h-170l-29 -136
q10 13 28.5 20.5t40.5 7.5q26 0 45 -8.5t31 -22t18 -30.5t6 -34q0 -6 -1.5 -16.5t-7.5 -36.5q-13 -60 -45.5 -87.5t-86.5 -27.5z" />
    <glyph glyph-name="six.numerator" horiz-adv-x="337" 
d="M187 288q-26 0 -45 8.5t-31 22t-18 30.5t-6 34q0 10 4.5 37t11 58.5t13 62.5t10.5 50q14 60 46.5 87.5t86.5 27.5q26 0 45 -8.5t31 -22t18 -30.5t6 -34q0 -9 -3 -27h-41q3 13 3 21q0 27 -17 43.5t-49 16.5q-29 0 -52 -18.5t-31 -54.5q-2 -11 -6.5 -31.5t-9.5 -43.5
q11 13 31 21.5t42 8.5q26 0 45 -8.5t31 -22t18 -30.5t6 -34q0 -6 -1 -19t-5 -30q-13 -60 -46 -87.5t-87 -27.5zM194 329q29 0 52 18.5t31 54.5q5 20 5.5 32t0.5 17q0 23 -15.5 39.5t-48.5 16.5q-29 0 -52.5 -19t-31.5 -55q-3 -14 -5 -26.5t-2 -17.5q0 -27 17 -43.5t49 -16.5
z" />
    <glyph glyph-name="seven.numerator" horiz-adv-x="271" 
d="M302 659h-183l9 41h230l-8 -41l-207 -365h-47z" />
    <glyph glyph-name="eight.numerator" horiz-adv-x="308" 
d="M174 288q-28 0 -48 9.5t-33 24t-19 32t-6 34.5q0 42 17 74t52 46q-13 14 -19 30t-6 33q0 57 32.5 96t97.5 39q23 0 40.5 -8.5t29.5 -22t18.5 -30t6.5 -33.5q0 -41 -17 -72.5t-50 -47.5q16 -15 23.5 -34t7.5 -37q0 -58 -31 -95.5t-96 -37.5zM180 329q32 0 56 23t24 62
q0 27 -18 46t-53 19q-32 0 -56 -23.5t-24 -62.5q0 -27 18 -45.5t53 -18.5zM214 519q35 0 58.5 26t23.5 61q0 28 -17.5 43.5t-43.5 15.5q-35 0 -58.5 -26t-23.5 -61q0 -28 17.5 -43.5t43.5 -15.5z" />
    <glyph glyph-name="nine.numerator" horiz-adv-x="336" 
d="M180 288q-26 0 -45 8.5t-31 22t-18 30.5t-6 34q0 9 3 27h41q-3 -14 -3 -21q0 -27 17 -43.5t49 -16.5q29 0 52 18.5t31 54.5q2 11 6.5 31.5t9.5 43.5q-11 -13 -31 -21.5t-42 -8.5q-26 0 -45 8.5t-31 22t-18 30.5t-6 34q0 6 1 19t5 30q14 60 46.5 87.5t86.5 27.5
q26 0 45 -8.5t31 -22t18 -30.5t6 -34q0 -11 -4.5 -37.5t-11 -58t-13 -62.5t-10.5 -50q-14 -60 -46.5 -87.5t-86.5 -27.5zM220 487q29 0 52.5 19t31.5 55q3 14 5 26.5t2 17.5q0 27 -17 43.5t-49 16.5q-29 0 -52 -18.5t-31 -54.5q-5 -20 -5.5 -32t-0.5 -17q0 -23 15.5 -39.5
t48.5 -16.5z" />
    <glyph glyph-name="zero.numerator" horiz-adv-x="343" 
d="M194 329q29 0 52 18.5t31 54.5q3 16 10 46t14 62t12 59t5 36q0 27 -17 43.5t-49 16.5q-29 0 -52 -18.5t-31 -54.5q-3 -16 -10 -46t-13.5 -62t-12 -59t-5.5 -36q0 -27 17 -43.5t49 -16.5zM187 288q-26 0 -45 8.5t-31 22t-18 30.5t-6 34q0 10 4.5 37t11 58.5t13 62.5
t10.5 50q14 60 46.5 87.5t86.5 27.5q26 0 45 -8.5t31 -22t18 -30.5t6 -34q0 -11 -4.5 -37.5t-11 -58t-13 -62.5t-10.5 -50q-14 -60 -46.5 -87.5t-86.5 -27.5z" />
    <glyph glyph-name="zero.slashed.numerator" horiz-adv-x="344" 
d="M187 288q-26 0 -45 8.5t-31 22t-18 30.5t-6 34q0 10 4.5 37t11 58.5t13 62.5t10.5 50q14 60 46.5 87.5t86.5 27.5q26 0 45 -8.5t31 -22t18 -30.5t6 -34q0 -11 -4.5 -37.5t-11 -58t-13 -62.5t-10.5 -50q-14 -60 -46.5 -87.5t-86.5 -27.5zM194 329q29 0 52 18.5t31 54.5
q2 10 6 27t8 36.5t8.5 41t8.5 40.5l-179 -148q-1 -3 -1 -5.5v-4.5q0 -27 17 -43.5t49 -16.5zM169 592q-2 -11 -5.5 -27.5t-8 -36.5t-9.5 -41.5t-9 -40.5l180 150q1 2 1 4.5v4.5q0 27 -17 43.5t-49 16.5q-29 0 -52 -18.5t-31 -54.5z" />
    <glyph glyph-name="one.denominator" horiz-adv-x="284" 
d="M168 347l-93 -67l12 59l93 67h43l-87 -406h-43z" />
    <glyph glyph-name="two.denominator" horiz-adv-x="344" 
d="M5 41l178 160q11 10 23 22t21.5 26t16 29.5t6.5 32.5q0 27 -16.5 43.5t-48.5 16.5t-56.5 -22.5t-29.5 -64.5h-43q13 66 45.5 97t89.5 31q26 0 45 -8.5t31.5 -22t18.5 -30.5t6 -34q0 -26 -7 -47t-18 -38t-25.5 -32t-30.5 -29l-144 -130h171l-8 -41h-234z" />
    <glyph glyph-name="three.denominator" horiz-adv-x="340" 
d="M121 -6q-26 0 -45 8.5t-31 22t-18 30.5t-6 34q0 4 0.5 12.5t2.5 14.5h41q-3 -14 -3 -21q0 -27 17 -43.5t48 -16.5q19 0 34.5 7.5t27 20.5t18 29t6.5 33q0 24 -15.5 41.5t-44.5 17.5h-29l9 41h29q19 0 35.5 7.5t28.5 19.5t19 27.5t7 31.5q0 27 -17 43.5t-49 16.5
t-56 -22.5t-30 -64.5h-43q13 67 45.5 97.5t90.5 30.5q26 0 45 -8.5t31 -22t18 -30.5t6 -34q0 -45 -21.5 -74.5t-52.5 -43.5q17 -11 26.5 -29.5t9.5 -40.5q0 -28 -8.5 -52.5t-25 -43t-42 -29t-58.5 -10.5z" />
    <glyph glyph-name="four.denominator" horiz-adv-x="307" 
d="M151 110h-185l8 39l241 257h43l-55 -257h42l-8 -39h-43l-23 -110h-43zM160 149l39 183l-171 -183h132z" />
    <glyph glyph-name="five.denominator" horiz-adv-x="341" 
d="M132 -6q-26 0 -45 8.5t-31.5 22t-18.5 30.5t-6 34q0 4 0.5 12.5t2.5 14.5h41q-2 -7 -2 -12v-9q0 -27 16.5 -43.5t48.5 -16.5q29 0 53 19.5t32 57.5q5 20 6 32t1 17q0 23 -15.5 39.5t-49.5 16.5q-21 0 -40.5 -11t-31.5 -34h-44l50 234h213l-9 -41h-170l-29 -136
q10 13 28.5 20.5t40.5 7.5q26 0 45 -8.5t31 -22t18 -30.5t6 -34q0 -6 -1.5 -16.5t-7.5 -36.5q-13 -60 -45.5 -87.5t-86.5 -27.5z" />
    <glyph glyph-name="six.denominator" horiz-adv-x="337" 
d="M124 -6q-26 0 -45 8.5t-31 22t-18 30.5t-6 34q0 10 4.5 37t11 58.5t13 62.5t10.5 50q14 60 46.5 87.5t86.5 27.5q26 0 45 -8.5t31 -22t18 -30.5t6 -34q0 -9 -3 -27h-41q3 13 3 21q0 27 -17 43.5t-49 16.5q-29 0 -52 -18.5t-31 -54.5q-2 -11 -6.5 -31.5t-9.5 -43.5
q11 13 31 21.5t42 8.5q26 0 45 -8.5t31 -22t18 -30.5t6 -34q0 -6 -1 -19t-5 -30q-13 -60 -46 -87.5t-87 -27.5zM131 35q29 0 52 18.5t31 54.5q5 20 5.5 32t0.5 17q0 23 -15.5 39.5t-48.5 16.5q-29 0 -52.5 -19t-31.5 -55q-3 -14 -5 -26.5t-2 -17.5q0 -27 17 -43.5t49 -16.5z
" />
    <glyph glyph-name="seven.denominator" horiz-adv-x="271" 
d="M240 365h-183l9 41h230l-8 -41l-207 -365h-47z" />
    <glyph glyph-name="eight.denominator" horiz-adv-x="308" 
d="M111 -6q-28 0 -48 9.5t-33 24t-19 32t-6 34.5q0 42 17 74t52 46q-13 14 -19 30t-6 33q0 57 32.5 96t97.5 39q23 0 40.5 -8.5t29.5 -22t18.5 -30t6.5 -33.5q0 -41 -17 -72.5t-50 -47.5q16 -15 23.5 -34t7.5 -37q0 -58 -31 -95.5t-96 -37.5zM117 35q32 0 56 23t24 62
q0 27 -18 46t-53 19q-32 0 -56 -23.5t-24 -62.5q0 -27 18 -45.5t53 -18.5zM151 225q35 0 58.5 26t23.5 61q0 28 -17.5 43.5t-43.5 15.5q-35 0 -58.5 -26t-23.5 -61q0 -28 17.5 -43.5t43.5 -15.5z" />
    <glyph glyph-name="nine.denominator" horiz-adv-x="336" 
d="M117 -6q-26 0 -45 8.5t-31 22t-18 30.5t-6 34q0 9 3 27h41q-3 -14 -3 -21q0 -27 17 -43.5t49 -16.5q29 0 52 18.5t31 54.5q2 11 6.5 31.5t9.5 43.5q-11 -13 -31 -21.5t-42 -8.5q-26 0 -45 8.5t-31 22t-18 30.5t-6 34q0 6 1 19t5 30q14 60 46.5 87.5t86.5 27.5
q26 0 45 -8.5t31 -22t18 -30.5t6 -34q0 -11 -4.5 -37.5t-11 -58t-13 -62.5t-10.5 -50q-14 -60 -46.5 -87.5t-86.5 -27.5zM157 193q29 0 52.5 19t31.5 55q3 14 5 26.5t2 17.5q0 27 -17 43.5t-49 16.5q-29 0 -52 -18.5t-31 -54.5q-5 -20 -5.5 -32t-0.5 -17q0 -23 15.5 -39.5
t48.5 -16.5z" />
    <glyph glyph-name="zero.denominator" horiz-adv-x="343" 
d="M131 35q29 0 52 18.5t31 54.5q3 16 10 46t14 62t12 59t5 36q0 27 -17 43.5t-49 16.5q-29 0 -52 -18.5t-31 -54.5q-3 -16 -10 -46t-13.5 -62t-12 -59t-5.5 -36q0 -27 17 -43.5t49 -16.5zM124 -6q-26 0 -45 8.5t-31 22t-18 30.5t-6 34q0 10 4.5 37t11 58.5t13 62.5t10.5 50
q14 60 46.5 87.5t86.5 27.5q26 0 45 -8.5t31 -22t18 -30.5t6 -34q0 -11 -4.5 -37.5t-11 -58t-13 -62.5t-10.5 -50q-14 -60 -46.5 -87.5t-86.5 -27.5z" />
    <glyph glyph-name="zero.slashed.denominator" horiz-adv-x="343" 
d="M124 -6q-26 0 -45 8.5t-31 22t-18 30.5t-6 34q0 10 4.5 37t11 58.5t13 62.5t10.5 50q14 60 46.5 87.5t86.5 27.5q26 0 45 -8.5t31 -22t18 -30.5t6 -34q0 -11 -4.5 -37.5t-11 -58t-13 -62.5t-10.5 -50q-14 -60 -46.5 -87.5t-86.5 -27.5zM131 35q29 0 52 18.5t31 54.5
q2 10 6 27t8 36.5t8.5 41t8.5 40.5l-179 -148q-1 -3 -1 -5.5v-4.5q0 -27 17 -43.5t49 -16.5zM106 298q-2 -11 -5.5 -27.5t-8 -36.5t-9.5 -41.5t-9 -40.5l180 150q1 2 1 4.5v4.5q0 27 -17 43.5t-49 16.5q-29 0 -52 -18.5t-31 -54.5z" />
    <glyph glyph-name="ampersand.case" horiz-adv-x="605" 
d="M202 0q-38 0 -67.5 13t-49.5 36t-30.5 53.5t-10.5 65.5q0 67 31 119t103 79q-32 20 -49 56t-17 74q0 55 18 94t49 63.5t73.5 35.5t90.5 11h156l-11 -52h-153q-36 0 -67 -9t-53.5 -27t-35.5 -44.5t-13 -61.5q0 -24 7.5 -47t21.5 -40.5t35.5 -28.5t48.5 -11h152l17 81h55
l-18 -81h128l-11 -51h-128l-69 -328h-203zM362 52l58 276h-148q-37 0 -68.5 -9t-55 -27.5t-37 -47t-13.5 -68.5q0 -23 6 -45t19.5 -39.5t35.5 -28.5t54 -11h149z" />
    <glyph glyph-name="hyphen.case" horiz-adv-x="420" 
d="M78 315l9 45h290l-9 -45h-290z" />
    <glyph glyph-name="endash.case" horiz-adv-x="526" 
d="M78 315l9 45h396l-9 -45h-396z" />
    <glyph glyph-name="emdash.case" horiz-adv-x="829" 
d="M78 315l9 45h699l-9 -45h-699z" />
    <glyph glyph-name="question.case" horiz-adv-x="515" 
d="M108 500q10 57 31.5 97t51 65t66.5 36.5t80 11.5q28 0 58 -8.5t55 -27t41 -48t16 -71.5q0 -60 -32 -111.5t-81 -89.5l-71 -55q-27 -21 -36.5 -34.5t-13.5 -32.5l-4 -22h-55l4 22q6 28 22.5 55.5t53.5 55.5l72 55q36 27 61.5 63t25.5 85q0 60 -33.5 86t-91.5 26
q-36 0 -64 -12.5t-49 -34.5t-34 -50.5t-18 -60.5h-55zM170 84h84l-18 -84h-84z" />
    <glyph glyph-name="questiondown.case" horiz-adv-x="515" 
d="M428 200q-11 -57 -32 -97t-50.5 -65t-66.5 -36.5t-80 -11.5q-28 0 -58 8.5t-55 27t-41 48t-16 71.5q0 60 32 111.5t81 89.5l71 55q13 10 22 18.5t14.5 16t8.5 15t5 17.5l4 22h55l-4 -22q-6 -28 -22.5 -55.5t-53.5 -55.5l-72 -55q-36 -27 -61.5 -63t-25.5 -85
q0 -60 33.5 -86t91.5 -26q36 0 64 12.5t49 34.5t34 50.5t18 60.5h55zM366 616h-84l18 84h84z" />
    <glyph glyph-name="exclam.case" horiz-adv-x="275" 
d="M258 700l-104 -490h-55l104 490h55zM58 84h84l-18 -84h-84z" />
    <glyph glyph-name="exclamdown.case" horiz-adv-x="275" 
d="M55 0l104 490h55l-104 -490h-55zM255 616h-84l18 84h84z" />
    <glyph glyph-name="guilsinglleft.case" horiz-adv-x="304" 
d="M76 303l11 54l193 143l-14 -65l-148 -110l101 -110l-12 -55z" />
    <glyph glyph-name="guilsinglright.case" horiz-adv-x="304" 
d="M257 357l-11 -54l-193 -143l14 65l148 110l-101 110l12 55z" />
    <glyph glyph-name="guillemotleft.case" horiz-adv-x="471" 
d="M76 303l11 54l193 143l-14 -65l-148 -110l101 -110l-12 -55zM243 303l11 54l193 143l-14 -65l-148 -110l101 -110l-12 -55z" />
    <glyph glyph-name="guillemotright.case" horiz-adv-x="471" 
d="M257 357l-11 -54l-193 -143l14 65l148 110l-101 110l12 55zM424 357l-11 -54l-193 -143l14 65l148 110l-101 110l12 55z" />
    <glyph glyph-name="parenleft.case" horiz-adv-x="273" 
d="M179 597q7 32 16 52t23.5 31.5t36 15.5t53.5 4h10l-9 -41h-10q-20 0 -33 -3t-21.5 -10t-13.5 -19t-9 -30q-33 -155 -54 -253t-33 -155t-16.5 -81.5t-4.5 -31.5q0 -19 10.5 -27t43.5 -8h10l-9 -41h-10q-48 0 -68 21.5t-20 56.5q0 6 4.5 30.5t16.5 81.5t33 155z" />
    <glyph glyph-name="parenright.case" horiz-adv-x="272" 
d="M133 103q-7 -32 -16 -52t-23.5 -31.5t-36.5 -15.5t-53 -4h-10l9 41h10q20 0 33 3t21.5 10t13.5 19t9 30q33 155 54 253t33 155t16.5 81t4.5 32q0 19 -10.5 27t-43.5 8h-10l9 41h10q48 0 68 -21.5t20 -56.5q0 -6 -4.5 -30.5t-16.5 -81.5t-33 -155z" />
    <glyph glyph-name="bracketleft.case" horiz-adv-x="272" 
d="M200 700h117l-9 -41h-74l-131 -618h74l-9 -41h-117z" />
    <glyph glyph-name="bracketright.case" horiz-adv-x="272" 
d="M111 0h-116l9 41h73l131 618h-74l9 41h117z" />
    <glyph glyph-name="braceleft.case" horiz-adv-x="314" 
d="M149 299q0 18 -11.5 27t-42.5 9h-10l9 42h10q40 0 55 15t22 46l34 159q7 32 16 52t23.5 31.5t36 15.5t53.5 4h10l-9 -41h-10q-20 0 -33 -3t-21.5 -10t-13.5 -19t-9 -30l-34 -159q-8 -34 -19 -55.5t-32 -32.5q8 -8 13.5 -20.5t5.5 -29.5q0 -8 -3 -25.5t-8 -39.5t-10 -46.5
t-10 -47t-8 -40t-3 -25.5q0 -19 10.5 -27t43.5 -8h10l-9 -41h-10q-48 0 -68 21.5t-20 56.5q0 11 6.5 43t14.5 68t14.5 68t6.5 42z" />
    <glyph glyph-name="braceright.case" horiz-adv-x="314" 
d="M204 401q0 -18 11.5 -27t42.5 -9h10l-9 -42h-10q-40 0 -55 -15t-22 -46l-34 -159q-7 -32 -16 -52t-23.5 -31.5t-36.5 -15.5t-53 -4h-10l9 41h10q20 0 33 3t21.5 10t13.5 19t9 30l34 159q8 34 19 55.5t32 32.5q-8 8 -13.5 20.5t-5.5 29.5q0 8 3 25.5t8 39.5t10 46.5t10 47
t8 40t3 25.5q0 19 -10.5 27t-43.5 8h-10l9 41h10q48 0 68 -21.5t20 -56.5q0 -11 -6.5 -43t-14.5 -68t-14.5 -68t-6.5 -42z" />
    <glyph glyph-name="bar.case" horiz-adv-x="223" 
d="M109 700h43v-700h-43v700z" />
    <glyph glyph-name="brokenbar.case" horiz-adv-x="223" 
d="M109 289h43v-289h-43v289zM109 700h43v-289h-43v289z" />
    <glyph glyph-name="periodcentered.case" horiz-adv-x="284" 
d="M128 389h84l-17 -84h-84z" />
    <glyph glyph-name="at.case" horiz-adv-x="872" 
d="M600 420q0 35 -11 63t-30 47.5t-46 30t-58 10.5q-56 0 -94.5 -31.5t-47.5 -87.5h-54q5 47 24.5 79.5t46.5 52.5t60 29t65 9q35 0 70 -10.5t63.5 -34.5t46.5 -62.5t18 -94.5v-232q0 -11 3 -22.5t10 -20.5t18 -14.5t27 -5.5q31 0 44 20t13 43v295q0 45 -17.5 94t-55.5 89.5
t-97 67t-143 26.5t-143 -26.5t-97 -67t-55.5 -89.5t-17.5 -94v-266q0 -45 17.5 -94t55.5 -89.5t97 -67t143 -26.5q65 0 114.5 16.5t86.5 42.5l25 -36q-42 -29 -98 -47t-128 -18q-96 0 -163.5 30.5t-110.5 77.5t-62.5 103.5t-19.5 107.5v266q0 51 19.5 107.5t62.5 103.5
t110.5 77.5t163.5 30.5t163.5 -30.5t110.5 -77.5t62.5 -103.5t19.5 -107.5v-287q0 -59 -27 -86.5t-75 -27.5t-74.5 23t-34.5 50q-25 -36 -69 -54.5t-103 -18.5q-42 0 -74 12t-54 33t-33 48.5t-11 58.5q0 51 26 90.5t86 57.5q45 14 105.5 19.5t126.5 9.5v9zM600 364
q-86 -5 -141.5 -11.5t-84.5 -20.5q-37 -17 -51 -40t-14 -54q0 -21 7 -40t22.5 -33.5t40.5 -23t61 -8.5q34 0 63.5 11t51 30.5t33.5 47.5t12 62v80z" />
    <glyph glyph-name="plus.case" 
d="M274 315h-176v45h176v175h45v-175h175v-45h-175v-176h-45v176z" />
    <glyph glyph-name="minus.case" 
d="M98 315v45h396v-45h-396z" />
    <glyph glyph-name="divide.case" 
d="M255 536q0 17 12.5 29.5t29.5 12.5t29.5 -12.5t12.5 -29.5t-12.5 -29.5t-29.5 -12.5t-29.5 12.5t-12.5 29.5zM255 139q0 17 12.5 29.5t29.5 12.5t29.5 -12.5t12.5 -29.5t-12.5 -29.5t-29.5 -12.5t-29.5 12.5t-12.5 29.5zM98 315v45h396v-45h-396z" />
    <glyph glyph-name="multiply.case" 
d="M327 337l171 -169l-32 -32l-171 169l-170 -169l-32 32l170 169l-170 170l32 32l170 -170l171 170l32 -32z" />
    <glyph glyph-name="equal.case" 
d="M494 452v-45h-396v45h396zM98 212v45h396v-45h-396z" />
    <glyph glyph-name="plusminus.case" 
d="M98 374v45h176v154h45v-154h175v-45h-175v-154h-45v154h-176zM98 57v45h396v-45h-396z" />
    <glyph glyph-name="less.case" 
d="M494 103v-51l-396 239v50l396 239v-51l-353 -213z" />
    <glyph glyph-name="greater.case" 
d="M451 316l-353 213v51l396 -239v-50l-396 -239v51z" />
    <glyph glyph-name="lessequal.case" 
d="M98 356v44l396 180v-48l-338 -154l338 -154v-48zM98 57v45h396v-45h-396z" />
    <glyph glyph-name="greaterequal.case" 
d="M98 176v48l338 154l-338 154v48l396 -180v-44zM98 57v45h396v-45h-396z" />
    <glyph glyph-name="notequal.case" 
d="M98 212v45h92l150 150h-242v45h287l79 79l30 -31l-48 -48h48v-45h-93l-150 -150h243v-45h-288l-78 -78l-30 31l47 47h-47z" />
    <glyph glyph-name="acute.case" horiz-adv-x="315" 
d="M372 854l-128 -109h-58l100 109h86z" />
    <glyph glyph-name="breve.case" horiz-adv-x="390" 
d="M332 796q12 0 24 5t22.5 13t18 18.5t9.5 21.5h56q-5 -23 -17.5 -42.5t-30.5 -34.5t-40 -23.5t-44 -8.5h-64q-39 0 -64 24.5t-25 61.5q0 11 3 23h48q-1 -4 -1 -12q0 -20 13.5 -33t36.5 -13h55v0z" />
    <glyph glyph-name="caron.case" horiz-adv-x="428" 
d="M189 854h67l66 -63l92 63h77l-148 -109h-52z" />
    </font>
</defs>
</svg>
