<?xml version="1.0" standalone="no"?>
<!DOCTYPE svg PUBLIC "-//W3C//DTD SVG 1.1//EN" "http://www.w3.org/Graphics/SVG/1.1/DTD/svg11.dtd" >
<svg xmlns="http://www.w3.org/2000/svg" xmlns:xlink="http://www.w3.org/1999/xlink" version="1.1">
<metadata>
Created by Christoph Koeberlin (http://christoph.koe.berlin)
Copyright (c) 2011 Swiss Typefaces Sa`rl. All rights reserved.
</metadata>
<defs>
<font id="Font" horiz-adv-x="558" >
  <font-face 
    font-family="Font"
    font-weight="400"
    font-style="italic"
    font-stretch="normal"
    units-per-em="1000"
    panose-1="2 11 5 0 3 0 0 0 0 0"
    ascent="800"
    descent="-200"
    x-height="516"
    cap-height="700"
    bbox="-206 -229 1083 874"
    underline-thickness="65"
    underline-position="-36"
    slope="-12"
    unicode-range="U+0020-FB04"
  />
<missing-glyph horiz-adv-x="500" 
d="M1 0l148 700h387l-148 -700h-387zM277 404l160 242h-216zM244 354l-59 256l-109 -512zM461 603l-170 -258l60 -257zM314 54l-56 241l-159 -241h215z" />
    <glyph glyph-name=".notdef" horiz-adv-x="500" 
d="M1 0l148 700h387l-148 -700h-387zM277 404l160 242h-216zM244 354l-59 256l-109 -512zM461 603l-170 -258l60 -257zM314 54l-56 241l-159 -241h215z" />
    <glyph glyph-name=".null" horiz-adv-x="0" 
 />
    <glyph glyph-name="nonmarkingreturn" horiz-adv-x="0" 
 />
    <glyph glyph-name="space" unicode=" " horiz-adv-x="225" 
 />
    <glyph glyph-name="exclam" unicode="!" horiz-adv-x="275" 
d="M165 210h-75l104 490h75zM52 105h105l-22 -105h-105z" />
    <glyph glyph-name="quotedbl" unicode="&#x22;" horiz-adv-x="404" 
d="M319 476v224h75v-224h-75zM150 476v224h75v-224h-75z" />
    <glyph glyph-name="numbersign" unicode="#" horiz-adv-x="700" 
d="M120 0l51 206h-69v65h85l39 158h-85v65h101l52 206h68l-52 -206h188l52 206h68l-52 -206h71v-65h-87l-39 -158h86v-65h-102l-51 -206h-68l51 206h-188l-51 -206h-68zM255 271h188l39 158h-188z" />
    <glyph glyph-name="dollar" unicode="$" horiz-adv-x="504" 
d="M179 -4q-32 6 -59.5 21t-47.5 39t-31.5 56t-11.5 73v11t1 11h75v-15q0 -46 22 -80t67 -46l54 256l-36 16q-54 24 -81 63.5t-27 105.5q0 45 15 82t43 64t67.5 42t89.5 15q3 0 6 -0.5t6 -0.5l19 91h43l-21 -96q27 -6 51.5 -19t43 -33t29.5 -47t12 -62q0 -5 -0.5 -11.5
t-1.5 -8.5h-75v13q0 36 -20.5 61t-53.5 36l-53 -253l18 -8q62 -23 94.5 -66.5t32.5 -109.5q0 -44 -14 -82t-41.5 -65.5t-67.5 -43t-92 -15.5q-4 0 -7 0.5t-6 0.5l-19 -91h-43zM373 184q0 42 -18.5 71.5t-66.5 49.5l-52 -244h4q27 0 51 8.5t42 24.5t29 38.5t11 51.5zM180 514
q0 -45 18.5 -70.5t57.5 -42.5l8 -4l52 242q-31 0 -56 -10t-43 -27.5t-27.5 -40t-9.5 -47.5z" />
    <glyph glyph-name="percent" unicode="%" horiz-adv-x="840" 
d="M715 700l-481 -700h-71l481 700h71zM221 349q30 0 46 18.5t21 41.5q3 10 9 39.5t12.5 61t11.5 57.5t5 30q0 13 -5.5 22t-13.5 15t-17.5 8.5t-18.5 2.5q-30 0 -45.5 -18.5t-21.5 -41.5q-3 -11 -9 -40t-12.5 -60.5t-11.5 -57.5t-5 -30q0 -26 18.5 -37t36.5 -11zM213 288
q-49 0 -80 28t-31 79q0 7 4.5 32.5t10.5 55.5t12 58l9 42q5 27 14.5 50t26 39t41 25t59.5 9q49 0 79.5 -28t30.5 -79q0 -8 -4.5 -33t-10.5 -55t-12 -58.5t-9 -41.5q-5 -27 -14.5 -50t-26 -39t-40.5 -25t-59 -9zM609 55q30 0 46 18.5t21 41.5q3 10 9 39.5t12.5 61t11.5 57.5
t5 30q0 13 -5.5 22t-13.5 15t-17.5 8.5t-18.5 2.5q-30 0 -45.5 -18.5t-21.5 -41.5q-3 -11 -9 -40t-12.5 -60.5t-11.5 -57.5t-5 -30q0 -26 18.5 -37t36.5 -11zM601 -6q-49 0 -80 28t-31 79q0 7 4.5 32.5t10.5 55.5t12 58l9 42q5 27 14.5 50t26 39t41 25t59.5 9q49 0 79.5 -28
t30.5 -79q0 -8 -4.5 -33t-10.5 -55t-12 -58.5t-9 -41.5q-5 -27 -14.5 -50t-26 -39t-40.5 -25t-59 -9z" />
    <glyph glyph-name="ampersand" unicode="&#x26;" horiz-adv-x="593" 
d="M330 629q-26 0 -53 -7.5t-48.5 -23t-35 -40.5t-13.5 -60q0 -49 27 -80t72 -31h131l18 81h75l-18 -81h128l-16 -70h-127l-67 -317h-207q-33 0 -62.5 10t-51 30t-34 50t-12.5 70q0 71 28 122.5t96 83.5q-26 18 -41 51.5t-15 75.5q0 53 18.5 92t51 64.5t76.5 38t95 12.5h132
l-15 -71h-132zM343 71l52 246h-132q-31 0 -58.5 -9.5t-48 -27.5t-32.5 -45t-12 -61q0 -45 25 -74t74 -29h132z" />
    <glyph glyph-name="quotesingle" unicode="'" horiz-adv-x="235" 
d="M150 476v224h75v-224h-75z" />
    <glyph glyph-name="parenleft" unicode="(" horiz-adv-x="274" 
d="M165 581q7 37 16 60t25 36t41.5 18t65.5 5h16l-14 -63h-22q-31 0 -43.5 -11t-17.5 -37q-32 -149 -53.5 -250.5t-36 -167.5t-22 -102.5t-11.5 -54t-4.5 -22.5t-0.5 -8q0 -35 44 -35h22l-14 -63h-16q-49 0 -75 25.5t-26 67.5q0 5 0.5 11t4 24t11.5 54t22 101.5t35.5 165.5
t52.5 246z" />
    <glyph glyph-name="parenright" unicode=")" horiz-adv-x="274" 
d="M124 5q-7 -37 -16 -60t-25 -36t-41.5 -18t-65.5 -5h-16l14 63h22q31 0 43.5 11t17.5 37q32 149 53.5 250.5t36 167.5t22 102.5t11.5 54t4.5 22t0.5 8.5q0 35 -44 35h-22l14 63h16q49 0 75 -25.5t26 -67.5q0 -5 -0.5 -11t-4 -24t-11.5 -54t-22 -101.5t-35.5 -165.5
t-52.5 -246z" />
    <glyph glyph-name="asterisk" unicode="*" horiz-adv-x="475" 
d="M281 477l-92 -97l-47 41l93 99l-111 40l29 54l110 -38l26 124h65l-26 -124l126 38l7 -61l-127 -39l52 -100l-54 -34z" />
    <glyph glyph-name="plus" unicode="+" 
d="M254 248h-172v65h172v169h65v-169h167v-65h-167v-170h-65v170z" />
    <glyph glyph-name="comma" unicode="," horiz-adv-x="275" 
d="M53 105h105l-23 -105l-55 -94h-64l55 94h-41z" />
    <glyph glyph-name="hyphen" unicode="-" horiz-adv-x="400" 
d="M53 248l13 65h290l-13 -65h-290z" />
    <glyph glyph-name="period" unicode="." horiz-adv-x="275" 
d="M53 105h105l-23 -105h-105z" />
    <glyph glyph-name="slash" unicode="/" horiz-adv-x="345" 
d="M350 700l-283 -700h-72l283 700h72z" />
    <glyph glyph-name="zero" unicode="0" horiz-adv-x="531" 
d="M452 188q-23 -104 -79 -151t-150 -47q-45 0 -78 15t-54 38.5t-31 52.5t-10 58q0 12 3.5 37.5t9.5 58.5t13.5 70t15 73t14 67t11.5 52q23 104 79 151t150 47q45 0 78 -15t54 -38.5t31 -53t10 -57.5q0 -12 -3.5 -37.5t-9.5 -58.5t-13.5 -70t-15 -73t-14 -67t-11.5 -52z
M192 513q-3 -17 -10 -46.5t-14.5 -65t-15.5 -73t-15 -70.5t-11 -58t-4 -35q0 -48 29 -76t83 -28q49 0 89 31.5t54 94.5q3 17 10 46.5t14.5 65t15.5 73t15 70.5t11 58t4 35q0 48 -29 76t-83 28q-49 0 -89.5 -31.5t-53.5 -94.5z" />
    <glyph glyph-name="one" unicode="1" horiz-adv-x="341" 
d="M350 700l-149 -700h-75l128 597l-159 -115l21 103l159 115h75z" />
    <glyph glyph-name="two" unicode="2" horiz-adv-x="505" 
d="M96 490q23 115 78.5 167.5t155.5 52.5q45 0 78 -15t54 -38.5t31 -53t10 -57.5q0 -46 -11.5 -82t-31 -65.5t-45 -55t-52.5 -50.5l-247 -222h295l-15 -71h-403l15 71l307 275q19 17 40 37.5t37.5 44.5t27.5 50.5t11 56.5q0 48 -29 76t-83 28q-55 0 -96.5 -38t-51.5 -111
h-75z" />
    <glyph glyph-name="three" unicode="3" horiz-adv-x="507" 
d="M112 200q-2 -12 -3 -21t-1 -14q0 -48 29 -76t83 -28q32 0 58.5 13.5t46 35t30.5 49t11 56.5q0 21 -7 39.5t-20 32.5t-32.5 22t-43.5 8h-50l16 71h50q33 0 61 13t48.5 34t32.5 47t12 53q0 48 -29 76t-83 28q-55 0 -96 -38t-52 -111h-75q22 115 78 167.5t156 52.5
q45 0 78 -15t54 -38.5t31 -53t10 -57.5q0 -39 -10 -71t-27 -57.5t-40 -44t-50 -30.5q28 -19 44.5 -51t16.5 -70q0 -47 -14.5 -89.5t-43 -74t-71.5 -50t-101 -18.5q-45 0 -78 15t-54 38.5t-31 52.5t-10 58q0 7 1 21t4 25h71z" />
    <glyph glyph-name="four" unicode="4" horiz-adv-x="511" 
d="M394 189l-40 -189h-75l40 189h-320l15 69l414 442h75l-94 -442h73l-15 -69h-73zM334 258l67 313l-293 -313h226z" />
    <glyph glyph-name="five" unicode="5" horiz-adv-x="512" 
d="M383 194q8 35 9.5 55.5t1.5 28.5q0 19 -6.5 36t-20 30t-34.5 21t-50 8q-37 0 -70.5 -19.5t-53.5 -57.5h-77l86 404h368l-15 -71h-293l-50 -233q17 22 49 35t69 13q45 0 78 -15t54 -38.5t31 -53t10 -58.5q0 -5 -0.5 -11.5t-2 -16t-4.5 -25t-8 -38.5q-23 -104 -79 -151
t-150 -47q-45 0 -78 15t-54 38.5t-31 52.5t-10 58q0 7 1.5 21t3.5 25h71q-2 -12 -3 -21t-1 -14q0 -48 29 -76t83 -28q49 0 91 33.5t56 99.5z" />
    <glyph glyph-name="six" unicode="6" horiz-adv-x="519" 
d="M165 386q17 22 52.5 36.5t72.5 14.5q45 0 78 -15t54 -38.5t31 -53t10 -58.5q0 -10 -2.5 -32.5t-8.5 -51.5q-23 -104 -79 -151t-150 -47q-45 0 -78 15t-54 38.5t-31 52.5t-10 58q0 12 3.5 37.5t9.5 58.5t13.5 70t15 73t14 67t11.5 52q23 104 79 151t150 47q45 0 78 -15
t54 -38.5t31 -53t10 -57.5q0 -7 -1 -19t-4 -27h-71q2 12 3 21t1 14q0 48 -29 76t-83 28q-49 0 -89 -31.5t-54 -94.5q-5 -19 -11.5 -53.5t-15.5 -73.5zM277 366q-49 0 -89 -31.5t-54 -94.5q-5 -25 -8.5 -46t-3.5 -29q0 -48 29 -76t83 -28q49 0 89 31.5t54 94.5q8 35 9.5 55.5
t1.5 28.5q0 19 -6.5 36t-20 30t-34.5 21t-50 8z" />
    <glyph glyph-name="seven" unicode="7" horiz-adv-x="440" 
d="M139 0h-84l355 629h-314l15 71h398l-15 -71z" />
    <glyph glyph-name="eight" unicode="8" horiz-adv-x="503" 
d="M437 218q0 -50 -13.5 -92t-41 -72t-69 -47t-96.5 -17q-48 0 -82.5 16t-57 41.5t-33 55.5t-10.5 59q0 74 29 128t89 79q-21 23 -31.5 51.5t-10.5 57.5q0 49 14.5 91.5t42.5 73.5t70 49t98 18q39 0 69.5 -14.5t51.5 -37.5t32 -52t11 -57q0 -71 -29 -125.5t-86 -82.5
q27 -26 40 -58.5t13 -64.5zM106 172q0 -47 30.5 -79t91.5 -32q27 0 51.5 10.5t43.5 29.5t30.5 46t11.5 60q0 47 -30.5 79t-91.5 32q-27 0 -51.5 -10.5t-43.5 -29.5t-30.5 -46t-11.5 -60zM427 538q0 48 -30 74.5t-75 26.5q-30 0 -56 -12t-44.5 -33t-29 -48t-10.5 -57
q0 -48 30 -74.5t75 -26.5q30 0 56 12t44.5 33t29 48t10.5 57z" />
    <glyph glyph-name="nine" unicode="9" horiz-adv-x="519" 
d="M392 314q-17 -22 -52.5 -36.5t-72.5 -14.5q-45 0 -78 15t-54 38.5t-31 53t-10 58.5q0 10 2.5 32.5t8.5 51.5q23 104 79 151t150 47q45 0 78 -15t54 -38.5t31 -53t10 -57.5q0 -12 -3.5 -37.5t-9.5 -58.5t-13.5 -70t-15 -73t-14 -67t-11.5 -52q-23 -104 -79 -151t-150 -47
q-45 0 -78 15t-54 38.5t-31 52.5t-10 58q0 7 1 19t4 27h71q-2 -12 -3 -21t-1 -14q0 -48 29 -76t83 -28q49 0 89 31.5t54 94.5q5 19 11.5 53.5t15.5 73.5zM280 334q49 0 89 31.5t54 94.5q5 25 8.5 46t3.5 29q0 48 -29 76t-83 28q-49 0 -89 -31.5t-54 -94.5q-8 -35 -9.5 -55.5
t-1.5 -28.5q0 -19 6.5 -36t20 -30t34.5 -21t50 -8z" />
    <glyph glyph-name="colon" unicode=":" horiz-adv-x="275" 
d="M140 516h105l-23 -105h-105zM53 105h105l-23 -105h-105z" />
    <glyph glyph-name="semicolon" unicode=";" horiz-adv-x="275" 
d="M140 516h105l-23 -105h-105zM53 105h105l-23 -105l-55 -94h-64l55 94h-41z" />
    <glyph glyph-name="less" unicode="&#x3c;" 
d="M486 70v-75l-404 227v74l404 227v-75l-336 -189z" />
    <glyph glyph-name="equal" unicode="=" 
d="M82 140v65h404v-65h-404zM82 345v65h404v-65h-404z" />
    <glyph glyph-name="greater" unicode="&#x3e;" 
d="M418 259l-336 189v75l404 -227v-74l-404 -227v75z" />
    <glyph glyph-name="question" unicode="?" horiz-adv-x="502" 
d="M159 105h105l-22 -105h-105zM93 500q23 113 80.5 161.5t151.5 48.5q45 0 78 -15t54 -38.5t31 -53t10 -57.5q0 -34 -9.5 -63t-24.5 -53t-32.5 -42t-33.5 -30l-72 -55q-25 -20 -35.5 -34.5t-15.5 -36.5l-4 -22h-75l4 22q9 41 28.5 68.5t55.5 55.5l71 55q9 7 21 18.5
t23.5 27t19 35t7.5 43.5q0 48 -29 76t-83 28q-60 0 -98 -39.5t-48 -99.5h-75z" />
    <glyph glyph-name="at" unicode="@" horiz-adv-x="888" 
d="M571 253q-85 -6 -135.5 -13t-76.5 -21q-29 -16 -37 -33.5t-8 -40.5q0 -35 27.5 -59t84.5 -24q30 0 56.5 8t46 23.5t31 39t11.5 53.5v67zM444 458q-45 0 -80 -24.5t-44 -75.5h-77q5 48 24.5 81t47.5 53.5t61.5 29t67.5 8.5q36 0 72 -10t65 -34t47 -62.5t18 -95.5v-217
q0 -26 15 -41.5t39 -15.5t38.5 15.5t14.5 41.5v257q0 61 -25 112t-67.5 88t-98.5 57.5t-118 20.5t-118 -20.5t-98.5 -57.5t-67.5 -88t-25 -112v-220q0 -61 25 -112t67.5 -88t98.5 -57.5t118 -20.5q53 0 101.5 14.5t89.5 42.5l35 -56q-47 -31 -104 -48t-122 -17
q-79 0 -147 25t-118.5 70.5t-79.5 108.5t-29 138v220q0 75 29 138t79.5 108.5t118.5 70.5t147 25t147 -25t118.5 -70.5t79.5 -108.5t29 -138v-262q0 -59 -31.5 -87.5t-86.5 -28.5q-51 0 -81.5 17t-47.5 46q-25 -32 -66.5 -47.5t-94.5 -15.5q-33 0 -64 9t-54.5 27.5t-38 47.5
t-14.5 69q0 19 5 41t17.5 42.5t34 37.5t55.5 27q45 13 99.5 18.5t120.5 10.5v9q0 32 -10.5 56.5t-28 40.5t-40.5 24t-48 8z" />
    <glyph glyph-name="A" unicode="A" horiz-adv-x="566" 
d="M404 198h-258l-105 -198h-81l373 700h88l76 -700h-72zM360 600l-177 -333h213z" />
    <glyph glyph-name="B" unicode="B" horiz-adv-x="579" 
d="M465 346q28 -20 43 -54t15 -68q0 -45 -15.5 -86t-46.5 -71.5t-77.5 -48.5t-108.5 -18h-250l149 700h220q45 0 78.5 -14.5t55.5 -37.5t33 -53.5t11 -61.5q0 -23 -6 -49t-18.5 -51.5t-33 -48t-49.5 -38.5zM169 317l-51 -243h163q36 0 66 10t52 29t34 46t12 61
q0 42 -27 69.5t-76 27.5h-173zM356 391q30 0 55.5 10.5t43.5 29t28 44t10 54.5q0 45 -27.5 71t-78.5 26h-152l-50 -235h171z" />
    <glyph glyph-name="C" unicode="C" horiz-adv-x="561" 
d="M373 710q39 0 74 -10.5t61.5 -32.5t42 -56t15.5 -80v-19t-2 -19h-78q2 9 2.5 18t0.5 14q0 54 -31.5 82.5t-95.5 28.5q-69 0 -114.5 -41.5t-63.5 -121.5q-29 -129 -44.5 -204t-15.5 -94q0 -54 31.5 -82.5t95.5 -28.5t108.5 36.5t64.5 106.5h77q-27 -106 -88.5 -161.5
t-172.5 -55.5q-39 0 -74 10.5t-61.5 32.5t-42 56t-15.5 80q0 11 0.5 19t2 19.5t5.5 29.5t10.5 48t16.5 75.5t25 112.5q25 115 87.5 176t178.5 61z" />
    <glyph glyph-name="D" unicode="D" horiz-adv-x="589" 
d="M271 74q69 0 114.5 41.5t63.5 121.5q28 128 42 193.5t14 84.5q0 54 -31.5 82.5t-95.5 28.5h-143l-117 -552h153zM25 0l149 700h215q39 0 74 -10.5t61.5 -32.5t42 -56t15.5 -80q0 -21 -5.5 -52.5t-13.5 -69.5t-18 -79.5t-19 -82.5q-13 -58 -34 -102t-53.5 -74t-76.5 -45.5
t-102 -15.5h-235z" />
    <glyph glyph-name="E" unicode="E" horiz-adv-x="542" 
d="M118 74h321l-16 -74h-398l149 700h398l-16 -74h-321l-50 -235h321l-16 -74h-320z" />
    <glyph glyph-name="F" unicode="F" horiz-adv-x="532" 
d="M102 0h-77l149 700h398l-16 -74h-321l-50 -235h321l-16 -74h-320z" />
    <glyph glyph-name="G" unicode="G" horiz-adv-x="568" 
d="M296 297l16 74h226q-6 -29 -13.5 -63.5t-18.5 -80.5q-13 -58 -34 -102t-53.5 -74t-76.5 -45.5t-102 -15.5q-39 0 -74 10.5t-61.5 32.5t-42 56t-15.5 80q0 11 0.5 19t2 19.5t5.5 29.5t10.5 48t16.5 75.5t25 112.5q25 115 87.5 176t178.5 61q39 0 74 -10.5t61.5 -32.5
t42 -56t15.5 -80v-19t-2 -19h-78q2 9 2.5 18t0.5 14q0 54 -31.5 82.5t-95.5 28.5q-69 0 -114.5 -41.5t-63.5 -121.5q-29 -129 -44.5 -204t-15.5 -94q0 -54 31.5 -82.5t95.5 -28.5q69 0 114.5 41.5t63.5 121.5q5 19 8 36t7 34h-148z" />
    <glyph glyph-name="H" unicode="H" horiz-adv-x="612" 
d="M549 700h77l-149 -700h-77l67 317h-297l-68 -317h-77l149 700h77l-66 -309h298z" />
    <glyph glyph-name="I" unicode="I" horiz-adv-x="237" 
d="M174 700h77l-149 -700h-77z" />
    <glyph glyph-name="J" unicode="J" horiz-adv-x="473" 
d="M79 200q-4 -14 -4.5 -23t-0.5 -17q0 -43 30.5 -69.5t77.5 -26.5q59 0 88 35t41 93l108 508h77l-108 -508q-11 -52 -27.5 -90t-42 -63t-61.5 -37t-86 -12q-30 0 -61 10.5t-56 31.5t-40.5 51t-15.5 69q0 10 1 21.5t4 26.5h76z" />
    <glyph glyph-name="K" unicode="K" horiz-adv-x="610" 
d="M102 0h-77l149 700h77l-80 -376l400 376h101l-307 -288l184 -412h-81l-160 359l-162 -153z" />
    <glyph glyph-name="L" unicode="L" horiz-adv-x="493" 
d="M174 700h77l-133 -626h321l-16 -74h-398z" />
    <glyph glyph-name="M" unicode="M" horiz-adv-x="718" 
d="M655 700h77l-149 -700h-76l112 527l-239 -339h-72l-90 364l-117 -552h-76l149 700h77l105 -424z" />
    <glyph glyph-name="N" unicode="N" horiz-adv-x="612" 
d="M477 0h-77l-178 565l-120 -565h-77l149 700h77l178 -565l120 565h77z" />
    <glyph glyph-name="O" unicode="O" horiz-adv-x="572" 
d="M506 227q-13 -58 -34 -102t-53.5 -74t-76.5 -45.5t-102 -15.5q-39 0 -74 10.5t-61.5 32.5t-42 56t-15.5 80q0 11 0.5 19t2 19.5t5.5 29.5t10.5 48t16.5 75.5t25 112.5q25 115 87.5 176t178.5 61q39 0 74 -10.5t61.5 -32.5t42 -56t15.5 -80q0 -11 -0.5 -19t-2 -19.5
t-5.5 -29.5t-10.5 -48t-16.5 -75.5t-25 -112.5zM124 175q0 -54 31.5 -82.5t95.5 -28.5q69 0 114.5 41.5t63.5 121.5q29 129 44.5 204t15.5 94q0 54 -31.5 82.5t-95.5 28.5q-69 0 -114.5 -41.5t-63.5 -121.5q-29 -129 -44.5 -204t-15.5 -94z" />
    <glyph glyph-name="P" unicode="P" horiz-adv-x="561" 
d="M585 511q0 -50 -17 -93.5t-50.5 -75.5t-83 -50.5t-114.5 -18.5h-160l-58 -273h-77l149 700h226q42 0 76.5 -15.5t58.5 -41.5t37 -60.5t13 -71.5zM332 347q37 0 68.5 11.5t55 32.5t37 50t13.5 64q0 21 -5.5 43t-19.5 39t-37.5 28t-59.5 11h-149l-59 -279h156z" />
    <glyph glyph-name="Q" unicode="Q" horiz-adv-x="583" 
d="M506 227q-11 -48 -27 -86t-39 -67l57 -74l-56 -45l-55 71q-57 -36 -146 -36q-39 0 -74 10.5t-61.5 32.5t-42 56t-15.5 80q0 11 0.5 19t2 19.5t5.5 29.5t10.5 48t16.5 75.5t25 112.5q25 115 87.5 176t178.5 61q39 0 74 -10.5t61.5 -32.5t42 -56t15.5 -80q0 -11 -0.5 -19
t-2 -19.5t-5.5 -29.5t-10.5 -48t-16.5 -75.5t-25 -112.5zM124 175q0 -54 31.5 -82.5t95.5 -28.5q53 0 89 23l-62 82l54 45l59 -78q26 39 38 91q29 129 44.5 204t15.5 94q0 54 -31.5 82.5t-95.5 28.5q-69 0 -114.5 -41.5t-63.5 -121.5q-29 -129 -44.5 -204t-15.5 -94z" />
    <glyph glyph-name="R" unicode="R" horiz-adv-x="572" 
d="M169 318l-67 -318h-77l149 700h226q45 0 78.5 -14.5t55.5 -37.5t33 -53.5t11 -61.5t-11 -67.5t-35.5 -68t-64.5 -54t-98 -25.5l119 -318h-80l-119 318h-120zM362 390q30 0 55.5 10.5t43.5 29.5t28 44.5t10 54.5q0 45 -27.5 71t-78.5 26h-158l-50 -236h177z" />
    <glyph glyph-name="S" unicode="S" horiz-adv-x="517" 
d="M461 194q0 -41 -13 -78t-40 -65t-69.5 -44.5t-102.5 -16.5q-39 0 -77.5 12t-69 36.5t-49.5 61t-19 85.5v11t1 11h78q-1 -6 -1 -8.5v-6.5q0 -32 11 -56t30 -40t45.5 -24t56.5 -8q67 0 104.5 33t37.5 89q0 16 -2.5 32.5t-11 31t-23.5 27.5t-39 22l-81 31q-64 25 -97.5 69
t-33.5 110q0 45 14.5 82t42 63.5t67.5 41t91 14.5q39 0 74.5 -11t62.5 -33t43 -54.5t17 -75.5v-10t-1 -10h-77q1 6 1 8v5q0 48 -32.5 77.5t-90.5 29.5q-33 0 -58 -9.5t-42 -25.5t-26 -38t-9 -47q0 -44 20 -71t60 -42l81 -31q68 -26 97.5 -72t29.5 -106z" />
    <glyph glyph-name="T" unicode="T" horiz-adv-x="479" 
d="M92 626l16 74h451l-16 -74h-187l-133 -626h-77l133 626h-187z" />
    <glyph glyph-name="U" unicode="U" horiz-adv-x="594" 
d="M134 175q0 -54 31.5 -82.5t95.5 -28.5q69 0 115 41.5t63 121.5l104 473h77l-104 -473q-13 -58 -34 -102t-53.5 -74t-76.5 -45.5t-102 -15.5q-39 0 -74 10.5t-61.5 32.5t-42 56t-15.5 80q0 16 9 63.5t24 118t35 160t42 189.5h77q-10 -43 -21.5 -96t-24 -109t-24 -110
t-20.5 -98t-14.5 -74t-5.5 -38z" />
    <glyph glyph-name="V" unicode="V" horiz-adv-x="566" 
d="M565 700h81l-374 -700h-88l-76 700h74l65 -595z" />
    <glyph glyph-name="W" unicode="W" horiz-adv-x="725" 
d="M410 471l-235 -471h-74l20 700h74l-17 -543l221 443h72l28 -443l214 543h80l-278 -700h-74z" />
    <glyph glyph-name="X" unicode="X" horiz-adv-x="564" 
d="M533 700h91l-282 -344l132 -356h-80l-105 291l-235 -291h-91l291 355l-128 345h79l103 -279z" />
    <glyph glyph-name="Y" unicode="Y" horiz-adv-x="545" 
d="M256 0h-77l59 279l-141 421h75l115 -346l263 346h86l-321 -422z" />
    <glyph glyph-name="Z" unicode="Z" horiz-adv-x="537" 
d="M-14 0l16 74l473 552h-352l16 74h447l-16 -74l-473 -552h361l-16 -74h-456z" />
    <glyph glyph-name="bracketleft" unicode="[" horiz-adv-x="274" 
d="M190 700h139l-14 -63h-74l-145 -688h74l-14 -63h-139z" />
    <glyph glyph-name="backslash" unicode="\" horiz-adv-x="368" 
d="M90 700l283 -700h-72l-283 700h72z" />
    <glyph glyph-name="bracketright" unicode="]" horiz-adv-x="274" 
d="M99 -114h-138l14 63h73l145 688h-74l14 63h139z" />
    <glyph glyph-name="asciicircum" unicode="^" horiz-adv-x="616" 
d="M576 300h-75l-168 323l-168 -323h-75l208 400h70z" />
    <glyph glyph-name="underscore" unicode="_" horiz-adv-x="404" 
d="M-81 -125l12 65h404l-13 -65h-403z" />
    <glyph glyph-name="grave" unicode="`" horiz-adv-x="304" 
d="M254 700l50 -129h-60l-91 129h101z" />
    <glyph glyph-name="a" unicode="a" horiz-adv-x="527" 
d="M383 252q-43 -2 -75.5 -4.5t-58 -6t-46 -9t-41.5 -13.5q-29 -12 -45 -30.5t-16 -53.5q0 -31 26 -52.5t80 -21.5q60 0 104.5 32t58.5 98zM77 358q26 94 84 133t146 39q34 0 65 -10t55 -28.5t38.5 -46t14.5 -62.5q0 -14 -3.5 -36t-9 -48t-11.5 -54t-11 -53q-12 -54 -21 -96
q-4 -18 -7.5 -35.5t-6.5 -31t-4.5 -21.5l-1.5 -8h-75l12 55q-20 -29 -60 -47t-90 -18q-40 0 -71 11.5t-52 31t-32 44.5t-11 51q0 33 7 58.5t22.5 45t41 34t62.5 25.5q48 14 110.5 19.5t128.5 9.5q3 17 5 30.5t2 21.5q0 23 -9 39.5t-24 27t-34 15.5t-39 5q-52 0 -89.5 -25
t-55.5 -76h-76z" />
    <glyph glyph-name="b" unicode="b" horiz-adv-x="541" 
d="M237 61q59 0 99 32.5t54 97.5q4 21 10 47.5t11.5 52t9 47.5t3.5 34q0 23 -9 39.5t-24 27t-34 15.5t-39 5q-59 0 -99 -32.5t-54 -97.5q-5 -21 -10.5 -47.5t-11 -52t-9 -47.5t-3.5 -34q0 -23 9 -39.5t24 -27t34 -15.5t39 -5zM194 465q17 26 53 45.5t87 19.5q30 0 60 -10
t53.5 -28.5t38 -46t14.5 -62.5q0 -14 -3.5 -36t-9 -48t-11.5 -54t-11 -53q-12 -56 -33 -94.5t-50 -62.5t-66 -34.5t-81 -10.5q-45 0 -77.5 20.5t-48.5 53.5l-14 -64h-75l149 700h75z" />
    <glyph glyph-name="c" unicode="c" horiz-adv-x="515" 
d="M408 353q1 6 1.5 10.5t0.5 8.5q0 23 -9 39.5t-24 27t-34 15.5t-39 5q-59 0 -99 -32.5t-54 -97.5q-5 -21 -10.5 -47.5t-11 -52t-9 -47.5t-3.5 -34q0 -23 9 -39.5t24 -27t34 -15.5t39 -5q53 0 91.5 26.5t55.5 79.5h75q-26 -97 -83.5 -137t-147.5 -40q-34 0 -65 9.5
t-55 28.5t-38.5 46.5t-14.5 62.5q0 13 3.5 35.5t8.5 48.5t11.5 54t11.5 53q23 111 82.5 156.5t154.5 45.5q34 0 65 -10t55 -28.5t38.5 -46t14.5 -62.5q0 -12 -3 -30h-75z" />
    <glyph glyph-name="d" unicode="d" horiz-adv-x="540" 
d="M304 459q-59 0 -99 -32.5t-54 -97.5q-5 -21 -10.5 -47.5t-11 -52t-9 -47.5t-3.5 -34q0 -23 9 -39.5t24 -27t34 -15.5t39 -5q59 0 99 32.5t54 97.5q4 21 10 47.5t11.5 52t9 47.5t3.5 34q0 23 -9 39.5t-24 27t-34 15.5t-39 5zM347 55q-17 -26 -53 -45.5t-87 -19.5
q-30 0 -60 9.5t-53.5 28.5t-38 46.5t-14.5 62.5q0 13 3.5 35.5t8.5 48.5t11.5 54t11.5 53q12 55 32.5 93.5t50 62.5t66.5 35t81 11q45 0 77.5 -20.5t48.5 -53.5l52 244h75l-149 -700h-75z" />
    <glyph glyph-name="e" unicode="e" horiz-adv-x="521" 
d="M132 241q-6 -29 -10.5 -54t-4.5 -39q0 -23 9 -39.5t24 -27t34 -15.5t39 -5q52 0 89.5 25t55.5 76h76q-26 -94 -84 -133t-146 -39q-34 0 -65 9.5t-55 28.5t-38.5 46.5t-14.5 62.5q0 13 3.5 35.5t8.5 48.5t11.5 54t11.5 53q23 111 82.5 156.5t154.5 45.5q34 0 65 -10
t55 -28.5t38.5 -46t14.5 -62.5q0 -21 -7.5 -60.5t-16.5 -81.5h-330zM401 309q4 20 6.5 36.5t2.5 26.5q0 23 -9 39.5t-24 27t-34 15.5t-39 5q-67 0 -107 -40t-50 -110h254z" />
    <glyph glyph-name="f" unicode="f" horiz-adv-x="317" 
d="M304 629q-27 0 -40 -10.5t-18 -35.5l-14 -67h127l-16 -71h-127l-94 -445h-75l94 445h-73l16 71h73l13 61q7 33 15.5 56.5t24.5 38t42 21.5t67 7h79l-15 -71h-79z" />
    <glyph glyph-name="g" unicode="g" horiz-adv-x="539" 
d="M78 -17q-1 -5 -1 -10v-9q0 -23 9 -39.5t24 -27t34 -15.5t39 -5q59 0 99 32.5t54 97.5l14 68q-17 -26 -53 -45.5t-87 -19.5q-30 0 -60 9.5t-53.5 28.5t-38 46.5t-14.5 62.5q0 27 10 74t21 97q12 55 32.5 93.5t50 62.5t66.5 35t81 11q45 0 77.5 -20.5t48.5 -53.5l13 60h75
l-108 -508q-23 -111 -83 -156.5t-154 -45.5q-34 0 -65 9.5t-55 28.5t-38.5 46.5t-14.5 62.5q0 12 3 30h74zM303 459q-59 0 -99 -32.5t-54 -97.5q-5 -21 -10 -44.5t-9.5 -45.5t-7.5 -40.5t-3 -30.5q0 -23 9 -39.5t24 -27t34 -15.5t39 -5q59 0 99 32.5t54 97.5q4 21 9.5 44.5
t10 45.5t7.5 40.5t3 30.5q0 23 -9 39.5t-24 27t-34 15.5t-39 5z" />
    <glyph glyph-name="h" unicode="h" horiz-adv-x="547" 
d="M334 530q30 0 60 -10t53.5 -28.5t38 -46t14.5 -62.5q0 -14 -3.5 -36t-9 -48t-11.5 -54t-11 -53l-41 -192h-75l41 191q5 21 11 47.5t11 52t8.5 47.5t3.5 34q0 23 -9 39.5t-24 27t-34 15.5t-39 5q-59 0 -99 -32.5t-54 -97.5l-70 -329h-75l149 700h75l-50 -235
q17 26 53 45.5t87 19.5z" />
    <glyph glyph-name="i" unicode="i" horiz-adv-x="225" 
d="M223 603h-75l21 97h75zM95 0h-75l110 516h75z" />
    <glyph glyph-name="j" unicode="j" horiz-adv-x="225" 
d="M130 516h75l-123 -577q-7 -33 -16 -56.5t-24.5 -38t-41 -21.5t-66.5 -7h-15l15 71h15q27 0 39.5 10.5t17.5 35.5zM223 603h-75l21 97h75z" />
    <glyph glyph-name="k" unicode="k" horiz-adv-x="505" 
d="M154 279l269 237h100l-229 -202l146 -314h-80l-123 265l-106 -94l-36 -171h-75l149 700h75z" />
    <glyph glyph-name="l" unicode="l" horiz-adv-x="254" 
d="M242 700q-31 -147 -52.5 -248t-36 -167t-22 -103t-11.5 -55t-4.5 -22.5t-0.5 -6.5q0 -13 9 -20t32 -7h16l-15 -71h-16q-50 0 -74.5 23.5t-24.5 63.5q0 9 2 22.5t6.5 39t13.5 67t22.5 106.5t33.5 157.5t47 220.5h75z" />
    <glyph glyph-name="m" unicode="m" horiz-adv-x="846" 
d="M375 191q5 21 11 47.5t11 52t8.5 47.5t3.5 34q0 22 -9 38.5t-23.5 27t-32.5 16t-37 5.5q-51 0 -90 -34.5t-52 -95.5l-70 -329h-75l110 516h75l-11 -51q20 29 53 47t74 18q44 0 81.5 -19t60.5 -53q31 41 75 56.5t95 15.5q30 0 60 -10t53.5 -28.5t38 -46t14.5 -62.5
q0 -14 -3.5 -36t-9 -48t-11.5 -54t-11 -53l-41 -192h-75l41 191q5 21 11 47.5t11 52t8.5 47.5t3.5 34q0 22 -9 38.5t-23.5 27t-32.5 16t-37 5.5q-51 0 -90 -34.5t-52 -95.5l-70 -329h-75z" />
    <glyph glyph-name="n" unicode="n" horiz-adv-x="547" 
d="M334 530q30 0 60 -10t53.5 -28.5t38 -46t14.5 -62.5q0 -14 -3.5 -36t-9 -48t-11.5 -54t-11 -53l-41 -192h-75l41 191q5 21 11 47.5t11 52t8.5 47.5t3.5 34q0 23 -9 39.5t-24 27t-34 15.5t-39 5q-59 0 -99 -32.5t-54 -97.5l-70 -329h-75l110 516h75l-11 -51q17 26 53 45.5
t87 19.5z" />
    <glyph glyph-name="o" unicode="o" horiz-adv-x="527" 
d="M451 192q-23 -111 -83 -156.5t-154 -45.5q-34 0 -65 9.5t-55 28.5t-38.5 46.5t-14.5 62.5q0 13 3.5 35.5t8.5 48.5t11.5 54t11.5 53q23 111 82.5 156.5t154.5 45.5q34 0 65 -10t55 -28.5t38.5 -46t14.5 -62.5q0 -14 -3.5 -36t-9 -48t-11.5 -54t-11 -53zM223 61
q59 0 99 32.5t54 97.5q4 21 10 47.5t11.5 52t9 47.5t3.5 34q0 23 -9 39.5t-24 27t-34 15.5t-39 5q-59 0 -99 -32.5t-54 -97.5q-5 -21 -10.5 -47.5t-11 -52t-9 -47.5t-3.5 -34q0 -23 9 -39.5t24 -27t34 -15.5t39 -5z" />
    <glyph glyph-name="p" unicode="p" horiz-adv-x="541" 
d="M237 61q59 0 99 32.5t54 97.5q4 21 10 47.5t11.5 52t9 47.5t3.5 34q0 23 -9 39.5t-24 27t-34 15.5t-39 5q-59 0 -99 -32.5t-54 -97.5q-5 -21 -10.5 -47.5t-11 -52t-9 -47.5t-3.5 -34q0 -23 9 -39.5t24 -27t34 -15.5t39 -5zM194 465q17 26 53 45.5t87 19.5q30 0 60 -10
t53.5 -28.5t38 -46t14.5 -62.5q0 -14 -3.5 -36t-9 -48t-11.5 -54t-11 -53q-12 -56 -33 -94.5t-50 -62.5t-66 -34.5t-81 -10.5q-45 0 -77.5 20.5t-48.5 53.5l-53 -248h-75l149 700h75z" />
    <glyph glyph-name="q" unicode="q" horiz-adv-x="540" 
d="M304 459q-59 0 -99 -32.5t-54 -97.5q-5 -21 -10.5 -47.5t-11 -52t-9 -47.5t-3.5 -34q0 -23 9 -39.5t24 -27t34 -15.5t39 -5q59 0 99 32.5t54 97.5q4 21 10 47.5t11.5 52t9 47.5t3.5 34q0 23 -9 39.5t-24 27t-34 15.5t-39 5zM347 55q-17 -26 -53 -45.5t-87 -19.5
q-30 0 -60 9.5t-53.5 28.5t-38 46.5t-14.5 62.5q0 13 3.5 35.5t8.5 48.5t11.5 54t11.5 53q12 55 32.5 93.5t50 62.5t66.5 35t81 11q45 0 77.5 -20.5t48.5 -53.5l13 60h75l-149 -700h-75z" />
    <glyph glyph-name="r" unicode="r" horiz-adv-x="327" 
d="M317 454q-59 0 -99 -32.5t-54 -97.5l-69 -324h-75l110 516h75l-12 -56q17 26 53 45.5t87 19.5h33l-15 -71h-34z" />
    <glyph glyph-name="s" unicode="s" horiz-adv-x="471" 
d="M364 365v7q0 22 -8.5 38.5t-23 27t-32.5 16t-37 5.5t-37.5 -5t-33 -14.5t-23.5 -24.5t-9 -35q0 -23 12 -42.5t46 -29.5l67 -20q53 -16 86 -48t33 -81q0 -76 -47.5 -122.5t-146.5 -46.5q-35 0 -69.5 9.5t-61.5 29.5t-43.5 49.5t-16.5 70.5v8t1 8h75v-10q0 -25 10 -42.5
t27.5 -29t40 -17t47.5 -5.5q18 0 37 4t34.5 14t26 25.5t10.5 39.5q0 23 -14 43.5t-54 32.5l-67 20q-49 14 -79 47.5t-30 83.5q0 69 46.5 114t138.5 45q37 0 68.5 -11t54.5 -30.5t35.5 -47t12.5 -59.5v-8t-1 -9h-75z" />
    <glyph glyph-name="t" unicode="t" horiz-adv-x="341" 
d="M214 445q-18 -83 -30 -140.5t-20.5 -95.5t-13 -59.5t-6.5 -32.5t-2.5 -14t-0.5 -5q0 -13 9 -20t32 -7h80l-15 -71h-80q-50 0 -74.5 23.5t-24.5 63.5q0 11 2.5 28.5t10.5 56t21.5 103.5t36.5 170h-73l15 71h73l25 117h75l-25 -117h127l-15 -71h-127z" />
    <glyph glyph-name="u" unicode="u" horiz-adv-x="541" 
d="M212 -10q-30 0 -59 9.5t-52.5 28.5t-38 46.5t-14.5 62.5q0 13 3.5 35.5t8.5 48.5t11.5 54t11.5 53l40 188h75l-40 -187q-5 -21 -10.5 -47.5t-11 -52t-9 -47.5t-3.5 -34q0 -23 9 -39t23 -27t32.5 -16t38.5 -5q57 0 96.5 33t53.5 97l69 325h75l-110 -516h-75l12 55
q-17 -25 -52.5 -45t-83.5 -20z" />
    <glyph glyph-name="v" unicode="v" horiz-adv-x="468" 
d="M222 0h-84l-77 516h73l62 -427l240 427h81z" />
    <glyph glyph-name="w" unicode="w" horiz-adv-x="684" 
d="M460 114l189 402h77l-245 -516h-78l-26 411l-204 -411h-78l-27 516h72l18 -392l194 392h83z" />
    <glyph glyph-name="x" unicode="x" horiz-adv-x="474" 
d="M228 204l-177 -204h-90l231 262l-115 254h78l90 -196l170 196h90l-226 -256l116 -260h-76z" />
    <glyph glyph-name="y" unicode="y" horiz-adv-x="467" 
d="M139 -10l-79 526h73l62 -427l240 427h81l-370 -647q-17 -30 -46.5 -41t-78.5 -12h-29l15 71h38q24 0 34.5 8.5t18.5 22.5z" />
    <glyph glyph-name="z" unicode="z" horiz-adv-x="466" 
d="M99 71h291l-15 -71h-388l15 71l363 374h-278l15 71h375l-15 -71z" />
    <glyph glyph-name="braceleft" unicode="{" horiz-adv-x="306" 
d="M136 -16q0 -35 44 -35h22l-14 -63h-16q-49 0 -75 25.5t-26 67.5q0 6 3.5 26t9.5 46.5t12 56t12 55.5t9.5 45.5t3.5 25.5q0 16 -10 21.5t-34 5.5h-22l13 64h22q31 0 44.5 12.5t18.5 38.5l44 205q8 37 17 60t25 36t41 18t65 5h16l-14 -63h-22q-31 0 -43.5 -11t-17.5 -37
l-44 -205q-7 -32 -16.5 -58t-39.5 -39q22 -17 22 -46q0 -8 -3.5 -29t-9.5 -47.5t-12 -56t-12 -55t-9.5 -44.5t-3.5 -25z" />
    <glyph glyph-name="bar" unicode="|" horiz-adv-x="225" 
d="M80 700h65v-800h-65v800z" />
    <glyph glyph-name="braceright" unicode="}" horiz-adv-x="306" 
d="M184 602q0 35 -44 35h-22l14 63h16q49 0 75 -25.5t26 -67.5q0 -7 -3.5 -26.5t-9.5 -46t-12 -56t-12 -55.5t-9.5 -45.5t-3.5 -25.5q0 -16 10 -21.5t34 -5.5h22l-13 -64h-22q-31 0 -44.5 -12.5t-18.5 -38.5l-44 -205q-8 -37 -17 -60t-25 -36t-41 -18t-65 -5h-16l14 63h22
q31 0 43.5 11t17.5 37l44 205q7 32 16.5 58t39.5 39q-12 9 -17 20t-5 26q0 8 3.5 29t9.5 47.5t12 56t12 55t9.5 44.5t3.5 25z" />
    <glyph glyph-name="asciitilde" unicode="~" horiz-adv-x="524" 
d="M64 271q33 37 68 51t64 14q26 0 45 -7t35.5 -16t32 -16t33.5 -7q20 0 38.5 10.5t45.5 35.5l42 -46q-33 -37 -68 -51t-64 -14q-26 0 -45 7t-35.5 16t-32 16t-33.5 7q-20 0 -38.5 -10.5t-45.5 -35.5z" />
    <glyph glyph-name="uni00A0" unicode="&#xa0;" horiz-adv-x="225" 
 />
    <glyph glyph-name="exclamdown" unicode="&#xa1;" horiz-adv-x="245" 
d="M95 306h75l-104 -490h-75zM208 411h-105l22 105h105z" />
    <glyph glyph-name="cent" unicode="&#xa2;" horiz-adv-x="525" 
d="M413 353q1 6 1.5 10.5t0.5 8.5q0 39 -25 59.5t-59 25.5l-84 -395q46 5 79 31t49 74h75q-26 -94 -80 -134t-138 -43l-19 -90h-43l19 92q-29 4 -55 15t-45.5 29.5t-31 43.5t-11.5 57q0 13 3.5 35.5t8.5 48.5t11.5 54t11.5 53q22 106 78 152t145 49l19 91h43l-20 -92
q29 -4 55.5 -15t46.5 -29.5t31.5 -44t11.5 -56.5q0 -12 -3 -30h-75zM122 148q0 -39 24.5 -60t57.5 -26l84 396q-51 -6 -85.5 -38t-46.5 -91q-5 -21 -10.5 -47.5t-11 -52t-9 -47.5t-3.5 -34z" />
    <glyph glyph-name="sterling" unicode="&#xa3;" horiz-adv-x="588" 
d="M510 508q3 18 3 27q0 48 -29 76t-83 28q-49 0 -89 -31.5t-54 -94.5l-29 -136h254l-11 -53h-254l-43 -201q-5 -20 -9 -32t-13 -20h340l-15 -71h-467l14 71h16q20 0 36.5 10t21.5 35l44 208h-64l11 53h64l29 135q22 104 78.5 151t150.5 47q45 0 78 -15t54 -38.5t31 -53
t10 -57.5q0 -6 -1 -16.5t-3 -21.5h-71z" />
    <glyph glyph-name="currency" unicode="&#xa4;" horiz-adv-x="717" 
d="M167 169q-29 35 -45 78.5t-16 92.5t16 92.5t45 78.5l-85 85l38 38l85 -86q35 29 78.5 45.5t92.5 16.5q48 0 91.5 -16t78.5 -45l85 85l38 -38l-85 -85q29 -35 45.5 -78.5t16.5 -92.5t-16.5 -93t-45.5 -79l85 -84l-38 -38l-85 85q-35 -29 -78.5 -45t-91.5 -16
q-49 0 -92.5 16t-78.5 45l-85 -85l-38 38zM178 340q0 -41 15.5 -77t42.5 -63t63 -42.5t77 -15.5t77 15.5t63 42.5t42.5 63t15.5 77t-15.5 77t-42.5 63t-63 42.5t-77 15.5t-77 -15.5t-63 -42.5t-42.5 -63t-15.5 -77z" />
    <glyph glyph-name="yen" unicode="&#xa5;" horiz-adv-x="587" 
d="M511 332l-12 -53h-164l-19 -86h165l-11 -53h-165l-29 -140h-75l29 140h-163l11 53h163l19 86h-164l12 53h134l-124 368h73l116 -345l264 345h86l-282 -368h136z" />
    <glyph glyph-name="brokenbar" unicode="&#xa6;" horiz-adv-x="225" 
d="M145 361h-65v339h65v-339zM80 239h65v-339h-65v339z" />
    <glyph glyph-name="section" unicode="&#xa7;" horiz-adv-x="548" 
d="M95 -20q-1 -10 -1 -14v-6q0 -24 11 -41.5t27.5 -28.5t36.5 -16.5t39 -5.5q23 0 45.5 6.5t40 19.5t28 33t10.5 46q0 32 -15 60t-49 40l-94 34q-57 21 -84.5 56t-27.5 98q0 65 35.5 105.5t93.5 57.5q-18 22 -28.5 51.5t-10.5 62.5q0 76 50.5 124t146.5 48q36 0 68 -11
t55.5 -31.5t37 -49t13.5 -63.5v-9h-66q0 28 -10.5 47.5t-27 31.5t-36.5 17.5t-40 5.5q-23 0 -45.5 -6.5t-40 -19.5t-28 -33t-10.5 -46q0 -32 15 -60t49 -40l94 -34q57 -21 84.5 -56t27.5 -98q0 -66 -36 -106t-94 -57q18 -23 29 -52t11 -62q0 -76 -50.5 -124t-146.5 -48
q-38 0 -70 11t-55 30.5t-36 46.5t-13 59v6t1 21h66zM268 374q-31 -3 -56.5 -12.5t-43.5 -24.5t-27.5 -33.5t-9.5 -39.5q0 -12 2 -25t9.5 -25.5t22 -23.5t38.5 -20l80 -29q31 3 56 12.5t43 24.5t28 34t10 40q0 12 -2.5 25t-10 25.5t-21.5 23.5t-38 20z" />
    <glyph glyph-name="dieresis" unicode="&#xa8;" horiz-adv-x="408" 
d="M211 587h-75l21 97h75zM410 587h-75l21 97h75z" />
    <glyph glyph-name="copyright" unicode="&#xa9;" horiz-adv-x="810" 
d="M64 350q0 75 28.5 140.5t77 114t114 77t140.5 28.5t140.5 -28.5t114 -77t77 -114t28.5 -140.5t-28.5 -140.5t-77 -114t-114 -77t-140.5 -28.5t-140.5 28.5t-114 77t-77 114t-28.5 140.5zM129 350q0 -62 23 -115.5t63 -94t93.5 -63.5t115.5 -23q61 0 115 23t94 63.5t63 94
t23 115.5q0 61 -23 115t-63 94.5t-94 63.5t-115 23q-62 0 -115.5 -23t-93.5 -63.5t-63 -94.5t-23 -115zM424 135q-69 0 -111 40t-42 109v132q0 68 42 108.5t111 40.5q66 0 107.5 -37t45.5 -100h-68q-5 37 -31 53t-54 16q-15 0 -30 -4.5t-27.5 -14.5t-20 -25.5t-7.5 -36.5
v-132q0 -22 7.5 -37.5t20 -25.5t27.5 -14.5t30 -4.5q28 0 54 16.5t31 53.5h68q-5 -63 -46 -100t-107 -37z" />
    <glyph glyph-name="ordfeminine" unicode="&#xaa;" horiz-adv-x="325" 
d="M175 395q-47 0 -73.5 24t-26.5 63q0 37 17.5 59.5t64.5 34.5q29 8 62.5 10t71.5 3q1 3 1 6v4q0 21 -13.5 34.5t-42.5 13.5q-23 0 -38.5 -11.5t-23.5 -28.5h-66q13 48 43 74.5t93 26.5q46 0 78.5 -26t32.5 -74q0 -26 -4.5 -47l-10.5 -49l-24 -111h-65l7 35
q-10 -16 -31.5 -28.5t-51.5 -12.5zM183 456q12 0 26.5 2.5t28 9.5t24 20.5t15.5 34.5l2 9q-38 -2 -62 -3.5t-44 -6.5q-15 -4 -25 -11.5t-10 -21.5q0 -18 13 -25.5t32 -7.5z" />
    <glyph glyph-name="guillemotleft" unicode="&#xab;" horiz-adv-x="468" 
d="M53 236l15 74l199 147l-20 -94l-132 -97l90 -98l-17 -79zM232 236l15 74l199 147l-20 -94l-132 -97l90 -98l-17 -79z" />
    <glyph glyph-name="logicalnot" unicode="&#xac;" 
d="M421 248h-339v65h404v-235h-65v170z" />
    <glyph glyph-name="uni00AD" unicode="&#xad;" horiz-adv-x="400" 
d="M53 248l13 65h290l-13 -65h-290z" />
    <glyph glyph-name="registered" unicode="&#xae;" horiz-adv-x="810" 
d="M64 350q0 75 28.5 140.5t77 114t114 77t140.5 28.5t140.5 -28.5t114 -77t77 -114t28.5 -140.5t-28.5 -140.5t-77 -114t-114 -77t-140.5 -28.5t-140.5 28.5t-114 77t-77 114t-28.5 140.5zM129 350q0 -62 23 -115.5t63 -94t93.5 -63.5t115.5 -23q61 0 115 23t94 63.5t63 94
t23 115.5q0 61 -23 115t-63 94.5t-94 63.5t-115 23q-62 0 -115.5 -23t-93.5 -63.5t-63 -94.5t-23 -115zM522 141l-104 177h-65v-177h-68v418h170q61 0 95.5 -32t34.5 -89q0 -48 -24 -78t-69 -39l106 -180h-76zM353 384h102q27 0 43.5 13.5t16.5 39.5q0 27 -16.5 40.5
t-43.5 13.5h-102v-107z" />
    <glyph glyph-name="macron" unicode="&#xaf;" horiz-adv-x="426" 
d="M150 668h298l-13 -65h-298z" />
    <glyph glyph-name="degree" unicode="&#xb0;" horiz-adv-x="414" 
d="M113 549q0 32 12.5 60.5t33.5 49.5t49.5 33.5t60.5 12.5t60.5 -12.5t49.5 -33.5t33.5 -49.5t12.5 -60.5t-12.5 -60.5t-33.5 -49.5t-49.5 -33.5t-60.5 -12.5t-60.5 12.5t-49.5 33.5t-33.5 49.5t-12.5 60.5zM172 549q0 -41 28 -69.5t69 -28.5t69 28.5t28 69.5t-28 69.5
t-69 28.5t-69 -28.5t-28 -69.5z" />
    <glyph glyph-name="plusminus" unicode="&#xb1;" 
d="M319 307v-144h-65v144h-172v65h172v144h65v-144h167v-65h-167zM82 0v65h404v-65h-404z" />
    <glyph glyph-name="twosuperior" unicode="&#xb2;" horiz-adv-x="309" 
d="M69 462l177 150q32 27 46.5 46.5t14.5 45.5t-18.5 37t-36.5 11t-30 -6.5t-20 -17t-12 -22.5t-6 -24h-65q8 60 40.5 95.5t101.5 35.5q49 0 79.5 -28t30.5 -79q0 -38 -18 -69.5t-57 -64.5l-130 -110h155l-13 -61h-253z" />
    <glyph glyph-name="threesuperior" unicode="&#xb3;" horiz-adv-x="307" 
d="M191 395q-49 0 -80.5 28t-31.5 79v6.5t1 8.5h64q-1 -3 -1 -7.5v-5.5q0 -13 5.5 -22t14 -15t18.5 -8.5t19 -2.5q31 0 48 18.5t17 50.5q0 23 -15 36.5t-37 13.5h-35l13 57h34q35 0 56 21.5t21 50.5q0 26 -18.5 37t-36.5 11q-27 0 -44.5 -17t-22.5 -43h-65q5 27 14.5 49
t26 38t40.5 25t59 9q50 0 80.5 -28t30.5 -79q0 -15 -5 -32t-13.5 -32t-20.5 -27t-26 -19q13 -11 21 -29.5t8 -38.5q0 -17 -5 -40t-20 -43.5t-42.5 -35t-71.5 -14.5z" />
    <glyph glyph-name="acute" unicode="&#xb4;" horiz-adv-x="304" 
d="M331 700l-118 -129h-67l77 129h108z" />
    <glyph glyph-name="mu" unicode="&#xb5;" horiz-adv-x="548" 
d="M165 329q-5 -21 -10.5 -47.5t-11 -52t-9 -47.5t-3.5 -34q0 -23 9 -39t23 -27t32.5 -16t38.5 -5q57 0 96.5 33t53.5 97l69 325h75l-110 -516h-75l12 55q-23 -32 -60 -48.5t-72 -16.5q-17 0 -34.5 4.5t-33.5 13t-28.5 21.5t-19.5 30l-51 -243h-75l149 700h75z" />
    <glyph glyph-name="mu" unicode="&#x3bc;" horiz-adv-x="548" 
d="M165 329q-5 -21 -10.5 -47.5t-11 -52t-9 -47.5t-3.5 -34q0 -23 9 -39t23 -27t32.5 -16t38.5 -5q57 0 96.5 33t53.5 97l69 325h75l-110 -516h-75l12 55q-23 -32 -60 -48.5t-72 -16.5q-17 0 -34.5 4.5t-33.5 13t-28.5 21.5t-19.5 30l-51 -243h-75l149 700h75z" />
    <glyph glyph-name="paragraph" unicode="&#xb6;" horiz-adv-x="566" 
d="M408 -87h-64l154 723h-110l-154 -723h-65l82 387h-10q-36 0 -65.5 14.5t-50.5 38.5t-33 56t-12 67q0 49 18 90t50.5 71t77.5 46.5t100 16.5h249z" />
    <glyph glyph-name="periodcentered" unicode="&#xb7;" horiz-adv-x="285" 
d="M108 343h105l-23 -105h-105z" />
    <glyph glyph-name="cedilla" unicode="&#xb8;" horiz-adv-x="268" 
d="M41 0h65l-38 -158h-98z" />
    <glyph glyph-name="onesuperior" unicode="&#xb9;" horiz-adv-x="217" 
d="M202 720l-92 -67l18 87l92 67h65l-86 -406h-65z" />
    <glyph glyph-name="ordmasculine" unicode="&#xba;" horiz-adv-x="322" 
d="M209 456q26 0 43.5 15.5t22.5 38.5q2 7 5 21l6 28t5 25.5t2 14.5q0 21 -13.5 34.5t-42.5 13.5q-26 0 -43.5 -15.5t-22.5 -38.5q-2 -7 -5 -20.5t-6 -27.5t-5.5 -25.5t-2.5 -14.5q0 -21 14 -35t43 -14zM201 395q-47 0 -79.5 26.5t-32.5 74.5q0 25 5 46.5t11 48.5
q12 56 42.5 86.5t97.5 30.5q47 0 79 -26t32 -74q0 -26 -4.5 -47l-10.5 -49q-12 -55 -42.5 -86t-97.5 -31z" />
    <glyph glyph-name="guillemotright" unicode="&#xbb;" horiz-adv-x="468" 
d="M422 310l-15 -74l-199 -147l20 94l132 97l-90 98l17 79zM243 310l-15 -74l-199 -147l20 94l132 97l-90 98l17 79z" />
    <glyph glyph-name="onequarter" unicode="&#xbc;" horiz-adv-x="716" 
d="M220 613l-92 -67l18 87l92 67h65l-86 -406h-65zM642 700l-481 -700h-71l481 700h71zM541 99h-178l12 59l231 248h65l-53 -248h43l-13 -59h-42l-21 -99h-65zM553 158l28 127l-119 -127h91z" />
    <glyph glyph-name="onehalf" unicode="&#xbd;" horiz-adv-x="754" 
d="M220 613l-92 -67l18 87l92 67h65l-86 -406h-65zM642 700l-481 -700h-71l481 700h71zM403 61l177 150q32 27 46.5 46.5t14.5 45.5t-18.5 37t-36.5 11t-30 -6.5t-20 -17t-12 -22.5t-6 -24h-65q8 60 40.5 95.5t101.5 35.5q49 0 79.5 -28t30.5 -79q0 -38 -18 -69.5t-57 -64.5
l-130 -110h155l-13 -61h-253z" />
    <glyph glyph-name="threequarters" unicode="&#xbe;" horiz-adv-x="768" 
d="M189 288q-49 0 -80.5 28t-31.5 79v6.5t1 8.5h64q-1 -3 -1 -7.5v-5.5q0 -13 5.5 -22t14 -15t18.5 -8.5t19 -2.5q31 0 48 18.5t17 50.5q0 23 -15 36.5t-37 13.5h-35l13 57h34q35 0 56 21.5t21 50.5q0 26 -18.5 37t-36.5 11q-27 0 -44.5 -17t-22.5 -43h-65q5 27 14.5 49
t26 38t40.5 25t59 9q50 0 80.5 -28t30.5 -79q0 -15 -5 -32t-13.5 -32t-20.5 -27t-26 -19q13 -11 21 -29.5t8 -38.5q0 -17 -5 -40t-20 -43.5t-42.5 -35t-71.5 -14.5zM693 700l-481 -700h-71l481 700h71zM592 99h-178l12 59l231 248h65l-53 -248h43l-13 -59h-42l-21 -99h-65z
M604 158l28 127l-119 -127h91z" />
    <glyph glyph-name="questiondown" unicode="&#xbf;" horiz-adv-x="484" 
d="M335 411h-105l22 105h105zM401 16q-23 -113 -80.5 -161.5t-151.5 -48.5q-45 0 -78 15t-54 38.5t-31 52.5t-10 58q0 34 9.5 63t24.5 53t32.5 42t33.5 30l72 55q25 20 35.5 34.5t15.5 36.5l4 22h75l-4 -22q-9 -41 -28.5 -68.5t-55.5 -55.5l-71 -55q-9 -7 -21 -18.5
t-23.5 -27t-19 -35t-7.5 -43.5q0 -48 29 -76t83 -28q60 0 98 39.5t48 99.5h75z" />
    <glyph glyph-name="Agrave" unicode="&#xc0;" horiz-adv-x="566" 
d="M404 198h-258l-105 -198h-81l373 700h88l76 -700h-72zM360 600l-177 -333h213zM366 854l69 -109h-67l-105 109h103z" />
    <glyph glyph-name="Aacute" unicode="&#xc1;" horiz-adv-x="566" 
d="M404 198h-258l-105 -198h-81l373 700h88l76 -700h-72zM360 600l-177 -333h213zM521 854l-128 -109h-74l92 109h110z" />
    <glyph glyph-name="Acircumflex" unicode="&#xc2;" horiz-adv-x="566" 
d="M404 198h-258l-105 -198h-81l373 700h88l76 -700h-72zM360 600l-177 -333h213zM402 796l-70 -51h-104l148 109h66l102 -109h-94z" />
    <glyph glyph-name="Atilde" unicode="&#xc3;" horiz-adv-x="566" 
d="M404 198h-258l-105 -198h-81l373 700h88l76 -700h-72zM360 600l-177 -333h213zM342 852q30 0 55 -14l30 -16q16 -8 26 -8q28 0 39 36h65q-9 -45 -37 -73.5t-66 -28.5q-30 0 -55 14l-30 16q-16 8 -26 8q-13 0 -23.5 -9t-15.5 -27h-65q9 45 37 73.5t66 28.5z" />
    <glyph glyph-name="Adieresis" unicode="&#xc4;" horiz-adv-x="566" 
d="M404 198h-258l-105 -198h-81l373 700h88l76 -700h-72zM360 600l-177 -333h213zM525 751h-77l21 97h77zM328 751h-77l21 97h77z" />
    <glyph glyph-name="Aring" unicode="&#xc5;" horiz-adv-x="566" 
d="M404 198h-258l-105 -198h-81l373 700h88l76 -700h-72zM360 600l-177 -333h213zM323 799q0 31 21.5 53t52.5 22t53 -22t22 -53t-22 -52.5t-53 -21.5t-52.5 21.5t-21.5 52.5zM371 799q0 -11 7.5 -18.5t18.5 -7.5t18.5 7.5t7.5 18.5t-7.5 18.5t-18.5 7.5t-18.5 -7.5
t-7.5 -18.5z" />
    <glyph glyph-name="AE" unicode="&#xc6;" horiz-adv-x="839" 
d="M379 267l74 349l-235 -349h161zM322 0l42 198h-192l-133 -198h-86l470 700h446l-16 -74h-321l-50 -235h321l-16 -74h-320l-52 -243h321l-16 -74h-398z" />
    <glyph glyph-name="Ccedilla" unicode="&#xc7;" horiz-adv-x="561" 
d="M373 710q39 0 74 -10.5t61.5 -32.5t42 -56t15.5 -80v-19t-2 -19h-78q2 9 2.5 18t0.5 14q0 54 -31.5 82.5t-95.5 28.5q-69 0 -114.5 -41.5t-63.5 -121.5q-29 -129 -44.5 -204t-15.5 -94q0 -54 31.5 -82.5t95.5 -28.5t108.5 36.5t64.5 106.5h77q-27 -106 -88.5 -161.5
t-172.5 -55.5q-39 0 -74 10.5t-61.5 32.5t-42 56t-15.5 80q0 11 0.5 19t2 19.5t5.5 29.5t10.5 48t16.5 75.5t25 112.5q25 115 87.5 176t178.5 61zM206 0h72l-38 -158h-100z" />
    <glyph glyph-name="Egrave" unicode="&#xc8;" horiz-adv-x="542" 
d="M118 74h321l-16 -74h-398l149 700h398l-16 -74h-321l-50 -235h321l-16 -74h-320zM362 854l69 -109h-67l-105 109h103z" />
    <glyph glyph-name="Eacute" unicode="&#xc9;" horiz-adv-x="542" 
d="M118 74h321l-16 -74h-398l149 700h398l-16 -74h-321l-50 -235h321l-16 -74h-320zM517 854l-128 -109h-74l92 109h110z" />
    <glyph glyph-name="Ecircumflex" unicode="&#xca;" horiz-adv-x="542" 
d="M118 74h321l-16 -74h-398l149 700h398l-16 -74h-321l-50 -235h321l-16 -74h-320zM398 796l-70 -51h-104l148 109h66l102 -109h-94z" />
    <glyph glyph-name="Edieresis" unicode="&#xcb;" horiz-adv-x="542" 
d="M118 74h321l-16 -74h-398l149 700h398l-16 -74h-321l-50 -235h321l-16 -74h-320zM521 751h-77l21 97h77zM324 751h-77l21 97h77z" />
    <glyph glyph-name="Igrave" unicode="&#xcc;" horiz-adv-x="237" 
d="M174 700h77l-149 -700h-77zM202 854l69 -109h-67l-105 109h103z" />
    <glyph glyph-name="Iacute" unicode="&#xcd;" horiz-adv-x="237" 
d="M174 700h77l-149 -700h-77zM358 854l-128 -109h-74l92 109h110z" />
    <glyph glyph-name="Icircumflex" unicode="&#xce;" horiz-adv-x="237" 
d="M174 700h77l-149 -700h-77zM238 796l-70 -51h-104l148 109h66l102 -109h-94z" />
    <glyph glyph-name="Idieresis" unicode="&#xcf;" horiz-adv-x="237" 
d="M174 700h77l-149 -700h-77zM361 751h-77l21 97h77zM164 751h-77l21 97h77z" />
    <glyph glyph-name="Eth" unicode="&#xd0;" horiz-adv-x="600" 
d="M36 0l69 323h-70l11 55h70l69 322h215q39 0 74 -10.5t61.5 -32.5t42 -56t15.5 -80q0 -21 -5.5 -52.5t-13.5 -69.5t-18 -79.5t-19 -82.5q-13 -58 -34 -102t-53.5 -74t-76.5 -45.5t-102 -15.5h-235zM282 74q69 0 114.5 41.5t63.5 121.5q28 128 42 193.5t14 84.5
q0 54 -31.5 82.5t-95.5 28.5h-143l-53 -248h149l-11 -55h-149l-53 -249h153z" />
    <glyph glyph-name="Ntilde" unicode="&#xd1;" horiz-adv-x="612" 
d="M477 0h-77l-178 565l-120 -565h-77l149 700h77l178 -565l120 565h77zM366 852q30 0 55 -14l30 -16q16 -8 26 -8q28 0 39 36h65q-9 -45 -37 -73.5t-66 -28.5q-30 0 -55 14l-30 16q-16 8 -26 8q-13 0 -23.5 -9t-15.5 -27h-65q9 45 37 73.5t66 28.5z" />
    <glyph glyph-name="Ograve" unicode="&#xd2;" horiz-adv-x="572" 
d="M506 227q-13 -58 -34 -102t-53.5 -74t-76.5 -45.5t-102 -15.5q-39 0 -74 10.5t-61.5 32.5t-42 56t-15.5 80q0 11 0.5 19t2 19.5t5.5 29.5t10.5 48t16.5 75.5t25 112.5q25 115 87.5 176t178.5 61q39 0 74 -10.5t61.5 -32.5t42 -56t15.5 -80q0 -11 -0.5 -19t-2 -19.5
t-5.5 -29.5t-10.5 -48t-16.5 -75.5t-25 -112.5zM124 175q0 -54 31.5 -82.5t95.5 -28.5q69 0 114.5 41.5t63.5 121.5q29 129 44.5 204t15.5 94q0 54 -31.5 82.5t-95.5 28.5q-69 0 -114.5 -41.5t-63.5 -121.5q-29 -129 -44.5 -204t-15.5 -94zM368 854l69 -109h-67l-105 109
h103z" />
    <glyph glyph-name="Oacute" unicode="&#xd3;" horiz-adv-x="572" 
d="M506 227q-13 -58 -34 -102t-53.5 -74t-76.5 -45.5t-102 -15.5q-39 0 -74 10.5t-61.5 32.5t-42 56t-15.5 80q0 11 0.5 19t2 19.5t5.5 29.5t10.5 48t16.5 75.5t25 112.5q25 115 87.5 176t178.5 61q39 0 74 -10.5t61.5 -32.5t42 -56t15.5 -80q0 -11 -0.5 -19t-2 -19.5
t-5.5 -29.5t-10.5 -48t-16.5 -75.5t-25 -112.5zM124 175q0 -54 31.5 -82.5t95.5 -28.5q69 0 114.5 41.5t63.5 121.5q29 129 44.5 204t15.5 94q0 54 -31.5 82.5t-95.5 28.5q-69 0 -114.5 -41.5t-63.5 -121.5q-29 -129 -44.5 -204t-15.5 -94zM524 854l-128 -109h-74l92 109
h110z" />
    <glyph glyph-name="Ocircumflex" unicode="&#xd4;" horiz-adv-x="572" 
d="M506 227q-13 -58 -34 -102t-53.5 -74t-76.5 -45.5t-102 -15.5q-39 0 -74 10.5t-61.5 32.5t-42 56t-15.5 80q0 11 0.5 19t2 19.5t5.5 29.5t10.5 48t16.5 75.5t25 112.5q25 115 87.5 176t178.5 61q39 0 74 -10.5t61.5 -32.5t42 -56t15.5 -80q0 -11 -0.5 -19t-2 -19.5
t-5.5 -29.5t-10.5 -48t-16.5 -75.5t-25 -112.5zM124 175q0 -54 31.5 -82.5t95.5 -28.5q69 0 114.5 41.5t63.5 121.5q29 129 44.5 204t15.5 94q0 54 -31.5 82.5t-95.5 28.5q-69 0 -114.5 -41.5t-63.5 -121.5q-29 -129 -44.5 -204t-15.5 -94zM406 796l-70 -51h-104l148 109h66
l102 -109h-94z" />
    <glyph glyph-name="Otilde" unicode="&#xd5;" horiz-adv-x="572" 
d="M506 227q-13 -58 -34 -102t-53.5 -74t-76.5 -45.5t-102 -15.5q-39 0 -74 10.5t-61.5 32.5t-42 56t-15.5 80q0 11 0.5 19t2 19.5t5.5 29.5t10.5 48t16.5 75.5t25 112.5q25 115 87.5 176t178.5 61q39 0 74 -10.5t61.5 -32.5t42 -56t15.5 -80q0 -11 -0.5 -19t-2 -19.5
t-5.5 -29.5t-10.5 -48t-16.5 -75.5t-25 -112.5zM124 175q0 -54 31.5 -82.5t95.5 -28.5q69 0 114.5 41.5t63.5 121.5q29 129 44.5 204t15.5 94q0 54 -31.5 82.5t-95.5 28.5q-69 0 -114.5 -41.5t-63.5 -121.5q-29 -129 -44.5 -204t-15.5 -94zM345 852q30 0 55 -14l30 -16
q16 -8 26 -8q28 0 39 36h65q-9 -45 -37 -73.5t-66 -28.5q-30 0 -55 14l-30 16q-16 8 -26 8q-13 0 -23.5 -9t-15.5 -27h-65q9 45 37 73.5t66 28.5z" />
    <glyph glyph-name="Odieresis" unicode="&#xd6;" horiz-adv-x="572" 
d="M506 227q-13 -58 -34 -102t-53.5 -74t-76.5 -45.5t-102 -15.5q-39 0 -74 10.5t-61.5 32.5t-42 56t-15.5 80q0 11 0.5 19t2 19.5t5.5 29.5t10.5 48t16.5 75.5t25 112.5q25 115 87.5 176t178.5 61q39 0 74 -10.5t61.5 -32.5t42 -56t15.5 -80q0 -11 -0.5 -19t-2 -19.5
t-5.5 -29.5t-10.5 -48t-16.5 -75.5t-25 -112.5zM124 175q0 -54 31.5 -82.5t95.5 -28.5q69 0 114.5 41.5t63.5 121.5q29 129 44.5 204t15.5 94q0 54 -31.5 82.5t-95.5 28.5q-69 0 -114.5 -41.5t-63.5 -121.5q-29 -129 -44.5 -204t-15.5 -94zM528 751h-77l21 97h77zM331 751
h-77l21 97h77z" />
    <glyph glyph-name="multiply" unicode="&#xd7;" 
d="M237 280l-163 164l46 46l163 -164l164 164l46 -46l-164 -164l163 -162l-46 -46l-163 162l-162 -162l-46 46z" />
    <glyph glyph-name="Oslash" unicode="&#xd8;" horiz-adv-x="578" 
d="M509 227q-13 -58 -34 -102t-53.5 -74t-76.5 -45.5t-102 -15.5q-41 0 -77.5 11.5t-62.5 36.5l-48 -62l-47 31l60 77q-18 36 -18 85q0 11 0.5 19t2.5 19.5t5.5 29.5t10 48t16.5 75.5t25 112.5q25 115 87.5 176t178.5 61q40 0 76 -12t63 -35l47 61l47 -32l-59 -76
q19 -36 19 -85q0 -11 -0.5 -19t-2 -19.5t-5.5 -29.5t-10.5 -48t-16.5 -75.5t-25 -112.5zM492 525q0 10 -1 15l-340 -440q31 -36 103 -36q69 0 114.5 41.5t63.5 121.5q29 129 44.5 204t15.5 94zM127 161l340 440q-32 35 -102 35q-69 0 -114.5 -41.5t-63.5 -121.5
q-29 -129 -44.5 -204t-15.5 -94v-14z" />
    <glyph glyph-name="Ugrave" unicode="&#xd9;" horiz-adv-x="594" 
d="M134 175q0 -54 31.5 -82.5t95.5 -28.5q69 0 115 41.5t63 121.5l104 473h77l-104 -473q-13 -58 -34 -102t-53.5 -74t-76.5 -45.5t-102 -15.5q-39 0 -74 10.5t-61.5 32.5t-42 56t-15.5 80q0 16 9 63.5t24 118t35 160t42 189.5h77q-10 -43 -21.5 -96t-24 -109t-24 -110
t-20.5 -98t-14.5 -74t-5.5 -38zM382 854l69 -109h-67l-105 109h103z" />
    <glyph glyph-name="Uacute" unicode="&#xda;" horiz-adv-x="594" 
d="M134 175q0 -54 31.5 -82.5t95.5 -28.5q69 0 115 41.5t63 121.5l104 473h77l-104 -473q-13 -58 -34 -102t-53.5 -74t-76.5 -45.5t-102 -15.5q-39 0 -74 10.5t-61.5 32.5t-42 56t-15.5 80q0 16 9 63.5t24 118t35 160t42 189.5h77q-10 -43 -21.5 -96t-24 -109t-24 -110
t-20.5 -98t-14.5 -74t-5.5 -38zM537 854l-128 -109h-74l92 109h110z" />
    <glyph glyph-name="Ucircumflex" unicode="&#xdb;" horiz-adv-x="594" 
d="M134 175q0 -54 31.5 -82.5t95.5 -28.5q69 0 115 41.5t63 121.5l104 473h77l-104 -473q-13 -58 -34 -102t-53.5 -74t-76.5 -45.5t-102 -15.5q-39 0 -74 10.5t-61.5 32.5t-42 56t-15.5 80q0 16 9 63.5t24 118t35 160t42 189.5h77q-10 -43 -21.5 -96t-24 -109t-24 -110
t-20.5 -98t-14.5 -74t-5.5 -38zM418 796l-70 -51h-104l148 109h66l102 -109h-94z" />
    <glyph glyph-name="Udieresis" unicode="&#xdc;" horiz-adv-x="594" 
d="M134 175q0 -54 31.5 -82.5t95.5 -28.5q69 0 115 41.5t63 121.5l104 473h77l-104 -473q-13 -58 -34 -102t-53.5 -74t-76.5 -45.5t-102 -15.5q-39 0 -74 10.5t-61.5 32.5t-42 56t-15.5 80q0 16 9 63.5t24 118t35 160t42 189.5h77q-10 -43 -21.5 -96t-24 -109t-24 -110
t-20.5 -98t-14.5 -74t-5.5 -38zM540 751h-77l21 97h77zM343 751h-77l21 97h77z" />
    <glyph glyph-name="Yacute" unicode="&#xdd;" horiz-adv-x="545" 
d="M256 0h-77l59 279l-141 421h75l115 -346l263 346h86l-321 -422zM511 854l-128 -109h-74l92 109h110z" />
    <glyph glyph-name="Thorn" unicode="&#xde;" horiz-adv-x="551" 
d="M556 374q0 -50 -17 -93.5t-50.5 -75.5t-83 -50.5t-114.5 -18.5h-160l-29 -136h-77l149 700h77l-29 -137h149q42 0 76.5 -15.5t58.5 -41.5t37 -60.5t13 -71.5zM303 210q37 0 68.5 11.5t55 32.5t37 50t13.5 64q0 21 -5.5 43t-19.5 39t-37.5 28t-59.5 11h-149l-59 -279h156z
" />
    <glyph glyph-name="germandbls" unicode="&#xdf;" horiz-adv-x="527" 
d="M191 70q10 -4 27 -6.5t32 -2.5q34 0 61 12.5t46 34t29 50.5t10 61q0 22 -6 44t-20 39.5t-36 28.5t-53 11h-32l15 71h21q60 2 95 44t35 104q0 39 -22 58.5t-60 19.5q-49 0 -81.5 -28.5t-44.5 -85.5l-112 -525h-75l112 525q11 53 30 88.5t46 57t62 30.5t78 9q63 0 103 -38
t40 -103q0 -61 -22.5 -110.5t-67.5 -79.5q32 -24 51.5 -62.5t19.5 -89.5t-14 -94.5t-43 -75t-74 -49.5t-106 -18q-14 0 -31.5 1.5t-28.5 3.5z" />
    <glyph glyph-name="agrave" unicode="&#xe0;" horiz-adv-x="527" 
d="M383 252q-43 -2 -75.5 -4.5t-58 -6t-46 -9t-41.5 -13.5q-29 -12 -45 -30.5t-16 -53.5q0 -31 26 -52.5t80 -21.5q60 0 104.5 32t58.5 98zM77 358q26 94 84 133t146 39q34 0 65 -10t55 -28.5t38.5 -46t14.5 -62.5q0 -14 -3.5 -36t-9 -48t-11.5 -54t-11 -53q-12 -54 -21 -96
q-4 -18 -7.5 -35.5t-6.5 -31t-4.5 -21.5l-1.5 -8h-75l12 55q-20 -29 -60 -47t-90 -18q-40 0 -71 11.5t-52 31t-32 44.5t-11 51q0 33 7 58.5t22.5 45t41 34t62.5 25.5q48 14 110.5 19.5t128.5 9.5q3 17 5 30.5t2 21.5q0 23 -9 39.5t-24 27t-34 15.5t-39 5q-52 0 -89.5 -25
t-55.5 -76h-76zM312 700l50 -129h-60l-91 129h101z" />
    <glyph glyph-name="aacute" unicode="&#xe1;" horiz-adv-x="527" 
d="M383 252q-43 -2 -75.5 -4.5t-58 -6t-46 -9t-41.5 -13.5q-29 -12 -45 -30.5t-16 -53.5q0 -31 26 -52.5t80 -21.5q60 0 104.5 32t58.5 98zM77 358q26 94 84 133t146 39q34 0 65 -10t55 -28.5t38.5 -46t14.5 -62.5q0 -14 -3.5 -36t-9 -48t-11.5 -54t-11 -53q-12 -54 -21 -96
q-4 -18 -7.5 -35.5t-6.5 -31t-4.5 -21.5l-1.5 -8h-75l12 55q-20 -29 -60 -47t-90 -18q-40 0 -71 11.5t-52 31t-32 44.5t-11 51q0 33 7 58.5t22.5 45t41 34t62.5 25.5q48 14 110.5 19.5t128.5 9.5q3 17 5 30.5t2 21.5q0 23 -9 39.5t-24 27t-34 15.5t-39 5q-52 0 -89.5 -25
t-55.5 -76h-76zM445 700l-118 -129h-67l77 129h108z" />
    <glyph glyph-name="acircumflex" unicode="&#xe2;" horiz-adv-x="527" 
d="M383 252q-43 -2 -75.5 -4.5t-58 -6t-46 -9t-41.5 -13.5q-29 -12 -45 -30.5t-16 -53.5q0 -31 26 -52.5t80 -21.5q60 0 104.5 32t58.5 98zM77 358q26 94 84 133t146 39q34 0 65 -10t55 -28.5t38.5 -46t14.5 -62.5q0 -14 -3.5 -36t-9 -48t-11.5 -54t-11 -53q-12 -54 -21 -96
q-4 -18 -7.5 -35.5t-6.5 -31t-4.5 -21.5l-1.5 -8h-75l12 55q-20 -29 -60 -47t-90 -18q-40 0 -71 11.5t-52 31t-32 44.5t-11 51q0 33 7 58.5t22.5 45t41 34t62.5 25.5q48 14 110.5 19.5t128.5 9.5q3 17 5 30.5t2 21.5q0 23 -9 39.5t-24 27t-34 15.5t-39 5q-52 0 -89.5 -25
t-55.5 -76h-76zM485 571h-84l-54 71l-84 -71h-94l152 129h66z" />
    <glyph glyph-name="atilde" unicode="&#xe3;" horiz-adv-x="527" 
d="M383 252q-43 -2 -75.5 -4.5t-58 -6t-46 -9t-41.5 -13.5q-29 -12 -45 -30.5t-16 -53.5q0 -31 26 -52.5t80 -21.5q60 0 104.5 32t58.5 98zM77 358q26 94 84 133t146 39q34 0 65 -10t55 -28.5t38.5 -46t14.5 -62.5q0 -14 -3.5 -36t-9 -48t-11.5 -54t-11 -53q-12 -54 -21 -96
q-4 -18 -7.5 -35.5t-6.5 -31t-4.5 -21.5l-1.5 -8h-75l12 55q-20 -29 -60 -47t-90 -18q-40 0 -71 11.5t-52 31t-32 44.5t-11 51q0 33 7 58.5t22.5 45t41 34t62.5 25.5q48 14 110.5 19.5t128.5 9.5q3 17 5 30.5t2 21.5q0 23 -9 39.5t-24 27t-34 15.5t-39 5q-52 0 -89.5 -25
t-55.5 -76h-76zM183 586q9 45 37 73.5t66 28.5q30 0 55 -14l30 -17q14 -9 31 -9q13 0 25 10.5t16 27.5h58q-9 -45 -37 -73.5t-66 -28.5q-30 0 -55 14l-30 17q-14 9 -31 9q-13 0 -25 -10.5t-16 -27.5h-58z" />
    <glyph glyph-name="adieresis" unicode="&#xe4;" horiz-adv-x="527" 
d="M383 252q-43 -2 -75.5 -4.5t-58 -6t-46 -9t-41.5 -13.5q-29 -12 -45 -30.5t-16 -53.5q0 -31 26 -52.5t80 -21.5q60 0 104.5 32t58.5 98zM77 358q26 94 84 133t146 39q34 0 65 -10t55 -28.5t38.5 -46t14.5 -62.5q0 -14 -3.5 -36t-9 -48t-11.5 -54t-11 -53q-12 -54 -21 -96
q-4 -18 -7.5 -35.5t-6.5 -31t-4.5 -21.5l-1.5 -8h-75l12 55q-20 -29 -60 -47t-90 -18q-40 0 -71 11.5t-52 31t-32 44.5t-11 51q0 33 7 58.5t22.5 45t41 34t62.5 25.5q48 14 110.5 19.5t128.5 9.5q3 17 5 30.5t2 21.5q0 23 -9 39.5t-24 27t-34 15.5t-39 5q-52 0 -89.5 -25
t-55.5 -76h-76zM268 587h-75l21 97h75zM467 587h-75l21 97h75z" />
    <glyph glyph-name="aring" unicode="&#xe5;" horiz-adv-x="527" 
d="M383 252q-43 -2 -75.5 -4.5t-58 -6t-46 -9t-41.5 -13.5q-29 -12 -45 -30.5t-16 -53.5q0 -31 26 -52.5t80 -21.5q60 0 104.5 32t58.5 98zM77 358q26 94 84 133t146 39q34 0 65 -10t55 -28.5t38.5 -46t14.5 -62.5q0 -14 -3.5 -36t-9 -48t-11.5 -54t-11 -53q-12 -54 -21 -96
q-4 -18 -7.5 -35.5t-6.5 -31t-4.5 -21.5l-1.5 -8h-75l12 55q-20 -29 -60 -47t-90 -18q-40 0 -71 11.5t-52 31t-32 44.5t-11 51q0 33 7 58.5t22.5 45t41 34t62.5 25.5q48 14 110.5 19.5t128.5 9.5q3 17 5 30.5t2 21.5q0 23 -9 39.5t-24 27t-34 15.5t-39 5q-52 0 -89.5 -25
t-55.5 -76h-76zM314 635q0 -11 8.5 -19.5t19.5 -8.5t19.5 8.5t8.5 19.5t-8.5 19.5t-19.5 8.5t-19.5 -8.5t-8.5 -19.5zM268 635q0 31 21.5 53t52.5 22t53 -22t22 -53t-22 -52.5t-53 -21.5t-52.5 21.5t-21.5 52.5z" />
    <glyph glyph-name="ae" unicode="&#xe6;" horiz-adv-x="844" 
d="M537 -10q-24 0 -48.5 5.5t-46.5 16.5t-39.5 27.5t-26.5 38.5q-38 -51 -88 -69.5t-97 -18.5q-40 0 -71 11.5t-52 31t-32 44.5t-11 51q0 33 7 58.5t22.5 45t41 34t62.5 25.5q48 14 110.5 19.5t128.5 9.5q3 17 5 30.5t2 21.5q0 23 -9 39.5t-24 27t-34 15.5t-39 5
q-52 0 -89.5 -25t-55.5 -76h-76q26 94 84 133t146 39q50 0 90.5 -20t60.5 -57q27 41 75 59t103 18q34 0 65 -10t55 -28.5t38.5 -46t14.5 -62.5q0 -21 -7.5 -60.5t-16.5 -81.5h-330q-6 -29 -10.5 -54t-4.5 -39q0 -23 9 -39.5t24 -27t34 -15.5t39 -5q52 0 89.5 25t55.5 76h76
q-26 -94 -84 -133t-146 -39zM383 252q-43 -2 -75.5 -4.5t-58 -6t-46 -9t-41.5 -13.5q-29 -12 -45 -30.5t-16 -53.5q0 -31 26 -52.5t80 -21.5q60 0 104.5 32t58.5 98zM724 309q4 20 6.5 36.5t2.5 26.5q0 23 -9 39.5t-24 27t-34 15.5t-39 5q-36 0 -66.5 -13t-50.5 -38
q-28 -34 -40 -99h254z" />
    <glyph glyph-name="ccedilla" unicode="&#xe7;" horiz-adv-x="515" 
d="M408 353q1 6 1.5 10.5t0.5 8.5q0 23 -9 39.5t-24 27t-34 15.5t-39 5q-59 0 -99 -32.5t-54 -97.5q-5 -21 -10.5 -47.5t-11 -52t-9 -47.5t-3.5 -34q0 -23 9 -39.5t24 -27t34 -15.5t39 -5q53 0 91.5 26.5t55.5 79.5h75q-26 -97 -83.5 -137t-147.5 -40q-34 0 -65 9.5
t-55 28.5t-38.5 46.5t-14.5 62.5q0 13 3.5 35.5t8.5 48.5t11.5 54t11.5 53q23 111 82.5 156.5t154.5 45.5q34 0 65 -10t55 -28.5t38.5 -46t14.5 -62.5q0 -12 -3 -30h-75zM187 0h65l-38 -158h-98z" />
    <glyph glyph-name="egrave" unicode="&#xe8;" horiz-adv-x="521" 
d="M132 241q-6 -29 -10.5 -54t-4.5 -39q0 -23 9 -39.5t24 -27t34 -15.5t39 -5q52 0 89.5 25t55.5 76h76q-26 -94 -84 -133t-146 -39q-34 0 -65 9.5t-55 28.5t-38.5 46.5t-14.5 62.5q0 13 3.5 35.5t8.5 48.5t11.5 54t11.5 53q23 111 82.5 156.5t154.5 45.5q34 0 65 -10
t55 -28.5t38.5 -46t14.5 -62.5q0 -21 -7.5 -60.5t-16.5 -81.5h-330zM401 309q4 20 6.5 36.5t2.5 26.5q0 23 -9 39.5t-24 27t-34 15.5t-39 5q-67 0 -107 -40t-50 -110h254zM324 700l50 -129h-60l-91 129h101z" />
    <glyph glyph-name="eacute" unicode="&#xe9;" horiz-adv-x="521" 
d="M132 241q-6 -29 -10.5 -54t-4.5 -39q0 -23 9 -39.5t24 -27t34 -15.5t39 -5q52 0 89.5 25t55.5 76h76q-26 -94 -84 -133t-146 -39q-34 0 -65 9.5t-55 28.5t-38.5 46.5t-14.5 62.5q0 13 3.5 35.5t8.5 48.5t11.5 54t11.5 53q23 111 82.5 156.5t154.5 45.5q34 0 65 -10
t55 -28.5t38.5 -46t14.5 -62.5q0 -21 -7.5 -60.5t-16.5 -81.5h-330zM401 309q4 20 6.5 36.5t2.5 26.5q0 23 -9 39.5t-24 27t-34 15.5t-39 5q-67 0 -107 -40t-50 -110h254zM453 700l-118 -129h-67l77 129h108z" />
    <glyph glyph-name="ecircumflex" unicode="&#xea;" horiz-adv-x="521" 
d="M132 241q-6 -29 -10.5 -54t-4.5 -39q0 -23 9 -39.5t24 -27t34 -15.5t39 -5q52 0 89.5 25t55.5 76h76q-26 -94 -84 -133t-146 -39q-34 0 -65 9.5t-55 28.5t-38.5 46.5t-14.5 62.5q0 13 3.5 35.5t8.5 48.5t11.5 54t11.5 53q23 111 82.5 156.5t154.5 45.5q34 0 65 -10
t55 -28.5t38.5 -46t14.5 -62.5q0 -21 -7.5 -60.5t-16.5 -81.5h-330zM401 309q4 20 6.5 36.5t2.5 26.5q0 23 -9 39.5t-24 27t-34 15.5t-39 5q-67 0 -107 -40t-50 -110h254zM488 571h-84l-54 71l-84 -71h-94l152 129h66z" />
    <glyph glyph-name="edieresis" unicode="&#xeb;" horiz-adv-x="521" 
d="M132 241q-6 -29 -10.5 -54t-4.5 -39q0 -23 9 -39.5t24 -27t34 -15.5t39 -5q52 0 89.5 25t55.5 76h76q-26 -94 -84 -133t-146 -39q-34 0 -65 9.5t-55 28.5t-38.5 46.5t-14.5 62.5q0 13 3.5 35.5t8.5 48.5t11.5 54t11.5 53q23 111 82.5 156.5t154.5 45.5q34 0 65 -10
t55 -28.5t38.5 -46t14.5 -62.5q0 -21 -7.5 -60.5t-16.5 -81.5h-330zM401 309q4 20 6.5 36.5t2.5 26.5q0 23 -9 39.5t-24 27t-34 15.5t-39 5q-67 0 -107 -40t-50 -110h254zM271 587h-75l21 97h75zM470 587h-75l21 97h75z" />
    <glyph glyph-name="igrave" unicode="&#xec;" horiz-adv-x="225" 
d="M96 0h-75l109 516h75zM173 700l50 -129h-60l-91 129h101z" />
    <glyph glyph-name="iacute" unicode="&#xed;" horiz-adv-x="225" 
d="M96 0h-75l109 516h75zM302 700l-118 -129h-67l77 129h108z" />
    <glyph glyph-name="icircumflex" unicode="&#xee;" horiz-adv-x="225" 
d="M96 0h-75l109 516h75zM338 571h-84l-54 71l-84 -71h-94l152 129h66z" />
    <glyph glyph-name="idieresis" unicode="&#xef;" horiz-adv-x="225" 
d="M96 0h-75l109 516h75zM121 587h-75l21 97h75zM320 587h-75l21 97h75z" />
    <glyph glyph-name="eth" unicode="&#xf0;" horiz-adv-x="527" 
d="M451 192q-23 -111 -83 -156.5t-154 -45.5q-34 0 -65 9.5t-55 28.5t-38.5 46.5t-14.5 62.5q0 13 3.5 35.5t8.5 48.5t11.5 54t11.5 53q23 111 82.5 156.5t154.5 45.5q8 0 19.5 -1t16.5 -3l-32 61h-129l11 53h90l-31 60h82l31 -60h93l-11 -53h-54l63 -121q9 -15 16.5 -37.5
t7.5 -45.5q0 -14 -3.5 -36t-9 -48t-11.5 -54t-11 -53zM223 61q59 0 99 32.5t54 97.5q4 21 10 47.5t11.5 52t9 47.5t3.5 34q0 23 -9 39.5t-24 27t-34 15.5t-39 5q-59 0 -99 -32.5t-54 -97.5q-5 -21 -10.5 -47.5t-11 -52t-9 -47.5t-3.5 -34q0 -23 9 -39.5t24 -27t34 -15.5
t39 -5z" />
    <glyph glyph-name="ntilde" unicode="&#xf1;" horiz-adv-x="547" 
d="M334 530q30 0 60 -10t53.5 -28.5t38 -46t14.5 -62.5q0 -14 -3.5 -36t-9 -48t-11.5 -54t-11 -53l-41 -192h-75l41 191q5 21 11 47.5t11 52t8.5 47.5t3.5 34q0 23 -9 39.5t-24 27t-34 15.5t-39 5q-59 0 -99 -32.5t-54 -97.5l-70 -329h-75l110 516h75l-11 -51q17 26 53 45.5
t87 19.5zM200 586q9 45 37 73.5t66 28.5q30 0 55 -14l30 -17q14 -9 31 -9q13 0 25 10.5t16 27.5h58q-9 -45 -37 -73.5t-66 -28.5q-30 0 -55 14l-30 17q-14 9 -31 9q-13 0 -25 -10.5t-16 -27.5h-58z" />
    <glyph glyph-name="ograve" unicode="&#xf2;" horiz-adv-x="527" 
d="M451 192q-23 -111 -83 -156.5t-154 -45.5q-34 0 -65 9.5t-55 28.5t-38.5 46.5t-14.5 62.5q0 13 3.5 35.5t8.5 48.5t11.5 54t11.5 53q23 111 82.5 156.5t154.5 45.5q34 0 65 -10t55 -28.5t38.5 -46t14.5 -62.5q0 -14 -3.5 -36t-9 -48t-11.5 -54t-11 -53zM223 61
q59 0 99 32.5t54 97.5q4 21 10 47.5t11.5 52t9 47.5t3.5 34q0 23 -9 39.5t-24 27t-34 15.5t-39 5q-59 0 -99 -32.5t-54 -97.5q-5 -21 -10.5 -47.5t-11 -52t-9 -47.5t-3.5 -34q0 -23 9 -39.5t24 -27t34 -15.5t39 -5zM324 700l50 -129h-60l-91 129h101z" />
    <glyph glyph-name="oacute" unicode="&#xf3;" horiz-adv-x="527" 
d="M451 192q-23 -111 -83 -156.5t-154 -45.5q-34 0 -65 9.5t-55 28.5t-38.5 46.5t-14.5 62.5q0 13 3.5 35.5t8.5 48.5t11.5 54t11.5 53q23 111 82.5 156.5t154.5 45.5q34 0 65 -10t55 -28.5t38.5 -46t14.5 -62.5q0 -14 -3.5 -36t-9 -48t-11.5 -54t-11 -53zM223 61
q59 0 99 32.5t54 97.5q4 21 10 47.5t11.5 52t9 47.5t3.5 34q0 23 -9 39.5t-24 27t-34 15.5t-39 5q-59 0 -99 -32.5t-54 -97.5q-5 -21 -10.5 -47.5t-11 -52t-9 -47.5t-3.5 -34q0 -23 9 -39.5t24 -27t34 -15.5t39 -5zM453 700l-118 -129h-67l77 129h108z" />
    <glyph glyph-name="ocircumflex" unicode="&#xf4;" horiz-adv-x="527" 
d="M451 192q-23 -111 -83 -156.5t-154 -45.5q-34 0 -65 9.5t-55 28.5t-38.5 46.5t-14.5 62.5q0 13 3.5 35.5t8.5 48.5t11.5 54t11.5 53q23 111 82.5 156.5t154.5 45.5q34 0 65 -10t55 -28.5t38.5 -46t14.5 -62.5q0 -14 -3.5 -36t-9 -48t-11.5 -54t-11 -53zM223 61
q59 0 99 32.5t54 97.5q4 21 10 47.5t11.5 52t9 47.5t3.5 34q0 23 -9 39.5t-24 27t-34 15.5t-39 5q-59 0 -99 -32.5t-54 -97.5q-5 -21 -10.5 -47.5t-11 -52t-9 -47.5t-3.5 -34q0 -23 9 -39.5t24 -27t34 -15.5t39 -5zM488 571h-84l-54 71l-84 -71h-94l152 129h66z" />
    <glyph glyph-name="otilde" unicode="&#xf5;" horiz-adv-x="527" 
d="M451 192q-23 -111 -83 -156.5t-154 -45.5q-34 0 -65 9.5t-55 28.5t-38.5 46.5t-14.5 62.5q0 13 3.5 35.5t8.5 48.5t11.5 54t11.5 53q23 111 82.5 156.5t154.5 45.5q34 0 65 -10t55 -28.5t38.5 -46t14.5 -62.5q0 -14 -3.5 -36t-9 -48t-11.5 -54t-11 -53zM223 61
q59 0 99 32.5t54 97.5q4 21 10 47.5t11.5 52t9 47.5t3.5 34q0 23 -9 39.5t-24 27t-34 15.5t-39 5q-59 0 -99 -32.5t-54 -97.5q-5 -21 -10.5 -47.5t-11 -52t-9 -47.5t-3.5 -34q0 -23 9 -39.5t24 -27t34 -15.5t39 -5zM185 586q9 45 37 73.5t66 28.5q30 0 55 -14l30 -17
q14 -9 31 -9q13 0 25 10.5t16 27.5h58q-9 -45 -37 -73.5t-66 -28.5q-30 0 -55 14l-30 17q-14 9 -31 9q-13 0 -25 -10.5t-16 -27.5h-58z" />
    <glyph glyph-name="odieresis" unicode="&#xf6;" horiz-adv-x="527" 
d="M451 192q-23 -111 -83 -156.5t-154 -45.5q-34 0 -65 9.5t-55 28.5t-38.5 46.5t-14.5 62.5q0 13 3.5 35.5t8.5 48.5t11.5 54t11.5 53q23 111 82.5 156.5t154.5 45.5q34 0 65 -10t55 -28.5t38.5 -46t14.5 -62.5q0 -14 -3.5 -36t-9 -48t-11.5 -54t-11 -53zM223 61
q59 0 99 32.5t54 97.5q4 21 10 47.5t11.5 52t9 47.5t3.5 34q0 23 -9 39.5t-24 27t-34 15.5t-39 5q-59 0 -99 -32.5t-54 -97.5q-5 -21 -10.5 -47.5t-11 -52t-9 -47.5t-3.5 -34q0 -23 9 -39.5t24 -27t34 -15.5t39 -5zM271 587h-75l21 97h75zM470 587h-75l21 97h75z" />
    <glyph glyph-name="divide" unicode="&#xf7;" 
d="M232 468q0 22 15 37.5t37 15.5t37.5 -15.5t15.5 -37.5t-15.5 -37t-37.5 -15t-37 15t-15 37zM232 92q0 22 15 37.5t37 15.5t37.5 -15.5t15.5 -37.5t-15.5 -37t-37.5 -15t-37 15t-15 37zM82 248v65h404v-65h-404z" />
    <glyph glyph-name="oslash" unicode="&#xf8;" horiz-adv-x="532" 
d="M454 192q-23 -111 -83 -156.5t-154 -45.5q-34 0 -65 9.5t-55 27.5l-45 -51l-42 33l52 59q-18 28 -18 69q0 13 3.5 35.5t8.5 48.5t11.5 54t11.5 53q23 111 82.5 156.5t154.5 45.5q33 0 63.5 -9.5t54.5 -27.5l46 52l43 -34l-52 -59q8 -15 13 -32t5 -37q0 -14 -3.5 -36
t-9 -48t-11.5 -54t-11 -53zM226 61q59 0 99 32.5t54 97.5q4 21 10 47.5t11.5 52t9 47.5t3.5 34q0 3 -0.5 6.5t-0.5 6.5l-264 -300q16 -12 36 -18t42 -6zM120 148q0 -9 1 -13l263 300q-15 13 -35.5 18.5t-41.5 5.5q-59 0 -99 -32.5t-54 -97.5q-5 -21 -10.5 -47.5t-11 -52
t-9 -47.5t-3.5 -34z" />
    <glyph glyph-name="ugrave" unicode="&#xf9;" horiz-adv-x="541" 
d="M212 -10q-30 0 -59 9.5t-52.5 28.5t-38 46.5t-14.5 62.5q0 13 3.5 35.5t8.5 48.5t11.5 54t11.5 53l40 188h75l-40 -187q-5 -21 -10.5 -47.5t-11 -52t-9 -47.5t-3.5 -34q0 -23 9 -39t23 -27t32.5 -16t38.5 -5q57 0 96.5 33t53.5 97l69 325h75l-110 -516h-75l12 55
q-17 -25 -52.5 -45t-83.5 -20zM328 700l50 -129h-60l-91 129h101z" />
    <glyph glyph-name="uacute" unicode="&#xfa;" horiz-adv-x="541" 
d="M212 -10q-30 0 -59 9.5t-52.5 28.5t-38 46.5t-14.5 62.5q0 13 3.5 35.5t8.5 48.5t11.5 54t11.5 53l40 188h75l-40 -187q-5 -21 -10.5 -47.5t-11 -52t-9 -47.5t-3.5 -34q0 -23 9 -39t23 -27t32.5 -16t38.5 -5q57 0 96.5 33t53.5 97l69 325h75l-110 -516h-75l12 55
q-17 -25 -52.5 -45t-83.5 -20zM457 700l-118 -129h-67l77 129h108z" />
    <glyph glyph-name="ucircumflex" unicode="&#xfb;" horiz-adv-x="541" 
d="M212 -10q-30 0 -59 9.5t-52.5 28.5t-38 46.5t-14.5 62.5q0 13 3.5 35.5t8.5 48.5t11.5 54t11.5 53l40 188h75l-40 -187q-5 -21 -10.5 -47.5t-11 -52t-9 -47.5t-3.5 -34q0 -23 9 -39t23 -27t32.5 -16t38.5 -5q57 0 96.5 33t53.5 97l69 325h75l-110 -516h-75l12 55
q-17 -25 -52.5 -45t-83.5 -20zM491 571h-84l-54 71l-84 -71h-94l152 129h66z" />
    <glyph glyph-name="udieresis" unicode="&#xfc;" horiz-adv-x="541" 
d="M212 -10q-30 0 -59 9.5t-52.5 28.5t-38 46.5t-14.5 62.5q0 13 3.5 35.5t8.5 48.5t11.5 54t11.5 53l40 188h75l-40 -187q-5 -21 -10.5 -47.5t-11 -52t-9 -47.5t-3.5 -34q0 -23 9 -39t23 -27t32.5 -16t38.5 -5q57 0 96.5 33t53.5 97l69 325h75l-110 -516h-75l12 55
q-17 -25 -52.5 -45t-83.5 -20zM274 587h-75l21 97h75zM473 587h-75l21 97h75z" />
    <glyph glyph-name="yacute" unicode="&#xfd;" horiz-adv-x="467" 
d="M139 -10l-79 526h73l62 -427l240 427h81l-370 -647q-17 -30 -46.5 -41t-78.5 -12h-29l15 71h38q24 0 34.5 8.5t18.5 22.5zM423 700l-118 -129h-67l77 129h108z" />
    <glyph glyph-name="thorn" unicode="&#xfe;" horiz-adv-x="541" 
d="M237 61q59 0 99 32.5t54 97.5q4 21 10 47.5t11.5 52t9 47.5t3.5 34q0 23 -9 39.5t-24 27t-34 15.5t-39 5q-59 0 -99 -32.5t-54 -97.5q-5 -21 -10.5 -47.5t-11 -52t-9 -47.5t-3.5 -34q0 -23 9 -39.5t24 -27t34 -15.5t39 -5zM194 465q17 26 53 45.5t87 19.5q30 0 60 -10
t53.5 -28.5t38 -46t14.5 -62.5q0 -14 -3.5 -36t-9 -48t-11.5 -54t-11 -53q-12 -56 -33 -94.5t-50 -62.5t-66 -34.5t-81 -10.5q-45 0 -77.5 20.5t-48.5 53.5l-53 -248h-75l188 884h75z" />
    <glyph glyph-name="ydieresis" unicode="&#xff;" horiz-adv-x="467" 
d="M139 -10l-79 526h73l62 -427l240 427h81l-370 -647q-17 -30 -46.5 -41t-78.5 -12h-29l15 71h38q24 0 34.5 8.5t18.5 22.5zM241 587h-75l21 97h75zM440 587h-75l21 97h75z" />
    <glyph glyph-name="Abreve" unicode="&#x102;" horiz-adv-x="566" 
d="M404 198h-258l-105 -198h-81l373 700h88l76 -700h-72zM360 600l-177 -333h213zM435 808q20 0 35.5 13t19.5 33h67q-5 -23 -14.5 -42.5t-25.5 -34.5t-38 -23.5t-52 -8.5h-80q-17 0 -32.5 6.5t-28 18.5t-20 28.5t-7.5 35.5q0 5 0.5 10t1.5 10h61q-1 -3 -1 -9q0 -17 11 -27
t28 -10h75v0z" />
    <glyph glyph-name="Amacron" unicode="&#x100;" horiz-adv-x="566" 
d="M404 198h-258l-105 -198h-81l373 700h88l76 -700h-72zM360 600l-177 -333h213zM256 833h298l-15 -67h-298z" />
    <glyph glyph-name="Aogonek" unicode="&#x104;" horiz-adv-x="566" 
d="M497 0q-11 -7 -29 -18t-34.5 -25t-28.5 -30t-12 -33q0 -11 7 -15.5t18 -4.5q14 0 29 5.5t26 11.5l-13 -62q-29 -18 -63 -18q-16 0 -31.5 4.5t-27.5 13t-19 21.5t-7 31q0 22 10 41.5t26 34.5t36.5 26t40.5 17l-21 198h-258l-105 -198h-81l373 700h88zM360 600l-177 -333
h213z" />
    <glyph glyph-name="Cacute" unicode="&#x106;" horiz-adv-x="561" 
d="M373 710q39 0 74 -10.5t61.5 -32.5t42 -56t15.5 -80v-19t-2 -19h-78q2 9 2.5 18t0.5 14q0 54 -31.5 82.5t-95.5 28.5q-69 0 -114.5 -41.5t-63.5 -121.5q-29 -129 -44.5 -204t-15.5 -94q0 -54 31.5 -82.5t95.5 -28.5t108.5 36.5t64.5 106.5h77q-27 -106 -88.5 -161.5
t-172.5 -55.5q-39 0 -74 10.5t-61.5 32.5t-42 56t-15.5 80q0 11 0.5 19t2 19.5t5.5 29.5t10.5 48t16.5 75.5t25 112.5q25 115 87.5 176t178.5 61zM524 854l-128 -109h-74l92 109h110z" />
    <glyph glyph-name="Ccaron" unicode="&#x10c;" horiz-adv-x="561" 
d="M373 710q39 0 74 -10.5t61.5 -32.5t42 -56t15.5 -80v-19t-2 -19h-78q2 9 2.5 18t0.5 14q0 54 -31.5 82.5t-95.5 28.5q-69 0 -114.5 -41.5t-63.5 -121.5q-29 -129 -44.5 -204t-15.5 -94q0 -54 31.5 -82.5t95.5 -28.5t108.5 36.5t64.5 106.5h77q-27 -106 -88.5 -161.5
t-172.5 -55.5q-39 0 -74 10.5t-61.5 32.5t-42 56t-15.5 80q0 11 0.5 19t2 19.5t5.5 29.5t10.5 48t16.5 75.5t25 112.5q25 115 87.5 176t178.5 61zM396 803l70 51h104l-148 -109h-66l-102 109h94z" />
    <glyph glyph-name="Ccircumflex" unicode="&#x108;" horiz-adv-x="561" 
d="M373 710q39 0 74 -10.5t61.5 -32.5t42 -56t15.5 -80v-19t-2 -19h-78q2 9 2.5 18t0.5 14q0 54 -31.5 82.5t-95.5 28.5q-69 0 -114.5 -41.5t-63.5 -121.5q-29 -129 -44.5 -204t-15.5 -94q0 -54 31.5 -82.5t95.5 -28.5t108.5 36.5t64.5 106.5h77q-27 -106 -88.5 -161.5
t-172.5 -55.5q-39 0 -74 10.5t-61.5 32.5t-42 56t-15.5 80q0 11 0.5 19t2 19.5t5.5 29.5t10.5 48t16.5 75.5t25 112.5q25 115 87.5 176t178.5 61zM405 796l-70 -51h-104l148 109h66l102 -109h-94z" />
    <glyph glyph-name="Cdotaccent" unicode="&#x10a;" horiz-adv-x="561" 
d="M373 710q39 0 74 -10.5t61.5 -32.5t42 -56t15.5 -80v-19t-2 -19h-78q2 9 2.5 18t0.5 14q0 54 -31.5 82.5t-95.5 28.5q-69 0 -114.5 -41.5t-63.5 -121.5q-29 -129 -44.5 -204t-15.5 -94q0 -54 31.5 -82.5t95.5 -28.5t108.5 36.5t64.5 106.5h77q-27 -106 -88.5 -161.5
t-172.5 -55.5q-39 0 -74 10.5t-61.5 32.5t-42 56t-15.5 80q0 11 0.5 19t2 19.5t5.5 29.5t10.5 48t16.5 75.5t25 112.5q25 115 87.5 176t178.5 61zM430 751h-77l21 97h77z" />
    <glyph glyph-name="Dcaron" unicode="&#x10e;" horiz-adv-x="589" 
d="M271 74q69 0 114.5 41.5t63.5 121.5q28 128 42 193.5t14 84.5q0 54 -31.5 82.5t-95.5 28.5h-143l-117 -552h153zM25 0l149 700h215q39 0 74 -10.5t61.5 -32.5t42 -56t15.5 -80q0 -21 -5.5 -52.5t-13.5 -69.5t-18 -79.5t-19 -82.5q-13 -58 -34 -102t-53.5 -74t-76.5 -45.5
t-102 -15.5h-235zM381 803l70 51h104l-148 -109h-66l-102 109h94z" />
    <glyph glyph-name="Dcroat" unicode="&#x110;" horiz-adv-x="600" 
d="M36 0l69 323h-70l11 55h70l69 322h215q39 0 74 -10.5t61.5 -32.5t42 -56t15.5 -80q0 -21 -5.5 -52.5t-13.5 -69.5t-18 -79.5t-19 -82.5q-13 -58 -34 -102t-53.5 -74t-76.5 -45.5t-102 -15.5h-235zM282 74q69 0 114.5 41.5t63.5 121.5q28 128 42 193.5t14 84.5
q0 54 -31.5 82.5t-95.5 28.5h-143l-53 -248h149l-11 -55h-149l-53 -249h153z" />
    <glyph glyph-name="Ebreve" unicode="&#x114;" horiz-adv-x="542" 
d="M118 74h321l-16 -74h-398l149 700h398l-16 -74h-321l-50 -235h321l-16 -74h-320zM431 808q20 0 35.5 13t19.5 33h67q-5 -23 -14.5 -42.5t-25.5 -34.5t-38 -23.5t-52 -8.5h-80q-17 0 -32.5 6.5t-28 18.5t-20 28.5t-7.5 35.5q0 5 0.5 10t1.5 10h61q-1 -3 -1 -9
q0 -17 11 -27t28 -10h75v0z" />
    <glyph glyph-name="Ecaron" unicode="&#x11a;" horiz-adv-x="542" 
d="M118 74h321l-16 -74h-398l149 700h398l-16 -74h-321l-50 -235h321l-16 -74h-320zM389 803l70 51h104l-148 -109h-66l-102 109h94z" />
    <glyph glyph-name="Emacron" unicode="&#x112;" horiz-adv-x="542" 
d="M118 74h321l-16 -74h-398l149 700h398l-16 -74h-321l-50 -235h321l-16 -74h-320zM252 833h298l-15 -67h-298z" />
    <glyph glyph-name="Eogonek" unicode="&#x118;" horiz-adv-x="542" 
d="M118 74h321l-16 -74h-398l149 700h398l-16 -74h-321l-50 -235h321l-16 -74h-320zM423 0q-11 -7 -29 -18t-34.5 -25t-28.5 -30t-12 -33q0 -11 7 -15.5t18 -4.5q14 0 29 5.5t26 11.5l-13 -62q-29 -18 -63 -18q-16 0 -31.5 4.5t-27.5 13t-19 21.5t-7 31q0 22 9 40.5t24 33.5
t34.5 26.5t40.5 18.5h77v0z" />
    <glyph glyph-name="Edotaccent" unicode="&#x116;" horiz-adv-x="542" 
d="M118 74h321l-16 -74h-398l149 700h398l-16 -74h-321l-50 -235h321l-16 -74h-320zM423 751h-77l21 97h77z" />
    <glyph glyph-name="Gbreve" unicode="&#x11e;" horiz-adv-x="568" 
d="M296 297l16 74h226q-6 -29 -13.5 -63.5t-18.5 -80.5q-13 -58 -34 -102t-53.5 -74t-76.5 -45.5t-102 -15.5q-39 0 -74 10.5t-61.5 32.5t-42 56t-15.5 80q0 11 0.5 19t2 19.5t5.5 29.5t10.5 48t16.5 75.5t25 112.5q25 115 87.5 176t178.5 61q39 0 74 -10.5t61.5 -32.5
t42 -56t15.5 -80v-19t-2 -19h-78q2 9 2.5 18t0.5 14q0 54 -31.5 82.5t-95.5 28.5q-69 0 -114.5 -41.5t-63.5 -121.5q-29 -129 -44.5 -204t-15.5 -94q0 -54 31.5 -82.5t95.5 -28.5q69 0 114.5 41.5t63.5 121.5q5 19 8 36t7 34h-148zM439 808q20 0 35.5 13t19.5 33h67
q-5 -23 -14.5 -42.5t-25.5 -34.5t-38 -23.5t-52 -8.5h-80q-17 0 -32.5 6.5t-28 18.5t-20 28.5t-7.5 35.5q0 5 0.5 10t1.5 10h61q-1 -3 -1 -9q0 -17 11 -27t28 -10h75v0z" />
    <glyph glyph-name="Gcircumflex" unicode="&#x11c;" horiz-adv-x="568" 
d="M296 297l16 74h226q-6 -29 -13.5 -63.5t-18.5 -80.5q-13 -58 -34 -102t-53.5 -74t-76.5 -45.5t-102 -15.5q-39 0 -74 10.5t-61.5 32.5t-42 56t-15.5 80q0 11 0.5 19t2 19.5t5.5 29.5t10.5 48t16.5 75.5t25 112.5q25 115 87.5 176t178.5 61q39 0 74 -10.5t61.5 -32.5
t42 -56t15.5 -80v-19t-2 -19h-78q2 9 2.5 18t0.5 14q0 54 -31.5 82.5t-95.5 28.5q-69 0 -114.5 -41.5t-63.5 -121.5q-29 -129 -44.5 -204t-15.5 -94q0 -54 31.5 -82.5t95.5 -28.5q69 0 114.5 41.5t63.5 121.5q5 19 8 36t7 34h-148zM406 796l-70 -51h-104l148 109h66
l102 -109h-94z" />
    <glyph glyph-name="Gcommaaccent" unicode="&#x122;" horiz-adv-x="568" 
d="M296 297l16 74h226q-6 -29 -13.5 -63.5t-18.5 -80.5q-13 -58 -34 -102t-53.5 -74t-76.5 -45.5t-102 -15.5q-39 0 -74 10.5t-61.5 32.5t-42 56t-15.5 80q0 11 0.5 19t2 19.5t5.5 29.5t10.5 48t16.5 75.5t25 112.5q25 115 87.5 176t178.5 61q39 0 74 -10.5t61.5 -32.5
t42 -56t15.5 -80v-19t-2 -19h-78q2 9 2.5 18t0.5 14q0 54 -31.5 82.5t-95.5 28.5q-69 0 -114.5 -41.5t-63.5 -121.5q-29 -129 -44.5 -204t-15.5 -94q0 -54 31.5 -82.5t95.5 -28.5q69 0 114.5 41.5t63.5 121.5q5 19 8 36t7 34h-148zM174 -50h95l-21 -95l-43 -84h-64l43 84
h-31z" />
    <glyph glyph-name="Gdotaccent" unicode="&#x120;" horiz-adv-x="568" 
d="M296 297l16 74h226q-6 -29 -13.5 -63.5t-18.5 -80.5q-13 -58 -34 -102t-53.5 -74t-76.5 -45.5t-102 -15.5q-39 0 -74 10.5t-61.5 32.5t-42 56t-15.5 80q0 11 0.5 19t2 19.5t5.5 29.5t10.5 48t16.5 75.5t25 112.5q25 115 87.5 176t178.5 61q39 0 74 -10.5t61.5 -32.5
t42 -56t15.5 -80v-19t-2 -19h-78q2 9 2.5 18t0.5 14q0 54 -31.5 82.5t-95.5 28.5q-69 0 -114.5 -41.5t-63.5 -121.5q-29 -129 -44.5 -204t-15.5 -94q0 -54 31.5 -82.5t95.5 -28.5q69 0 114.5 41.5t63.5 121.5q5 19 8 36t7 34h-148zM431 751h-77l21 97h77z" />
    <glyph glyph-name="Hbar" unicode="&#x126;" horiz-adv-x="612" 
d="M224 574h298l27 126h77l-149 -700h-77l67 317h-297l-68 -317h-77l149 700h77zM510 519h-298l-27 -128h298z" />
    <glyph glyph-name="Hcircumflex" unicode="&#x124;" horiz-adv-x="612" 
d="M549 700h77l-149 -700h-77l67 317h-297l-68 -317h-77l149 700h77l-66 -309h298zM425 796l-70 -51h-104l148 109h66l102 -109h-94z" />
    <glyph glyph-name="Ibreve" unicode="&#x12c;" horiz-adv-x="237" 
d="M174 700h77l-149 -700h-77zM271 808q20 0 35.5 13t19.5 33h67q-5 -23 -14.5 -42.5t-25.5 -34.5t-38 -23.5t-52 -8.5h-80q-17 0 -32.5 6.5t-28 18.5t-20 28.5t-7.5 35.5q0 5 0.5 10t1.5 10h61q-1 -3 -1 -9q0 -17 11 -27t28 -10h75v0z" />
    <glyph glyph-name="Idotaccent" unicode="&#x130;" horiz-adv-x="237" 
d="M174 700h77l-149 -700h-77zM262 751h-77l21 97h77z" />
    <glyph glyph-name="Imacron" unicode="&#x12a;" horiz-adv-x="237" 
d="M174 700h77l-149 -700h-77zM93 833h298l-15 -67h-298z" />
    <glyph glyph-name="Iogonek" unicode="&#x12e;" horiz-adv-x="237" 
d="M174 700h77l-149 -700h-77zM103 0q-11 -7 -29 -18t-34.5 -25t-28.5 -30t-12 -33q0 -11 7 -15.5t18 -4.5q14 0 29 5.5t26 11.5l-13 -62q-29 -18 -63 -18q-16 0 -31.5 4.5t-27.5 13t-19 21.5t-7 31q0 22 9 40.5t24 33.5t34.5 26.5t40.5 18.5h77v0z" />
    <glyph glyph-name="Itilde" unicode="&#x128;" horiz-adv-x="237" 
d="M174 700h77l-149 -700h-77zM178 852q30 0 55 -14l30 -16q16 -8 26 -8q28 0 39 36h65q-9 -45 -37 -73.5t-66 -28.5q-30 0 -55 14l-30 16q-16 8 -26 8q-13 0 -23.5 -9t-15.5 -27h-65q9 45 37 73.5t66 28.5z" />
    <glyph glyph-name="uni1ECA" unicode="&#x1eca;" horiz-adv-x="237" 
d="M174 700h77l-149 -700h-77zM71 -146h-77l21 97h77z" />
    <glyph glyph-name="Jcircumflex" unicode="&#x134;" horiz-adv-x="473" 
d="M79 200q-4 -14 -4.5 -23t-0.5 -17q0 -43 30.5 -69.5t77.5 -26.5q59 0 88 35t41 93l108 508h77l-108 -508q-11 -52 -27.5 -90t-42 -63t-61.5 -37t-86 -12q-30 0 -61 10.5t-56 31.5t-40.5 51t-15.5 69q0 10 1 21.5t4 26.5h76zM482 796l-70 -51h-104l148 109h66l102 -109
h-94z" />
    <glyph glyph-name="Kcommaaccent" unicode="&#x136;" horiz-adv-x="610" 
d="M102 0h-77l149 700h77l-80 -376l400 376h101l-307 -288l184 -412h-81l-160 359l-162 -153zM213 -50h95l-21 -95l-43 -84h-64l43 84h-31z" />
    <glyph glyph-name="Lacute" unicode="&#x139;" horiz-adv-x="493" 
d="M174 700h77l-133 -626h321l-16 -74h-398zM357 854l-128 -109h-74l92 109h110z" />
    <glyph glyph-name="Lcaron" unicode="&#x13d;" horiz-adv-x="493" 
d="M402 542h-67l61 158h103zM174 700h77l-133 -626h321l-16 -74h-398z" />
    <glyph glyph-name="Lcommaaccent" unicode="&#x13b;" horiz-adv-x="493" 
d="M174 700h77l-133 -626h321l-16 -74h-398zM167 -50h95l-21 -95l-43 -84h-64l43 84h-31z" />
    <glyph glyph-name="Ldot" unicode="&#x13f;" horiz-adv-x="493" 
d="M174 700h77l-133 -626h321l-16 -74h-398zM413 341h-77l21 97h77z" />
    <glyph glyph-name="Lslash" unicode="&#x141;" horiz-adv-x="504" 
d="M93 270l-76 -38l13 67l78 38l77 363h77l-68 -320l167 83l-14 -67l-167 -83l-51 -239h321l-16 -74h-398z" />
    <glyph glyph-name="Eng" unicode="&#x14a;" horiz-adv-x="612" 
d="M477 0q-20 -96 -68.5 -140t-139.5 -44h-55l16 75h50q50 0 78 29t42 80l-178 565l-120 -565h-77l149 700h77l178 -565l120 565h77z" />
    <glyph glyph-name="Nacute" unicode="&#x143;" horiz-adv-x="612" 
d="M477 0h-77l-178 565l-120 -565h-77l149 700h77l178 -565l120 565h77zM544 854l-128 -109h-74l92 109h110z" />
    <glyph glyph-name="Ncaron" unicode="&#x147;" horiz-adv-x="612" 
d="M477 0h-77l-178 565l-120 -565h-77l149 700h77l178 -565l120 565h77zM415 803l70 51h104l-148 -109h-66l-102 109h94z" />
    <glyph glyph-name="Ncommaaccent" unicode="&#x145;" horiz-adv-x="612" 
d="M477 0h-77l-178 565l-120 -565h-77l149 700h77l178 -565l120 565h77zM194 -50h95l-21 -95l-43 -84h-64l43 84h-31z" />
    <glyph glyph-name="OE" unicode="&#x152;" horiz-adv-x="898" 
d="M373 710q51 0 87.5 -18t56.5 -48l13 56h398l-16 -74h-321l-50 -235h321l-16 -74h-320l-52 -243h321l-16 -74h-398l10 46q-25 -24 -59.5 -40t-91.5 -16q-39 0 -74 10.5t-61.5 32.5t-42 56t-15.5 80q0 11 0.5 19t2 19.5t5.5 29.5t10.5 48t16.5 75.5t25 112.5
q25 115 87.5 176t178.5 61zM124 175q0 -54 31.5 -82.5t95.5 -28.5q69 0 114.5 41.5t63.5 121.5q29 129 44.5 204t15.5 94q0 54 -31.5 82.5t-95.5 28.5q-69 0 -114.5 -41.5t-63.5 -121.5q-29 -129 -44.5 -204t-15.5 -94z" />
    <glyph glyph-name="Obreve" unicode="&#x14e;" horiz-adv-x="572" 
d="M506 227q-13 -58 -34 -102t-53.5 -74t-76.5 -45.5t-102 -15.5q-39 0 -74 10.5t-61.5 32.5t-42 56t-15.5 80q0 11 0.5 19t2 19.5t5.5 29.5t10.5 48t16.5 75.5t25 112.5q25 115 87.5 176t178.5 61q39 0 74 -10.5t61.5 -32.5t42 -56t15.5 -80q0 -11 -0.5 -19t-2 -19.5
t-5.5 -29.5t-10.5 -48t-16.5 -75.5t-25 -112.5zM124 175q0 -54 31.5 -82.5t95.5 -28.5q69 0 114.5 41.5t63.5 121.5q29 129 44.5 204t15.5 94q0 54 -31.5 82.5t-95.5 28.5q-69 0 -114.5 -41.5t-63.5 -121.5q-29 -129 -44.5 -204t-15.5 -94zM439 808q20 0 35.5 13t19.5 33h67
q-5 -23 -14.5 -42.5t-25.5 -34.5t-38 -23.5t-52 -8.5h-80q-17 0 -32.5 6.5t-28 18.5t-20 28.5t-7.5 35.5q0 5 0.5 10t1.5 10h61q-1 -3 -1 -9q0 -17 11 -27t28 -10h75v0z" />
    <glyph glyph-name="Ohungarumlaut" unicode="&#x150;" horiz-adv-x="572" 
d="M506 227q-13 -58 -34 -102t-53.5 -74t-76.5 -45.5t-102 -15.5q-39 0 -74 10.5t-61.5 32.5t-42 56t-15.5 80q0 11 0.5 19t2 19.5t5.5 29.5t10.5 48t16.5 75.5t25 112.5q25 115 87.5 176t178.5 61q39 0 74 -10.5t61.5 -32.5t42 -56t15.5 -80q0 -11 -0.5 -19t-2 -19.5
t-5.5 -29.5t-10.5 -48t-16.5 -75.5t-25 -112.5zM124 175q0 -54 31.5 -82.5t95.5 -28.5q69 0 114.5 41.5t63.5 121.5q29 129 44.5 204t15.5 94q0 54 -31.5 82.5t-95.5 28.5q-69 0 -114.5 -41.5t-63.5 -121.5q-29 -129 -44.5 -204t-15.5 -94zM447 854l-118 -109h-69l82 109
h105zM615 854l-118 -109h-69l82 109h105z" />
    <glyph glyph-name="Omacron" unicode="&#x14c;" horiz-adv-x="572" 
d="M506 227q-13 -58 -34 -102t-53.5 -74t-76.5 -45.5t-102 -15.5q-39 0 -74 10.5t-61.5 32.5t-42 56t-15.5 80q0 11 0.5 19t2 19.5t5.5 29.5t10.5 48t16.5 75.5t25 112.5q25 115 87.5 176t178.5 61q39 0 74 -10.5t61.5 -32.5t42 -56t15.5 -80q0 -11 -0.5 -19t-2 -19.5
t-5.5 -29.5t-10.5 -48t-16.5 -75.5t-25 -112.5zM124 175q0 -54 31.5 -82.5t95.5 -28.5q69 0 114.5 41.5t63.5 121.5q29 129 44.5 204t15.5 94q0 54 -31.5 82.5t-95.5 28.5q-69 0 -114.5 -41.5t-63.5 -121.5q-29 -129 -44.5 -204t-15.5 -94zM260 833h298l-15 -67h-298z" />
    <glyph glyph-name="uni1ECC" unicode="&#x1ecc;" horiz-adv-x="572" 
d="M506 227q-13 -58 -34 -102t-53.5 -74t-76.5 -45.5t-102 -15.5q-39 0 -74 10.5t-61.5 32.5t-42 56t-15.5 80q0 11 0.5 19t2 19.5t5.5 29.5t10.5 48t16.5 75.5t25 112.5q25 115 87.5 176t178.5 61q39 0 74 -10.5t61.5 -32.5t42 -56t15.5 -80q0 -11 -0.5 -19t-2 -19.5
t-5.5 -29.5t-10.5 -48t-16.5 -75.5t-25 -112.5zM124 175q0 -54 31.5 -82.5t95.5 -28.5q69 0 114.5 41.5t63.5 121.5q29 129 44.5 204t15.5 94q0 54 -31.5 82.5t-95.5 28.5q-69 0 -114.5 -41.5t-63.5 -121.5q-29 -129 -44.5 -204t-15.5 -94zM238 -146h-77l21 97h77z" />
    <glyph glyph-name="Racute" unicode="&#x154;" horiz-adv-x="572" 
d="M169 318l-67 -318h-77l149 700h226q45 0 78.5 -14.5t55.5 -37.5t33 -53.5t11 -61.5t-11 -67.5t-35.5 -68t-64.5 -54t-98 -25.5l119 -318h-80l-119 318h-120zM362 390q30 0 55.5 10.5t43.5 29.5t28 44.5t10 54.5q0 45 -27.5 71t-78.5 26h-158l-50 -236h177zM504 854
l-128 -109h-74l92 109h110z" />
    <glyph glyph-name="Rcaron" unicode="&#x158;" horiz-adv-x="572" 
d="M169 318l-67 -318h-77l149 700h226q45 0 78.5 -14.5t55.5 -37.5t33 -53.5t11 -61.5t-11 -67.5t-35.5 -68t-64.5 -54t-98 -25.5l119 -318h-80l-119 318h-120zM362 390q30 0 55.5 10.5t43.5 29.5t28 44.5t10 54.5q0 45 -27.5 71t-78.5 26h-158l-50 -236h177zM381 803l70 51
h104l-148 -109h-66l-102 109h94z" />
    <glyph glyph-name="Rcommaaccent" unicode="&#x156;" horiz-adv-x="572" 
d="M169 318l-67 -318h-77l149 700h226q45 0 78.5 -14.5t55.5 -37.5t33 -53.5t11 -61.5t-11 -67.5t-35.5 -68t-64.5 -54t-98 -25.5l119 -318h-80l-119 318h-120zM362 390q30 0 55.5 10.5t43.5 29.5t28 44.5t10 54.5q0 45 -27.5 71t-78.5 26h-158l-50 -236h177zM183 -50h95
l-21 -95l-43 -84h-64l43 84h-31z" />
    <glyph glyph-name="Sacute" unicode="&#x15a;" horiz-adv-x="517" 
d="M462 194q0 -41 -13 -78t-40 -65t-69.5 -44.5t-102.5 -16.5q-39 0 -77.5 12t-69 36.5t-49.5 61t-19 85.5v11t1 11h78q-1 -6 -1 -8.5v-6.5q0 -32 11 -56t30 -40t45.5 -24t56.5 -8q67 0 104.5 33t37.5 89q0 16 -2.5 32.5t-11 31t-23.5 27.5t-39 22l-81 31q-64 25 -97.5 69
t-33.5 110q0 45 14.5 82t42 63.5t67.5 41t91 14.5q39 0 74.5 -11t62.5 -33t43 -54.5t17 -75.5v-10t-1 -10h-77q1 6 1 8v5q0 48 -32.5 77.5t-90.5 29.5q-33 0 -58 -9.5t-42 -25.5t-26 -38t-9 -47q0 -44 20 -71t60 -42l81 -31q68 -26 97.5 -72t29.5 -106zM489 854l-128 -109
h-74l92 109h110z" />
    <glyph glyph-name="Scaron" unicode="&#x160;" horiz-adv-x="517" 
d="M462 194q0 -41 -13 -78t-40 -65t-69.5 -44.5t-102.5 -16.5q-39 0 -77.5 12t-69 36.5t-49.5 61t-19 85.5v11t1 11h78q-1 -6 -1 -8.5v-6.5q0 -32 11 -56t30 -40t45.5 -24t56.5 -8q67 0 104.5 33t37.5 89q0 16 -2.5 32.5t-11 31t-23.5 27.5t-39 22l-81 31q-64 25 -97.5 69
t-33.5 110q0 45 14.5 82t42 63.5t67.5 41t91 14.5q39 0 74.5 -11t62.5 -33t43 -54.5t17 -75.5v-10t-1 -10h-77q1 6 1 8v5q0 48 -32.5 77.5t-90.5 29.5q-33 0 -58 -9.5t-42 -25.5t-26 -38t-9 -47q0 -44 20 -71t60 -42l81 -31q68 -26 97.5 -72t29.5 -106zM360 803l70 51h104
l-148 -109h-66l-102 109h94z" />
    <glyph glyph-name="Scedilla" unicode="&#x15e;" horiz-adv-x="517" 
d="M462 194q0 -41 -13 -78t-40 -65t-69.5 -44.5t-102.5 -16.5q-39 0 -77.5 12t-69 36.5t-49.5 61t-19 85.5v11t1 11h78q-1 -6 -1 -8.5v-6.5q0 -32 11 -56t30 -40t45.5 -24t56.5 -8q67 0 104.5 33t37.5 89q0 16 -2.5 32.5t-11 31t-23.5 27.5t-39 22l-81 31q-64 25 -97.5 69
t-33.5 110q0 45 14.5 82t42 63.5t67.5 41t91 14.5q39 0 74.5 -11t62.5 -33t43 -54.5t17 -75.5v-10t-1 -10h-77q1 6 1 8v5q0 48 -32.5 77.5t-90.5 29.5q-33 0 -58 -9.5t-42 -25.5t-26 -38t-9 -47q0 -44 20 -71t60 -42l81 -31q68 -26 97.5 -72t29.5 -106zM210 0h72l-38 -158
h-100z" />
    <glyph glyph-name="Scircumflex" unicode="&#x15c;" horiz-adv-x="517" 
d="M462 194q0 -41 -13 -78t-40 -65t-69.5 -44.5t-102.5 -16.5q-39 0 -77.5 12t-69 36.5t-49.5 61t-19 85.5v11t1 11h78q-1 -6 -1 -8.5v-6.5q0 -32 11 -56t30 -40t45.5 -24t56.5 -8q67 0 104.5 33t37.5 89q0 16 -2.5 32.5t-11 31t-23.5 27.5t-39 22l-81 31q-64 25 -97.5 69
t-33.5 110q0 45 14.5 82t42 63.5t67.5 41t91 14.5q39 0 74.5 -11t62.5 -33t43 -54.5t17 -75.5v-10t-1 -10h-77q1 6 1 8v5q0 48 -32.5 77.5t-90.5 29.5q-33 0 -58 -9.5t-42 -25.5t-26 -38t-9 -47q0 -44 20 -71t60 -42l81 -31q68 -26 97.5 -72t29.5 -106zM370 796l-70 -51
h-104l148 109h66l102 -109h-94z" />
    <glyph glyph-name="Scommaaccent" unicode="&#x218;" horiz-adv-x="517" 
d="M462 194q0 -41 -13 -78t-40 -65t-69.5 -44.5t-102.5 -16.5q-39 0 -77.5 12t-69 36.5t-49.5 61t-19 85.5v11t1 11h78q-1 -6 -1 -8.5v-6.5q0 -32 11 -56t30 -40t45.5 -24t56.5 -8q67 0 104.5 33t37.5 89q0 16 -2.5 32.5t-11 31t-23.5 27.5t-39 22l-81 31q-64 25 -97.5 69
t-33.5 110q0 45 14.5 82t42 63.5t67.5 41t91 14.5q39 0 74.5 -11t62.5 -33t43 -54.5t17 -75.5v-10t-1 -10h-77q1 6 1 8v5q0 48 -32.5 77.5t-90.5 29.5q-33 0 -58 -9.5t-42 -25.5t-26 -38t-9 -47q0 -44 20 -71t60 -42l81 -31q68 -26 97.5 -72t29.5 -106zM158 -50h95l-21 -95
l-43 -84h-64l43 84h-31z" />
    <glyph glyph-name="Tbar" unicode="&#x166;" horiz-adv-x="479" 
d="M92 626l16 74h451l-16 -74h-187l-53 -248h117l-11 -55h-118l-68 -323h-77l68 323h-116l11 55h117l53 248h-187z" />
    <glyph glyph-name="Tcaron" unicode="&#x164;" horiz-adv-x="479" 
d="M92 626l16 74h451l-16 -74h-187l-133 -626h-77l133 626h-187zM350 803l70 51h104l-148 -109h-66l-102 109h94z" />
    <glyph glyph-name="uni0162" unicode="&#x162;" horiz-adv-x="479" 
d="M92 626l16 74h451l-16 -74h-187l-133 -626h-77l133 626h-187zM127 -50h95l-21 -95l-43 -84h-64l43 84h-31z" />
    <glyph glyph-name="Tcommaaccent" unicode="&#x21a;" horiz-adv-x="479" 
d="M92 626l16 74h451l-16 -74h-187l-133 -626h-77l133 626h-187zM127 -50h95l-21 -95l-43 -84h-64l43 84h-31z" />
    <glyph glyph-name="Ubreve" unicode="&#x16c;" horiz-adv-x="594" 
d="M134 175q0 -54 31.5 -82.5t95.5 -28.5q69 0 115 41.5t63 121.5l104 473h77l-104 -473q-13 -58 -34 -102t-53.5 -74t-76.5 -45.5t-102 -15.5q-39 0 -74 10.5t-61.5 32.5t-42 56t-15.5 80q0 16 9 63.5t24 118t35 160t42 189.5h77q-10 -43 -21.5 -96t-24 -109t-24 -110
t-20.5 -98t-14.5 -74t-5.5 -38zM451 808q20 0 35.5 13t19.5 33h67q-5 -23 -14.5 -42.5t-25.5 -34.5t-38 -23.5t-52 -8.5h-80q-17 0 -32.5 6.5t-28 18.5t-20 28.5t-7.5 35.5q0 5 0.5 10t1.5 10h61q-1 -3 -1 -9q0 -17 11 -27t28 -10h75v0z" />
    <glyph glyph-name="Uhungarumlaut" unicode="&#x170;" horiz-adv-x="594" 
d="M134 175q0 -54 31.5 -82.5t95.5 -28.5q69 0 115 41.5t63 121.5l104 473h77l-104 -473q-13 -58 -34 -102t-53.5 -74t-76.5 -45.5t-102 -15.5q-39 0 -74 10.5t-61.5 32.5t-42 56t-15.5 80q0 16 9 63.5t24 118t35 160t42 189.5h77q-10 -43 -21.5 -96t-24 -109t-24 -110
t-20.5 -98t-14.5 -74t-5.5 -38zM452 854l-118 -109h-69l82 109h105zM620 854l-118 -109h-69l82 109h105z" />
    <glyph glyph-name="Umacron" unicode="&#x16a;" horiz-adv-x="594" 
d="M134 175q0 -54 31.5 -82.5t95.5 -28.5q69 0 115 41.5t63 121.5l104 473h77l-104 -473q-13 -58 -34 -102t-53.5 -74t-76.5 -45.5t-102 -15.5q-39 0 -74 10.5t-61.5 32.5t-42 56t-15.5 80q0 16 9 63.5t24 118t35 160t42 189.5h77q-10 -43 -21.5 -96t-24 -109t-24 -110
t-20.5 -98t-14.5 -74t-5.5 -38zM273 833h298l-15 -67h-298z" />
    <glyph glyph-name="Uogonek" unicode="&#x172;" horiz-adv-x="594" 
d="M134 175q0 -54 31.5 -82.5t95.5 -28.5q69 0 115 41.5t63 121.5l104 473h77l-104 -473q-17 -77 -49 -128.5t-85 -80.5q-15 -8 -37.5 -21t-43 -29.5t-35.5 -35.5t-15 -38q0 -11 7 -15.5t18 -4.5q14 0 29 5.5t26 11.5l-13 -62q-29 -18 -63 -18q-16 0 -31.5 4.5t-27.5 13
t-19 21.5t-7 31q0 38 24.5 65.5t58.5 43.5q-41 0 -76.5 10.5t-62 32.5t-42 56t-15.5 80q0 16 9 63.5t24 118t35 160t42 189.5h77q-10 -43 -21.5 -96t-24 -109t-24 -110t-20.5 -98t-14.5 -74t-5.5 -38z" />
    <glyph glyph-name="Uring" unicode="&#x16e;" horiz-adv-x="594" 
d="M134 175q0 -54 31.5 -82.5t95.5 -28.5q69 0 115 41.5t63 121.5l104 473h77l-104 -473q-13 -58 -34 -102t-53.5 -74t-76.5 -45.5t-102 -15.5q-39 0 -74 10.5t-61.5 32.5t-42 56t-15.5 80q0 16 9 63.5t24 118t35 160t42 189.5h77q-10 -43 -21.5 -96t-24 -109t-24 -110
t-20.5 -98t-14.5 -74t-5.5 -38zM331 799q0 31 21.5 53t52.5 22t53 -22t22 -53t-22 -52.5t-53 -21.5t-52.5 21.5t-21.5 52.5zM379 799q0 -11 7.5 -18.5t18.5 -7.5t18.5 7.5t7.5 18.5t-7.5 18.5t-18.5 7.5t-18.5 -7.5t-7.5 -18.5z" />
    <glyph glyph-name="Utilde" unicode="&#x168;" horiz-adv-x="594" 
d="M134 175q0 -54 31.5 -82.5t95.5 -28.5q69 0 115 41.5t63 121.5l104 473h77l-104 -473q-13 -58 -34 -102t-53.5 -74t-76.5 -45.5t-102 -15.5q-39 0 -74 10.5t-61.5 32.5t-42 56t-15.5 80q0 16 9 63.5t24 118t35 160t42 189.5h77q-10 -43 -21.5 -96t-24 -109t-24 -110
t-20.5 -98t-14.5 -74t-5.5 -38zM358 852q30 0 55 -14l30 -16q16 -8 26 -8q28 0 39 36h65q-9 -45 -37 -73.5t-66 -28.5q-30 0 -55 14l-30 16q-16 8 -26 8q-13 0 -23.5 -9t-15.5 -27h-65q9 45 37 73.5t66 28.5z" />
    <glyph glyph-name="uni1EE4" unicode="&#x1ee4;" horiz-adv-x="594" 
d="M134 175q0 -54 31.5 -82.5t95.5 -28.5q69 0 115 41.5t63 121.5l104 473h77l-104 -473q-13 -58 -34 -102t-53.5 -74t-76.5 -45.5t-102 -15.5q-39 0 -74 10.5t-61.5 32.5t-42 56t-15.5 80q0 16 9 63.5t24 118t35 160t42 189.5h77q-10 -43 -21.5 -96t-24 -109t-24 -110
t-20.5 -98t-14.5 -74t-5.5 -38zM249 -146h-77l21 97h77z" />
    <glyph glyph-name="Wacute" unicode="&#x1e82;" horiz-adv-x="725" 
d="M410 471l-235 -471h-74l20 700h74l-17 -543l221 443h72l28 -443l214 543h80l-278 -700h-74zM601 854l-128 -109h-74l92 109h110z" />
    <glyph glyph-name="Wcircumflex" unicode="&#x174;" horiz-adv-x="725" 
d="M410 471l-235 -471h-74l20 700h74l-17 -543l221 443h72l28 -443l214 543h80l-278 -700h-74zM482 796l-70 -51h-104l148 109h66l102 -109h-94z" />
    <glyph glyph-name="Wdieresis" unicode="&#x1e84;" horiz-adv-x="725" 
d="M410 471l-235 -471h-74l20 700h74l-17 -543l221 443h72l28 -443l214 543h80l-278 -700h-74zM605 751h-77l21 97h77zM408 751h-77l21 97h77z" />
    <glyph glyph-name="Wgrave" unicode="&#x1e80;" horiz-adv-x="725" 
d="M410 471l-235 -471h-74l20 700h74l-17 -543l221 443h72l28 -443l214 543h80l-278 -700h-74zM446 854l69 -109h-67l-105 109h103z" />
    <glyph glyph-name="Ycircumflex" unicode="&#x176;" horiz-adv-x="545" 
d="M256 0h-77l59 279l-141 421h75l115 -346l263 346h86l-321 -422zM391 796l-70 -51h-104l148 109h66l102 -109h-94z" />
    <glyph glyph-name="Ydieresis" unicode="&#x178;" horiz-adv-x="545" 
d="M256 0h-77l59 279l-141 421h75l115 -346l263 346h86l-321 -422zM515 751h-77l21 97h77zM318 751h-77l21 97h77z" />
    <glyph glyph-name="Ygrave" unicode="&#x1ef2;" horiz-adv-x="545" 
d="M256 0h-77l59 279l-141 421h75l115 -346l263 346h86l-321 -422zM358 854l69 -109h-67l-105 109h103z" />
    <glyph glyph-name="uni0232" unicode="&#x232;" horiz-adv-x="545" 
d="M256 0h-77l59 279l-141 421h75l115 -346l263 346h86l-321 -422zM246 833h298l-15 -67h-298z" />
    <glyph glyph-name="Zacute" unicode="&#x179;" horiz-adv-x="537" 
d="M-14 0l16 74l473 552h-352l16 74h447l-16 -74l-473 -552h361l-16 -74h-456zM507 854l-128 -109h-74l92 109h110z" />
    <glyph glyph-name="Zcaron" unicode="&#x17d;" horiz-adv-x="537" 
d="M-14 0l16 74l473 552h-352l16 74h447l-16 -74l-473 -552h361l-16 -74h-456zM379 803l70 51h104l-148 -109h-66l-102 109h94z" />
    <glyph glyph-name="Zdotaccent" unicode="&#x17b;" horiz-adv-x="537" 
d="M-14 0l16 74l473 552h-352l16 74h447l-16 -74l-473 -552h361l-16 -74h-456zM412 751h-77l21 97h77z" />
    <glyph glyph-name="abreve" unicode="&#x103;" horiz-adv-x="527" 
d="M383 252q-43 -2 -75.5 -4.5t-58 -6t-46 -9t-41.5 -13.5q-29 -12 -45 -30.5t-16 -53.5q0 -31 26 -52.5t80 -21.5q60 0 104.5 32t58.5 98zM77 358q26 94 84 133t146 39q34 0 65 -10t55 -28.5t38.5 -46t14.5 -62.5q0 -14 -3.5 -36t-9 -48t-11.5 -54t-11 -53q-12 -54 -21 -96
q-4 -18 -7.5 -35.5t-6.5 -31t-4.5 -21.5l-1.5 -8h-75l12 55q-20 -29 -60 -47t-90 -18q-40 0 -71 11.5t-52 31t-32 44.5t-11 51q0 33 7 58.5t22.5 45t41 34t62.5 25.5q48 14 110.5 19.5t128.5 9.5q3 17 5 30.5t2 21.5q0 23 -9 39.5t-24 27t-34 15.5t-39 5q-52 0 -89.5 -25
t-55.5 -76h-76zM308 571q-47 0 -76 29.5t-29 73.5q0 12 3 26h58q-1 -4 -1.5 -7t-0.5 -7q0 -23 17 -38.5t42 -15.5h38q26 0 49.5 19.5t29.5 48.5h64q-6 -27 -18 -50.5t-31.5 -41t-46 -27.5t-60.5 -10h-38v0z" />
    <glyph glyph-name="amacron" unicode="&#x101;" horiz-adv-x="527" 
d="M383 252q-43 -2 -75.5 -4.5t-58 -6t-46 -9t-41.5 -13.5q-29 -12 -45 -30.5t-16 -53.5q0 -31 26 -52.5t80 -21.5q60 0 104.5 32t58.5 98zM77 358q26 94 84 133t146 39q34 0 65 -10t55 -28.5t38.5 -46t14.5 -62.5q0 -14 -3.5 -36t-9 -48t-11.5 -54t-11 -53q-12 -54 -21 -96
q-4 -18 -7.5 -35.5t-6.5 -31t-4.5 -21.5l-1.5 -8h-75l12 55q-20 -29 -60 -47t-90 -18q-40 0 -71 11.5t-52 31t-32 44.5t-11 51q0 33 7 58.5t22.5 45t41 34t62.5 25.5q48 14 110.5 19.5t128.5 9.5q3 17 5 30.5t2 21.5q0 23 -9 39.5t-24 27t-34 15.5t-39 5q-52 0 -89.5 -25
t-55.5 -76h-76zM198 668h298l-13 -65h-298z" />
    <glyph glyph-name="aogonek" unicode="&#x105;" horiz-adv-x="527" 
d="M383 252q-43 -2 -75.5 -4.5t-58 -6t-46 -9t-41.5 -13.5q-29 -12 -45 -30.5t-16 -53.5q0 -31 26 -52.5t80 -21.5q60 0 104.5 32t58.5 98zM77 358q26 94 84 133t146 39q34 0 65 -10t55 -28.5t38.5 -46t14.5 -62.5q0 -14 -3.5 -36t-9 -48t-11.5 -54t-11 -53q-12 -54 -21 -96
q-4 -18 -7.5 -35.5t-6.5 -31t-4.5 -21.5l-1.5 -8h-75l12 55q-20 -29 -60 -47t-90 -18q-40 0 -71 11.5t-52 31t-32 44.5t-11 51q0 33 7 58.5t22.5 45t41 34t62.5 25.5q48 14 110.5 19.5t128.5 9.5q3 17 5 30.5t2 21.5q0 23 -9 39.5t-24 27t-34 15.5t-39 5q-52 0 -89.5 -25
t-55.5 -76h-76zM404 0q-11 -7 -28.5 -17t-34.5 -23.5t-29 -29t-12 -32.5q0 -12 6.5 -19t17.5 -7q14 0 29.5 5.5t26.5 11.5l-13 -60q-15 -9 -32.5 -13.5t-34.5 -4.5q-32 0 -54.5 18t-22.5 52q0 43 28.5 72.5t77.5 46.5h75v0z" />
    <glyph glyph-name="cacute" unicode="&#x107;" horiz-adv-x="515" 
d="M408 353q1 6 1.5 10.5t0.5 8.5q0 23 -9 39.5t-24 27t-34 15.5t-39 5q-59 0 -99 -32.5t-54 -97.5q-5 -21 -10.5 -47.5t-11 -52t-9 -47.5t-3.5 -34q0 -23 9 -39.5t24 -27t34 -15.5t39 -5q53 0 91.5 26.5t55.5 79.5h75q-26 -97 -83.5 -137t-147.5 -40q-34 0 -65 9.5
t-55 28.5t-38.5 46.5t-14.5 62.5q0 13 3.5 35.5t8.5 48.5t11.5 54t11.5 53q23 111 82.5 156.5t154.5 45.5q34 0 65 -10t55 -28.5t38.5 -46t14.5 -62.5q0 -12 -3 -30h-75zM453 700l-118 -129h-67l77 129h108z" />
    <glyph glyph-name="ccaron" unicode="&#x10d;" horiz-adv-x="515" 
d="M408 353q1 6 1.5 10.5t0.5 8.5q0 23 -9 39.5t-24 27t-34 15.5t-39 5q-59 0 -99 -32.5t-54 -97.5q-5 -21 -10.5 -47.5t-11 -52t-9 -47.5t-3.5 -34q0 -23 9 -39.5t24 -27t34 -15.5t39 -5q53 0 91.5 26.5t55.5 79.5h75q-26 -97 -83.5 -137t-147.5 -40q-34 0 -65 9.5
t-55 28.5t-38.5 46.5t-14.5 62.5q0 13 3.5 35.5t8.5 48.5t11.5 54t11.5 53q23 111 82.5 156.5t154.5 45.5q34 0 65 -10t55 -28.5t38.5 -46t14.5 -62.5q0 -12 -3 -30h-75zM198 700h84l54 -71l84 71h94l-152 -129h-66z" />
    <glyph glyph-name="ccircumflex" unicode="&#x109;" horiz-adv-x="515" 
d="M408 353q1 6 1.5 10.5t0.5 8.5q0 23 -9 39.5t-24 27t-34 15.5t-39 5q-59 0 -99 -32.5t-54 -97.5q-5 -21 -10.5 -47.5t-11 -52t-9 -47.5t-3.5 -34q0 -23 9 -39.5t24 -27t34 -15.5t39 -5q53 0 91.5 26.5t55.5 79.5h75q-26 -97 -83.5 -137t-147.5 -40q-34 0 -65 9.5
t-55 28.5t-38.5 46.5t-14.5 62.5q0 13 3.5 35.5t8.5 48.5t11.5 54t11.5 53q23 111 82.5 156.5t154.5 45.5q34 0 65 -10t55 -28.5t38.5 -46t14.5 -62.5q0 -12 -3 -30h-75zM487 571h-84l-54 71l-84 -71h-94l152 129h66z" />
    <glyph glyph-name="cdotaccent" unicode="&#x10b;" horiz-adv-x="515" 
d="M408 353q1 6 1.5 10.5t0.5 8.5q0 23 -9 39.5t-24 27t-34 15.5t-39 5q-59 0 -99 -32.5t-54 -97.5q-5 -21 -10.5 -47.5t-11 -52t-9 -47.5t-3.5 -34q0 -23 9 -39.5t24 -27t34 -15.5t39 -5q53 0 91.5 26.5t55.5 79.5h75q-26 -97 -83.5 -137t-147.5 -40q-34 0 -65 9.5
t-55 28.5t-38.5 46.5t-14.5 62.5q0 13 3.5 35.5t8.5 48.5t11.5 54t11.5 53q23 111 82.5 156.5t154.5 45.5q34 0 65 -10t55 -28.5t38.5 -46t14.5 -62.5q0 -12 -3 -30h-75zM370 587h-75l21 97h75z" />
    <glyph glyph-name="dcaron" unicode="&#x10f;" horiz-adv-x="540" 
d="M614 542h-59l61 158h101zM304 459q-59 0 -99 -32.5t-54 -97.5q-5 -21 -10.5 -47.5t-11 -52t-9 -47.5t-3.5 -34q0 -23 9 -39.5t24 -27t34 -15.5t39 -5q59 0 99 32.5t54 97.5q4 21 10 47.5t11.5 52t9 47.5t3.5 34q0 23 -9 39.5t-24 27t-34 15.5t-39 5zM347 55
q-17 -26 -53 -45.5t-87 -19.5q-30 0 -60 9.5t-53.5 28.5t-38 46.5t-14.5 62.5q0 13 3.5 35.5t8.5 48.5t11.5 54t11.5 53q12 55 32.5 93.5t50 62.5t66.5 35t81 11q45 0 77.5 -20.5t48.5 -53.5l52 244h75l-149 -700h-75z" />
    <glyph glyph-name="dcroat" unicode="&#x111;" horiz-adv-x="541" 
d="M347 55q-17 -26 -53 -45.5t-87 -19.5q-30 0 -60 9.5t-53.5 28.5t-38 46.5t-14.5 62.5q0 13 3.5 35.5t8.5 48.5t11.5 54t11.5 53q12 55 32.5 93.5t50 62.5t66.5 35t81 11q45 0 77.5 -20.5t48.5 -53.5l28 133h-127l11 53h127l13 58h75l-13 -58h70l-11 -53h-70l-125 -589
h-75zM304 459q-59 0 -99 -32.5t-54 -97.5q-5 -21 -10.5 -47.5t-11 -52t-9 -47.5t-3.5 -34q0 -23 9 -39.5t24 -27t34 -15.5t39 -5q59 0 99 32.5t54 97.5q4 21 10 47.5t11.5 52t9 47.5t3.5 34q0 23 -9 39.5t-24 27t-34 15.5t-39 5z" />
    <glyph glyph-name="ebreve" unicode="&#x115;" horiz-adv-x="521" 
d="M132 241q-6 -29 -10.5 -54t-4.5 -39q0 -23 9 -39.5t24 -27t34 -15.5t39 -5q52 0 89.5 25t55.5 76h76q-26 -94 -84 -133t-146 -39q-34 0 -65 9.5t-55 28.5t-38.5 46.5t-14.5 62.5q0 13 3.5 35.5t8.5 48.5t11.5 54t11.5 53q23 111 82.5 156.5t154.5 45.5q34 0 65 -10
t55 -28.5t38.5 -46t14.5 -62.5q0 -21 -7.5 -60.5t-16.5 -81.5h-330zM401 309q4 20 6.5 36.5t2.5 26.5q0 23 -9 39.5t-24 27t-34 15.5t-39 5q-67 0 -107 -40t-50 -110h254zM311 571q-47 0 -76 29.5t-29 73.5q0 12 3 26h58q-1 -4 -1.5 -7t-0.5 -7q0 -23 17 -38.5t42 -15.5h38
q26 0 49.5 19.5t29.5 48.5h64q-6 -27 -18 -50.5t-31.5 -41t-46 -27.5t-60.5 -10h-38v0z" />
    <glyph glyph-name="ecaron" unicode="&#x11b;" horiz-adv-x="521" 
d="M132 241q-6 -29 -10.5 -54t-4.5 -39q0 -23 9 -39.5t24 -27t34 -15.5t39 -5q52 0 89.5 25t55.5 76h76q-26 -94 -84 -133t-146 -39q-34 0 -65 9.5t-55 28.5t-38.5 46.5t-14.5 62.5q0 13 3.5 35.5t8.5 48.5t11.5 54t11.5 53q23 111 82.5 156.5t154.5 45.5q34 0 65 -10
t55 -28.5t38.5 -46t14.5 -62.5q0 -21 -7.5 -60.5t-16.5 -81.5h-330zM401 309q4 20 6.5 36.5t2.5 26.5q0 23 -9 39.5t-24 27t-34 15.5t-39 5q-67 0 -107 -40t-50 -110h254zM199 700h84l54 -71l84 71h94l-152 -129h-66z" />
    <glyph glyph-name="emacron" unicode="&#x113;" horiz-adv-x="521" 
d="M132 241q-6 -29 -10.5 -54t-4.5 -39q0 -23 9 -39.5t24 -27t34 -15.5t39 -5q52 0 89.5 25t55.5 76h76q-26 -94 -84 -133t-146 -39q-34 0 -65 9.5t-55 28.5t-38.5 46.5t-14.5 62.5q0 13 3.5 35.5t8.5 48.5t11.5 54t11.5 53q23 111 82.5 156.5t154.5 45.5q34 0 65 -10
t55 -28.5t38.5 -46t14.5 -62.5q0 -21 -7.5 -60.5t-16.5 -81.5h-330zM401 309q4 20 6.5 36.5t2.5 26.5q0 23 -9 39.5t-24 27t-34 15.5t-39 5q-67 0 -107 -40t-50 -110h254zM201 668h298l-13 -65h-298z" />
    <glyph glyph-name="eogonek" unicode="&#x119;" horiz-adv-x="521" 
d="M132 241q-6 -29 -10.5 -54t-4.5 -39q0 -23 9 -39.5t24 -27t34 -15.5t39 -5q52 0 89.5 25t55.5 76h76q-15 -54 -40 -88.5t-60 -54.5q-14 -8 -37 -20.5t-44.5 -28.5t-37.5 -34.5t-16 -37.5q0 -12 6.5 -19t17.5 -7q14 0 29.5 5.5t26.5 11.5l-13 -60q-15 -9 -32.5 -13.5
t-34.5 -4.5q-32 0 -54.5 18t-22.5 52q0 38 21.5 65t59.5 44q-34 0 -65 9.5t-55 28.5t-38 46.5t-14 62.5q0 13 3.5 35.5t8.5 48.5t11.5 54t11.5 53q23 111 82.5 156.5t154.5 45.5q34 0 65 -10t55 -28.5t38.5 -46t14.5 -62.5q0 -21 -7.5 -60.5t-16.5 -81.5h-330zM401 309
q4 20 6.5 36.5t2.5 26.5q0 23 -9 39.5t-24 27t-34 15.5t-39 5q-67 0 -107 -40t-50 -110h254z" />
    <glyph glyph-name="edotaccent" unicode="&#x117;" horiz-adv-x="521" 
d="M132 241q-6 -29 -10.5 -54t-4.5 -39q0 -23 9 -39.5t24 -27t34 -15.5t39 -5q52 0 89.5 25t55.5 76h76q-26 -94 -84 -133t-146 -39q-34 0 -65 9.5t-55 28.5t-38.5 46.5t-14.5 62.5q0 13 3.5 35.5t8.5 48.5t11.5 54t11.5 53q23 111 82.5 156.5t154.5 45.5q34 0 65 -10
t55 -28.5t38.5 -46t14.5 -62.5q0 -21 -7.5 -60.5t-16.5 -81.5h-330zM401 309q4 20 6.5 36.5t2.5 26.5q0 23 -9 39.5t-24 27t-34 15.5t-39 5q-67 0 -107 -40t-50 -110h254zM371 587h-75l21 97h75z" />
    <glyph glyph-name="gbreve" unicode="&#x11f;" horiz-adv-x="539" 
d="M78 -17q-1 -5 -1 -10v-9q0 -23 9 -39.5t24 -27t34 -15.5t39 -5q59 0 99 32.5t54 97.5l14 68q-17 -26 -53 -45.5t-87 -19.5q-30 0 -60 9.5t-53.5 28.5t-38 46.5t-14.5 62.5q0 27 10 74t21 97q12 55 32.5 93.5t50 62.5t66.5 35t81 11q45 0 77.5 -20.5t48.5 -53.5l13 60h75
l-108 -508q-23 -111 -83 -156.5t-154 -45.5q-34 0 -65 9.5t-55 28.5t-38.5 46.5t-14.5 62.5q0 12 3 30h74zM303 459q-59 0 -99 -32.5t-54 -97.5q-5 -21 -10 -44.5t-9.5 -45.5t-7.5 -40.5t-3 -30.5q0 -23 9 -39.5t24 -27t34 -15.5t39 -5q59 0 99 32.5t54 97.5q4 21 9.5 44.5
t10 45.5t7.5 40.5t3 30.5q0 23 -9 39.5t-24 27t-34 15.5t-39 5zM311 571q-47 0 -76 29.5t-29 73.5q0 12 3 26h58q-1 -4 -1.5 -7t-0.5 -7q0 -23 17 -38.5t42 -15.5h38q26 0 49.5 19.5t29.5 48.5h64q-6 -27 -18 -50.5t-31.5 -41t-46 -27.5t-60.5 -10h-38v0z" />
    <glyph glyph-name="gcircumflex" unicode="&#x11d;" horiz-adv-x="539" 
d="M78 -17q-1 -5 -1 -10v-9q0 -23 9 -39.5t24 -27t34 -15.5t39 -5q59 0 99 32.5t54 97.5l14 68q-17 -26 -53 -45.5t-87 -19.5q-30 0 -60 9.5t-53.5 28.5t-38 46.5t-14.5 62.5q0 27 10 74t21 97q12 55 32.5 93.5t50 62.5t66.5 35t81 11q45 0 77.5 -20.5t48.5 -53.5l13 60h75
l-108 -508q-23 -111 -83 -156.5t-154 -45.5q-34 0 -65 9.5t-55 28.5t-38.5 46.5t-14.5 62.5q0 12 3 30h74zM303 459q-59 0 -99 -32.5t-54 -97.5q-5 -21 -10 -44.5t-9.5 -45.5t-7.5 -40.5t-3 -30.5q0 -23 9 -39.5t24 -27t34 -15.5t39 -5q59 0 99 32.5t54 97.5q4 21 9.5 44.5
t10 45.5t7.5 40.5t3 30.5q0 23 -9 39.5t-24 27t-34 15.5t-39 5zM487 571h-84l-54 71l-84 -71h-94l152 129h66z" />
    <glyph glyph-name="gcommaaccent" unicode="&#x123;" horiz-adv-x="539" 
d="M78 -17q-1 -5 -1 -10v-9q0 -23 9 -39.5t24 -27t34 -15.5t39 -5q59 0 99 32.5t54 97.5l14 68q-17 -26 -53 -45.5t-87 -19.5q-30 0 -60 9.5t-53.5 28.5t-38 46.5t-14.5 62.5q0 27 10 74t21 97q12 55 32.5 93.5t50 62.5t66.5 35t81 11q45 0 77.5 -20.5t48.5 -53.5l13 60h75
l-108 -508q-23 -111 -83 -156.5t-154 -45.5q-34 0 -65 9.5t-55 28.5t-38.5 46.5t-14.5 62.5q0 12 3 30h74zM303 459q-59 0 -99 -32.5t-54 -97.5q-5 -21 -10 -44.5t-9.5 -45.5t-7.5 -40.5t-3 -30.5q0 -23 9 -39.5t24 -27t34 -15.5t39 -5q59 0 99 32.5t54 97.5q4 21 9.5 44.5
t10 45.5t7.5 40.5t3 30.5q0 23 -9 39.5t-24 27t-34 15.5t-39 5zM376.977 570.965h-94.9941l20.999 94.9941l42.9971 83.9951h63.9961l-42.9971 -83.9951h30.998z" />
    <glyph glyph-name="gdotaccent" unicode="&#x121;" horiz-adv-x="539" 
d="M78 -17q-1 -5 -1 -10v-9q0 -23 9 -39.5t24 -27t34 -15.5t39 -5q59 0 99 32.5t54 97.5l14 68q-17 -26 -53 -45.5t-87 -19.5q-30 0 -60 9.5t-53.5 28.5t-38 46.5t-14.5 62.5q0 27 10 74t21 97q12 55 32.5 93.5t50 62.5t66.5 35t81 11q45 0 77.5 -20.5t48.5 -53.5l13 60h75
l-108 -508q-23 -111 -83 -156.5t-154 -45.5q-34 0 -65 9.5t-55 28.5t-38.5 46.5t-14.5 62.5q0 12 3 30h74zM303 459q-59 0 -99 -32.5t-54 -97.5q-5 -21 -10 -44.5t-9.5 -45.5t-7.5 -40.5t-3 -30.5q0 -23 9 -39.5t24 -27t34 -15.5t39 -5q59 0 99 32.5t54 97.5q4 21 9.5 44.5
t10 45.5t7.5 40.5t3 30.5q0 23 -9 39.5t-24 27t-34 15.5t-39 5zM370 587h-75l21 97h75z" />
    <glyph glyph-name="hbar" unicode="&#x127;" horiz-adv-x="547" 
d="M334 530q30 0 60 -10t53.5 -28.5t38 -46t14.5 -62.5q0 -14 -3.5 -36t-9 -48t-11.5 -54t-11 -53l-41 -192h-75l41 191q5 21 11 47.5t11 52t8.5 47.5t3.5 34q0 23 -9 39.5t-24 27t-34 15.5t-39 5q-59 0 -99 -32.5t-54 -97.5l-70 -329h-75l125 589h-69l10 53h70l13 58h75
l-13 -58h127l-11 -53h-127l-26 -124q17 26 53 45.5t87 19.5z" />
    <glyph glyph-name="hcircumflex" unicode="&#x125;" horiz-adv-x="547" 
d="M334 530q30 0 60 -10t53.5 -28.5t38 -46t14.5 -62.5q0 -14 -3.5 -36t-9 -48t-11.5 -54t-11 -53l-41 -192h-75l41 191q5 21 11 47.5t11 52t8.5 47.5t3.5 34q0 23 -9 39.5t-24 27t-34 15.5t-39 5q-59 0 -99 -32.5t-54 -97.5l-70 -329h-75l149 700h75l-50 -235
q17 26 53 45.5t87 19.5zM539 745h-84l-54 71l-84 -71h-94l152 129h66z" />
    <glyph glyph-name="dotlessi" unicode="&#x131;" horiz-adv-x="225" 
d="M96 0h-75l109 516h75z" />
    <glyph glyph-name="ibreve" unicode="&#x12d;" horiz-adv-x="225" 
d="M96 0h-75l109 516h75zM161 571q-47 0 -76 29.5t-29 73.5q0 12 3 26h58q-1 -4 -1.5 -7t-0.5 -7q0 -23 17 -38.5t42 -15.5h38q26 0 49.5 19.5t29.5 48.5h64q-6 -27 -18 -50.5t-31.5 -41t-46 -27.5t-60.5 -10h-38v0z" />
    <glyph glyph-name="imacron" unicode="&#x12b;" horiz-adv-x="225" 
d="M96 0h-75l109 516h75zM51 668h298l-13 -65h-298z" />
    <glyph glyph-name="iogonek" unicode="&#x12f;" horiz-adv-x="225" 
d="M223 603h-75l21 97h75zM95 0h-75l110 516h75zM96 0q-11 -7 -28.5 -17t-34.5 -23.5t-29 -29t-12 -32.5q0 -12 6.5 -19t17.5 -7q14 0 29.5 5.5t26.5 11.5l-13 -60q-15 -9 -32.5 -13.5t-34.5 -4.5q-32 0 -54.5 18t-22.5 52q0 43 28.5 72.5t77.5 46.5h75v0z" />
    <glyph glyph-name="itilde" unicode="&#x129;" horiz-adv-x="225" 
d="M96 0h-75l109 516h75zM35 586q9 45 37 73.5t66 28.5q30 0 55 -14l30 -17q14 -9 31 -9q13 0 25 10.5t16 27.5h58q-9 -45 -37 -73.5t-66 -28.5q-30 0 -55 14l-30 17q-14 9 -31 9q-13 0 -25 -10.5t-16 -27.5h-58z" />
    <glyph glyph-name="uni1ECB" unicode="&#x1ecb;" horiz-adv-x="225" 
d="M223 603h-75l21 97h75zM95 0h-75l110 516h75zM64 -146h-75l21 97h75z" />
    <glyph glyph-name="dotlessj" unicode="&#x237;" horiz-adv-x="225" 
d="M130 516h75l-122 -577q-7 -33 -16 -56.5t-25 -38t-41.5 -21.5t-66.5 -7h-15l15 72h15q27 0 39.5 10t17.5 35z" />
    <glyph glyph-name="jcircumflex" unicode="&#x135;" horiz-adv-x="225" 
d="M130 516h75l-123 -577q-7 -33 -17.5 -56.5t-27.5 -38t-42 -21.5t-61 -7h-16l15 72h16q26 0 39 10t18 35zM337 571h-84l-54 71l-84 -71h-94l152 129h66z" />
    <glyph glyph-name="kcommaaccent" unicode="&#x137;" horiz-adv-x="505" 
d="M154 279l269 237h100l-229 -202l146 -314h-80l-123 265l-106 -94l-36 -171h-75l149 700h75zM156 -50h95l-21 -95l-43 -84h-64l43 84h-31z" />
    <glyph glyph-name="lacute" unicode="&#x13a;" horiz-adv-x="254" 
d="M242 700q-31 -147 -52.5 -248t-36 -167t-22 -103t-11.5 -55t-4.5 -22.5t-0.5 -6.5q0 -13 9 -20t32 -7h16l-15 -71h-16q-50 0 -74.5 23.5t-24.5 63.5q0 9 2 22.5t6.5 39t13.5 67t22.5 106.5t33.5 157.5t47 220.5h75zM338 874l-118 -129h-67l77 129h108z" />
    <glyph glyph-name="lcaron" unicode="&#x13e;" horiz-adv-x="254" 
d="M297 542h-59l61 158h101zM242 700q-31 -147 -52.5 -248t-36 -167t-22 -103t-11.5 -55t-4.5 -22.5t-0.5 -6.5q0 -13 9 -20t32 -7h16l-15 -71h-16q-50 0 -74.5 23.5t-24.5 63.5q0 9 2 22.5t6.5 39t13.5 67t22.5 106.5t33.5 157.5t47 220.5h75z" />
    <glyph glyph-name="lcommaaccent" unicode="&#x13c;" horiz-adv-x="254" 
d="M242 700q-31 -147 -52.5 -248t-36 -167t-22 -103t-11.5 -55t-4.5 -22.5t-0.5 -6.5q0 -13 9 -20t32 -7h16l-15 -71h-16q-50 0 -74.5 23.5t-24.5 63.5q0 9 2 22.5t6.5 39t13.5 67t22.5 106.5t33.5 157.5t47 220.5h75zM30 -50h95l-21 -95l-43 -84h-64l43 84h-31z" />
    <glyph glyph-name="ldot" unicode="&#x140;" horiz-adv-x="288" 
d="M242 700q-31 -147 -52.5 -248t-36 -167t-22 -103t-11.5 -55t-4.5 -22.5t-0.5 -6.5q0 -13 9 -20t32 -7h16l-15 -71h-16q-50 0 -74.5 23.5t-24.5 63.5q0 9 2 22.5t6.5 39t13.5 67t22.5 106.5t33.5 157.5t47 220.5h75zM310 338h-75l21 97h75z" />
    <glyph glyph-name="lslash" unicode="&#x142;" horiz-adv-x="274" 
d="M252 700l-59 -274l72 35l-13 -62l-72 -35q-20 -96 -31.5 -148.5t-16.5 -78t-6 -31.5t-1 -8q0 -13 9 -20t32 -7h16l-15 -71h-16q-50 0 -74.5 23.5t-24.5 63.5q0 9 1.5 22.5t6.5 39t13.5 67t22.5 106.5l-71 -35l13 62l72 35l67 316h75z" />
    <glyph glyph-name="eng" unicode="&#x14b;" horiz-adv-x="547" 
d="M424 372q0 23 -9 39.5t-24 27t-34 15.5t-39 5q-59 0 -99 -32.5t-54 -97.5l-70 -329h-75l110 516h75l-11 -51q17 26 53 45.5t87 19.5q30 0 60 -10t53.5 -28.5t38 -46t14.5 -62.5q0 -14 -3.5 -36t-9 -48t-11.5 -54t-11 -53l-54 -253q-7 -33 -16 -56.5t-25 -38t-41.5 -21.5
t-66.5 -7h-15l15 71h15q27 0 39.5 10.5t17.5 35.5l56 258q4 21 10 47.5t11.5 52t9 47.5t3.5 34z" />
    <glyph glyph-name="nacute" unicode="&#x144;" horiz-adv-x="547" 
d="M334 530q30 0 60 -10t53.5 -28.5t38 -46t14.5 -62.5q0 -14 -3.5 -36t-9 -48t-11.5 -54t-11 -53l-41 -192h-75l41 191q5 21 11 47.5t11 52t8.5 47.5t3.5 34q0 23 -9 39.5t-24 27t-34 15.5t-39 5q-59 0 -99 -32.5t-54 -97.5l-70 -329h-75l110 516h75l-11 -51q17 26 53 45.5
t87 19.5zM467 700l-118 -129h-67l77 129h108z" />
    <glyph glyph-name="ncaron" unicode="&#x148;" horiz-adv-x="547" 
d="M334 530q30 0 60 -10t53.5 -28.5t38 -46t14.5 -62.5q0 -14 -3.5 -36t-9 -48t-11.5 -54t-11 -53l-41 -192h-75l41 191q5 21 11 47.5t11 52t8.5 47.5t3.5 34q0 23 -9 39.5t-24 27t-34 15.5t-39 5q-59 0 -99 -32.5t-54 -97.5l-70 -329h-75l110 516h75l-11 -51q17 26 53 45.5
t87 19.5zM213 700h84l54 -71l84 71h94l-152 -129h-66z" />
    <glyph glyph-name="ncommaaccent" unicode="&#x146;" horiz-adv-x="547" 
d="M334 530q30 0 60 -10t53.5 -28.5t38 -46t14.5 -62.5q0 -14 -3.5 -36t-9 -48t-11.5 -54t-11 -53l-41 -192h-75l41 191q5 21 11 47.5t11 52t8.5 47.5t3.5 34q0 23 -9 39.5t-24 27t-34 15.5t-39 5q-59 0 -99 -32.5t-54 -97.5l-70 -329h-75l110 516h75l-11 -51q17 26 53 45.5
t87 19.5zM165 -50h95l-21 -95l-43 -84h-64l43 84h-31z" />
    <glyph glyph-name="oe" unicode="&#x153;" horiz-adv-x="850" 
d="M543 -10q-52 0 -93 18t-61 55q-31 -37 -76.5 -55t-98.5 -18q-34 0 -65 9.5t-55 28.5t-38.5 46.5t-14.5 62.5q0 13 3.5 35.5t8.5 48.5t11.5 54t11.5 53q23 111 82.5 156.5t154.5 45.5q51 0 91 -20t60 -57q27 41 75.5 59t102.5 18q34 0 65 -10t55 -28.5t38.5 -46
t14.5 -62.5q0 -21 -7.5 -60.5t-16.5 -81.5h-330q-6 -29 -10.5 -54t-4.5 -39q0 -23 9 -39.5t24 -27t34 -15.5t39 -5q52 0 89.5 25t55.5 76h76q-26 -94 -84 -133t-146 -39zM223 61q59 0 99 32.5t54 97.5q4 21 10 47.5t11.5 52t9 47.5t3.5 34q0 23 -9 39.5t-24 27t-34 15.5
t-39 5q-59 0 -99 -32.5t-54 -97.5q-5 -21 -10.5 -47.5t-11 -52t-9 -47.5t-3.5 -34q0 -23 9 -39.5t24 -27t34 -15.5t39 -5zM730 309q4 20 6.5 36.5t2.5 26.5q0 23 -9 39.5t-24 27t-34 15.5t-39 5q-67 0 -107 -40t-50 -110h254z" />
    <glyph glyph-name="obreve" unicode="&#x14f;" horiz-adv-x="527" 
d="M451 192q-23 -111 -83 -156.5t-154 -45.5q-34 0 -65 9.5t-55 28.5t-38.5 46.5t-14.5 62.5q0 13 3.5 35.5t8.5 48.5t11.5 54t11.5 53q23 111 82.5 156.5t154.5 45.5q34 0 65 -10t55 -28.5t38.5 -46t14.5 -62.5q0 -14 -3.5 -36t-9 -48t-11.5 -54t-11 -53zM223 61
q59 0 99 32.5t54 97.5q4 21 10 47.5t11.5 52t9 47.5t3.5 34q0 23 -9 39.5t-24 27t-34 15.5t-39 5q-59 0 -99 -32.5t-54 -97.5q-5 -21 -10.5 -47.5t-11 -52t-9 -47.5t-3.5 -34q0 -23 9 -39.5t24 -27t34 -15.5t39 -5zM311 571q-47 0 -76 29.5t-29 73.5q0 12 3 26h58
q-1 -4 -1.5 -7t-0.5 -7q0 -23 17 -38.5t42 -15.5h38q26 0 49.5 19.5t29.5 48.5h64q-6 -27 -18 -50.5t-31.5 -41t-46 -27.5t-60.5 -10h-38v0z" />
    <glyph glyph-name="ohungarumlaut" unicode="&#x151;" horiz-adv-x="527" 
d="M451 192q-23 -111 -83 -156.5t-154 -45.5q-34 0 -65 9.5t-55 28.5t-38.5 46.5t-14.5 62.5q0 13 3.5 35.5t8.5 48.5t11.5 54t11.5 53q23 111 82.5 156.5t154.5 45.5q34 0 65 -10t55 -28.5t38.5 -46t14.5 -62.5q0 -14 -3.5 -36t-9 -48t-11.5 -54t-11 -53zM223 61
q59 0 99 32.5t54 97.5q4 21 10 47.5t11.5 52t9 47.5t3.5 34q0 23 -9 39.5t-24 27t-34 15.5t-39 5q-59 0 -99 -32.5t-54 -97.5q-5 -21 -10.5 -47.5t-11 -52t-9 -47.5t-3.5 -34q0 -23 9 -39.5t24 -27t34 -15.5t39 -5zM364 700l-108 -129h-62l67 129h103zM532 700l-108 -129
h-62l67 129h103z" />
    <glyph glyph-name="omacron" unicode="&#x14d;" horiz-adv-x="527" 
d="M451 192q-23 -111 -83 -156.5t-154 -45.5q-34 0 -65 9.5t-55 28.5t-38.5 46.5t-14.5 62.5q0 13 3.5 35.5t8.5 48.5t11.5 54t11.5 53q23 111 82.5 156.5t154.5 45.5q34 0 65 -10t55 -28.5t38.5 -46t14.5 -62.5q0 -14 -3.5 -36t-9 -48t-11.5 -54t-11 -53zM223 61
q59 0 99 32.5t54 97.5q4 21 10 47.5t11.5 52t9 47.5t3.5 34q0 23 -9 39.5t-24 27t-34 15.5t-39 5q-59 0 -99 -32.5t-54 -97.5q-5 -21 -10.5 -47.5t-11 -52t-9 -47.5t-3.5 -34q0 -23 9 -39.5t24 -27t34 -15.5t39 -5zM201 668h298l-13 -65h-298z" />
    <glyph glyph-name="uni1ECD" unicode="&#x1ecd;" horiz-adv-x="527" 
d="M451 192q-23 -111 -83 -156.5t-154 -45.5q-34 0 -65 9.5t-55 28.5t-38.5 46.5t-14.5 62.5q0 13 3.5 35.5t8.5 48.5t11.5 54t11.5 53q23 111 82.5 156.5t154.5 45.5q34 0 65 -10t55 -28.5t38.5 -46t14.5 -62.5q0 -14 -3.5 -36t-9 -48t-11.5 -54t-11 -53zM223 61
q59 0 99 32.5t54 97.5q4 21 10 47.5t11.5 52t9 47.5t3.5 34q0 23 -9 39.5t-24 27t-34 15.5t-39 5q-59 0 -99 -32.5t-54 -97.5q-5 -21 -10.5 -47.5t-11 -52t-9 -47.5t-3.5 -34q0 -23 9 -39.5t24 -27t34 -15.5t39 -5zM215 -146h-75l21 97h75z" />
    <glyph glyph-name="racute" unicode="&#x155;" horiz-adv-x="327" 
d="M317 454q-59 0 -99 -32.5t-54 -97.5l-69 -324h-75l110 516h75l-12 -56q17 26 53 45.5t87 19.5h33l-15 -71h-34zM382 700l-118 -129h-67l77 129h108z" />
    <glyph glyph-name="rcaron" unicode="&#x159;" horiz-adv-x="327" 
d="M317 454q-59 0 -99 -32.5t-54 -97.5l-69 -324h-75l110 516h75l-12 -56q17 26 53 45.5t87 19.5h33l-15 -71h-34zM129 700h84l54 -71l84 71h94l-152 -129h-66z" />
    <glyph glyph-name="rcommaaccent" unicode="&#x157;" horiz-adv-x="327" 
d="M317 454q-59 0 -99 -32.5t-54 -97.5l-69 -324h-75l110 516h75l-12 -56q17 26 53 45.5t87 19.5h33l-15 -71h-34zM0 -50h95l-21 -95l-43 -84h-64l43 84h-31z" />
    <glyph glyph-name="sacute" unicode="&#x15b;" horiz-adv-x="471" 
d="M364 365v7q0 22 -8.5 38.5t-23 27t-32.5 16t-37 5.5t-37.5 -5t-33 -14.5t-23.5 -24.5t-9 -35q0 -23 12 -42.5t46 -29.5l67 -20q53 -16 86 -48t33 -81q0 -76 -47.5 -122.5t-146.5 -46.5q-35 0 -69.5 9.5t-61.5 29.5t-43.5 49.5t-16.5 70.5v8t1 8h75v-10q0 -25 10 -42.5
t27.5 -29t40 -17t47.5 -5.5q18 0 37 4t34.5 14t26 25.5t10.5 39.5q0 23 -14 43.5t-54 32.5l-67 20q-49 14 -79 47.5t-30 83.5q0 69 46.5 114t138.5 45q37 0 68.5 -11t54.5 -30.5t35.5 -47t12.5 -59.5v-8t-1 -9h-75zM425 700l-118 -129h-67l77 129h108z" />
    <glyph glyph-name="scaron" unicode="&#x161;" horiz-adv-x="471" 
d="M364 365v7q0 22 -8.5 38.5t-23 27t-32.5 16t-37 5.5t-37.5 -5t-33 -14.5t-23.5 -24.5t-9 -35q0 -23 12 -42.5t46 -29.5l67 -20q53 -16 86 -48t33 -81q0 -76 -47.5 -122.5t-146.5 -46.5q-35 0 -69.5 9.5t-61.5 29.5t-43.5 49.5t-16.5 70.5v8t1 8h75v-10q0 -25 10 -42.5
t27.5 -29t40 -17t47.5 -5.5q18 0 37 4t34.5 14t26 25.5t10.5 39.5q0 23 -14 43.5t-54 32.5l-67 20q-49 14 -79 47.5t-30 83.5q0 69 46.5 114t138.5 45q37 0 68.5 -11t54.5 -30.5t35.5 -47t12.5 -59.5v-8t-1 -9h-75zM170 700h84l54 -71l84 71h94l-152 -129h-66z" />
    <glyph glyph-name="scedilla" unicode="&#x15f;" horiz-adv-x="471" 
d="M364 365v7q0 22 -8.5 38.5t-23 27t-32.5 16t-37 5.5t-37.5 -5t-33 -14.5t-23.5 -24.5t-9 -35q0 -23 12 -42.5t46 -29.5l67 -20q53 -16 86 -48t33 -81q0 -76 -47.5 -122.5t-146.5 -46.5q-35 0 -69.5 9.5t-61.5 29.5t-43.5 49.5t-16.5 70.5v8t1 8h75v-10q0 -25 10 -42.5
t27.5 -29t40 -17t47.5 -5.5q18 0 37 4t34.5 14t26 25.5t10.5 39.5q0 23 -14 43.5t-54 32.5l-67 20q-49 14 -79 47.5t-30 83.5q0 69 46.5 114t138.5 45q37 0 68.5 -11t54.5 -30.5t35.5 -47t12.5 -59.5v-8t-1 -9h-75zM179 0h65l-38 -158h-98z" />
    <glyph glyph-name="scircumflex" unicode="&#x15d;" horiz-adv-x="471" 
d="M364 365v7q0 22 -8.5 38.5t-23 27t-32.5 16t-37 5.5t-37.5 -5t-33 -14.5t-23.5 -24.5t-9 -35q0 -23 12 -42.5t46 -29.5l67 -20q53 -16 86 -48t33 -81q0 -76 -47.5 -122.5t-146.5 -46.5q-35 0 -69.5 9.5t-61.5 29.5t-43.5 49.5t-16.5 70.5v8t1 8h75v-10q0 -25 10 -42.5
t27.5 -29t40 -17t47.5 -5.5q18 0 37 4t34.5 14t26 25.5t10.5 39.5q0 23 -14 43.5t-54 32.5l-67 20q-49 14 -79 47.5t-30 83.5q0 69 46.5 114t138.5 45q37 0 68.5 -11t54.5 -30.5t35.5 -47t12.5 -59.5v-8t-1 -9h-75zM459 571h-84l-54 71l-84 -71h-94l152 129h66z" />
    <glyph glyph-name="scommaaccent" unicode="&#x219;" horiz-adv-x="471" 
d="M364 365v7q0 22 -8.5 38.5t-23 27t-32.5 16t-37 5.5t-37.5 -5t-33 -14.5t-23.5 -24.5t-9 -35q0 -23 12 -42.5t46 -29.5l67 -20q53 -16 86 -48t33 -81q0 -76 -47.5 -122.5t-146.5 -46.5q-35 0 -69.5 9.5t-61.5 29.5t-43.5 49.5t-16.5 70.5v8t1 8h75v-10q0 -25 10 -42.5
t27.5 -29t40 -17t47.5 -5.5q18 0 37 4t34.5 14t26 25.5t10.5 39.5q0 23 -14 43.5t-54 32.5l-67 20q-49 14 -79 47.5t-30 83.5q0 69 46.5 114t138.5 45q37 0 68.5 -11t54.5 -30.5t35.5 -47t12.5 -59.5v-8t-1 -9h-75zM142 -50h95l-21 -95l-43 -84h-64l43 84h-31z" />
    <glyph glyph-name="tbar" unicode="&#x167;" horiz-adv-x="341" 
d="M214 445l-28 -128h133l-11 -53h-133q-12 -58 -19 -90.5t-10.5 -48.5t-4 -20.5t-0.5 -6.5q0 -13 9 -20t32 -7h80l-15 -71h-80q-50 0 -74.5 23.5t-24.5 63.5q0 8 1 19t4.5 30.5t10 50t16.5 77.5h-67l11 53h67l28 128h-73l15 71h73l25 117h75l-25 -117h127l-15 -71h-127z
" />
    <glyph glyph-name="tcaron" unicode="&#x165;" horiz-adv-x="341" 
d="M350 571h-59l46 129h101zM214 445q-18 -83 -30 -140.5t-20.5 -95.5t-13 -59.5t-6.5 -32.5t-2.5 -14t-0.5 -5q0 -13 9 -20t32 -7h80l-15 -71h-80q-50 0 -74.5 23.5t-24.5 63.5q0 11 2.5 28.5t10.5 56t21.5 103.5t36.5 170h-73l15 71h73l25 117h75l-25 -117h127l-15 -71
h-127z" />
    <glyph glyph-name="uni0163" unicode="&#x163;" horiz-adv-x="341" 
d="M214 445q-18 -83 -30 -140.5t-20.5 -95.5t-13 -59.5t-6.5 -32.5t-2.5 -14t-0.5 -5q0 -13 9 -20t32 -7h80l-15 -71h-80q-50 0 -74.5 23.5t-24.5 63.5q0 11 2.5 28.5t10.5 56t21.5 103.5t36.5 170h-73l15 71h73l25 117h75l-25 -117h127l-15 -71h-127zM88 -50h95l-21 -95
l-43 -84h-64l43 84h-31z" />
    <glyph glyph-name="tcommaaccent" unicode="&#x21b;" horiz-adv-x="341" 
d="M214 445q-18 -83 -30 -140.5t-20.5 -95.5t-13 -59.5t-6.5 -32.5t-2.5 -14t-0.5 -5q0 -13 9 -20t32 -7h80l-15 -71h-80q-50 0 -74.5 23.5t-24.5 63.5q0 11 2.5 28.5t10.5 56t21.5 103.5t36.5 170h-73l15 71h73l25 117h75l-25 -117h127l-15 -71h-127zM88 -50h95l-21 -95
l-43 -84h-64l43 84h-31z" />
    <glyph glyph-name="ubreve" unicode="&#x16d;" horiz-adv-x="541" 
d="M212 -10q-30 0 -59 9.5t-52.5 28.5t-38 46.5t-14.5 62.5q0 13 3.5 35.5t8.5 48.5t11.5 54t11.5 53l40 188h75l-40 -187q-5 -21 -10.5 -47.5t-11 -52t-9 -47.5t-3.5 -34q0 -23 9 -39t23 -27t32.5 -16t38.5 -5q57 0 96.5 33t53.5 97l69 325h75l-110 -516h-75l12 55
q-17 -25 -52.5 -45t-83.5 -20zM315 571q-47 0 -76 29.5t-29 73.5q0 12 3 26h58q-1 -4 -1.5 -7t-0.5 -7q0 -23 17 -38.5t42 -15.5h38q26 0 49.5 19.5t29.5 48.5h64q-6 -27 -18 -50.5t-31.5 -41t-46 -27.5t-60.5 -10h-38v0z" />
    <glyph glyph-name="uhungarumlaut" unicode="&#x171;" horiz-adv-x="541" 
d="M212 -10q-30 0 -59 9.5t-52.5 28.5t-38 46.5t-14.5 62.5q0 13 3.5 35.5t8.5 48.5t11.5 54t11.5 53l40 188h75l-40 -187q-5 -21 -10.5 -47.5t-11 -52t-9 -47.5t-3.5 -34q0 -23 9 -39t23 -27t32.5 -16t38.5 -5q57 0 96.5 33t53.5 97l69 325h75l-110 -516h-75l12 55
q-17 -25 -52.5 -45t-83.5 -20zM365 700l-108 -129h-62l67 129h103zM533 700l-108 -129h-62l67 129h103z" />
    <glyph glyph-name="umacron" unicode="&#x16b;" horiz-adv-x="541" 
d="M212 -10q-30 0 -59 9.5t-52.5 28.5t-38 46.5t-14.5 62.5q0 13 3.5 35.5t8.5 48.5t11.5 54t11.5 53l40 188h75l-40 -187q-5 -21 -10.5 -47.5t-11 -52t-9 -47.5t-3.5 -34q0 -23 9 -39t23 -27t32.5 -16t38.5 -5q57 0 96.5 33t53.5 97l69 325h75l-110 -516h-75l12 55
q-17 -25 -52.5 -45t-83.5 -20zM205 668h298l-13 -65h-298z" />
    <glyph glyph-name="uogonek" unicode="&#x173;" horiz-adv-x="541" 
d="M212 -10q-30 0 -59 9.5t-52.5 28.5t-38 46.5t-14.5 62.5q0 13 3.5 35.5t8.5 48.5t11.5 54t11.5 53l40 188h75l-40 -187q-5 -21 -10.5 -47.5t-11 -52t-9 -47.5t-3.5 -34q0 -23 9 -39t23 -27t32.5 -16t38.5 -5q57 0 96.5 33t53.5 97l69 325h75l-110 -516h-75l12 55
q-17 -25 -52.5 -45t-83.5 -20zM411 0q-11 -7 -28.5 -17t-34.5 -23.5t-29 -29t-12 -32.5q0 -12 6.5 -19t17.5 -7q14 0 29.5 5.5t26.5 11.5l-13 -60q-15 -9 -32.5 -13.5t-34.5 -4.5q-32 0 -54.5 18t-22.5 52q0 43 28.5 72.5t77.5 46.5h75v0z" />
    <glyph glyph-name="uring" unicode="&#x16f;" horiz-adv-x="541" 
d="M212 -10q-30 0 -59 9.5t-52.5 28.5t-38 46.5t-14.5 62.5q0 13 3.5 35.5t8.5 48.5t11.5 54t11.5 53l40 188h75l-40 -187q-5 -21 -10.5 -47.5t-11 -52t-9 -47.5t-3.5 -34q0 -23 9 -39t23 -27t32.5 -16t38.5 -5q57 0 96.5 33t53.5 97l69 325h75l-110 -516h-75l12 55
q-17 -25 -52.5 -45t-83.5 -20zM309 635q0 -11 8.5 -19.5t19.5 -8.5t19.5 8.5t8.5 19.5t-8.5 19.5t-19.5 8.5t-19.5 -8.5t-8.5 -19.5zM263 635q0 31 21.5 53t52.5 22t53 -22t22 -53t-22 -52.5t-53 -21.5t-52.5 21.5t-21.5 52.5z" />
    <glyph glyph-name="utilde" unicode="&#x169;" horiz-adv-x="541" 
d="M212 -10q-30 0 -59 9.5t-52.5 28.5t-38 46.5t-14.5 62.5q0 13 3.5 35.5t8.5 48.5t11.5 54t11.5 53l40 188h75l-40 -187q-5 -21 -10.5 -47.5t-11 -52t-9 -47.5t-3.5 -34q0 -23 9 -39t23 -27t32.5 -16t38.5 -5q57 0 96.5 33t53.5 97l69 325h75l-110 -516h-75l12 55
q-17 -25 -52.5 -45t-83.5 -20zM189 586q9 45 37 73.5t66 28.5q30 0 55 -14l30 -17q14 -9 31 -9q13 0 25 10.5t16 27.5h58q-9 -45 -37 -73.5t-66 -28.5q-30 0 -55 14l-30 17q-14 9 -31 9q-13 0 -25 -10.5t-16 -27.5h-58z" />
    <glyph glyph-name="uni1EE5" unicode="&#x1ee5;" horiz-adv-x="541" 
d="M212 -10q-30 0 -59 9.5t-52.5 28.5t-38 46.5t-14.5 62.5q0 13 3.5 35.5t8.5 48.5t11.5 54t11.5 53l40 188h75l-40 -187q-5 -21 -10.5 -47.5t-11 -52t-9 -47.5t-3.5 -34q0 -23 9 -39t23 -27t32.5 -16t38.5 -5q57 0 96.5 33t53.5 97l69 325h75l-110 -516h-75l12 55
q-17 -25 -52.5 -45t-83.5 -20zM219 -146h-75l21 97h75z" />
    <glyph glyph-name="wacute" unicode="&#x1e83;" horiz-adv-x="684" 
d="M460 114l189 402h77l-245 -516h-78l-26 411l-204 -411h-78l-27 516h72l18 -392l194 392h83zM532 700l-118 -129h-67l77 129h108z" />
    <glyph glyph-name="wcircumflex" unicode="&#x175;" horiz-adv-x="684" 
d="M460 114l189 402h77l-245 -516h-78l-26 411l-204 -411h-78l-27 516h72l18 -392l194 392h83zM567 571h-84l-54 71l-84 -71h-94l152 129h66z" />
    <glyph glyph-name="wdieresis" unicode="&#x1e85;" horiz-adv-x="684" 
d="M460 114l189 402h77l-245 -516h-78l-26 411l-204 -411h-78l-27 516h72l18 -392l194 392h83zM351 587h-75l21 97h75zM550 587h-75l21 97h75z" />
    <glyph glyph-name="wgrave" unicode="&#x1e81;" horiz-adv-x="684" 
d="M460 114l189 402h77l-245 -516h-78l-26 411l-204 -411h-78l-27 516h72l18 -392l194 392h83zM401 700l50 -129h-60l-91 129h101z" />
    <glyph glyph-name="ycircumflex" unicode="&#x177;" horiz-adv-x="467" 
d="M139 -10l-79 526h73l62 -427l240 427h81l-370 -647q-17 -30 -46.5 -41t-78.5 -12h-29l15 71h38q24 0 34.5 8.5t18.5 22.5zM458 571h-84l-54 71l-84 -71h-94l152 129h66z" />
    <glyph glyph-name="ygrave" unicode="&#x1ef3;" horiz-adv-x="467" 
d="M139 -10l-79 526h73l62 -427l240 427h81l-370 -647q-17 -30 -46.5 -41t-78.5 -12h-29l15 71h38q24 0 34.5 8.5t18.5 22.5zM296 700l50 -129h-60l-91 129h101z" />
    <glyph glyph-name="uni0233" unicode="&#x233;" horiz-adv-x="467" 
d="M139 -10l-79 526h73l62 -427l240 427h81l-370 -647q-17 -30 -46.5 -41t-78.5 -12h-29l15 71h38q24 0 34.5 8.5t18.5 22.5zM170 668h298l-13 -65h-298z" />
    <glyph glyph-name="zacute" unicode="&#x17a;" horiz-adv-x="466" 
d="M99 71h291l-15 -71h-388l15 71l363 374h-278l15 71h375l-15 -71zM424 700l-118 -129h-67l77 129h108z" />
    <glyph glyph-name="zcaron" unicode="&#x17e;" horiz-adv-x="466" 
d="M99 71h291l-15 -71h-388l15 71l363 374h-278l15 71h375l-15 -71zM170 700h84l54 -71l84 71h94l-152 -129h-66z" />
    <glyph glyph-name="zdotaccent" unicode="&#x17c;" horiz-adv-x="466" 
d="M99 71h291l-15 -71h-388l15 71l363 374h-278l15 71h375l-15 -71zM343 587h-75l21 97h75z" />
    <glyph glyph-name="ellipsis" unicode="&#x2026;" horiz-adv-x="825" 
d="M327 105h105l-23 -105h-105zM602 105h105l-23 -105h-105zM53 105h105l-23 -105h-105z" />
    <glyph glyph-name="endash" unicode="&#x2013;" horiz-adv-x="514" 
d="M53 248l13 65h404l-13 -65h-404z" />
    <glyph glyph-name="emdash" unicode="&#x2014;" horiz-adv-x="813" 
d="M53 248l13 65h703l-13 -65h-703z" />
    <glyph glyph-name="guilsinglleft" unicode="&#x2039;" horiz-adv-x="289" 
d="M53 236l15 74l199 147l-20 -94l-132 -97l90 -98l-17 -79z" />
    <glyph glyph-name="guilsinglright" unicode="&#x203a;" horiz-adv-x="289" 
d="M243 310l-15 -74l-199 -147l20 94l132 97l-90 98l17 79z" />
    <glyph glyph-name="quoteleft" unicode="&#x2018;" horiz-adv-x="241" 
d="M225 501h-105l23 105l55 94h64l-56 -94h42z" />
    <glyph glyph-name="quoteright" unicode="&#x2019;" horiz-adv-x="241" 
d="M163 700h105l-23 -105l-55 -94h-64l55 94h-41z" />
    <glyph glyph-name="quotedblleft" unicode="&#x201c;" horiz-adv-x="424" 
d="M225 501h-105l23 105l55 94h64l-56 -94h42zM408 501h-105l23 105l55 94h64l-56 -94h42z" />
    <glyph glyph-name="quotedblright" unicode="&#x201d;" horiz-adv-x="424" 
d="M162.99 699.957h104.993l-22.998 -104.993l-54.9971 -93.9941h-63.9961l55.9971 93.9941h-41.998zM345.979 699.957h104.994l-22.999 -104.993l-54.9961 -93.9941h-63.9961l55.9961 93.9941h-41.9971z" />
    <glyph glyph-name="quotesinglbase" unicode="&#x201a;" horiz-adv-x="241" 
d="M36 105h105l-23 -105l-55 -94h-64l55 94h-41z" />
    <glyph glyph-name="quotedblbase" unicode="&#x201e;" horiz-adv-x="424" 
d="M36 105h105l-23 -105l-55 -94h-64l55 94h-41zM219 105h105l-23 -105l-55 -94h-64l55 94h-41z" />
    <glyph glyph-name="bullet" unicode="&#x2022;" horiz-adv-x="800" 
d="M250 298q0 35 13 65.5t36 53.5t53.5 36t65.5 13t65.5 -13t53.5 -36t36 -53.5t13 -65.5t-13 -65.5t-36 -53.5t-53.5 -36t-65.5 -13t-65.5 13t-53.5 36t-36 53.5t-13 65.5z" />
    <glyph glyph-name="dagger" unicode="&#x2020;" horiz-adv-x="583" 
d="M365 453l-114 -540h-65l114 540h-169l14 63h169l39 184h65l-39 -184h169l-14 -63h-169z" />
    <glyph glyph-name="daggerdbl" unicode="&#x2021;" horiz-adv-x="583" 
d="M290 97l-39 -184h-65l39 184h-169l14 63h168l62 293h-169l14 63h169l39 184h65l-39 -184h169l-14 -63h-169l-62 -293h170l-14 -63h-169z" />
    <glyph glyph-name="perthousand" unicode="&#x2030;" horiz-adv-x="1146" 
d="M915 55q30 0 46 18.5t21 41.5q3 10 9 39.5t12.5 61t11.5 57.5t5 30q0 13 -5.5 22t-13.5 15t-17.5 8.5t-18.5 2.5q-30 0 -45.5 -18.5t-21.5 -41.5q-3 -11 -9 -40t-12.5 -60.5t-11.5 -57.5t-5 -30q0 -26 18.5 -37t36.5 -11zM907 -6q-49 0 -80 28t-31 79q0 7 4.5 32.5
t10.5 55.5t12 58l9 42q5 27 14.5 50t26 39t41 25t59.5 9q49 0 79.5 -28t30.5 -79q0 -8 -4.5 -33t-10.5 -55t-12 -58.5t-9 -41.5q-5 -27 -14.5 -50t-26 -39t-40.5 -25t-59 -9zM715 700l-481 -700h-71l481 700h71zM221 349q30 0 46 18.5t21 41.5q3 10 9 39.5t12.5 61
t11.5 57.5t5 30q0 13 -5.5 22t-13.5 15t-17.5 8.5t-18.5 2.5q-30 0 -45.5 -18.5t-21.5 -41.5q-3 -11 -9 -40t-12.5 -60.5t-11.5 -57.5t-5 -30q0 -26 18.5 -37t36.5 -11zM213 288q-49 0 -80 28t-31 79q0 7 4.5 32.5t10.5 55.5t12 58l9 42q5 27 14.5 50t26 39t41 25t59.5 9
q49 0 79.5 -28t30.5 -79q0 -8 -4.5 -33t-10.5 -55t-12 -58.5t-9 -41.5q-5 -27 -14.5 -50t-26 -39t-40.5 -25t-59 -9zM608 55q30 0 46 18.5t21 41.5q3 10 9 39.5t12.5 61t11.5 57.5t5 30q0 13 -5.5 22t-13.5 15t-17.5 8.5t-18.5 2.5q-30 0 -45.5 -18.5t-21.5 -41.5
q-3 -11 -9 -40t-12.5 -60.5t-11.5 -57.5t-5 -30q0 -26 18.5 -37t36.5 -11zM600 -6q-49 0 -80 28t-31 79q0 7 4.5 32.5t10.5 55.5t12 58l9 42q5 27 14.5 50t26 39t41 25t59.5 9q49 0 79.5 -28t30.5 -79q0 -8 -4.5 -33t-10.5 -55t-12 -58.5t-9 -41.5q-5 -27 -14.5 -50t-26 -39
t-40.5 -25t-59 -9z" />
    <glyph glyph-name="uni2117" unicode="&#x2117;" horiz-adv-x="810" 
d="M64 350q0 75 28.5 140.5t77 114t114 77t140.5 28.5t140.5 -28.5t114 -77t77 -114t28.5 -140.5t-28.5 -140.5t-77 -114t-114 -77t-140.5 -28.5t-140.5 28.5t-114 77t-77 114t-28.5 140.5zM129 350q0 -62 23 -115.5t63 -94t93.5 -63.5t115.5 -23q61 0 115 23t94 63.5t63 94
t23 115.5q0 61 -23 115t-63 94.5t-94 63.5t-115 23q-62 0 -115.5 -23t-93.5 -63.5t-63 -94.5t-23 -115zM295 559h165q36 0 62.5 -11.5t44.5 -30.5t26.5 -44t8.5 -53t-8.5 -53t-26.5 -44t-44.5 -30.5t-62.5 -11.5h-97v-140h-68v418zM460 349q38 0 55.5 21.5t17.5 50.5
t-17.5 50.5t-55.5 21.5h-97v-144h97z" />
    <glyph glyph-name="trademark" unicode="&#x2122;" horiz-adv-x="745" 
d="M188 636h-115v64h295v-64h-115v-342h-65v342zM421 700h65l107 -221l107 221h65v-406h-64v277l-81 -168h-53l-81 168v-277h-65v406z" />
    <glyph glyph-name="lozenge" unicode="&#x25ca;" 
d="M329 0h-62l-203 350l203 350h62l203 -350zM298 78l158 272l-158 272l-158 -272z" />
    <glyph glyph-name="afii61289" unicode="&#x2113;" horiz-adv-x="329" 
d="M136 547q18 84 49 123.5t92 39.5q43 0 64 -27t21 -72q0 -47 -18.5 -98.5t-48.5 -100.5t-69 -91t-79 -71q-11 -49 -16.5 -76.5t-8 -42t-3 -21.5t-0.5 -14q0 -29 14.5 -40.5t40.5 -11.5q14 0 30.5 2.5t34.5 6.5l3 -31q-66 -32 -113 -32q-37 0 -62 22t-25 69v15t1.5 17.5
t5 28t9.5 46.5l-48 -33l-19 32l78 54zM214 558q-18 -82 -31 -143.5t-23 -108.5q30 26 60 60.5t53.5 73t38 79t14.5 79.5q0 26 -10.5 41.5t-34.5 15.5q-19 0 -37 -20.5t-30 -76.5z" />
    <glyph glyph-name="afii61352" unicode="&#x2116;" horiz-adv-x="879" 
d="M603 310l12 55h253l-12 -55h-253zM767 456q26 0 43.5 15.5t22.5 38.5q2 7 5 21l6 28t5 25.5t2 14.5q0 21 -13.5 34.5t-42.5 13.5q-26 0 -43.5 -15.5t-22.5 -38.5q-2 -7 -5 -20.5t-6 -27.5t-5.5 -25.5t-2.5 -14.5q0 -21 14 -35t43 -14zM759 395q-47 0 -79.5 26.5
t-32.5 74.5q0 25 5 46.5t11 48.5q12 56 42.5 86.5t97.5 30.5q47 0 79 -26t32 -74q0 -26 -4.5 -47l-10.5 -49q-12 -55 -42.5 -86t-97.5 -31zM477 0h-77l-178 565l-120 -565h-77l149 700h77l178 -565l120 565h77z" />
    <glyph glyph-name="apple" horiz-adv-x="629" 
d="M183 26q-28 6 -38.5 24.5t-10.5 53.5v256q-27 0 -37 24q-24 10 -24 37q0 17 11 28q-17 8 -26.5 23.5t-9.5 35.5q0 19 9.5 35t26.5 24q-11 11 -11 28q0 15 9 26.5t23 13.5q6 20 23 34t40 14q24 0 44 -17q7 19 23.5 31.5t37.5 12.5q17 0 31.5 -8.5t23.5 -22.5q14 7 29 7
q19 0 35 -10t24 -27q12 12 28 12q13 0 22.5 -6.5t14.5 -17.5q22 -5 36.5 -23t14.5 -41q0 -19 -9.5 -34t-24.5 -23v-38h4q47 0 63.5 -18.5t16.5 -61.5v-215q0 -43 -16.5 -61.5t-63.5 -18.5h-4q0 -35 -10.5 -53t-38.5 -24v-26h-266v26zM449 510q-17 4 -29 17h-83
q-19 -19 -46 -19q-34 0 -53 27q-8 -3 -16 -3q-18 0 -29 11q-2 -4 -4.5 -7.5t-5.5 -7.5v-424q0 -19 7 -26.5t25 -7.5h202q18 0 25 7.5t7 26.5v406zM113 443q-10 0 -15.5 -7t-5.5 -15q0 -9 6 -15t15 -6q0 -9 6 -15t15 -6v147q19 0 32 12t15 30v4h19q0 -10 6.5 -15.5t15.5 -5.5
t15 6t6 15h19q0 -8 -2.5 -14.5t-6.5 -11.5q13 -19 38 -19q20 0 33.5 13t13.5 33h82q0 -20 13 -33t33 -13t33.5 13t13.5 33t-13.5 33.5t-33.5 13.5q0 9 -6.5 15.5t-15.5 6.5q-8 0 -14.5 -5.5t-6.5 -16.5h-19q0 20 -13.5 33.5t-33.5 13.5q-15 0 -26.5 -8.5t-16.5 -21.5
q12 -4 20 -14t8 -24h-19q0 9 -6.5 15t-15.5 6t-15 -6t-6 -15h-19q0 15 9.5 26t23.5 13q6 19 19 30q-6 11 -17 17t-23 6q-19 0 -32 -13t-14 -32q7 -16 7 -29h-19q0 20 -13.5 33.5t-33.5 13.5q-15 0 -26.5 -8t-16.5 -22q13 -4 21 -14.5t8 -24.5h-19q0 9 -6.5 15.5t-15.5 6.5
t-15 -6.5t-6 -15.5q0 -19 17 -21h4v-19h-4q-18 -2 -30 -15t-12 -32t12 -32t30 -14h4v-19zM533 398q0 19 -7 26.5t-24 7.5h-4v-283h4q17 0 24 7.5t7 26.5v215zM224 478h15v-375h-15v375zM392 478h15v-375h-15v375zM336 478h15v-375h-15v375zM280 478h15v-375h-15v375z" />
    <glyph glyph-name="estimated" unicode="&#x212e;" horiz-adv-x="814" 
d="M189 117q0 -15 12 -25q35 -29 78 -46q32 -12 67 -17t73 -5t73 5t67 17q57 23 98 64h50q-54 -65 -131 -95q-36 -14 -75.5 -19.5t-81.5 -5.5t-81.5 5.5t-75.5 19.5q-44 18 -81.5 47t-65 67.5t-43 86t-15.5 101.5t15.5 101.5t43 86t65 67.5t81.5 47q36 14 75.5 19.5
t81.5 5.5t81.5 -5.5t75.5 -19.5q44 -18 81.5 -47t65 -67.5t43 -86t15.5 -101.5v-17h-582q-10 0 -10 -10v-173zM649 517q0 15 -12 25q-35 29 -78 46q-32 12 -67 17t-73 5t-73 -5t-67 -17q-43 -17 -78 -46q-12 -10 -12 -25v-173q0 -10 10 -10h440q10 0 10 10v173z" />
    <glyph glyph-name="minus" unicode="&#x2212;" 
d="M82 248v65h404v-65h-404z" />
    <glyph glyph-name="lessequal" unicode="&#x2264;" 
d="M486 199v-70l-404 160v74l404 160v-70l-321 -127zM82 0v65h404v-65h-404z" />
    <glyph glyph-name="greaterequal" unicode="&#x2265;" 
d="M403 326l-321 127v70l404 -160v-74l-404 -160v70zM82 0v65h404v-65h-404z" />
    <glyph glyph-name="notequal" unicode="&#x2260;" 
d="M206 140l-77 -86l-47 42l39 44h-39v65h97l126 140h-223v65h281l76 85l47 -42l-39 -43h39v-65h-97l-125 -140h222v-65h-280z" />
    <glyph glyph-name="approxequal" unicode="&#x2248;" 
d="M82 164q33 37 68 51t64 14q26 0 45 -7t35.5 -16t32 -16t33.5 -7q20 0 38.5 10.5t45.5 35.5l42 -46q-33 -37 -68 -51t-64 -14q-26 0 -45 7t-35.5 16t-32 16t-33.5 7q-20 0 -38.5 -10.5t-45.5 -35.5zM82 368q33 37 68 51t64 14q26 0 45 -7t35.5 -16t32 -16t33.5 -7
q20 0 38.5 10.5t45.5 35.5l42 -46q-33 -37 -68 -51t-64 -14q-26 0 -45 7t-35.5 16t-32 16t-33.5 7q-20 0 -38.5 -10.5t-45.5 -35.5z" />
    <glyph glyph-name="partialdiff" unicode="&#x2202;" horiz-adv-x="566" 
d="M403 200q3 14 6 32t3 25q0 51 -30.5 84t-81.5 33q-136 0 -164 -147q-3 -15 -5.5 -29.5t-2.5 -27.5q0 -51 30.5 -84t81.5 -33q67 0 107 36t56 111zM469 200q-12 -60 -35 -100.5t-54.5 -64.5t-68.5 -34.5t-77 -10.5q-41 0 -72.5 14t-53.5 38.5t-33.5 57t-11.5 69.5
q0 14 2 29t5 29q13 60 36.5 100t54.5 64.5t68 35t77 10.5q43 0 78.5 -18.5t51.5 -47.5l24 128q3 16 3 31q0 51 -30.5 84t-81.5 33q-66 0 -107 -36t-55 -111h-66q11 60 34 100.5t54.5 64.5t68.5 34.5t77 10.5t72 -14t54 -38.5t33.5 -57t11.5 -69.5q0 -29 -6 -57z" />
    <glyph glyph-name="product" unicode="&#x220f;" horiz-adv-x="612" 
d="M99 700h452v-700h-77v624h-298v-624h-77v700z" />
    <glyph glyph-name="radical" unicode="&#x221a;" horiz-adv-x="502" 
d="M266 0h-64l-71 236h-68v64h116l55 -184l175 584h66z" />
    <glyph glyph-name="summation" unicode="&#x2211;" horiz-adv-x="702" 
d="M85 636v64h522v-64h-435l306 -378l-306 -378h435v-64h-522v64l306 378z" />
    <glyph glyph-name="integral" unicode="&#x222b;" horiz-adv-x="303" 
d="M203 -61q0 -33 -5.5 -56.5t-20 -38t-38 -21.5t-59.5 -7v64h6q31 0 41.5 12.5t10.5 38.5v646q0 33 5.5 56.5t20 38t38 21.5t59.5 7v-64h-6q-31 0 -41.5 -12.5t-10.5 -38.5v-646z" />
    <glyph glyph-name="infinity" unicode="&#x221e;" 
d="M72 336q0 26 9.5 49t26.5 40t40 27t49 10q30 0 55.5 -12.5t42.5 -34.5q17 22 42.5 34.5t55.5 12.5q26 0 49 -10t40 -27t27 -40t10 -49t-10 -49t-27 -40t-40 -26.5t-49 -9.5q-30 0 -55.5 12.5t-42.5 33.5q-17 -22 -42.5 -34t-55.5 -12q-26 0 -49 9.5t-40 26.5t-26.5 40
t-9.5 49zM333 336q0 -26 17 -43.5t43 -17.5t43.5 17.5t17.5 43.5t-17.5 44t-43.5 18t-43 -18t-17 -44zM137 336q0 -26 17 -43.5t43 -17.5t43.5 17.5t17.5 43.5t-17.5 44t-43.5 18t-43 -18t-17 -44z" />
    <glyph glyph-name="Delta" unicode="&#x394;" horiz-adv-x="566" 
d="M-6 0l225 700h88l225 -700h-538zM263 593l-167 -517h333z" />
    <glyph glyph-name="Delta" unicode="&#x2206;" horiz-adv-x="566" 
d="M-6 0l225 700h88l225 -700h-538zM263 593l-167 -517h333z" />
    <glyph glyph-name="Omega" unicode="&#x3a9;" horiz-adv-x="563" 
d="M483 525q0 54 -31.5 82.5t-95.5 28.5q-69 0 -114.5 -41.5t-63.5 -121.5q-19 -87 -29.5 -136t-10.5 -68q0 -85 73 -104l-35 -165h-160l16 74h85l10 48q-29 20 -47.5 56t-18.5 85q0 32 12 84t28 126q25 115 87.5 176t178.5 61q39 0 74 -10.5t61.5 -32.5t42 -56t15.5 -80
q0 -16 -4 -41t-10 -53.5t-13 -58.5t-13 -57q-18 -81 -52 -134.5t-93 -79.5l-7 -33h85l-16 -74h-161l34 163q51 12 85 52t48 106q19 88 29.5 136.5t10.5 67.5z" />
    <glyph glyph-name="Omega" unicode="&#x2126;" horiz-adv-x="563" 
d="M483 525q0 54 -31.5 82.5t-95.5 28.5q-69 0 -114.5 -41.5t-63.5 -121.5q-19 -87 -29.5 -136t-10.5 -68q0 -85 73 -104l-35 -165h-160l16 74h85l10 48q-29 20 -47.5 56t-18.5 85q0 32 12 84t28 126q25 115 87.5 176t178.5 61q39 0 74 -10.5t61.5 -32.5t42 -56t15.5 -80
q0 -16 -4 -41t-10 -53.5t-13 -58.5t-13 -57q-18 -81 -52 -134.5t-93 -79.5l-7 -33h85l-16 -74h-161l34 163q51 12 85 52t48 106q19 88 29.5 136.5t10.5 67.5z" />
    <glyph glyph-name="pi" unicode="&#x3c0;" horiz-adv-x="606" 
d="M68 445l15 71h550l-15 -71h-73l-94 -445h-75l94 445h-254l-94 -445h-75l94 445h-73z" />
    <glyph glyph-name="Euro" unicode="&#x20ac;" horiz-adv-x="582" 
d="M510 436l-24 -53h-264l-14 -65h247l-26 -53h-233q-5 -23 -7.5 -37t-4 -24t-2 -17t-0.5 -15q0 -51 31.5 -81t91.5 -30q36 0 70 14.5t61 43.5l56 -49q-40 -45 -92 -62.5t-110 -17.5q-35 0 -68 11.5t-58.5 34t-41 54.5t-15.5 73q0 8 0.5 15.5t2 18t4.5 26.5t8 42h-77l26 53
h62l14 65h-76l24 53h64l4 18t4 19q12 55 32.5 99t53 74.5t77.5 47t106 16.5q56 0 98 -22t66 -64l-63 -41q-18 29 -48 42.5t-68 13.5q-63 0 -112 -40.5t-67 -125.5l-8 -37h276z" />
    <glyph glyph-name="fi" unicode="&#xfb01;" horiz-adv-x="542" 
d="M304 629q-27 0 -40 -10.5t-18 -35.5l-14 -67h127l-16 -71h-127l-94 -445h-75l94 445h-73l16 71h73l13 61q7 33 15.5 56.5t24.5 38t42 21.5t67 7h79l-15 -71h-79zM540 603h-75l21 97h75zM412 0h-75l110 516h75z" />
    <glyph glyph-name="fl" unicode="&#xfb02;" horiz-adv-x="571" 
d="M304 629q-27 0 -40 -10.5t-18 -35.5l-14 -67h127l-16 -71h-127l-94 -445h-75l94 445h-73l16 71h73l13 61q7 33 15.5 56.5t24.5 38t42 21.5t67 7h79l-15 -71h-79zM559 700q-31 -147 -52.5 -248t-36 -167t-22 -103t-11.5 -55t-4.5 -22.5t-0.5 -6.5q0 -13 9 -20t32 -7h16
l-15 -71h-16q-50 0 -74.5 23.5t-24.5 63.5q0 9 2 22.5t6.5 39t13.5 67t22.5 106.5t33.5 157.5t47 220.5h75z" />
    <glyph glyph-name="uniFB00" unicode="&#xfb00;" horiz-adv-x="634" 
d="M304 629q-27 0 -40 -10.5t-18 -35.5l-14 -67h127l-16 -71h-127l-94 -445h-75l94 445h-73l16 71h73l13 61q7 33 15.5 56.5t24.5 38t42 21.5t67 7h79l-15 -71h-79zM621 629q-27 0 -40 -10.5t-18 -35.5l-14 -67h127l-16 -71h-127l-94 -445h-75l94 445h-73l16 71h73l13 61
q7 33 15.5 56.5t24.5 38t42 21.5t67 7h79l-15 -71h-79z" />
    <glyph glyph-name="uniFB03" unicode="&#xfb03;" horiz-adv-x="859" 
d="M304 629q-27 0 -40 -10.5t-18 -35.5l-14 -67h127l-16 -71h-127l-94 -445h-75l94 445h-73l16 71h73l13 61q7 33 15.5 56.5t24.5 38t42 21.5t67 7h79l-15 -71h-79zM621 629q-27 0 -40 -10.5t-18 -35.5l-14 -67h127l-16 -71h-127l-94 -445h-75l94 445h-73l16 71h73l13 61
q7 33 15.5 56.5t24.5 38t42 21.5t67 7h79l-15 -71h-79zM857 603h-75l21 97h75zM729 0h-75l110 516h75z" />
    <glyph glyph-name="uniFB04" unicode="&#xfb04;" horiz-adv-x="888" 
d="M304 629q-27 0 -40 -10.5t-18 -35.5l-14 -67h127l-16 -71h-127l-94 -445h-75l94 445h-73l16 71h73l13 61q7 33 15.5 56.5t24.5 38t42 21.5t67 7h79l-15 -71h-79zM621 629q-27 0 -40 -10.5t-18 -35.5l-14 -67h127l-16 -71h-127l-94 -445h-75l94 445h-73l16 71h73l13 61
q7 33 15.5 56.5t24.5 38t42 21.5t67 7h79l-15 -71h-79zM876 700q-31 -147 -52.5 -248t-36 -167t-22 -103t-11.5 -55t-4.5 -22.5t-0.5 -6.5q0 -13 9 -20t32 -7h16l-15 -71h-16q-50 0 -74.5 23.5t-24.5 63.5q0 9 2 22.5t6.5 39t13.5 67t22.5 106.5t33.5 157.5t47 220.5h75z
" />
    <glyph glyph-name="breve" unicode="&#x2d8;" horiz-adv-x="394" 
d="M244 571q-47 0 -76 29.5t-29 73.5q0 12 3 26h58q-1 -4 -1.5 -7t-0.5 -7q0 -23 17 -38.5t42 -15.5h38q26 0 49.5 19.5t29.5 48.5h64q-6 -27 -18 -50.5t-31.5 -41t-46 -27.5t-60.5 -10h-38v0z" />
    <glyph glyph-name="caron" unicode="&#x2c7;" horiz-adv-x="432" 
d="M151 700h84l54 -71l84 71h94l-152 -129h-66z" />
    <glyph glyph-name="circumflex" unicode="&#x2c6;" horiz-adv-x="432" 
d="M440 571h-84l-54 71l-84 -71h-94l152 129h66z" />
    <glyph glyph-name="dotaccent" unicode="&#x2d9;" horiz-adv-x="183" 
d="M198 587h-75l21 97h75z" />
    <glyph glyph-name="hungarumlaut" unicode="&#x2dd;" horiz-adv-x="457" 
d="M316 700l-108 -129h-62l67 129h103zM484 700l-108 -129h-62l67 129h103z" />
    <glyph glyph-name="commaaccent" horiz-adv-x="265" 
d="M19 -50h95l-21 -95l-43 -84h-64l43 84h-31z" />
    <glyph glyph-name="ogonek" unicode="&#x2db;" horiz-adv-x="242" 
d="M137 0q-11 -7 -28.5 -17t-34.5 -23.5t-29 -29t-12 -32.5q0 -12 6.5 -19t17.5 -7q14 0 29.5 5.5t26.5 11.5l-13 -60q-15 -9 -32.5 -13.5t-34.5 -4.5q-32 0 -54.5 18t-22.5 52q0 43 28.5 72.5t77.5 46.5h75v0z" />
    <glyph glyph-name="ring" unicode="&#x2da;" horiz-adv-x="245" 
d="M174 635q0 -11 8.5 -19.5t19.5 -8.5t19.5 8.5t8.5 19.5t-8.5 19.5t-19.5 8.5t-19.5 -8.5t-8.5 -19.5zM128 635q0 31 21.5 53t52.5 22t53 -22t22 -53t-22 -52.5t-53 -21.5t-52.5 21.5t-21.5 52.5z" />
    <glyph glyph-name="tilde" unicode="&#x2dc;" horiz-adv-x="440" 
d="M200 586q9 45 37 73.5t66 28.5q30 0 55 -14l30 -17q14 -9 31 -9q13 0 25 10.5t16 27.5h58q-9 -45 -37 -73.5t-66 -28.5q-30 0 -55 14l-30 17q-14 9 -31 9q-13 0 -25 -10.5t-16 -27.5h-58z" />
    <glyph glyph-name="uni032C" unicode="&#x32c;" horiz-adv-x="432" 
d="M-14 0h84l54 -71l84 71h94l-152 -129h-66z" />
    <glyph glyph-name="zero.slashed" horiz-adv-x="531" 
d="M452 188q-23 -104 -79 -151t-150 -47q-45 0 -78 15t-54 38.5t-31 52.5t-10 58q0 12 3.5 37.5t9.5 58.5t13.5 70t15 73t14 67t11.5 52q23 104 79 151t150 47q45 0 78 -15t54 -38.5t31 -53t10 -57.5q0 -12 -3.5 -37.5t-9.5 -58.5t-13.5 -70t-15 -73t-14 -67t-11.5 -52z
M377 187q3 16 9.5 45t14 63t15.5 71t14 70l-307 -254q-1 -5 -1 -9.5v-7.5q0 -48 29 -76t83 -28q49 0 89 31.5t54 94.5zM192 513q-3 -17 -9.5 -45.5t-14 -63t-15.5 -71t-15 -69.5l307 254q1 5 1.5 9.5t0.5 7.5q0 48 -29 76t-83 28q-49 0 -89.5 -31.5t-53.5 -94.5z" />
    <glyph glyph-name="one.tlf" 
d="M337 597l-159 -115l21 103l159 115h75l-134 -629h164l-15 -71h-404l15 71h165z" />
    <glyph glyph-name="two.tlf" 
d="M122 490q23 115 78.5 167.5t155.5 52.5q45 0 78 -15t54 -38.5t31 -53t10 -57.5q0 -46 -11.5 -82t-31 -65.5t-45 -55t-52.5 -50.5l-247 -222h295l-15 -71h-403l15 71l307 275q19 17 40 37.5t37.5 44.5t27.5 50.5t11 56.5q0 48 -29 76t-83 28q-55 0 -96.5 -38t-51.5 -111
h-75z" />
    <glyph glyph-name="three.tlf" 
d="M136 200q-2 -12 -3 -21t-1 -14q0 -48 29 -76t83 -28q32 0 58.5 13.5t46 35t30.5 49t11 56.5q0 21 -7 39.5t-20 32.5t-32.5 22t-43.5 8h-50l16 71h50q33 0 61 13t48.5 34t32.5 47t12 53q0 48 -29 76t-83 28q-55 0 -96 -38t-52 -111h-75q22 115 78 167.5t156 52.5
q45 0 78 -15t54 -38.5t31 -53t10 -57.5q0 -39 -10 -71t-27 -57.5t-40 -44t-50 -30.5q28 -19 44.5 -51t16.5 -70q0 -47 -14.5 -89.5t-43 -74t-71.5 -50t-101 -18.5q-45 0 -78 15t-54 38.5t-31 52.5t-10 58q0 7 1 21t4 25h71z" />
    <glyph glyph-name="four.tlf" 
d="M413 189l-40 -189h-75l40 189h-320l15 69l414 442h75l-94 -442h73l-15 -69h-73zM353 258l67 313l-293 -313h226z" />
    <glyph glyph-name="five.tlf" 
d="M410 194q8 35 9.5 55.5t1.5 28.5q0 19 -6.5 36t-20 30t-34.5 21t-50 8q-37 0 -70.5 -19.5t-53.5 -57.5h-77l86 404h368l-15 -71h-293l-50 -233q17 22 49 35t69 13q45 0 78 -15t54 -38.5t31 -53t10 -58.5q0 -5 -0.5 -11.5t-2 -16t-4.5 -25t-8 -38.5q-23 -104 -79 -151
t-150 -47q-45 0 -78 15t-54 38.5t-31 52.5t-10 58q0 7 1.5 21t3.5 25h71q-2 -12 -3 -21t-1 -14q0 -48 29 -76t83 -28q49 0 91 33.5t56 99.5z" />
    <glyph glyph-name="six.tlf" 
d="M182 386q17 22 52.5 36.5t72.5 14.5q45 0 78 -15t54 -38.5t31 -53t10 -58.5q0 -10 -2.5 -32.5t-8.5 -51.5q-23 -104 -79 -151t-150 -47q-45 0 -78 15t-54 38.5t-31 52.5t-10 58q0 12 3.5 37.5t9.5 58.5t13.5 70t15 73t14 67t11.5 52q23 104 79 151t150 47q45 0 78 -15
t54 -38.5t31 -53t10 -57.5q0 -7 -1 -19t-4 -27h-71q2 12 3 21t1 14q0 48 -29 76t-83 28q-49 0 -89 -31.5t-54 -94.5q-5 -19 -11.5 -53.5t-15.5 -73.5zM294 366q-49 0 -89 -31.5t-54 -94.5q-5 -25 -8.5 -46t-3.5 -29q0 -48 29 -76t83 -28q49 0 89 31.5t54 94.5q8 35 9.5 55.5
t1.5 28.5q0 19 -6.5 36t-20 30t-34.5 21t-50 8z" />
    <glyph glyph-name="seven.tlf" 
d="M193 0h-84l355 629h-314l15 71h398l-15 -71z" />
    <glyph glyph-name="eight.tlf" 
d="M470 218q0 -50 -13.5 -92t-41 -72t-69 -47t-96.5 -17q-48 0 -82.5 16t-57 41.5t-33 55.5t-10.5 59q0 74 29 128t89 79q-21 23 -31.5 51.5t-10.5 57.5q0 49 14.5 91.5t42.5 73.5t70 49t98 18q39 0 69.5 -14.5t51.5 -37.5t32 -52t11 -57q0 -71 -29 -125.5t-86 -82.5
q27 -26 40 -58.5t13 -64.5zM139 172q0 -47 30.5 -79t91.5 -32q27 0 51.5 10.5t43.5 29.5t30.5 46t11.5 60q0 47 -30.5 79t-91.5 32q-27 0 -51.5 -10.5t-43.5 -29.5t-30.5 -46t-11.5 -60zM460 538q0 48 -30 74.5t-75 26.5q-30 0 -56 -12t-44.5 -33t-29 -48t-10.5 -57
q0 -48 30 -74.5t75 -26.5q30 0 56 12t44.5 33t29 48t10.5 57z" />
    <glyph glyph-name="nine.tlf" 
d="M410 314q-17 -22 -52.5 -36.5t-72.5 -14.5q-45 0 -78 15t-54 38.5t-31 53t-10 58.5q0 10 2.5 32.5t8.5 51.5q23 104 79 151t150 47q45 0 78 -15t54 -38.5t31 -53t10 -57.5q0 -12 -3.5 -37.5t-9.5 -58.5t-13.5 -70t-15 -73t-14 -67t-11.5 -52q-23 -104 -79 -151t-150 -47
q-45 0 -78 15t-54 38.5t-31 52.5t-10 58q0 7 1 19t4 27h71q-2 -12 -3 -21t-1 -14q0 -48 29 -76t83 -28q49 0 89 31.5t54 94.5q5 19 11.5 53.5t15.5 73.5zM298 334q49 0 89 31.5t54 94.5q5 25 8.5 46t3.5 29q0 48 -29 76t-83 28q-49 0 -89 -31.5t-54 -94.5q-8 -35 -9.5 -55.5
t-1.5 -28.5q0 -19 6.5 -36t20 -30t34.5 -21t50 -8z" />
    <glyph glyph-name="zero.tlf" 
d="M465 188q-23 -104 -79 -151t-150 -47q-45 0 -78 15t-54 38.5t-31 52.5t-10 58q0 12 3.5 37.5t9.5 58.5t13.5 70t15 73t14 67t11.5 52q23 104 79 151t150 47q45 0 78 -15t54 -38.5t31 -53t10 -57.5q0 -12 -3.5 -37.5t-9.5 -58.5t-13.5 -70t-15 -73t-14 -67t-11.5 -52z
M205 513q-3 -17 -10 -46.5t-14.5 -65t-15.5 -73t-15 -70.5t-11 -58t-4 -35q0 -48 29 -76t83 -28q49 0 89 31.5t54 94.5q3 17 10 46.5t14.5 65t15.5 73t15 70.5t11 58t4 35q0 48 -29 76t-83 28q-49 0 -89.5 -31.5t-53.5 -94.5z" />
    <glyph glyph-name="zero.slashed.tlf" 
d="M465 188q-23 -104 -79 -151t-150 -47q-45 0 -78 15t-54 38.5t-31 52.5t-10 58q0 12 3.5 37.5t9.5 58.5t13.5 70t15 73t14 67t11.5 52q23 104 79 151t150 47q45 0 78 -15t54 -38.5t31 -53t10 -57.5q0 -12 -3.5 -37.5t-9.5 -58.5t-13.5 -70t-15 -73t-14 -67t-11.5 -52z
M390 187q3 16 9.5 45t14 63t15.5 71t14 70l-307 -254q-1 -5 -1 -9.5v-7.5q0 -48 29 -76t83 -28q49 0 89 31.5t54 94.5zM205 513q-3 -17 -9.5 -45.5t-14 -63t-15.5 -71t-15 -69.5l307 254q1 5 1.5 9.5t0.5 7.5q0 48 -29 76t-83 28q-49 0 -89.5 -31.5t-53.5 -94.5z" />
    <glyph glyph-name="one.case" horiz-adv-x="354" 
d="M259 592l-159 -115l22 108l159 115h77l-149 -700h-77z" />
    <glyph glyph-name="two.case" horiz-adv-x="517" 
d="M14 74l307 274q20 18 40.5 38.5t37 43.5t27 49t10.5 55q0 47 -28.5 74.5t-82.5 27.5q-55 0 -95.5 -38.5t-50.5 -108.5h-77q22 115 78 168t156 53q45 0 78 -14.5t54.5 -38.5t31.5 -53.5t10 -59.5q0 -44 -11 -79.5t-30 -65.5t-44.5 -55.5t-53.5 -50.5l-246 -219h294
l-16 -74h-405z" />
    <glyph glyph-name="three.case" horiz-adv-x="519" 
d="M215 -10q-45 0 -78 14.5t-54 38.5t-31.5 53.5t-10.5 59.5q0 7 1 20.5t4 23.5h73q-2 -11 -3 -20t-1 -14q0 -47 29 -74.5t83 -27.5q31 0 57.5 13t46 34t30 48t10.5 56q0 42 -27 71.5t-75 29.5h-51l16 73h51q33 0 61 12.5t48.5 33t32 46.5t11.5 53q0 47 -29 74.5t-82 27.5
q-55 0 -95.5 -37.5t-51.5 -107.5h-77q22 113 78 166t157 53q45 0 78 -14.5t54 -38.5t31.5 -53.5t10.5 -59.5q0 -38 -10 -69.5t-27 -57t-40 -44.5t-49 -31q27 -19 43.5 -50.5t16.5 -69.5q0 -45 -14 -87t-42.5 -74.5t-72 -51.5t-102.5 -19z" />
    <glyph glyph-name="four.case" horiz-adv-x="523" 
d="M324 187h-320l16 71l413 442h77l-94 -442h73l-15 -71h-73l-40 -187h-77zM339 258l66 304l-288 -304h222z" />
    <glyph glyph-name="five.case" horiz-adv-x="523" 
d="M231 -10q-45 0 -78 14.5t-54.5 38.5t-31.5 53.5t-10 59.5q0 7 1.5 20.5t3.5 23.5h73q-2 -12 -3 -20.5t-1 -13.5q0 -47 29 -74.5t82 -27.5q49 0 90 33.5t55 96.5q8 35 9.5 54.5t1.5 27.5q0 39 -26.5 67t-83.5 28q-37 0 -70 -19.5t-53 -56.5h-79l86 405h370l-15 -74h-293
l-49 -227q17 20 48.5 33t67.5 13q45 0 78 -14.5t54.5 -38.5t31.5 -54t10 -60q0 -11 -2.5 -28t-12.5 -60q-22 -103 -78 -151.5t-151 -48.5z" />
    <glyph glyph-name="six.case" horiz-adv-x="530" 
d="M229 -10q-45 0 -78 14.5t-54.5 38.5t-31.5 53.5t-10 59.5q0 18 8 64t18.5 100.5t21.5 107t18 82.5q23 103 79 151.5t151 48.5q45 0 78 -14.5t54.5 -38.5t31.5 -53.5t10 -59.5q0 -7 -1 -18.5t-4 -25.5h-73q2 12 3 20.5t1 13.5q0 47 -29 74.5t-82 27.5q-49 0 -88.5 -32
t-53.5 -92q-4 -18 -10.5 -51.5t-15.5 -71.5q17 21 52 35t71 14q45 0 78 -14.5t54.5 -38.5t31.5 -54t10 -60q0 -10 -2.5 -31.5t-8.5 -49.5q-22 -103 -78 -151.5t-151 -48.5zM240 64q49 0 88.5 32t52.5 92q8 34 9.5 53.5t1.5 27.5q0 39 -26.5 67t-83.5 28q-49 0 -88.5 -32
t-52.5 -92q-5 -25 -8.5 -45.5t-3.5 -28.5q0 -47 28.5 -74.5t82.5 -27.5z" />
    <glyph glyph-name="seven.case" horiz-adv-x="452" 
d="M416 626h-315l16 74h399l-15 -74l-354 -626h-86z" />
    <glyph glyph-name="eight.case" horiz-adv-x="515" 
d="M223 -10q-48 0 -83 16t-57.5 41t-33 56t-10.5 61q0 74 29 127t88 79q-20 23 -30.5 51.5t-10.5 58.5q0 46 14 88t42 73.5t70 50t99 18.5q40 0 71 -14t52 -37.5t32 -53t11 -59.5q0 -66 -28.5 -121t-85.5 -84q26 -26 39 -59t13 -65q0 -50 -13.5 -92t-41.5 -72t-69.5 -46.5
t-96.5 -16.5zM234 64q27 0 51.5 10t43 29t30 45.5t11.5 58.5q0 46 -30 78.5t-91 32.5q-27 0 -51.5 -10.5t-43 -29t-30 -45t-11.5 -58.5q0 -46 30.5 -78.5t90.5 -32.5zM294 388q30 0 55.5 12t43.5 32t28.5 46.5t10.5 55.5q0 48 -30 75t-75 27q-30 0 -55.5 -12t-43.5 -32
t-28.5 -46.5t-10.5 -55.5q0 -48 30 -75t75 -27z" />
    <glyph glyph-name="nine.case" horiz-adv-x="530" 
d="M339 710q45 0 78 -14.5t54.5 -38.5t31.5 -53.5t10 -59.5q0 -18 -8 -64t-18.5 -100.5t-21.5 -107t-18 -82.5q-23 -103 -79 -151.5t-151 -48.5q-45 0 -78 14.5t-54.5 38.5t-31.5 53.5t-10 59.5q0 7 1 18.5t4 25.5h73q-2 -12 -3 -20.5t-1 -13.5q0 -47 29 -74.5t82 -27.5
q49 0 88.5 32t53.5 92q4 18 10.5 51.5t15.5 71.5q-17 -21 -52 -35t-71 -14q-45 0 -78 14.5t-54.5 38.5t-31.5 54t-10 60q0 10 2.5 31.5t8.5 49.5q22 103 78 151.5t151 48.5zM328 636q-49 0 -88.5 -32t-52.5 -92q-8 -34 -9.5 -53.5t-1.5 -27.5q0 -39 26.5 -67t83.5 -28
q49 0 88.5 32t52.5 92q5 25 8.5 45.5t3.5 28.5q0 47 -28.5 74.5t-82.5 27.5z" />
    <glyph glyph-name="zero.case" horiz-adv-x="543" 
d="M199 512q-3 -16 -10 -45.5t-14.5 -65t-15.5 -73t-15 -70.5t-11 -58t-4 -34q0 -47 29 -74.5t82 -27.5q49 0 89.5 32t52.5 92q3 16 10 45.5t14.5 65t15.5 73t15 70.5t11 57.5t4 34.5q0 47 -29 74.5t-82 27.5q-49 0 -89 -32t-53 -92zM459 190q-23 -103 -79 -151.5
t-151 -48.5q-45 0 -78 14.5t-54.5 38.5t-31.5 53.5t-10 59.5q0 18 8 64t19 100.5t22 107t18 82.5q23 103 79 151.5t151 48.5q45 0 78 -14.5t54.5 -38.5t31.5 -53.5t10 -59.5q0 -18 -8 -64t-19 -100.5t-22 -107t-18 -82.5z" />
    <glyph glyph-name="zero.slashed.case" horiz-adv-x="542" 
d="M458 190q-23 -103 -79 -151.5t-151 -48.5q-45 0 -78 14.5t-54.5 38.5t-31.5 53.5t-10 59.5q0 18 8 64t19 100.5t22 107t18 82.5q23 103 79 151.5t151 48.5q45 0 78 -14.5t54.5 -38.5t31.5 -53.5t10 -59.5q0 -18 -8 -64t-19 -100.5t-22 -107t-18 -82.5zM381 188
q3 16 9.5 44t14 61.5t15.5 70t14 69.5l-305 -251q-1 -5 -1 -9.5v-6.5q0 -47 29 -74.5t82 -27.5q49 0 89.5 32t52.5 92zM198 512q-3 -16 -9.5 -44.5t-14 -62t-15.5 -70t-14 -69.5l304 252q1 5 1.5 9t0.5 7q0 47 -29 74.5t-82 27.5q-49 0 -89 -32t-53 -92z" />
    <glyph glyph-name="uni21B2" unicode="&#x21b2;" horiz-adv-x="800" 
d="M375 35l-45 -45l-285 285l285 285l45 -45l-208 -208h524v393h64v-457h-588z" />
    <glyph glyph-name="uni21B3" unicode="&#x21b3;" horiz-adv-x="800" 
d="M633 243h-588v457h64v-393h524l-208 208l45 45l285 -285l-285 -285l-45 45z" />
    <glyph glyph-name="uni21B0" unicode="&#x21b0;" horiz-adv-x="800" 
d="M375 35l-45 -45l-285 285l285 285l45 -45l-208 -208h588v-491h-64v427h-524z" />
    <glyph glyph-name="uni21B1" unicode="&#x21b1;" horiz-adv-x="800" 
d="M109 -184h-64v491h588l-208 208l45 45l285 -285l-285 -285l-45 45l208 208h-524v-427z" />
    <glyph glyph-name="uni2190" unicode="&#x2190;" horiz-adv-x="800" 
d="M375 35l-45 -45l-285 285l285 285l45 -45l-208 -208h588v-64h-588z" />
    <glyph glyph-name="uni2191" unicode="&#x2191;" horiz-adv-x="800" 
d="M160 380l-45 45l285 285l285 -285l-45 -45l-208 208v-588h-64v588z" />
    <glyph glyph-name="uni2192" unicode="&#x2192;" horiz-adv-x="800" 
d="M633 243h-588v64h588l-208 208l45 45l285 -285l-285 -285l-45 45z" />
    <glyph glyph-name="uni2193" unicode="&#x2193;" horiz-adv-x="800" 
d="M368 112v588h64v-588l208 208l45 -45l-285 -285l-285 285l45 45z" />
    <glyph glyph-name="uni2196" unicode="&#x2196;" horiz-adv-x="800" 
d="M195 169h-64v403h403v-63h-294l470 -469l-45 -45l-470 468v-294z" />
    <glyph glyph-name="uni2197" unicode="&#x2197;" horiz-adv-x="800" 
d="M605 463l-470 -468l-45 45l470 469h-294v63h403v-403h-64v294z" />
    <glyph glyph-name="uni2198" unicode="&#x2198;" horiz-adv-x="800" 
d="M605 403h64v-403h-403v63h294l-470 469l45 45l470 -468v294z" />
    <glyph glyph-name="uni2199" unicode="&#x2199;" horiz-adv-x="800" 
d="M195 109l470 468l45 -45l-470 -469h294v-63h-403v403h64v-294z" />
    <glyph glyph-name="uni25A0" unicode="&#x25a0;" horiz-adv-x="800" 
d="M142 516h516v-516h-516v516z" />
    <glyph glyph-name="uni25A1" unicode="&#x25a1;" horiz-adv-x="800" 
d="M142 516h516v-516h-516v516zM206 64h388v388h-388v-388z" />
    <glyph glyph-name="uni25CB" unicode="&#x25cb;" horiz-adv-x="800" 
d="M130 260q0 56 21 105t58 86t86 58t105 21t105 -21t86 -58t58 -86t21 -105t-21 -105t-58 -86t-86 -58t-105 -21t-105 21t-86 58t-58 86t-21 105zM194 260q0 -43 16 -80.5t44 -65.5t65.5 -44t80.5 -16t80.5 16t65.5 44t44 65.5t16 80.5t-16 80.5t-44 65.5t-65.5 44
t-80.5 16t-80.5 -16t-65.5 -44t-44 -65.5t-16 -80.5z" />
    <glyph glyph-name="uni25CF" unicode="&#x25cf;" horiz-adv-x="800" 
d="M130 260q0 56 21 105t58 86t86 58t105 21t105 -21t86 -58t58 -86t21 -105t-21 -105t-58 -86t-86 -58t-105 -21t-105 21t-86 58t-58 86t-21 105z" />
    <glyph glyph-name="onethird" unicode="&#x2153;" horiz-adv-x="746" 
d="M220 613l-92 -67l18 87l92 67h65l-86 -406h-65zM642 700l-481 -700h-71l481 700h71zM525 -6q-49 0 -80.5 28t-31.5 79v6.5t1 8.5h64q-1 -3 -1 -7.5v-5.5q0 -13 5.5 -22t14 -15t18.5 -8.5t19 -2.5q31 0 48 18.5t17 50.5q0 23 -15 36.5t-37 13.5h-35l13 57h34q35 0 56 21.5
t21 50.5q0 26 -18.5 37t-36.5 11q-27 0 -44.5 -17t-22.5 -43h-65q5 27 14.5 49t26 38t40.5 25t59 9q50 0 80.5 -28t30.5 -79q0 -15 -5 -32t-13.5 -32t-20.5 -27t-26 -19q13 -11 21 -29.5t8 -38.5q0 -17 -5 -40t-20 -43.5t-42.5 -35t-71.5 -14.5z" />
    <glyph glyph-name="uni2155" unicode="&#x2155;" horiz-adv-x="748" 
d="M220 613l-92 -67l18 87l92 67h65l-86 -406h-65zM642 700l-481 -700h-71l481 700h71zM537 -6q-49 0 -80 28t-31 79q0 5 2 15h64q-1 -5 -1.5 -8t-0.5 -5q0 -26 18.5 -37t36.5 -11q30 0 45.5 18t20.5 41q3 14 5 22.5t2 16.5q0 13 -5.5 22t-13.5 15t-17.5 8.5t-18.5 2.5
q-22 0 -36.5 -10t-20.5 -25h-67l52 240h232l-14 -61h-167l-20 -98q6 5 20 10.5t33 5.5q46 0 76.5 -28.5t30.5 -78.5q0 -11 -1 -18t-4 -21q-5 -27 -14.5 -50t-26 -39t-40.5 -25t-59 -9z" />
    <glyph glyph-name="uni2159" unicode="&#x2159;" horiz-adv-x="744" 
d="M220 613l-92 -67l18 87l92 67h65l-86 -406h-65zM642 700l-481 -700h-71l481 700h71zM529 -6q-49 0 -80 28t-31 79q0 7 4.5 32.5t10.5 55.5t12 58l9 42q5 27 14.5 50t26 39t41 25t59.5 9q49 0 79.5 -28t30.5 -79v-6t-1 -9h-64q1 5 1.5 8.5t0.5 4.5q0 13 -5.5 22t-13.5 15
t-17.5 8.5t-18.5 2.5q-30 0 -46 -18.5t-21 -41.5l-11 -51q8 7 23 12.5t34 5.5q48 0 77.5 -28t29.5 -78q0 -4 -0.5 -12.5t-3.5 -22.5q-5 -28 -14 -50.5t-25.5 -38.5t-41 -25t-59.5 -9zM537 55q30 0 45.5 18.5t21.5 41.5q3 13 4 21t1 13q0 26 -18.5 37t-36.5 11q-29 0 -45 -18
t-21 -41q-4 -14 -5 -22t-1 -13q0 -26 18.5 -37t36.5 -11z" />
    <glyph glyph-name="oneeighth" unicode="&#x215b;" horiz-adv-x="728" 
d="M220 613l-92 -67l18 87l92 67h65l-86 -406h-65zM642 700l-481 -700h-71l481 700h71zM522 -6q-54 0 -86 30t-32 79q0 42 17 70.5t47 42.5q-24 28 -24 72q0 13 4.5 34t18.5 41t40.5 34.5t70.5 14.5q51 0 84.5 -29.5t33.5 -81.5q0 -9 -2 -23t-8.5 -29.5t-18.5 -30.5t-31 -25
q24 -29 24 -70q0 -65 -38 -97t-100 -32zM531 55q27 0 46 18.5t19 45.5q0 23 -14.5 40.5t-47.5 17.5q-27 0 -46.5 -18.5t-19.5 -44.5q0 -23 15 -41t48 -18zM571 231q26 0 43.5 17.5t17.5 42.5q0 31 -18.5 45.5t-44.5 14.5t-43.5 -17.5t-17.5 -42.5q0 -31 18.5 -45.5
t44.5 -14.5z" />
    <glyph glyph-name="twothirds" unicode="&#x2154;" horiz-adv-x="805" 
d="M67 355l177 150q32 27 46.5 46.5t14.5 45.5t-18.5 37t-36.5 11t-30 -6.5t-20 -17t-12 -22.5t-6 -24h-65q8 60 40.5 95.5t101.5 35.5q49 0 79.5 -28t30.5 -79q0 -38 -18 -69.5t-57 -64.5l-130 -110h155l-13 -61h-253zM701 700l-481 -700h-71l481 700h71zM584 -6
q-49 0 -80.5 28t-31.5 79v6.5t1 8.5h64q-1 -3 -1 -7.5v-5.5q0 -13 5.5 -22t14 -15t18.5 -8.5t19 -2.5q31 0 48 18.5t17 50.5q0 23 -15 36.5t-37 13.5h-35l13 57h34q35 0 56 21.5t21 50.5q0 26 -18.5 37t-36.5 11q-27 0 -44.5 -17t-22.5 -43h-65q5 27 14.5 49t26 38t40.5 25
t59 9q50 0 80.5 -28t30.5 -79q0 -15 -5 -32t-13.5 -32t-20.5 -27t-26 -19q13 -11 21 -29.5t8 -38.5q0 -17 -5 -40t-20 -43.5t-42.5 -35t-71.5 -14.5z" />
    <glyph glyph-name="uni2156" unicode="&#x2156;" horiz-adv-x="808" 
d="M67 355l177 150q32 27 46.5 46.5t14.5 45.5t-18.5 37t-36.5 11t-30 -6.5t-20 -17t-12 -22.5t-6 -24h-65q8 60 40.5 95.5t101.5 35.5q49 0 79.5 -28t30.5 -79q0 -38 -18 -69.5t-57 -64.5l-130 -110h155l-13 -61h-253zM701 700l-481 -700h-71l481 700h71zM596 -6
q-49 0 -80 28t-31 79q0 5 2 15h64q-1 -5 -1.5 -8t-0.5 -5q0 -26 18.5 -37t36.5 -11q30 0 45.5 18t20.5 41q3 14 5 22.5t2 16.5q0 13 -5.5 22t-13.5 15t-17.5 8.5t-18.5 2.5q-22 0 -36.5 -10t-20.5 -25h-67l52 240h232l-14 -61h-167l-20 -98q6 5 20 10.5t33 5.5
q46 0 76.5 -28.5t30.5 -78.5q0 -11 -1 -18t-4 -21q-5 -27 -14.5 -50t-26 -39t-40.5 -25t-59 -9z" />
    <glyph glyph-name="uni2157" unicode="&#x2157;" horiz-adv-x="800" 
d="M189 288q-49 0 -80.5 28t-31.5 79v6.5t1 8.5h64q-1 -3 -1 -7.5v-5.5q0 -13 5.5 -22t14 -15t18.5 -8.5t19 -2.5q31 0 48 18.5t17 50.5q0 23 -15 36.5t-37 13.5h-35l13 57h34q35 0 56 21.5t21 50.5q0 26 -18.5 37t-36.5 11q-27 0 -44.5 -17t-22.5 -43h-65q5 27 14.5 49
t26 38t40.5 25t59 9q50 0 80.5 -28t30.5 -79q0 -15 -5 -32t-13.5 -32t-20.5 -27t-26 -19q13 -11 21 -29.5t8 -38.5q0 -17 -5 -40t-20 -43.5t-42.5 -35t-71.5 -14.5zM693 700l-481 -700h-71l481 700h71zM588 -6q-49 0 -80 28t-31 79q0 5 2 15h64q-1 -5 -1.5 -8t-0.5 -5
q0 -26 18.5 -37t36.5 -11q30 0 45.5 18t20.5 41q3 14 5 22.5t2 16.5q0 13 -5.5 22t-13.5 15t-17.5 8.5t-18.5 2.5q-22 0 -36.5 -10t-20.5 -25h-67l52 240h232l-14 -61h-167l-20 -98q6 5 20 10.5t33 5.5q46 0 76.5 -28.5t30.5 -78.5q0 -11 -1 -18t-4 -21q-5 -27 -14.5 -50
t-26 -39t-40.5 -25t-59 -9z" />
    <glyph glyph-name="threeeighths" unicode="&#x215c;" horiz-adv-x="779" 
d="M189 288q-49 0 -80.5 28t-31.5 79v6.5t1 8.5h64q-1 -3 -1 -7.5v-5.5q0 -13 5.5 -22t14 -15t18.5 -8.5t19 -2.5q31 0 48 18.5t17 50.5q0 23 -15 36.5t-37 13.5h-35l13 57h34q35 0 56 21.5t21 50.5q0 26 -18.5 37t-36.5 11q-27 0 -44.5 -17t-22.5 -43h-65q5 27 14.5 49
t26 38t40.5 25t59 9q50 0 80.5 -28t30.5 -79q0 -15 -5 -32t-13.5 -32t-20.5 -27t-26 -19q13 -11 21 -29.5t8 -38.5q0 -17 -5 -40t-20 -43.5t-42.5 -35t-71.5 -14.5zM693 700l-481 -700h-71l481 700h71zM573 -6q-54 0 -86 30t-32 79q0 42 17 70.5t47 42.5q-24 28 -24 72
q0 13 4.5 34t18.5 41t40.5 34.5t70.5 14.5q51 0 84.5 -29.5t33.5 -81.5q0 -9 -2 -23t-8.5 -29.5t-18.5 -30.5t-31 -25q24 -29 24 -70q0 -65 -38 -97t-100 -32zM582 55q27 0 46 18.5t19 45.5q0 23 -14.5 40.5t-47.5 17.5q-27 0 -46.5 -18.5t-19.5 -44.5q0 -23 15 -41t48 -18z
M622 231q26 0 43.5 17.5t17.5 42.5q0 31 -18.5 45.5t-44.5 14.5t-43.5 -17.5t-17.5 -42.5q0 -31 18.5 -45.5t44.5 -14.5z" />
    <glyph glyph-name="uni2158" unicode="&#x2158;" horiz-adv-x="770" 
d="M205 393h-178l12 59l231 248h65l-53 -248h43l-13 -59h-42l-21 -99h-65zM217 452l28 127l-119 -127h91zM664 700l-481 -700h-71l481 700h71zM559 -6q-49 0 -80 28t-31 79q0 5 2 15h64q-1 -5 -1.5 -8t-0.5 -5q0 -26 18.5 -37t36.5 -11q30 0 45.5 18t20.5 41q3 14 5 22.5
t2 16.5q0 13 -5.5 22t-13.5 15t-17.5 8.5t-18.5 2.5q-22 0 -36.5 -10t-20.5 -25h-67l52 240h232l-14 -61h-167l-20 -98q6 5 20 10.5t33 5.5q46 0 76.5 -28.5t30.5 -78.5q0 -11 -1 -18t-4 -21q-5 -27 -14.5 -50t-26 -39t-40.5 -25t-59 -9z" />
    <glyph glyph-name="uni215A" unicode="&#x215a;" horiz-adv-x="798" 
d="M201 288q-49 0 -80 28t-31 79q0 5 2 15h64q-1 -5 -1.5 -8t-0.5 -5q0 -26 18.5 -37t36.5 -11q30 0 45.5 18t20.5 41q3 14 5 22.5t2 16.5q0 13 -5.5 22t-13.5 15t-17.5 8.5t-18.5 2.5q-22 0 -36.5 -10t-20.5 -25h-67l52 240h232l-14 -61h-167l-20 -98q6 5 20 10.5t33 5.5
q46 0 76.5 -28.5t30.5 -78.5q0 -11 -1 -18t-4 -21q-5 -27 -14.5 -50t-26 -39t-40.5 -25t-59 -9zM695 700l-481 -700h-71l481 700h71zM583 -6q-49 0 -80 28t-31 79q0 7 4.5 32.5t10.5 55.5t12 58l9 42q5 27 14.5 50t26 39t41 25t59.5 9q49 0 79.5 -28t30.5 -79v-6t-1 -9h-64
q1 5 1.5 8.5t0.5 4.5q0 13 -5.5 22t-13.5 15t-17.5 8.5t-18.5 2.5q-30 0 -46 -18.5t-21 -41.5l-11 -51q8 7 23 12.5t34 5.5q48 0 77.5 -28t29.5 -78q0 -4 -0.5 -12.5t-3.5 -22.5q-5 -28 -14 -50.5t-25.5 -38.5t-41 -25t-59.5 -9zM591 55q30 0 45.5 18.5t21.5 41.5q3 13 4 21
t1 13q0 26 -18.5 37t-36.5 11q-29 0 -45 -18t-21 -41q-4 -14 -5 -22t-1 -13q0 -26 18.5 -37t36.5 -11z" />
    <glyph glyph-name="fiveeighths" unicode="&#x215d;" horiz-adv-x="782" 
d="M201 288q-49 0 -80 28t-31 79q0 5 2 15h64q-1 -5 -1.5 -8t-0.5 -5q0 -26 18.5 -37t36.5 -11q30 0 45.5 18t20.5 41q3 14 5 22.5t2 16.5q0 13 -5.5 22t-13.5 15t-17.5 8.5t-18.5 2.5q-22 0 -36.5 -10t-20.5 -25h-67l52 240h232l-14 -61h-167l-20 -98q6 5 20 10.5t33 5.5
q46 0 76.5 -28.5t30.5 -78.5q0 -11 -1 -18t-4 -21q-5 -27 -14.5 -50t-26 -39t-40.5 -25t-59 -9zM695 700l-481 -700h-71l481 700h71zM576 -6q-54 0 -86 30t-32 79q0 42 17 70.5t47 42.5q-24 28 -24 72q0 13 4.5 34t18.5 41t40.5 34.5t70.5 14.5q51 0 84.5 -29.5t33.5 -81.5
q0 -9 -2 -23t-8.5 -29.5t-18.5 -30.5t-31 -25q24 -29 24 -70q0 -65 -38 -97t-100 -32zM585 55q27 0 46 18.5t19 45.5q0 23 -14.5 40.5t-47.5 17.5q-27 0 -46.5 -18.5t-19.5 -44.5q0 -23 15 -41t48 -18zM625 231q26 0 43.5 17.5t17.5 42.5q0 31 -18.5 45.5t-44.5 14.5
t-43.5 -17.5t-17.5 -42.5q0 -31 18.5 -45.5t44.5 -14.5z" />
    <glyph glyph-name="seveneighths" unicode="&#x215e;" horiz-adv-x="713" 
d="M286 639h-177l13 61h250l-14 -61l-197 -345h-72zM627 700l-481 -700h-71l481 700h71zM507 -6q-54 0 -86 30t-32 79q0 42 17 70.5t47 42.5q-24 28 -24 72q0 13 4.5 34t18.5 41t40.5 34.5t70.5 14.5q51 0 84.5 -29.5t33.5 -81.5q0 -9 -2 -23t-8.5 -29.5t-18.5 -30.5
t-31 -25q24 -29 24 -70q0 -65 -38 -97t-100 -32zM516 55q27 0 46 18.5t19 45.5q0 23 -14.5 40.5t-47.5 17.5q-27 0 -46.5 -18.5t-19.5 -44.5q0 -23 15 -41t48 -18zM556 231q26 0 43.5 17.5t17.5 42.5q0 31 -18.5 45.5t-44.5 14.5t-43.5 -17.5t-17.5 -42.5q0 -31 18.5 -45.5
t44.5 -14.5z" />
    <glyph glyph-name="uni215F" unicode="&#x215f;" horiz-adv-x="398" 
d="M220 613l-92 -67l18 87l92 67h65l-86 -406h-65zM642 700l-481 -700h-71l481 700h71z" />
    <glyph glyph-name="fraction" unicode="&#x2044;" horiz-adv-x="102" 
d="M346 700l-481 -700h-71l481 700h71z" />
    <glyph glyph-name="a.superior" horiz-adv-x="325" 
d="M175 395q-47 0 -73.5 24t-26.5 63q0 37 17.5 59.5t64.5 34.5q29 8 62.5 10t71.5 3q1 3 1 6v4q0 21 -13.5 34.5t-42.5 13.5q-23 0 -38.5 -11.5t-23.5 -28.5h-66q13 48 43 74.5t93 26.5q46 0 78.5 -26t32.5 -74q0 -26 -4.5 -47l-10.5 -49l-24 -111h-65l7 35
q-10 -16 -31.5 -28.5t-51.5 -12.5zM183 456q12 0 26.5 2.5t28 9.5t24 20.5t15.5 34.5l2 9q-38 -2 -62 -3.5t-44 -6.5q-15 -4 -25 -11.5t-10 -21.5q0 -18 13 -25.5t32 -7.5z" />
    <glyph glyph-name="b.superior" horiz-adv-x="329" 
d="M216 456q26 0 43.5 15.5t23.5 38.5q1 7 4 21l6 28t5.5 25.5t2.5 14.5q0 21 -14 34.5t-43 13.5q-26 0 -43.5 -15.5t-22.5 -38.5q-2 -7 -5 -20.5t-6 -27.5t-5 -25.5t-2 -14.5q0 -21 13.5 -35t42.5 -14zM221 395q-35 0 -52.5 15t-23.5 30l-8 -39h-65l87 406h65l-29 -135
q9 16 28.5 26t42.5 10q17 0 34.5 -6.5t31.5 -19.5t23 -31.5t9 -42.5q0 -26 -5 -47t-11 -49q-12 -55 -44 -86t-83 -31z" />
    <glyph glyph-name="c.superior" horiz-adv-x="315" 
d="M201 395q-47 0 -79.5 26.5t-32.5 74.5q0 25 5 46.5t11 48.5q12 56 42.5 86.5t97.5 30.5q47 0 79 -26t32 -74v-9h-63v4q0 17 -13.5 30.5t-42.5 13.5q-26 0 -43.5 -15.5t-22.5 -38.5q-2 -7 -5 -20.5t-6 -27.5t-5.5 -25.5t-2.5 -14.5q0 -21 14 -35t43 -14q24 0 40.5 14
t23.5 34h66q-13 -52 -43 -80.5t-95 -28.5z" />
    <glyph glyph-name="d.superior" horiz-adv-x="329" 
d="M209 456q26 0 43.5 15.5t22.5 38.5q2 7 5 21l6 28t5 25.5t2 14.5q0 21 -13.5 34.5t-42.5 13.5q-26 0 -43.5 -15.5t-22.5 -38.5q-2 -7 -5 -20.5t-6 -27.5t-5.5 -25.5t-2.5 -14.5q0 -21 14 -35t43 -14zM187 395q-17 0 -34.5 7t-31.5 19.5t-23 31.5t-9 43q0 25 5 46.5
t11 48.5q12 56 44 86.5t83 30.5q35 0 52.5 -14.5t23.5 -30.5l30 144h65l-87 -406h-65l7 30q-9 -15 -28.5 -25.5t-42.5 -10.5z" />
    <glyph glyph-name="e.superior" horiz-adv-x="321" 
d="M201 395q-47 0 -79.5 26.5t-32.5 74.5q0 25 5 46.5t11 48.5q12 56 42.5 86.5t97.5 30.5q47 0 79 -26t32 -74q0 -21 -3.5 -39.5t-8.5 -39.5h-188q-2 -9 -3 -15.5t-1 -8.5q0 -21 14 -35t43 -14q22 0 38 11.5t24 28.5h66q-7 -24 -17.5 -43t-26.5 -31.5t-38.5 -19.5t-53.5 -7
zM291 585q2 5 2 8.5v5.5q0 21 -13.5 34.5t-42.5 13.5q-31 0 -48 -19.5t-21 -42.5h123z" />
    <glyph glyph-name="f.superior" horiz-adv-x="203" 
d="M138 640h-42l13 60h42l7 33q8 35 28.5 54.5t62.5 19.5h63l-13 -61h-46q-18 0 -24 -7t-10 -24l-3 -15h74l-13 -60h-74l-51 -239h-65z" />
    <glyph glyph-name="g.superior" horiz-adv-x="327" 
d="M175 288q-46 0 -78.5 26.5t-32.5 74.5v7h63q0 -19 13.5 -32.5t42.5 -13.5q26 0 44.5 15.5t23.5 38.5l11 46q-9 -15 -29 -25.5t-43 -10.5q-17 0 -34 6.5t-31 19.5t-23 31.5t-9 42.5q0 12 0.5 20.5t1.5 16.5t3 17t5 23q13 56 44.5 86.5t82.5 30.5q35 0 52.5 -14.5
t23.5 -30.5l8 37h65l-63 -294q-12 -56 -43 -87t-98 -31zM212 475q26 0 43.5 15.5t22.5 38.5q2 7 4.5 18t4.5 21.5t3.5 19t1.5 11.5q0 21 -13.5 34.5t-42.5 13.5q-26 0 -43.5 -15.5t-23.5 -38.5q-2 -7 -4.5 -17.5t-4.5 -21t-3.5 -19t-1.5 -11.5q0 -22 14 -35.5t43 -13.5z" />
    <glyph glyph-name="h.superior" horiz-adv-x="334" 
d="M159 807h65l-29 -135q8 14 26.5 25t41.5 11q41 0 71 -26.5t30 -73.5q0 -26 -4.5 -47l-10.5 -49l-24 -111h-65l23 109q1 7 4.5 21t6.5 28t5.5 25.5t2.5 14.5q0 21 -14 34.5t-43 13.5q-26 0 -43.5 -15.5t-22.5 -38.5l-42 -192h-65z" />
    <glyph glyph-name="i.superior" horiz-adv-x="149" 
d="M136 700h65l-64 -299h-65zM159 807h65l-14 -63h-65z" />
    <glyph glyph-name="j.superior" horiz-adv-x="149" 
d="M27 356h8q18 0 24 6.5t10 23.5l67 314h65l-71 -332q-8 -35 -28.5 -54.5t-62.5 -19.5h-26zM159 807h65l-14 -63h-65z" />
    <glyph glyph-name="k.superior" horiz-adv-x="314" 
d="M178 592l122 108h87l-133 -117l86 -182h-70l-65 139l-47 -42l-21 -97h-65l87 406h65z" />
    <glyph glyph-name="l.superior" horiz-adv-x="166" 
d="M165 401q-21 0 -35.5 6t-23.5 16t-13 21t-4 22q0 10 2.5 25.5t9.5 50.5t20.5 97.5t36.5 167.5h65q-17 -77 -28.5 -130.5t-19 -89.5t-12 -56.5t-6.5 -31t-2.5 -14t-0.5 -4.5q0 -19 24 -19h9l-14 -61h-8z" />
    <glyph glyph-name="m.superior" horiz-adv-x="512" 
d="M136 700h65l-6 -28q8 14 28 25t40 11q23 0 42.5 -10t30.5 -27q9 10 21 17t25.5 11.5t26 6.5t22.5 2q51 0 81 -26.5t30 -73.5q0 -26 -4.5 -47l-10.5 -49l-24 -111h-65l23 109q1 7 4 21l6 28t5.5 25.5t2.5 14.5q0 20 -13.5 34t-38.5 14t-43 -15.5t-23 -38.5l-41 -192h-65
l23 109q1 7 4 21l6 28t5.5 25.5t2.5 14.5q0 20 -13.5 34t-38.5 14t-42.5 -15.5t-22.5 -38.5l-42 -192h-65z" />
    <glyph glyph-name="n.superior" unicode="&#x207f;" horiz-adv-x="334" 
d="M136 700h65l-6 -28q8 14 26.5 25t41.5 11q41 0 71 -26.5t30 -73.5q0 -26 -4.5 -47l-10.5 -49l-24 -111h-65l23 109q1 7 4.5 21t6.5 28t5.5 25.5t2.5 14.5q0 21 -14 34.5t-43 13.5q-26 0 -43.5 -15.5t-22.5 -38.5l-42 -192h-65z" />
    <glyph glyph-name="o.superior" horiz-adv-x="322" 
d="M209 456q26 0 43.5 15.5t22.5 38.5q2 7 5 21l6 28t5 25.5t2 14.5q0 21 -13.5 34.5t-42.5 13.5q-26 0 -43.5 -15.5t-22.5 -38.5q-2 -7 -5 -20.5t-6 -27.5t-5.5 -25.5t-2.5 -14.5q0 -21 14 -35t43 -14zM201 395q-47 0 -79.5 26.5t-32.5 74.5q0 25 5 46.5t11 48.5
q12 56 42.5 86.5t97.5 30.5q47 0 79 -26t32 -74q0 -26 -4.5 -47l-10.5 -49q-12 -55 -42.5 -86t-97.5 -31z" />
    <glyph glyph-name="p.superior" horiz-adv-x="329" 
d="M216 456q26 0 43.5 15.5t23.5 38.5q1 7 4 21l6 28t5.5 25.5t2.5 14.5q0 21 -14 34.5t-43 13.5q-26 0 -43.5 -15.5t-22.5 -38.5q-2 -7 -5 -20.5t-6 -27.5t-5 -25.5t-2 -14.5q0 -21 13.5 -35t42.5 -14zM136 700h65l-6 -28q9 16 28.5 26t42.5 10q17 0 34.5 -6.5t31.5 -19.5
t23 -31.5t9 -42.5q0 -26 -5 -47t-11 -49q-12 -55 -44 -86t-83 -31q-35 0 -52.5 15t-23.5 30l-30 -146h-65z" />
    <glyph glyph-name="q.superior" horiz-adv-x="329" 
d="M209 456q26 0 43.5 15.5t22.5 38.5q2 7 5 21l6 28t5 25.5t2 14.5q0 21 -13.5 34.5t-42.5 13.5q-26 0 -43.5 -15.5t-22.5 -38.5q-2 -7 -5 -20.5t-6 -27.5t-5.5 -25.5t-2.5 -14.5q0 -21 14 -35t43 -14zM258 431q-9 -15 -28.5 -25.5t-42.5 -10.5q-17 0 -34.5 7t-31.5 19.5
t-23 31.5t-9 43q0 25 5 46.5t11 48.5q12 56 44 86.5t83 30.5q35 0 52.5 -14.5t23.5 -30.5l7 37h65l-87 -406h-65z" />
    <glyph glyph-name="r.superior" horiz-adv-x="209" 
d="M72 401l64 299h65l-7 -31q8 14 26.5 25.5t41.5 11.5h33l-14 -64h-37q-26 0 -43.5 -14.5t-22.5 -37.5l-41 -189h-65z" />
    <glyph glyph-name="s.superior" horiz-adv-x="287" 
d="M195 395q-54 0 -88.5 25t-34.5 67v10h63v-4q0 -17 20.5 -27t43.5 -10q20 0 36.5 7.5t16.5 21.5q0 12 -7.5 18t-21.5 11l-63 19q-23 8 -40.5 26t-17.5 52q0 49 31.5 73t86.5 24q53 0 81.5 -26.5t28.5 -63.5v-5h-64v4q0 14 -16 22t-36 8q-21 0 -34.5 -7.5t-13.5 -20.5
t6 -18.5t17 -8.5l63 -20q30 -10 47 -29t17 -46q0 -53 -34.5 -77.5t-86.5 -24.5z" />
    <glyph glyph-name="t.superior" horiz-adv-x="217" 
d="M180 401q-20 0 -34.5 6t-23.5 16t-13 21t-4 22q0 8 1 18t4.5 29t9.5 49t17 78h-42l13 60h42l15 68h65l-15 -68h74l-13 -60h-74q-12 -54 -18.5 -85.5t-9.5 -47t-3.5 -20.5t-0.5 -6q0 -19 24 -19h44l-13 -61h-45z" />
    <glyph glyph-name="u.superior" horiz-adv-x="331" 
d="M189 395q-17 0 -34 7t-30.5 19.5t-22 31.5t-8.5 43q0 25 5 46.5t11 48.5l23 109h65l-23 -107q-2 -7 -5 -20.5l-6 -27t-5 -25t-2 -15.5q0 -22 14.5 -35.5t37.5 -13.5q28 0 45.5 15.5t22.5 38.5l41 190h65l-64 -299h-65l7 30q-6 -13 -26.5 -24.5t-45.5 -11.5z" />
    <glyph glyph-name="v.superior" horiz-adv-x="283" 
d="M96 700h63l28 -207l116 207h72l-171 -299h-63z" />
    <glyph glyph-name="w.superior" horiz-adv-x="406" 
d="M100 700h64l6 -201l91 201h68l6 -198l88 198h70l-142 -299h-64l-7 214l-96 -214h-68z" />
    <glyph glyph-name="x.superior" horiz-adv-x="294" 
d="M173 555l-66 145h66l41 -94l83 94h80l-132 -149l68 -150h-67l-42 98l-84 -98h-80z" />
    <glyph glyph-name="y.superior" horiz-adv-x="283" 
d="M69 356h10q22 0 29.5 10.5t19.5 32.5l10 17l-42 284h65l27 -201l114 201h73l-207 -361q-11 -20 -30 -32.5t-48 -12.5h-35z" />
    <glyph glyph-name="z.superior" horiz-adv-x="265" 
d="M152 461h135l-13 -60h-222l13 60l168 179h-128l13 60h215l-13 -60z" />
    <glyph glyph-name="four.superior" unicode="&#x2074;" horiz-adv-x="308" 
d="M237 500h-178l12 59l231 248h65l-53 -248h43l-13 -59h-42l-21 -99h-65zM249 559l28 127l-119 -127h91z" />
    <glyph glyph-name="five.superior" unicode="&#x2075;" horiz-adv-x="313" 
d="M203 395q-49 0 -80 28t-31 79q0 5 2 15h64q-1 -5 -1.5 -8t-0.5 -5q0 -26 18.5 -37t36.5 -11q30 0 45.5 18t20.5 41q3 14 5 22.5t2 16.5q0 13 -5.5 22t-13.5 15t-17.5 8.5t-18.5 2.5q-22 0 -36.5 -10t-20.5 -25h-67l52 240h232l-14 -61h-167l-20 -98q6 5 20 10.5t33 5.5
q46 0 76.5 -28.5t30.5 -78.5q0 -11 -1 -18t-4 -21q-5 -27 -14.5 -50t-26 -39t-40.5 -25t-59 -9z" />
    <glyph glyph-name="six.superior" unicode="&#x2076;" horiz-adv-x="316" 
d="M201 395q-49 0 -80 28t-31 79q0 7 4.5 32.5t10.5 55.5t12 58l9 42q5 27 14.5 50t26 39t41 25t59.5 9q49 0 79.5 -28t30.5 -79v-6t-1 -9h-64q1 5 1.5 8.5t0.5 4.5q0 13 -5.5 22t-13.5 15t-17.5 8.5t-18.5 2.5q-30 0 -46 -18.5t-21 -41.5l-11 -51q8 7 23 12.5t34 5.5
q48 0 77.5 -28t29.5 -78q0 -4 -0.5 -12.5t-3.5 -22.5q-5 -28 -14 -50.5t-25.5 -38.5t-41 -25t-59.5 -9zM209 456q30 0 45.5 18.5t21.5 41.5q3 13 4 21t1 13q0 26 -18.5 37t-36.5 11q-29 0 -45 -18t-21 -41q-4 -14 -5 -22t-1 -13q0 -26 18.5 -37t36.5 -11z" />
    <glyph glyph-name="seven.superior" unicode="&#x2077;" horiz-adv-x="271" 
d="M288 746h-177l13 61h250l-14 -61l-197 -345h-72z" />
    <glyph glyph-name="eight.superior" unicode="&#x2078;" horiz-adv-x="319" 
d="M203 395q-54 0 -86 30t-32 79q0 42 17 70.5t47 42.5q-24 28 -24 72q0 13 4.5 34t18.5 41t40.5 34.5t70.5 14.5q51 0 84.5 -29.5t33.5 -81.5q0 -9 -2 -23t-8.5 -29.5t-18.5 -30.5t-31 -25q24 -29 24 -70q0 -65 -38 -97t-100 -32zM212 456q27 0 46 18.5t19 45.5
q0 23 -14.5 40.5t-47.5 17.5q-27 0 -46.5 -18.5t-19.5 -44.5q0 -23 15 -41t48 -18zM252 632q26 0 43.5 17.5t17.5 42.5q0 31 -18.5 45.5t-44.5 14.5t-43.5 -17.5t-17.5 -42.5q0 -31 18.5 -45.5t44.5 -14.5z" />
    <glyph glyph-name="nine.superior" unicode="&#x2079;" horiz-adv-x="316" 
d="M195 395q-49 0 -79.5 28t-30.5 79v6t1 9h64q-1 -5 -1 -8.5v-4.5q0 -26 18.5 -37t36.5 -11q30 0 45.5 18.5t20.5 41.5q2 6 5 19.5l7 31.5q-9 -7 -23.5 -12.5t-34.5 -5.5q-47 0 -77 28t-30 78q0 4 1 12.5t3 22.5q4 28 13.5 50.5t26 38.5t41.5 25t60 9q49 0 79.5 -28
t30.5 -79q0 -8 -4.5 -33t-10.5 -55t-12 -58.5t-9 -41.5q-5 -27 -14.5 -50t-26 -39t-41 -25t-59.5 -9zM236 610q30 0 45.5 18t20.5 41q4 14 5 22t1 13q0 26 -18.5 37t-36.5 11q-30 0 -45.5 -18.5t-20.5 -41.5q-4 -13 -5 -21t-1 -13q0 -13 5.5 -22t13.5 -15t17.5 -8.5
t18.5 -2.5z" />
    <glyph glyph-name="zero.superior" unicode="&#x2070;" horiz-adv-x="322" 
d="M209 456q30 0 46 18.5t21 41.5q3 10 9 39.5t12.5 61t11.5 57.5t5 30q0 13 -5.5 22t-13.5 15t-17.5 8.5t-18.5 2.5q-30 0 -45.5 -18.5t-21.5 -41.5q-3 -11 -9 -40t-12.5 -60.5t-11.5 -57.5t-5 -30q0 -26 18.5 -37t36.5 -11zM201 395q-49 0 -80 28t-31 79q0 7 4.5 32.5
t10.5 55.5t12 58l9 42q5 27 14.5 50t26 39t41 25t59.5 9q49 0 79.5 -28t30.5 -79q0 -8 -4.5 -33t-10.5 -55t-12 -58.5t-9 -41.5q-5 -27 -14.5 -50t-26 -39t-40.5 -25t-59 -9z" />
    <glyph glyph-name="zero.slashed.superior" horiz-adv-x="322" 
d="M201 395q-49 0 -80 28t-31 79q0 7 4.5 32.5t10.5 55.5t12 58l9 42q5 27 14.5 50t26 39t41 25t59.5 9q49 0 79.5 -28t30.5 -79q0 -8 -4.5 -33t-10.5 -55t-12 -58.5t-9 -41.5q-5 -27 -14.5 -50t-26 -39t-40.5 -25t-59 -9zM209 456q30 0 46 18.5t21 41.5q1 6 4 18.5
t6.5 28.5t7 34.5t7.5 35.5l-146 -120q-1 -3 -1 -5.5v-3.5q0 -26 18.5 -37t36.5 -11zM192 692q-2 -6 -4.5 -18.5t-6 -28.5t-7.5 -34t-7 -36l146 120q0 3 0.5 5.5t0.5 3.5q0 13 -5.5 22t-13.5 15t-17.5 8.5t-18.5 2.5q-30 0 -45.5 -18.5t-21.5 -41.5z" />
    <glyph glyph-name="period.superior" horiz-adv-x="178" 
d="M96 483h81l-17 -82h-82z" />
    <glyph glyph-name="hyphen.superior" horiz-adv-x="229" 
d="M102 592h168l-12 -56h-168z" />
    <glyph glyph-name="comma.superior" horiz-adv-x="178" 
d="M96 483h81l-17 -82l-36 -62h-48l36 62h-34z" />
    <glyph glyph-name="equal.superior" unicode="&#x207c;" horiz-adv-x="330" 
d="M103 523h253v-56h-253v56zM103 654h253v-56h-253v56z" />
    <glyph glyph-name="plus.superior" unicode="&#x207a;" horiz-adv-x="330" 
d="M103 592h99v98h56v-98h98v-56h-98v-99h-56v99h-99v56z" />
    <glyph glyph-name="minus.superior" unicode="&#x207b;" horiz-adv-x="330" 
d="M103 592h253v-56h-253v56z" />
    <glyph glyph-name="parenleft.superior" unicode="&#x207d;" horiz-adv-x="179" 
d="M160 313q-27 0 -51 17t-24 54q0 6 2 19.5t9 50t21.5 103t38.5 178.5q8 34 26.5 53t60.5 19h31l-13 -57h-14q-17 0 -24 -7.5t-11 -24.5q-21 -101 -34.5 -163.5t-21 -97.5t-10 -48.5t-2.5 -16.5q0 -21 21 -21h17l-13 -58h-9z" />
    <glyph glyph-name="parenright.superior" unicode="&#x207e;" horiz-adv-x="179" 
d="M33 313l13 58h14q17 0 24 7t11 24q21 102 34.5 164.5t21 97.5t10 48.5t2.5 16.5q0 9 -5.5 15t-15.5 6h-17l13 57h9q27 0 50.5 -16.5t23.5 -53.5q0 -6 -2 -19.5t-9 -50t-21 -103.5t-38 -179q-8 -33 -26.5 -52.5t-60.5 -19.5h-31z" />
    <glyph glyph-name="a.inferior" horiz-adv-x="325" 
d="M70 -102q-47 0 -73.5 24t-26.5 63q0 37 17.5 59.5t64.5 34.5q29 8 62.5 10t71.5 3q1 3 1 6v4q0 21 -13.5 34.5t-42.5 13.5q-23 0 -38.5 -11.5t-23.5 -28.5h-66q13 48 43 74.5t93 26.5q46 0 78.5 -26t32.5 -74q0 -26 -4.5 -47l-10.5 -49l-24 -111h-65l7 35
q-10 -16 -31.5 -28.5t-51.5 -12.5zM78 -41q12 0 26.5 2.5t28 9.5t24 20.5t15.5 34.5l2 9q-38 -2 -62 -3.5t-44 -6.5q-15 -4 -25 -11.5t-10 -21.5q0 -18 13 -25.5t32 -7.5z" />
    <glyph glyph-name="b.inferior" horiz-adv-x="329" 
d="M111 -41q26 0 43.5 15.5t23.5 38.5q1 7 4 21l6 28t5.5 25.5t2.5 14.5q0 21 -14 34.5t-43 13.5q-26 0 -43.5 -15.5t-22.5 -38.5q-2 -7 -5 -20.5t-6 -27.5t-5 -25.5t-2 -14.5q0 -21 13.5 -35t42.5 -14zM116 -102q-35 0 -52.5 15t-23.5 30l-8 -39h-65l87 406h65l-29 -135
q9 16 28.5 26t42.5 10q17 0 34.5 -6.5t31.5 -19.5t23 -31.5t9 -42.5q0 -26 -5 -47t-11 -49q-12 -55 -44 -86t-83 -31z" />
    <glyph glyph-name="c.inferior" horiz-adv-x="315" 
d="M96 -102q-47 0 -79.5 26.5t-32.5 74.5q0 25 5 46.5t11 48.5q12 56 42.5 86.5t97.5 30.5q47 0 79 -26t32 -74v-9h-63v4q0 17 -13.5 30.5t-42.5 13.5q-26 0 -43.5 -15.5t-22.5 -38.5q-2 -7 -5 -20.5t-6 -27.5t-5.5 -25.5t-2.5 -14.5q0 -21 14 -35t43 -14q24 0 40.5 14
t23.5 34h66q-13 -52 -43 -80.5t-95 -28.5z" />
    <glyph glyph-name="d.inferior" horiz-adv-x="329" 
d="M104 -41q26 0 43.5 15.5t22.5 38.5q2 7 5 21l6 28t5 25.5t2 14.5q0 21 -13.5 34.5t-42.5 13.5q-26 0 -43.5 -15.5t-22.5 -38.5q-2 -7 -5 -20.5t-6 -27.5t-5.5 -25.5t-2.5 -14.5q0 -21 14 -35t43 -14zM82 -102q-17 0 -34.5 7t-31.5 19.5t-23 31.5t-9 43q0 25 5 46.5
t11 48.5q12 56 44 86.5t83 30.5q35 0 52.5 -14.5t23.5 -30.5l30 144h65l-87 -406h-65l7 30q-9 -15 -28.5 -25.5t-42.5 -10.5z" />
    <glyph glyph-name="e.inferior" horiz-adv-x="321" 
d="M96 -102q-47 0 -79.5 26.5t-32.5 74.5q0 25 5 46.5t11 48.5q12 56 42.5 86.5t97.5 30.5q47 0 79 -26t32 -74q0 -21 -3.5 -39.5t-8.5 -39.5h-188q-2 -9 -3 -15.5t-1 -8.5q0 -21 14 -35t43 -14q22 0 38 11.5t24 28.5h66q-7 -24 -17.5 -43t-26.5 -31.5t-38.5 -19.5t-53.5 -7
zM186 88q2 5 2 8.5v5.5q0 21 -13.5 34.5t-42.5 13.5q-31 0 -48 -19.5t-21 -42.5h123z" />
    <glyph glyph-name="f.inferior" horiz-adv-x="203" 
d="M33 143h-42l13 60h42l7 33q8 35 28.5 54.5t62.5 19.5h63l-13 -61h-46q-18 0 -24 -7t-10 -24l-3 -15h74l-13 -60h-74l-51 -239h-65z" />
    <glyph glyph-name="g.inferior" horiz-adv-x="327" 
d="M70 -209q-46 0 -78.5 26.5t-32.5 74.5v7h63q0 -19 13.5 -32.5t42.5 -13.5q26 0 44.5 15.5t23.5 38.5l11 46q-9 -15 -29 -25.5t-43 -10.5q-17 0 -34 6.5t-31 19.5t-23 31.5t-9 42.5q0 12 0.5 20.5t1.5 16.5t3 17t5 23q13 56 44.5 86.5t82.5 30.5q35 0 52.5 -14.5
t23.5 -30.5l8 37h65l-63 -294q-12 -56 -43 -87t-98 -31zM107 -22q26 0 43.5 15.5t22.5 38.5q2 7 4.5 18t4.5 21.5t3.5 19t1.5 11.5q0 21 -13.5 34.5t-42.5 13.5q-26 0 -43.5 -15.5t-23.5 -38.5q-2 -7 -4.5 -17.5t-4.5 -21t-3.5 -19t-1.5 -11.5q0 -22 14 -35.5t43 -13.5z" />
    <glyph glyph-name="h.inferior" horiz-adv-x="334" 
d="M54 310h65l-29 -135q8 14 26.5 25t41.5 11q41 0 71 -26.5t30 -73.5q0 -26 -4.5 -47l-10.5 -49l-24 -111h-65l23 109q1 7 4.5 21t6.5 28t5.5 25.5t2.5 14.5q0 21 -14 34.5t-43 13.5q-26 0 -43.5 -15.5t-22.5 -38.5l-42 -192h-65z" />
    <glyph glyph-name="i.inferior" horiz-adv-x="149" 
d="M31 203h65l-64 -299h-65zM54 310h65l-14 -63h-65z" />
    <glyph glyph-name="j.inferior" horiz-adv-x="149" 
d="M-78 -141h8q18 0 24 6.5t10 23.5l67 314h65l-71 -332q-8 -35 -28.5 -54.5t-62.5 -19.5h-26zM54 310h65l-14 -63h-65z" />
    <glyph glyph-name="k.inferior" horiz-adv-x="314" 
d="M73 95l122 108h87l-133 -117l86 -182h-70l-65 139l-47 -42l-21 -97h-65l87 406h65z" />
    <glyph glyph-name="l.inferior" horiz-adv-x="166" 
d="M60 -96q-21 0 -35.5 6t-23.5 16t-13 21t-4 22q0 10 2.5 25.5t9.5 50.5t20.5 97.5t36.5 167.5h65q-17 -77 -28.5 -130.5t-19 -89.5t-12 -56.5t-6.5 -31t-2.5 -14t-0.5 -4.5q0 -19 24 -19h9l-14 -61h-8z" />
    <glyph glyph-name="m.inferior" horiz-adv-x="512" 
d="M31 203h65l-6 -28q8 14 28 25t40 11q23 0 42.5 -10t30.5 -27q9 10 21 17t25.5 11.5t26 6.5t22.5 2q51 0 81 -26.5t30 -73.5q0 -26 -4.5 -47l-10.5 -49l-24 -111h-65l23 109q1 7 4 21l6 28t5.5 25.5t2.5 14.5q0 20 -13.5 34t-38.5 14t-43 -15.5t-23 -38.5l-41 -192h-65
l23 109q1 7 4 21l6 28t5.5 25.5t2.5 14.5q0 20 -13.5 34t-38.5 14t-42.5 -15.5t-22.5 -38.5l-42 -192h-65z" />
    <glyph glyph-name="n.inferior" horiz-adv-x="334" 
d="M31 203h65l-6 -28q8 14 26.5 25t41.5 11q41 0 71 -26.5t30 -73.5q0 -26 -4.5 -47l-10.5 -49l-24 -111h-65l23 109q1 7 4.5 21t6.5 28t5.5 25.5t2.5 14.5q0 21 -14 34.5t-43 13.5q-26 0 -43.5 -15.5t-22.5 -38.5l-42 -192h-65z" />
    <glyph glyph-name="o.inferior" horiz-adv-x="322" 
d="M104 -41q26 0 43.5 15.5t22.5 38.5q2 7 5 21l6 28t5 25.5t2 14.5q0 21 -13.5 34.5t-42.5 13.5q-26 0 -43.5 -15.5t-22.5 -38.5q-2 -7 -5 -20.5t-6 -27.5t-5.5 -25.5t-2.5 -14.5q0 -21 14 -35t43 -14zM96 -102q-47 0 -79.5 26.5t-32.5 74.5q0 25 5 46.5t11 48.5
q12 56 42.5 86.5t97.5 30.5q47 0 79 -26t32 -74q0 -26 -4.5 -47l-10.5 -49q-12 -55 -42.5 -86t-97.5 -31z" />
    <glyph glyph-name="p.inferior" horiz-adv-x="329" 
d="M111 -41q26 0 43.5 15.5t23.5 38.5q1 7 4 21l6 28t5.5 25.5t2.5 14.5q0 21 -14 34.5t-43 13.5q-26 0 -43.5 -15.5t-22.5 -38.5q-2 -7 -5 -20.5t-6 -27.5t-5 -25.5t-2 -14.5q0 -21 13.5 -35t42.5 -14zM31 203h65l-6 -28q9 16 28.5 26t42.5 10q17 0 34.5 -6.5t31.5 -19.5
t23 -31.5t9 -42.5q0 -26 -5 -47t-11 -49q-12 -55 -44 -86t-83 -31q-35 0 -52.5 15t-23.5 30l-30 -146h-65z" />
    <glyph glyph-name="q.inferior" horiz-adv-x="329" 
d="M104 -41q26 0 43.5 15.5t22.5 38.5q2 7 5 21l6 28t5 25.5t2 14.5q0 21 -13.5 34.5t-42.5 13.5q-26 0 -43.5 -15.5t-22.5 -38.5q-2 -7 -5 -20.5t-6 -27.5t-5.5 -25.5t-2.5 -14.5q0 -21 14 -35t43 -14zM153 -66q-9 -15 -28.5 -25.5t-42.5 -10.5q-17 0 -34.5 7t-31.5 19.5
t-23 31.5t-9 43q0 25 5 46.5t11 48.5q12 56 44 86.5t83 30.5q35 0 52.5 -14.5t23.5 -30.5l7 37h65l-87 -406h-65z" />
    <glyph glyph-name="r.inferior" horiz-adv-x="209" 
d="M-33 -96l64 299h65l-7 -31q8 14 26.5 25.5t41.5 11.5h33l-14 -64h-37q-26 0 -43.5 -14.5t-22.5 -37.5l-41 -189h-65z" />
    <glyph glyph-name="s.inferior" horiz-adv-x="287" 
d="M90 -102q-54 0 -88.5 25t-34.5 67v10h63v-4q0 -17 20.5 -27t43.5 -10q20 0 36.5 7.5t16.5 21.5q0 12 -7.5 18t-21.5 11l-63 19q-23 8 -40.5 26t-17.5 52q0 49 31.5 73t86.5 24q53 0 81.5 -26.5t28.5 -63.5v-5h-64v4q0 14 -16 22t-36 8q-21 0 -34.5 -7.5t-13.5 -20.5
t6 -18.5t17 -8.5l63 -20q30 -10 47 -29t17 -46q0 -53 -34.5 -77.5t-86.5 -24.5z" />
    <glyph glyph-name="t.inferior" horiz-adv-x="217" 
d="M75 -96q-20 0 -34.5 6t-23.5 16t-13 21t-4 22q0 8 1 18t4.5 29t9.5 49t17 78h-42l13 60h42l15 68h65l-15 -68h74l-13 -60h-74q-12 -54 -18.5 -85.5t-9.5 -47t-3.5 -20.5t-0.5 -6q0 -19 24 -19h44l-13 -61h-45z" />
    <glyph glyph-name="u.inferior" horiz-adv-x="331" 
d="M84 -102q-17 0 -34 7t-30.5 19.5t-22 31.5t-8.5 43q0 25 5 46.5t11 48.5l23 109h65l-23 -107q-2 -7 -5 -20.5l-6 -27t-5 -25t-2 -15.5q0 -22 14.5 -35.5t37.5 -13.5q28 0 45.5 15.5t22.5 38.5l41 190h65l-64 -299h-65l7 30q-6 -13 -26.5 -24.5t-45.5 -11.5z" />
    <glyph glyph-name="v.inferior" horiz-adv-x="283" 
d="M-9 203h63l28 -207l116 207h72l-171 -299h-63z" />
    <glyph glyph-name="w.inferior" horiz-adv-x="406" 
d="M-5 203h64l6 -201l91 201h68l6 -198l88 198h70l-142 -299h-64l-7 214l-96 -214h-68z" />
    <glyph glyph-name="x.inferior" horiz-adv-x="294" 
d="M68 58l-66 145h66l41 -94l83 94h80l-132 -149l68 -150h-67l-42 98l-84 -98h-80z" />
    <glyph glyph-name="y.inferior" horiz-adv-x="283" 
d="M-36 -141h10q22 0 29.5 10.5t19.5 32.5l10 17l-42 284h65l27 -201l114 201h73l-207 -361q-11 -20 -30 -32.5t-48 -12.5h-35z" />
    <glyph glyph-name="z.inferior" horiz-adv-x="265" 
d="M47 -36h135l-13 -60h-222l13 60l168 179h-128l13 60h215l-13 -60z" />
    <glyph glyph-name="one.inferior" unicode="&#x2081;" horiz-adv-x="217" 
d="M97 223l-92 -67l18 87l92 67h65l-86 -406h-65z" />
    <glyph glyph-name="two.inferior" unicode="&#x2082;" horiz-adv-x="309" 
d="M-36 -35l177 150q32 27 46.5 46.5t14.5 45.5t-18.5 37t-36.5 11t-30 -6.5t-20 -17t-12 -22.5t-6 -24h-65q8 60 40.5 95.5t101.5 35.5q49 0 79.5 -28t30.5 -79q0 -38 -18 -69.5t-57 -64.5l-130 -110h155l-13 -61h-253z" />
    <glyph glyph-name="three.inferior" unicode="&#x2083;" horiz-adv-x="307" 
d="M86 -102q-49 0 -80.5 28t-31.5 79v6.5t1 8.5h64q-1 -3 -1 -7.5v-5.5q0 -13 5.5 -22t14 -15t18.5 -8.5t19 -2.5q31 0 48 18.5t17 50.5q0 23 -15 36.5t-37 13.5h-35l13 57h34q35 0 56 21.5t21 50.5q0 26 -18.5 37t-36.5 11q-27 0 -44.5 -17t-22.5 -43h-65q5 27 14.5 49
t26 38t40.5 25t59 9q50 0 80.5 -28t30.5 -79q0 -15 -5 -32t-13.5 -32t-20.5 -27t-26 -19q13 -11 21 -29.5t8 -38.5q0 -17 -5 -40t-20 -43.5t-42.5 -35t-71.5 -14.5z" />
    <glyph glyph-name="four.inferior" unicode="&#x2084;" horiz-adv-x="308" 
d="M132 3h-178l12 59l231 248h65l-53 -248h43l-13 -59h-42l-21 -99h-65zM144 62l28 127l-119 -127h91z" />
    <glyph glyph-name="five.inferior" unicode="&#x2085;" horiz-adv-x="313" 
d="M98 -102q-49 0 -80 28t-31 79q0 5 2 15h64q-1 -5 -1.5 -8t-0.5 -5q0 -26 18.5 -37t36.5 -11q30 0 45.5 18t20.5 41q3 14 5 22.5t2 16.5q0 13 -5.5 22t-13.5 15t-17.5 8.5t-18.5 2.5q-22 0 -36.5 -10t-20.5 -25h-67l52 240h232l-14 -61h-167l-20 -98q6 5 20 10.5t33 5.5
q46 0 76.5 -28.5t30.5 -78.5q0 -11 -1 -18t-4 -21q-5 -27 -14.5 -50t-26 -39t-40.5 -25t-59 -9z" />
    <glyph glyph-name="six.inferior" unicode="&#x2086;" horiz-adv-x="316" 
d="M96 -102q-49 0 -80 28t-31 79q0 7 4.5 32.5t10.5 55.5t12 58l9 42q5 27 14.5 50t26 39t41 25t59.5 9q49 0 79.5 -28t30.5 -79v-6t-1 -9h-64q1 5 1.5 8.5t0.5 4.5q0 13 -5.5 22t-13.5 15t-17.5 8.5t-18.5 2.5q-30 0 -46 -18.5t-21 -41.5l-11 -51q8 7 23 12.5t34 5.5
q48 0 77.5 -28t29.5 -78q0 -4 -0.5 -12.5t-3.5 -22.5q-5 -28 -14 -50.5t-25.5 -38.5t-41 -25t-59.5 -9zM104 -41q30 0 45.5 18.5t21.5 41.5q3 13 4 21t1 13q0 26 -18.5 37t-36.5 11q-29 0 -45 -18t-21 -41q-4 -14 -5 -22t-1 -13q0 -26 18.5 -37t36.5 -11z" />
    <glyph glyph-name="seven.inferior" unicode="&#x2087;" horiz-adv-x="271" 
d="M183 249h-177l13 61h250l-14 -61l-197 -345h-72z" />
    <glyph glyph-name="eight.inferior" unicode="&#x2088;" horiz-adv-x="319" 
d="M98 -102q-54 0 -86 30t-32 79q0 42 17 70.5t47 42.5q-24 28 -24 72q0 13 4.5 34t18.5 41t40.5 34.5t70.5 14.5q51 0 84.5 -29.5t33.5 -81.5q0 -9 -2 -23t-8.5 -29.5t-18.5 -30.5t-31 -25q24 -29 24 -70q0 -65 -38 -97t-100 -32zM107 -41q27 0 46 18.5t19 45.5
q0 23 -14.5 40.5t-47.5 17.5q-27 0 -46.5 -18.5t-19.5 -44.5q0 -23 15 -41t48 -18zM147 135q26 0 43.5 17.5t17.5 42.5q0 31 -18.5 45.5t-44.5 14.5t-43.5 -17.5t-17.5 -42.5q0 -31 18.5 -45.5t44.5 -14.5z" />
    <glyph glyph-name="nine.inferior" unicode="&#x2089;" horiz-adv-x="316" 
d="M90 -102q-49 0 -79.5 28t-30.5 79v6t1 9h64q-1 -5 -1 -8.5v-4.5q0 -26 18.5 -37t36.5 -11q30 0 45.5 18.5t20.5 41.5q2 6 5 19.5l7 31.5q-9 -7 -23.5 -12.5t-34.5 -5.5q-47 0 -77 28t-30 78q0 4 1 12.5t3 22.5q4 28 13.5 50.5t26 38.5t41.5 25t60 9q49 0 79.5 -28
t30.5 -79q0 -8 -4.5 -33t-10.5 -55t-12 -58.5t-9 -41.5q-5 -27 -14.5 -50t-26 -39t-41 -25t-59.5 -9zM131 113q30 0 45.5 18t20.5 41q4 14 5 22t1 13q0 26 -18.5 37t-36.5 11q-30 0 -45.5 -18.5t-20.5 -41.5q-4 -13 -5 -21t-1 -13q0 -13 5.5 -22t13.5 -15t17.5 -8.5
t18.5 -2.5z" />
    <glyph glyph-name="zero.inferior" unicode="&#x2080;" horiz-adv-x="322" 
d="M104 -41q30 0 46 18.5t21 41.5q3 10 9 39.5t12.5 61t11.5 57.5t5 30q0 13 -5.5 22t-13.5 15t-17.5 8.5t-18.5 2.5q-30 0 -45.5 -18.5t-21.5 -41.5q-3 -11 -9 -40t-12.5 -60.5t-11.5 -57.5t-5 -30q0 -26 18.5 -37t36.5 -11zM96 -102q-49 0 -80 28t-31 79q0 7 4.5 32.5
t10.5 55.5t12 58l9 42q5 27 14.5 50t26 39t41 25t59.5 9q49 0 79.5 -28t30.5 -79q0 -8 -4.5 -33t-10.5 -55t-12 -58.5t-9 -41.5q-5 -27 -14.5 -50t-26 -39t-40.5 -25t-59 -9z" />
    <glyph glyph-name="zero.slashed.inferior" horiz-adv-x="322" 
d="M95 -103q-49 0 -80 28t-31 79q0 7 4.5 32.5t10.5 55.5t12 58l9 42q5 27 14.5 50t26 39t41 25t59.5 9q49 0 79.5 -28t30.5 -79q0 -8 -4.5 -33t-10.5 -55t-12 -58.5t-9 -41.5q-5 -27 -14.5 -50t-26 -39t-40.5 -25t-59 -9zM103 -42q30 0 46 18.5t21 41.5q1 6 4 18.5
t6.5 28.5t7 34.5t7.5 35.5l-146 -120q-1 -3 -1 -5.5v-3.5q0 -26 18.5 -37t36.5 -11zM86 194q-2 -6 -4.5 -18.5t-6 -28.5t-7.5 -34t-7 -36l146 120q0 3 0.5 5.5t0.5 3.5q0 13 -5.5 22t-13.5 15t-17.5 8.5t-18.5 2.5q-30 0 -45.5 -18.5t-21.5 -41.5z" />
    <glyph glyph-name="period.inferior" horiz-adv-x="178" 
d="M-9 -14h81l-17 -82h-82z" />
    <glyph glyph-name="hyphen.inferior" horiz-adv-x="229" 
d="M-3 95h168l-12 -56h-168z" />
    <glyph glyph-name="comma.inferior" horiz-adv-x="178" 
d="M-9 -14h81l-17 -82l-36 -62h-48l36 62h-34z" />
    <glyph glyph-name="equal.inferior" horiz-adv-x="330" 
d="M-2 26h253v-56h-253v56zM-2 157h253v-56h-253v56z" />
    <glyph glyph-name="plus.inferior" horiz-adv-x="330" 
d="M-2 95h99v98h56v-98h98v-56h-98v-99h-56v99h-99v56z" />
    <glyph glyph-name="minus.inferior" horiz-adv-x="330" 
d="M-2 95h253v-56h-253v56z" />
    <glyph glyph-name="parenleft.inferior" unicode="&#x208d;" horiz-adv-x="179" 
d="M55 -184q-27 0 -51 17t-24 54q0 6 2 19.5t9 50t21.5 103t38.5 178.5q8 34 26.5 53t60.5 19h31l-13 -57h-14q-17 0 -24 -7.5t-11 -24.5q-21 -101 -34.5 -163.5t-21 -97.5t-10 -48.5t-2.5 -16.5q0 -21 21 -21h17l-13 -58h-9z" />
    <glyph glyph-name="parenright.inferior" unicode="&#x208e;" horiz-adv-x="179" 
d="M-72 -184l13 58h14q17 0 24 7t11 24q21 102 34.5 164.5t21 97.5t10 48.5t2.5 16.5q0 9 -5.5 15t-15.5 6h-17l13 57h9q27 0 50.5 -16.5t23.5 -53.5q0 -6 -2 -19.5t-9 -50t-21 -103.5t-38 -179q-8 -33 -26.5 -52.5t-60.5 -19.5h-31z" />
    <glyph glyph-name="one.numerator" horiz-adv-x="296" 
d="M220 613l-92 -67l18 87l92 67h65l-86 -406h-65z" />
    <glyph glyph-name="two.numerator" horiz-adv-x="356" 
d="M67 355l177 150q32 27 46.5 46.5t14.5 45.5t-18.5 37t-36.5 11t-30 -6.5t-20 -17t-12 -22.5t-6 -24h-65q8 60 40.5 95.5t101.5 35.5q49 0 79.5 -28t30.5 -79q0 -38 -18 -69.5t-57 -64.5l-130 -110h155l-13 -61h-253z" />
    <glyph glyph-name="three.numerator" horiz-adv-x="347" 
d="M189 288q-49 0 -80.5 28t-31.5 79v6.5t1 8.5h64q-1 -3 -1 -7.5v-5.5q0 -13 5.5 -22t14 -15t18.5 -8.5t19 -2.5q31 0 48 18.5t17 50.5q0 23 -15 36.5t-37 13.5h-35l13 57h34q35 0 56 21.5t21 50.5q0 26 -18.5 37t-36.5 11q-27 0 -44.5 -17t-22.5 -43h-65q5 27 14.5 49
t26 38t40.5 25t59 9q50 0 80.5 -28t30.5 -79q0 -15 -5 -32t-13.5 -32t-20.5 -27t-26 -19q13 -11 21 -29.5t8 -38.5q0 -17 -5 -40t-20 -43.5t-42.5 -35t-71.5 -14.5z" />
    <glyph glyph-name="four.numerator" horiz-adv-x="318" 
d="M205 393h-178l12 59l231 248h65l-53 -248h43l-13 -59h-42l-21 -99h-65zM217 452l28 127l-119 -127h91z" />
    <glyph glyph-name="five.numerator" horiz-adv-x="350" 
d="M201 288q-49 0 -80 28t-31 79q0 5 2 15h64q-1 -5 -1.5 -8t-0.5 -5q0 -26 18.5 -37t36.5 -11q30 0 45.5 18t20.5 41q3 14 5 22.5t2 16.5q0 13 -5.5 22t-13.5 15t-17.5 8.5t-18.5 2.5q-22 0 -36.5 -10t-20.5 -25h-67l52 240h232l-14 -61h-167l-20 -98q6 5 20 10.5t33 5.5
q46 0 76.5 -28.5t30.5 -78.5q0 -11 -1 -18t-4 -21q-5 -27 -14.5 -50t-26 -39t-40.5 -25t-59 -9z" />
    <glyph glyph-name="six.numerator" horiz-adv-x="346" 
d="M194 288q-49 0 -80 28t-31 79q0 7 4.5 32.5t10.5 55.5t12 58l9 42q5 27 14.5 50t26 39t41 25t59.5 9q49 0 79.5 -28t30.5 -79v-6t-1 -9h-64q1 5 1.5 8.5t0.5 4.5q0 13 -5.5 22t-13.5 15t-17.5 8.5t-18.5 2.5q-30 0 -46 -18.5t-21 -41.5l-11 -51q8 7 23 12.5t34 5.5
q48 0 77.5 -28t29.5 -78q0 -4 -0.5 -12.5t-3.5 -22.5q-5 -28 -14 -50.5t-25.5 -38.5t-41 -25t-59.5 -9zM202 349q30 0 45.5 18.5t21.5 41.5q3 13 4 21t1 13q0 26 -18.5 37t-36.5 11q-29 0 -45 -18t-21 -41q-4 -14 -5 -22t-1 -13q0 -26 18.5 -37t36.5 -11z" />
    <glyph glyph-name="seven.numerator" horiz-adv-x="281" 
d="M286 639h-177l13 61h250l-14 -61l-197 -345h-72z" />
    <glyph glyph-name="eight.numerator" horiz-adv-x="330" 
d="M186 288q-54 0 -86 30t-32 79q0 42 17 70.5t47 42.5q-24 28 -24 72q0 13 4.5 34t18.5 41t40.5 34.5t70.5 14.5q51 0 84.5 -29.5t33.5 -81.5q0 -9 -2 -23t-8.5 -29.5t-18.5 -30.5t-31 -25q24 -29 24 -70q0 -65 -38 -97t-100 -32zM195 349q27 0 46 18.5t19 45.5
q0 23 -14.5 40.5t-47.5 17.5q-27 0 -46.5 -18.5t-19.5 -44.5q0 -23 15 -41t48 -18zM235 525q26 0 43.5 17.5t17.5 42.5q0 31 -18.5 45.5t-44.5 14.5t-43.5 -17.5t-17.5 -42.5q0 -31 18.5 -45.5t44.5 -14.5z" />
    <glyph glyph-name="nine.numerator" horiz-adv-x="346" 
d="M188 288q-49 0 -79.5 28t-30.5 79v6t1 9h64q-1 -5 -1 -8.5v-4.5q0 -26 18.5 -37t36.5 -11q30 0 45.5 18.5t20.5 41.5q2 6 5 19.5l7 31.5q-9 -7 -23.5 -12.5t-34.5 -5.5q-47 0 -77 28t-30 78q0 4 1 12.5t3 22.5q4 28 13.5 50.5t26 38.5t41.5 25t60 9q49 0 79.5 -28
t30.5 -79q0 -8 -4.5 -33t-10.5 -55t-12 -58.5t-9 -41.5q-5 -27 -14.5 -50t-26 -39t-41 -25t-59.5 -9zM229 503q30 0 45.5 18t20.5 41q4 14 5 22t1 13q0 26 -18.5 37t-36.5 11q-30 0 -45.5 -18.5t-20.5 -41.5q-4 -13 -5 -21t-1 -13q0 -13 5.5 -22t13.5 -15t17.5 -8.5
t18.5 -2.5z" />
    <glyph glyph-name="zero.numerator" horiz-adv-x="352" 
d="M202 349q30 0 46 18.5t21 41.5q3 10 9 39.5t12.5 61t11.5 57.5t5 30q0 13 -5.5 22t-13.5 15t-17.5 8.5t-18.5 2.5q-30 0 -45.5 -18.5t-21.5 -41.5q-3 -11 -9 -40t-12.5 -60.5t-11.5 -57.5t-5 -30q0 -26 18.5 -37t36.5 -11zM194 288q-49 0 -80 28t-31 79q0 7 4.5 32.5
t10.5 55.5t12 58l9 42q5 27 14.5 50t26 39t41 25t59.5 9q49 0 79.5 -28t30.5 -79q0 -8 -4.5 -33t-10.5 -55t-12 -58.5t-9 -41.5q-5 -27 -14.5 -50t-26 -39t-40.5 -25t-59 -9z" />
    <glyph glyph-name="zero.slashed.numerator" horiz-adv-x="352" 
d="M194 288q-49 0 -80 28t-31 79q0 7 4.5 32.5t10.5 55.5t12 58l9 42q5 27 14.5 50t26 39t41 25t59.5 9q49 0 79.5 -28t30.5 -79q0 -8 -4.5 -33t-10.5 -55t-12 -58.5t-9 -41.5q-5 -27 -14.5 -50t-26 -39t-40.5 -25t-59 -9zM202 349q30 0 46 18.5t21 41.5q1 6 4 18.5
t6.5 28.5t7 34.5t7.5 35.5l-146 -120q-1 -3 -1 -5.5v-3.5q0 -26 18.5 -37t36.5 -11zM185 585q-2 -6 -4.5 -18.5t-6 -28.5t-7.5 -34t-7 -36l146 120q0 3 0.5 5.5t0.5 3.5q0 13 -5.5 22t-13.5 15t-17.5 8.5t-18.5 2.5q-30 0 -45.5 -18.5t-21.5 -41.5z" />
    <glyph glyph-name="one.denominator" horiz-adv-x="296" 
d="M157 319l-92 -67l18 87l92 67h65l-86 -406h-65z" />
    <glyph glyph-name="two.denominator" horiz-adv-x="356" 
d="M5 61l177 150q32 27 46.5 46.5t14.5 45.5t-18.5 37t-36.5 11t-30 -6.5t-20 -17t-12 -22.5t-6 -24h-65q8 60 40.5 95.5t101.5 35.5q49 0 79.5 -28t30.5 -79q0 -38 -18 -69.5t-57 -64.5l-130 -110h155l-13 -61h-253z" />
    <glyph glyph-name="three.denominator" horiz-adv-x="347" 
d="M127 -6q-49 0 -80.5 28t-31.5 79v6.5t1 8.5h64q-1 -3 -1 -7.5v-5.5q0 -13 5.5 -22t14 -15t18.5 -8.5t19 -2.5q31 0 48 18.5t17 50.5q0 23 -15 36.5t-37 13.5h-35l13 57h34q35 0 56 21.5t21 50.5q0 26 -18.5 37t-36.5 11q-27 0 -44.5 -17t-22.5 -43h-65q5 27 14.5 49
t26 38t40.5 25t59 9q50 0 80.5 -28t30.5 -79q0 -15 -5 -32t-13.5 -32t-20.5 -27t-26 -19q13 -11 21 -29.5t8 -38.5q0 -17 -5 -40t-20 -43.5t-42.5 -35t-71.5 -14.5z" />
    <glyph glyph-name="four.denominator" horiz-adv-x="318" 
d="M143 99h-178l12 59l231 248h65l-53 -248h43l-13 -59h-42l-21 -99h-65zM155 158l28 127l-119 -127h91z" />
    <glyph glyph-name="five.denominator" horiz-adv-x="350" 
d="M139 -6q-49 0 -80 28t-31 79q0 5 2 15h64q-1 -5 -1.5 -8t-0.5 -5q0 -26 18.5 -37t36.5 -11q30 0 45.5 18t20.5 41q3 14 5 22.5t2 16.5q0 13 -5.5 22t-13.5 15t-17.5 8.5t-18.5 2.5q-22 0 -36.5 -10t-20.5 -25h-67l52 240h232l-14 -61h-167l-20 -98q6 5 20 10.5t33 5.5
q46 0 76.5 -28.5t30.5 -78.5q0 -11 -1 -18t-4 -21q-5 -27 -14.5 -50t-26 -39t-40.5 -25t-59 -9z" />
    <glyph glyph-name="six.denominator" horiz-adv-x="346" 
d="M131 -6q-49 0 -80 28t-31 79q0 7 4.5 32.5t10.5 55.5t12 58l9 42q5 27 14.5 50t26 39t41 25t59.5 9q49 0 79.5 -28t30.5 -79v-6t-1 -9h-64q1 5 1.5 8.5t0.5 4.5q0 13 -5.5 22t-13.5 15t-17.5 8.5t-18.5 2.5q-30 0 -46 -18.5t-21 -41.5l-11 -51q8 7 23 12.5t34 5.5
q48 0 77.5 -28t29.5 -78q0 -4 -0.5 -12.5t-3.5 -22.5q-5 -28 -14 -50.5t-25.5 -38.5t-41 -25t-59.5 -9zM139 55q30 0 45.5 18.5t21.5 41.5q3 13 4 21t1 13q0 26 -18.5 37t-36.5 11q-29 0 -45 -18t-21 -41q-4 -14 -5 -22t-1 -13q0 -26 18.5 -37t36.5 -11z" />
    <glyph glyph-name="seven.denominator" horiz-adv-x="281" 
d="M223 345h-177l13 61h250l-14 -61l-197 -345h-72z" />
    <glyph glyph-name="eight.denominator" horiz-adv-x="330" 
d="M124 -6q-54 0 -86 30t-32 79q0 42 17 70.5t47 42.5q-24 28 -24 72q0 13 4.5 34t18.5 41t40.5 34.5t70.5 14.5q51 0 84.5 -29.5t33.5 -81.5q0 -9 -2 -23t-8.5 -29.5t-18.5 -30.5t-31 -25q24 -29 24 -70q0 -65 -38 -97t-100 -32zM133 55q27 0 46 18.5t19 45.5
q0 23 -14.5 40.5t-47.5 17.5q-27 0 -46.5 -18.5t-19.5 -44.5q0 -23 15 -41t48 -18zM173 231q26 0 43.5 17.5t17.5 42.5q0 31 -18.5 45.5t-44.5 14.5t-43.5 -17.5t-17.5 -42.5q0 -31 18.5 -45.5t44.5 -14.5z" />
    <glyph glyph-name="nine.denominator" horiz-adv-x="346" 
d="M126 -6q-49 0 -79.5 28t-30.5 79v6t1 9h64q-1 -5 -1 -8.5v-4.5q0 -26 18.5 -37t36.5 -11q30 0 45.5 18.5t20.5 41.5q2 6 5 19.5l7 31.5q-9 -7 -23.5 -12.5t-34.5 -5.5q-47 0 -77 28t-30 78q0 4 1 12.5t3 22.5q4 28 13.5 50.5t26 38.5t41.5 25t60 9q49 0 79.5 -28
t30.5 -79q0 -8 -4.5 -33t-10.5 -55t-12 -58.5t-9 -41.5q-5 -27 -14.5 -50t-26 -39t-41 -25t-59.5 -9zM167 209q30 0 45.5 18t20.5 41q4 14 5 22t1 13q0 26 -18.5 37t-36.5 11q-30 0 -45.5 -18.5t-20.5 -41.5q-4 -13 -5 -21t-1 -13q0 -13 5.5 -22t13.5 -15t17.5 -8.5
t18.5 -2.5z" />
    <glyph glyph-name="zero.denominator" horiz-adv-x="352" 
d="M139 55q30 0 46 18.5t21 41.5q3 10 9 39.5t12.5 61t11.5 57.5t5 30q0 13 -5.5 22t-13.5 15t-17.5 8.5t-18.5 2.5q-30 0 -45.5 -18.5t-21.5 -41.5q-3 -11 -9 -40t-12.5 -60.5t-11.5 -57.5t-5 -30q0 -26 18.5 -37t36.5 -11zM131 -6q-49 0 -80 28t-31 79q0 7 4.5 32.5
t10.5 55.5t12 58l9 42q5 27 14.5 50t26 39t41 25t59.5 9q49 0 79.5 -28t30.5 -79q0 -8 -4.5 -33t-10.5 -55t-12 -58.5t-9 -41.5q-5 -27 -14.5 -50t-26 -39t-40.5 -25t-59 -9z" />
    <glyph glyph-name="zero.slashed.denominator" horiz-adv-x="351" 
d="M131 -6q-49 0 -80 28t-31 79q0 7 4.5 32.5t10.5 55.5t12 58l9 42q5 27 14.5 50t26 39t41 25t59.5 9q49 0 79.5 -28t30.5 -79q0 -8 -4.5 -33t-10.5 -55t-12 -58.5t-9 -41.5q-5 -27 -14.5 -50t-26 -39t-40.5 -25t-59 -9zM139 55q30 0 46 18.5t21 41.5q1 6 4 18.5t6.5 28.5
t7 34.5t7.5 35.5l-146 -120q-1 -3 -1 -5.5v-3.5q0 -26 18.5 -37t36.5 -11zM122 291q-2 -6 -4.5 -18.5t-6 -28.5t-7.5 -34t-7 -36l146 120q0 3 0.5 5.5t0.5 3.5q0 13 -5.5 22t-13.5 15t-17.5 8.5t-18.5 2.5q-30 0 -45.5 -18.5t-21.5 -41.5z" />
    <glyph glyph-name="ampersand.case" horiz-adv-x="604" 
d="M202 0q-33 0 -62.5 10.5t-51.5 30.5t-34.5 50.5t-12.5 70.5q0 71 28 122t95 83q-26 18 -41 51t-15 75q0 53 18.5 92t51 64.5t77 38t96.5 12.5h130l-15 -74h-131q-26 0 -52.5 -7.5t-48 -23t-35 -39.5t-13.5 -58q0 -48 27 -78.5t72 -30.5h130l17 81h77l-18 -81h128l-16 -73
h-127l-67 -316h-207zM348 74l51 242h-131q-30 0 -57.5 -9t-48 -27t-32.5 -44t-12 -60q0 -44 25.5 -73t73.5 -29h131z" />
    <glyph glyph-name="hyphen.case" horiz-adv-x="410" 
d="M71 305l13 65h290l-13 -65h-290z" />
    <glyph glyph-name="endash.case" horiz-adv-x="524" 
d="M71 305l13 65h404l-13 -65h-404z" />
    <glyph glyph-name="emdash.case" horiz-adv-x="823" 
d="M71 305l13 65h703l-13 -65h-703z" />
    <glyph glyph-name="question.case" horiz-adv-x="513" 
d="M98 500q23 111 80 160.5t152 49.5q45 0 78 -14.5t54.5 -38.5t31.5 -53.5t10 -59.5q0 -33 -9.5 -62t-24 -53t-32 -42.5t-34.5 -31.5l-71 -53q-26 -19 -36.5 -34.5t-15.5 -36.5l-4 -21h-77l4 22q8 41 27.5 68.5t57.5 56.5l70 53q9 7 21.5 18.5t23.5 27t18.5 35t7.5 43.5
q0 47 -29 74.5t-82 27.5q-59 0 -96.5 -38.5t-47.5 -97.5h-77zM164 105h105l-22 -105h-105z" />
    <glyph glyph-name="questiondown.case" horiz-adv-x="513" 
d="M435 200q-23 -111 -80 -160.5t-152 -49.5q-45 0 -78 14.5t-54.5 38.5t-31.5 53.5t-10 59.5q0 33 9.5 62t24 53t32 42.5t34.5 31.5l71 53q26 19 36.5 34.5t15.5 36.5l4 21h77l-4 -22q-8 -41 -27.5 -68.5t-57.5 -56.5l-70 -53q-9 -7 -21.5 -18.5t-23.5 -27t-18.5 -35
t-7.5 -43.5q0 -47 29 -74.5t82 -27.5q59 0 96.5 38.5t47.5 97.5h77zM369 595h-105l22 105h105z" />
    <glyph glyph-name="exclam.case" horiz-adv-x="285" 
d="M171 210h-77l104 490h77zM57 105h105l-22 -105h-105z" />
    <glyph glyph-name="exclamdown.case" horiz-adv-x="285" 
d="M153 490h77l-104 -490h-77zM267 595h-105l22 105h105z" />
    <glyph glyph-name="guilsinglleft.case" horiz-adv-x="299" 
d="M70 293l15 74l199 147l-20 -94l-132 -97l90 -98l-17 -79z" />
    <glyph glyph-name="guilsinglright.case" horiz-adv-x="299" 
d="M260 367l-15 -74l-199 -147l20 94l132 97l-90 98l17 79z" />
    <glyph glyph-name="guillemotleft.case" horiz-adv-x="478" 
d="M70 293l15 74l199 147l-20 -94l-132 -97l90 -98l-17 -79zM249 293l15 74l199 147l-20 -94l-132 -97l90 -98l-17 -79z" />
    <glyph glyph-name="guillemotright.case" horiz-adv-x="478" 
d="M439 367l-15 -74l-199 -147l20 94l132 97l-90 98l17 79zM260 367l-15 -74l-199 -147l20 94l132 97l-90 98l17 79z" />
    <glyph glyph-name="parenleft.case" horiz-adv-x="283" 
d="M170 581q7 37 16 60t25 36t41.5 18t65.5 5h16l-14 -63h-22q-31 0 -43.5 -11t-17.5 -37q-51 -235 -77.5 -357.5t-26.5 -133.5q0 -35 44 -35h22l-14 -63h-16q-49 0 -75 25.5t-26 67.5q0 7 7.5 44.5t21 100.5t32 149.5t41.5 193.5z" />
    <glyph glyph-name="parenright.case" horiz-adv-x="283" 
d="M153 119q-7 -37 -16 -60t-25 -36t-41.5 -18t-65.5 -5h-16l14 63h22q31 0 43.5 11t17.5 37q51 235 77.5 357.5t26.5 133.5q0 35 -44 35h-22l14 63h16q49 0 75 -25.5t26 -67.5q0 -8 -7.5 -45t-21 -100t-32.5 -149.5t-41 -193.5z" />
    <glyph glyph-name="bracketleft.case" horiz-adv-x="284" 
d="M195 700h139l-14 -63h-74l-121 -574h74l-14 -63h-139z" />
    <glyph glyph-name="bracketright.case" horiz-adv-x="284" 
d="M128 0h-139l14 63h74l121 574h-74l14 63h139z" />
    <glyph glyph-name="braceleft.case" horiz-adv-x="316" 
d="M139 297q0 16 -10 21.5t-34 5.5h-22l13 64h22q31 0 44.5 12.5t18.5 38.5l31 142q8 37 17 60t25 36t41 18t65 5h16l-14 -63h-22q-31 0 -43.5 -11t-17.5 -37l-31 -142q-7 -32 -16.5 -58t-39.5 -39q22 -17 22 -46q0 -12 -6 -42.5t-13.5 -64t-13.5 -62t-6 -37.5q0 -35 44 -35
h22l-14 -63h-16q-49 0 -75 25.5t-26 67.5q0 10 6 39.5t13.5 63t13.5 63t6 38.5z" />
    <glyph glyph-name="braceright.case" horiz-adv-x="316" 
d="M216 403q0 -16 10 -21.5t34 -5.5h22l-13 -64h-22q-31 0 -44.5 -12.5t-18.5 -38.5l-31 -142q-8 -37 -17 -60t-25 -36t-41 -18t-65 -5h-16l14 63h22q31 0 43.5 11t17.5 37l31 142q7 32 16.5 58t39.5 39q-12 9 -17 20t-5 26q0 12 6 42.5t13.5 64t13.5 62t6 37.5q0 35 -44 35
h-22l14 63h16q49 0 75 -25.5t26 -67.5q0 -10 -6 -39.5t-13.5 -63t-13.5 -63t-6 -38.5z" />
    <glyph glyph-name="bar.case" horiz-adv-x="235" 
d="M104 700h65v-700h-65v700z" />
    <glyph glyph-name="brokenbar.case" horiz-adv-x="235" 
d="M169 411h-65v289h65v-289zM104 289h65v-289h-65v289z" />
    <glyph glyph-name="periodcentered.case" horiz-adv-x="295" 
d="M126 400h105l-23 -105h-105z" />
    <glyph glyph-name="at.case" horiz-adv-x="898" 
d="M595 343q-85 -6 -135.5 -13t-76.5 -21q-29 -16 -37 -33.5t-8 -40.5q0 -35 27.5 -59t84.5 -24q30 0 56.5 8t46 23.5t31 39t11.5 53.5v67zM468 548q-45 0 -80 -24.5t-44 -75.5h-77q5 48 24.5 81t47.5 53.5t61.5 29t67.5 8.5q36 0 72 -10t65 -34t47 -62.5t18 -95.5v-217
q0 -26 15 -41.5t39 -15.5t38.5 15.5t14.5 41.5v257q0 61 -25 112t-67.5 88t-98.5 57.5t-118 20.5t-118 -20.5t-98.5 -57.5t-67.5 -88t-25 -112v-220q0 -61 25 -112t67.5 -88t98.5 -57.5t118 -20.5q53 0 101.5 14.5t89.5 42.5l35 -56q-47 -31 -104 -48t-122 -17
q-79 0 -147 25t-118.5 70.5t-79.5 108.5t-29 138v220q0 75 29 138t79.5 108.5t118.5 70.5t147 25t147 -25t118.5 -70.5t79.5 -108.5t29 -138v-262q0 -59 -31.5 -87.5t-86.5 -28.5q-51 0 -81.5 17t-47.5 46q-25 -32 -66.5 -47.5t-94.5 -15.5q-33 0 -64 9t-54.5 27.5t-38 47.5
t-14.5 69q0 19 5 41t17.5 42.5t34 37.5t55.5 27q45 13 99.5 18.5t120.5 10.5v9q0 32 -10.5 56.5t-28 40.5t-40.5 24t-48 8z" />
    <glyph glyph-name="plus.case" 
d="M265 305h-172v65h172v169h65v-169h167v-65h-167v-170h-65v170z" />
    <glyph glyph-name="minus.case" 
d="M93 305v65h404v-65h-404z" />
    <glyph glyph-name="divide.case" 
d="M243 525q0 22 15 37.5t37 15.5t37.5 -15.5t15.5 -37.5t-15.5 -37t-37.5 -15t-37 15t-15 37zM243 149q0 22 15 37.5t37 15.5t37.5 -15.5t15.5 -37.5t-15.5 -37t-37.5 -15t-37 15t-15 37zM93 305v65h404v-65h-404z" />
    <glyph glyph-name="multiply.case" 
d="M248 337l-163 164l46 46l163 -164l164 164l46 -46l-164 -164l163 -162l-46 -46l-163 162l-162 -162l-46 46z" />
    <glyph glyph-name="equal.case" 
d="M93 197v65h404v-65h-404zM93 402v65h404v-65h-404z" />
    <glyph glyph-name="plusminus.case" 
d="M330 364v-144h-65v144h-172v65h172v144h65v-144h167v-65h-167zM93 57v65h404v-65h-404z" />
    <glyph glyph-name="less.case" 
d="M497 127v-75l-404 227v74l404 227v-75l-336 -189z" />
    <glyph glyph-name="greater.case" 
d="M429 316l-336 189v75l404 -227v-74l-404 -227v75z" />
    <glyph glyph-name="lessequal.case" 
d="M497 256v-70l-404 160v74l404 160v-70l-321 -127zM93 57v65h404v-65h-404z" />
    <glyph glyph-name="greaterequal.case" 
d="M414 383l-321 127v70l404 -160v-74l-404 -160v70zM93 57v65h404v-65h-404z" />
    <glyph glyph-name="notequal.case" 
d="M217 197l-77 -86l-47 42l39 44h-39v65h97l126 140h-223v65h281l76 85l47 -42l-39 -43h39v-65h-97l-125 -140h222v-65h-280z" />
    <glyph glyph-name="acute.case" horiz-adv-x="321" 
d="M383 854l-128 -109h-74l92 109h110z" />
    <glyph glyph-name="breve.case" horiz-adv-x="394" 
d="M349 808q20 0 35.5 13t19.5 33h67q-5 -23 -14.5 -42.5t-25.5 -34.5t-38 -23.5t-52 -8.5h-80q-17 0 -32.5 6.5t-28 18.5t-20 28.5t-7.5 35.5q0 5 0.5 10t1.5 10h61q-1 -3 -1 -9q0 -17 11 -27t28 -10h75v0z" />
    <glyph glyph-name="caron.case" horiz-adv-x="432" 
d="M326 803l70 51h104l-148 -109h-66l-102 109h94z" />
    <glyph glyph-name="cedilla.case" horiz-adv-x="270" 
d="M36 0h72l-38 -158h-100z" />
    <glyph glyph-name="circumflex.case" horiz-adv-x="432" 
d="M335 796l-70 -51h-104l148 109h66l102 -109h-94z" />
    <glyph glyph-name="dieresis.case" horiz-adv-x="408" 
d="M445 751h-77l21 97h77zM248 751h-77l21 97h77z" />
    <glyph glyph-name="dotaccent.case" horiz-adv-x="185" 
d="M235 751h-77l21 97h77z" />
    <glyph glyph-name="grave.case" horiz-adv-x="321" 
d="M289 854l69 -109h-67l-105 109h103z" />
    <glyph glyph-name="hungarumlaut.case" horiz-adv-x="474" 
d="M368 854l-118 -109h-69l82 109h105zM536 854l-118 -109h-69l82 109h105z" />
    <glyph glyph-name="macron.case" horiz-adv-x="426" 
d="M186 833h298l-15 -67h-298z" />
    <glyph glyph-name="ogonek.case" horiz-adv-x="244" 
d="M139 0q-11 -7 -29 -18t-34.5 -25t-28.5 -30t-12 -33q0 -11 7 -15.5t18 -4.5q14 0 29 5.5t26 11.5l-13 -62q-29 -18 -63 -18q-16 0 -31.5 4.5t-27.5 13t-19 21.5t-7 31q0 22 9 40.5t24 33.5t34.5 26.5t40.5 18.5h77v0z" />
    <glyph glyph-name="ring.case" horiz-adv-x="245" 
d="M163 799q0 31 21.5 53t52.5 22t53 -22t22 -53t-22 -52.5t-53 -21.5t-52.5 21.5t-21.5 52.5zM211 799q0 -11 7.5 -18.5t18.5 -7.5t18.5 7.5t7.5 18.5t-7.5 18.5t-18.5 7.5t-18.5 -7.5t-7.5 -18.5z" />
    <glyph glyph-name="tilde.case" horiz-adv-x="440" 
d="M279 852q30 0 55 -14l30 -16q16 -8 26 -8q28 0 39 36h65q-9 -45 -37 -73.5t-66 -28.5q-30 0 -55 14l-30 16q-16 8 -26 8q-13 0 -23.5 -9t-15.5 -27h-65q9 45 37 73.5t66 28.5z" />
    <glyph glyph-name="at.case.ss01" horiz-adv-x="898" 
d="M664 201q0 -26 16.5 -41.5t40.5 -15.5t40 15.5t16 41.5v257q0 61 -25 112t-67.5 88t-98.5 57.5t-118 20.5t-118 -20.5t-98.5 -57.5t-67.5 -88t-25 -112v-220q0 -61 25 -112t67.5 -88t98.5 -57.5t118 -20.5q53 0 101.5 14.5t89.5 42.5l35 -56q-47 -31 -104 -48t-122 -17
q-79 0 -147 25t-118.5 70.5t-79.5 108.5t-29 138v220q0 75 29 138t79.5 108.5t118.5 70.5t147 25t147 -25t118.5 -70.5t79.5 -108.5t29 -138v-262q0 -59 -33 -87.5t-88 -28.5q-51 0 -83 17t-49 46q-20 -32 -56 -47.5t-71 -15.5q-36 0 -72 10t-65 34t-47 62.5t-18 95.5v136
q0 57 18 95.5t47 62.5t65 34t72 10q35 0 71 -15.5t56 -47.5v49h75v-405zM335 281q0 -32 10.5 -56.5t28 -40.5t40.5 -24t48 -8t48 8t40.5 24t28 40.5t10.5 56.5v138q0 32 -10.5 56.5t-28 40.5t-40.5 24t-48 8t-48 -8t-40.5 -24t-28 -40.5t-10.5 -56.5v-138z" />
    <glyph glyph-name="a.ss01" horiz-adv-x="540" 
d="M304 459q-59 0 -99 -32.5t-54 -97.5q-5 -21 -10.5 -47.5t-11 -52t-9 -47.5t-3.5 -34q0 -23 9 -39.5t24 -27t34 -15.5t39 -5q59 0 99 32.5t54 97.5q4 21 10 47.5t11.5 52t9 47.5t3.5 34q0 23 -9 39.5t-24 27t-34 15.5t-39 5zM347 55q-17 -26 -53 -45.5t-87 -19.5
q-30 0 -60 9.5t-53.5 28.5t-38 46.5t-14.5 62.5q0 13 3.5 35.5t8.5 48.5t11.5 54t11.5 53q12 55 32.5 93.5t50 62.5t66.5 35t81 11q45 0 77.5 -20.5t48.5 -53.5l13 60h75l-110 -516h-75z" />
    <glyph glyph-name="aacute.ss01" horiz-adv-x="540" 
d="M304 459q-59 0 -99 -32.5t-54 -97.5q-5 -21 -10.5 -47.5t-11 -52t-9 -47.5t-3.5 -34q0 -23 9 -39.5t24 -27t34 -15.5t39 -5q59 0 99 32.5t54 97.5q4 21 10 47.5t11.5 52t9 47.5t3.5 34q0 23 -9 39.5t-24 27t-34 15.5t-39 5zM347 55q-17 -26 -53 -45.5t-87 -19.5
q-30 0 -60 9.5t-53.5 28.5t-38 46.5t-14.5 62.5q0 13 3.5 35.5t8.5 48.5t11.5 54t11.5 53q12 55 32.5 93.5t50 62.5t66.5 35t81 11q45 0 77.5 -20.5t48.5 -53.5l13 60h75l-110 -516h-75zM454 700l-118 -129h-67l77 129h108z" />
    <glyph glyph-name="abreve.ss01" horiz-adv-x="540" 
d="M304 459q-59 0 -99 -32.5t-54 -97.5q-5 -21 -10.5 -47.5t-11 -52t-9 -47.5t-3.5 -34q0 -23 9 -39.5t24 -27t34 -15.5t39 -5q59 0 99 32.5t54 97.5q4 21 10 47.5t11.5 52t9 47.5t3.5 34q0 23 -9 39.5t-24 27t-34 15.5t-39 5zM347 55q-17 -26 -53 -45.5t-87 -19.5
q-30 0 -60 9.5t-53.5 28.5t-38 46.5t-14.5 62.5q0 13 3.5 35.5t8.5 48.5t11.5 54t11.5 53q12 55 32.5 93.5t50 62.5t66.5 35t81 11q45 0 77.5 -20.5t48.5 -53.5l13 60h75l-110 -516h-75zM321 571q-47 0 -76 29.5t-29 73.5q0 12 3 26h58q-1 -4 -1.5 -7t-0.5 -7
q0 -23 17 -38.5t42 -15.5h38q26 0 49.5 19.5t29.5 48.5h64q-6 -27 -18 -50.5t-31.5 -41t-46 -27.5t-60.5 -10h-38v0z" />
    <glyph glyph-name="acircumflex.ss01" horiz-adv-x="540" 
d="M304 459q-59 0 -99 -32.5t-54 -97.5q-5 -21 -10.5 -47.5t-11 -52t-9 -47.5t-3.5 -34q0 -23 9 -39.5t24 -27t34 -15.5t39 -5q59 0 99 32.5t54 97.5q4 21 10 47.5t11.5 52t9 47.5t3.5 34q0 23 -9 39.5t-24 27t-34 15.5t-39 5zM347 55q-17 -26 -53 -45.5t-87 -19.5
q-30 0 -60 9.5t-53.5 28.5t-38 46.5t-14.5 62.5q0 13 3.5 35.5t8.5 48.5t11.5 54t11.5 53q12 55 32.5 93.5t50 62.5t66.5 35t81 11q45 0 77.5 -20.5t48.5 -53.5l13 60h75l-110 -516h-75zM488 571h-84l-54 71l-84 -71h-94l152 129h66z" />
    </font>
</defs>
</svg>
