<svg version="1.1" id="Layer_1" xmlns="http://www.w3.org/2000/svg" xmlns:xlink="http://www.w3.org/1999/xlink" x="0px" y="0px"
	 viewBox="0 0 1024 1024" enable-background="new 0 0 1024 1024" xml:space="preserve">
<path d="M512,0C229.2,0,0,229.2,0,512s229.2,512,512,512s512-229.2,512-512S794.8,0,512,0z M965.5,643.2L684,692.9l73.7-87.9h2.3
	v-2.7l200.2-238.6C976,411.3,984,461,984,512C984,556.9,977.8,600.8,965.5,643.2z M473.6,730l-131.1-75.7L290.7,512l51.8-142.3
	L473.6,294l149.1,26.3l97.3,116v151.4l-97.3,116L473.6,730z M943.8,321L760,540V110.3c31,19.1,59.6,41.9,85.8,68
	C887.2,219.7,920.2,267.7,943.8,321z M695.7,77.1c8.2,3.5,16.3,7.2,24.3,11.1v285.9L443.8,44.9C466.2,41.6,489,40,512,40
	C575.7,40,637.5,52.5,695.7,77.1z M328.3,77.1c23-9.7,46.6-17.6,70.6-23.5l183.8,219L159.6,198c6-6.7,12.3-13.3,18.7-19.8
	C221.6,134.9,272.1,100.8,328.3,77.1z M130.8,233.6l281.5,49.6L40.2,498c1.7-58.8,14.1-115.8,36.9-169.7
	C91.3,294.6,109.3,262.9,130.8,233.6z M41,543.7l247.5-142.9l-147,403.8c-26.3-33.2-47.9-69.6-64.5-108.9
	C56.6,647.2,44.5,596.3,41,543.7z M178.2,845.8c-2.2-2.2-4.4-4.5-6.6-6.8l97.7-268.5l147,403.9c-30.1-6.2-59.5-15.3-88.1-27.4
	C272.1,923.2,221.6,889.1,178.2,845.8z M512,984c-17,0-33.8-0.9-50.5-2.7l-97.8-268.6l372.2,214.9c-13,7-26.5,13.5-40.2,19.3
	C637.5,971.5,575.7,984,512,984z M845.8,845.8C823.9,867.6,800.3,887,775,904L527.5,761.1l116.5-20.5l0,0l0,0l306.8-54.1
	c-1.2,3.1-2.5,6.2-3.8,9.2C923.2,751.9,889.1,802.4,845.8,845.8z"/>
</svg>
