<?xml version="1.0" encoding="utf-8"?>
<svg version="1.1" id="Layer_1" xmlns="http://www.w3.org/2000/svg" xmlns:xlink="http://www.w3.org/1999/xlink" x="0px" y="0px"
	 viewBox="0 0 432.9 119.8" style="enable-background:new 0 0 432.9 119.8;" xml:space="preserve">
<style type="text/css">
	.st0{fill:inherit;}
</style>
<g>
	<path class="st0" d="M115.9,81.4c3.9,0,7.9-1.1,10.4-3.2c1.8-1.4,2.6-2.2,3.5-3c0.3-0.2,0.9-1,1.2-0.6c0.2,0.2-0.1,0.6-0.3,0.8
		c-1.1,1-2.6,2.6-4.6,4.1c-3.4,2.8-7.6,4.1-12.1,4.1c-3.1,0-5.4-1-6.9-1c-1.7,0.4-4.3,0.7-5.9,0.7c-1.4,0-3.4-0.2-3.4-1.7
		c0-1.8,6.4-0.6,9.6-0.6c0.7-0.3,2-0.9,3.3-1.7c5.8-4,12.4-11.6,18.3-21.4c5.4-9,9-15.1,13.6-22c-4.3,0.6-8.4,0.9-11.6,0.9
		c-6,6.2-10.6,11-17,17.4c7.3,1.9,11.9,4.7,12.3,6.8v0.1c-1.5-1.7-6.8-3.8-13.5-5.4C94.3,74.2,74.9,88.3,43.7,89.5
		c-4.2,0.2-8.5,0-12.5-0.6c0.5,17,18.4,25.7,36.7,26.2c23,0.7,40.4-9.4,40.2-18.8c-0.1-1.8-0.4-3.7-1.8-5.2
		c-0.6-0.6-0.9-0.6-0.7-0.9c0.1-0.2,0.7,0,1.2,0.4c2.1,1.8,3.1,4.2,3.2,6.2c0.2,9.5-18.9,19.8-42.2,19.1c-19-0.7-37.4-8.2-37.5-27.3
		c-15-2.5-26.7-10.9-26.7-26.2c0-21.2,25.8-36.2,51.1-36.2c17,0,34,6.6,34,19.6c0,1.9-0.4,3.8-1,5.6c1.2-0.1,3-0.2,4.5-0.2
		c6.6,0,12.6,0.7,17.8,1.8c6.3-6,9.8-9.6,16.6-16.3c-17.2-0.4-35.8-6.2-35.8-20.3c0-9.8,9.8-15.5,19.7-15.5c6.9,0,13.2,2.6,15.4,7.1
		c0.6,1.4,0.6,2.7,0.2,2.7c-0.2,0.1,0-0.6-0.9-2.4c-2.1-4.3-8.4-6.5-14.7-6.4c-9.3,0.2-17.8,5.6-17.8,14.7c0,13.4,18,19,34.6,19.4
		c9.5-10,21.3-20.6,30.7-26c6.5-3.8,15.4-8.1,24.7-7.8c5,0.2,8.2,2.6,8.2,6.6c0,5.1-5.8,12.6-20.8,19.6c-7.3,3.4-15.1,5.4-22.3,6.7
		c-5.2,8.3-9.9,16.8-15.3,24.7c-5.7,8.4-13.3,15.8-21,20.2c-0.7,0.4-1.7,0.9-2.6,1.1C110.7,81.3,113.5,81.4,115.9,81.4z M54.7,29.6
		c-24.4,0-50.2,12.9-50.2,32.9c0,14.4,11.3,22.4,25.8,25c0.2-6.7,3-12.6,7.7-17.7c-6.2-2.2-10.3-6.3-10.7-11.1
		c-0.2-2.6,1-4.1,1.4-3.8c0.2,0.2-0.9,1.2-0.6,3.6c0.6,4.9,5.3,8.3,11.3,10.1c10.1-10,27.8-16.2,47.5-17c0.7-1.8,1.1-3.6,1.1-5.6
		C88,33.9,70.6,29.6,54.7,29.6L54.7,29.6z M91.7,52.9c-1.4,0-2.8,0-4.2,0.1c-4.8,11.4-21,18.8-36.9,18.8c-4.2,0-8.1-0.6-11.4-1.7
		c-4.9,4.8-7.7,10.7-7.9,17.4c4,0.7,8.2,1,12.5,0.7c26.6-1.1,46.3-15.1,65-33.4C103.4,53.6,97.3,52.9,91.7,52.9L91.7,52.9z
		 M48.7,69.8c15.4,0,32.1-6.6,37.4-16.7c-18.7,0.9-35.8,6.4-45.8,15.8C43,69.4,45.8,69.8,48.7,69.8z M177.1,4.8c2,0,3.3,0.6,3,1
		c-0.2,0.5-0.5-0.2-2.7-0.2c-4.7,0-10.6,3.4-16.2,10.2c-3.4,4.1-8.2,11.1-12.8,18.3c6.7-1.4,14.2-3.7,21.3-7
		C184.9,19.6,190,13.2,190,8.8c0-3.4-3-5.7-7.3-5.8c-9-0.2-18.5,4.3-24.2,8.2c-8.7,5.8-13.5,10.2-27,24.7c3.3-0.1,7.4-0.5,11.5-1.1
		c4.4-6.6,10.6-14.2,16-19.8C165,9,172,4.8,177.1,4.8L177.1,4.8z"/>
	<path class="st0" d="M133.6,82.8c-3,0-4.4-1.2-4.2-3.4c0.2-1.6,1-3.3,2.3-4.8l-0.1-0.1c-0.2,0.2-0.9,0.8-1.4,1.2
		c-0.5,0.4-0.9,0.6-1,0.5c-0.2-0.2,0.2-0.6,0.5-0.9c1-1,1.8-1.5,3-2.4c0.9-0.6,2.5-1.7,3.8-2.4c2.7-1.4,5.3-2.5,7.4-2.2
		c1.8,0.3,2.5,1.5,2.2,3c-0.3,1.5-1.7,2.7-2.7,2.7c-1.4,0-1.4-1.1-0.6-2.3c0.9-1.5,1.2-2.5,0.2-2.6c-0.9-0.2-2.7,1-5,3.4
		c-2.2,2.2-4.2,5.2-4.5,7.1c-0.2,1.2,0.6,1.8,1.8,1.8c1,0,3.8-0.5,7.4-2.9c1.5-1,3.5-2.7,4.8-3.8c0.5-0.4,0.7-0.5,0.9-0.3
		c0.2,0.2-0.2,0.6-0.6,1c-1,1-3.3,2.9-4.7,3.8C140.2,81.3,136.4,82.8,133.6,82.8L133.6,82.8z"/>
	<path class="st0" d="M150.7,82.8c-3,0-4.4-1.2-4.2-3.4c0.2-1.6,1-3.3,2.3-4.8l-0.1-0.1c-0.2,0.2-0.9,0.8-1.4,1.2
		c-0.5,0.4-0.9,0.6-1,0.5c-0.2-0.2,0.2-0.6,0.5-0.9c1-1,1.8-1.5,3-2.4c0.9-0.6,2.5-1.7,3.8-2.4c2.7-1.4,5.3-2.5,7.4-2.2
		c1.8,0.3,2.5,1.5,2.2,3c-0.3,1.5-1.7,2.7-2.7,2.7c-1.4,0-1.4-1.1-0.6-2.3c0.9-1.5,1.2-2.5,0.2-2.6c-0.9-0.2-2.7,1-5,3.4
		c-2.2,2.2-4.2,5.2-4.5,7.1c-0.2,1.2,0.6,1.8,1.8,1.8c1,0,3.8-0.5,7.4-2.9c1.5-1,3.5-2.7,4.8-3.8c0.5-0.4,0.7-0.5,0.9-0.3
		c0.2,0.2-0.2,0.6-0.6,1c-1,1-3.3,2.9-4.7,3.8C157.3,81.3,153.5,82.8,150.7,82.8L150.7,82.8z"/>
	<path class="st0" d="M165,75.4c-0.6,0.5-0.9,0.6-1,0.5c-0.2-0.2,0.2-0.6,0.6-1c0.6-0.6,1.7-1.4,2.5-2c1-0.7,2.2-1.4,3.8-2.3
		c2.3-1.2,4.8-2.1,6.6-2.2c0.6,0,1.2,0,1.2,0.3c0,0.2-0.2,0.2-0.9,0.5c-1.9,0.9-3.5,2.2-5.8,4.4c-2.3,2.3-4.5,5.4-4.6,7
		c-0.1,0.8,0.2,1.4,1.1,1.4c1.8,0,5-2.2,7.4-4.9c0.1-0.8,0.4-2,1.4-3.4c0.9-1.2,2-1.8,2.6-2.1c0.2-0.6,0.2-1.4,0.2-1.8
		c0-0.9-0.3-1.1-0.1-1.3c0.3-0.2,0.8,0.2,1.1,0.5c0.6,0.6,1.1,1.6,1,2.8c-0.2,1.9-2.1,4.2-4.6,6.5c0.3,0.2,1.2,0.1,1.5,0
		c0.7-0.2,1.6-0.6,2.7-1.4c1-0.7,1.7-1.3,2.6-2.1c0.7-0.6,1.1-1,1.4-0.8c0.2,0.2-0.2,0.7-1,1.4c-0.7,0.6-1.5,1.4-2.6,2.1
		c-1.3,0.9-2.2,1.3-3,1.4c-0.7,0.2-1.7,0.2-2.2-0.2c-2.1,1.6-5.8,3.9-9.1,3.9c-2.5,0-4-1.2-3.9-3.5c0.1-1.6,1-3.5,2.6-5.1l-0.1-0.1
		C165.8,74.6,165.5,74.9,165,75.4z"/>
	<path class="st0" d="M194.2,68.4c1.5,0,2,0.9,2,1.8c0,1-0.6,2-1.7,3.4c-1.2,1.6-2.9,3.8-3.8,5l0.1,0.1c1.9-1.6,4.6-3.9,7.4-6
		s6.3-4.3,8.6-4.3c2,0,2.8,1,2.6,2.3c-0.2,1.3-1.8,3-3.1,4.6c-1.4,1.6-2.2,2.6-2.9,3.5l0.1,0.1c1.8-1.6,4.7-4.1,7.5-6.2
		c2.8-2.1,6.3-4.3,8.7-4.3c1.8,0,2.6,0.9,2.5,2.2c-0.2,1.4-1.9,3.3-3.2,4.9c-1.3,1.5-2.2,2.8-2.6,3.5c-0.6,1-0.6,1.5-0.3,1.8
		c0.4,0.3,1.3,0,1.9-0.3c1-0.5,2.1-1.1,3.8-2.5c1.4-1,3-2.5,3.8-3.3c0.5-0.4,0.8-0.7,1-0.5c0.2,0.2-0.1,0.5-0.6,1
		c-0.7,0.7-3.1,2.9-4.8,4.2c-1.6,1.2-4.7,3.2-7.2,3.2c-1.6,0-2.5-0.7-2.4-2.1c0.1-1.8,2-3.9,3.4-5.6c1.2-1.4,2.3-2.7,3.4-3.9
		c0.3-0.4,0.5-0.9,0.1-1.1s-1.3,0.1-2.1,0.5c-1.4,0.7-3.7,2.1-6.2,4.1c-3.5,2.7-5.4,4.6-9,7.3c-0.7,0.6-1.3,0.7-2.1,0.7
		c-1.3,0-1.5-0.2-1-1.3c0.8-1.7,2.8-4.5,4.2-6.2c1.4-1.7,2.8-3.1,3.4-3.9c0.3-0.4,0.4-1-0.1-1.1c-0.5-0.2-1.1,0.1-2,0.5
		c-1.4,0.7-3.8,2.2-6.2,4.1c-3.5,2.7-5.4,4.6-9,7.3c-0.7,0.6-1.2,0.7-2.1,0.7c-1.1,0-1.7-0.2-1-1.3c0.6-1,2.3-3.7,3.5-5.4
		c1.2-1.7,2.3-3,3.2-4.2c0.6-0.7,0.7-1.1,0.6-1.4c-0.2-0.3-0.7-0.2-1.2,0.1c-1,0.5-2.2,1.4-3.1,2.2c-1,0.9-2.3,2-3.4,3
		c-0.8,0.7-1.1,1-1.4,0.7c-0.2-0.2,0.2-0.6,1.2-1.5s2.7-2.6,4.2-3.7C190.9,69.4,192.5,68.4,194.2,68.4z"/>
	<path class="st0" d="M235.1,68.4c1.5,0,2,0.9,2,1.8c0,1-0.6,2-1.7,3.4c-1.2,1.6-2.9,3.8-3.8,5l0.1,0.1c1.9-1.6,4.6-3.9,7.4-6
		s6.3-4.3,8.6-4.3c2,0,2.8,1,2.6,2.3c-0.2,1.3-1.8,3-3.1,4.6c-1.4,1.6-2.2,2.6-2.9,3.5l0.1,0.1c1.8-1.6,4.7-4.1,7.5-6.2
		c2.8-2.1,6.3-4.3,8.7-4.3c1.8,0,2.6,0.9,2.5,2.2c-0.2,1.4-1.9,3.3-3.2,4.9c-1.3,1.5-2.2,2.8-2.6,3.5c-0.6,1-0.6,1.5-0.3,1.8
		c0.4,0.3,1.3,0,1.9-0.3c1-0.5,2.1-1.1,3.8-2.5c1.4-1,3-2.5,3.8-3.3c0.5-0.4,0.8-0.7,1-0.5c0.2,0.2-0.1,0.5-0.6,1
		c-0.7,0.7-3.1,2.9-4.8,4.2c-1.6,1.2-4.7,3.2-7.2,3.2c-1.6,0-2.5-0.7-2.4-2.1c0.1-1.8,2-3.9,3.4-5.6c1.2-1.4,2.3-2.7,3.4-3.9
		c0.3-0.4,0.5-0.9,0.1-1.1s-1.3,0.1-2.1,0.5c-1.4,0.7-3.7,2.1-6.2,4.1c-3.5,2.7-5.4,4.6-9,7.3c-0.7,0.6-1.3,0.7-2.1,0.7
		c-1.3,0-1.5-0.2-1-1.3c0.8-1.7,2.8-4.5,4.2-6.2c1.4-1.7,2.8-3.1,3.4-3.9c0.3-0.4,0.4-1-0.1-1.1c-0.5-0.2-1.1,0.1-2,0.5
		c-1.4,0.7-3.8,2.2-6.2,4.1c-3.5,2.7-5.4,4.6-9,7.3c-0.7,0.6-1.2,0.7-2.1,0.7c-1.1,0-1.7-0.2-1-1.3c0.6-1,2.3-3.7,3.5-5.4
		c1.2-1.7,2.3-3,3.2-4.2c0.6-0.7,0.7-1.1,0.6-1.4c-0.2-0.3-0.7-0.2-1.2,0.1c-1,0.5-2.2,1.4-3.1,2.2c-1,0.9-2.3,2-3.4,3
		c-0.8,0.7-1.1,1-1.4,0.7c-0.2-0.2,0.2-0.6,1.2-1.5s2.7-2.6,4.2-3.7C231.8,69.4,233.4,68.4,235.1,68.4z"/>
	<path class="st0" d="M266.8,75.4c-0.6,0.5-0.9,0.6-1,0.5c-0.2-0.2,0.2-0.6,0.6-1c0.6-0.6,1.7-1.4,2.5-2c1-0.7,2.2-1.4,3.8-2.3
		c2.3-1.2,4.8-2.1,6.6-2.2c0.6,0,1.2,0,1.2,0.3c0,0.2-0.2,0.2-0.9,0.5c-1.9,0.9-3.5,2.2-5.8,4.4c-2.3,2.3-4.5,5.4-4.6,7
		c-0.1,0.8,0.2,1.4,1.1,1.4c1.8,0,5-2.2,7.4-4.9c0.1-0.8,0.4-2,1.4-3.4c0.9-1.2,2-1.8,2.6-2.1c0.2-0.6,0.2-1.4,0.2-1.8
		c0-0.9-0.3-1.1-0.1-1.3c0.3-0.2,0.8,0.2,1.1,0.5c0.6,0.6,1.1,1.6,1,2.8c-0.2,1.9-2.1,4.2-4.6,6.5c0.3,0.2,1.2,0.1,1.5,0
		c0.7-0.2,1.6-0.6,2.7-1.4c1-0.7,1.7-1.3,2.6-2.1c0.7-0.6,1.1-1,1.4-0.8c0.2,0.2-0.2,0.7-1,1.4c-0.7,0.6-1.5,1.4-2.6,2.1
		c-1.3,0.9-2.2,1.3-3,1.4c-0.7,0.2-1.7,0.2-2.2-0.2c-2.1,1.6-5.8,3.9-9.1,3.9c-2.5,0-4-1.2-3.9-3.5c0.1-1.6,1-3.5,2.6-5.1l-0.1-0.1
		C267.7,74.6,267.4,74.9,266.8,75.4z"/>
	<path class="st0" d="M308,52.8c0.6-14.8-3.5-27.3-14.8-37C286,9.7,275.4,4.6,259.4,4.6c-17.9,0-35,9-36.3,24.3
		c-1,11.3,7.8,20,23.4,20c11,0,22.5-5.4,23-14c0.2-3.4-1.1-6.6-3.7-8.6c-1.7-1.3-2.7-1.2-2.6-1.5c0.2-0.4,2.2,0.2,3.3,0.8
		c2.7,1.5,5.3,5,5,9.4c-0.6,9.3-13.4,14.7-25,14.7c-15.9,0-27.4-8.2-26.4-21c1.4-16.2,20.3-24.8,39.4-24.8
		c16.2,0,27.9,4.7,35.8,10.8c10.6,8.2,17,20.6,16.2,38.1c-0.5,11.1-5.9,20.5-11.7,25.8c-2.4,2.2-6.2,4.3-9.9,4.3
		c-2.3,0-3.9-1.3-3.9-3.4c0-2.1,1-3.8,2.4-5.3l-0.1-0.1c-0.5,0.4-1,0.9-1.8,1.5c-0.7,0.6-1,0.9-1.3,0.7c-0.2-0.2-0.1-0.4,0.2-0.7
		c0.7-0.7,2-1.8,3-2.4c1.6-1.1,3.1-2.1,5-3c1.4-0.6,4.6-2.1,7-1.8c1.6,0.2,2.1,1.9,1.8,3.2C303.9,68.9,307.6,61.5,308,52.8z
		 M298,77.1c1.3-1.4,3.3-4.7,3.3-6.5c0-0.9-0.2-1.4-1.3-1.4c-1.9,0-4.7,2.5-6.5,4.4c-2.1,2.2-4.2,5.4-4.2,7c0,1,0.6,1.3,1.3,1.3
		C293,81.9,296,79.5,298,77.1z"/>
	<path class="st0" d="M305.8,79.4c0.2-1.9,1.8-4.7,5.8-7.6c2.6-1.9,7.2-3.8,9.8-3.4c1.6,0.2,2.2,1.7,1.7,3c1.9-2,3.3-3,4.6-3
		c1.7-0.1,1.8,0.3,1,1.3c-1,1.2-2.8,3.2-4.5,5.3c-1,1.3-2.1,2.6-2.8,3.9c-0.6,1-0.6,1.6-0.2,1.8c0.4,0.3,1.2,0,1.8-0.3
		c0.8-0.4,2.3-1.4,3.6-2.5c1.7-1.4,3-2.5,3.8-3.3c0.5-0.4,0.9-0.8,1.1-0.6c0.2,0.2-0.2,0.6-1,1.4c-1,1-3,2.6-4.5,3.8
		c-1.6,1.3-4.2,3.2-6.9,3.2c-1.5,0-2.2-0.7-2.3-1.7c-0.1-0.9,0.4-2,1.1-2.9l-0.1-0.1c-2.1,1.8-5.8,4.5-8.8,4.6
		C307.4,82.7,305.6,82,305.8,79.4z M313.8,74.3c-3.3,3.2-4.6,5.3-4.5,6.3c0.1,0.6,0.5,0.8,1,0.8c1.5,0,4.6-1.8,6.7-3.8
		c2.6-2.2,5.4-5.7,5.5-7c0.1-1-0.6-1.4-1.4-1.4C319.5,69.2,316.6,71.4,313.8,74.3z"/>
	<path class="st0" d="M339.4,79.4c-1.4,1.1-4.3,3.3-7.4,3.3H332c-1.8,0-2.4-1-2.3-2.2c0.2-2,2-4.9,4.3-7.9c-1.3,1-2.2,1.9-3.2,2.8
		c-0.6,0.5-0.8,0.6-1,0.4c-0.2-0.2,0-0.5,0.6-1c2.2-1.9,4.3-3.8,5.8-5.2c-1,0-1.9,0.1-2.9,0.1c-0.6,0-1,0-0.9-0.4
		c0.1-0.3,0.9-0.4,2.2-0.5c1-0.1,1.9-0.1,2.2-0.1c1.4-1.5,3.4-4,5.2-5.9c1.9-2.1,3.8-4.1,5.8-5.8c-4,2.3-15.9,0.8-29.4-12.2
		c-10.2-9.8-18.9-18.5-35.3-18.5c-10.9,0-20.7,6.6-20.7,17.7c0,9.5,8.2,16.2,17,17c0.6,0.1,1,0,1,0.3c0,0.3-0.7,0.3-1.2,0.3
		c-9.2-0.6-19.4-7.4-19.4-17.5c0-12,11.9-18.6,24.4-18.6c17,0,27,8.6,37.2,17.8c14.1,12.8,21.6,15.4,27.2,12.5
		c1-0.9,2.6-2.6,4.1-2.6c0.9,0,1.1,0.2,1.4,0.5c-1.8,1.7-5,5.3-8.2,9c-1.8,2.1-3.4,3.8-5,5.9c1.8-0.1,3.3-0.1,4.6-0.1
		c0.6,0,1.2,0.1,1.1,0.5c-0.1,0.5-0.8,0.4-1.4,0.4c-1.8,0-3,0-4.9,0.1c-1.6,1.9-4.3,6-5.8,8.8c-0.5,0.9-0.7,2-0.1,2.3
		c0.5,0.2,1.4,0,2-0.3c1-0.5,2.3-1.4,3.6-2.4c1.4-1.1,2.9-2.4,3.8-3.2c0.4-0.3,0.9-0.8,1.1-0.6c0.2,0.2,0,0.4-0.6,1
		C343.3,76.2,341.1,78.1,339.4,79.4z"/>
	<path class="st0" d="M346.9,73.1c-1.2,1-2.1,1.7-2.9,2.4c-0.6,0.6-1,0.8-1.2,0.6c-0.2-0.2,0-0.5,0.9-1.3s3.8-3.2,5.7-4.5
		c2.1-1.4,3.1-1.8,4.6-1.8c1.7,0,1.8,0.2,0.9,1.3c-1.4,1.6-2.7,3.1-4.3,5.1c-1.4,1.7-2.3,3.1-2.8,3.9c-0.5,0.9-0.6,1.4-0.2,1.8
		c0.4,0.3,1.1,0.2,1.9-0.2c0.8-0.4,2.2-1.3,3.5-2.4c1.7-1.4,2.4-2,3.7-3.2c0.7-0.6,1-1,1.3-0.7s-0.6,1-0.9,1.3c-1,1-3,2.7-4.6,4
		c-1.6,1.3-4.3,3.3-7,3.3c-1.7,0-2.4-0.8-2.4-2.1c0-1,0.6-2.1,1.2-3c1.6-2.5,4.7-5.8,6-6.9C349.8,70.9,348.1,72.1,346.9,73.1z
		 M361.5,57.8c1,0,1.5,0.9,0.6,2.1c-1,1.3-3,2.2-3.8,2.2c-0.4-0.5-0.5-1.7-0.1-2.7C358.7,58.1,359.9,57.8,361.5,57.8L361.5,57.8z"/>
	<path class="st0" d="M357,75.4c-0.6,0.5-0.9,0.6-1,0.5c-0.2-0.2,0.2-0.6,0.6-1c0.6-0.6,1.7-1.4,2.5-2c1-0.7,2.2-1.4,3.8-2.3
		c2.3-1.2,4.8-2.1,6.6-2.2c0.6,0,1.2,0,1.2,0.3c0,0.2-0.2,0.2-0.9,0.5c-1.9,0.9-3.5,2.2-5.8,4.4c-2.3,2.3-4.5,5.4-4.6,7
		c-0.1,0.8,0.2,1.4,1.1,1.4c1.8,0,5-2.2,7.4-4.9c0.1-0.8,0.4-2,1.4-3.4c0.9-1.2,2-1.8,2.6-2.1c0.2-0.6,0.2-1.4,0.2-1.8
		c0-0.9-0.3-1.1-0.1-1.3c0.3-0.2,0.8,0.2,1.1,0.5c0.6,0.6,1.1,1.6,1,2.8c-0.2,1.9-2.1,4.2-4.6,6.5c0.3,0.2,1.2,0.1,1.5,0
		c0.7-0.2,1.6-0.6,2.7-1.4c1-0.7,1.7-1.3,2.6-2.1c0.7-0.6,1.1-1,1.4-0.8c0.2,0.2-0.2,0.7-1,1.4c-0.7,0.6-1.5,1.4-2.6,2.1
		c-1.3,0.9-2.2,1.3-3,1.4c-0.7,0.2-1.7,0.2-2.2-0.2c-2.1,1.6-5.8,3.9-9.1,3.9c-2.5,0-4-1.2-3.9-3.5c0.1-1.6,1-3.5,2.6-5.1l-0.1-0.1
		C357.9,74.6,357.6,74.9,357,75.4z"/>
	<path class="st0" d="M399,68.4c1.7,0,2.6,0.8,2.5,2.2c-0.2,1.4-1.6,3-3.8,5.7c-1.2,1.5-1.9,3-2.1,3.9c-0.2,1.3,0.2,2.5,1.8,3
		c1.9,0.7,4.9,0.6,7.4,0.4c2.5-5.9,6-10.2,7.4-11.8c3.8-4.4,9.3-8.9,15-8.9c2.8,0,4.6,1.9,4.4,4.5c-0.4,4.5-5.1,8.4-9.4,11.1
		c-3.2,2-10.1,5.1-16.9,5.8c-1.6,3.6-2.7,7.8-2.6,12c0,0.5-0.1,0.6-0.2,0.6h-0.1c-0.1,0-0.2-0.2-0.2-0.8c-0.1-4.2,1-8.3,2.3-11.8
		c-2.7,0.2-6.6,0.6-9.8-0.3c-2.3-0.6-3.4-2.1-3.2-3.8c0.1-1.1,0.7-2.7,2.1-4.5c1.3-1.7,2.9-3.5,3.9-4.7c0.3-0.4,0.5-0.9,0.1-1.1
		c-0.4-0.2-1.4,0.2-2.1,0.5c-1.4,0.7-3.7,2.1-6.2,4.1c-3.5,2.7-5.4,4.6-9,7.3c-0.7,0.6-1.2,0.7-2.1,0.7c-1.1,0-1.7-0.2-1-1.3
		c0.6-1,2.2-3.7,3.5-5.4c0.9-1.2,2.3-3,3.2-4.2c0.6-0.7,0.7-1.1,0.6-1.4c-0.2-0.3-0.7-0.2-1.2,0.1c-1,0.5-2.2,1.4-3.1,2.2
		c-1,0.9-2.3,2-3.4,3c-0.8,0.7-1.1,1-1.4,0.7c-0.2-0.2,0.2-0.6,1.2-1.5s2.7-2.6,4.2-3.7c2.2-1.7,3.8-2.6,5.4-2.6c1.5,0,2,0.9,2,1.8
		c0,1-0.6,2-1.7,3.4c-1.2,1.6-2.9,3.8-3.8,5l0.1,0.1c1.9-1.6,4.6-3.9,7.4-6S396.6,68.4,399,68.4z M421.7,77.9
		c4.2-2.7,7.7-6.7,8.1-10.6c0.2-2-0.8-3.7-3.2-3.7c-5.2,0-10.2,4.5-13.8,8.6c-1.4,1.5-4.6,5.8-7,11.3
		C412.4,82.9,418.7,79.8,421.7,77.9z"/>
</g>
</svg>
