<?xml version="1.0" encoding="utf-8"?>
<!-- Generator: Adobe Illustrator 23.0.2, SVG Export Plug-In . SVG Version: 6.00 Build 0)  -->
<svg version="1.1" id="Layer_1" xmlns="http://www.w3.org/2000/svg" xmlns:xlink="http://www.w3.org/1999/xlink" x="0px" y="0px"
	 viewBox="0 0 182.5 61.7" style="enable-background:new 0 0 182.5 61.7;" xml:space="preserve">
<style type="text/css">
	.st0{fill:#231F20;stroke-width: 0}
</style>
<g>
	<path class="st0" d="M30.6,25.4c1.1-0.3,2.8-0.6,4.2-0.7c5-0.3,10.2,1.1,9.3,6c-0.9,5-9.3,7.4-15.4,7.4c-4.5,0-9.2-1-12.1-3.2
		C10.6,40.3,6.3,47.5,6.3,52.7c0,4.6,2.9,6.5,6.9,6.5c4.7,0,8.5-2.1,11.6-4.2c2.1-1.4,4-3.1,5-4c1.1-1,1.5-1.4,1.8-1.1
		c0.2,0.2-0.2,0.6-0.6,1c-1.9,1.8-4,3.6-5.8,4.8c-3.3,2.3-7.4,4.3-12.1,4.6c-6.6,0.2-11.3-2.2-11.5-8.1c-0.2-7,6.5-14.6,13.1-19.4
		c-1.1-1.4-2-3.2-2-5c0-4.5,3.8-7.4,8.2-7.4C24.6,20.3,28.4,22.3,30.6,25.4z M13.6,27.9c0,1.5,0.6,3.1,1.6,4.5
		c4.3-2.9,9.6-5.4,14.1-6.6c-2.5-2.7-5.8-4.3-9.2-4.3C16.7,21.4,13.6,23.9,13.6,27.9z M41.1,30.5c0.8-3.7-1.8-5.4-6-5.3
		c-1.2,0-3.3,0.4-4.2,0.8c0.6,1.1,1.2,3,1.4,4.4c0.2,1.3,0,2.1-0.2,2c-0.2-0.1-0.1-0.5-0.3-1.6c-0.3-1.6-1.2-3.4-1.9-4.4
		c-4.2,1.6-9,4.7-12.5,7.8c2.8,2.1,7.3,3,11.6,3C34.7,37.2,40.3,34.4,41.1,30.5z"/>
	<path class="st0" d="M45.3,53.8c0.7-0.2,1.6-0.5,2.7-1.3c1-0.7,1.7-1.3,2.6-2.1c0.7-0.6,1.1-1,1.4-0.8s-0.2,0.7-1,1.4
		c-0.7,0.6-1.5,1.4-2.6,2.1c-1.3,0.9-2.6,1.3-3.4,1.4s-1.4,0-1.8-0.1c-2.8,2.2-6.3,3.9-9.6,3.9h-0.1c-2.4,0-3.7-1.3-3.7-3.5
		c0.1-1.6,1.1-3.5,2.6-5.1l-0.1-0.1c-0.6,0.5-0.9,0.8-1.4,1.3c-0.6,0.5-0.9,0.6-1,0.5c-0.2-0.2,0.2-0.6,0.6-1c0.6-0.6,1.7-1.4,2.5-2
		c1-0.7,2.2-1.4,3.8-2.3c2.2-1.1,5.7-2.3,8-2.2c2.2,0.2,3.4,1.5,3.2,3.5c-0.2,1.9-1.7,4.2-4.2,6.5C44.2,53.9,45,53.9,45.3,53.8z
		 M34.3,57.5c1.6,0,4.3-1.9,6.7-4.2c-0.9-0.7-1.5-1.6-1.8-2.9c-0.2-1.2,0.1-2.7,0.8-3.8L40,46.7c-0.6,0.5-1.2,1-2,1.8
		c-2.2,2.3-4.6,6.1-4.8,7.7C33.1,57,33.4,57.5,34.3,57.5L34.3,57.5z M45.2,48.3c0.4-0.6,0.8-1.9,0.6-2.7c-0.1-0.6-0.6-1-1.3-1
		c-0.9-0.1-1.8,0.2-2.6,0.8c-1.4,1.1-2.3,3.2-2,5c0.2,1.2,0.8,2,1.6,2.6C43.5,51.1,44.6,49.4,45.2,48.3z"/>
	<path class="st0" d="M60.9,44.1c1.6-0.1,1.8,0.2,0.9,1.3c-1.4,1.5-2.3,2.7-3.1,3.8c-1.3,1.6-2.9,3.8-3.8,5l0.1,0.1
		c1.9-1.6,4.6-3.9,7.4-6c2.8-2.1,6.3-4.3,8.7-4.3c1.7,0,2.6,0.8,2.5,2.2c-0.2,1.4-1.9,3.3-3.2,4.9c-1.3,1.5-2.2,2.9-2.6,3.5
		c-0.6,1-0.6,1.5-0.3,1.8c0.4,0.3,1.3,0,1.9-0.3c1-0.5,2.1-1.1,3.8-2.5c1.4-1,3-2.5,3.8-3.3c0.6-0.6,0.9-0.6,1-0.5
		c0.2,0.2-0.1,0.5-0.6,1c-0.7,0.7-3.1,2.9-4.8,4.2c-1.6,1.2-4.7,3.2-7.2,3.2c-1.5,0-2.5-0.7-2.4-2.1c0.1-1.8,1.8-3.8,3.4-5.6
		c1.2-1.4,2.4-2.8,3.4-3.9c0.3-0.4,0.5-0.9,0.1-1.1c-0.4-0.2-1.3,0.1-2.1,0.5c-1.4,0.7-3.7,2.1-6.2,4.1c-3.5,2.7-5.4,4.6-9,7.3
		c-0.7,0.6-1.2,0.7-2.1,0.7h-0.1c-1,0-1.6-0.2-1-1.3c0.8-1.5,2.1-3.4,3.5-5.4c1.3-1.7,2.7-3.5,4.3-5.1c-0.6,0.2-2,1.3-3.1,2.2
		c-0.8,0.6-2,1.6-3.2,2.7c-0.7,0.6-1.1,0.8-1.3,0.6s0.1-0.5,0.3-0.7c1.8-1.7,4.2-3.7,6.2-5.1S59.4,44.2,60.9,44.1z"/>
	<path class="st0" d="M85.9,54.9c-1.4,1.1-4.3,3.3-7.4,3.3h-0.1c-1.8,0-2.4-1-2.3-2.2c0.2-2,2-4.9,4.3-7.9c-1.3,1-2.2,1.9-3.2,2.8
		c-0.6,0.5-0.8,0.6-1,0.4c-0.2-0.2,0-0.5,0.6-1c2.2-1.9,4.3-3.8,5.8-5.2c-1,0-1.9,0.1-2.9,0.1c-0.6,0-1,0-0.9-0.4
		c0.1-0.3,0.9-0.4,2.2-0.5c1-0.1,1.9-0.1,2.2-0.1c1.4-1.5,3.4-4,5.2-5.9c1.9-2.1,3.8-4.1,5.8-5.8c-4,2.3-15.9,0.8-29.4-12.2
		C54.7,10.5,46,1.8,29.6,1.8C18.7,1.8,8.9,8.3,8.9,19.5c0,9.5,8.2,16.2,17,17c0.6,0.1,1,0,1,0.3c0,0.3-0.7,0.3-1.2,0.3
		c-9.2-0.6-19.4-7.4-19.4-17.5c0-12,11.9-18.6,24.4-18.6c17,0,27,8.6,37.2,17.8c14.1,12.8,21.6,15.4,27.2,12.5
		c1-0.9,2.6-2.6,4.1-2.6c0.9,0,1.1,0.2,1.4,0.5c-1.8,1.7-5,5.3-8.2,9c-1.8,2.1-3.4,3.8-5,5.9c1.8-0.1,3.3-0.1,4.6-0.1
		c0.6,0,1.2,0.1,1.1,0.5C93,45.1,92.3,45,91.6,45c-1.8,0-3,0-4.9,0.1c-1.6,1.9-4.3,6-5.8,8.8c-0.5,0.9-0.7,2-0.1,2.3
		c0.5,0.2,1.4,0,2-0.3c1-0.5,2.3-1.4,3.6-2.4c1.4-1.1,2.9-2.4,3.8-3.2c0.4-0.3,0.9-0.8,1.1-0.6c0.2,0.2,0,0.4-0.6,1
		C89.8,51.7,87.6,53.6,85.9,54.9z"/>
	<path class="st0" d="M110.5,43.9c1.7-0.1,1.8,0.3,1,1.3c-1,1.2-2.8,3.2-4.5,5.3c-1,1.3-2.1,2.6-2.8,3.9c-0.6,1-0.6,1.6-0.2,1.8
		c0.4,0.3,1.2,0,1.8-0.3c0.8-0.4,2.3-1.4,3.6-2.5c1.7-1.4,3-2.5,3.8-3.3c0.5-0.4,0.9-0.8,1.1-0.6c0.2,0.2-0.2,0.6-1,1.4
		c-1,1-3,2.6-4.5,3.8c-1.6,1.3-4.2,3.2-6.9,3.2c-1.5,0-2.2-0.7-2.3-1.7c-0.1-0.9,0.4-2,1.1-2.9l-0.1-0.1c-2.1,1.8-5.8,4.5-8.8,4.6
		c-1.8,0.1-3.6-0.6-3.3-3.2c0.2-1.2,0.8-2.5,2.2-4.2l-0.1-0.1c-0.2,0.2-0.6,0.6-1,1c-0.3,0.2-0.6,0.4-0.7,0.2
		c-0.2-0.2,0.2-0.7,1.1-1.5c0.2-0.2,1.6-1.4,2.4-1.9c0.8-0.6,2.2-1.4,3.7-2.2c3.1-1.6,5.9-2.6,8-2.2c1.6,0.2,2.2,1.7,1.7,3
		C107.9,45,109.2,43.9,110.5,43.9z M96.6,49.8c-3.3,3.2-4.6,5.3-4.5,6.3c0.1,0.6,0.5,0.8,1,0.8c1.5,0,4.6-1.8,6.7-3.8
		c2.6-2.2,5.4-5.7,5.5-7c0.1-1-0.6-1.4-1.4-1.4C102.3,44.7,99.5,46.9,96.6,49.8z"/>
	<path class="st0" d="M116.4,58.3c-3,0-4.4-1.2-4.2-3.4c0.2-1.6,1-3.3,2.3-4.8l-0.1-0.1c-0.2,0.2-0.9,0.8-1.4,1.2
		c-0.5,0.4-0.9,0.6-1,0.5c-0.2-0.2,0.2-0.6,0.5-0.9c1-1,1.8-1.5,3-2.4c0.9-0.6,2.5-1.7,3.8-2.4c2.7-1.4,5.3-2.5,7.4-2.2
		c1.8,0.3,2.5,1.5,2.2,3c-0.3,1.5-1.7,2.7-2.7,2.7c-1.4,0-1.4-1.1-0.6-2.3c0.9-1.5,1.2-2.5,0.2-2.6c-0.9-0.2-2.7,1-5,3.4
		c-2.2,2.2-4.2,5.2-4.5,7.1c-0.2,1.2,0.6,1.8,1.8,1.8c1,0,3.8-0.5,7.4-2.9c1.5-1,3.5-2.7,4.8-3.8c0.5-0.4,0.7-0.5,0.9-0.3
		c0.2,0.2-0.2,0.6-0.6,1c-1,1-3.3,2.9-4.7,3.8C123,56.8,119.2,58.3,116.4,58.3L116.4,58.3z"/>
	<path class="st0" d="M133.9,48c-1.3,1-2.2,1.9-3.2,2.8c-0.6,0.5-0.8,0.6-1,0.4c-0.2-0.2,0-0.5,0.6-1c2.2-1.9,4.3-3.8,5.8-5.2
		c0.2-0.2,0.7-0.8,1-1.1c-1.8,0.1-3.6,0.3-5,1c-0.3,0.2-0.8,0.6-0.9,0.9c-0.2-0.2-0.1-0.8,0.4-1.3c1-1,3.3-1.5,6.4-1.8
		c0.7-0.8,1.5-1.8,2.2-2.6c1.3-1.5,4.2-5,6.8-7.2c1.2-1,2.4-1.8,3.8-1.8c0.6,0,0.9,0.2,1,0.5c-1.8,1.8-4.2,4.2-6.5,7
		c-1.1,1.3-2.2,2.6-3.3,4c5.3-0.2,15-0.1,23.3,0c0.6-2,1.1-4.3,1.1-6.7c0-8.7-6.3-12.2-12.6-12.2c-1.4,0-3.1,0.2-4.1,0.7
		c-0.6,0.3-0.9,0.5-1,0.3c-0.1-0.2,0.3-0.6,0.8-0.8c1-0.5,2.6-1,4.4-1c7.5-0.3,14.9,3.4,14.9,12.9c0,2.6-0.6,4.9-1.4,6.8
		c5.7,0.1,10.3,0.2,12,0.3c1.1,0.1,1.8,0.2,1.8,0.5s-1,0.3-2.2,0.3c-3.4,0-7.6,0-12.1,0c-0.9,1.7-1.8,3.1-2.8,4.3
		c-2.7,3.4-7.4,6.9-11.7,9c-3,1.5-7.7,3.3-13,3.4c-6,0.2-9.4-1.3-9.4-5.4C130.3,53.7,130.9,51.2,133.9,48L133.9,48z M140,59.8
		c4.6,0,9.4-1.8,12.3-3.3c3.7-1.8,8.2-5.8,10.5-9c0.7-1,1.4-2.3,2.1-3.8c-8.6-0.1-17.8-0.1-23.8,0c-2.2,2.6-4.1,5.3-5.3,7.1
		c-1,1.4-1.7,3.4-1.7,4.7C134.2,57.7,135.2,59.8,140,59.8L140,59.8z"/>
</g>
</svg>
