<?xml version="1.0" encoding="utf-8"?>
<svg version="1.1" id="fern-1" xmlns="http://www.w3.org/2000/svg" xmlns:xlink="http://www.w3.org/1999/xlink" x="0px" y="0px"
	 viewBox="0 0 93.5 117.6" style="enable-background:new 0 0 93.5 117.6;" xml:space="preserve">
<style type="text/css">
	.fern-one{fill:none;stroke:inherit;stroke-width:0.25;stroke-miterlimit:10;}
</style>
<g>
	<path class="fern-one" d="M82.2,80.4c-1.2,1.6-2.5,3.2-3.7,4.8c-0.5-0.5-0.4-0.9-0.2-1.3c0.6-0.5,0.6-1,0-1.5c0,0,0,0,0,0
		c0.7-0.6,0.4-1.3,0.4-2c0-3-0.4-6,0-8.9c0.8-5.4,2.3-10.7,2.7-16.1c0.1-1.1,0.5-2.3-0.3-3.3c0,0,0-0.1,0-0.1c0.5-0.3,0.5-0.6,0-0.8
		c0,0,0-0.1,0-0.1c0.8-0.4,0.7-0.9,0.1-1.4c0,0,0.1,0.1,0.1,0.1c0-0.2,0-0.4,0-0.5c0,0,0,0.1,0,0.1c0-0.2,0-0.4,0-0.5c0,0,0,0,0,0
		c0.3-0.4,0.6-0.8,0-1.1c0,0,0.1-0.1,0.1-0.1c0.2-0.3,0.1-0.5-0.1-0.7c0,0,0,0,0,0c0-0.2,0-0.4,0-0.5c0,0,0,0.1,0,0.1
		c0-0.2,0-0.4-0.1-0.6c0-0.1,0-0.3,0-0.4c0-0.2,0-0.4,0-0.6c0,0,0,0.1,0,0.1c0-0.2-0.1-0.4-0.1-0.6c-0.1-0.4-0.2-0.7-0.3-1.2
		c-2.4,2.6-4.4,5.3-5.8,8.4c-0.3,0.7-0.5,1.5-1.1,2.1c-0.1,0-0.2,0-0.3,0c0.1,0,0.2,0,0.2,0c0,0.1,0,0.2,0,0.3c-0.8,0-1,0.6-1.2,1.2
		c-0.7,2.2-1.8,4.2-2.7,6.3c-0.3,0.7-1,1.3-0.5,2.1c-0.6,1-1.2,2-1.8,3c-0.1,0-0.2,0-0.3,0c-0.3-0.3-0.4-0.6-0.5-1
		c0.2-0.3,0.1-0.6-0.2-0.8c0,0,0,0.1,0,0.1c0.1-0.3,0-0.6-0.2-0.8c0,0,0,0,0,0c0.6-0.5,0.4-1.2,0.3-1.9c-0.3-2.8-0.2-5.6,1.1-8.1
		c2.8-5.7,7.1-10.2,12.6-13.4c0.4-0.2,1-0.3,1.1-0.9c1.8-1.2,3.9-1.6,5.9-2.2c-1.6,1.1-3,2.4-4.6,3.5c-0.9,0.7-1.2,1.3-0.7,2.5
		c1.2,2.9,2.5,5.8,2.9,9c-0.4,0.4-0.3,0.8-0.2,1.3c0.5,2.1,0.8,4.2,0.9,6.3c0.4,6.6,0.6,13.2-3.6,18.9
		C82.1,79.3,81.7,79.8,82.2,80.4z M83.1,66.2c0-0.1-0.1-0.2-0.1-0.2c0,0.1-0.1,0.2-0.1,0.2c0,0.1,0.1,0.2,0.1,0.2
		C83,66.4,83.1,66.3,83.1,66.2z M83.3,65.1c0-0.2,0-0.3,0-0.5c0-0.2,0-0.3,0-0.5c0-0.2,0-0.3,0-0.5c0.1-0.2,0.1-0.5,0.2-0.7
		c0-0.2,0-0.3,0-0.5c0-0.2,0-0.3,0-0.5c0-0.2,0-0.3,0-0.5c0-0.2,0-0.3,0-0.5c0-0.2,0-0.3,0-0.5c0-0.2,0-0.3,0-0.5c0-0.2,0-0.3,0-0.5
		c0-0.2,0-0.3,0-0.5c0-0.2,0-0.3,0-0.5c0-0.2,0-0.3,0-0.5c0.3-0.5,0.3-1-0.1-1.4c0-0.2,0-0.3,0-0.5c0-0.2,0-0.3,0-0.5
		c0-0.2,0-0.3,0-0.5c0-0.2,0-0.3,0-0.5c0-0.2,0-0.3,0-0.5c0-0.1-0.1-0.1-0.1-0.2c0,0.1,0,0.1-0.1,0.2c0,0.2,0,0.3,0,0.5
		c0,0.2,0,0.3,0,0.5c0,0.2,0,0.3,0,0.5c0,0.2,0,0.3,0,0.5c0,0.2,0,0.3,0,0.5c0,0.5,0,1,0,1.4c0,0.2,0,0.3,0,0.5c0,0.2,0,0.3,0,0.5
		c0,0.2,0,0.3,0,0.5c0,0.2,0,0.3,0,0.5c0,0.2,0,0.3,0,0.5c0,0.2,0,0.3,0,0.5c0,0.2,0,0.3,0,0.5c0,0.2,0,0.3,0,0.5c0,0.2,0,0.3,0,0.5
		c0,0.2,0,0.3,0,0.5c-0.1,0.2-0.1,0.5-0.2,0.7c0,0.2,0,0.3,0,0.5c0,0.2,0,0.3,0,0.5c0,0.2,0,0.3,0,0.5c0,0.1,0,0.1,0.1,0.2
		C83.2,65.2,83.2,65.1,83.3,65.1z M69.7,56.8c0-0.1,0.1-0.2,0.1-0.4c0,0-0.1,0-0.1,0C69.7,56.6,69.6,56.7,69.7,56.8
		c-0.1,0-0.1,0.1-0.1,0.1c0,0,0.1,0,0.1,0C69.7,56.9,69.7,56.9,69.7,56.8z M69,59c0-0.1,0.1-0.2,0.1-0.3c0,0-0.1,0-0.1,0
		C69,58.7,68.9,58.9,69,59c-0.1,0.2-0.1,0.3-0.1,0.5c-0.1,0.2-0.2,0.5-0.3,0.7c0,0.1,0,0.1,0,0.2c0,0,0.1,0,0.1,0c0,0,0-0.1,0-0.1
		c0.1-0.2,0.1-0.5,0.2-0.7C69,59.3,69,59.1,69,59z M81,76.9c0-0.1,0.1-0.3,0.1-0.4c0,0-0.1,0-0.1,0c0,0.1-0.1,0.3-0.1,0.4
		c0,0.1,0.1,0.1,0.1,0.2C81,77.1,81,77,81,76.9z M80.6,78.1c-0.1,0.2-0.1,0.5-0.2,0.7c-0.1,0.2-0.2,0.5-0.3,0.7
		c0,0.1-0.1,0.3-0.1,0.4c0,0,0.1,0,0.1,0c0.1-0.1,0.1-0.3,0.1-0.4c0.1-0.2,0.1-0.5,0.2-0.7c0.1-0.2,0.2-0.5,0.3-0.7
		c0-0.1,0-0.1,0-0.2c0,0-0.1,0-0.1,0C80.6,78,80.6,78.1,80.6,78.1z M70.4,55.2c2.2-4.3,4.5-8.6,8.2-11.9c-1.4,1.2-2.8,2.3-3.9,3.7
		c-1.9,2.5-3.7,5-4.4,8.1c0,0.1,0,0.3-0.1,0.4C70.3,55.4,70.3,55.3,70.4,55.2z"/>
	<path class="fern-one" d="M66.2,49.7c-0.9,1.2-1.7,2.3-2.6,3.5c-0.4,0.6-0.6,0.3-0.6-0.2c0.1-0.1,0.2-0.2,0.4-0.3
		c0.3-0.3,0.4-0.8,0.3-1.2c0.1-0.2,0.1-0.5,0.2-0.7c0.1-0.2,0.3-0.4,0.1-0.6c0,0-0.1,0-0.2,0c-0.2,0.2-0.1,0.4,0.1,0.6
		c-0.1,0.2-0.2,0.5-0.2,0.7c-0.1,0.1-0.2,0.1-0.3,0.2c-0.3-0.3-0.6-0.6-0.9-0.9c0,0,0,0,0,0c0.4-0.4,0.2-0.8,0.2-1.3
		c-0.3-3.9-1.2-7.8-1.1-11.8c0.1-3,0.4-6.1-0.5-9.2c-1.1-4-2.4-7.9-2-12.1c0-0.4-0.1-0.8-0.5-1c0,0,0,0,0,0c0.3-0.2,0.4-0.4,0.2-0.8
		c0,0,0,0,0,0c0.7-0.4,0.6-0.9,0.1-1.4c0,0,0,0,0,0c0.2-0.2,0.3-0.4,0.2-0.8c0,0-0.1,0-0.1,0c0.8-0.9,1-1.9,0.7-3.1c0,0,0.1,0,0.1,0
		c0-0.2,0-0.4,0-0.5c0.4-2,1.2-3.9,2.1-5.7c0.1,0,0.3,0.1,0.4,0.1c-0.7,5.9-0.3,11.7,1.7,17.3c-1,1.4,0.2,2.6,0.8,3.5
		c2.7,4.2,3.6,8.8,3.9,13.6c0.2,3.4-0.9,6.4-2.1,9.5C66.2,47.9,65.3,48.8,66.2,49.7z M65,40c0-0.2,0-0.3,0-0.5c0-0.2,0-0.3,0-0.5
		c0-0.2,0-0.3,0-0.5c0-0.2,0-0.3,0-0.5c0-0.2,0-0.3,0-0.5c0-0.2,0-0.3,0-0.5c0-0.2,0-0.3,0-0.5c0.3-0.3,0.3-0.6,0-1c0,0,0-0.1,0-0.1
		c0,0-0.1,0-0.1,0c0,0,0,0.1,0,0.1c0,0.3,0,0.6,0,1c0,0.2,0,0.3,0,0.5c0,0.2,0,0.3,0,0.5c0,0.2,0,0.3,0,0.5c0,0.2,0,0.3,0,0.5
		c0,0.2,0,0.3,0,0.5c0,0.2,0,0.3,0,0.5C65,39.7,65,39.9,65,40c-0.1,0-0.1,0.1-0.1,0.1c0,0,0.1,0,0.1,0C65.1,40.1,65,40.1,65,40z
		 M61.1,20.1c0,0,0-0.1,0-0.1c0,0-0.1,0-0.1,0C61,20,61,20.1,61.1,20.1c-0.1,0-0.1,0.1-0.1,0.1c0,0,0.1,0,0.1,0
		C61.1,20.2,61.1,20.2,61.1,20.1z M61.8,22.7c-0.1-0.2-0.2-0.5-0.2-0.7c0.1-0.4,0.2-0.7-0.4-0.9c-0.2,0.4,0.1,0.6,0.3,0.9
		C61.6,22.3,61.7,22.5,61.8,22.7c-0.1,0-0.1,0.1-0.1,0.1c0,0,0.1,0,0.1,0C61.8,22.8,61.8,22.8,61.8,22.7z M60.6,17.3
		c0.1,0.2,0.2,0.5,0.2,0.7c0,0.2,0,0.3,0,0.5c-0.1,0.2-0.3,0.4,0,0.6c0.3-0.2,0.1-0.4,0-0.6c0-0.2,0-0.3,0-0.5
		C60.7,17.8,60.7,17.5,60.6,17.3c0,0,0-0.1,0-0.1C60.5,17.2,60.5,17.2,60.6,17.3z M62.5,24.9C62.5,25,62.6,25.1,62.5,24.9
		C62.6,25.1,62.6,25,62.5,24.9C62.5,24.7,62.5,24.6,62.5,24.9C62.4,24.6,62.5,24.8,62.5,24.9z M64.2,29.4c0-1.2-0.3-2.3-1.2-3.2
		C63.2,27.3,63.4,28.4,64.2,29.4c0,0,0,0.1,0,0.1C64.2,29.4,64.2,29.4,64.2,29.4z"/>
	<path class="fern-one" d="M56.2,50.8c1.6,2.5,3.2,5,4.8,7.4c0.2,0.3,0.1,1.2,1,0.6c0.1,0,0.2,0,0.2,0c-0.2,0.8-0.1,1.5,0.3,2.2
		c1.5,2.6,2.9,5.3,4.3,7.9c0.8-0.1,0.5-0.9,1-1.2l0,0c0.1,0.6,0.2,1.2-0.2,1.7c-0.1,0-0.2-0.1-0.4-0.1c0,0,0,0.1,0,0.1
		c0.1,0,0.2-0.1,0.4-0.1c1.9,6.2,5,12,7,18.2c1.8,5.6,3.8,11.1,4.7,16.9c-0.6-0.1-1.2-0.2-1.8-0.4c-3.2-3.9-7-7.2-10.8-10.5
		c-3.9-3.3-8.1-6.1-12.5-8.7c-1.3-0.8-2.7-1.4-4.2-1.6c0.4-0.4,0-0.5-0.5-0.7c0.2,0.3,0.4,0.5,0.5,0.7c-0.1,0.1-0.2,0.2-0.2,0.3
		c-0.2,0-0.5,0.1-0.7,0.1c-0.2-0.1-0.3-0.3-0.5-0.4c0,0,0,0,0,0c1-0.9-0.4-0.9-0.5-1.4c-0.9-1-2.2-1-3.4-1.4
		c-2.1-0.9-4.3-1.5-6.5-2.1c-0.7-0.2-1.3-0.4-1.7-0.9c0,0,0,0,0,0c2.1-0.5,3.9,0.5,5.8,1.1c6.1,1.9,11.7,4.9,17.1,8.4
		c0.3,0.2,0.5,0.4,0.9,0.3c1.5,1.7,3.4,2.7,5.3,3.8c-0.1,0.3,0.1,0.5,0.3,0.7c4.5,3,8,7.1,11.8,10.9c0.1,0.1,0.2,0.1,0.3,0.2
		c0,0,0,0.1,0,0.1c0,0,0-0.1,0-0.1c-1.4-7-3.8-13.7-6.3-20.4C68.8,75,65.5,67.9,61.5,61c-2.1-3.5-4.3-7-6.6-10.3
		c-2.3-3.3-4.7-6.5-7.2-9.7c-0.3-0.4-0.6-0.7-1.1-0.3c-0.1-0.1-0.2-0.2-0.3-0.2c0.2-0.8-0.2-1.2-0.7-1.6c-0.2-0.2-0.3-0.3-0.5-0.5
		c-0.3-0.3-0.6-0.7-0.9-1c-0.4-1.4-2.1-1.5-2.7-2.7c0.7,0.1,0.6-0.2,0.2-0.6c-3.4-3.3-6.9-6.6-10.7-9.5c-1.4-1.1-2.9-2.3-4.3-3.4
		c-0.1-0.2-0.2-0.5-0.2-0.7c0,0,0.1-0.1,0.1-0.1l0.1-0.1c3.8,2.5,7.4,5.2,10.7,8.3c5.8,5.5,11.3,11.3,15.9,18
		c0.4,0.6,0.9,1.2,1.4,1.9C54.8,49.3,54.9,50.4,56.2,50.8z"/>
	<path class="fern-one" d="M47.2,69.6c6.5,2.9,12.1,7.1,17.1,12.1c2.6,2.7,3.3,6.1,3.4,9.7c0,0.1-0.1,0.3-0.2,0.4c0,0-0.2-0.1-0.3-0.1
		c-0.1,0-0.1-0.1-0.1-0.2c0.3-0.7-0.2-1.2-0.5-1.7C64,86,61.1,82.5,58.1,79c-1.2-1.4-2.6-2.6-3.9-3.9c2.2,2.9,4.7,5.5,7,8.3
		c1.8,2.2,3.6,4.5,4.9,7.1c-1.8-1.1-3.7-2.1-5-3.8c-2.3-3-4.4-6.3-6.7-9.4c-1.4-1.8-2.6-3.9-4.8-5c0,0-0.1,0.1-0.1,0.1
		C48.9,71.4,47.5,71,47.2,69.6z"/>
	<path class="fern-one" d="M58.3,63.7c-1.6,0.5-3.2,0.7-5,0.6c4.3,2.2,7.4,5.7,10.5,9.2c0.6,0.7,0.6,0.7,0,1.1c-0.1-0.1-0.1-0.1-0.2-0.2
		c0-0.5-0.2-0.7-0.7-0.7l0,0c-1.4-1.1-3-1.8-4.7-2.3c1.3,0.8,2.7,1.7,4,2.5c-0.4,0.1-0.8,0.3-1.2,0.4c0,0,0,0,0,0
		c-0.4-0.6-1-1-1.8-1.1c-0.8-0.1-1.6-0.4-2.4-0.7c-5.6-1.9-9.5-6.1-13.5-10.1c1.7-0.7,3.5-0.4,5.2-0.2c2.9,0.4,5.8,1.7,8.8,1
		C57.7,63.2,58.2,63,58.3,63.7z M46,62.7c3.3,3.1,7,5.6,11,7.7C53.3,68,49.6,65.4,46,62.7z"/>
	<path class="fern-one" d="M25.9,42.9c-0.5-0.5-1.1-1.1-1.6-1.6c3.1,1.3,6.2,2.6,9.4,3.4c2.6,0.7,5.3,0.9,7.9,1.5
		c0.1,0.3,0.2,0.7,0.6,0.7c2,0.2,3.7,1,5.5,1.8c0.3,0.1,0.7,0,0.9-0.2c0.7,0.4,1.2,1.1,2,1.4c0.9,0.3,0.8,0.9-0.1,1.3
		c-0.4-0.3-0.7-0.1-1.1,0c-2.2,0.5-4.4,1.3-6.6,0.7c-4.1-1-7.9-2.6-11.3-5.1C29.7,45.6,27.8,44.3,25.9,42.9z M35.9,47.5
		c-0.1,0-0.2-0.1-0.4-0.1c0,0,0,0.1,0,0.1C35.6,47.6,35.7,47.6,35.9,47.5c0.2,0.2,0.5,0.3,0.7,0.3c0.1,0,0.3,0,0.4,0.1
		c-0.1-0.1-0.3-0.1-0.4-0.2C36.3,47.7,36.1,47.6,35.9,47.5z M31.3,45.8c0.3,0.1,0.4,0.5,0.9,0.1C32,45.8,31.8,45.4,31.3,45.8z
		 M33.9,46.9c-0.1-0.5-0.4-0.5-0.8-0.3C33.3,46.9,33.5,47,33.9,46.9z"/>
	<path class="fern-one" d="M58.3,63.7c0-0.7-0.6-0.5-0.9-0.4c-3.1,0.7-5.9-0.6-8.8-1c-1.8-0.2-3.5-0.5-5.2,0.2c-0.3-0.1-0.7-0.6-0.9,0.1
		c-0.1,0-0.2,0.1-0.3,0.1c-1.8-0.2-3.6,0.5-5.8,0.8c1.4-1.3,2.8-2.1,4.1-2.8c0.3-0.4,1-0.4,1.1-1c-0.3-0.9-1.3-1.2-1.8-2.5
		c1.5,1.5,2.8,2.8,4.8,1.8c2.4-0.8,4.9-1.1,7.4-1.3c4.2-0.3,6.8,1.9,8.9,5.3C60,63.4,59.1,63.5,58.3,63.7z"/>
	<path class="fern-one" d="M44.1,37.3c0.3,0.3,0.6,0.7,0.9,1c0,0.3,0.2,0.5,0.5,0.5c0.6,0.4,1,0.9,0.7,1.6l0,0c-2.5-1.4-4.9-2.9-7.8-3.6
		c2.3,1.2,4.6,2.4,6.8,3.7c-0.3,0.2-0.6,0.3-1,0.5c0,0,0,0,0,0c-0.2-0.2-0.4-0.3-0.7-0.1c0,0,0,0,0,0c-0.2-0.2-0.3-0.1-0.5,0
		c0,0-0.1,0.1-0.1,0.1c-0.3-0.7-1-0.8-1.6-0.9c-1.8-0.2-3.4-0.7-5-1.5c-1.6-0.8-3.2-1.6-4.9-2.1c-1.3-0.4-2.6-1.3-4.1-0.7
		c0,0,0,0,0,0c-0.2-0.3-0.5-0.4-0.8-0.2c0,0,0.1,0,0.1,0c-0.2,0-0.4,0-0.5,0c0,0,0.1,0,0.1,0c-0.2-0.3-0.4-0.4-0.7-0.1
		c0,0,0-0.1,0-0.1c-0.2,0-0.3,0-0.5,0c0,0,0.1-0.1,0.1-0.1c-0.2,0-0.4,0-0.5,0c0,0,0.1,0,0.1,0c-0.2,0-0.3,0-0.5,0c0,0,0,0,0,0
		c-0.2-0.2-0.5-0.3-0.7-0.1c0,0,0,0,0,0c-0.2,0-0.3,0-0.5,0c0,0,0,0,0,0c-0.2,0-0.3,0-0.5,0c0,0,0,0,0,0c-0.3-0.2-0.5-0.1-0.8,0.1
		c-0.1,0-0.3,0-0.4,0c-0.2,0-0.4,0-0.6,0.1c-0.8-0.3-1.5,0.7-2.4,0.1c2-2.5,8.8-3.9,14.6-3.1c-0.1,1.1,0.8,0.8,1.4,1
		c2.8,0.5,5.4,1.1,7.7,2.9C42.7,36.6,43.2,37.3,44.1,37.3z M30.5,34.3c0,0-0.1,0.1-0.1,0.1c0,0,0.1,0,0.1,0c0.2,0,0.3,0,0.5,0
		c0.2,0.1,0.5,0.2,0.7,0.2c0,0,0.1-0.1,0.1-0.1c0,0-0.1,0-0.1,0c-0.2-0.1-0.5-0.1-0.7-0.2C30.9,34.3,30.7,34.3,30.5,34.3z
		 M32.9,34.8c0,0-0.1,0-0.1,0.1C32.8,34.8,32.9,34.8,32.9,34.8c0.1,0.1,0.2,0.2,0.4,0.2c0,0,0-0.1,0-0.1
		C33.2,34.8,33.1,34.8,32.9,34.8z M36.8,35.8c-0.1,0-0.3,0.1-0.4,0.1c0,0.1,0,0.3,0.1,0.3c0.1,0,0.3,0,0.4,0
		C36.8,36.1,36.8,36,36.8,35.8z"/>
	<path class="fern-one" d="M18,79c-1.8,0.5-3.6,0.8-5.3,1.4c1.4-2,3.4-3.3,5.4-4.4c3-1.7,6.4-2.7,9.9-3c3.9-0.4,6.5,1.6,8.6,4.5
		c0,0,0,0,0,0c-0.5,0.2-1,0.4-1.4,0.6c-0.4-0.6-0.5,0.1-0.7,0.2c0,0,0,0,0,0c-0.5-0.3-1.1-0.4-1.6-0.2c-1.9,0.7-3.8,0.5-5.7,0.4
		c-0.6-0.1-1.4-0.6-1.9,0.4c0,0-0.1-0.1-0.1-0.1c-0.9-1-1.8-0.7-2.8-0.1c0,0,0-0.1,0-0.1c-0.2,0-0.3,0-0.5,0c0,0,0,0,0,0
		c-0.2,0-0.3,0-0.5,0c0,0,0,0,0,0c-0.2,0-0.3,0-0.5,0c0,0,0,0.1,0,0.1c-0.3-0.4-0.7-0.4-1,0c0,0,0-0.1,0-0.1c-0.2,0-0.3,0-0.5,0
		c0,0,0,0,0,0c-0.5-0.3-0.9-0.2-1.2,0.2c0,0,0,0,0,0C18.2,78.8,18.1,78.8,18,79z"/>
	<path class="fern-one" d="M26.6,20.2C26.6,20.2,26.5,20.3,26.6,20.2c-0.1,0.1-0.2,0.2-0.2,0.2s0,0,0,0c-1.5-1.1-2.9-2.3-4.8-2.8
		c-1-0.9-2-1.7-3.3-1.9c-0.5-0.4-1-0.7-1.7-0.7c-0.1,0-0.3,0-0.4-0.1c0.1,0.1,0.3,0.1,0.4,0.2c0.5,0.4,0.9,0.9,1.7,0.7
		c1,0.8,2,1.6,3.3,1.9c1.1,1.2,2.8,1.6,3.8,2.8c-0.5,0.2-1.2,0-1.7,0.4c0,0,0,0,0,0c-0.7-1.1-1.9-0.8-2.8-1.1
		c-2.6-0.8-4.6-2.7-7.1-3.6c-1.7-0.7-3.1-1.9-5.1-1.5c0,0,0.1-0.1,0.1-0.1c-0.2,0-0.4,0-0.5,0c0,0,0,0,0,0C8,14,7.6,13.7,7.1,14.2
		c0,0,0,0,0,0C7,14,6.7,13.8,6.4,14.1c0,0,0-0.1,0-0.1c-0.2,0-0.4,0-0.5,0l0-0.1c0,0,0.1,0,0.1,0c-0.2,0-0.4,0.1-0.6,0.1
		c-1.3,0.1-2.5,0.3-4.1,0.4c4.3-2.9,8.7-3.3,13.3-2.7c-0.1,0.4,0.1,0.6,0.5,0.7c1.1,0.3,2.1,0.6,3.2,0.9c2.1,0.7,4.2,1.3,5.5,3.3
		c0.3,0.5,0.8,1.1,1.6,0.9C25.8,18.5,26.2,19.3,26.6,20.2z M11.2,13.3c-0.2,0-0.3,0-0.5,0c-0.2-0.1-0.5-0.2-0.7-0.3
		c-0.1,0-0.1,0.1-0.2,0.1c0.1,0,0.1,0,0.2,0c0.2,0.1,0.5,0.1,0.7,0.2C10.9,13.4,11,13.4,11.2,13.3c0.1,0,0.1,0,0.2,0
		C11.3,13.3,11.2,13.3,11.2,13.3z M13.8,14.1c0,0,0.1-0.1,0.1-0.1C13.9,14,13.9,14,13.8,14.1c-0.2-0.2-0.5-0.3-0.7-0.3
		c-0.2-0.1-0.5-0.1-0.7-0.2c0,0-0.1,0.1-0.1,0.1c0,0,0.1,0,0.1,0c0.2,0.1,0.5,0.2,0.7,0.2C13.3,14,13.6,14,13.8,14.1z M14.8,14.4
		c0,0,0,0.1,0.1,0.1c0,0,0.1,0,0.1,0C14.9,14.4,14.9,14.4,14.8,14.4C14.9,14.3,14.8,14.4,14.8,14.4z"/>
	<path class="fern-one" d="M37.1,7.8c0.3-0.5,0.7-1,1.5-1.4c-1.2,4-1,7.8,0,11.5c0.9,3,0.3,5.6-1.3,8.1c-2.3-0.5-4.2-3.6-3.9-6.2
		c0.3-2.2,0.6-4.4,0.9-6.6c0,0,0,0,0,0C35.4,11.5,36.4,9.7,37.1,7.8z M35.6,17.2c0,0,0,0.1,0,0.1C35.7,17.3,35.7,17.3,35.6,17.2
		c0,0,0-0.1,0-0.1C35.6,17.1,35.6,17.2,35.6,17.2z M35.7,18.6c0,0,0,0.1,0,0.1C35.7,18.7,35.7,18.7,35.7,18.6c0,0,0-0.1,0-0.1
		C35.6,18.6,35.6,18.6,35.7,18.6z M35.9,20.3c0,0.2,0,0.3,0,0.5c0,0,0,0.1,0,0.1c0,0,0-0.1,0-0.1C35.9,20.6,35.9,20.5,35.9,20.3
		c0,0,0-0.1,0-0.1C35.9,20.2,35.9,20.3,35.9,20.3z M35.9,15.1C35.8,15.2,35.8,15.3,35.9,15.1C35.8,15.3,35.9,15.2,35.9,15.1
		c0,0,0-0.1,0-0.1C35.9,15,35.9,15.1,35.9,15.1z"/>
	<path class="fern-one" d="M48.2,81.9c0.1,0.5,1.5,0.5,0.5,1.4c-0.4-0.1-0.8-0.1-1.2,0.3c-0.2,0-0.3,0-0.5,0c0,0-0.1,0-0.1,0
		c0,0,0.1,0,0.1,0c0.2,0,0.3,0,0.5,0c0.4,0.1,0.8,0.1,1.2-0.2c0.2,0.1,0.3,0.3,0.5,0.4c-1.7,1.4-3.4,2.6-5.8,2.7
		c-1.2,0-2.6-0.2-3.4,1.2c0,0,0,0,0,0c-0.5-0.5-0.9-0.2-1.2,0.2c0,0,0,0,0,0c-0.5-0.5-0.9-0.2-1.2,0.3c0,0,0.1,0,0.1,0
		c-0.2,0-0.4,0-0.5,0.1c0,0,0.1,0.1,0.1,0.1c-0.5-0.3-0.8,0-1,0.4c0,0,0.1,0,0.1,0c-0.3-0.1-0.6,0-0.8,0.3c0,0,0.1,0,0.1,0
		c-0.5-0.2-0.9-0.4-1,0.4c-0.7,0.4-1.5,0.8-2.2,1.1c1.5-3.1,3.7-5.5,6.6-7.2c0.5,0.1,1.1,0.3,0.9-0.6c0.3-0.2,0.6-0.3,0.8-0.5
		c0.1,1.2,0.8,0.4,1.1,0.2c1.6-0.8,3.3-0.9,5-0.4C47.3,82.1,47.7,82.3,48.2,81.9z M39.7,85.3c-0.1,0-0.3,0.1-0.4,0.1
		c0,0,0,0.1,0,0.1C39.5,85.4,39.6,85.4,39.7,85.3c0.1,0,0.3,0,0.4,0c0,0,0-0.1,0-0.1C39.9,85.2,39.8,85.2,39.7,85.3z M41.1,84.8
		c0,0-0.1,0.1-0.1,0.1c0,0,0.1,0,0.1,0c0.2-0.1,0.5-0.2,0.7-0.2c0.2-0.1,0.5-0.2,0.7-0.3c0.2,0,0.3,0,0.5,0c0.1,0,0.3-0.1,0.4-0.1
		c0,0,0-0.1,0-0.1c-0.1,0.1-0.2,0.1-0.4,0.2c-0.2,0-0.3,0-0.5,0c-0.2,0.1-0.5,0.1-0.7,0.2C41.6,84.6,41.4,84.7,41.1,84.8z
		 M36.8,86.6c0.7,0.1,1.2-0.3,1.9-0.8C37.7,85.7,37.2,86.2,36.8,86.6z"/>
	<path class="fern-one" d="M62,105.2c0.2,0.1,0.4,0.3,0.6,0.4c0.1,0.2,0.2,0.5,0.2,0.7c0.4,3.2-1.8,4.8-4,6.4c-1-0.1-1.3-0.9-1.7-1.6
		c-0.6-1.2-1.1-2.4-1.7-3.6l0,0c0.2-0.9-0.1-1.6-0.5-2.4l0,0c0.2-0.2,0.2-0.3,0-0.5l0,0c0.2-0.2,0.2-0.5,0.2-0.7
		c2.2-0.6,4.2-0.4,6.1,0.8C61.6,104.8,61.8,105,62,105.2z"/>
	<path class="fern-one" d="M57.8,91.4c0,0.6,0.6,0.9,0.9,1.3c1.3,1.8,2.2,3.7,1.2,6c-0.2,0.2-0.4,0.5-0.6,0.7c-2.5,1.5-4.9,0.7-7.3-0.2
		c0.4-2,1.5-3.7,2.7-5.3c0.8-0.6,1.4-1.2,1.8-2.1C56.9,91.7,57.3,91.3,57.8,91.4z"/>
	<path class="fern-one" d="M54.6,93.9c-1.3,1.6-2.4,3.2-2.7,5.3c-0.8,0.6-1.6,1-2.6,0.4c-0.7-0.4-0.8-1-0.2-1.6c0.7-0.6,0.8-0.6,0.1-1
		c-1-0.5-1.1-1.1-0.2-1.9c0.7-0.6,1.4-1.2,1.7-2.1c0.2-0.7,0.5-1.2,1.3-0.6c0.4-0.9-0.8-0.6-0.6-1.4c0.9-0.3,1.2-1.3,2-1.9
		c0.3,0.2,0.6,0.2,1,0c0.4,0.4,0.8,0.8,1.4,1.4c0-0.3,0-0.4,0-0.5c-0.3-0.6-1.6-1.1-0.7-1.8c0.7-0.6,1.1,0.5,1.7,0.9
		c0,0.1,0,0.2,0,0c0.1,0.2,0,0.1,0,0c0-0.1,0.1-0.2,0.1-0.2c0.1,0,0.2,0,0.2,0c0.7,0.7,0.5,1.7,0.9,2.5c-0.5-0.1-0.9,0.2-1.3,0.4
		c-1-0.2-1.6-1.1-2.8-1.5c1.5,1.3,1.5,1.3,0.6,3C54.2,93.5,54.5,93.7,54.6,93.9z M55.5,88.9c0,0,0,0.1,0.1,0.1
		c0.1,0.1,0.2,0.1,0.1-0.1C55.7,88.9,55.6,88.9,55.5,88.9C55.6,88.9,55.5,88.9,55.5,88.9z"/>
	<path class="fern-one" d="M58.6,113.4c-0.1,0.4-0.2,0.9-0.2,1.3c-0.1,0.7-0.5,1.1-1.1,1.3c-0.6,0.2-0.8-0.5-1.1-0.8
		c-0.5-0.6-1.1-1.1-1.6-1.6c-0.9-0.8-1.2-1.6-0.1-2.5c-2.4-0.9-3.3-3.5-2.4-6.9c-0.2-0.5-0.7,0.6-0.8-0.1c-0.1-0.3,0-0.6,0.4-0.6
		c1.2,0.3,2.4-0.4,3.5,0.2c-0.2,0.3-0.2,0.7,0.1,1c0,0,0,0,0,0c0,0.2,0,0.3,0,0.5c0,0,0,0,0,0c-0.3,0.9-0.1,1.7,0.5,2.4l0,0
		C55.5,110,56.6,111.9,58.6,113.4z"/>
	<path class="fern-one" d="M58.5,15.4c0.4,0.2,0.5,0.6,0.5,1c-0.4,4.2,0.9,8.2,2,12.1c0.8,3,0.5,6.1,0.5,9.2c-0.1,4,0.8,7.9,1.1,11.8
		c0,0.4,0.2,0.9-0.2,1.3c-1.4-4.4-2.6-8.8-2.1-13.4c0.4-4.5-0.1-8.8-1.3-13.2C58.1,21.3,58.1,18.3,58.5,15.4z"/>
	<path class="fern-one" d="M66.2,49.7c-0.9-1,0-1.8,0.3-2.6c1.2-3.1,2.4-6.1,2.1-9.5c-0.3-4.8-1.3-9.4-3.9-13.6C64.2,23.1,63,22,64,20.6
		c3.2,5.1,5.5,10.4,6,16.5C70.3,41.8,68.8,45.9,66.2,49.7z"/>
	<path class="fern-one" d="M48.6,27.4c0.6,0.6,0.6,1.6,1.4,2c0,0,0,0,0,0c0,1.8,0.8,3.7-0.9,5.2c-0.2,0.2-0.4,0.3-0.6,0.5
		c-3,0.5-4.8-1.4-6.3-3.5C44.8,30.9,47,29.7,48.6,27.4z"/>
	<path class="fern-one" d="M44.5,58.9c-2,1-3.2-0.3-4.8-1.8c0.5,1.3,1.6,1.7,1.8,2.5c-0.2,0.6-0.8,0.6-1.1,1c-3.2-3.8-6.4-7.6-8.7-12.1
		C35.7,52.3,40,55.8,44.5,58.9z"/>
	<path class="fern-one" d="M81.2,52c0.8,1.1,0.4,2.2,0.3,3.3c-0.4,5.5-1.9,10.7-2.7,16.1c-0.4,2.9,0,5.9,0,8.9c0,0.7,0.2,1.5-0.4,2
		c-0.2-2.3-0.4-4.7-0.7-7c-0.4-3.3,0.3-6.4,1-9.6C79.7,61.3,80.5,56.7,81.2,52z"/>
	<path class="fern-one" d="M82.2,80.4c-0.5-0.6-0.1-1.1,0.2-1.5c4.2-5.7,4-12.3,3.6-18.9c-0.1-2.1-0.4-4.2-0.9-6.3
		c-0.1-0.4-0.2-0.9,0.2-1.3c0.9,1.3,1,2.9,1.2,4.5c1,5.3,1.3,10.6,0.1,15.9C85.9,75.8,84.2,78.2,82.2,80.4z"/>
	<path class="fern-one" d="M59.3,99.4c0.2-0.2,0.4-0.5,0.6-0.7c3.8,2.5,8.2,3.7,12.6,4.7c1.7,0.4,3.4,0.5,5.1,0.7
		c0.6,0.1,1.2,0.2,1.8,0.4c0.2,1-0.4,0.9-1,0.7c-5.3-1.2-10.4-0.8-15.5,1.1c-0.1-0.2-0.2-0.5-0.2-0.7c2.1-1,4.3-1.4,7-1.8
		C65.8,102.5,62.3,101.4,59.3,99.4z"/>
	<path class="fern-one" d="M48.5,35.1c0.2-0.2,0.4-0.3,0.6-0.5c1.3,1.8,2.5,3.6,3.6,5.6c-0.3-3.1-0.7-6.1-0.6-9.1c0.3,0,0.6,0,1,0
		c0.1,0,0.1,0.1,0.1,0.1c-0.6,2.4,0.1,4.8,0.3,7.2c0.3,4.2,2,8.2,2.8,12.3c-1.3-0.4-1.4-1.5-1.6-2.5c-0.6-3.6-2.2-6.7-4-9.7
		C49.9,37.4,49.2,36.3,48.5,35.1z"/>
	<path class="fern-one" d="M81.8,39.6c-0.1,0.6-0.7,0.7-1.1,0.9C75.2,43.8,71,48.2,68.2,54c-1.2,2.5-1.4,5.3-1.1,8.1
		c0.1,0.7,0.2,1.3-0.3,1.9c-1.8-5.4-0.1-10.1,3.1-14.4c2.6-3.6,5.7-6.6,9.6-8.8C80.2,40.4,80.8,39.6,81.8,39.6z"/>
	<path class="fern-one" d="M49.6,72.4c2.2,1.1,3.4,3.2,4.8,5c2.3,3.1,4.3,6.4,6.7,9.4c1.3,1.7,3.2,2.7,5,3.8c0.3,0.3,0.6,0.6,1,0.9
		c0,0.1,0.1,0.1,0.1,0.2c-0.5-0.2-1-0.4-1.5-0.6c-1.9-1-3.8-2.1-5.3-3.8c-2.5-3.6-4.7-7.5-7.4-10.9c-0.7-0.9-1.4-1.7-2.1-2.6
		c-0.1-0.1-0.2-0.2-0.3-0.4C50.2,73.1,49.9,72.7,49.6,72.4z"/>
	<path class="fern-one" d="M25.9,42.9c1.9,1.3,3.8,2.7,5.7,4C35,49.4,38.8,51,42.9,52c2.2,0.5,4.4-0.2,6.6-0.7c0.4-0.1,0.7-0.3,1.1,0
		c-3.4,1.8-6.8,2.3-10.4,0.8C34.8,49.9,29.9,47.2,25.9,42.9z"/>
	<path class="fern-one" d="M42.4,62.5c0.3-0.7,0.6-0.2,0.9-0.1c4,4.1,7.9,8.2,13.5,10.1c0.8,0.3,1.6,0.6,2.4,0.7c0.8,0.1,1.3,0.4,1.8,1.1
		c-4.8-0.3-8.7-2.6-12.2-5.7c-0.5-0.4-0.9-0.8-1.4-1.2C45.7,65.8,44.1,64.2,42.4,62.5z"/>
	<path class="fern-one" d="M55.1,23.3c1.2,0.1,2.4,0.1,1.9,1.9c-0.3,0.1-0.6,0.3-0.9,0.4c-0.4,0-0.8,0.1-1.2,0.1c-0.9,0-1.7,0-2.6-0.1
		c-0.6-0.1-1.1-0.2-1.7-0.4c-0.4-0.2-0.8-0.4-1.2-0.6c-0.3-1.9,1-1.7,2.2-1.6c0,0.3-0.1,0.6-0.1,0.9c0.7,0.1,1.4,0.2,2.1,0.3
		C54.4,24.3,55,24.2,55.1,23.3z"/>
	<path class="fern-one" d="M48.6,27.4c-1.6,2.3-3.8,3.5-6.4,4.2c-1.3-1.3-0.5-2,0.7-2.7c0,0,0,0.1,0,0.1c-0.1,0.4-0.5,0.7-0.3,1.2
		c1.1-0.1,2-0.5,2.7-1.3c0.5-0.5,1.4-1,0.4-1.9C46.7,26.5,47.8,25.7,48.6,27.4z"/>
	<path class="fern-one" d="M27.4,35.6c1.5-0.6,2.8,0.3,4.1,0.7c1.7,0.5,3.3,1.3,4.9,2.1c1.6,0.8,3.3,1.3,5,1.5c0.7,0.1,1.3,0.2,1.6,0.9
		c-3.4,0.2-6.3-1.3-9.1-2.8C31.9,37.1,29.6,36.5,27.4,35.6z"/>
	<path class="fern-one" d="M8.8,14.5c2-0.4,3.5,0.8,5.1,1.5c2.5,1,4.5,2.9,7.1,3.6c1,0.3,2.2,0,2.8,1.1c-2.9,0.1-5.3-1-7.6-2.6
		C14,16.5,11.4,15.5,8.8,14.5z"/>
	<path class="fern-one" d="M34.3,13.2c-0.3,2.2-0.6,4.4-0.9,6.6c-0.3,2.7,1.6,5.7,3.9,6.2c-0.2,0.8-0.6,0.9-1.2,0.4
		c-2.1-1.6-3.8-3.4-3.5-6.2C32.8,17.8,33,15.3,34.3,13.2z"/>
	<path class="fern-one" d="M25.4,17.7c-0.8,0.2-1.3-0.4-1.6-0.9c-1.3-2-3.4-2.7-5.5-3.3c-1-0.3-2.1-0.6-3.2-0.9c-0.4-0.1-0.6-0.3-0.5-0.7
		c2.1,0.2,4,0.8,5.9,1.5C22.7,14,24.4,15.5,25.4,17.7z"/>
	<path class="fern-one" d="M44.1,37.3c-0.9,0-1.4-0.7-2-1.2c-2.3-1.8-5-2.4-7.7-2.9c-0.6-0.1-1.5,0.2-1.4-1c3,0.3,5.9,0.7,8.5,2.4
		C42.1,35.8,43.8,35.9,44.1,37.3z"/>
	<path class="fern-one" d="M69.7,63.5c-0.6-0.9,0.2-1.5,0.5-2.1c0.8-2.1,2-4.1,2.7-6.3c0.2-0.6,0.4-1.2,1.2-1.2
		C73.2,57.4,71.8,60.6,69.7,63.5z"/>
	<path class="fern-one" d="M40,87.5c0.8-1.3,2.2-1.1,3.4-1.2c2.4,0,4.1-1.3,5.8-2.7c0.2,0,0.5-0.1,0.7-0.1C47.5,87.1,43.8,87.5,40,87.5z"
		/>
	<path class="fern-one" d="M25.2,78.8c0.5-1,1.3-0.4,1.9-0.4c1.9,0.2,3.8,0.3,5.7-0.4c0.5-0.2,1.1-0.1,1.6,0.2
		C31.5,79.9,28.4,79.7,25.2,78.8z"/>
	<path class="fern-one" d="M48.2,81.9c-0.5,0.3-1,0.1-1.4,0c-1.7-0.6-3.4-0.4-5,0.4c-0.3,0.2-1,1-1.1-0.2c1.2-0.9,2.7-1.2,4.2-1.5
		C46,80.9,47.3,80.9,48.2,81.9z"/>
	<path class="fern-one" d="M48.7,48.5c-0.3,0.2-0.6,0.3-0.9,0.2c-1.8-0.8-3.6-1.6-5.5-1.8c-0.4,0-0.5-0.4-0.6-0.7
		C44.2,46,46.5,47,48.7,48.5z"/>
	<path class="fern-one" d="M54.9,25.7c0.4,0,0.8-0.1,1.2-0.1c-0.2,1.9-0.3,3.8-1.8,5.2c-0.4,0.1-0.7,0.3-1.1,0.4c0-0.1-0.1-0.1-0.1-0.1
		c0,0,0,0,0,0C54.4,29.5,54.9,27.7,54.9,25.7z"/>
	<path class="fern-one" d="M49.4,24.6c0.4,0.2,0.8,0.4,1.2,0.6c-0.5,2.1,0.1,3.9,1.2,5.6c-0.9-0.1-1.2-1.1-1.9-1.5c0,0,0,0,0,0
		C49.8,27.9,49.1,26.3,49.4,24.6z"/>
	<path class="fern-one" d="M55.1,23.3c-0.1,0.9-0.7,1-1.5,0.9c-0.7-0.1-1.4-0.2-2.1-0.3c0-0.3,0.1-0.6,0.1-0.9
		C52.8,22.9,54,22.7,55.1,23.3z"/>
	<path class="fern-one" d="M54.3,30.8c1.5-1.4,1.6-3.4,1.8-5.2c0.3-0.1,0.6-0.3,0.9-0.4C56.8,27.4,56.5,29.6,54.3,30.8z"/>
	<path class="fern-one" d="M58.6,113.4c-1.9-1.5-3.1-3.4-3-5.9c0.6,1.2,1.1,2.4,1.7,3.6c0.4,0.7,0.6,1.6,1.7,1.6
		C58.8,112.9,58.7,113.2,58.6,113.4z"/>
	<path class="fern-one" d="M45.7,27.1c0.9,0.9,0.1,1.4-0.4,1.9c-0.7-0.4-1.3,1-2.1,0.3c0-0.2-0.1-0.3-0.1-0.5
		C43.8,28,44.7,27.5,45.7,27.1z"/>
	<path class="fern-one" d="M37.1,7.8c-0.6,1.9-1.6,3.7-2.7,5.4C34.6,11.1,35.7,9.4,37.1,7.8z"/>
	<path class="fern-one" d="M42.4,62.5c1.7,1.6,3.3,3.3,5,4.9c-2.1-1.2-3.5-3.2-5.2-4.8C42.2,62.6,42.3,62.6,42.4,62.5z"/>
	<path class="fern-one" d="M22.3,78.6c1-0.7,1.9-0.9,2.8,0.1C24.2,78.9,23.2,78.9,22.3,78.6z"/>
	<path class="fern-one" d="M59.7,9.4c0.3,1.2,0.1,2.2-0.7,3.1C58.9,11.4,59.1,10.4,59.7,9.4z"/>
	<path class="fern-one" d="M47.2,69.6c0.3,1.3,1.8,1.7,2.4,2.8C48.4,72,47.8,71,47,70.2C46.7,70,46.6,69.6,47.2,69.6z"/>
	<path class="fern-one" d="M60.9,74.3c0.4-0.1,0.8-0.3,1.2-0.4c0.2-0.1,0.5-0.1,0.7-0.2c0,0,0,0,0,0c0.2,0.2,0.5,0.5,0.7,0.7
		c0.1,0.1,0.1,0.1,0.2,0.2C62.8,74.7,61.9,74.7,60.9,74.3z"/>
	<path class="fern-one" d="M58.8,13.2c0.5,0.5,0.6,1-0.1,1.4C58.4,14.1,58.7,13.7,58.8,13.2z"/>
	<path class="fern-one" d="M81.3,49.6c0.6,0.5,0.6,1-0.1,1.4C81.1,50.5,81,50.1,81.3,49.6z"/>
	<path class="fern-one" d="M23.8,20.7c0.5-0.4,1.2-0.1,1.7-0.4c0.1,0.1,0.2,0.1,0.3,0.2c-0.1,0.1-0.2,0.2-0.3,0.3
		C24.9,20.8,24.3,20.8,23.8,20.7z"/>
	<path class="fern-one" d="M62.4,50.7c0.3,0.3,0.6,0.6,0.9,0.9c-0.1,0.2-0.3,0.3-0.4,0.5l-0.2,0C62.5,51.7,62.3,51.3,62.4,50.7z"/>
	<path class="fern-one" d="M56.7,89c-0.1-0.3-0.5-0.5-0.5-1c0.7,0,0.5,0.6,0.7,1C56.8,89,56.8,89,56.7,89z"/>
	<path class="fern-one" d="M78.3,82.4c0.7,0.5,0.6,1,0,1.5C78.3,83.4,78.3,82.9,78.3,82.4z"/>
	<path class="fern-one" d="M38.8,87.8c0.3-0.4,0.7-0.7,1.2-0.2C39.6,87.6,39.2,87.7,38.8,87.8z"/>
	<path class="fern-one" d="M25.5,20.9c0.1-0.1,0.2-0.2,0.3-0.3c0.2-0.1,0.4-0.1,0.7-0.2c0,0,0,0,0,0c0.1,0.2,0.2,0.5,0.2,0.7
		C26.3,21,25.9,21,25.5,20.9z"/>
	<path class="fern-one" d="M37.6,88c0.3-0.4,0.7-0.7,1.2-0.3C38.4,87.8,38,87.9,37.6,88z"/>
	<path class="fern-one" d="M39.8,82.5c0.2,0.9-0.4,0.7-0.9,0.6C39.2,82.9,39.5,82.7,39.8,82.5z"/>
	<path class="fern-one" d="M44.4,40.9c0.3-0.2,0.6-0.3,1-0.5c0.2,0.1,0.3,0.3,0.5,0.4l0,0.1C45.3,41.1,44.8,41.1,44.4,40.9z"/>
	<path class="fern-one" d="M34.5,89.1c0.1-0.8,0.5-0.6,1-0.4C35.2,88.9,34.8,89,34.5,89.1z"/>
	<path class="fern-one" d="M7.1,14.2C7.6,13.7,8,14,8.4,14.4C8,14.3,7.5,14.3,7.1,14.2z"/>
	<path class="fern-one" d="M61.8,3.2c0.1-0.3,0.1-0.7,0.5-0.8c0.3,0.3,0.1,0.6,0,0.9C62.1,3.3,62,3.2,61.8,3.2z"/>
	<path class="fern-one" d="M54.2,89.3c-0.3,0.2-0.6,0.2-1,0C53.6,89,53.9,89,54.2,89.3z"/>
	<path class="fern-one" d="M55.1,104.6c-0.3-0.3-0.3-0.6-0.1-1c0.1,0.1,0.2,0.2,0.3,0.2C55.3,104.2,55.3,104.4,55.1,104.6z"/>
	<path class="fern-one" d="M20,78.7c0.3-0.4,0.6-0.4,1,0C20.6,78.8,20.3,78.9,20,78.7z"/>
	<path class="fern-one" d="M81.2,51.1c0.5,0.3,0.5,0.6,0,0.8C81.2,51.7,81.2,51.4,81.2,51.1z"/>
	<path class="fern-one" d="M18.3,78.9c0.3-0.4,0.7-0.5,1.2-0.2C19.2,79,18.7,78.9,18.3,78.9z"/>
	<path class="fern-one" d="M62,58.8c-0.1-0.4,0-0.8,0.2-1.2c0.1,0,0.2,0,0.3,0c-0.1,0.4-0.2,0.8-0.3,1.2C62.2,58.8,62.1,58.8,62,58.8z"/>
	<path class="fern-one" d="M81.4,47.6c0.6,0.4,0.3,0.8,0,1.1C81.4,48.3,81.4,47.9,81.4,47.6z"/>
	<path class="fern-one" d="M46.3,40.4c0.1,0.1,0.2,0.2,0.3,0.2c0,0.7-0.5,0.4-0.8,0.4c0,0,0-0.1,0-0.1C45.9,40.7,46.1,40.6,46.3,40.4
		C46.3,40.4,46.3,40.4,46.3,40.4z"/>
	<path class="fern-one" d="M34.4,78.3c0.2-0.1,0.3-0.8,0.7-0.2C34.9,78.2,34.7,78.2,34.4,78.3z"/>
	<path class="fern-one" d="M36.2,88.5c0.3-0.3,0.5-0.6,1-0.4C36.9,88.4,36.6,88.5,36.2,88.5z"/>
	<path class="fern-one" d="M62.2,57.6c0-0.2,0.1-0.4,0.1-0.7c0.4,0.3,0.2,0.5,0.2,0.7C62.4,57.6,62.3,57.6,62.2,57.6z"/>
	<path class="fern-one" d="M63.4,52.6c-0.1,0.1-0.2,0.2-0.4,0.3c-0.1-0.3-0.2-0.6-0.2-0.8c0,0,0.2,0,0.2,0C63.1,52.3,63.2,52.5,63.4,52.6
		z"/>
	<path class="fern-one" d="M67.6,66.5c0.1,0,0.2,0,0.3,0c-0.1,0.3-0.1,0.5-0.2,0.8c0,0,0,0,0,0C67.6,67.1,67.6,66.8,67.6,66.5z"/>
	<path class="fern-one" d="M6.4,14.1C6.7,13.8,7,14,7.2,14.2C6.9,14.2,6.7,14.1,6.4,14.1z"/>
	<path class="fern-one" d="M62,105.2c-0.2-0.2-0.4-0.3-0.6-0.5C61.7,104.7,61.9,104.9,62,105.2z"/>
	<path class="fern-one" d="M67,64.7c0.3,0.2,0.4,0.5,0.2,0.8C67.1,65.2,67,65,67,64.7z"/>
	<path class="fern-one" d="M66.8,64c0.2,0.2,0.3,0.5,0.2,0.8C66.9,64.5,66.8,64.2,66.8,64z"/>
	<path class="fern-one" d="M81.4,46.8c0.2,0.2,0.3,0.4,0.1,0.7C81.3,47.3,81.3,47,81.4,46.8z"/>
	<path class="fern-one" d="M21.8,35.2c0.2-0.2,0.5-0.3,0.8-0.1C22.3,35.3,22,35.2,21.8,35.2z"/>
	<path class="fern-one" d="M35.4,88.7c0.2-0.2,0.4-0.4,0.8-0.3C36,88.6,35.7,88.7,35.4,88.7z"/>
	<path class="fern-one" d="M23.4,35.1c0.3-0.2,0.5-0.1,0.7,0.1C23.9,35.3,23.7,35.2,23.4,35.1z"/>
	<path class="fern-one" d="M25.6,35.3c0.3-0.3,0.5-0.1,0.7,0.1C26.1,35.4,25.8,35.4,25.6,35.3z"/>
	<path class="fern-one" d="M26.7,35.5c0.3-0.2,0.6-0.1,0.8,0.2C27.2,35.6,27,35.5,26.7,35.5z"/>
	<path class="fern-one" d="M59,12.5c0.1,0.3,0,0.6-0.2,0.8C58.8,13,58.7,12.7,59,12.5z"/>
	<path class="fern-one" d="M58.7,14.6c0.2,0.3,0.1,0.6-0.2,0.8C58.4,15.1,58.4,14.8,58.7,14.6z"/>
	<path class="fern-one" d="M43.7,40.9c0.3-0.3,0.5-0.1,0.7,0.1C44.1,40.9,43.9,40.9,43.7,40.9z"/>
	<path class="fern-one" d="M43.2,40.9c0.1-0.2,0.3-0.2,0.5,0C43.5,41,43.3,41,43.2,40.9z"/>
	<path class="fern-one" d="M18,79c0-0.2,0.2-0.2,0.3-0.1C18.2,79,18.1,79,18,79z"/>
	<path class="fern-one" d="M43.1,28.8c0,0.2,0.1,0.3,0.1,0.5c-0.1-0.1-0.2-0.1-0.3-0.2c0,0,0-0.1,0-0.1C42.9,28.9,43,28.8,43.1,28.8z"/>
	<path class="fern-one" d="M19.5,78.6c0.2,0,0.3,0,0.5,0C19.8,78.9,19.6,78.8,19.5,78.6z"/>
	<path class="fern-one" d="M20.9,78.6c0.2,0,0.3,0,0.5,0C21.2,78.7,21.1,78.8,20.9,78.6z"/>
	<path class="fern-one" d="M21.4,78.6c0.2,0,0.3,0,0.5,0C21.7,78.7,21.5,78.7,21.4,78.6z"/>
	<path class="fern-one" d="M59.7,8.9c0,0.2,0,0.4,0,0.5C59.5,9.3,59.6,9.1,59.7,8.9z"/>
	<path class="fern-one" d="M21.8,78.6c0.2,0,0.3,0,0.5,0C22.2,78.7,22,78.7,21.8,78.6z"/>
	<path class="fern-one" d="M26.2,35.4c0.2,0,0.4,0,0.5,0C26.6,35.6,26.4,35.5,26.2,35.4z"/>
	<path class="fern-one" d="M25.1,35.3c0.2,0,0.3,0,0.5,0C25.4,35.4,25.2,35.4,25.1,35.3z"/>
	<path class="fern-one" d="M24.6,35.2c0.2,0,0.4,0,0.5,0C24.9,35.4,24.8,35.3,24.6,35.2z"/>
	<path class="fern-one" d="M24.1,35.1c0.2,0,0.3,0,0.5,0C24.5,35.3,24.3,35.2,24.1,35.1z"/>
	<path class="fern-one" d="M50.5,73.4c0.1,0.1,0.2,0.2,0.3,0.4C50.6,73.7,50.6,73.6,50.5,73.4z"/>
	<path class="fern-one" d="M37.1,88c0.2,0,0.4,0,0.5-0.1C37.5,88.1,37.3,88.2,37.1,88z"/>
	<path class="fern-one" d="M23,35c0.2,0,0.3,0,0.5,0C23.3,35.2,23.1,35.2,23,35z"/>
	<path class="fern-one" d="M22.5,35.1c0.2,0,0.3,0,0.5,0C22.8,35.2,22.7,35.2,22.5,35.1z"/>
	<path class="fern-one" d="M81.3,44.3c0,0.2,0.1,0.4,0.1,0.6C81.3,44.7,81.3,44.5,81.3,44.3z"/>
	<path class="fern-one" d="M81.3,44.9c0,0.2,0,0.4,0,0.6C81.3,45.2,81.3,45,81.3,44.9z"/>
	<path class="fern-one" d="M74.1,53.6c-0.1,0-0.2,0-0.2,0C73.9,53.6,74,53.5,74.1,53.6C74.1,53.5,74.1,53.6,74.1,53.6z"/>
	<path class="fern-one" d="M81.3,45.8c0,0.2,0,0.4,0.1,0.6C81.4,46.2,81.3,46,81.3,45.8z"/>
	<path class="fern-one" d="M81.4,46.3c0,0.2,0,0.4,0,0.5C81.4,46.6,81.4,46.5,81.4,46.3z"/>
	<path class="fern-one" d="M20.8,35.2c0.2,0,0.4,0,0.6-0.1C21.2,35.2,21,35.2,20.8,35.2z"/>
	<path class="fern-one" d="M81.4,48.7c0,0.2,0,0.4,0,0.5C81.4,49,81.4,48.8,81.4,48.7z"/>
	<path class="fern-one" d="M81.4,49.1c0,0.2,0,0.4,0,0.5C81.4,49.5,81.4,49.3,81.4,49.1z"/>
	<path class="fern-one" d="M67.8,67.8c-0.2-0.2-0.2-0.3,0-0.5c0,0,0,0,0,0C67.8,67.5,67.8,67.6,67.8,67.8C67.8,67.8,67.8,67.8,67.8,67.8z
		"/>
	<path class="fern-one" d="M8.3,14.4c0.2,0,0.4,0,0.5,0C8.7,14.4,8.5,14.4,8.3,14.4z"/>
	<path class="fern-one" d="M5.9,14c0.2,0,0.4,0,0.5,0C6.3,14.2,6.1,14.1,5.9,14z"/>
	<path class="fern-one" d="M5.4,14c0.2,0,0.4-0.1,0.6-0.1C5.8,14.2,5.6,14.1,5.4,14z"/>
	<path class="fern-one" d="M70.3,55.2c0.7-3.1,2.5-5.7,4.4-8.1c1.1-1.4,2.5-2.6,3.9-3.7c-3.7,3.3-5.9,7.6-8.2,11.9L70.3,55.2z"/>
	<path class="fern-one" d="M83.4,56.7c0.4,0.5,0.4,0.9,0.1,1.4l-0.1,0C83.4,57.7,83.4,57.2,83.4,56.7C83.4,56.7,83.4,56.7,83.4,56.7z"/>
	<path class="fern-one" d="M80.3,79.5c0,0.1-0.1,0.3-0.1,0.4c0,0-0.1,0-0.1,0c0-0.1,0.1-0.3,0.1-0.4C80.2,79.5,80.3,79.5,80.3,79.5z"/>
	<path class="fern-one" d="M80.2,79.5c0.1-0.2,0.2-0.5,0.3-0.7l0,0c-0.1,0.2-0.1,0.5-0.2,0.7C80.3,79.5,80.2,79.5,80.2,79.5z"/>
	<path class="fern-one" d="M80.4,78.8c0.1-0.2,0.1-0.5,0.2-0.7c0,0,0.2,0,0.2,0C80.7,78.4,80.6,78.6,80.4,78.8
		C80.5,78.8,80.4,78.8,80.4,78.8z"/>
	<path class="fern-one" d="M80.9,76.9c0-0.1,0.1-0.3,0.1-0.4c0,0,0.1,0,0.1,0c0,0.1-0.1,0.3-0.1,0.4L80.9,76.9z"/>
	<path class="fern-one" d="M83.5,62.9c-0.1,0.2-0.1,0.5-0.2,0.7c-0.1,0-0.1,0-0.2,0c0.1-0.2,0.1-0.5,0.2-0.7
		C83.4,62.9,83.4,62.9,83.5,62.9z"/>
	<path class="fern-one" d="M68.6,60.2c0.1-0.2,0.2-0.5,0.3-0.7c0,0,0.1,0,0.1,0c-0.1,0.2-0.1,0.5-0.2,0.7L68.6,60.2z"/>
	<path class="fern-one" d="M68.9,59c0-0.1,0.1-0.3,0.1-0.4c0,0,0.1,0,0.1,0C69.1,58.8,69,58.9,68.9,59L68.9,59z"/>
	<path class="fern-one" d="M69.6,56.8c0-0.1,0.1-0.3,0.1-0.4c0,0,0.1,0,0.1,0C69.8,56.6,69.7,56.7,69.6,56.8L69.6,56.8z"/>
	<path class="fern-one" d="M70.4,55.2c-0.1,0.1-0.1,0.2-0.2,0.4c0-0.1,0-0.3,0.1-0.4C70.3,55.2,70.4,55.2,70.4,55.2z"/>
	<path class="fern-one" d="M69.7,56.8c0,0,0,0.1,0,0.1c0,0-0.1,0-0.1,0C69.6,56.9,69.6,56.9,69.7,56.8C69.6,56.8,69.7,56.8,69.7,56.8z"/>
	<path class="fern-one" d="M69,59c0,0.2,0,0.3,0,0.5c0,0-0.1,0-0.1,0C68.9,59.3,68.9,59.1,69,59C68.9,59,69,59,69,59z"/>
	<path class="fern-one" d="M68.8,60.2c0,0.1,0,0.1,0,0.1c0,0-0.1,0-0.1,0c0,0,0-0.1,0-0.2C68.6,60.2,68.8,60.2,68.8,60.2z"/>
	<path class="fern-one" d="M83.3,54.4c0-0.1,0-0.1,0.1-0.2c0,0.1,0.1,0.1,0.1,0.2C83.5,54.4,83.3,54.4,83.3,54.4z"/>
	<path class="fern-one" d="M83.3,54.9c0-0.2,0-0.3,0-0.5c0,0,0.1,0,0.1,0c0,0.2,0,0.3,0,0.5C83.5,54.8,83.3,54.9,83.3,54.9z"/>
	<path class="fern-one" d="M83.5,54.8c0,0.2,0,0.3,0,0.5c0,0-0.1,0-0.1,0c0-0.2,0-0.3,0-0.5C83.3,54.9,83.5,54.8,83.5,54.8z"/>
	<path class="fern-one" d="M83.5,55.3c0,0.2,0,0.3,0,0.5c0,0-0.1,0-0.1,0c0-0.2,0-0.3,0-0.5C83.3,55.3,83.5,55.3,83.5,55.3z"/>
	<path class="fern-one" d="M83.3,56.3c0-0.2,0-0.3,0-0.5c0,0,0.1,0,0.1,0c0,0.2,0,0.3,0,0.5C83.5,56.3,83.3,56.3,83.3,56.3z"/>
	<path class="fern-one" d="M83.5,56.3c0,0.2,0,0.3,0,0.5c0,0,0,0,0,0c0-0.2,0-0.3,0-0.5C83.3,56.3,83.5,56.3,83.5,56.3z"/>
	<path class="fern-one" d="M83.5,58.2c0,0.2,0,0.3,0,0.5c0,0-0.1,0-0.1,0c0-0.2,0-0.3,0-0.5C83.4,58.2,83.5,58.2,83.5,58.2z"/>
	<path class="fern-one" d="M83.3,59.1c0-0.2,0-0.3,0-0.5c0,0,0.1,0,0.1,0c0,0.2,0,0.3,0,0.5C83.5,59.1,83.4,59.1,83.3,59.1z"/>
	<path class="fern-one" d="M83.4,59.6c0-0.2,0-0.3,0-0.5c0.1,0,0.1,0,0.2,0c0,0.2,0,0.3,0,0.5C83.5,59.6,83.4,59.6,83.4,59.6z"/>
	<path class="fern-one" d="M83.5,59.6c0,0.2,0,0.3,0,0.5c-0.1,0-0.1,0-0.2,0c0-0.2,0-0.3,0-0.5C83.4,59.6,83.5,59.6,83.5,59.6z"/>
	<path class="fern-one" d="M83.5,60.1c0,0.2,0,0.3,0,0.5c-0.1,0-0.1,0-0.2,0c0-0.2,0-0.3,0-0.5C83.4,60.1,83.5,60.1,83.5,60.1z"/>
	<path class="fern-one" d="M83.3,61c0-0.2,0-0.3,0-0.5c0.1,0,0.1,0,0.2,0c0,0.2,0,0.3,0,0.5C83.5,61,83.4,61,83.3,61z"/>
	<path class="fern-one" d="M83.5,61c0,0.2,0,0.3,0,0.5c-0.1,0-0.1,0-0.2,0c0-0.2,0-0.3,0-0.5C83.4,61,83.5,61,83.5,61z"/>
	<path class="fern-one" d="M83.3,62c0-0.2,0-0.3,0-0.5c0.1,0,0.1,0,0.2,0c0,0.2,0,0.3,0,0.5C83.4,62,83.4,62,83.3,62z"/>
	<path class="fern-one" d="M83.3,62.4c0-0.2,0-0.3,0-0.5c0.1,0,0.1,0,0.2,0c0,0.2,0,0.3,0,0.5C83.4,62.4,83.4,62.4,83.3,62.4z"/>
	<path class="fern-one" d="M83.5,62.4c0,0.2,0,0.3,0,0.5c-0.1,0-0.1,0-0.2,0c0-0.2,0-0.3,0-0.5C83.4,62.4,83.4,62.4,83.5,62.4z"/>
	<path class="fern-one" d="M83.1,64.1c0-0.2,0-0.3,0-0.5c0.1,0,0.1,0,0.2,0c0,0.2,0,0.3,0,0.5C83.2,64.1,83.2,64.1,83.1,64.1z"/>
	<path class="fern-one" d="M83.1,64.6c0-0.2,0-0.3,0-0.5c0.1,0,0.1,0,0.2,0c0,0.2,0,0.3,0,0.5C83.3,64.6,83.1,64.6,83.1,64.6z"/>
	<path class="fern-one" d="M83.1,65.1c0-0.2,0-0.3,0-0.5c0,0,0.1,0,0.1,0c0,0.2,0,0.3,0,0.5L83.1,65.1z"/>
	<path class="fern-one" d="M83.3,65.1c0,0.1,0,0.1-0.1,0.2c0-0.1,0-0.1-0.1-0.2C83.1,65.1,83.3,65.1,83.3,65.1z"/>
	<path class="fern-one" d="M82.9,66.2c0-0.1,0.1-0.2,0.1-0.2c0,0.1,0.1,0.2,0.1,0.2C83,66.2,83,66.2,82.9,66.2z"/>
	<path class="fern-one" d="M83.1,66.2c0,0.1-0.1,0.2-0.1,0.2c0-0.1-0.1-0.2-0.1-0.2C83,66.2,83,66.2,83.1,66.2z"/>
	<path class="fern-one" d="M81,76.9c0,0.1-0.1,0.1-0.1,0.2c0-0.1-0.1-0.1-0.1-0.2C80.9,76.9,81,76.9,81,76.9z"/>
	<path class="fern-one" d="M80.6,78.1c0-0.1,0-0.1,0-0.2c0,0,0.1,0,0.1,0c0,0,0,0.1,0,0.2C80.8,78.1,80.6,78.1,80.6,78.1z"/>
	<path class="fern-one" d="M64.2,29.4c-0.8-0.9-1-2-1.1-3.2C63.9,27.1,64.2,28.2,64.2,29.4L64.2,29.4z"/>
	<path class="fern-one" d="M63.4,52.6c-0.2-0.2-0.3-0.3-0.5-0.5c0.1-0.2,0.3-0.3,0.4-0.5c0.1-0.1,0.2-0.2,0.3-0.2c0,0,0.1,0,0.1,0
		C63.8,51.9,63.7,52.3,63.4,52.6z"/>
	<path class="fern-one" d="M61.5,22c-0.2-0.2-0.5-0.4-0.3-0.9C61.7,21.3,61.6,21.7,61.5,22L61.5,22z"/>
	<path class="fern-one" d="M63.9,50.7c-0.1-0.2-0.3-0.4-0.1-0.6c0,0,0.1,0,0.2,0C64.2,50.3,64,50.5,63.9,50.7L63.9,50.7z"/>
	<path class="fern-one" d="M60.8,18.5c0.1,0.2,0.3,0.4,0,0.6C60.5,18.9,60.7,18.7,60.8,18.5C60.8,18.5,60.8,18.5,60.8,18.5z"/>
	<path class="fern-one" d="M65,36.7c0-0.3,0-0.6,0-1l0.1,0C65.3,36.1,65.3,36.4,65,36.7C65,36.7,65,36.7,65,36.7z"/>
	<path class="fern-one" d="M63.9,50.7c-0.1,0.2-0.1,0.5-0.2,0.7c0,0-0.1,0-0.1,0C63.7,51.2,63.8,51,63.9,50.7
		C63.9,50.7,63.9,50.7,63.9,50.7z"/>
	<path class="fern-one" d="M62.5,24.9C62.6,25,62.6,25.1,62.5,24.9C62.6,25.1,62.5,25,62.5,24.9L62.5,24.9z"/>
	<path class="fern-one" d="M62.5,24.9C62.5,24.8,62.4,24.6,62.5,24.9C62.5,24.6,62.5,24.7,62.5,24.9C62.5,24.9,62.5,24.9,62.5,24.9z"/>
	<path class="fern-one" d="M60.8,18c-0.1-0.2-0.2-0.5-0.2-0.7l0,0C60.7,17.5,60.7,17.8,60.8,18L60.8,18z"/>
	<path class="fern-one" d="M61.6,22c0.1,0.2,0.2,0.5,0.2,0.7c0,0-0.1,0-0.1,0C61.7,22.5,61.6,22.3,61.6,22C61.5,22,61.6,22,61.6,22z"/>
	<path class="fern-one" d="M61,20.1c0,0,0-0.1,0-0.1c0,0,0.1,0,0.1,0C61.1,20,61.1,20.1,61,20.1L61,20.1z"/>
	<path class="fern-one" d="M61.1,20.1c0,0,0,0.1,0,0.1c0,0-0.1,0-0.1,0C61,20.2,61,20.2,61.1,20.1C61,20.1,61.1,20.1,61.1,20.1z"/>
	<path class="fern-one" d="M60.8,18c0,0.2,0,0.3,0,0.5c0,0-0.1,0-0.1,0C60.8,18.3,60.8,18.2,60.8,18C60.8,18,60.8,18,60.8,18z"/>
	<path class="fern-one" d="M61.8,22.7c0,0,0,0.1,0,0.1c0,0-0.1,0-0.1,0C61.8,22.8,61.8,22.8,61.8,22.7C61.8,22.7,61.8,22.7,61.8,22.7z"/>
	<path class="fern-one" d="M60.6,17.3c0,0,0-0.1,0-0.1C60.6,17.2,60.6,17.2,60.6,17.3C60.6,17.3,60.6,17.3,60.6,17.3z"/>
	<path class="fern-one" d="M64.2,29.4c0,0,0,0.1,0,0.1C64.2,29.4,64.2,29.4,64.2,29.4C64.2,29.4,64.2,29.4,64.2,29.4z"/>
	<path class="fern-one" d="M64.9,35.8c0,0,0-0.1,0-0.1c0,0,0.1,0,0.1,0C65,35.7,65,35.7,64.9,35.8C65,35.8,64.9,35.8,64.9,35.8z"/>
	<path class="fern-one" d="M65,37.2c0-0.2,0-0.3,0-0.5c0,0,0,0,0,0C65,36.9,65,37,65,37.2L65,37.2z"/>
	<path class="fern-one" d="M65,37.2c0,0.2,0,0.3,0,0.5l-0.1,0C65,37.5,65,37.3,65,37.2C65,37.2,65,37.2,65,37.2z"/>
	<path class="fern-one" d="M65,37.7c0,0.2,0,0.3,0,0.5c0,0-0.1,0-0.1,0C65,38,65,37.8,65,37.7C65,37.7,65,37.7,65,37.7z"/>
	<path class="fern-one" d="M65,38.6c0-0.2,0-0.3,0-0.5c0,0,0.1,0,0.1,0C65,38.3,65,38.5,65,38.6C65,38.6,65,38.6,65,38.6z"/>
	<path class="fern-one" d="M65,39.1c0-0.2,0-0.3,0-0.5c0,0,0.1,0,0.1,0C65,38.8,65,38.9,65,39.1C65,39.1,65,39.1,65,39.1z"/>
	<path class="fern-one" d="M65,39.1c0,0.2,0,0.3,0,0.5c0,0-0.1,0-0.1,0C65,39.4,65,39.2,65,39.1C65,39.1,65,39.1,65,39.1z"/>
	<path class="fern-one" d="M65,40c0-0.2,0-0.3,0-0.5c0,0,0.1,0,0.1,0C65,39.7,65,39.9,65,40C65,40,65,40,65,40z"/>
	<path class="fern-one" d="M65,40c0,0,0,0.1,0,0.1c0,0-0.1,0-0.1,0C65,40.1,65,40.1,65,40C65,40,65,40,65,40z"/>
	<path class="fern-one" d="M50.1,83.3c-0.1-0.2-0.3-0.4-0.5-0.7C50.1,82.8,50.5,82.9,50.1,83.3C50.1,83.3,50.1,83.3,50.1,83.3z"/>
	<path class="fern-one" d="M45.5,38.8c-0.3,0-0.5-0.1-0.5-0.5C45.2,38.5,45.3,38.6,45.5,38.8z"/>
	<path class="fern-one" d="M67.6,69.4c-0.1,0-0.2,0.1-0.4,0.1c0,0,0-0.1,0-0.1C67.3,69.4,67.5,69.4,67.6,69.4
		C67.6,69.4,67.6,69.4,67.6,69.4z"/>
	<path class="fern-one" d="M78,102.8c0,0,0,0.1,0,0.1C78,102.9,78,102.9,78,102.8C78,102.8,78,102.8,78,102.8z"/>
	<path class="fern-one" d="M67,91.5c-0.3-0.3-0.6-0.6-1-0.9c-1.3-2.6-3-4.9-4.9-7.1c-2.3-2.8-4.7-5.4-7-8.3c1.3,1.3,2.7,2.5,3.9,3.9
		c3,3.5,5.9,7,8.3,10.8C66.8,90.3,67.3,90.8,67,91.5z"/>
	<path class="fern-one" d="M46,62.7c3.6,2.7,7.3,5.3,11,7.7C53,68.4,49.3,65.8,46,62.7z"/>
	<path class="fern-one" d="M62.9,73.7c-0.2,0.1-0.5,0.1-0.7,0.2c-1.3-0.8-2.7-1.7-4-2.5C59.9,71.9,61.5,72.6,62.9,73.7z"/>
	<path class="fern-one" d="M63.6,74.4c-0.2-0.2-0.5-0.5-0.7-0.7C63.4,73.7,63.6,73.9,63.6,74.4z"/>
	<path class="fern-one" d="M31.3,45.8c0.5-0.4,0.6,0,0.9,0.1C31.8,46.3,31.6,45.9,31.3,45.8z"/>
	<path class="fern-one" d="M33.9,46.9c-0.4,0.2-0.6,0.1-0.8-0.3C33.5,46.3,33.8,46.4,33.9,46.9z"/>
	<path class="fern-one" d="M36.6,47.8c0.1,0.1,0.3,0.1,0.4,0.2c-0.1,0-0.3,0-0.4-0.1C36.6,47.9,36.6,47.8,36.6,47.8z"/>
	<path class="fern-one" d="M35.9,47.5c0.2,0.1,0.5,0.2,0.7,0.2c0,0,0,0.1,0,0.1C36.3,47.8,36.1,47.7,35.9,47.5L35.9,47.5z"/>
	<path class="fern-one" d="M35.9,47.6c-0.1,0-0.3-0.1-0.4-0.1c0,0,0-0.1,0-0.1C35.6,47.5,35.8,47.5,35.9,47.6
		C35.9,47.5,35.9,47.6,35.9,47.6z"/>
	<path class="fern-one" d="M46.3,40.4c-0.2,0.2-0.3,0.3-0.5,0.5c-0.2-0.1-0.3-0.3-0.5-0.4c-2.2-1.3-4.5-2.5-6.8-3.7
		C41.3,37.5,43.8,39,46.3,40.4z"/>
	<path class="fern-one" d="M36.8,35.8c0.1,0.1,0.1,0.2,0.1,0.3c-0.1,0-0.3,0-0.4,0c0,0-0.1-0.2-0.1-0.3C36.5,35.9,36.6,35.8,36.8,35.8z"
		/>
	<path class="fern-one" d="M31.7,34.6c-0.2-0.1-0.5-0.2-0.7-0.2l0-0.1C31.3,34.4,31.5,34.4,31.7,34.6L31.7,34.6z"/>
	<path class="fern-one" d="M32.9,34.8c0.1,0,0.3,0.1,0.4,0.1c0,0,0,0.1,0,0.1C33.2,34.9,33,34.9,32.9,34.8C32.9,34.8,32.9,34.8,32.9,34.8
		z"/>
	<path class="fern-one" d="M32.9,34.8c0,0-0.1,0-0.1,0C32.8,34.8,32.9,34.8,32.9,34.8C32.9,34.8,32.9,34.8,32.9,34.8z"/>
	<path class="fern-one" d="M31.7,34.5c0,0,0.1,0,0.1,0C31.8,34.6,31.8,34.6,31.7,34.5C31.7,34.6,31.7,34.5,31.7,34.5z"/>
	<path class="fern-one" d="M31,34.4c-0.2,0-0.3,0-0.5,0l0-0.1C30.7,34.3,30.9,34.3,31,34.4C31,34.3,31,34.4,31,34.4z"/>
	<path class="fern-one" d="M30.6,34.4c0,0-0.1,0-0.1,0c0,0,0.1-0.1,0.1-0.1C30.5,34.3,30.6,34.4,30.6,34.4z"/>
	<path class="fern-one" d="M26.4,20.4c-0.2,0.1-0.4,0.1-0.7,0.2c-0.1-0.1-0.2-0.1-0.3-0.2c-1.1-1.2-2.8-1.6-3.8-2.8c0,0,0,0,0,0
		C23.5,18.1,24.9,19.3,26.4,20.4z"/>
	<path class="fern-one" d="M18.3,15.7c1.3,0.2,2.4,1,3.3,1.9c0,0,0,0,0,0C20.4,17.3,19.3,16.5,18.3,15.7C18.3,15.7,18.3,15.7,18.3,15.7z"
		/>
	<path class="fern-one" d="M16.7,14.9c0.7,0,1.2,0.3,1.7,0.7c0,0,0,0.1,0,0.1c-0.7,0.2-1.2-0.3-1.7-0.7L16.7,14.9z"/>
	<path class="fern-one" d="M10.7,13.4c-0.2-0.1-0.5-0.1-0.7-0.2l0-0.1C10.2,13.2,10.5,13.3,10.7,13.4C10.7,13.3,10.7,13.4,10.7,13.4z"/>
	<path class="fern-one" d="M12.4,13.6c0.2,0.1,0.5,0.1,0.7,0.2l0,0.1C12.8,13.8,12.6,13.7,12.4,13.6L12.4,13.6z"/>
	<path class="fern-one" d="M13.1,13.8c0.2,0.1,0.5,0.2,0.7,0.2l0,0.1c-0.2-0.1-0.5-0.1-0.7-0.2C13.1,13.9,13.1,13.8,13.1,13.8z"/>
	<path class="fern-one" d="M14.8,14.4C14.8,14.4,14.9,14.3,14.8,14.4c0.1,0,0.1,0,0.1,0.1c0,0-0.1,0-0.1,0C14.8,14.5,14.8,14.4,14.8,14.4
		z"/>
	<path class="fern-one" d="M16.6,15c-0.1-0.1-0.3-0.1-0.4-0.2c0.1,0,0.3,0,0.4,0.1C16.7,14.9,16.6,15,16.6,15z"/>
	<path class="fern-one" d="M13.8,14c0,0,0.1,0,0.1,0C13.9,14,13.9,14.1,13.8,14C13.8,14.1,13.8,14,13.8,14z"/>
	<path class="fern-one" d="M12.4,13.6c0,0-0.1,0-0.1,0C12.3,13.6,12.3,13.6,12.4,13.6C12.4,13.6,12.4,13.6,12.4,13.6z"/>
	<path class="fern-one" d="M11.2,13.3c0.1,0,0.1,0,0.2,0C11.3,13.4,11.2,13.4,11.2,13.3L11.2,13.3z"/>
	<path class="fern-one" d="M11.2,13.4c-0.2,0-0.3,0-0.5,0c0,0,0,0,0,0C10.9,13.3,11,13.3,11.2,13.4C11.2,13.3,11.2,13.4,11.2,13.4z"/>
	<path class="fern-one" d="M10,13.2c-0.1,0-0.1,0-0.2,0c0.1,0,0.1-0.1,0.2-0.1C10,13.1,10,13.2,10,13.2z"/>
	<path class="fern-one" d="M35.9,15.1C35.9,15.2,35.8,15.3,35.9,15.1C35.8,15.3,35.8,15.2,35.9,15.1L35.9,15.1z"/>
	<path class="fern-one" d="M35.9,20.8c0,0,0,0.1,0,0.1C35.9,20.9,35.9,20.8,35.9,20.8C35.9,20.8,35.9,20.8,35.9,20.8z"/>
	<path class="fern-one" d="M35.9,20.8c0-0.2,0-0.3,0-0.5l0,0C35.9,20.5,35.9,20.6,35.9,20.8C35.9,20.8,35.9,20.8,35.9,20.8z"/>
	<path class="fern-one" d="M35.9,20.3c0,0,0-0.1,0-0.1C35.9,20.2,35.9,20.3,35.9,20.3C35.9,20.3,35.9,20.3,35.9,20.3z"/>
	<path class="fern-one" d="M35.7,18.6c0,0,0,0.1,0,0.1C35.7,18.7,35.7,18.7,35.7,18.6L35.7,18.6z"/>
	<path class="fern-one" d="M35.7,18.6c0,0,0-0.1,0-0.1C35.6,18.6,35.7,18.6,35.7,18.6C35.7,18.6,35.7,18.6,35.7,18.6z"/>
	<path class="fern-one" d="M35.7,17.2c0,0,0,0.1,0,0.1C35.7,17.3,35.7,17.3,35.7,17.2C35.6,17.2,35.7,17.2,35.7,17.2z"/>
	<path class="fern-one" d="M35.6,17.2c0,0,0-0.1,0-0.1C35.6,17.1,35.6,17.2,35.6,17.2C35.7,17.2,35.6,17.2,35.6,17.2z"/>
	<path class="fern-one" d="M35.9,15.1c0,0,0-0.1,0-0.1C35.9,15,35.9,15.1,35.9,15.1C35.9,15.1,35.9,15.1,35.9,15.1z"/>
	<path class="fern-one" d="M36.8,86.6c0.5-0.5,0.9-0.9,1.9-0.8C38,86.4,37.5,86.7,36.8,86.6z"/>
	<path class="fern-one" d="M48.7,83.3c-0.3,0.4-0.7,0.4-1.2,0.2c0,0,0,0,0,0C47.9,83.2,48.3,83.2,48.7,83.3
		C48.7,83.3,48.7,83.3,48.7,83.3z"/>
	<path class="fern-one" d="M43,84.3c0.1-0.1,0.2-0.1,0.4-0.2c0,0,0,0.1,0,0.1C43.3,84.3,43.1,84.3,43,84.3L43,84.3z"/>
	<path class="fern-one" d="M42.5,84.3c-0.2,0.1-0.5,0.2-0.7,0.3l0-0.1C42.1,84.4,42.3,84.4,42.5,84.3C42.5,84.3,42.5,84.3,42.5,84.3z"/>
	<path class="fern-one" d="M41.8,84.6c-0.2,0.1-0.5,0.2-0.7,0.2l0-0.1c0.2-0.1,0.5-0.2,0.7-0.2C41.8,84.5,41.8,84.6,41.8,84.6z"/>
	<path class="fern-one" d="M39.7,85.3c0.1-0.1,0.2-0.1,0.3-0.2c0,0,0,0.1,0,0.1C39.9,85.3,39.8,85.3,39.7,85.3L39.7,85.3z"/>
	<path class="fern-one" d="M39.7,85.3c-0.1,0.1-0.2,0.1-0.3,0.2c0,0,0-0.1,0-0.1C39.4,85.3,39.6,85.3,39.7,85.3
		C39.7,85.3,39.7,85.3,39.7,85.3z"/>
	<path class="fern-one" d="M41.1,84.9c0,0-0.1,0-0.1,0c0,0,0.1-0.1,0.1-0.1C41.1,84.8,41.1,84.9,41.1,84.9z"/>
	<path class="fern-one" d="M43,84.4c-0.2,0-0.3,0-0.5,0c0,0,0,0,0,0C42.7,84.3,42.9,84.3,43,84.4C43,84.3,43,84.4,43,84.4z"/>
	<path class="fern-one" d="M47,83.6c0,0-0.1,0-0.1,0C46.9,83.6,47,83.6,47,83.6L47,83.6z"/>
	<path class="fern-one" d="M47,83.6c0.2,0,0.3,0,0.5,0c0,0,0,0,0,0C47.4,83.6,47.2,83.6,47,83.6C47,83.6,47,83.6,47,83.6z"/>
	<path class="fern-one" d="M55.5,107.5c-0.6-0.7-0.8-1.5-0.5-2.4C55.5,105.8,55.7,106.6,55.5,107.5z"/>
	<path class="fern-one" d="M55,105.1c0-0.2,0-0.3,0-0.5C55.2,104.8,55.2,105,55,105.1z"/>
	<path class="fern-one" d="M54.6,93.9c-0.2-0.2-0.4-0.4-0.3-0.7c0.8-1.7,0.8-1.7-0.6-3c1.2,0.4,1.8,1.3,2.8,1.5
		C56.1,92.7,55.4,93.3,54.6,93.9z"/>
	<path class="fern-one" d="M55.5,88.9C55.5,88.9,55.6,88.9,55.5,88.9c0.1-0.1,0.2,0,0.2,0c0.1,0.2,0,0.2-0.1,0.1
		C55.5,89,55.5,89,55.5,88.9z"/>
	<path class="fern-one" d="M56.6,89.2C56.6,89.3,56.7,89.4,56.6,89.2C56.6,89.4,56.6,89.3,56.6,89.2C56.6,89.2,56.6,89.2,56.6,89.2z"/>
	<path class="fern-one" d="M50,29.4c0.7,0.4,1,1.4,1.9,1.5C52,31,52,31,52.1,31.1c-0.1,3.1,0.2,6.1,0.6,9.1c-1.1-1.9-2.3-3.8-3.6-5.6
		C50.8,33.2,50,31.2,50,29.4z"/>
	<path class="fern-one" d="M52.1,31.1C52,31,52,31,51.9,30.9c-1.1-1.7-1.8-3.5-1.2-5.6c0.6,0.1,1.1,0.2,1.7,0.4c-0.2,1.9-0.6,3.8,0.8,5.4
		c0,0,0,0,0,0C52.7,31.1,52.4,31.1,52.1,31.1z"/>
	<path class="fern-one" d="M53.1,31.1c-1.4-1.6-0.9-3.6-0.8-5.4c0.9,0,1.7,0,2.6,0.1C54.9,27.7,54.4,29.5,53.1,31.1z"/>
	<path class="fern-one" d="M42.9,29.1c0.1,0.1,0.2,0.1,0.3,0.2c0.8,0.7,1.3-0.6,2.1-0.3c-0.7,0.8-1.6,1.2-2.7,1.3
		C42.4,29.8,42.8,29.5,42.9,29.1z"/>
</g>
</svg>
