<?xml version="1.0" encoding="utf-8"?>
<svg version="1.1" id="Layer_1" xmlns="http://www.w3.org/2000/svg" xmlns:xlink="http://www.w3.org/1999/xlink" x="0px" y="0px"
	 viewBox="0 0 96.6 94.4" style="enable-background:new 0 0 96.6 94.4;" xml:space="preserve">
<style type="text/css">
	.fern-two{fill:none;stroke:inherit;stroke-width:0.25;stroke-miterlimit:10;}
</style>
<g>
	<path class="fern-two" d="M43.1,29.8c0.3,0.6,0.9,0.6,1.4,0.8c5,1.8,9.4,4.6,13.7,7.7c0.8,0.6,1.6,1.1,2.5,1.5c0,0,0,0,0,0
		c-0.2,0.5,0.1,0.7,0.4,0.9c1,0.5,1.4,1.6,2.5,2c2.2,0.7,4.3,1.4,6.7,0.9c0.5-0.1,1,0,1.4,0.3c-0.3,0.2-0.5,0.3-0.8,0.5
		c-0.9-0.2-1.9,0-2.8,0c-0.7-0.1-1.3-0.1-2-0.2c-0.3,0-0.7-0.1-0.9,0.2c-0.2,0.4,0,0.7,0.2,1c0.9,1.1,1.7,2.1,2.5,3.2
		c0.2,0.4,0.4,0.8,0.5,1.2c1,2.2,2,4.3,3,6.5c0.2,1.3,0.3,2.6,0.5,3.9c-0.4,2.3-0.8,4.6-0.9,7c0,0,0,0,0,0c-0.8-0.2-0.7,0.5-0.9,0.9
		c-0.8,1.6-1.7,3.2-3.1,4.3c-0.8,0.6-0.8,1.8-1.6,2.4c0,0,0,0,0,0c0.1-0.4,0.3-0.7,0.5-1.4c-2.3,1.3-4.5,2.2-6.9,2.5
		c-3.4,0.5-6.7,0.1-9.9-0.6c-0.9-0.4-1.7-0.8-2.7-0.8c-4.1-1.4-7.8-3.4-11.6-5.3c0-0.1,0-0.2,0.1-0.3c0.1-0.1,0.3-0.1,0.4-0.2
		c1.9,0.2,3.3,1.5,5,2.3c5.9,2.8,12,4.8,18.7,3.9c1.4-0.2,2.8-0.5,4.1-1.2c0.5-0.3,0.9-0.5,1.4-0.8c0.3-0.1,0.5-0.2,0.8-0.4
		c2.2-1.6,3.9-3.7,4.7-6.4c1.7-5.8,0.3-11.2-2.6-16.3c-0.2-0.3-0.4-0.6-0.6-0.9c-1.6-3-3.9-5.4-6.3-7.7c-1.7-1.6-3.5-2.9-5.3-4.4
		c-0.8,0.6-0.8,1.4-1.1,2.1c0,0,0,0,0,0c0.5-2.5,0.5-2.5-1.7-3.7c-1-0.5-1.9-1-2.9-1.5c-0.5-0.2-1-0.5-1.5-0.7
		c-0.5-0.6-1.3-0.8-2-1.1c-2.1-0.8-4.2-2-6.5-2.2c-1.7-1.1-3.7-1.6-5.7-2c-0.3-0.1-0.7-0.3-1-0.4c-0.8-0.5-1.7-0.5-2.6-0.5
		c-2-0.9-4.3-0.8-6.7-1.7c1.1,1.1,2.3,1.4,3,2.3l0,0.1L26.3,28c-3.8-3.1-8.3-3.3-12.9-3.8c-1.8-0.2-3.7-0.3-5.6-0.3
		c0.9,0.8,1.7,1.6,2.9,1.9c0.2,0.6,0.9,0.6,1.3,0.9c0.6,1.4,2.4,1.8,2.9,3.3l0,0c-1.6-0.9-2.5-2.7-4.4-3.3c0,0,0,0,0,0
		c0,0,0-0.1,0-0.1c-0.1,0-0.2,0-0.3,0c-1.5-1.8-3.4-3-5.9-3c-0.7,0-1.4-0.1-2.1-0.1c0.3-0.5,0.8-0.7,1.4-0.8
		c2.8-0.1,5.6,0.3,8.3,0.4c0.4,0,1,0.3,1.2-0.2c0.8-1.9,2.8-3.1,3.2-5.2c0.8-0.3,1.4-1.2,2.4-0.7c-0.7,0.6-1.4,1.3-2.1,1.9
		c0,0,0,0,0,0c0,0.1-0.1,0.2-0.1,0.3c-1.1,1.1-2.2,2.2-2.7,4c2.6,0.4,5.2,0.7,7.7,1.1c3.4,0.5,6.7,1.1,10,2c1,0.3,1.9,0.3,2.9,0.1
		c0.2,0.5,0.5,0.9,1.2,1c1.2,0.3,2.3,0.7,3.5,1C40.4,29.6,41.8,29.5,43.1,29.8z"/>
	<path class="fern-two" d="M53.4,12.4c-2.9,0.3-5.8,0.6-8.7,0.8c-0.4-0.7-1.1-0.6-1.8-0.5c-2.3,0.4-4.6,0.9-6.9,1.3
		c-2,0.3-3.7,1.7-5.7,1.7c0.4-0.9,0.8-1.8-0.1-2.7c-0.2-0.2-0.1-0.7-0.2-1.1c0.3-0.2,0.7-0.3,1-0.5c0.2,0,0.5,0.1,0.6-0.3
		c-0.3-0.2-0.5,0-0.7,0.1c-0.4,0-0.9-0.1-1.3-0.1c-0.1-1-1.1-1.3-1.7-1.9c-0.9,0.6-2.2,0.7-2.2,2.1c0,0.1-0.1,0.3-0.1,0.4
		c-2.4,0.7-4.8,1.4-5.8,4.1c-0.8,0.1-1.7,0.1-2.5,0.2c1.4-4.3,4.8-6.5,8.5-8.1c1.9-0.8,4.2-0.7,6.3-0.8c5.3-0.1,10.5,0.7,15.5,2.4
		C49.8,10.3,51.9,10.7,53.4,12.4z M36.2,10.8c0.1-0.1,0.1-0.1,0.2-0.2c-0.1,0-0.2,0-0.3,0c-0.9-0.1-1.8-0.2-2.6,0.3
		c-0.3,0-0.7-0.2-0.9,0.3c0.3,0.3,0.7,0.1,1,0C34.5,11,35.4,11.1,36.2,10.8z M38.3,10.4c-0.4,0.1-0.9-0.4-1.1,0.3
		c0.4,0.2,0.8,0.1,1.2-0.1c1.7,0.1,3.4,0.1,5.1,0.2c0-0.2,0-0.3,0-0.5C41.8,10.3,40,10,38.3,10.4z"/>
	<path class="fern-two" d="M32.8,27.6c0.3,0.1,0.7,0.3,1,0.4c0.2,0.5,0.5,1.1,0.7,1.6c1.4,3,3.2,5.6,6.9,5.9c0,0.3-0.1,0.6-0.1,1
		c-0.6,0-1.1-0.6-2-0.2c1.6,1.2,2.8,2.6,4.6,3.2c1.4,0,2.9,0.5,4.3,0.1c1.2,0,0.7-1.1,1.1-1.6c0.6,0.4,1.7,0.1,2,1.1
		c-0.6,0-0.6,0.5-0.9,0.9c-1.2,1.8-1.3,3.9-1.5,6c-0.8-0.2-1.4-1-2.4-0.7c-0.7-0.5-1.5-1.1-2.2-1.6c-0.6-3.3-3.1-4.8-5.7-6.5
		c0.8,2.3,2.4,4,3.4,6c-0.3,0.2-0.7,0.4-1,0.5c-0.9-1.6-1.8-3.2-2.7-4.8c0,1.5-0.1,2.8-0.5,4.2c-0.2,0.7-0.5,1.5,0.3,2.1
		c0.7,2.2,0,4.2-1,6.1c-0.3,0.5-0.5,0.9-1.1,1c-0.4-1.9-3.4-4-5.8-4.1c1.4-2.6,3.2-4.5,6.4-4.4c0.4-0.5,0.6-1.1,0.5-1.8
		c0.4-2.9-0.5-5.5-1.6-8.1C34.8,31.7,33.1,30,32.8,27.6z"/>
	<path class="fern-two" d="M39.3,28.5c-1.1-0.4-2.3-0.8-3.5-1c-0.6-0.1-0.9-0.5-1.2-1c0.1-0.1,0.3-0.1,0.4-0.2c0.1,0.1,0.3,0.1,0.4,0.2
		c0.1,0.1,0.2,0.2,0.3,0.3c0-0.1,0-0.2,0-0.3c0.1-0.2,0.2-0.4,0.2-0.6c0,0,0,0,0,0c0.4,0.3,0.8,0.1,1.3,0c1.7-0.5,3.5-1,5.2-1.5
		c2.9-0.8,5.9-0.3,8.8-1.2c1.5-0.4,3.4,0.1,4.5-1.5c0,0,0,0,0,0c1.2,0.5,2.2,0,2.9-1c0,0,0,0.1,0,0.1c0.2-0.1,0.3-0.1,0.5-0.2
		c0,0,0,0-0.1,0c0.2-0.1,0.3-0.1,0.5-0.2c0,0-0.1,0-0.1,0c0.4,0.2,0.7,0.1,0.9-0.4c0,0,0,0.1,0,0.1c0.4,0.1,0.7-0.1,0.9-0.4
		c0,0,0,0,0,0c0.3,0,0.5-0.2,0.6-0.5c0,0,0,0,0,0c0.2-0.1,0.3-0.1,0.5-0.2c0,0-0.1,0-0.1,0c0.2,0,0.3,0,0.2-0.2
		c1.5-1.2,3.1-2.2,4.5-3.5c-0.9,1.9-2,3.6-3.5,5.1c-2.3,2.3-4.9,4.2-7.8,5.6c-0.4,0.2-1.1,0.1-1,0.9c0,0,0,0,0,0
		c-0.7-0.6-1.2,0.1-1.8,0.3c-1.9,0.7-3.9,1.4-5.9,1.8c-0.4-0.7-1.1-0.7-1.7-0.5c-0.9,0.3-1.8,0.1-2.7,0.1
		C41.4,28.9,40.4,28.1,39.3,28.5z M45.3,26.4C45.2,26.4,45.2,26.4,45.3,26.4C45.2,26.4,45.2,26.4,45.3,26.4
		C45.3,26.4,45.3,26.3,45.3,26.4C45.3,26.3,45.3,26.3,45.3,26.4z M50.7,25.4C50.6,25.5,50.6,25.5,50.7,25.4
		C50.6,25.5,50.6,25.5,50.7,25.4c0.1-0.1,0.3-0.1,0.4-0.2c0,0,0.1,0,0.1-0.1c0,0-0.1,0-0.1,0.1C51,25.3,50.8,25.4,50.7,25.4z
		 M52.3,25C52.2,25.1,52.2,25.1,52.3,25C52.2,25.1,52.2,25.1,52.3,25C52.3,25,52.3,25,52.3,25C52.3,25,52.3,25,52.3,25z M54.3,24.5
		c-0.1,0.1-0.3,0.1-0.4,0.2c-0.2,0-0.5-0.2-0.6,0.3c0.3-0.1,0.4-0.2,0.6-0.3C54,24.6,54.2,24.5,54.3,24.5c0.1-0.1,0.3-0.1,0.4-0.2
		c0.1-0.1,0.3-0.1,0.4-0.2c0,0,0.1-0.1,0.1-0.1c0,0-0.1,0-0.1,0.1c-0.1,0.1-0.3,0.1-0.4,0.2C54.6,24.4,54.5,24.4,54.3,24.5z
		 M56.9,23.4C56.9,23.5,56.8,23.5,56.9,23.4C56.8,23.5,56.9,23.5,56.9,23.4c0.2,0,0.3-0.1,0.4-0.2c0,0,0.1-0.1,0.1-0.1
		c0,0-0.1,0-0.1,0.1C57.2,23.3,57,23.4,56.9,23.4z M47.9,26.1C48,26.1,48.1,26.1,47.9,26.1C48.1,26,48,26,47.9,26.1
		c-0.2,0-0.5,0-0.7,0c0,0-0.1,0.1-0.1,0.1c0,0,0.1,0,0.1-0.1C47.4,26.1,47.7,26.1,47.9,26.1z M41.2,26.8c0.2,0,0.5,0,0.7,0
		c0.8,0.3,1.5,0.3,2.2-0.1c0,0,0.1,0,0.1-0.1c0,0-0.1,0-0.1,0.1c-0.8-0.3-1.5-0.3-2.2,0.1C41.6,26.7,41.4,26.8,41.2,26.8
		c-0.5-0.2-1-0.3-1.5,0.1c-0.1,0-0.2,0,0,0c-0.2,0-0.1,0,0,0C40.2,27,40.7,27,41.2,26.8z M37.5,26.9c-0.3-0.3-0.5-0.3-0.7,0
		C37,27.1,37.3,27,37.5,26.9z"/>
	<path class="fern-two" d="M15.1,30c-0.5-1.5-2.3-1.9-2.9-3.3c0.3,0,0.6-0.1,0.8,0c3.8,1.9,7.1,4.4,8.8,8.6c0.6,1.5,1,3.2,2.1,4.6
		c0,0,0.1,0,0.1,0c-0.5,0.7-0.2,1.2,0.4,1.6c0,0,0,0,0,0c-0.4,1.5,0,2.9,0.6,4.2c0,0,0,0,0,0c-0.6,0.9-0.2,1.8-0.2,2.7
		c0,1.3,0.1,2.6-0.5,3.8l0,0c-0.2-0.2-0.4-0.4-0.6-0.6c-1-4.1-2.4-8.1-4.7-11.7c-1.3-1.9-2.8-3.7-4.2-5.5c-1.8-2.3-3.2-4.9-4.1-7.7
		C12.5,27.4,13.4,29.2,15.1,30c0.6,1,1.2,1.8,2.2,2.4c0.2,0.2,0.3,0.4,0.5,0.6c0.1,0.1,0.1,0.3,0.2,0.4c0.2,0.2,0.3,0.4,0.5,0.6
		c0.2,0.2,0.3,0.4,0.5,0.6c0,0,0,0.1,0.1,0.1c0,0,0-0.1-0.1-0.1c-0.2-0.2-0.3-0.4-0.5-0.6c-0.2-0.2-0.3-0.4-0.5-0.6
		c-0.1-0.1-0.1-0.3-0.2-0.4c-0.2-0.2-0.3-0.4-0.5-0.6C16.9,31.2,16.1,30.5,15.1,30z M20.9,38.2C20.9,38.3,20.9,38.3,20.9,38.2
		C20.9,38.3,20.9,38.3,20.9,38.2c0,0,0-0.1-0.1-0.1C20.8,38.2,20.9,38.2,20.9,38.2z M21.9,40.1c0.1,0.1,0.1,0.3,0.2,0.4
		c0.1,0.1,0.1,0.3,0.2,0.4c0,0,0.1,0.1,0.1,0.1c0,0,0-0.1-0.1-0.1c-0.1-0.1-0.1-0.3-0.2-0.4C22,40.4,21.9,40.2,21.9,40.1
		C21.9,40.1,21.8,40,21.9,40.1C21.8,40,21.9,40.1,21.9,40.1z M22.8,43C22.8,43,22.9,43,22.8,43C22.9,43,22.8,43,22.8,43
		C22.8,43,22.8,42.9,22.8,43C22.8,42.9,22.8,43,22.8,43z"/>
	<path class="fern-two" d="M42.9,89.4c-0.2,0-0.4-0.1-0.6-0.1c-0.2-0.5-1.1-0.3-1.1-1.1c3.3-1,6.7-2,9.7-3.9c1.1-0.7,2.3-1.3,3.2-2.2
		c3-2.9,6.6-4.8,10.4-6.3c0.2,0.1,0.4,0.2,0.6,0.2c0,0.1,0,0.2-0.1,0.2c-0.1,0.1-0.1,0.2-0.2,0.4c-1.6,0.1-1.8,1.5-2.5,2.5
		c-0.1,0.1-0.2,0.1-0.3,0.2c0,0,0,0.1,0.1,0.1c0.1-0.1,0.2-0.2,0.2-0.3c0.9-0.1,0.9-1.4,2-1.3c-1.1,3.4-2.9,6.3-6.3,7.8
		c-1.8,0.9-3.7,1.6-5.6,2.3c-0.5,0.2-1.1,0.2-1.3,0.8c0,0,0,0,0,0c-0.5-0.3-0.9-0.4-1.2,0.3c0,0,0,0,0,0c-0.7-0.3-1.4-0.6-1.9,0.3
		c0,0,0-0.1,0-0.1c-0.3-0.1-0.5-0.1-0.8,0.1c0,0,0.1,0,0.1,0c-0.6-0.3-1.2-0.4-1.8,0c0,0,0,0,0,0c-0.3-0.2-0.5-0.2-0.8,0.1
		c0,0,0-0.1,0-0.1C44.1,89.1,43.5,88.8,42.9,89.4z M58.2,82.8c0.2-0.2,0.4-0.3,0.6-0.5c0.3-0.1,0.6,0,0.7-0.5
		C59,81.7,59,82,58.8,82.3C58.6,82.4,58.4,82.6,58.2,82.8c-0.3,0-0.7,0-0.7,0.4C58,83.4,58.1,83,58.2,82.8z M60.5,80.8
		c0,0-0.1,0.1-0.1,0.1C60.4,80.9,60.4,80.9,60.5,80.8c0.4-0.1,0.9-0.1,0.9-0.7C60.7,80,60.7,80.5,60.5,80.8z"/>
	<path class="fern-two" d="M72.1,60.2c-0.2-1.3-0.3-2.6-0.5-3.9c0.2,0.1,0.4,0.1,0.6,0.2c0,0.2,0.1,0.4,0.1,0.6c0,0.3,0.1,0.5,0.4,0.7
		c0.1,0.1,0.1,0.3,0.2,0.4c0.2,0.2,0.3,0.4,0.5,0.6c0,0,0.1,0.1,0.1,0.1c0,0,0-0.1-0.1-0.1c-0.2-0.2-0.3-0.4-0.5-0.6
		c-0.1-0.1-0.1-0.3-0.2-0.4c0-0.1,0.1-0.2,0.1-0.3c2.8,1.2,5.2,2.9,7,5.3c2.2,2.9,4.7,5.5,7.8,7.3c1.3,0.7,2.6,2,4.4,1
		c0.7,0,1.4-0.1,2.1-0.1c0.1,0.1,0.1,0.3,0.2,0.4c-3.3,1.9-6.7,1.3-10,0c-3.5-1.3-6.6-3.4-9.4-5.9C73.4,64.1,72.5,62.3,72.1,60.2z
		 M74.9,60.4C74.8,60.3,74.7,60.2,74.9,60.4C74.7,60.3,74.8,60.4,74.9,60.4c0,0.2,0.1,0.3,0.2,0.4c0.1,0.1,0.1,0.2,0,0
		c0.2,0.2,0.1,0.1,0,0C75,60.7,74.9,60.6,74.9,60.4z M76,62c0.2,0.2,0.3,0.4,0.5,0.6c0.1,0.1,0.1,0.2,0,0c0.2,0.2,0.1,0.1,0,0
		C76.3,62.4,76.2,62.2,76,62C76,62,75.9,61.9,76,62C75.9,61.9,76,62,76,62z M77.7,63.8c0.1,0.8,0.7,1,1.3,1.3
		c0.2,0.9,0.9,1.4,2.1,1.9c-0.7-1-1.3-1.5-2.1-1.9C78.8,64.4,78.3,64.1,77.7,63.8C77.7,63.7,77.6,63.6,77.7,63.8
		C77.6,63.7,77.6,63.7,77.7,63.8z M81.7,67.4c1.3,1.5,2.8,2.8,5.2,3.5C84.9,69.5,83.3,68.4,81.7,67.4z"/>
	<path class="fern-two" d="M55.1,31.9c-1.4-0.3-2.9-0.3-4.3-0.9c-0.5-0.2-1.1-0.4-0.3-1c0.1-0.1,0.3-0.2,0.4-0.3c0,0-0.1,0-0.1,0
		c0.6,0.2,1-0.3,1.5-0.5c2.2-1,4.4-2.3,7-2.3c5.2,0.1,10.3,0.7,15.2,2.4c1.5,0.5,3,1.4,4.7,1.4c0.9,0.4,1.8,0.7,2.6,1.1
		c0,0.2-0.1,0.3-0.1,0.5c-4.4-1-8.8-1-13.2-0.9c-0.1-0.9-0.8-0.5-1.3-0.5c-3.9,0-7.7,1.3-11.7,0.7C55.5,31.6,55.3,31.8,55.1,31.9z
		 M63.8,29.2C63.7,29.2,63.7,29.3,63.8,29.2C63.7,29.3,63.7,29.3,63.8,29.2c0.1,0,0.3,0,0.4,0.1c0,0,0-0.1,0-0.1
		C64,29.2,63.9,29.2,63.8,29.2z M62,29.2c0.1,0,0.2,0,0.4,0c0,0,0-0.1,0-0.1C62.2,29.1,62.1,29.1,62,29.2c-0.3-0.1-0.5-0.1-0.8,0
		c-0.2,0-0.5,0-0.7,0c-0.2,0-0.5,0-0.7,0c-0.2,0-0.5,0-0.7,0.1c-0.1,0-0.2,0-0.4,0c0,0,0,0.1,0,0.1c0.1,0,0.2,0,0.4-0.1
		c0.2,0,0.5,0,0.7,0c0.2,0,0.5,0,0.7,0c0.2,0,0.5,0,0.7-0.1C61.5,29.3,61.8,29.2,62,29.2z M54.9,29.7c0,0-0.1,0.1-0.1,0.1
		C54.9,29.8,54.9,29.8,54.9,29.7c0.1,0.1,0.3,0.1,0.4,0.1c0,0,0-0.1,0-0.1C55.2,29.7,55.1,29.7,54.9,29.7z M53,30
		c-0.1,0.1-0.3,0.1-0.4,0.2c-0.1,0-0.3,0-0.4,0c0,0,0,0.1,0,0.1c0.1,0,0.3,0,0.4-0.1C52.8,30.2,52.9,30.1,53,30c0.3,0,0.5,0,0.8,0
		c0,0,0.1-0.1,0.1-0.1c0,0-0.1,0-0.1,0.1C53.5,30,53.3,30,53,30z M67.8,29.6c-0.8-0.7-1.7-0.6-2.6-0.1
		C66.1,29.5,66.9,29.5,67.8,29.6z M70.7,29.4c0.9,0.7,1.5,0.6,2.2,0.6c-0.2-0.5-0.5-0.4-0.7-0.5C71.9,29.5,71.6,29.5,70.7,29.4z
		 M69,29.5L69,29.5L69,29.4L69,29.5z M70,29.6c0,0,0.1,0,0.1,0c0,0,0-0.1-0.1-0.1c0,0-0.1,0-0.1,0C70,29.6,70,29.6,70,29.6z"/>
	<path class="fern-two" d="M60.4,92c-0.6,0.3-1.3,0.6-1.9,0.9c0-0.1-0.1-0.1-0.1-0.2c0.8-0.7,1.6-1.5,2.4-2.2c4-3.8,7.4-8.1,8.7-13.6
		c0.5-2.1,1.7-4,2.6-6c0.9-0.1,0.4,0.9,0.8,1.1c0,0.2,0,0.5,0,0.7c0,0,0,0.1,0,0.1c0,0,0.1,0,0.1,0c0,0,0-0.1,0-0.1
		c0-0.2,0-0.5-0.1-0.7c0.1-0.3,0.2-0.6,0.3-0.9c0.3,0.2,0.6,0.4,0.9,0.7c0,0,0,0,0,0c-0.4,0.6,0,1.2,0.2,1.7c0.7,2.1,1,4.2-0.1,6.4
		c-1.3,2.5-2.8,4.8-5.1,6.5c-0.9,0.7-1.9,1.3-2.3,2.5c0,0,0,0,0,0c-0.2,0.1-0.3,0.1-0.5,0.2c0,0,0.1,0,0.1,0c-0.6-0.3-0.9,0.1-1,0.6
		c0,0,0,0,0,0c-0.4,0-0.7,0.1-0.9,0.4c0,0,0,0,0,0c-0.2,0.1-0.3,0.1-0.5,0.2c0,0,0,0,0,0c-0.3-0.1-0.5,0.1-0.6,0.4c0,0,0,0,0,0
		c-0.2,0.1-0.3,0.2-0.5,0.2c0,0,0.1,0,0.1,0c-0.2,0.1-0.3,0.2-0.5,0.2c0,0,0.1,0,0.1,0c-0.2,0.1-0.3,0.2-0.5,0.2c0,0,0.1,0,0.1,0
		c-0.2,0.1-0.3,0.1-0.5,0.2c0,0,0,0,0,0c-0.2,0.1-0.3,0.1-0.5,0.2c0,0,0,0,0,0c-0.3-0.1-0.5,0.1-0.6,0.4c0,0,0,0,0,0
		C60.7,91.8,60.6,91.9,60.4,92z M68.5,84.6c0.6-0.3,1-0.6,1.1-1.3C68.9,83.5,68.8,84.1,68.5,84.6c-1,0.5-1.7,1.3-2.2,2.3
		C67.3,86.3,68.1,85.7,68.5,84.6z M73,74c-0.3,2.9-1.5,5.5-2.6,8.2C72.2,79.8,73.4,77.1,73,74c0.1-0.2,0-0.3,0-0.4
		C73,73.7,73,73.9,73,74z M65.3,88c0.1-0.1,0.2-0.2,0.3-0.3c-0.1-0.1-0.1-0.2-0.2-0.2c-0.1,0-0.2,0.1-0.2,0.2
		C65.2,87.8,65.3,87.9,65.3,88z"/>
	<path class="fern-two" d="M32.8,27.6c0.3,2.4,2,4.1,2.9,6.2c1.1,2.6,1.9,5.2,1.6,8.1c-1.7-0.1-2.3-1.7-3.5-2.5c-1.9-1.2-3.4-2.7-4.2-4.9
		c-0.3-0.8-0.7-2-2-1.8c-0.4-1.6-0.8-3.2-1.2-4.8c0,0,0.1-0.1,0.1-0.1s0-0.1,0-0.1c1.3-0.2,2.5-0.4,3.8-0.6
		C31.1,27.1,32,27.1,32.8,27.6z"/>
	<path class="fern-two" d="M68.1,48.6c-0.8-1.1-1.7-2.2-2.5-3.2c-0.3-0.3-0.5-0.6-0.2-1c0.2-0.4,0.5-0.3,0.9-0.2c0.7,0.1,1.3,0.1,2,0.2
		c0.1,0.2,0.3,0.4,0.4,0.4c4.2,0.2,7.8,2.9,11.9,3.3c2,0.2,3.9,1.3,5.9,0.3c0,0-0.1,0-0.1,0c0.4,0.2,0.7,0.4,1.1-0.1
		c0,0,0,0.1,0,0.1c0.5,0.4,1,0.5,1.5,0c0.7-0.1,1.5-0.1,2.2-0.2c-3.7,2.1-7.6,3.3-11.8,3.4c-0.4-0.6-1.2-0.6-1.8-0.6
		c-1.5,0-3-0.2-4.5-0.5C71.2,50.2,69.8,49,68.1,48.6z M82.3,49.7c0.4,0,0.8,0.4,1.1-0.1C83,49.1,82.7,49.4,82.3,49.7
		c-0.4-0.1-0.8-0.5-1.2,0.1C81.6,50.1,82,49.9,82.3,49.7z M79.8,49.5c-4.8-0.7-9.5-1.9-13.8-4.3C70.3,47.6,74.8,49.5,79.8,49.5z"/>
	<path class="fern-two" d="M35.4,68.7c-0.1,0.1-0.3,0.1-0.4,0.2c-0.1,0-0.1-0.1-0.2-0.1c-0.2-0.2-0.3-0.4-0.6-0.6
		c-4.1-2.4-8.5-4.1-12.9-5.7c-1-0.4-2-1-3.2-0.7c5.6,1.7,11,3.9,16.1,6.8c-0.1,0.2-0.2,0.4-0.2,0.6c0,0,0,0,0,0
		c-0.3-0.1-0.5-0.1-0.8,0c0,0,0,0,0,0c-0.5-0.1-1.1-0.3-1.6-0.4c-1.4-0.5-2.9-0.3-4.2-1.2c-4.1-2.5-8.7-4.2-13.1-6
		c-0.5-0.2-1.2-0.1-1.8-0.2c-0.7-0.2-1.4-0.1-2.2-0.6c4.6-0.8,9-0.6,13.3,0.3c0.4,0.5,0.8,0.8,1.5,1c2.6,0.7,5.4,1.1,7.3,3.4
		c0.3,0.4,0.8,0.3,1.2,0.3C34.4,66.6,34.9,67.7,35.4,68.7z"/>
	<path class="fern-two" d="M57.5,56.7c0,0.1,0.1,0.3,0.1,0.4c-0.1,0.3-0.1,0.5,0.2,0.7c0,0-0.1,0-0.1,0c0.1,0.2,0.1,0.3,0.2,0.5
		c0,0-0.1-0.1-0.1-0.1c0.1,0.2,0.1,0.3,0.2,0.5c0,0,0-0.1,0-0.1c-0.2,0.3-0.3,0.5-0.5,0.8c-2.4-2.1-4.1-4.6-5.4-7.4
		c0.3-0.6,0.1-1.1-0.1-1.7c-0.9-2.4-1.3-4.8-0.4-7.3c0.1-0.4,0.1-0.8,0.1-1.3c0.5-1.1,1.5-1.6,2.2-2.5c0,0,0,0,0,0
		c0.3,0.5,0.5,1.1,0.8,1.6c-0.2,0.4-0.2,0.8-0.1,1.1c1.4,2.5,1.2,5.2,1.1,8c0,1-0.1,2.1,0.8,2.9c0,0-0.1,0-0.1,0
		C56.2,54.2,56.8,55.4,57.5,56.7z M53.9,48.3c0-0.2,0-0.5-0.1-0.7c0-0.2-0.1-0.5-0.1-0.7c-0.1-0.1-0.1-0.3-0.2-0.4
		c0.1-0.3,0.3-0.7,0.1-1c0-0.2,0-0.5,0-0.7c0-0.1,0-0.3,0-0.4c0,0-0.1,0-0.1,0c0,0.1,0,0.3,0.1,0.4c0,0.2,0,0.5,0.1,0.7
		c-0.2,0.3-0.3,0.7-0.1,1c0.1,0.1,0.1,0.3,0.2,0.4c0,0.3,0,0.5,0,0.8c0,0.2,0,0.5,0,0.7c0,0,0,0.1,0.1,0.1c0,0,0.1,0,0.1,0
		C54,48.4,53.9,48.3,53.9,48.3z M53.7,42.8c0.3-0.8,0.4-1.6,0.3-2.9C53.6,41.2,53.4,42,53.7,42.8c-0.1,0.1-0.1,0.3-0.1,0.4
		c0,0,0.1,0,0.1,0C53.7,43.1,53.7,43,53.7,42.8z"/>
	<path class="fern-two" d="M71.7,43.8c-0.4-0.3-0.9-0.4-1.4-0.3c-2.3,0.5-4.5-0.2-6.7-0.9c-1.1-0.4-1.5-1.5-2.5-2c0-0.1,0-0.2,0.1-0.3
		c0.1-0.1,0.1-0.2,0.2-0.3c2.7,1,5.5,1.7,8.4,1.4c0.4,0.1,0.8,0.4,1.1-0.1c-0.4-0.4-0.8-0.2-1.1,0.1c-0.6-0.3-1.2-0.4-1.9-0.4
		c-2.1-0.2-4.1-0.7-6-1.2c0-0.2,0-0.3,0.1-0.5c0,0,0,0,0,0c0.4,0.2,0.7,0.1,0.9-0.3c0,0,0,0,0,0c4-0.5,7.9,0.4,11.9,0.7
		c1.2,0.1,2.5,0.4,3.7-0.1c0,0,0,0,0,0c0.3,0.1,0.5,0.2,0.8-0.1c0,0,0,0.1,0,0.1c0.6,0.4,1.6-0.2,2,0.8C78.1,42.1,75,43.3,71.7,43.8
		z M73.7,41.3C73.7,41.3,73.7,41.3,73.7,41.3C73.7,41.3,73.7,41.3,73.7,41.3c-0.2,0-0.5,0-0.7,0c-0.4-0.1-0.7-0.4-1.1,0.1
		c0.4,0.4,0.8,0.2,1.1-0.1C73.2,41.3,73.4,41.3,73.7,41.3z M75.6,41l0.1,0L75.6,41L75.6,41c-0.2,0-0.5,0-0.7,0c0,0-0.1,0-0.1,0.1
		c0,0,0.1,0,0.1-0.1C75.1,41.1,75.3,41.1,75.6,41z"/>
	<path class="fern-two" d="M53.4,12.4c-1.5-1.7-3.7-2.1-5.6-2.8c-5-1.7-10.2-2.6-15.5-2.4C30.2,7.3,27.9,7.1,26,8
		c-3.8,1.6-7.2,3.9-8.5,8.1c-0.3,0.1-0.6,0.2-0.9,0.2c0-1.5,1-2.7,1.3-4.1c0.9-0.5,1.7-1.2,2.3-2c0.3,0,0.8,0.1,0.6-0.4
		C20.2,8.8,21,8.4,21.7,8c0.5-0.3,1-0.7,1.5-1c4.8-1.6,9.7-1.5,14.6-0.8c6.1,1,11.9,3.1,17.5,6C54.6,12.7,54,12.4,53.4,12.4z"/>
	<path class="fern-two" d="M20.3,10.2c-0.7,0.8-1.4,1.5-2.3,2c-1.3,0.7-2.7,1.1-4.2,0.7c-0.3-0.2-0.6-0.5-0.9-0.7c-1.6-1.5-1.3-3.4-1-5.3
		c0.1-0.7,0.4-1.3,0.7-2c0,0,0,0,0,0c2.3,0.3,4,1.7,5.8,2.9C19.1,8.6,20,9.1,20.3,10.2z"/>
	<path class="fern-two" d="M20,15.9c1-2.7,3.4-3.3,5.8-4.1c1.4,2.9,1.2,5.9,0.6,8.9c0,0.2-0.4,0.4-0.5,0.6c-1.8-0.4-3.5-1.2-5-2.2
		c-0.3-0.7-0.6-1.4-0.9-2.1C19.9,16.6,19.9,16.3,20,15.9z"/>
	<path class="fern-two" d="M46.5,74.5c1,0,1.8,0.4,2.7,0.8c-5.5,0.3-10.7,1.6-15.7,3.9c-0.7,0.3-1.6,0.5-2,1.4c-1.4,1.7-3.2,2.9-5.2,3.7
		c-0.2-0.3-0.5-0.6-0.7-1c1.3-1.5,2.6-3.1,4.7-3.6c-0.2,0-0.4,0-0.6-0.1c0.1-0.2,0.2-0.4,0.2-0.6c0.5,0.3,1,0.4,1.7,0.1
		c1.9-0.9,3.8-1.7,5.7-2.5c0.2-0.1,0.3-0.2,0.5-0.3c-0.2-0.3-0.4-0.2-0.7-0.1c-2.5-0.4-5-0.1-7.5-0.8c-0.5-0.1-1-0.3-1.6-0.4
		c-0.2-0.3-0.4-0.7-0.6-1C33.9,75.5,40.2,75.6,46.5,74.5z"/>
	<path class="fern-two" d="M41.2,43.6c0.3-0.2,0.7-0.4,1-0.6c0.8,0.1,1.6,0.1,2.3,0.5c0.7,0.5,1.5,1.1,2.2,1.6c0.5,0.9,1.6,1.6,1.6,2.8
		c-0.6-0.5-1.3-0.2-1.8,0.1c-1.8,0.8-3.5,1.8-4.6,3.5c-1-1.5-1.6-3.1-1.9-4.9C40,45.5,40.3,44.5,41.2,43.6z"/>
	<path class="fern-two" d="M20.3,10.2c-0.2-1.1-1.2-1.7-2-2.4c0.3-0.1,0.5-0.2,0.5-0.3c-1.3-1.3-2.9-1.9-4.4-2.6c-0.7-0.3-1.4-0.8-2,0
		c0,0,0,0,0,0c-0.7-1.1-0.8-2.2-0.6-3.5c0.6-0.2,1.1-0.1,1.7,0.2c-0.2,0.6-0.3,1.1-0.6,2c0.7-1.2,1.2-2.2,2.5-1.8
		c0.9,0.3,2.2,0.9,2.4,1.4c0.6,1.4,2.1,1.1,3,2c0.5,0.5,1.3,1.4,2.2,1.7c-0.5,0.3-1,0.7-1.5,1c-0.7,0.4-1.4,0.8-0.8,1.9
		C21.1,10.3,20.6,10.3,20.3,10.2z"/>
	<path class="fern-two" d="M30.2,12c0,0.4-0.1,0.9,0.2,1.1c0.9,0.9,0.5,1.8,0.1,2.7c-0.2,0.8,0.3,1.2,0.9,1.5c-0.4,0.2-0.8,0.5-1,0.9
		c-1.1,0.2-2.1,0.5-2.9,1.3c-0.1-1.6,0-3.2-0.2-4.8c-0.2-1.2,0-2.5-1.3-3.3c0-1.4,1.3-1.6,2.2-2.1c0.6,0.6,1.6,0.9,1.7,1.9
		C29.1,11.9,29.8,11.8,30.2,12z M29.7,17.2c0,0,0.1,0,0.1,0c0-0.1-0.1-0.1-0.1-0.2c0,0-0.1,0-0.1,0C29.6,17.1,29.6,17.1,29.7,17.2z"
		/>
	<path class="fern-two" d="M20,15.9c0,0.4-0.1,0.7-0.1,1.1c-0.3,0-0.6,0-0.9,0.1c-1-0.5-1.6,0.4-2.4,0.7c-0.2-0.1-0.4-0.2-0.6-0.2
		c-4.3,1.2-8.5,2.4-12.1,5.2c-0.5,0.1-1,0.3-1.4,0.8c-0.7,0.1-1.5,0.6-2.1-0.5c3-0.9,5.5-2.6,7.7-4.5c2-1.7,3.9-3.5,4.8-6.1
		c0.3,0.2,0.6,0.5,0.9,0.7c-1,2-2.4,3.7-4.3,5.5c2.7-0.8,4.9-1.5,7.2-2.2c0.3-0.1,0.6-0.2,0.9-0.2C18.3,16,19.1,16,20,15.9z"/>
	<path class="fern-two" d="M66.9,49.1c0.2,0.3,0.4,0.6,0.6,0.9c-0.5,0.3-0.7,0.8-0.9,1.3c-1.7,3.4-2.7,7-3.3,10.8
		c-0.1,0.9-0.1,1.8-0.6,2.5c-0.1,0.1-0.3,0.1-0.4,0.2c-0.3-1.9,0.5-3.7,0.6-5.9c-1.8,2.5-3.2,4.9-5.2,6.8c-0.2-0.2-0.3-0.3-0.5-0.5
		c3.5-4.4,6.6-9.1,8.8-14.4C66.1,50.2,66.5,49.7,66.9,49.1z"/>
	<path class="fern-two" d="M57.1,65.2c0.2,0.2,0.3,0.3,0.5,0.5c0.9,2.7-0.3,4.8-2.1,6.7c-0.6-0.9-1.2-1.7-1.7-2.6c1.4-1.1,2.7-2.1,3-4.2
		c-2.2,0-3.3,1.4-4.5,2.7c-0.7-0.4-1.4-0.7-2.1-1.1c1.4-1.4,2.9-2.6,5.1-2.6c0.2,0.1,0.5,0.1,0.7,0.2C56.3,64.9,56.7,65.1,57.1,65.2
		z"/>
	<path class="fern-two" d="M27.5,32.8c1.4-0.2,1.7,0.9,2,1.8c0.8,2.2,2.3,3.7,4.2,4.9c1.2,0.7,1.8,2.4,3.5,2.5c0.2,0.7-0.1,1.2-0.5,1.8
		c-2.1-1.6-4.3-3-6.3-4.7C28.5,37.5,28.1,35.1,27.5,32.8z"/>
	<path class="fern-two" d="M79.2,30.8c-1.7,0-3.2-0.8-4.7-1.4c-5-1.7-10.1-2.3-15.2-2.4c-2.6-0.1-4.7,1.3-7,2.3c-0.5,0.2-0.9,0.7-1.5,0.5
		c1.1-1.2,2.6-1.7,3.8-2.6c0,0,0,0,0,0c5.7-2.1,11.2-0.5,16.7,0.7C74.1,28.5,76.7,29.5,79.2,30.8z"/>
	<path class="fern-two" d="M31.4,17.3c-0.6-0.3-1.2-0.7-0.9-1.5c2.1,0,3.7-1.4,5.7-1.7c2.3-0.3,4.6-0.9,6.9-1.3c0.6-0.1,1.3-0.2,1.8,0.5
		C40.2,14.2,35.6,15.3,31.4,17.3z"/>
	<path class="fern-two" d="M92.2,71.2c-1.8,1-3.1-0.3-4.4-1c-3.1-1.8-5.6-4.5-7.8-7.3c-1.9-2.4-4.2-4.2-7-5.3c-0.2-0.1-0.4-0.3-0.5-0.4
		c0-0.2-0.1-0.4-0.1-0.6c3.5,1.2,6.6,3.2,8.7,6.3c1.4,2,3.1,3.8,5,5.4C87.8,69.8,89.8,70.8,92.2,71.2z"/>
	<path class="fern-two" d="M23.9,39.8c-1.1-1.3-1.5-3-2.1-4.6c-1.7-4.2-5-6.6-8.8-8.6c-0.2-0.1-0.5,0-0.8,0c-0.5-0.3-1.1-0.3-1.3-0.9
		C17.7,26.5,23.7,32.9,23.9,39.8z"/>
	<path class="fern-two" d="M26.4,84.3c2.1-0.8,3.8-1.9,5.2-3.7c1.1,2,0.8,3.2-1,4.4c-1.1,0.7-2.2,1-3.5,1.3
		C27.1,85.6,26.7,84.9,26.4,84.3z"/>
	<path class="fern-two" d="M66.9,88.6c0.4-1.2,1.5-1.8,2.3-2.5c2.3-1.7,3.8-4,5.1-6.5c1.1-2.1,0.8-4.2,0.1-6.4c-0.2-0.6-0.6-1.1-0.2-1.7
		c2.5,3.7,2.4,7.1-0.6,11C71.7,85,69.6,87.1,66.9,88.6z"/>
	<path class="fern-two" d="M55.8,21.8c-1.1,1.6-3,1.1-4.5,1.5c-2.9,0.8-5.9,0.4-8.8,1.2c-1.7,0.5-3.5,1-5.2,1.5c-0.4,0.1-0.8,0.3-1.3,0
		c3.3-1.7,6.8-2.8,10.5-2.9C49.7,23,52.7,22.5,55.8,21.8z"/>
	<path class="fern-two" d="M47,50c-0.1,2.7-0.4,5.3-1.7,8.1c-0.5-2.5-1.1-4.5-2-6.4c0.3-0.2,0.6-0.4,1-0.6C45.3,51,45.9,49.9,47,50z"/>
	<path class="fern-two" d="M64.8,76.6c0.1-0.1,0.1-0.2,0.2-0.4c-0.1,4.4-2.1,7.7-6,9.8c-2.5,1.3-5,2.4-7.9,2.7c0.2-0.7,0.8-0.6,1.3-0.8
		c1.9-0.7,3.8-1.4,5.6-2.3c3.3-1.6,5.2-4.4,6.3-7.8C64.4,77.4,64.6,77,64.8,76.6z"/>
	<path class="fern-two" d="M86.4,48.4c-2,1-4-0.1-5.9-0.3c-4.1-0.5-7.7-3.1-11.9-3.3c-0.2,0-0.3-0.3-0.4-0.4c0.9,0,1.9-0.3,2.8,0
		c0.7,0.2,1.4,0.2,2.1,0.5C77.3,46.7,81.7,48.1,86.4,48.4z"/>
	<path class="fern-two" d="M12.5,61.4c0.6,0,1.3,0,1.8,0.2c4.5,1.8,9,3.5,13.1,6c1.4,0.8,2.9,0.7,4.2,1.2c0.5,0.2,1,0.3,1.6,0.4
		c-2.7,0.6-5.2-0.1-7.5-1.6c-2.6-1.6-5.3-3-8.1-4.3C15.9,62.6,14.2,62.1,12.5,61.4z"/>
	<path class="fern-two" d="M27.4,19.5c0.8-0.9,1.8-1.2,2.9-1.3c0.4,0.2,0.8,0.5,1.2,0.7c0,0.5-0.3,0.7-0.6,1c0-0.2,0.1-0.5-0.2-0.5
		c-0.1,0-0.2,0.1-0.2,0.2c0.1,0.1,0.2,0.3,0.2,0.4c0,0.6-1.4,0.8-0.6,1.8c0.3,0.3-2,1.4-2.6,1c-0.4-0.3-0.8-0.8-1.2-1.1
		C27,21.1,27.2,20.3,27.4,19.5z"/>
	<path class="fern-two" d="M41.2,43.6c-0.8,0.8-1.2,1.9-1.3,3c-0.5-0.5-1-1.1-1.6-1.6c-0.8-0.6-0.5-1.4-0.3-2.1c0.3-1.4,0.4-2.7,0.5-4.2
		C39.3,40.4,40.3,42,41.2,43.6z"/>
	<path class="fern-two" d="M27.6,74c0.2,0.3,0.4,0.7,0.6,1c-0.2-0.1-0.5-0.2-0.7-0.3c-2-0.6-4.2-0.5-5.6-2.1c-0.5,0.2-0.2,1.1-1,0.7
		c0.2-0.6,0.5-1.2,0.7-1.9c1.9-0.1,3.8,0.3,5.5,1.2l0,0c-0.1,0.5,0.1,0.8,0.6,0.9C27.6,73.8,27.6,73.9,27.6,74z"/>
	<path class="fern-two" d="M55.1,31.9c0.2-0.1,0.4-0.3,0.5-0.3c3.9,0.7,7.8-0.7,11.7-0.7c0.5,0,1.2-0.3,1.3,0.5
		c-3.4,0.4-6.8,0.8-10.2,1.2c-0.8,0.1-1.6,0.1-2.4-0.3c0,0,0-0.1-0.1-0.1c-0.1,0-0.2,0-0.3,0C55.5,32.1,55.3,32,55.1,31.9z"/>
	<path class="fern-two" d="M78.3,39.6c-1.2,0.5-2.5,0.2-3.7,0.1c-4-0.3-7.9-1.2-11.9-0.7c2-1,4.1-1.5,6.3-0.8
		C72,39.2,75.2,39.1,78.3,39.6z"/>
	<path class="fern-two" d="M62.2,64.8c0.1-0.1,0.3-0.1,0.4-0.2c0,0.2,0.1,0.5,0.1,0.7c-0.1,1.9,0.1,3.7-0.2,5.6c-0.4-0.1-0.7-0.1-1.1-0.2
		c-1.5-0.5-1.6-1.5-0.9-2.8c0.5-0.9,0.9-1.8,1.5-2.5C62.1,65.2,62.2,65,62.2,64.8z"/>
	<path class="fern-two" d="M20.8,73.3c0.7,0.5,0.5-0.5,1-0.7c1.5,1.6,3.7,1.5,5.6,2.1c-0.2,0.3-0.4,0.5-0.6,0.8c-1.4,0.6-2.8,0.8-4.2,0
		c-0.3-0.2-0.7-0.2-1.1-0.1c-0.4-0.4-0.8-0.9-1.2-1.3C20.5,73.9,20.7,73.6,20.8,73.3z M22.3,74.2c1,0.3,1.7,1.2,2.9,0.9
		C24.2,74.9,23.3,74.3,22.3,74.2z"/>
	<path class="fern-two" d="M62,65.3c-0.6,0.8-1,1.7-1.5,2.5c-0.7,1.3-0.6,2.2,0.9,2.8c-1.3,0-2.5,0-3.8,0.1c0.4-1.3,0.6-2.7,1.5-3.8
		C59.9,65.9,60.7,65.2,62,65.3z"/>
	<path class="fern-two" d="M68.1,48.6c1.7,0.4,3.2,1.6,5,1.9c1.5,0.3,3,0.5,4.5,0.5c0.6,0,1.3-0.1,1.8,0.6c-3.7,0.4-7.4,0.1-10.7-1.8
		C68.4,49.4,68.2,49,68.1,48.6z"/>
	<path class="fern-two" d="M33.5,65.8c-0.4,0-0.9,0.1-1.2-0.3c-1.9-2.2-4.7-2.6-7.3-3.4c-0.6-0.2-1.1-0.5-1.5-1c3.6,0.6,7.3,1,9.7,4.3
		C33.4,65.5,33.5,65.7,33.5,65.8z"/>
	<path class="fern-two" d="M50.1,67.2c0.7,0.4,1.4,0.7,2.1,1.1c0.5,0.5,1.1,1,1.6,1.5c0.6,0.9,1.2,1.7,1.7,2.6c-0.9,1.5-1.7,0.8-2.5,0
		c0,0,0.1,0,0.1,0c0.3,0.1,0.6,0.4,1.1,0.2c0-0.7-0.3-1.2-0.9-1.5l0,0c-0.5-1.2-1.7-1.7-2.7-2.5c-0.4-0.3-0.8-0.1-1.1,0.3
		C48.9,68,49.4,67.5,50.1,67.2z"/>
	<path class="fern-two" d="M52,41.7c0,0.4,0,0.9-0.1,1.3c-0.8,2.5-0.5,4.9,0.4,7.3c0.2,0.6,0.4,1.1,0.1,1.7c-1.1-1.8-1.5-3.8-2-5.9
		c0.1-0.7-0.3-1.4,0-2.1c0.8-0.5,0.9-1.4,1.3-2.2C51.8,41.7,51.9,41.7,52,41.7z"/>
	<path class="fern-two" d="M56.8,52.7c-0.9-0.8-0.8-1.9-0.8-2.9c0.1-2.7,0.3-5.5-1.1-8c-0.2-0.3-0.1-0.7,0.1-1.1c1.4,2.2,2.2,4.5,1.8,7.2
		C56.5,49.5,56.8,51.1,56.8,52.7z"/>
	<path class="fern-two" d="M57.7,70.7c1.3,0,2.5,0,3.8-0.1c0.4,0.1,0.7,0.1,1.1,0.2c0.5,0.1,1.1,0.3,1.6,0.4c0.3,0.2,0.6,0.4,0.9,0.5
		c0.1,0.2,0.2,0.5,0.3,0.7c-0.3,0.1-0.5,0.2-0.8,0.4c-1.7-1.5-4.8-1.8-6.6-0.7C57.3,71.9,57.5,71.3,57.7,70.7z"/>
	<path class="fern-two" d="M44.2,51.1c-0.3,0.2-0.6,0.4-1,0.6c-0.5,0.1-1.1,0.5-1.5-0.2c1.1-1.7,2.8-2.7,4.6-3.5c0.6-0.2,1.2-0.6,1.8-0.1
		c-0.1,0.8-0.7,1.2-1.2,1.7c-0.4-0.3-0.4-1.2-1.1-0.7c-0.8,0.5-1.8,0.7-2.1,1.7C43.8,50.8,44.1,50.9,44.2,51.1z"/>
	<path class="fern-two" d="M30,79.1c-0.1,0.2-0.2,0.4-0.2,0.6c-2.3,0.1-3.5,1.6-4.5,3.4c-0.3-0.1-0.6-0.2-0.9-0.3
		C25.3,79.8,27.8,78.2,30,79.1z"/>
	<path class="fern-two" d="M21.4,69.9c1.4-0.3,2.8-0.3,4.2,0.1c1.5,0.4,2.3,1.4,2.1,3c-0.2-0.1-0.4-0.2-0.6-0.3c0,0,0,0,0,0
		c-0.3-1.1-1.1-1.6-2.2-1.8c-1.1-0.1-2.1-0.3-3.2-0.5C21.5,70.2,21.5,70.1,21.4,69.9z"/>
	<path class="fern-two" d="M39.3,28.5c1.1-0.4,2.1,0.4,3.2,0.4c0.9,0,1.8,0.2,2.7-0.1c0.6-0.2,1.3-0.2,1.7,0.5c-1.2,0.5-2.5,0.5-3.8,0.5
		C41.8,29.5,40.4,29.6,39.3,28.5z"/>
	<path class="fern-two" d="M27.4,19.5c-0.2,0.7-0.4,1.5-1,2.1c-0.2-0.1-0.4-0.2-0.6-0.3c0.2-0.2,0.5-0.4,0.5-0.6c0.6-3,0.8-6-0.6-8.9
		c0-0.1,0.1-0.3,0.1-0.4c1.3,0.8,1.1,2.1,1.3,3.3C27.4,16.3,27.3,17.9,27.4,19.5z"/>
	<path class="fern-two" d="M50.4,43.9c-0.3,0.7,0.1,1.4,0,2.1c-0.5-0.1-0.9-0.1-1.4-0.2c0.2-2.1,0.3-4.2,1.5-6c0.2-0.3,0.3-0.8,0.9-0.9
		c0.4,0.6,0.2,1.1,0,1.7C50,41.6,49.7,42.5,50.4,43.9z"/>
	<path class="fern-two" d="M30.3,48.1c2.3,0.1,5.3,2.3,5.8,4.1c-0.6-0.2-1.2-0.3-1.8-0.5c0.7-1.5-1-1.5-1.5-2.3c-0.4-0.5-1.1-0.5-1.3,0.4
		C30.9,49.4,30.5,48.8,30.3,48.1z"/>
	<path class="fern-two" d="M24.4,82.7c0.3,0.1,0.6,0.2,0.9,0.3c0.2,0.1,0.3,0.2,0.5,0.3c0.2,0.3,0.5,0.6,0.7,1c0.3,0.6,0.7,1.3,0.8,2
		C25.6,86.2,24.3,84.5,24.4,82.7z"/>
	<path class="fern-two" d="M24.3,52.2c0.6-1.2,0.5-2.5,0.5-3.8c0-0.9-0.4-1.9,0.2-2.7c0.6,2.9,0.2,5.7-0.2,8.5c-0.2,0-0.4,0.1-0.6,0.1
		c-0.1-0.9-0.3-1.8-0.4-2.7C23.9,51.8,24.1,52,24.3,52.2C24.3,52.2,24.3,52.3,24.3,52.2C24.3,52.3,24.3,52.2,24.3,52.2z"/>
	<path class="fern-two" d="M19,17.1c0.3,0,0.6,0,0.9-0.1c0.3,0.7,0.6,1.4,0.9,2.1c-1.3,0-2.6,0.3-4-0.1C17.6,18.4,18.3,17.7,19,17.1z"/>
	<path class="fern-two" d="M58,72.3c1.8-1.2,4.9-0.8,6.6,0.7c-0.5,0.3-0.9,0.5-1.4,0.8c-0.2-0.1-0.3-0.2-0.5-0.3c0.4-1.1-0.3-1.3-1.1-1.2
		c-0.7,0.1-1.9-1.1-2.1,0.7c-0.1,0-0.2-0.1-0.3-0.1C58.8,72.6,58.4,72.5,58,72.3L58,72.3z"/>
	<path class="fern-two" d="M21.4,69.9c0.1,0.2,0.1,0.4,0.2,0.6c0,0.3,0,0.7-0.1,1c-0.2,0.6-0.5,1.2-0.7,1.9c-0.1,0.3-0.3,0.6-0.4,0.8
		C19.3,73,19.8,71,21.4,69.9z"/>
	<path class="fern-two" d="M31.4,49.9c0.3-0.8,1-0.9,1.3-0.4c0.5,0.7,2.2,0.7,1.5,2.3C33.1,51.4,32.2,50.7,31.4,49.9z"/>
	<path class="fern-two" d="M52.7,72.2c-1.1-0.5-1.9-1.3-2.4-2.4c0.5-0.4,0.9-0.4,1.4,0c0.5,0.4,0.8,1,1.5,1.2c0,0,0,0,0,0
		c0,0.3-0.1,0.6-0.1,1C53,72,52.8,72.1,52.7,72.2z"/>
	<path class="fern-two" d="M44.2,51.1c-0.2-0.1-0.5-0.3-0.4-0.4c0.3-1.1,1.4-1.2,2.1-1.7c0.8-0.5,0.8,0.5,1.1,0.7c0,0.1,0,0.2-0.1,0.3
		C45.9,49.9,45.3,51,44.2,51.1z"/>
	<path class="fern-two" d="M59.6,72.9c0.1-1.8,1.4-0.6,2.1-0.7c0.7-0.1,1.5,0.2,1.1,1.2C61.6,73.6,60.6,73.5,59.6,72.9z"/>
	<path class="fern-two" d="M21.5,75.5c0.4-0.2,0.7-0.1,1.1,0.1c1.4,0.7,2.8,0.6,4.2,0C25.9,77.3,23.3,77.1,21.5,75.5z"/>
	<path class="fern-two" d="M53.2,71c-0.7-0.1-1-0.7-1.5-1.2c-0.5-0.5-0.9-0.4-1.4,0c-0.4-0.2-0.7-0.5-0.8-1c0.3-0.4,0.6-0.6,1.1-0.3
		C51.5,69.2,52.7,69.7,53.2,71z"/>
	<path class="fern-two" d="M25,45.6c-0.7-1.3-1-2.7-0.6-4.2C24.9,42.8,25.1,44.2,25,45.6z"/>
	<path class="fern-two" d="M57.5,56.7c-0.7-1.2-1.3-2.5-0.8-4C57,54,57.3,55.3,57.5,56.7z"/>
	<path class="fern-two" d="M81,40.4c-0.4-1-1.4-0.4-2-0.8c1.2-0.3,2.5-0.6,3.8-0.1l0,0C82.2,39.8,81.6,40.1,81,40.4z"/>
	<path class="fern-two" d="M58.7,20.9c-0.7,1-1.7,1.5-2.9,1C56.7,21.3,57.6,21,58.7,20.9z"/>
	<path class="fern-two" d="M41.2,88.3c0,0.8,0.9,0.5,1.1,1.1c-0.8-0.1-1.5-0.1-2.3-0.2c-0.1-0.2-0.2-0.4-0.3-0.6
		C40.2,88.4,40.7,88.3,41.2,88.3z"/>
	<path class="fern-two" d="M72.9,71.8c-0.4-0.2,0.1-1.2-0.8-1.1c0-0.3,0-0.7,0.3-0.8c0.4-0.2,0.5,0.3,0.7,0.5c0,0.2,0.1,0.3,0.1,0.5
		C73.1,71.2,73,71.5,72.9,71.8C72.9,71.8,72.9,71.8,72.9,71.8z"/>
	<path class="fern-two" d="M48,89.3c0.5-0.9,1.2-0.6,1.9-0.3C49.3,89.2,48.7,89.3,48,89.3z"/>
	<path class="fern-two" d="M24.4,41.4c-0.6-0.4-0.9-0.9-0.4-1.6C24.3,40.3,24.5,40.8,24.4,41.4z"/>
	<path class="fern-two" d="M42.9,89.4c0.6-0.6,1.2-0.3,1.9-0.1C44.2,89.7,43.5,89.5,42.9,89.4z"/>
	<path class="fern-two" d="M24.1,54.3c0.2,0,0.4-0.1,0.6-0.1c-0.1,0.6,0,1.2-0.4,1.8C24,55.4,24,54.8,24.1,54.3z"/>
	<path class="fern-two" d="M73.2,70.9c0-0.2-0.1-0.3-0.1-0.5c0.7,0.1,0.9,0.6,1.1,1.2C73.9,71.3,73.6,71.1,73.2,70.9z"/>
	<path class="fern-two" d="M88.9,48.4c-0.5,0.5-1,0.4-1.5,0C87.9,48.2,88.4,48.4,88.9,48.4z"/>
	<path class="fern-two" d="M45.5,89.3c0.6-0.5,1.2-0.3,1.8,0C46.7,89.4,46.1,89.6,45.5,89.3z"/>
	<path class="fern-two" d="M34.8,68.9c0.1,0,0.1,0.1,0.2,0.1c0,0.1,0,0.2-0.1,0.3c-0.3,0.2-0.7,0.1-1,0c0.1-0.2,0.2-0.4,0.2-0.6
		C34.3,68.7,34.5,68.8,34.8,68.9z"/>
	<path class="fern-two" d="M61.3,40c-0.1,0.1-0.1,0.2-0.2,0.3c-0.1-0.2-0.3-0.4-0.4-0.6c0,0,0,0,0,0c0.3-0.2,0.7-0.4,1.1-0.4
		c0,0.2,0,0.3-0.1,0.5C61.6,39.9,61.5,40,61.3,40z"/>
	<path class="fern-two" d="M65.4,89.5c0.2-0.5,0.4-0.9,1-0.6C66.1,89.1,65.8,89.3,65.4,89.5z"/>
	<path class="fern-two" d="M72,68.2c0.1,0.3,0.2,0.7,0.5,1.3C71.9,68.9,71.8,68.6,72,68.2L72,68.2z"/>
	<path class="fern-two" d="M49.9,89c0.3-0.7,0.7-0.5,1.2-0.3C50.7,88.8,50.3,88.9,49.9,89z"/>
	<path class="fern-two" d="M65,76c-0.2-0.1-0.4-0.2-0.6-0.2c0.4-0.3,0.7-0.7,1.1-1c0,0,0,0,0,0C65.4,75.2,65.2,75.6,65,76z"/>
	<path class="fern-two" d="M39.7,88.5c0.1,0.2,0.2,0.4,0.3,0.6c-0.4,0-0.7,0-1.1-0.3C39,88.5,39.3,88.5,39.7,88.5z"/>
	<path class="fern-two" d="M58,72.3c0.4,0.2,0.8,0.4,1.2,0.5C58.7,73,58.3,72.8,58,72.3z"/>
	<path class="fern-two" d="M72,68.1c-0.5-0.1-0.5-0.6-0.7-1c0,0,0,0,0,0C71.7,67.4,71.8,67.7,72,68.1C72,68.2,72,68.1,72,68.1z"/>
	<path class="fern-two" d="M27,72.7c0.2,0.1,0.4,0.2,0.6,0.3c0,0.2,0,0.4-0.1,0.7C27.2,73.5,26.9,73.2,27,72.7z"/>
	<path class="fern-two" d="M62.7,39.1c-0.2,0.5-0.4,0.6-0.9,0.3C62.1,39.2,62.4,39,62.7,39.1z"/>
	<path class="fern-two" d="M57.7,59.4c0.2-0.3,0.3-0.5,0.5-0.8c0.1,0.3,0.2,0.6,0.3,0.9c-0.2,0-0.3,0.1-0.5,0.1
		C57.9,59.6,57.8,59.5,57.7,59.4z"/>
	<path class="fern-two" d="M87.4,48.4c-0.3,0.4-0.7,0.3-1.1,0.1C86.7,48.2,87.1,48.3,87.4,48.4z"/>
	<path class="fern-two" d="M60.4,20.2c-0.1,0.5-0.4,0.6-0.9,0.4C59.7,20.3,60,20.1,60.4,20.2z"/>
	<path class="fern-two" d="M61.3,19.8c-0.2,0.3-0.5,0.4-0.9,0.4C60.6,19.8,60.8,19.7,61.3,19.8z"/>
	<path class="fern-two" d="M64.6,89.9c0.2-0.4,0.5-0.5,0.9-0.4C65.2,89.7,65,89.9,64.6,89.9z"/>
	<path class="fern-two" d="M36.1,26c-0.1,0.2-0.2,0.4-0.2,0.6c-0.1,0-0.2,0-0.3,0c-0.1-0.1-0.3-0.1-0.4-0.2C35.4,26.2,35.7,26.1,36.1,26z
		"/>
	<path class="fern-two" d="M94.2,71.1c0.2-0.1,0.5-0.2,0.8-0.2c0.1,0.5-0.3,0.5-0.5,0.7C94.4,71.4,94.3,71.2,94.2,71.1z"/>
	<path class="fern-two" d="M63.6,90.5c0.1-0.3,0.3-0.5,0.6-0.4C64.1,90.4,63.9,90.5,63.6,90.5z"/>
	<path class="fern-two" d="M60.9,91.8c0.1-0.3,0.3-0.4,0.6-0.4C61.4,91.7,61.1,91.8,60.9,91.8z"/>
	<path class="fern-two" d="M33.1,69.3c0.3-0.2,0.5-0.2,0.8,0C33.7,69.5,33.4,69.3,33.1,69.3z"/>
	<path class="fern-two" d="M79.1,39.5c-0.2,0.2-0.5,0.2-0.8,0.1C78.5,39.3,78.8,39.4,79.1,39.5z"/>
	<path class="fern-two" d="M61.8,19.4c-0.1,0.3-0.3,0.4-0.6,0.5C61.3,19.5,61.5,19.5,61.8,19.4z"/>
	<path class="fern-two" d="M57.9,57.8c-0.3-0.2-0.3-0.4-0.2-0.7C57.7,57.3,57.8,57.5,57.9,57.8z"/>
	<path class="fern-two" d="M47.2,89.3c0.2-0.2,0.5-0.2,0.8-0.1C47.8,89.4,47.5,89.3,47.2,89.3z"/>
	<path class="fern-two" d="M44.7,89.4c0.2-0.3,0.5-0.3,0.8-0.1C45.3,89.6,45,89.6,44.7,89.4z"/>
	<path class="fern-two" d="M55.8,64.8c-0.2-0.1-0.5-0.1-0.7-0.2C55.4,64.7,55.6,64.7,55.8,64.8z"/>
	<path class="fern-two" d="M58,59.7c0.2,0,0.3-0.1,0.5-0.1c0.1,0.1,0.1,0.3,0.2,0.4c-0.1,0.1-0.2,0.1-0.3,0.2C58.2,60,58.1,59.8,58,59.7z
		"/>
	<path class="fern-two" d="M58.7,59.9c0,0.1,0,0.2,0,0.4c-0.1-0.1-0.2-0.1-0.4-0.2C58.5,60.1,58.6,60,58.7,59.9z"/>
	<path class="fern-two" d="M52.7,72.2c0.1-0.1,0.3-0.2,0.4-0.3c0,0.1-0.1,0.2-0.1,0.4c0,0-0.1,0-0.1,0C52.8,72.3,52.8,72.2,52.7,72.2z"/>
	<path class="fern-two" d="M58.2,58.7c-0.1-0.2-0.1-0.3-0.2-0.5C58,58.3,58.1,58.5,58.2,58.7z"/>
	<path class="fern-two" d="M58,58.2c-0.1-0.2-0.1-0.3-0.2-0.5C58,57.8,58.1,58,58,58.2z"/>
	<path class="fern-two" d="M62.4,19c0,0.2-0.1,0.2-0.2,0.2C62.3,19.1,62.3,19,62.4,19z"/>
	<path class="fern-two" d="M62.3,19.2c-0.2,0.1-0.3,0.1-0.5,0.2C62,19.4,62.1,19.3,62.3,19.2z"/>
	<path class="fern-two" d="M55.7,32.3c0.1,0,0.2,0,0.3,0c0,0,0,0.1,0.1,0.1C55.9,32.3,55.8,32.3,55.7,32.3z"/>
	<path class="fern-two" d="M59.6,20.6c-0.2,0.1-0.3,0.1-0.5,0.2C59.2,20.7,59.4,20.6,59.6,20.6z"/>
	<path class="fern-two" d="M59.1,20.7c-0.2,0.1-0.3,0.1-0.5,0.2C58.8,20.9,59,20.8,59.1,20.7z"/>
	<path class="fern-two" d="M50.9,29.8c-0.1,0.1-0.3,0.2-0.4,0.3C50.7,29.9,50.8,29.9,50.9,29.8z"/>
	<path class="fern-two" d="M60.4,92c0.2-0.1,0.3-0.1,0.5-0.2C60.7,91.8,60.6,91.9,60.4,92z"/>
	<path class="fern-two" d="M82.8,39.5c0-0.1,0-0.2-0.1-0.2c0,0,0.1,0,0.1,0C82.8,39.3,82.8,39.4,82.8,39.5C82.8,39.5,82.8,39.5,82.8,39.5
		z"/>
	<path class="fern-two" d="M61.5,91.4c0.2-0.1,0.3-0.1,0.5-0.2C61.8,91.4,61.7,91.5,61.5,91.4z"/>
	<path class="fern-two" d="M61.9,91.2c0.2-0.1,0.3-0.1,0.5-0.2C62.2,91.2,62.1,91.3,61.9,91.2z"/>
	<path class="fern-two" d="M62.3,91.1c0.2-0.1,0.3-0.2,0.5-0.2C62.7,91,62.5,91.1,62.3,91.1z"/>
	<path class="fern-two" d="M62.7,90.9c0.2-0.1,0.3-0.2,0.5-0.2C63,90.7,62.9,90.8,62.7,90.9z"/>
	<path class="fern-two" d="M63.1,90.7c0.2-0.1,0.3-0.2,0.5-0.2C63.5,90.6,63.4,90.7,63.1,90.7z"/>
	<path class="fern-two" d="M64.2,90.1c0.2-0.1,0.3-0.1,0.5-0.2C64.6,90.1,64.4,90.2,64.2,90.1z"/>
	<path class="fern-two" d="M66.4,88.8c0.2-0.1,0.3-0.1,0.5-0.2C66.7,88.7,66.6,88.7,66.4,88.8z"/>
	<path class="fern-two" d="M16.8,19.3c0-0.1,0.1-0.2,0.1-0.3C17,19.1,16.9,19.2,16.8,19.3z"/>
	<path class="fern-two" d="M10.4,26.6c0.1,0,0.2,0,0.3,0c0,0,0,0.1,0,0.1C10.6,26.7,10.5,26.7,10.4,26.6z"/>
	<path class="fern-two" d="M65.4,72.6c-0.1-0.2-0.2-0.5-0.3-0.7c0.4-2.2,0.5-4.3-1.4-5.9l0,0c-0.1-0.1-0.2-0.2-0.3-0.2
		c-0.2-0.2-0.3-0.3-0.5-0.5c0-0.2-0.1-0.5-0.1-0.7c0.6-0.7,0.5-1.7,0.6-2.5c0.6-3.8,1.6-7.4,3.3-10.8c0.2-0.5,0.4-1,0.9-1.3
		c2.9,5.1,4.3,10.4,2.6,16.3C69.3,68.9,67.6,71,65.4,72.6z"/>
	<path class="fern-two" d="M41.3,36.5c0-0.3,0.1-0.6,0.1-1c0.1-0.2,0.1-0.4,0.2-0.7c0.2-0.4,0.4-0.8,0.6-1.2c1.2-0.7,2.4-1.2,3.8-1.5
		c0.7,0.3,1.5,0.5,2,1.1c-0.5,2.1-0.4,4.2,0.3,6.2c-1.4,0.4-2.9-0.1-4.3-0.1C43.4,38.2,41.9,37.7,41.3,36.5z"/>
	<path class="fern-two" d="M3.8,22.7c3.6-2.7,7.9-4,12.1-5.2c0.2,0,0.4,0.1,0.6,0.2c-0.4,2.1-2.3,3.3-3.2,5.2c-0.2,0.4-0.8,0.2-1.2,0.2
		C9.3,23,6.6,22.6,3.8,22.7z"/>
	<path class="fern-two" d="M51.4,40.7c0.2-0.6,0.5-1.1,0-1.7c-0.3-1-1.4-0.7-2-1.1c0-0.1,0-0.1-0.1-0.2c0.4-1.1,0.2-2.3,0.1-3.5
		c0-0.1,0-0.1,0.1-0.2c1,0.5,1.9,1,2.9,1.5c2.2,1.1,2.2,1.1,1.7,3.7c-0.7,0.9-1.8,1.4-2.2,2.5c-0.1,0-0.2,0-0.3,0.1
		C51.6,41.4,51.5,41.1,51.4,40.7z"/>
	<path class="fern-two" d="M42.2,33.7c-0.2,0.4-0.4,0.8-0.6,1.2c-1.5-1-2.1-2.7-3.4-3.9c-1-1-2.1-1.8-3.7-1.4c-0.2-0.5-0.5-1.1-0.7-1.6
		c2,0.4,3.9,0.9,5.7,2C40.6,31.1,41.4,32.4,42.2,33.7z"/>
	<path class="fern-two" d="M42.2,33.7c-0.8-1.3-1.6-2.6-2.7-3.7c2.3,0.2,4.4,1.4,6.5,2.2C44.7,32.5,43.4,33,42.2,33.7z"/>
	<path class="fern-two" d="M49.6,34c0,0.1-0.1,0.1-0.1,0.2c-1,0-1.2,0.7-1.1,1.4c0.1,0.8-0.4,1.9,1,2c0,0.1,0,0.1,0.1,0.2
		c-0.4,0.5,0.1,1.6-1.1,1.6c-0.6-2-0.7-4.1-0.3-6.2C48.6,33.5,49.1,33.8,49.6,34z"/>
	<path class="fern-two" d="M30.2,27.1c-1.3,0.2-2.5,0.4-3.8,0.6c-0.7-0.9-1.8-1.1-3-2.3C26,26.3,28.2,26.2,30.2,27.1z"/>
	<path class="fern-two" d="M60.7,39.7c0.1,0.2,0.3,0.4,0.4,0.6c-0.1,0.1-0.1,0.2-0.1,0.3C60.8,40.4,60.5,40.2,60.7,39.7z"/>
	<path class="fern-two" d="M38.3,10.4c1.7-0.3,3.4-0.1,5.1,0c0,0.2,0,0.3,0,0.5c-1.7-0.1-3.4-0.1-5.1-0.2C38.4,10.6,38.4,10.5,38.3,10.4z
		"/>
	<path class="fern-two" d="M33.5,10.8c0.8-0.5,1.7-0.4,2.6-0.3c0,0.1,0.1,0.2,0.1,0.2c-0.9,0.4-1.8,0.3-2.7,0.3
		C33.5,11,33.5,10.9,33.5,10.8z"/>
	<path class="fern-two" d="M30.2,12c-0.3-0.2-1.1-0.1-0.3-0.8c0.4,0,0.9,0.1,1.3,0.1c0,0.1,0.1,0.1,0.1,0.2C30.9,11.7,30.5,11.8,30.2,12z
		"/>
	<path class="fern-two" d="M38.4,10.6c-0.4,0.2-0.8,0.3-1.2,0.1c0.2-0.7,0.8-0.3,1.1-0.3C38.4,10.5,38.4,10.6,38.4,10.6z"/>
	<path class="fern-two" d="M33.6,11.1c-0.3,0.1-0.6,0.4-1,0c0.2-0.5,0.6-0.2,0.9-0.3C33.5,10.9,33.5,11,33.6,11.1z"/>
	<path class="fern-two" d="M31.1,11.3c0.2-0.1,0.4-0.4,0.7-0.1c-0.1,0.4-0.4,0.3-0.6,0.3C31.2,11.4,31.2,11.4,31.1,11.3z"/>
	<path class="fern-two" d="M36.1,10.6c0.1,0,0.2,0,0.3,0c-0.1,0.1-0.1,0.1-0.2,0.2C36.2,10.7,36.1,10.6,36.1,10.6z"/>
	<path class="fern-two" d="M34.5,29.6c1.6-0.5,2.6,0.4,3.7,1.4c1.3,1.2,1.9,2.9,3.4,3.9c-0.1,0.2-0.1,0.4-0.2,0.7
		C37.8,35.2,36,32.6,34.5,29.6z"/>
	<path class="fern-two" d="M44.4,43.5c-0.7-0.4-1.5-0.3-2.3-0.5c-1.1-2-2.6-3.7-3.4-6C41.3,38.7,43.9,40.3,44.4,43.5z"/>
	<path class="fern-two" d="M41.3,36.5c0.6,1.2,2,1.7,2.7,2.9c-1.8-0.6-3-2-4.6-3.2C40.2,35.9,40.8,36.5,41.3,36.5z"/>
	<path class="fern-two" d="M44.1,26.6c-0.7,0.5-1.5,0.4-2.2,0.1l0,0C42.6,26.2,43.3,26.3,44.1,26.6L44.1,26.6z"/>
	<path class="fern-two" d="M37.5,26.9c-0.3,0.2-0.5,0.2-0.7,0C37,26.5,37.3,26.5,37.5,26.9z"/>
	<path class="fern-two" d="M39.7,26.9c0.5-0.4,1-0.3,1.5-0.1c0,0,0,0,0,0C40.7,27,40.2,27,39.7,26.9L39.7,26.9z"/>
	<path class="fern-two" d="M53.9,24.7c-0.2,0.1-0.3,0.2-0.6,0.3C53.4,24.4,53.7,24.6,53.9,24.7C53.9,24.7,53.9,24.7,53.9,24.7z"/>
	<path class="fern-two" d="M35.5,26.6c0.1,0,0.2,0,0.3,0c0,0.1,0,0.2,0,0.3C35.7,26.8,35.6,26.7,35.5,26.6z"/>
	<path class="fern-two" d="M39.7,26.9C39.6,26.9,39.5,26.9,39.7,26.9C39.5,26.8,39.6,26.9,39.7,26.9C39.7,26.9,39.7,26.9,39.7,26.9z"/>
	<path class="fern-two" d="M41.9,26.7c-0.2,0-0.5,0-0.7,0c0,0,0,0,0,0C41.4,26.8,41.6,26.7,41.9,26.7L41.9,26.7z"/>
	<path class="fern-two" d="M47.2,26.1c0.2,0,0.5,0,0.7,0l0,0C47.7,26.1,47.4,26.1,47.2,26.1L47.2,26.1z"/>
	<path class="fern-two" d="M47.9,26.1C48,26,48.1,26,47.9,26.1C48.1,26.1,48,26.1,47.9,26.1L47.9,26.1z"/>
	<path class="fern-two" d="M57.3,23.3C57.4,23.2,57.4,23.2,57.3,23.3C57.4,23.2,57.4,23.2,57.3,23.3C57.3,23.3,57.3,23.3,57.3,23.3z"/>
	<path class="fern-two" d="M57.3,23.3c-0.1,0.1-0.3,0.1-0.4,0.2l0,0C57,23.4,57.2,23.3,57.3,23.3C57.3,23.3,57.3,23.3,57.3,23.3z"/>
	<path class="fern-two" d="M56.9,23.4C56.9,23.5,56.8,23.5,56.9,23.4C56.8,23.5,56.9,23.5,56.9,23.4C56.9,23.4,56.9,23.4,56.9,23.4z"/>
	<path class="fern-two" d="M55.2,24.1C55.2,24.1,55.2,24.1,55.2,24.1C55.2,24.1,55.2,24.1,55.2,24.1C55.2,24.1,55.2,24.1,55.2,24.1z"/>
	<path class="fern-two" d="M54.7,24.3c0.1-0.1,0.3-0.1,0.4-0.2c0,0,0,0,0,0C55,24.2,54.9,24.3,54.7,24.3C54.7,24.3,54.7,24.3,54.7,24.3z"
		/>
	<path class="fern-two" d="M54.3,24.5c0.1-0.1,0.3-0.1,0.4-0.2c0,0,0,0,0,0C54.6,24.4,54.5,24.4,54.3,24.5L54.3,24.5z"/>
	<path class="fern-two" d="M54.3,24.5c-0.1,0.1-0.3,0.1-0.4,0.2c0,0,0,0,0,0C54,24.6,54.2,24.5,54.3,24.5C54.3,24.5,54.3,24.5,54.3,24.5z
		"/>
	<path class="fern-two" d="M52.3,25C52.3,25,52.3,25,52.3,25C52.3,25,52.3,25,52.3,25C52.3,25.1,52.3,25,52.3,25z"/>
	<path class="fern-two" d="M52.3,25.1C52.2,25.1,52.2,25.1,52.3,25.1C52.2,25.1,52.2,25.1,52.3,25.1C52.3,25,52.3,25.1,52.3,25.1z"/>
	<path class="fern-two" d="M51.1,25.3C51.1,25.3,51.2,25.2,51.1,25.3C51.2,25.2,51.1,25.3,51.1,25.3C51.1,25.3,51.1,25.3,51.1,25.3z"/>
	<path class="fern-two" d="M50.7,25.4c0.1-0.1,0.3-0.1,0.4-0.2c0,0,0,0,0,0C51,25.3,50.8,25.4,50.7,25.4L50.7,25.4z"/>
	<path class="fern-two" d="M50.7,25.5C50.6,25.5,50.6,25.5,50.7,25.5C50.6,25.5,50.6,25.5,50.7,25.5C50.7,25.4,50.7,25.5,50.7,25.5z"/>
	<path class="fern-two" d="M47.2,26.1C47.1,26.1,47.1,26.2,47.2,26.1C47.1,26.2,47.1,26.1,47.2,26.1C47.2,26.1,47.2,26.1,47.2,26.1z"/>
	<path class="fern-two" d="M45.3,26.4C45.3,26.3,45.3,26.3,45.3,26.4C45.3,26.3,45.3,26.4,45.3,26.4C45.3,26.4,45.3,26.4,45.3,26.4z"/>
	<path class="fern-two" d="M45.3,26.4C45.2,26.4,45.2,26.4,45.3,26.4C45.2,26.4,45.2,26.4,45.3,26.4C45.3,26.4,45.3,26.4,45.3,26.4z"/>
	<path class="fern-two" d="M44.1,26.6C44.1,26.6,44.2,26.6,44.1,26.6C44.2,26.6,44.1,26.6,44.1,26.6L44.1,26.6z"/>
	<path class="fern-two" d="M15.1,30c1.1,0.5,1.9,1.2,2.2,2.4c0,0,0,0,0,0C16.3,31.9,15.6,31,15.1,30C15.1,30,15.1,30,15.1,30z"/>
	<path class="fern-two" d="M17.8,33c-0.2-0.2-0.3-0.4-0.5-0.6c0,0,0,0,0,0C17.4,32.6,17.6,32.8,17.8,33L17.8,33z"/>
	<path class="fern-two" d="M17.9,33.4c0.2,0.2,0.3,0.4,0.5,0.6l0,0C18.2,33.8,18.1,33.6,17.9,33.4L17.9,33.4z"/>
	<path class="fern-two" d="M18.4,34c0.2,0.2,0.3,0.4,0.5,0.6l0,0C18.7,34.3,18.6,34.1,18.4,34C18.4,34,18.4,34,18.4,34z"/>
	<path class="fern-two" d="M22.8,43C22.8,43,22.9,43,22.8,43C22.9,43,22.8,43,22.8,43C22.8,43,22.8,43,22.8,43z"/>
	<path class="fern-two" d="M22.8,43C22.8,43,22.8,42.9,22.8,43C22.8,42.9,22.8,43,22.8,43C22.8,43,22.8,43,22.8,43z"/>
	<path class="fern-two" d="M22.2,41C22.3,41,22.3,41,22.2,41C22.3,41,22.3,41,22.2,41L22.2,41z"/>
	<path class="fern-two" d="M22.2,41c-0.1-0.1-0.1-0.3-0.2-0.4l0,0C22.1,40.7,22.2,40.8,22.2,41C22.2,41,22.2,41,22.2,41z"/>
	<path class="fern-two" d="M22.1,40.5c-0.1-0.1-0.1-0.3-0.2-0.4l0,0C21.9,40.2,22,40.4,22.1,40.5C22.1,40.5,22.1,40.5,22.1,40.5z"/>
	<path class="fern-two" d="M21.9,40.1C21.9,40.1,21.8,40,21.9,40.1C21.8,40,21.9,40.1,21.9,40.1C21.9,40.1,21.9,40.1,21.9,40.1z"/>
	<path class="fern-two" d="M20.9,38.2c0,0,0,0.1,0.1,0.1C20.9,38.3,20.9,38.3,20.9,38.2L20.9,38.2z"/>
	<path class="fern-two" d="M20.9,38.2c0,0,0-0.1-0.1-0.1C20.8,38.2,20.9,38.2,20.9,38.2C20.9,38.2,20.9,38.2,20.9,38.2z"/>
	<path class="fern-two" d="M18.9,34.5C18.9,34.5,18.9,34.6,18.9,34.5C18.9,34.6,18.9,34.5,18.9,34.5C18.9,34.5,18.9,34.5,18.9,34.5z"/>
	<path class="fern-two" d="M17.7,33c0.1,0.1,0.1,0.3,0.2,0.4l0,0C17.9,33.2,17.8,33.1,17.7,33C17.8,33,17.7,33,17.7,33z"/>
	<path class="fern-two" d="M64.8,76.6c-0.2,0.4-0.4,0.8-0.6,1.2c-1-0.1-1.1,1.2-2,1.3l0,0C63,78.1,63.2,76.7,64.8,76.6z"/>
	<path class="fern-two" d="M60.5,80.8c0.2-0.3,0.3-0.8,0.9-0.7C61.3,80.7,60.9,80.8,60.5,80.8L60.5,80.8z"/>
	<path class="fern-two" d="M58.8,82.3c0.2-0.2,0.3-0.6,0.7-0.4C59.4,82.3,59.1,82.2,58.8,82.3C58.8,82.3,58.8,82.3,58.8,82.3z"/>
	<path class="fern-two" d="M58.2,82.8c-0.2,0.2-0.3,0.6-0.7,0.4C57.6,82.8,57.9,82.8,58.2,82.8L58.2,82.8z"/>
	<path class="fern-two" d="M62.3,79.1c-0.1,0.1-0.2,0.2-0.2,0.3c0,0,0-0.1-0.1-0.1C62.1,79.2,62.2,79.2,62.3,79.1
		C62.3,79.1,62.3,79.1,62.3,79.1z"/>
	<path class="fern-two" d="M58.2,82.7c0.2-0.2,0.4-0.3,0.6-0.5c0,0,0,0,0,0C58.6,82.5,58.4,82.6,58.2,82.7C58.2,82.8,58.2,82.7,58.2,82.7
		z"/>
	<path class="fern-two" d="M60.5,80.9c0,0-0.1,0-0.1,0.1C60.4,80.9,60.4,80.9,60.5,80.9C60.5,80.8,60.5,80.9,60.5,80.9z"/>
	<path class="fern-two" d="M81.7,67.4c1.6,1.1,3.2,2.1,5.2,3.5C84.6,70.1,83.1,68.8,81.7,67.4z"/>
	<path class="fern-two" d="M79,65.1c0.7,0.4,1.3,0.9,2.1,1.9C79.9,66.4,79.2,66,79,65.1C79,65.1,79,65.1,79,65.1z"/>
	<path class="fern-two" d="M77.7,63.8c0.6,0.2,1,0.6,1.3,1.3c0,0,0,0,0,0C78.4,64.8,77.8,64.6,77.7,63.8L77.7,63.8z"/>
	<path class="fern-two" d="M77.7,63.8C77.6,63.7,77.6,63.7,77.7,63.8C77.6,63.6,77.7,63.7,77.7,63.8C77.7,63.8,77.7,63.8,77.7,63.8z"/>
	<path class="fern-two" d="M76.5,62.6C76.6,62.6,76.7,62.7,76.5,62.6C76.6,62.8,76.5,62.7,76.5,62.6C76.5,62.6,76.5,62.6,76.5,62.6z"/>
	<path class="fern-two" d="M76,62c0.2,0.2,0.3,0.4,0.5,0.6c0,0,0,0,0,0C76.3,62.4,76.2,62.2,76,62L76,62z"/>
	<path class="fern-two" d="M75,60.9C75.1,61,75.2,61,75,60.9C75.2,61.1,75.1,61,75,60.9C75,60.9,75,60.9,75,60.9z"/>
	<path class="fern-two" d="M74.9,60.5C74.8,60.4,74.7,60.3,74.9,60.5C74.7,60.2,74.8,60.3,74.9,60.5L74.9,60.5z"/>
	<path class="fern-two" d="M73,58.2c0.2,0.2,0.3,0.4,0.5,0.6l0,0C73.3,58.6,73.1,58.4,73,58.2L73,58.2z"/>
	<path class="fern-two" d="M72.4,57.1c0.2,0.1,0.4,0.3,0.5,0.4c0,0.1-0.1,0.2-0.1,0.3C72.5,57.6,72.3,57.4,72.4,57.1z"/>
	<path class="fern-two" d="M73,58.2c-0.1-0.1-0.1-0.3-0.2-0.4C72.8,57.9,72.9,58.1,73,58.2C73,58.2,73,58.2,73,58.2z"/>
	<path class="fern-two" d="M73.4,58.8C73.5,58.8,73.5,58.8,73.4,58.8C73.5,58.8,73.5,58.8,73.4,58.8C73.4,58.8,73.4,58.8,73.4,58.8z"/>
	<path class="fern-two" d="M74.9,60.4c0.1,0.1,0.1,0.3,0.2,0.4c0,0,0,0,0,0C75,60.7,74.9,60.6,74.9,60.4C74.9,60.5,74.9,60.4,74.9,60.4z"
		/>
	<path class="fern-two" d="M76,62C76,62,75.9,61.9,76,62C75.9,61.9,76,62,76,62C76,62,76,62,76,62z"/>
	<path class="fern-two" d="M67.8,29.6c-0.9,0-1.8-0.1-2.6-0.1C66.1,29,67,28.9,67.8,29.6z"/>
	<path class="fern-two" d="M70.7,29.4c0.8,0.1,1.2,0.1,1.5,0.2c0.2,0.1,0.6,0,0.7,0.5C72.3,30,71.7,30.2,70.7,29.4z"/>
	<path class="fern-two" d="M52.6,30.2c-0.1,0-0.3,0-0.4,0.1c0,0,0-0.1,0-0.1C52.3,30.2,52.5,30.2,52.6,30.2L52.6,30.2z"/>
	<path class="fern-two" d="M53.8,30c-0.2,0-0.5,0-0.7,0c0,0,0,0,0,0C53.3,30,53.5,30,53.8,30L53.8,30z"/>
	<path class="fern-two" d="M54.9,29.7c0.1,0,0.3,0,0.4-0.1c0,0,0,0.1,0,0.1C55.2,29.8,55.1,29.8,54.9,29.7L54.9,29.7z"/>
	<path class="fern-two" d="M59.1,29.4c-0.1,0-0.2,0-0.4,0.1c0,0,0-0.1,0-0.1C58.8,29.3,58.9,29.3,59.1,29.4L59.1,29.4z"/>
	<path class="fern-two" d="M59,29.3c0.2,0,0.5,0,0.7-0.1c0,0,0,0.1,0,0.1C59.6,29.4,59.3,29.4,59,29.3C59.1,29.4,59,29.3,59,29.3z"/>
	<path class="fern-two" d="M60.5,29.3c-0.2,0-0.5,0-0.7,0c0,0,0-0.1,0-0.1C60,29.3,60.3,29.2,60.5,29.3C60.5,29.2,60.5,29.3,60.5,29.3z"
		/>
	<path class="fern-two" d="M61.3,29.3c-0.2,0-0.5,0-0.7,0.1c0,0,0-0.1,0-0.1C60.8,29.2,61,29.2,61.3,29.3C61.2,29.2,61.3,29.3,61.3,29.3z
		"/>
	<path class="fern-two" d="M62,29.2c-0.2,0-0.5,0-0.7,0c0,0,0-0.1,0-0.1C61.5,29.2,61.7,29.2,62,29.2L62,29.2z"/>
	<path class="fern-two" d="M62,29.1c0.1,0,0.3,0,0.4,0c0,0,0,0.1,0,0.1C62.3,29.2,62.1,29.2,62,29.1C62,29.2,62,29.1,62,29.1z"/>
	<path class="fern-two" d="M63.8,29.2c0.1,0,0.3,0,0.4-0.1c0,0,0,0.1,0,0.1C64,29.3,63.9,29.2,63.8,29.2L63.8,29.2z"/>
	<polygon class="fern-two" points="69,29.5 69,29.4 69.1,29.4 	"/>
	<path class="fern-two" d="M70,29.6c0,0,0-0.1-0.1-0.1c0,0,0.1,0,0.1,0c0,0,0,0.1,0.1,0.1C70.1,29.6,70.1,29.6,70,29.6z"/>
	<path class="fern-two" d="M63.8,29.2c0,0-0.1,0-0.1,0.1C63.7,29.3,63.7,29.2,63.8,29.2C63.8,29.2,63.8,29.2,63.8,29.2z"/>
	<path class="fern-two" d="M54.9,29.8c0,0-0.1,0-0.1,0.1C54.9,29.8,54.9,29.8,54.9,29.8C54.9,29.7,54.9,29.8,54.9,29.8z"/>
	<path class="fern-two" d="M53.8,30c0,0,0.1,0,0.1-0.1C53.8,29.9,53.8,30,53.8,30C53.8,30,53.8,30,53.8,30z"/>
	<path class="fern-two" d="M52.6,30.2c0.1-0.1,0.3-0.1,0.4-0.2c0,0,0,0,0,0C52.9,30.1,52.8,30.2,52.6,30.2C52.6,30.2,52.6,30.2,52.6,30.2
		z"/>
	<path class="fern-two" d="M73.1,74c0.3,3.1-0.9,5.8-2.7,8.2C71.5,79.6,72.7,76.9,73.1,74L73.1,74z"/>
	<path class="fern-two" d="M68.5,84.6c-0.4,1.1-1.3,1.7-2.2,2.3C66.8,85.9,67.6,85.2,68.5,84.6L68.5,84.6z"/>
	<path class="fern-two" d="M68.5,84.6c0.3-0.5,0.4-1.1,1.1-1.3C69.6,84.1,69.1,84.4,68.5,84.6C68.5,84.6,68.5,84.6,68.5,84.6z"/>
	<path class="fern-two" d="M65.3,88c-0.1-0.1-0.1-0.2-0.1-0.3c0-0.1,0.2-0.2,0.2-0.2c0.1,0,0.1,0.1,0.2,0.2C65.5,87.8,65.4,87.9,65.3,88z
		"/>
	<path class="fern-two" d="M73,74c0-0.1,0-0.3,0-0.4C73,73.7,73.1,73.9,73,74C73.1,74,73,74,73,74z"/>
	<path class="fern-two" d="M72.9,72.6c0-0.2,0-0.5,0-0.7c0,0,0.1,0,0.1,0C73,72,73,72.3,72.9,72.6C73,72.5,72.9,72.6,72.9,72.6z"/>
	<path class="fern-two" d="M73,72.5c0,0,0,0.1,0,0.1c0,0-0.1,0-0.1,0C73,72.6,72.9,72.6,73,72.5C72.9,72.6,73,72.5,73,72.5z"/>
	<path class="fern-two" d="M79.8,49.5c-5.1,0-9.5-1.9-13.8-4.3C70.4,47.6,75,48.8,79.8,49.5z"/>
	<path class="fern-two" d="M82.3,49.7c-0.4,0.2-0.7,0.4-1.2,0.1C81.5,49.2,81.9,49.5,82.3,49.7L82.3,49.7z"/>
	<path class="fern-two" d="M82.3,49.6c0.4-0.2,0.7-0.5,1.1,0C83.1,50.1,82.7,49.7,82.3,49.6C82.3,49.7,82.3,49.6,82.3,49.6z"/>
	<path class="fern-two" d="M34.8,68.9c-0.2-0.1-0.4-0.1-0.6-0.2C29,65.8,23.6,63.6,18,61.9c1.2-0.3,2.3,0.3,3.2,0.7
		c4.4,1.6,8.9,3.3,12.9,5.7C34.4,68.4,34.6,68.7,34.8,68.9z"/>
	<path class="fern-two" d="M53.6,42.9c-0.3-0.9-0.1-1.7,0.4-3C54.2,41.2,54,42,53.6,42.9L53.6,42.9z"/>
	<path class="fern-two" d="M53.6,46.4c-0.2-0.4-0.1-0.7,0.1-1c0,0,0,0,0,0C53.9,45.7,53.8,46.1,53.6,46.4L53.6,46.4z"/>
	<path class="fern-two" d="M53.7,42.8c0,0.1,0,0.3,0,0.4c0,0-0.1,0-0.1,0C53.6,43.1,53.6,43,53.7,42.8C53.6,42.9,53.7,42.8,53.7,42.8z"/>
	<path class="fern-two" d="M53.6,44.6c0-0.1,0-0.3-0.1-0.4c0,0,0.1,0,0.1,0C53.7,44.4,53.7,44.5,53.6,44.6C53.7,44.6,53.6,44.6,53.6,44.6
		z"/>
	<path class="fern-two" d="M53.7,44.6c0,0.2,0,0.5,0,0.7c0,0,0,0,0,0C53.7,45.1,53.6,44.9,53.7,44.6C53.6,44.6,53.7,44.6,53.7,44.6z"/>
	<path class="fern-two" d="M53.8,47.6c0-0.3,0-0.5,0-0.8c0,0,0,0,0,0c0,0.2,0.1,0.5,0.1,0.7L53.8,47.6z"/>
	<path class="fern-two" d="M53.9,47.6c0,0.2,0,0.5,0.1,0.7c0,0-0.1,0-0.1,0c0-0.2,0-0.5,0-0.7C53.8,47.6,53.9,47.6,53.9,47.6z"/>
	<path class="fern-two" d="M53.9,48.3c0,0,0,0.1,0,0.1c0,0-0.1,0-0.1,0c0,0,0-0.1-0.1-0.1C53.8,48.3,53.9,48.3,53.9,48.3z"/>
	<path class="fern-two" d="M53.6,46.4c0.1,0.1,0.1,0.3,0.2,0.4c0,0,0,0,0,0C53.7,46.7,53.6,46.6,53.6,46.4C53.6,46.4,53.6,46.4,53.6,46.4
		z"/>
	<path class="fern-two" d="M61.3,40c0.1-0.1,0.3-0.1,0.4-0.2c2,0.5,4,1,6,1.2c0.6,0,1.3,0.1,1.9,0.4l0,0C66.8,41.7,64,41.1,61.3,40z"/>
	<path class="fern-two" d="M69.7,41.4c0.4-0.2,0.7-0.5,1.1-0.1C70.4,41.8,70.1,41.5,69.7,41.4C69.7,41.4,69.7,41.4,69.7,41.4z"/>
	<path class="fern-two" d="M72.9,41.4c-0.4,0.2-0.7,0.5-1.1,0.1C72.2,40.9,72.6,41.3,72.9,41.4L72.9,41.4z"/>
	<path class="fern-two" d="M74.8,41.1c0.2,0,0.5,0,0.7,0C75.3,41.1,75.1,41.1,74.8,41.1L74.8,41.1z"/>
	<path class="fern-two" d="M72.9,41.4c0.2,0,0.5,0,0.7,0l0,0C73.4,41.3,73.2,41.3,72.9,41.4C72.9,41.4,72.9,41.4,72.9,41.4z"/>
	<path class="fern-two" d="M73.7,41.3C73.7,41.3,73.7,41.3,73.7,41.3C73.7,41.3,73.7,41.3,73.7,41.3L73.7,41.3z"/>
	<path class="fern-two" d="M74.8,41.1C74.8,41.1,74.8,41.1,74.8,41.1C74.8,41.1,74.8,41.1,74.8,41.1C74.8,41.1,74.8,41.1,74.8,41.1z"/>
	<polygon class="fern-two" points="75.6,41 75.7,41 75.7,41 	"/>
	<path class="fern-two" d="M16.6,16.3c-2.3,0.7-4.5,1.4-7.2,2.2c1.9-1.8,3.3-3.5,4.3-5.5c1.5,0.4,2.9-0.1,4.2-0.7
		C17.6,13.6,16.5,14.8,16.6,16.3z"/>
	<path class="fern-two" d="M12.5,4.9c0.7-0.8,1.3-0.4,2,0c1.5,0.8,3.1,1.3,4.4,2.6c0,0.2-0.3,0.2-0.5,0.3C16.5,6.6,14.8,5.2,12.5,4.9z"/>
	<path class="fern-two" d="M25.7,83.3c-0.2-0.1-0.3-0.2-0.5-0.3c1-1.8,2.2-3.3,4.5-3.4c0.2,0,0.4,0,0.6,0.1
		C28.3,80.2,27.1,81.8,25.7,83.3z"/>
	<path class="fern-two" d="M37.2,76.2c0.2,0,0.5-0.1,0.7,0.1c-0.2,0.1-0.3,0.2-0.5,0.3C37.4,76.5,37.3,76.4,37.2,76.2z"/>
	<path class="fern-two" d="M29.7,17.2c0-0.1-0.1-0.1-0.1-0.2c0,0,0.1,0,0.1,0c0.1,0.1,0.1,0.1,0.1,0.2C29.8,17.2,29.7,17.2,29.7,17.2z"/>
	<path class="fern-two" d="M53.7,69.8c-0.5-0.5-1.1-1-1.6-1.5c1.2-1.3,2.3-2.7,4.5-2.7C56.4,67.6,55.1,68.7,53.7,69.8z"/>
	<path class="fern-two" d="M30.7,19.9c-0.1-0.1-0.2-0.2-0.2-0.4c0,0,0.1-0.2,0.2-0.2c0.3,0,0.2,0.3,0.2,0.5
		C30.9,19.9,30.8,19.9,30.7,19.9z"/>
	<path class="fern-two" d="M21.5,71.5c0-0.3,0-0.7,0.1-1c1.1,0.2,2.1,0.3,3.2,0.5c1.1,0.2,1.9,0.7,2.2,1.8C25.3,71.8,23.5,71.4,21.5,71.5
		z"/>
	<path class="fern-two" d="M62.8,65.3c0.2,0.2,0.3,0.3,0.5,0.5c0.1,0.1,0.2,0.2,0.3,0.2c0,0,0,0,0,0c0.4,1.8,0.9,3.5,0.6,5.3
		c-0.5-0.1-1.1-0.3-1.6-0.4C62.9,69,62.7,67.2,62.8,65.3z"/>
	<path class="fern-two" d="M22.3,74.2c1,0.1,1.9,0.7,2.9,0.9C24.1,75.4,23.3,74.5,22.3,74.2z"/>
	<path class="fern-two" d="M53,72.3c0-0.1,0.1-0.2,0.1-0.4c0-0.3,0.1-0.6,0.1-1c0.6,0.3,0.9,0.8,0.9,1.5C53.6,72.7,53.3,72.4,53,72.3z"/>
	<path class="fern-two" d="M51.4,40.7c0.1,0.3,0.2,0.7,0.3,1c-0.4,0.8-0.5,1.7-1.3,2.2C49.7,42.5,50,41.6,51.4,40.7z"/>
	<path class="fern-two" d="M64.2,71.3c0.3-1.8-0.2-3.6-0.6-5.3c2,1.6,1.9,3.7,1.4,5.9C64.7,71.7,64.5,71.5,64.2,71.3z"/>
	<path class="fern-two" d="M24.3,52.2C24.3,52.2,24.3,52.3,24.3,52.2C24.3,52.3,24.3,52.2,24.3,52.2C24.3,52.2,24.3,52.2,24.3,52.2z"/>
	<path class="fern-two" d="M63.6,66c-0.1-0.1-0.2-0.2-0.3-0.2C63.4,65.9,63.5,65.9,63.6,66z"/>
	<path class="fern-two" d="M49.4,37.7c-1.4-0.2-0.9-1.3-1-2c-0.1-0.8,0.1-1.4,1.1-1.4C49.6,35.4,49.8,36.5,49.4,37.7z"/>
</g>
</svg>
