<?xml version="1.0" encoding="utf-8"?>
<!-- Generator: Adobe Illustrator 23.0.2, SVG Export Plug-In . SVG Version: 6.00 Build 0)  -->
<svg version="1.1" id="Layer_1" xmlns="http://www.w3.org/2000/svg" xmlns:xlink="http://www.w3.org/1999/xlink" x="0px" y="0px"
	 viewBox="0 0 129.5 38.5" style="enable-background:new 0 0 129.5 38.5;" xml:space="preserve">
<style type="text/css">
	.st0{fill:#231F20;}
</style>
<g>
	<path class="st0" d="M10.9,18c0-2.4,2.5-4.9,7-4.9c3.5,0,5.9,1.2,7.5,2.6c1.2-0.4,2.9-0.7,4.4-0.7c2.9,0,5.4,1.2,5.1,3.3
		c-0.4,3.2-6.4,4.6-10.2,5.1c-1.6,0.1-3.3,0.1-4.7,0c-3.1,4.6-6.7,7.3-8.5,8.5c0.7,0.1,2.1,0.5,4.2,1c1.3,0.3,3.1,0.6,4,0.6
		c2.9,0,5.1-0.6,7.8-3.2c0.1-0.1,0.4-0.3,0.5-0.2s-0.1,0.4-0.4,0.7c-3.2,3.2-5.2,4.7-8.3,4.7c-1.6,0-3.1-0.3-4.8-1s-3.6-1.4-4.3-1.6
		c-1.5,1.1-3.6,2.4-6.4,2.4c-2,0-2.9-0.4-2.9-1.1c0-1.6,4.2-2.7,7.1-2.7c1.2,0,2,0,2.6,0.1c2.4-2.4,3.6-6,5.7-8.8
		C13.4,22.2,10.9,20.5,10.9,18L10.9,18z M6.1,32.2c-1.5,0-3.2,0.8-3.1,1.8c0,0.5,0.6,0.8,1.5,0.8c1.6,0,3.7-1,5-2.1
		C8.4,32.4,7.3,32.2,6.1,32.2z M11.4,18.1c0,2.1,2.6,3.8,5.2,4.3c2.6-3.8,5.8-5.7,8-6.4c-1.3-0.9-3.5-1.9-6.9-1.9
		C13.6,14.1,11.4,15.9,11.4,18.1L11.4,18.1z M24.8,22.8c2.7-0.3,8-2,8.5-4.9c0.2-1.7-1.3-2.6-3.2-2.6c-1.3,0-2.9,0.5-3.9,1.2
		c0.3,0.4,0.6,0.9,0.8,1.5c0.3,1.1,0.2,1.8,0.1,1.8c-0.1,0,0-0.4-0.7-1.7c-0.2-0.5-0.6-0.9-0.9-1.1c-1.7,1.1-3.5,3.3-5.3,5.9
		C21.7,23.1,23.2,23,24.8,22.8z"/>
	<path class="st0" d="M37.6,32.8c0.6,0,1.2-0.3,1.8-0.8c0.9-0.6,1.6-1.3,2.1-1.7c0.3-0.3,0.5-0.4,0.6-0.3c0.1,0.1,0,0.3-0.2,0.5
		c-0.5,0.5-1.4,1.2-2.2,1.9c-0.7,0.5-1.4,0.8-2.1,0.8c-0.4,0-0.8-0.1-1-0.1c-1.7,1.3-4.1,2.1-6,2.1h0c-2.3,0-3.2-1-3.3-2.3
		c0-0.9,0.4-1.9,1.3-2.7l0,0c-0.2,0.2-0.6,0.5-0.8,0.7c-0.5,0.4-0.6,0.5-0.8,0.4c-0.1-0.1,0.1-0.3,0.3-0.6c0.4-0.4,1-0.9,1.6-1.3
		c0.5-0.3,1.2-0.8,2-1.2c1.6-0.9,3.8-1.7,5.8-1.7c2,0,3.2,1,3.1,2.4c-0.1,1.1-1.1,2.6-2.6,3.9C37.1,32.8,37.4,32.8,37.6,32.8z
		 M30.9,34.7c1,0,2.7-1.1,4.1-2.5c-0.5-0.4-0.9-1-1.1-1.7c-0.1-0.7,0-1.6,0.5-2.2l0,0c-0.3,0.3-0.7,0.6-1.2,1.1
		c-1.3,1.4-2.8,3.6-3,4.6C30.1,34.4,30.4,34.7,30.9,34.7L30.9,34.7z M37.4,29.2c0.2-0.4,0.5-1.1,0.4-1.6c0-0.3-0.3-0.6-0.8-0.6
		c-0.5,0-1.1,0.1-1.5,0.5c-0.9,0.7-1.4,1.9-1.2,3c0.1,0.7,0.5,1.2,1,1.6C36.4,30.9,37.1,29.9,37.4,29.2z"/>
	<path class="st0" d="M44.1,35.2c-2.1,0-3.2-0.9-3.2-2.1c0-0.9,0.5-1.9,1.2-2.6l0,0c-0.1,0.1-0.5,0.4-0.6,0.6
		c-0.4,0.3-0.6,0.4-0.7,0.3c-0.1-0.1,0-0.3,0.3-0.6c0.6-0.6,1.1-1,1.7-1.3c0.5-0.4,1.6-1.1,2.4-1.5c1.5-0.8,3.5-1.5,5.1-1.4
		c1.5,0,2.2,0.8,2,1.8c-0.2,1-1,1.8-1.8,1.8c-1,0-1.1-0.8-0.6-1.6c0.6-1.1,0.9-1.4,0.4-1.5c-0.5-0.1-1.6,0.6-3,2
		c-1.3,1.3-2.5,3.1-2.7,4.2c-0.1,0.7,0.3,1.1,1.1,1.1c0.6,0,2.3-0.3,4.4-1.7c0.9-0.6,2-1.5,2.8-2.2c0.3-0.3,0.5-0.3,0.6-0.2
		c0.1,0.1,0,0.3-0.5,0.7c-0.6,0.5-1.7,1.5-2.7,2.1C48.6,34.2,46.1,35.2,44.1,35.2L44.1,35.2z"/>
	<path class="st0" d="M66.5,26.6c1.3,0,1.5,0.2,1,0.8c-0.9,1-1.6,1.9-2.6,3.2c-0.6,0.8-1.4,1.8-1.6,2.3c-0.2,0.4-0.2,0.8,0,1
		c0.2,0.2,0.7,0,1.1-0.1c0.5-0.2,1.3-0.8,2.1-1.4c1-0.8,1.8-1.5,2.3-2c0.2-0.1,0.5-0.4,0.6-0.3c0.1,0.1-0.2,0.5-0.5,0.8
		c-0.6,0.6-1.9,1.7-2.8,2.4c-1.7,1.3-3,2-4.5,2c-1.1,0-1.8-0.4-1.9-1.1c-0.1-0.6,0.2-1.2,0.5-1.7l0,0c-1.2,1.1-3.5,2.9-5.8,2.9
		c-1.5,0-2.6-0.4-2.6-1.9c0-0.8,0.5-1.7,1.5-2.7l0,0c0,0-0.4,0.3-0.5,0.4c-0.3,0.3-0.5,0.4-0.6,0.3c-0.1-0.1,0-0.3,0.4-0.7
		c0.5-0.5,1.2-1,1.7-1.3c0.9-0.6,1.8-1.1,3-1.7c1.4-0.6,3.1-1.2,4.7-1.1c1.3,0,1.7,0.9,1.5,1.6C64.7,26.8,65,26.6,66.5,26.6z
		 M62.1,27c-0.9,0-2.7,1.4-4.4,3.1c-1.8,1.8-2.7,3.2-2.6,3.8c0,0.3,0.3,0.5,0.6,0.5c0.9,0,2.7-1.1,4-2.2c1.5-1.3,3.3-3.5,3.3-4.2
		C63.1,27.2,62.7,27,62.1,27L62.1,27z"/>
	<path class="st0" d="M75.4,33.2c-1,0.7-2.8,2.1-5,2.1h0c-1.4,0-1.9-0.7-1.9-1.4c0-1.1,0.8-2.6,2.4-4.7c-0.7,0.6-1.5,1.4-2.1,1.8
		c-0.3,0.3-0.5,0.4-0.7,0.3c-0.1-0.1,0-0.3,0.3-0.6c1.3-1.1,2.8-2.5,3.7-3.4c-0.5,0-1.1,0-1.7,0c-0.4,0-0.6,0-0.6-0.2
		s0.6-0.3,1.2-0.3c0.6,0,1.1,0,1.4,0c1.3-1.5,2.5-2.9,3.2-3.6c1.2-1.3,2.1-2.2,3.3-3.3c-2.4,1.4-9.7,0.4-17.8-7.3
		c-6.1-5.8-11.1-11-20.9-11c-6.5,0-12.4,3.9-12.4,10.6c0,5.5,4.9,9.7,10.2,10.2c0.3,0,0.6,0,0.6,0.2s-0.4,0.2-0.7,0.2
		c-5.6-0.2-11.9-4.2-11.9-10.5C26.3,4.9,33.8,1,41.3,1c10.2,0,16.3,5.1,22.4,10.6c8.5,7.6,12.7,9.2,16,7.4c1-0.9,1.8-1.5,3.1-1.5
		c0.7,0,1.2,0.2,1.3,0.3c-1.3,1.2-3.6,3.7-4.9,5.3c-1.1,1.3-2,2.3-2.9,3.5c1.1,0,1.9,0,2.7,0c0.3,0,0.8,0,0.7,0.3
		c0,0.2-0.5,0.2-0.9,0.2c-1,0-1.8,0-2.9,0c-1,1.1-2.7,3.7-3.5,5.3c-0.2,0.5-0.4,1.1-0.1,1.3c0.2,0.1,0.8,0,1.3-0.2
		c0.6-0.3,1.3-0.8,2.1-1.4s1.6-1.3,2.3-2c0.3-0.2,0.5-0.4,0.7-0.3c0.1,0.1,0,0.2-0.2,0.5C77.7,31.2,76.4,32.4,75.4,33.2z"/>
	<path class="st0" d="M79.9,29.3c-0.7,0.6-1.4,1.1-1.9,1.6c-0.4,0.3-0.6,0.5-0.7,0.3c-0.1-0.1,0-0.3,0.4-0.7
		c0.5-0.4,2.1-1.8,3.4-2.7c1.2-0.9,2.4-1.3,3.8-1.3c1.6,0,1.9,0.2,1.3,0.8c-1.1,1.2-1.8,2-2.7,3.2c-0.8,1-1.3,1.8-1.6,2.3
		c-0.3,0.6-0.3,0.9-0.1,1.1c0.2,0.1,0.6,0,1.1-0.2c0.5-0.2,1.3-0.8,2.1-1.4c1-0.8,1.5-1.2,2.2-1.9c0.3-0.3,0.5-0.5,0.7-0.3
		c0.1,0.1-0.2,0.4-0.4,0.7c-0.6,0.6-1.9,1.8-2.8,2.4c-1.4,1-2.9,2.1-4.8,2.1c-1.4,0-1.9-0.6-1.9-1.3c0-0.6,0.3-1.3,0.7-1.8
		c1-1.6,3.2-4,3.9-4.4C81.9,27.8,81,28.5,79.9,29.3z M89.3,20.1c0.9,0,1.2,0.7,0.5,1.6c-0.8,1-2.3,1.7-2.9,1.7
		c-0.3-0.4-0.4-1.4,0-2.1C87.3,20.3,88.2,20.1,89.3,20.1L89.3,20.1z"/>
	<path class="st0" d="M97.3,32.8c0.6,0,1.2-0.3,1.8-0.8c0.9-0.6,1.6-1.3,2.1-1.7c0.3-0.3,0.5-0.4,0.6-0.3c0.1,0.1,0,0.3-0.2,0.5
		c-0.5,0.5-1.4,1.2-2.2,1.9c-0.7,0.5-1.3,0.8-2.1,0.9c-0.4,0-0.9-0.1-1.1-0.2c-1.9,1.3-4.3,2.1-6,2.1h0c-2.3,0-3.3-0.9-3.3-2.2
		c0-0.9,0.4-1.9,1.3-2.8l0,0c-0.2,0.2-0.6,0.5-0.8,0.7c-0.5,0.4-0.6,0.5-0.8,0.4c-0.1-0.1,0.1-0.3,0.3-0.6c0.4-0.4,1-0.9,1.6-1.3
		c0.5-0.3,1.2-0.8,2-1.2c1.6-0.9,3.5-1.5,5.1-1.6c1.4-0.1,2.5,0,3.2,0.5c0.5,0.5,0.8,1.2,0.7,1.9c-0.1,1.1-1.2,2.6-2.7,3.8
		C96.8,32.8,97.1,32.8,97.3,32.8z M90.7,34.7c1,0,2.8-1.3,4.2-2.7c1.2-1.2,2.2-2.9,2.5-4c0.1-0.3,0.1-0.8-0.1-1
		c-0.2-0.3-0.8-0.2-1.1-0.1c-1.1,0.5-2.2,1.5-3.4,2.7c-1.5,1.4-2.6,3.2-2.7,4.2C89.9,34.4,90.1,34.7,90.7,34.7L90.7,34.7z"/>
	<path class="st0" d="M114.8,33.4c-0.3,0.6-0.2,0.9-0.1,1.1s0.5,0.3,0.9,0.3c1.7,0,3.2-0.5,4.6-1.2c1.8-0.9,3.8-2.6,5-4.2
		c1-1.3,1.9-3.2,1.9-5.4c0-4.2-2.8-5.8-5.9-5.7c-0.8,0-1.7,0.2-2.1,0.4c-0.2,0.1-0.4,0.2-0.5,0.1c0-0.1,0.1-0.2,0.4-0.4
		c0.5-0.2,1.4-0.5,2.3-0.5c3.6-0.1,7.6,1.4,7.6,6.1c0,2.6-1.6,4.6-2.7,5.9c-1.4,1.6-3.4,3-5.8,4.2c-1.3,0.7-3.5,1.3-5.7,1.3h0
		c-2.1,0-3.4-0.6-3.2-2c0.1-1,0.8-1.8,1.7-3c0.7-0.8,1.4-1.7,2-2.3c0.2-0.2,0.2-0.5,0-0.6c-0.3-0.1-0.8,0-1.4,0.3
		c-0.9,0.5-2.2,1.3-3.5,2.3c-2.2,1.6-3.4,2.6-5.4,4.2c-0.5,0.4-1,0.5-2,0.6c-1.2,0-1.5-0.1-1.2-0.8c0.4-0.8,1.3-2.1,2.2-3.2
		c0.7-1,1.4-1.8,2-2.6c0.2-0.3,0.3-0.6,0.1-0.7c-0.1-0.1-0.4,0-0.7,0.1c-0.5,0.2-1.1,0.8-1.8,1.2c-0.7,0.5-1.4,1.1-2.1,1.8
		c-0.4,0.4-0.7,0.5-0.8,0.4c0-0.1,0-0.3,0.5-0.7c0.6-0.6,1.6-1.5,2.5-2.1c1-0.8,2.7-2,4.2-2c1.3,0,1.7,0.5,1.7,1.2
		c0,0.7-0.5,1.4-1,2.1c-0.7,1-1.5,2-2.2,2.8l0.1,0c1-0.8,2.7-2.2,4.5-3.5c1.6-1.2,3.9-2.7,6-2.7c1.3,0,2,0.5,1.9,1.4
		c-0.1,0.9-1,2-1.8,2.9C115.9,31.8,115.1,32.7,114.8,33.4z"/>
</g>
</svg>
