<?xml version="1.0" encoding="utf-8"?>
<svg version="1.1" id="Layer_1" xmlns="http://www.w3.org/2000/svg" xmlns:xlink="http://www.w3.org/1999/xlink" x="0px" y="0px"
	 viewBox="0 0 234 148" style="enable-background:new 0 0 234 148;" xml:space="preserve">
<style type="text/css">
	.logo-color{fill:inherit;}
</style>
<g>
	<g>
		<path class="logo-color" d="M37.5,42.4l4.4-1.1V9.1l-4.4-1.1V6.4l14.8-0.1c11.8-0.1,15.2,3.4,15.2,8.3c0,5.3-5,7.9-10.8,8.9v0.1
			c7.5,0.3,13.5,3.3,13.5,9.9c0,7-6.2,10.5-17.1,10.5L37.5,44V42.4z M49.6,23.2c7.1-0.5,10.3-2.9,10.3-7.6c0-4.8-4-7.5-10.3-7.5
			V23.2z M49.6,24.9v14.5c0.7,1.5,2.9,2.8,5.3,2.8c4.5,0,7.1-2.7,7.1-7.6c0-5.4-3.9-9.2-8.3-9.7H49.6z"/>
		<path class="logo-color" d="M72.6,42.4l3.5-1V21.9l-3.5-2.2v-0.8l9.7-3.1h0.3l0.3,7.4h0.2l0.7-1.5c2.4-4.6,4.1-5.9,6.7-5.9
			c2,0,3.8,1.3,3.8,3.6c0,2.2-1.4,3.6-3.8,4.2l-3.5-2.1c-1,0.3-2.8,2.1-3.7,4.5v15.5l4.7,1V44H72.6V42.4z"/>
		<path class="logo-color" d="M95.3,30.9c0-8.5,6.5-15.1,14.5-15.1c8.6,0,14.5,5.6,14.5,13.9c0,8.6-6.3,15.2-14.5,15.2
			C100.5,44.9,95.3,38.2,95.3,30.9z M103,27.9c0,7.4,2.7,14.9,7.8,14.9c3.7,0,5.9-4.2,5.9-10.4c0-8.7-3.3-14.8-7.8-14.8
			C104.5,17.7,103,23,103,27.9z"/>
		<path class="logo-color" d="M128.1,30.9c0-8.5,6.5-15.1,14.5-15.1c8.6,0,14.5,5.6,14.5,13.9c0,8.6-6.3,15.2-14.5,15.2
			C133.3,44.9,128.1,38.2,128.1,30.9z M135.8,27.9c0,7.4,2.7,14.9,7.8,14.9c3.7,0,5.9-4.2,5.9-10.4c0-8.7-3.3-14.8-7.8-14.8
			C137.3,17.7,135.8,23,135.8,27.9z"/>
		<path class="logo-color" d="M162.9,8l-3.3-2v-1l10.5-3.3v39.7l3.3,1V44h-13.9v-1.6l3.5-1V8z M178.9,41.6l-8.4-11.9l10.4-9.9l-4.2-1.7
			v-1.5h12.2V18l-4,1.4l-8.4,7.2l13.1,16.8c0,0-1.9,1.4-4.4,1.4C182.2,44.8,180.4,43.6,178.9,41.6z"/>
		<path class="logo-color" d="M190.7,30.7c0-8.4,6.7-14.9,13.6-14.9c6.6,0,10.1,4.1,11,11.6h-18.2v0.5c0,7.4,4.5,11.6,10,11.6
			c3.4,0,6.1-1.9,7.8-3.2l0.9,0.8c-2.4,3.5-6.1,7.6-12.3,7.6C195.3,44.8,190.7,38.2,190.7,30.7z M197.2,25.5h10.5
			c-0.5-4.6-2.2-7.5-5.2-7.5C199.8,18,197.7,20.6,197.2,25.5z"/>
		<path class="logo-color" d="M16.1,90.5c0.2-1.8,1.7-4.5,5.5-7.2c2.5-1.8,6.8-3.6,9.3-3.2c1.5,0.2,2,1.6,1.6,2.9c1.8-1.9,3.1-2.9,4.3-2.9
			c1.6-0.1,1.7,0.3,1,1.2c-1,1.1-2.7,3-4.2,5c-1,1.2-2,2.5-2.7,3.7c-0.5,0.9-0.5,1.5-0.2,1.7c0.4,0.3,1.1,0,1.7-0.3
			c0.8-0.4,2.2-1.4,3.4-2.4c1.6-1.3,2.8-2.4,3.6-3.1c0.5-0.4,0.8-0.8,1.1-0.5s-0.2,0.6-1,1.4c-1,0.9-2.8,2.5-4.2,3.6
			c-1.5,1.2-4,3-6.5,3c-1.4,0-2.1-0.7-2.2-1.6c-0.1-0.8,0.4-1.9,1.1-2.7l-0.1-0.1c-2,1.7-5.5,4.2-8.3,4.4
			C17.5,93.6,15.8,93,16.1,90.5z M23.6,85.6c-3.1,3-4.4,5-4.2,6c0.1,0.5,0.5,0.8,1,0.8c1.4,0,4.3-1.7,6.4-3.6
			c2.4-2.1,5.2-5.4,5.2-6.6c0.1-1-0.5-1.4-1.4-1.4C29,80.8,26.3,82.9,23.6,85.6z"/>
		<path class="logo-color" d="M52.8,91.5c0.1-1.7,1.7-3.6,3.2-5.3c1.1-1.4,2.3-2.7,3.2-3.7c0.3-0.4,0.5-0.8,0.1-1.1c-0.4-0.2-1.2,0.1-2,0.5
			c-1.4,0.7-3.5,2-5.9,3.9c-3.3,2.6-5.2,4.3-8.5,6.9c-0.7,0.5-1.1,0.7-2,0.7c-1.1,0-1.6-0.2-1-1.2c0.5-1,2.1-3.5,3.3-5.1
			c0.8-1.1,2.2-2.9,3-3.9c0.5-0.7,0.7-1.1,0.5-1.3c-0.2-0.3-0.7-0.2-1.1,0.1c-0.9,0.5-2,1.3-3,2c-1,0.8-2.2,1.9-3.3,2.9
			c-0.8,0.7-1.1,0.9-1.3,0.7c-0.2-0.2,0.2-0.6,1.1-1.4c0.9-0.8,2.6-2.4,3.9-3.5c2-1.6,3.6-2.5,5.2-2.5c1.4,0,1.9,0.8,1.9,1.7
			c0,0.9-0.6,1.9-1.6,3.3c-1.1,1.5-2.7,3.6-3.6,4.8l0.1,0.1c1.8-1.5,4.3-3.7,7-5.7c2.7-2,6-4.1,8.3-4.1c1.6,0,2.5,0.8,2.4,2
			c-0.2,1.4-1.8,3.1-3,4.6c-1.2,1.4-2.1,2.7-2.5,3.3c-0.6,1-0.6,1.4-0.3,1.7c0.4,0.3,1.2,0,1.8-0.3c0.9-0.5,2-1.1,3.6-2.4
			c1.3-1,2.8-2.4,3.6-3.1c0.6-0.5,0.8-0.6,1-0.5s-0.1,0.5-0.6,1c-0.7,0.7-3,2.7-4.6,3.9c-1.5,1.1-4.5,3-6.8,3
			C53.7,93.5,52.8,92.8,52.8,91.5z"/>
		<path class="logo-color" d="M84,71.2c-7.4,0.6-14.7,1.2-24,1.5c-19.6,0.6-32.2,0.1-41.9-2.9C5.2,65.9-0.9,58.5,0,50.1
			c1.3-11.8,15.5-19.6,33.4-19.6c15.9,0,28.6,3.7,37.8,10.1C83,48.8,87.7,59.9,87.1,70.2c5.2-0.4,10.5-0.8,16.5-0.9
			c35.4-1.1,63.2,11.2,58.6,41.4c-3.6,23.7-26.9,36.1-54.2,35.7c-16.9-0.2-31.1-8-34.7-16.5c-0.4-0.8-0.5-1.1-0.2-1.2
			s0.3,0.2,0.8,1.1c4.5,8.6,18,15.2,34.4,15.5c26.9,0.5,49.5-11.9,52.5-34.7c3.5-27.2-23.8-41.3-57-40.4C97.4,70.3,92.1,70.7,87,71
			c-0.2,2.2-0.5,4.2-1,5.9c-1.6,6.2-4.4,10.2-7.2,12.7c-2.3,2-5.8,4.1-9.4,4.1c-2.2,0-3.7-1.2-3.7-3.3c0-2,1-3.6,2.3-5l-0.1-0.1
			c-0.5,0.4-1,0.8-1.7,1.4c-0.7,0.6-1,0.8-1.2,0.7c-0.2-0.2-0.1-0.4,0.2-0.7c0.7-0.7,1.9-1.7,2.8-2.3c1.5-1.1,3-2,4.7-2.8
			c1.3-0.6,4.4-2,6.6-1.7c1.5,0.2,2,1.8,1.7,3C82.6,79.6,83.5,75.2,84,71.2z M84,70.4c0.7-10.4-3.9-20.8-14.1-28.5
			c-8.3-6.2-21.4-10.7-36.5-10.7c-17.3,0-29.7,7.8-31,18.7c-0.8,8.4,3,15.2,16,19.1c9,2.7,23.7,3.6,41.5,3
			C68.1,71.7,75.8,71,84,70.4z M77,88.3c1.2-1.4,3.1-4.5,3.1-6.1c0-0.8-0.2-1.4-1.2-1.4c-1.8,0-4.5,2.4-6.1,4.2
			c-2,2-3.9,5.2-3.9,6.7c0,1,0.6,1.2,1.2,1.2C72.3,92.9,75.1,90.5,77,88.3z"/>
		<path class="logo-color" d="M111.4,91.3l4.4-1V58.2l-4.4-1.1v-1.6l17.9-0.1c12.7,0.3,21.7,7.1,21.7,18.1c0,11.5-9.3,19.8-25.2,19.7
			L111.4,93V91.3z M123.5,89.2c1.3,1.3,3.8,2,6.3,1.9c7.6-0.1,12.7-7,12.7-16.4c0-12.1-8.6-18.2-19.1-17.8V89.2z"/>
		<path class="logo-color" d="M154.7,87c0-4.6,3.2-6.7,9.6-8.3l5.5-1.4v-3.8c-0.1-3.7-1.9-6.3-4.9-6.3c-1.3,0-2.3,0.4-2.9,0.8l-0.2,6.2
			c-0.8,0.3-1.9,0.5-3.1,0.5c-1.9,0-3.2-1-3.2-2.8c0-3.1,5.7-7.1,12.5-7.1c5.9,0,8.9,2.6,8.9,8.6v15.1c0,1.5,0.5,1.9,1.9,1.9h2.4
			v1.1c0,0-3.8,2.2-6.6,2.2c-3.1,0-4.5-1.5-4.7-4.5h-0.3c-1.8,2.3-3.9,4.7-7.8,4.7C158.1,93.9,154.7,91.3,154.7,87z M169.7,87.5
			v-8.4l-3.7,1.2c-3.2,1-4.4,2.8-4.4,4.9c0,2.4,1.4,4.4,4.1,4.4C167.5,89.6,168.8,88.6,169.7,87.5z"/>
		<path class="logo-color" d="M193.1,93.9l-10-25.8l-2.9-0.9v-1.6h14.4v1.6l-3.7,0.9l5.7,16.4l0.5,1.5h0.1l0.6-1.6l5.7-16.2l-3.8-1.1v-1.5
			h9.5v1.6l-3.1,0.9l-9.9,25.8H193.1z"/>
		<path class="logo-color" d="M208.9,79.7c0-8.4,6.7-14.9,13.6-14.9c6.6,0,10.1,4.1,11,11.6h-18.2v0.5c0,7.4,4.5,11.6,10,11.6
			c3.4,0,6.1-1.9,7.8-3.2l0.9,0.8c-2.4,3.5-6.1,7.6-12.3,7.6C213.6,93.8,208.9,87.2,208.9,79.7z M215.4,74.5H226
			c-0.5-4.6-2.2-7.5-5.2-7.5C218,67,215.9,69.6,215.4,74.5z"/>
	</g>
	<g>
		<path class="logo-color" d="M37.5,42.4l4.4-1.1V9.1l-4.4-1.1V6.4l14.8-0.1c11.8-0.1,15.2,3.4,15.2,8.3c0,5.3-5,7.9-10.8,8.9v0.1
			c7.5,0.3,13.5,3.3,13.5,9.9c0,7-6.2,10.5-17.1,10.5L37.5,44V42.4z M49.6,23.2c7.1-0.5,10.3-2.9,10.3-7.6c0-4.8-4-7.5-10.3-7.5
			V23.2z M49.6,24.9v14.5c0.7,1.5,2.9,2.8,5.3,2.8c4.5,0,7.1-2.7,7.1-7.6c0-5.4-3.9-9.2-8.3-9.7H49.6z"/>
		<path class="logo-color" d="M72.6,42.4l3.5-1V21.9l-3.5-2.2v-0.8l9.7-3.1h0.3l0.3,7.4h0.2l0.7-1.5c2.4-4.6,4.1-5.9,6.7-5.9
			c2,0,3.8,1.3,3.8,3.6c0,2.2-1.4,3.6-3.8,4.2l-3.5-2.1c-1,0.3-2.8,2.1-3.7,4.5v15.5l4.7,1V44H72.6V42.4z"/>
		<path class="logo-color" d="M95.3,30.9c0-8.5,6.5-15.1,14.5-15.1c8.6,0,14.5,5.6,14.5,13.9c0,8.6-6.3,15.2-14.5,15.2
			C100.5,44.9,95.3,38.2,95.3,30.9z M103,27.9c0,7.4,2.7,14.9,7.8,14.9c3.7,0,5.9-4.2,5.9-10.4c0-8.7-3.3-14.8-7.8-14.8
			C104.5,17.7,103,23,103,27.9z"/>
		<path class="logo-color" d="M128.1,30.9c0-8.5,6.5-15.1,14.5-15.1c8.6,0,14.5,5.6,14.5,13.9c0,8.6-6.3,15.2-14.5,15.2
			C133.3,44.9,128.1,38.2,128.1,30.9z M135.8,27.9c0,7.4,2.7,14.9,7.8,14.9c3.7,0,5.9-4.2,5.9-10.4c0-8.7-3.3-14.8-7.8-14.8
			C137.3,17.7,135.8,23,135.8,27.9z"/>
		<path class="logo-color" d="M162.9,8l-3.3-2v-1l10.5-3.3v39.7l3.3,1V44h-13.9v-1.6l3.5-1V8z M178.9,41.6l-8.4-11.9l10.4-9.9l-4.2-1.7
			v-1.5h12.2V18l-4,1.4l-8.4,7.2l13.1,16.8c0,0-1.9,1.4-4.4,1.4C182.2,44.8,180.4,43.6,178.9,41.6z"/>
		<path class="logo-color" d="M190.7,30.7c0-8.4,6.7-14.9,13.6-14.9c6.6,0,10.1,4.1,11,11.6h-18.2v0.5c0,7.4,4.5,11.6,10,11.6
			c3.4,0,6.1-1.9,7.8-3.2l0.9,0.8c-2.4,3.5-6.1,7.6-12.3,7.6C195.3,44.8,190.7,38.2,190.7,30.7z M197.2,25.5h10.5
			c-0.5-4.6-2.2-7.5-5.2-7.5C199.8,18,197.7,20.6,197.2,25.5z"/>
		<path class="logo-color" d="M16.1,90.5c0.2-1.8,1.7-4.5,5.5-7.2c2.5-1.8,6.8-3.6,9.3-3.2c1.5,0.2,2,1.6,1.6,2.9c1.8-1.9,3.1-2.9,4.3-2.9
			c1.6-0.1,1.7,0.3,1,1.2c-1,1.1-2.7,3-4.2,5c-1,1.2-2,2.5-2.7,3.7c-0.5,0.9-0.5,1.5-0.2,1.7c0.4,0.3,1.1,0,1.7-0.3
			c0.8-0.4,2.2-1.4,3.4-2.4c1.6-1.3,2.8-2.4,3.6-3.1c0.5-0.4,0.8-0.8,1.1-0.5s-0.2,0.6-1,1.4c-1,0.9-2.8,2.5-4.2,3.6
			c-1.5,1.2-4,3-6.5,3c-1.4,0-2.1-0.7-2.2-1.6c-0.1-0.8,0.4-1.9,1.1-2.7l-0.1-0.1c-2,1.7-5.5,4.2-8.3,4.4
			C17.5,93.6,15.8,93,16.1,90.5z M23.6,85.6c-3.1,3-4.4,5-4.2,6c0.1,0.5,0.5,0.8,1,0.8c1.4,0,4.3-1.7,6.4-3.6
			c2.4-2.1,5.2-5.4,5.2-6.6c0.1-1-0.5-1.4-1.4-1.4C29,80.8,26.3,82.9,23.6,85.6z"/>
		<path class="logo-color" d="M52.8,91.5c0.1-1.7,1.7-3.6,3.2-5.3c1.1-1.4,2.3-2.7,3.2-3.7c0.3-0.4,0.5-0.8,0.1-1.1c-0.4-0.2-1.2,0.1-2,0.5
			c-1.4,0.7-3.5,2-5.9,3.9c-3.3,2.6-5.2,4.3-8.5,6.9c-0.7,0.5-1.1,0.7-2,0.7c-1.1,0-1.6-0.2-1-1.2c0.5-1,2.1-3.5,3.3-5.1
			c0.8-1.1,2.2-2.9,3-3.9c0.5-0.7,0.7-1.1,0.5-1.3c-0.2-0.3-0.7-0.2-1.1,0.1c-0.9,0.5-2,1.3-3,2c-1,0.8-2.2,1.9-3.3,2.9
			c-0.8,0.7-1.1,0.9-1.3,0.7c-0.2-0.2,0.2-0.6,1.1-1.4c0.9-0.8,2.6-2.4,3.9-3.5c2-1.6,3.6-2.5,5.2-2.5c1.4,0,1.9,0.8,1.9,1.7
			c0,0.9-0.6,1.9-1.6,3.3c-1.1,1.5-2.7,3.6-3.6,4.8l0.1,0.1c1.8-1.5,4.3-3.7,7-5.7c2.7-2,6-4.1,8.3-4.1c1.6,0,2.5,0.8,2.4,2
			c-0.2,1.4-1.8,3.1-3,4.6c-1.2,1.4-2.1,2.7-2.5,3.3c-0.6,1-0.6,1.4-0.3,1.7c0.4,0.3,1.2,0,1.8-0.3c0.9-0.5,2-1.1,3.6-2.4
			c1.3-1,2.8-2.4,3.6-3.1c0.6-0.5,0.8-0.6,1-0.5s-0.1,0.5-0.6,1c-0.7,0.7-3,2.7-4.6,3.9c-1.5,1.1-4.5,3-6.8,3
			C53.7,93.5,52.8,92.8,52.8,91.5z"/>
		<path class="logo-color" d="M84,71.2c-7.4,0.6-14.7,1.2-24,1.5c-19.6,0.6-32.2,0.1-41.9-2.9C5.2,65.9-0.9,58.5,0,50.1
			c1.3-11.8,15.5-19.6,33.4-19.6c15.9,0,28.6,3.7,37.8,10.1C83,48.8,87.7,59.9,87.1,70.2c5.2-0.4,10.5-0.8,16.5-0.9
			c35.4-1.1,63.2,11.2,58.6,41.4c-3.6,23.7-26.9,36.1-54.2,35.7c-16.9-0.2-31.1-8-34.7-16.5c-0.4-0.8-0.5-1.1-0.2-1.2
			s0.3,0.2,0.8,1.1c4.5,8.6,18,15.2,34.4,15.5c26.9,0.5,49.5-11.9,52.5-34.7c3.5-27.2-23.8-41.3-57-40.4C97.4,70.3,92.1,70.7,87,71
			c-0.2,2.2-0.5,4.2-1,5.9c-1.6,6.2-4.4,10.2-7.2,12.7c-2.3,2-5.8,4.1-9.4,4.1c-2.2,0-3.7-1.2-3.7-3.3c0-2,1-3.6,2.3-5l-0.1-0.1
			c-0.5,0.4-1,0.8-1.7,1.4c-0.7,0.6-1,0.8-1.2,0.7c-0.2-0.2-0.1-0.4,0.2-0.7c0.7-0.7,1.9-1.7,2.8-2.3c1.5-1.1,3-2,4.7-2.8
			c1.3-0.6,4.4-2,6.6-1.7c1.5,0.2,2,1.8,1.7,3C82.6,79.6,83.5,75.2,84,71.2z M84,70.4c0.7-10.4-3.9-20.8-14.1-28.5
			c-8.3-6.2-21.4-10.7-36.5-10.7c-17.3,0-29.7,7.8-31,18.7c-0.8,8.4,3,15.2,16,19.1c9,2.7,23.7,3.6,41.5,3
			C68.1,71.7,75.8,71,84,70.4z M77,88.3c1.2-1.4,3.1-4.5,3.1-6.1c0-0.8-0.2-1.4-1.2-1.4c-1.8,0-4.5,2.4-6.1,4.2
			c-2,2-3.9,5.2-3.9,6.7c0,1,0.6,1.2,1.2,1.2C72.3,92.9,75.1,90.5,77,88.3z"/>
		<path class="logo-color" d="M111.4,91.3l4.4-1V58.2l-4.4-1.1v-1.6l17.9-0.1c12.7,0.3,21.7,7.1,21.7,18.1c0,11.5-9.3,19.8-25.2,19.7
			L111.4,93V91.3z M123.5,89.2c1.3,1.3,3.8,2,6.3,1.9c7.6-0.1,12.7-7,12.7-16.4c0-12.1-8.6-18.2-19.1-17.8V89.2z"/>
		<path class="logo-color" d="M154.7,87c0-4.6,3.2-6.7,9.6-8.3l5.5-1.4v-3.8c-0.1-3.7-1.9-6.3-4.9-6.3c-1.3,0-2.3,0.4-2.9,0.8l-0.2,6.2
			c-0.8,0.3-1.9,0.5-3.1,0.5c-1.9,0-3.2-1-3.2-2.8c0-3.1,5.7-7.1,12.5-7.1c5.9,0,8.9,2.6,8.9,8.6v15.1c0,1.5,0.5,1.9,1.9,1.9h2.4
			v1.1c0,0-3.8,2.2-6.6,2.2c-3.1,0-4.5-1.5-4.7-4.5h-0.3c-1.8,2.3-3.9,4.7-7.8,4.7C158.1,93.9,154.7,91.3,154.7,87z M169.7,87.5
			v-8.4l-3.7,1.2c-3.2,1-4.4,2.8-4.4,4.9c0,2.4,1.4,4.4,4.1,4.4C167.5,89.6,168.8,88.6,169.7,87.5z"/>
		<path class="logo-color" d="M193.1,93.9l-10-25.8l-2.9-0.9v-1.6h14.4v1.6l-3.7,0.9l5.7,16.4l0.5,1.5h0.1l0.6-1.6l5.7-16.2l-3.8-1.1v-1.5
			h9.5v1.6l-3.1,0.9l-9.9,25.8H193.1z"/>
		<path class="logo-color" d="M208.9,79.7c0-8.4,6.7-14.9,13.6-14.9c6.6,0,10.1,4.1,11,11.6h-18.2v0.5c0,7.4,4.5,11.6,10,11.6
			c3.4,0,6.1-1.9,7.8-3.2l0.9,0.8c-2.4,3.5-6.1,7.6-12.3,7.6C213.6,93.8,208.9,87.2,208.9,79.7z M215.4,74.5H226
			c-0.5-4.6-2.2-7.5-5.2-7.5C218,67,215.9,69.6,215.4,74.5z"/>
	</g>
</g>
</svg>
