<?xml version="1.0" standalone="no"?>
<!DOCTYPE svg PUBLIC "-//W3C//DTD SVG 1.1//EN" "http://www.w3.org/Graphics/SVG/1.1/DTD/svg11.dtd" >
<svg xmlns="http://www.w3.org/2000/svg" xmlns:xlink="http://www.w3.org/1999/xlink" version="1.1">
<metadata>
Created by FontForge 20150526 at Sun Oct 15 10:35:25 2017
 By David Newman

</metadata>
<defs>
<font id="LyonDisplay-MediumItalic" horiz-adv-x="557" >
  <font-face 
    font-family="Lyon Display Medium"
    font-weight="500"
    font-style="italic"
    font-stretch="normal"
    units-per-em="1024"
    panose-1="2 0 6 3 8 0 0 9 0 4"
    ascent="778"
    descent="-246"
    x-height="508"
    cap-height="680"
    bbox="-208.024 -268 1403.03 1112"
    underline-thickness="51.2"
    underline-position="-102.4"
    slope="-12"
    stemh="34"
    stemv="131"
    unicode-range="U+0020-FB04"
  />
<missing-glyph horiz-adv-x="159" 
 />
    <glyph glyph-name="f_b" unicode="fb" horiz-adv-x="831" 
d="M481 -18c-51 0 -111 17 -158 64l-11 10l156 624c-25 33 -52 43 -72 43c-50 0 -97 -45 -134 -228h102l-13 -46h-98l-72 -370c-43 -222 -180 -336 -289 -336c-38 0 -77 25 -77 63c0 37 28 65 66 77c27 -59 56 -90 80 -90c28 0 45 39 64 140l101 516h-93l8 46h95
c42 135 181 274 310 274c28 0 54 -11 72 -25l93 23l-121 -473h5c67 119 157 215 236 215c53 0 94 -48 91 -137c-4 -155 -141 -390 -341 -390zM453 125l-20 -64c8 -24 30 -48 64 -48c89 0 186 211 190 334c2 47 -13 67 -32 67c-69 0 -176 -201 -202 -289z" />
    <glyph glyph-name="f_f" unicode="ff" horiz-adv-x="629" 
d="M33 449l8 46h103c53 122 177 235 294 235c42 0 82 -23 104 -49c60 54 130 88 191 88c59 0 100 -35 100 -67c-1 -37 -37 -66 -68 -81c-31 56 -60 98 -100 98c-36 0 -81 -49 -119 -224h120l-11 -46h-118l-67 -344c-46 -233 -190 -332 -281 -332c-37 0 -68 26 -68 61
c0 29 20 56 58 70c25 -56 50 -81 72 -81c23 0 41 27 63 138l95 488h-156l-72 -370c-43 -222 -180 -336 -289 -336c-38 0 -77 25 -77 63c0 37 28 65 66 77c27 -59 56 -90 80 -90c28 0 45 39 64 139l97 493c1 7 3 16 5 24h-94zM420 495c13 43 34 83 61 119
c-29 47 -65 71 -94 71c-45 0 -89 -39 -125 -190h158z" />
    <glyph glyph-name="f_f_b" unicode="ffb" horiz-adv-x="1115" 
d="M764 -18c-50 0 -112 17 -159 64l-9 10l156 624c-26 33 -52 43 -72 43c-50 0 -97 -45 -134 -228h99l-10 -46h-98l-67 -341c-46 -234 -190 -335 -281 -335c-37 0 -68 26 -68 61c0 29 20 56 58 70c25 -56 50 -81 72 -81c23 0 41 28 63 139l95 487h-156l-72 -370
c-43 -222 -180 -336 -289 -336c-38 0 -77 25 -77 63c0 37 28 65 66 77c27 -59 56 -90 80 -90c28 0 45 39 64 139l97 493c1 7 3 16 5 24h-95l9 46h103c53 122 177 235 294 235c41 0 81 -22 103 -48c56 52 123 87 188 87c28 0 55 -11 73 -25l93 23l-122 -473h5
c66 119 158 215 237 215c53 0 94 -48 91 -137c-4 -155 -141 -390 -342 -390zM735 125l-18 -64c7 -24 29 -48 63 -48c89 0 186 211 191 334c2 47 -14 67 -33 67c-68 0 -177 -201 -203 -289zM419 495c13 41 34 81 62 119c-29 47 -65 71 -94 71c-45 0 -89 -39 -125 -190h157z
" />
    <glyph glyph-name="f_f_h" unicode="ffh" horiz-adv-x="1139" 
d="M899 767l-123 -483h8c59 112 152 225 241 225c53 0 82 -33 59 -117l-80 -298h4c30 22 64 63 91 101l23 -11c-55 -110 -143 -196 -206 -196c-35 0 -60 26 -42 92l84 299c7 25 2 36 -12 36c-50 0 -170 -164 -217 -330l-20 -75l-111 -25l-14 15l172 675
c-27 37 -56 48 -76 48c-50 0 -97 -45 -134 -228h99l-10 -46h-98l-67 -343c-45 -234 -190 -333 -281 -333c-37 0 -68 26 -68 61c0 29 20 56 58 70c25 -56 50 -81 72 -81c23 0 41 28 63 139l95 487h-156l-72 -370c-43 -222 -180 -336 -289 -336c-38 0 -77 25 -77 63
c0 37 28 65 66 77c27 -59 56 -90 80 -90c28 0 45 39 64 139l97 493c1 7 3 16 5 24h-95l9 46h103c53 122 177 235 294 235c41 0 81 -22 103 -48c56 52 123 87 188 87c29 0 55 -12 74 -26zM419 495c13 41 34 81 62 119c-29 47 -64 71 -95 71c-44 0 -88 -39 -124 -190h157z" />
    <glyph glyph-name="f_f_i" unicode="ffi" horiz-adv-x="857" 
d="M32 449l9 46h103c53 122 177 235 294 235c41 0 81 -22 103 -48c59 53 133 87 213 87c61 0 109 -34 109 -73c0 -35 -26 -63 -69 -75c-32 56 -76 97 -113 97c-32 0 -90 -17 -135 -223h238l36 15h18l-114 -416h4c30 22 68 69 93 106l25 -10c-52 -108 -141 -202 -208 -202
c-37 0 -61 27 -43 93l102 368h-160l-67 -343c-45 -227 -185 -333 -281 -333c-37 0 -68 26 -68 61c0 29 20 56 58 70c25 -56 50 -81 72 -81c25 0 43 37 62 137l96 489h-156l-72 -370c-43 -222 -180 -336 -289 -336c-38 0 -77 25 -77 63c0 37 28 65 66 77
c27 -59 56 -90 80 -90c28 0 45 39 64 139l97 493c1 7 3 16 5 24h-95zM420 495c13 43 34 84 61 121c-29 46 -64 69 -94 69c-45 0 -89 -39 -125 -190h158z" />
    <glyph glyph-name="f_f_j" unicode="ffj" horiz-adv-x="838" 
d="M33 449l8 46h103c53 122 177 235 294 235c41 0 81 -22 103 -48c59 53 133 87 213 87c61 0 109 -34 109 -73c0 -35 -26 -63 -69 -75c-32 56 -76 97 -113 97c-32 0 -90 -17 -135 -223h237l34 15h18l-85 -397c-47 -215 -177 -312 -271 -312c-32 0 -69 22 -69 62
c0 24 16 51 58 69c24 -56 52 -79 70 -79c25 0 38 35 62 147l97 449h-160l-67 -343c-47 -241 -194 -333 -281 -333c-37 0 -68 26 -68 61c0 29 20 56 58 70c24 -56 50 -81 72 -81c23 0 40 29 62 137l96 489h-156l-72 -370c-43 -222 -180 -336 -289 -336c-38 0 -77 25 -77 63
c0 37 28 65 66 77c27 -59 56 -90 80 -90c28 0 45 39 64 139l97 493c1 7 3 16 5 24h-94zM420 495c13 43 33 83 61 120c-29 47 -64 70 -94 70c-45 0 -89 -39 -125 -190h158z" />
    <glyph glyph-name="f_f_k" unicode="ffk" horiz-adv-x="1107" 
d="M999 -42c-57 0 -77 13 -125 75l-113 147c-16 -36 -30 -73 -39 -109l-15 -62l-109 -24l-14 15l172 675c-27 37 -56 48 -76 48c-50 0 -97 -45 -134 -228h99l-10 -46h-98l-67 -341c-47 -240 -192 -335 -281 -335c-37 0 -68 26 -68 61c0 29 20 56 58 70c24 -58 52 -81 72 -81
c24 0 41 29 63 139l95 487h-156l-72 -370c-43 -222 -180 -336 -289 -336c-38 0 -77 25 -77 63c0 37 28 65 66 77c27 -59 56 -90 80 -90c28 0 45 39 64 139l97 493c1 7 3 16 5 24h-94l8 46h103c53 122 177 235 294 235c41 0 81 -22 103 -48c56 52 123 87 188 87
c29 0 55 -12 74 -26l96 24l-123 -481h6c61 113 145 223 238 223c46 0 79 -33 79 -84c0 -83 -83 -153 -222 -214l187 -225v-11c-10 -7 -33 -17 -65 -17zM419 495c13 41 34 81 62 119c-29 47 -64 71 -94 71c-45 0 -89 -39 -125 -190h157zM963 420c-51 0 -141 -109 -198 -232
c147 62 231 135 231 193c0 25 -11 39 -33 39z" />
    <glyph glyph-name="f_f_l" unicode="ffl" horiz-adv-x="863" 
d="M33 449l8 46h103c53 122 177 235 294 235c41 0 81 -22 103 -48c56 52 123 87 188 87c29 0 56 -12 74 -26l92 24l-167 -673h4c34 25 63 61 91 101l24 -11c-54 -115 -144 -196 -205 -196c-38 0 -59 26 -43 92l94 369h-156l-67 -343c-47 -240 -194 -333 -281 -333
c-37 0 -68 26 -68 61c0 29 20 56 58 70c24 -56 50 -81 72 -81c23 0 41 32 63 138l95 488h-156l-72 -370c-43 -222 -180 -336 -289 -336c-38 0 -77 25 -77 63c0 37 28 65 66 77c27 -59 56 -90 80 -90c28 0 45 39 64 139l97 493c1 7 3 16 5 24h-94zM680 723
c-51 0 -97 -45 -134 -228h159l47 184c-26 34 -53 44 -72 44zM419 495c13 41 34 81 62 119c-29 47 -63 71 -94 71c-45 0 -89 -39 -125 -190h157z" />
    <glyph glyph-name="f_f_t" unicode="fft" horiz-adv-x="929" 
d="M597 67l95 382h-155l-67 -344c-43 -222 -184 -332 -281 -332c-31 0 -68 22 -68 61c0 30 21 56 58 70c26 -57 52 -81 72 -81c23 0 39 28 59 137l99 489h-156l-72 -370c-43 -222 -180 -336 -289 -336c-38 0 -77 25 -77 63c0 37 28 65 66 77c27 -59 56 -90 80 -90
c28 0 45 39 64 139l96 493c1 7 3 16 5 24h-93l8 46h102c53 122 178 235 295 235c42 0 82 -23 104 -49c62 55 134 88 188 88c46 0 75 -26 75 -60c0 -33 -36 -62 -67 -72c-26 55 -44 84 -70 84c-39 0 -88 -55 -122 -226h164l93 141h52l-31 -141h132l-9 -48h-131l-89 -358h3
c50 24 116 101 146 142l23 -15c-59 -100 -154 -228 -253 -228c-36 0 -60 31 -49 79zM420 495c14 44 35 84 61 120c-29 47 -65 70 -94 70c-45 0 -89 -39 -125 -190h158z" />
    <glyph glyph-name="f_h" unicode="fh" horiz-adv-x="857" 
d="M615 767l-121 -483h7c60 112 151 225 240 225c53 0 84 -33 61 -117l-81 -298h3c31 22 65 63 92 101l24 -11c-53 -108 -143 -196 -206 -196c-36 0 -60 26 -43 92l85 299c7 25 1 36 -13 36c-50 0 -171 -164 -217 -330l-21 -75l-111 -25l-14 15l172 676
c-27 36 -56 47 -76 47c-50 0 -98 -51 -134 -228h102l-12 -46h-99l-72 -370c-43 -222 -180 -336 -289 -336c-38 0 -77 25 -77 63c0 37 28 65 66 77c27 -59 56 -90 80 -90c28 0 45 39 64 140l101 516h-93l8 46h96c42 135 180 274 309 274c28 0 55 -12 73 -26z" />
    <glyph glyph-name="f_i" unicode="fi" horiz-adv-x="574" 
d="M33 449l8 46h96c45 145 177 274 333 274c62 0 110 -34 110 -73c0 -35 -27 -63 -69 -75c-32 56 -77 97 -114 97c-32 0 -90 -17 -135 -223h239l36 15h17l-113 -416h4c30 22 69 69 93 106l25 -10c-53 -108 -141 -202 -208 -202c-37 0 -61 27 -43 93l103 368h-162l-72 -370
c-45 -232 -187 -336 -289 -336c-36 0 -77 24 -77 63c0 33 23 62 66 77c26 -58 53 -90 80 -90c30 0 46 45 64 139l101 517h-93z" />
    <glyph glyph-name="f_j" unicode="fj" horiz-adv-x="555" 
d="M312 -28l102 477h-161l-72 -370c-45 -232 -187 -336 -289 -336c-36 0 -77 24 -77 63c0 33 23 62 66 77c26 -58 53 -90 80 -90c30 0 46 45 64 139l101 517h-93l8 46h96c45 145 177 274 333 274c62 0 110 -34 110 -73c0 -35 -27 -63 -69 -75c-32 56 -77 97 -114 97
c-32 0 -90 -17 -135 -223h238l35 15h16l-90 -425c-44 -198 -168 -312 -272 -312c-35 0 -68 24 -68 61c0 27 18 54 58 70c23 -54 50 -81 68 -81c28 0 45 52 65 149z" />
    <glyph glyph-name="f_k" unicode="fk" horiz-adv-x="824" 
d="M716 -42c-56 0 -77 13 -125 75l-114 147c-16 -36 -30 -73 -39 -109l-15 -62l-109 -24l-14 14l172 677c-27 36 -56 47 -76 47c-50 0 -99 -55 -134 -228h100l-10 -46h-99l-72 -370c-43 -222 -180 -336 -289 -336c-38 0 -77 25 -77 63c0 37 28 65 66 77
c27 -59 56 -90 80 -90c28 0 45 39 64 140l101 516h-93l8 46h96c42 135 180 274 309 274c28 0 55 -12 73 -26l96 24l-122 -481h7c61 113 144 223 236 223c46 0 79 -33 79 -84c0 -83 -83 -153 -222 -214l187 -225v-11c-11 -7 -32 -17 -64 -17zM679 420
c-51 0 -141 -109 -198 -232c147 61 232 135 232 193c0 25 -12 39 -34 39z" />
    <glyph glyph-name="f_l" unicode="fl" horiz-adv-x="580" 
d="M563 184c-54 -115 -143 -196 -204 -196c-38 0 -60 26 -43 92l95 369h-158l-72 -370c-43 -222 -180 -336 -289 -336c-38 0 -77 25 -77 63c0 37 28 65 66 77c27 -59 56 -90 80 -90c28 0 45 39 64 140l101 516h-93l8 46h96c42 135 180 274 309 274c28 0 55 -12 73 -26l93 24
l-167 -673h4c35 25 63 61 92 101zM396 723c-50 0 -99 -56 -134 -228h160l47 184c-26 34 -53 44 -73 44z" />
    <glyph glyph-name="f_t" unicode="ft" horiz-adv-x="647" 
d="M315 67l95 382h-156l-73 -370c-43 -222 -179 -336 -287 -336c-39 0 -79 25 -79 63c0 37 28 65 66 77c28 -59 57 -90 80 -90c29 0 45 39 65 139l101 517h-93l8 46h95c54 187 223 274 310 274c46 0 75 -26 75 -60c0 -33 -35 -62 -66 -72c-26 55 -44 84 -71 84
c-39 0 -87 -55 -122 -226h164l93 141h53l-31 -141h132l-8 -48h-131l-91 -358h5c49 24 114 101 144 142l24 -15c-60 -100 -154 -228 -253 -228c-36 0 -61 31 -49 79z" />
    <glyph glyph-name=".notdef" horiz-adv-x="159" 
 />
    <glyph glyph-name="Eth" unicode="&#xd0;" horiz-adv-x="760" 
d="M-28 0l6 29l78 21l55 273h-92l9 38h90l54 268l-73 23l5 28l222 1c253 1 406 -108 406 -291c0 -251 -215 -397 -511 -393zM402 323h-154l-52 -266c22 -13 52 -22 91 -22c193 3 296 172 296 350c0 179 -111 261 -270 266l-57 -290h154z" />
    <glyph glyph-name="eth" unicode="&#xf0;" horiz-adv-x="534" 
d="M153 559l-14 32l145 67c-28 33 -61 65 -98 97l16 21c55 -27 103 -56 144 -89l139 66l15 -32l-125 -58c92 -86 138 -193 136 -308c-5 -197 -123 -369 -310 -369c-116 0 -175 89 -171 203c5 155 124 319 295 319c16 0 31 -4 44 -11c-12 49 -34 93 -64 133zM203 14
c83 0 163 206 172 344c4 72 -10 121 -50 121c-84 0 -160 -223 -164 -351c-3 -68 5 -114 42 -114z" />
    <glyph glyph-name="Lslash" unicode="&#x141;" horiz-adv-x="585" 
d="M15 255l9 40l87 24l62 310l-73 23l5 28h295l-5 -29l-85 -22l-53 -269l215 61l-8 -41l-215 -61l-52 -265c11 -9 29 -16 62 -16h126l137 208h34l-77 -246h-507l6 29l78 21l46 229z" />
    <glyph glyph-name="lslash" unicode="&#x142;" horiz-adv-x="275" 
d="M-4 295l10 44l80 35l73 283l-72 53l4 12l215 45l-83 -333l89 40l-10 -43l-89 -40l-74 -297h4c35 25 63 61 91 101l24 -11c-54 -115 -143 -196 -204 -196c-38 0 -60 26 -43 92l64 250z" />
    <glyph glyph-name="Scaron" unicode="&#x160;" horiz-adv-x="558" 
d="M52 243h28l29 -182c31 -26 66 -42 114 -42c79 0 141 56 141 129c0 52 -21 87 -96 135l-44 28c-87 56 -113 99 -113 174c0 111 111 213 274 213c63 0 123 -20 168 -40l-44 -190h-26l-20 160c-30 20 -60 34 -101 34c-78 0 -129 -53 -129 -119c0 -50 20 -81 83 -122l54 -34
c86 -55 128 -96 128 -173c0 -146 -157 -233 -287 -233c-85 0 -159 32 -196 51zM519 892h46l-145 -147h-87l-81 147h42l94 -76z" />
    <glyph glyph-name="scaron" unicode="&#x161;" horiz-adv-x="363" 
d="M315 155c0 -78 -99 -171 -207 -171c-74 0 -123 48 -123 96c0 27 12 52 34 75h3c51 -70 105 -120 155 -120c24 0 44 18 44 42c0 26 -15 49 -40 76l-68 76c-45 50 -56 75 -55 107c2 90 119 175 207 175c59 0 103 -36 102 -80c-1 -29 -14 -48 -34 -73h-2
c-44 53 -94 96 -138 96c-24 0 -43 -17 -43 -40s10 -41 40 -74l66 -74c46 -52 59 -76 59 -111zM388 781h33l-135 -204h-62l-53 204h33l67 -117z" />
    <glyph glyph-name="Yacute" unicode="&#xdd;" horiz-adv-x="677" 
d="M669 631l-258 -362l-43 -220l69 -22l-5 -27h-286l7 28l76 21l41 207l-120 373l-61 23l6 28h295l-6 -29l-87 -22l95 -325l220 323l-90 25l6 28h205l-5 -29zM527 892h121v-12l-162 -135h-43z" />
    <glyph glyph-name="yacute" unicode="&#xfd;" horiz-adv-x="497" 
d="M37 278h-25c8 148 64 229 144 229c68 0 123 -78 125 -262c1 -87 -11 -181 -34 -251h7c75 106 156 223 154 353c0 48 -19 101 -51 140c19 13 47 23 69 23c30 0 60 -17 61 -83c4 -254 -368 -682 -550 -682c-43 0 -79 26 -79 74c-1 37 26 70 68 70c40 0 64 -31 80 -89h4
c114 51 153 247 153 390c0 144 -28 222 -60 222c-28 0 -47 -46 -66 -134zM365 781h111v-8l-157 -196h-29z" />
    <glyph glyph-name="Thorn" unicode="&#xde;" horiz-adv-x="619" 
d="M-28 0l6 29l79 21l116 579l-73 23l5 28h291l-5 -29l-81 -22l-21 -109l29 1c186 1 281 -69 281 -160c0 -141 -175 -199 -348 -193l5 29c139 10 208 72 208 151c0 76 -62 135 -181 141l-87 -439l72 -22l-7 -28h-289z" />
    <glyph glyph-name="thorn" unicode="&#xfe;" horiz-adv-x="528" 
d="M-48 -184l209 841l-70 53l3 12l215 45l-121 -473h5c67 119 157 215 236 215c53 0 94 -48 91 -137c-4 -155 -141 -389 -338 -389c-17 0 -49 4 -65 12l-48 -184l132 -7l-7 -38h-316l6 27zM147 114l-15 -57c12 -24 31 -43 64 -43c88 0 185 210 189 333c2 47 -14 67 -32 67
c-67 0 -179 -196 -206 -300z" />
    <glyph glyph-name="Zcaron" unicode="&#x17d;" horiz-adv-x="655" 
d="M-7 0l6 29l474 611h-265l-94 -176h-29l35 219l88 -3h451v-10l-489 -629h291l127 180h28l-69 -224l-89 3h-465zM546 892h46l-146 -147h-87l-80 147h42l94 -76z" />
    <glyph glyph-name="zcaron" unicode="&#x17e;" horiz-adv-x="486" 
d="M467 510l41 -36l-345 -323l92 -37c97 -40 132 -10 188 72l24 -11c-61 -135 -116 -193 -188 -193c-24 0 -49 7 -96 29l-112 52l-62 -80l-39 35l355 333l-124 47c-56 22 -93 28 -98 5c-7 -17 12 -40 66 -66c-18 -40 -45 -63 -80 -63c-32 0 -54 23 -54 58
c0 70 105 180 191 180c34 0 53 -7 119 -38l71 -34zM451 781h32l-135 -204h-61l-54 204h33l68 -117z" />
    <glyph glyph-name="onehalf" unicode="&#xbd;" horiz-adv-x="802" 
d="M614 125l-71 -46h206l-19 -79h-296l7 27l123 101c65 53 98 93 98 135c0 38 -27 65 -70 65c-29 0 -59 -19 -87 -57l-21 14c31 60 80 109 159 109c74 0 114 -50 115 -102c1 -74 -67 -118 -144 -167zM282 687l-75 -354l62 -12l-3 -22h-243l4 22l77 12l60 279l-82 -3v23
l189 55h11zM92 -84l-26 25l619 800l28 -22z" />
    <glyph glyph-name="onequarter" unicode="&#xbc;" horiz-adv-x="771" 
d="M489 20l54 12l13 61h-177l7 36l288 263l40 -7l-51 -234h67l-11 -58h-70l-13 -62l47 -11l-3 -20h-196zM282 687l-75 -354l62 -12l-3 -22h-243l4 22l77 12l60 279l-82 -3v23l189 55h11zM92 -84l-26 25l619 800l28 -22zM446 151h122l31 140z" />
    <glyph glyph-name="threequarters" unicode="&#xbe;" horiz-adv-x="794" 
d="M513 20l53 12l14 61h-178l8 36l287 263l40 -7l-51 -234h68l-12 -58h-69l-14 -62l48 -11l-4 -20h-195zM226 516l-1 -5c66 -5 107 -41 107 -89c1 -85 -105 -133 -192 -133c-65 0 -111 26 -111 62c0 19 14 42 48 47c25 -58 56 -84 92 -84c40 0 69 32 69 70
c-1 47 -44 85 -130 88l5 29c84 15 136 44 136 85c0 28 -20 48 -52 48c-33 0 -63 -20 -96 -57l-18 13c25 46 69 102 153 102c61 0 104 -30 104 -76c0 -51 -51 -81 -114 -100zM116 -84l-27 25l620 800l27 -22zM470 151h122l31 140z" />
    <glyph glyph-name="brokenbar" unicode="&#xa6;" horiz-adv-x="247" 
d="M151 321h-41l87 438h41zM46 -210h-42l87 437h41z" />
    <glyph glyph-name="minus" unicode="&#x2212;" horiz-adv-x="575" 
d="M523 226h-485v44h485v-44z" />
    <glyph glyph-name="multiply" unicode="&#xd7;" horiz-adv-x="575" 
d="M462 23l-193 193l-192 -194l-33 31l194 195l-191 192l34 33l190 -191l192 196l31 -33l-191 -194l193 -195z" />
    <glyph glyph-name="space" unicode=" " horiz-adv-x="159" 
 />
    <glyph glyph-name="exclam" unicode="!" horiz-adv-x="304" 
d="M162 720h147l-161 -517h-27zM114 -11c-42 0 -77 34 -77 76s35 76 77 76s76 -34 76 -76s-34 -76 -76 -76z" />
    <glyph glyph-name="quotedbl" unicode="&#x22;" horiz-adv-x="410" 
d="M134 475l-3 264h128l-104 -264h-21zM325 475l-3 264h128l-105 -264h-20z" />
    <glyph glyph-name="numbersign" unicode="#" horiz-adv-x="607" 
d="M119 408l8 42h123l59 158h42l-59 -158h152l60 158h42l-60 -158h123l-9 -42h-130l-73 -196h119l-9 -41h-125l-64 -171h-42l64 171h-153l-63 -171h-42l63 171h-119l9 41h126l73 196h-115zM275 408l-72 -196h152l74 196h-154z" />
    <glyph glyph-name="dollar" unicode="$" horiz-adv-x="551" 
d="M54 223h27l14 -155c22 -14 59 -36 103 -43l60 247l-32 15c-81 36 -127 84 -126 166c2 105 105 200 252 207l27 109h36l-27 -109c62 -2 113 -19 150 -31l-39 -178h-29l-16 141c-23 13 -48 25 -75 30l-57 -232l27 -11c112 -46 153 -96 152 -181
c-2 -130 -152 -211 -279 -216l-26 -110h-35l26 111c-70 5 -135 30 -170 43zM375 146c1 45 -24 79 -85 112l-58 -235c81 2 141 44 143 123zM214 510c-1 -44 19 -74 76 -104l53 217c-81 -4 -128 -53 -129 -113z" />
    <glyph glyph-name="percent" unicode="%" horiz-adv-x="843" 
d="M255 594c-53 0 -103 -105 -103 -207c0 -51 13 -84 45 -84c50 0 104 103 104 206c0 52 -15 85 -46 85zM728 645l-577 -696h-46l576 696h47zM196 275c-87 0 -140 63 -140 145c0 104 85 202 201 202c82 0 138 -62 138 -144c0 -103 -82 -203 -199 -203zM641 302
c-52 0 -103 -105 -103 -207c0 -51 14 -85 45 -85c50 0 104 104 104 206c0 52 -15 86 -46 86zM582 -17c-87 0 -140 63 -140 144c0 105 85 203 201 203c82 0 138 -63 138 -145c0 -102 -82 -202 -199 -202z" />
    <glyph glyph-name="ampersand" unicode="&#x26;" horiz-adv-x="922" 
d="M644 438c-37 24 -66 45 -103 45c-36 0 -57 -26 -57 -52c0 -40 35 -64 64 -84c-19 -32 -43 -53 -68 -53c-12 0 -48 5 -48 71c0 80 78 209 184 209c49 0 77 -21 115 -46c94 -60 110 -74 133 -73c23 0 35 20 35 46c-1 34 -14 73 -36 108c16 10 32 17 49 17
c33 -1 51 -20 51 -53c0 -96 -94 -205 -171 -205c-39 0 -65 15 -100 39c-32 -269 -163 -441 -371 -441c-152 0 -269 94 -269 262c0 177 136 331 246 331c31 0 51 -14 66 -40l148 212l39 -29l-404 -503c36 -67 108 -109 204 -109c165 0 271 134 313 335zM122 307
c0 -27 3 -52 11 -75l151 191c5 27 -13 61 -52 61c-51 0 -110 -63 -110 -177z" />
    <glyph glyph-name="quotesingle" unicode="'" horiz-adv-x="220" 
d="M134 475l-3 264h128l-104 -264h-21z" />
    <glyph glyph-name="parenleft" unicode="(" horiz-adv-x="340" 
d="M243 -184h-37c-90 113 -151 260 -126 439c19 183 144 365 304 495h43c-145 -146 -238 -307 -261 -520c-25 -167 2 -284 77 -414z" />
    <glyph glyph-name="parenright" unicode=")" horiz-adv-x="340" 
d="M92 750h37c92 -114 151 -261 126 -440c-19 -183 -146 -366 -305 -494h-42c145 146 238 306 261 519c25 167 -2 285 -77 415z" />
    <glyph glyph-name="asterisk" unicode="*" horiz-adv-x="392" 
d="M434 537l-131 -18l4 -135l-15 -3l-55 122l-127 -47l-8 13l101 91l-83 106l8 9l118 -63l75 110l11 -4l-25 -132l128 -34z" />
    <glyph glyph-name="plus" unicode="+" horiz-adv-x="575" 
d="M523 226h-219v-220h-47v220h-219v44h219v220h47v-220h219v-44z" />
    <glyph glyph-name="comma" unicode="," horiz-adv-x="289" 
d="M-32 -172l-10 26c82 40 136 81 136 138c0 39 -30 62 -69 66c-8 50 23 92 74 92c45 0 90 -37 90 -103c0 -83 -66 -166 -221 -219z" />
    <glyph glyph-name="hyphen" unicode="-" horiz-adv-x="372" 
d="M57 246l16 76h256l-15 -76h-257z" />
    <glyph glyph-name="period" unicode="." horiz-adv-x="263" 
d="M87 -11c-42 0 -77 34 -77 76s35 76 77 76c43 0 77 -34 77 -76s-34 -76 -77 -76z" />
    <glyph glyph-name="slash" unicode="/" horiz-adv-x="424" 
d="M-68 -211l-34 18l536 959l36 -20z" />
    <glyph glyph-name="zero" unicode="0" horiz-adv-x="627" 
d="M358 505c-88 0 -180 -170 -180 -339c0 -87 21 -153 92 -153c85 0 179 167 179 337c0 97 -33 155 -91 155zM265 -17c-135 0 -229 92 -229 238c0 170 143 315 325 315c139 0 230 -104 230 -235c0 -163 -128 -318 -326 -318z" />
    <glyph glyph-name="one" unicode="1" horiz-adv-x="411" 
d="M341 534l-96 -487l101 -19l-5 -28h-346l5 28l114 19l77 397l-131 -5l6 31l271 64h4z" />
    <glyph glyph-name="two" unicode="2" horiz-adv-x="479" 
d="M232 163l-91 -59h288l-29 -104h-397l7 38l94 79c158 133 198 185 198 242c0 50 -38 85 -85 85c-44 0 -81 -20 -125 -65l-19 14c33 70 95 146 193 146s158 -63 158 -144c0 -89 -58 -146 -192 -232z" />
    <glyph glyph-name="three" unicode="3" horiz-adv-x="423" 
d="M-44 -234l-8 25c139 50 263 134 263 245c0 68 -52 107 -135 107h-13l7 45l46 23c77 37 145 82 145 156c0 47 -35 79 -80 79c-36 0 -71 -14 -116 -59l-20 14c55 96 113 138 193 138c84 0 142 -55 142 -130c0 -73 -52 -128 -142 -172l-53 -26c91 -12 157 -64 157 -149
c0 -140 -146 -231 -386 -296z" />
    <glyph glyph-name="four" unicode="4" horiz-adv-x="612" 
d="M253 -198l43 218h-302l7 49l480 462h37l-83 -417h130l-17 -94h-131l-43 -218h-121zM94 114h220l52 258z" />
    <glyph glyph-name="five" unicode="5" horiz-adv-x="409" 
d="M193 59c0 71 -31 138 -137 227l94 228l251 14l-21 -116l-246 -12l-6 -13c147 -100 199 -183 199 -284c0 -172 -164 -279 -370 -336l-9 25c118 50 245 130 245 267z" />
    <glyph glyph-name="six" unicode="6" horiz-adv-x="588" 
d="M635 706c-156 -63 -319 -173 -404 -328h3c38 45 88 64 138 64c96 0 176 -70 176 -192c0 -130 -107 -270 -288 -270c-140 0 -220 97 -220 226c0 291 340 471 588 524zM315 392c-41 0 -72 -22 -101 -56c-23 -53 -36 -113 -36 -176c0 -103 29 -150 84 -150
c82 0 142 129 142 245c0 73 -28 137 -89 137z" />
    <glyph glyph-name="seven" unicode="7" horiz-adv-x="501" 
d="M42 -214l-54 34l406 577h-337l25 124h431v-7l-381 -583z" />
    <glyph glyph-name="eight" unicode="8" horiz-adv-x="540" 
d="M20 132c0 111 107 168 194 204l-12 12c-57 54 -79 99 -79 155c0 99 91 194 230 194c125 0 190 -59 190 -135c0 -89 -91 -146 -175 -190l20 -19c57 -54 97 -103 97 -175c0 -116 -130 -198 -252 -198c-121 0 -213 46 -213 152zM273 279l-41 38c-57 -42 -90 -100 -90 -173
s38 -129 108 -129c55 0 110 38 110 110c0 54 -20 89 -87 154zM244 555c0 -50 19 -84 65 -128l38 -36c50 50 84 104 84 167c0 57 -33 108 -89 108c-54 0 -98 -40 -98 -111z" />
    <glyph glyph-name="nine" unicode="9" horiz-adv-x="590" 
d="M-52 -185c180 78 332 183 410 326h-4c-32 -37 -68 -66 -134 -66c-92 0 -178 67 -178 203c0 122 108 260 294 260c126 0 215 -91 215 -221c0 -287 -314 -464 -596 -527zM274 121c40 0 73 26 101 57c25 56 38 119 38 187c0 90 -24 143 -81 143c-85 0 -147 -127 -147 -241
c0 -84 31 -146 89 -146z" />
    <glyph glyph-name="colon" unicode=":" horiz-adv-x="263" 
d="M87 -11c-42 0 -77 34 -77 76s35 76 77 76s77 -34 77 -76s-35 -76 -77 -76zM157 343c-42 0 -76 34 -76 76s34 77 76 77c43 0 77 -35 77 -77s-34 -76 -77 -76z" />
    <glyph glyph-name="semicolon" unicode=";" horiz-adv-x="285" 
d="M169 343c-42 0 -76 34 -76 76s34 77 76 77c43 0 78 -35 78 -77s-35 -76 -78 -76zM-33 -172l-10 26c81 40 136 81 136 138c0 39 -30 62 -69 66c-8 50 23 92 74 92c45 0 90 -37 90 -103c0 -83 -66 -166 -221 -219z" />
    <glyph glyph-name="less" unicode="&#x3c;" horiz-adv-x="582" 
d="M532 443l-422 -196l422 -195v-49l-483 227v35l483 227v-49z" />
    <glyph glyph-name="equal" unicode="=" horiz-adv-x="575" 
d="M531 305h-485v43h485v-43zM531 161h-485v43h485v-43z" />
    <glyph glyph-name="greater" unicode="&#x3e;" horiz-adv-x="582" 
d="M49 51l424 196l-424 195v50l485 -228v-35l-485 -226v48z" />
    <glyph glyph-name="question" unicode="?" horiz-adv-x="417" 
d="M132 582l25 137l47 -14c104 -33 202 -122 202 -244c0 -101 -57 -149 -146 -165l-114 -22l-25 -71h-31l28 177l163 23c56 8 84 26 84 60c0 60 -90 97 -199 114zM81 -11c-42 0 -77 34 -77 76s35 76 77 76c43 0 77 -34 77 -76s-34 -76 -77 -76z" />
    <glyph glyph-name="at" unicode="@" horiz-adv-x="963" 
d="M515 159l11 38h-3l-27 -42c-43 -65 -107 -132 -167 -132c-52 0 -81 40 -81 90c0 173 176 361 308 361c20 0 45 -8 64 -18l12 34h85l-90 -317c-24 -84 -3 -113 41 -113c68 0 186 94 186 281c0 167 -123 298 -302 298c-204 0 -422 -177 -422 -457c0 -206 146 -322 337 -322
c75 0 134 18 159 28v-18c-16 -10 -111 -48 -195 -48c-233 0 -390 122 -390 336c0 295 285 518 546 518c213 0 339 -139 339 -314c0 -198 -166 -343 -313 -343c-82 0 -125 51 -98 140zM397 105c45 0 138 139 170 237l22 68c-15 18 -34 32 -52 32c-77 0 -169 -170 -168 -298
c0 -27 10 -39 28 -39z" />
    <glyph glyph-name="A" unicode="A" horiz-adv-x="718" 
d="M-44 0l6 29l69 19l371 636l38 7l49 8l97 -648l65 -23l-6 -28h-289l5 29l86 21l-24 179h-232l-98 -177l101 -24l-6 -28h-232zM377 562l-157 -280h196l-38 280h-1z" />
    <glyph glyph-name="B" unicode="B" horiz-adv-x="638" 
d="M243 -2l-271 2l6 29l78 21l117 579l-73 23l5 28l233 1c198 2 261 -68 261 -147c0 -101 -106 -160 -225 -174v-4c124 -8 212 -67 212 -157c0 -134 -131 -203 -343 -201zM446 182c0 104 -83 153 -194 157l-52 -262c12 -33 49 -48 90 -48c78 0 156 58 156 153zM314 654
l-56 -281l61 3c85 9 146 64 146 147c0 81 -58 130 -151 131z" />
    <glyph glyph-name="C" unicode="C" horiz-adv-x="733" 
d="M379 -17c-186 0 -324 104 -324 299c0 216 197 415 470 415c82 0 150 -28 203 -57l-29 -188h-24l-35 154c-35 34 -74 54 -129 54c-136 0 -298 -141 -298 -399c0 -155 84 -242 188 -242c51 0 92 16 124 40l110 174h27l-56 -204c-51 -18 -131 -46 -227 -46z" />
    <glyph glyph-name="D" unicode="D" horiz-adv-x="760" 
d="M314 651l-118 -594c22 -13 52 -22 91 -22c193 3 296 172 296 350c0 179 -110 261 -269 266zM-28 0l6 29l78 21l117 579l-73 23l5 28l221 1c253 2 406 -108 406 -291c0 -251 -215 -397 -511 -393z" />
    <glyph glyph-name="E" unicode="E" horiz-adv-x="616" 
d="M369 338h-115l-57 -284c11 -8 28 -16 62 -16h152l124 181h30l-66 -219h-527l6 29l78 21l117 579l-73 23l5 28h437l74 2l-30 -198h-29l-38 159h-207l-51 -267h116l52 96h29l-46 -238h-32z" />
    <glyph glyph-name="F" unicode="F" horiz-adv-x="580" 
d="M369 325h-119l-54 -275l88 -22l-4 -28h-308l6 29l78 21l117 579l-73 23l5 28h419l84 2l-33 -206h-29l-36 167h-197l-55 -277h119l53 100h29l-48 -247h-30z" />
    <glyph glyph-name="G" unicode="G" horiz-adv-x="755" 
d="M211 262c-1 -157 79 -243 175 -243c58 0 110 28 121 86l28 141l-101 20l6 32h289l-6 -32l-55 -20l-39 -201c-69 -28 -155 -63 -269 -63c-174 0 -305 127 -305 305c0 215 185 410 466 410c88 0 151 -27 210 -55l-34 -190h-25l-35 161c-29 29 -70 47 -122 47
c-137 0 -304 -139 -304 -398z" />
    <glyph glyph-name="H" unicode="H" horiz-adv-x="776" 
d="M398 0l5 29l83 21l57 284h-292l-55 -284l72 -22l-5 -28h-291l6 29l78 21l116 579l-73 23l5 28h292l-6 -29l-81 -22l-50 -254h292l50 255l-74 22l5 28h292l-6 -29l-79 -21l-114 -580l71 -22l-5 -28h-293z" />
    <glyph glyph-name="I" unicode="I" horiz-adv-x="347" 
d="M-28 0l6 29l78 21l117 579l-73 23l5 28h289l-5 -29l-79 -21l-115 -580l71 -22l-5 -28h-289z" />
    <glyph glyph-name="J" unicode="J" horiz-adv-x="356" 
d="M319 630l-113 -572c-32 -161 -106 -249 -306 -279l-5 22c118 57 148 132 172 246l114 583l-82 22l5 28h299l-5 -29z" />
    <glyph glyph-name="K" unicode="K" horiz-adv-x="704" 
d="M-28 0l6 29l78 21l116 579l-72 23l5 28h295l-5 -29l-85 -22l-114 -578l72 -23l-4 -28h-292zM663 28l-6 -28c-218 -22 -223 -8 -396 358v1l333 270l-81 21l4 30h219l-5 -30l-77 -21l-274 -219c170 -346 192 -359 283 -382z" />
    <glyph glyph-name="L" unicode="L" horiz-adv-x="585" 
d="M196 53c12 -8 30 -15 62 -15h127l137 208h34l-77 -246h-507l6 29l78 21l116 579l-72 23l5 28h295l-5 -29l-85 -22z" />
    <glyph glyph-name="M" unicode="M" horiz-adv-x="910" 
d="M-37 0l6 29l80 21l153 576l-74 26l5 28h220l91 -464l262 432l13 32h216l-5 -29l-79 -21l-84 -580l72 -22l-5 -28h-291l5 29l83 21l79 529l-285 -469l-45 -83h-36l-11 82l-100 479l-133 -537l89 -22l-4 -29h-222z" />
    <glyph glyph-name="N" unicode="N" horiz-adv-x="720" 
d="M562 -7h-53l-310 556l-90 -497l88 -24l-6 -28h-219l6 29l79 21l109 549c-16 23 -41 38 -60 45l-17 8l5 28h190l271 -484l77 432l-87 24l5 28h218l-5 -29l-79 -21l-98 -496z" />
    <glyph glyph-name="O" unicode="O" horiz-adv-x="790" 
d="M466 698c147 0 293 -108 293 -314c0 -191 -158 -404 -415 -404c-143 0 -289 107 -289 313c0 195 159 405 411 405zM608 454c0 101 -43 210 -143 210c-160 0 -260 -235 -260 -433c0 -108 40 -218 142 -218c167 0 261 239 261 441z" />
    <glyph glyph-name="P" unicode="P" horiz-adv-x="632" 
d="M278 294l5 29c108 8 203 58 203 175c0 87 -61 144 -173 154l-118 -602l89 -22l-5 -28h-307l6 29l78 21l116 579l-72 23l5 28l257 2c162 -5 267 -71 267 -175c0 -143 -157 -223 -351 -213z" />
    <glyph glyph-name="Q" unicode="Q" horiz-adv-x="790" 
d="M466 698c147 0 292 -108 292 -314c0 -168 -121 -351 -324 -393c104 -87 183 -151 291 -151c55 0 106 15 171 52l11 -18c-50 -43 -137 -105 -253 -105c-150 0 -252 88 -416 232c-100 39 -182 137 -182 292c0 195 158 405 410 405zM609 454c0 105 -43 210 -143 210
c-161 0 -261 -234 -261 -433c0 -106 39 -218 142 -218c168 0 262 239 262 441z" />
    <glyph glyph-name="R" unicode="R" horiz-adv-x="700" 
d="M-28 0l6 29l78 21l116 579l-72 23l5 28l252 1c160 1 264 -58 264 -155c0 -101 -94 -152 -191 -177c126 -288 140 -299 229 -321l-5 -28c-212 -20 -212 -7 -345 312h-65l-51 -261l88 -23l-6 -28h-303zM311 652l-60 -307c154 5 229 75 229 171c0 78 -53 137 -169 136z" />
    <glyph glyph-name="S" unicode="S" horiz-adv-x="558" 
d="M52 243h28l29 -182c31 -26 66 -42 114 -42c79 0 141 56 141 129c0 52 -21 87 -96 135l-44 28c-87 56 -113 99 -113 174c0 111 111 213 274 213c63 0 123 -20 168 -40l-44 -190h-26l-20 160c-30 20 -60 34 -101 34c-78 0 -129 -53 -129 -119c0 -50 20 -81 83 -122l54 -34
c86 -55 128 -96 128 -173c0 -146 -157 -233 -287 -233c-85 0 -159 32 -196 51z" />
    <glyph glyph-name="T" unicode="T" horiz-adv-x="685" 
d="M204 680h435l80 5l-47 -202h-28l-20 157h-144l-118 -590l80 -22l-5 -28h-305l5 29l87 21l118 590h-139l-84 -157h-29l36 202z" />
    <glyph glyph-name="U" unicode="U" horiz-adv-x="739" 
d="M338 -23c-176 0 -280 93 -235 318l67 334l-71 23l4 28h296l-6 -29l-85 -22l-72 -368c-27 -138 32 -214 140 -214c103 0 188 60 218 237l60 342l-86 24l4 30h223l-5 -30l-80 -22l-69 -357c-33 -170 -120 -294 -303 -294z" />
    <glyph glyph-name="V" unicode="V" horiz-adv-x="675" 
d="M250 -9l-107 639l-58 22l5 28h283l-6 -29l-83 -23l72 -483l260 484l-85 23l6 28h202l-6 -29l-57 -19l-370 -641h-56z" />
    <glyph glyph-name="W" unicode="W" horiz-adv-x="975" 
d="M586 -9l-59 449l-247 -449h-63l-72 638l-58 22l5 29h278l-6 -29l-79 -24l45 -474l188 358l-15 118l-52 23l5 28h272l-5 -29l-83 -23l56 -470l224 471l-82 23l5 28h194l-6 -29l-57 -19l-325 -641h-63z" />
    <glyph glyph-name="X" unicode="X" horiz-adv-x="727" 
d="M-31 29l76 17l267 281l-134 302l-68 23l6 28h302l-6 -29l-84 -22l90 -216h3l191 214l-89 25l5 28h227l-6 -29l-74 -22l-241 -255l143 -324l74 -22l-6 -28h-308l5 29l85 21l-98 237h-2l-214 -239l95 -20l-6 -28h-239z" />
    <glyph glyph-name="Y" unicode="Y" horiz-adv-x="677" 
d="M669 631l-258 -362l-43 -220l69 -22l-5 -27h-286l7 28l76 21l41 207l-120 373l-61 23l6 28h295l-6 -29l-87 -22l95 -325l220 323l-90 25l6 28h205l-5 -29z" />
    <glyph glyph-name="Z" unicode="Z" horiz-adv-x="655" 
d="M-7 0l6 29l474 611h-265l-94 -176h-29l35 219l88 -3h451v-10l-489 -629h291l127 180h28l-69 -224l-89 3h-465z" />
    <glyph glyph-name="bracketleft" unicode="[" horiz-adv-x="324" 
d="M212 -185h-200l186 936h198l-8 -37h-99l-168 -862h99z" />
    <glyph glyph-name="backslash" unicode="\" horiz-adv-x="443" 
d="M372 -204l-38 -7l-214 969l39 8z" />
    <glyph glyph-name="bracketright" unicode="]" horiz-adv-x="317" 
d="M112 751h198l-185 -936h-198l8 37h99l169 862h-100z" />
    <glyph glyph-name="asciicircum" unicode="^" horiz-adv-x="456" 
d="M122 479h-44l219 295h28l118 -295h-43l-102 222z" />
    <glyph glyph-name="underscore" unicode="_" horiz-adv-x="417" 
d="M-75 -220l8 43h389l-8 -43h-389z" />
    <glyph glyph-name="grave" unicode="`" horiz-adv-x="267" 
d="M135 781h112l23 -204h-27l-108 195v9z" />
    <glyph glyph-name="a" unicode="a" 
d="M446 529h89l-119 -436h4c31 22 65 64 91 102l25 -11c-53 -111 -142 -196 -205 -196c-49 0 -56 48 -41 92l46 133h-7c-56 -92 -147 -229 -236 -229c-49 0 -88 31 -88 108c0 187 197 408 348 408c28 0 51 -7 70 -17zM165 79c51 0 167 173 209 302l16 50
c-14 19 -34 33 -57 33c-87 0 -189 -198 -194 -337c-1 -39 12 -48 26 -48z" />
    <glyph glyph-name="b" unicode="b" horiz-adv-x="525" 
d="M174 -18c-50 0 -111 17 -158 64l-10 10l151 601l-71 53l4 12l214 45l-121 -473h5c66 119 157 215 237 215c53 0 93 -48 91 -137c-4 -155 -141 -390 -342 -390zM145 125l-18 -64c4 -24 28 -48 58 -48c97 0 191 211 196 334c1 47 -14 67 -33 67c-68 0 -177 -201 -203 -289z
" />
    <glyph glyph-name="c" unicode="c" horiz-adv-x="436" 
d="M274 453c-61 0 -120 -162 -121 -291c-1 -63 22 -89 57 -89c53 0 110 59 158 126l22 -14c-51 -97 -127 -199 -244 -199c-80 0 -132 62 -131 147c1 109 51 223 163 307c50 39 119 70 177 70c50 0 92 -35 92 -71c0 -32 -27 -67 -53 -80c-40 50 -86 94 -120 94z" />
    <glyph glyph-name="d" unicode="d" horiz-adv-x="563" 
d="M336 508c29 0 54 -6 74 -13l41 162l-71 53l4 12l216 44l-170 -672h3c31 22 65 63 91 101l24 -11c-54 -114 -142 -195 -202 -196c-43 0 -60 37 -43 91l40 128h-5c-43 -77 -140 -223 -238 -223c-47 0 -96 34 -93 132c6 187 169 392 329 392zM380 378l14 59
c-17 24 -39 37 -61 37c-93 0 -186 -188 -191 -340c-2 -41 13 -59 30 -59c50 0 175 170 208 303z" />
    <glyph glyph-name="e" unicode="e" horiz-adv-x="434" 
d="M154 -14c-95 0 -142 65 -139 160c3 116 72 219 157 288c57 45 122 76 184 76c47 0 88 -27 86 -78c-2 -98 -156 -169 -294 -196c-2 -12 -3 -26 -3 -38c-2 -84 28 -125 77 -125s106 52 142 103l22 -12c-35 -72 -118 -178 -232 -178zM296 463c-50 0 -118 -91 -142 -199
c83 22 169 91 172 163c1 23 -10 36 -30 36z" />
    <glyph glyph-name="f" unicode="f" horiz-adv-x="346" 
d="M33 449l8 46h96c48 155 198 274 313 274c59 0 99 -35 99 -67c0 -37 -36 -66 -68 -81c-31 56 -60 98 -99 98c-36 0 -82 -49 -120 -224h120l-10 -46h-119l-72 -370c-43 -222 -180 -336 -289 -336c-38 0 -77 25 -77 63c0 37 28 65 66 77c27 -59 56 -90 80 -90
c28 0 45 39 64 139l101 517h-93z" />
    <glyph glyph-name="g" unicode="g" horiz-adv-x="479" 
d="M281 507c31 0 57 -7 87 -13l146 10l-10 -68l-106 19l-1 -4c14 -15 30 -54 28 -94c-4 -100 -95 -206 -227 -206c-12 0 -24 1 -35 3c-15 -8 -25 -20 -25 -34c0 -13 7 -22 30 -31l162 -69c71 -30 91 -63 90 -102c-3 -98 -135 -173 -289 -173c-139 0 -212 45 -210 111
c2 58 74 94 179 116v4l-4 1c-35 13 -64 41 -63 83c1 48 42 70 95 100v5c-51 24 -84 74 -82 133c4 101 84 209 235 209zM261 -86l-126 48c-62 -19 -100 -41 -101 -85c-2 -55 57 -92 154 -92c76 0 137 35 138 73c0 19 -14 37 -65 56zM281 474c-59 0 -122 -132 -125 -232
c-1 -38 5 -63 33 -63c61 0 123 135 127 238c1 27 -6 57 -35 57z" />
    <glyph glyph-name="h" unicode="h" horiz-adv-x="550" 
d="M310 767l-122 -483h8c60 112 151 225 240 225c53 0 84 -33 61 -117l-81 -298h3c31 22 64 63 92 101l23 -11c-56 -112 -143 -196 -205 -196c-36 0 -60 26 -43 92l85 299c7 25 0 36 -14 36c-50 0 -169 -164 -216 -330l-21 -75l-111 -25l-14 15l168 657l-64 53l4 12z" />
    <glyph glyph-name="i" unicode="i" horiz-adv-x="288" 
d="M120 417c-16 12 -56 16 -89 8l2 16c34 32 86 68 146 68c43 0 82 -29 58 -114l-82 -301h4c30 22 65 64 90 101l24 -11c-51 -104 -138 -196 -204 -196c-36 0 -61 27 -43 92zM148 683c0 38 32 70 70 70c39 0 70 -32 70 -70c0 -39 -33 -70 -71 -70c-39 0 -69 31 -69 70z" />
    <glyph glyph-name="j" unicode="j" horiz-adv-x="272" 
d="M20 11l102 405c-18 13 -58 17 -90 9l1 16c34 32 85 68 145 68c43 0 82 -29 60 -120l-84 -344c-40 -167 -156 -303 -279 -303c-36 0 -82 24 -83 65c-1 39 29 64 66 76c27 -59 49 -90 75 -90c36 0 55 90 87 218zM148 683c0 38 31 70 70 70s70 -32 70 -70
c0 -39 -33 -70 -71 -70c-39 0 -69 31 -69 70z" />
    <glyph glyph-name="k" unicode="k" horiz-adv-x="519" 
d="M411 -42c-57 0 -77 13 -125 75l-114 147c-16 -36 -30 -73 -39 -109l-15 -62l-109 -24l-14 15l168 657l-65 53l5 12l207 45l-123 -481h8c61 113 143 223 236 223c46 0 79 -33 79 -84c0 -83 -83 -153 -222 -214l187 -225v-11c-11 -7 -32 -17 -64 -17zM374 420
c-51 0 -141 -109 -198 -232c147 61 232 135 232 193c0 25 -12 39 -34 39z" />
    <glyph glyph-name="l" unicode="l" horiz-adv-x="275" 
d="M259 184c-54 -115 -144 -196 -205 -196c-37 0 -59 26 -43 92l148 577l-71 53l4 12l215 45l-167 -673h4c34 25 64 61 92 101z" />
    <glyph glyph-name="m" unicode="m" horiz-adv-x="834" 
d="M4 0l117 419c-13 9 -52 14 -89 6l3 16c33 32 84 68 136 68c56 0 86 -42 61 -124l-31 -102h7c67 119 151 226 241 226c53 0 81 -42 53 -128l-35 -106h7c72 126 157 234 246 234c53 0 82 -33 60 -117l-81 -298h3c31 22 66 63 93 101l23 -11c-56 -111 -142 -196 -205 -196
c-36 0 -62 26 -44 92l85 299c6 22 1 36 -13 36c-52 0 -167 -167 -216 -330l-23 -75l-110 -25l-16 15l107 379c5 20 2 36 -13 36c-53 0 -172 -166 -218 -336l-19 -69l-115 -25z" />
    <glyph glyph-name="n" unicode="n" horiz-adv-x="563" 
d="M4 0l117 418c-15 11 -52 15 -88 7l2 16c33 32 84 68 136 68c56 0 86 -42 61 -124l-31 -102h7c67 119 151 226 241 226c53 0 83 -33 60 -117l-81 -298h3c31 22 65 63 92 101l23 -11c-54 -110 -140 -196 -205 -196c-35 0 -60 26 -43 92l85 299c7 25 1 36 -13 36
c-52 0 -167 -165 -216 -330l-23 -75l-113 -25z" />
    <glyph glyph-name="o" unicode="o" horiz-adv-x="520" 
d="M316 479c-83 0 -158 -223 -163 -351c-3 -68 6 -114 44 -114c82 0 164 210 170 348c2 57 -6 117 -51 117zM327 508c119 0 171 -95 171 -195c0 -146 -110 -327 -305 -327c-118 0 -171 84 -171 198c0 139 106 324 305 324z" />
    <glyph glyph-name="p" unicode="p" horiz-adv-x="531" 
d="M-31 -184l137 560c-27 -14 -55 -32 -87 -50l-13 24c36 27 74 53 113 77l29 118h100l-15 -62c43 16 84 26 121 26c102 0 159 -59 158 -145c-2 -184 -158 -380 -313 -380c-24 0 -45 6 -63 13l-45 -183l128 -10l-8 -38h-314l5 27zM205 19c85 0 174 202 175 329
c1 65 -28 103 -77 103c-15 0 -33 -5 -56 -12l-97 -391c14 -17 32 -29 55 -29z" />
    <glyph glyph-name="q" unicode="q" horiz-adv-x="536" 
d="M238 -185l70 287c12 53 32 105 32 105h-6c-42 -77 -139 -223 -237 -223c-46 0 -95 34 -92 129c6 195 171 392 330 392c40 0 67 -13 89 -28l18 32h92l-176 -695l87 -11l-6 -37h-303l6 28zM169 75c50 0 174 170 208 303l13 54c-17 26 -40 40 -63 40
c-84 0 -183 -188 -188 -335c-1 -44 12 -62 30 -62z" />
    <glyph glyph-name="r" unicode="r" horiz-adv-x="433" 
d="M4 0l114 419c-22 13 -56 14 -88 7l2 16c36 36 88 67 140 67c49 0 83 -35 57 -113l-56 -169h11c98 214 154 283 216 283c38 0 60 -22 60 -55c0 -58 -54 -100 -94 -115h-23c18 37 19 64 1 64c-39 0 -138 -172 -185 -310l-29 -84l-112 -25z" />
    <glyph glyph-name="s" unicode="s" horiz-adv-x="363" 
d="M315 155c0 -78 -99 -171 -207 -171c-74 0 -123 48 -123 96c0 27 12 52 34 75h3c51 -70 105 -120 155 -120c24 0 44 18 44 42c0 26 -15 49 -40 76l-68 76c-45 50 -56 75 -55 107c2 90 119 175 207 175c59 0 103 -36 102 -80c-1 -29 -14 -48 -34 -73h-2
c-44 53 -94 96 -138 96c-24 0 -43 -17 -43 -40s10 -41 40 -74l66 -74c46 -52 59 -76 59 -111z" />
    <glyph glyph-name="t" unicode="t" horiz-adv-x="362" 
d="M32 447l4 35l105 17l76 137h70l-31 -141h133l-8 -48h-133l-90 -358h4c49 24 115 101 144 142l25 -15c-59 -100 -155 -228 -253 -228c-36 0 -61 31 -49 79l95 380h-92z" />
    <glyph glyph-name="u" unicode="u" 
d="M31 111l83 307c-15 11 -54 15 -87 7l2 16c34 32 85 68 144 68c49 0 75 -38 53 -121l-70 -276c-5 -22 2 -28 11 -28c54 0 178 191 215 326l20 77l114 19l10 -12l-103 -400h4c30 22 63 63 90 101l23 -11c-55 -111 -142 -196 -204 -196c-37 0 -59 25 -39 93l52 170h-5
c-57 -101 -140 -264 -258 -264c-48 0 -80 33 -55 124z" />
    <glyph glyph-name="v" unicode="v" horiz-adv-x="466" 
d="M210 414l11 -316c115 148 156 220 156 275c0 39 -26 58 -61 58c-13 0 -32 -3 -41 -6l3 17c40 42 80 68 118 68c50 0 75 -36 75 -84c0 -90 -103 -195 -213 -323l-100 -117h-10l-42 19l-19 413c-13 7 -31 12 -48 12c-9 0 -23 -2 -34 -5l3 16c40 41 90 68 129 68
c46 0 71 -24 73 -95z" />
    <glyph glyph-name="w" unicode="w" horiz-adv-x="711" 
d="M460 409v-313h3c116 143 158 221 158 277c0 39 -24 58 -58 58c-11 0 -28 -2 -42 -6l3 17c39 42 79 68 117 68c50 0 75 -36 75 -85c0 -89 -103 -195 -213 -323l-101 -116h-9l-48 19l1 211h-3c-36 -44 -69 -85 -131 -166l-50 -64h-11l-50 19l-6 409c-12 10 -31 16 -56 16
c-10 0 -24 -2 -34 -5l3 16c39 41 89 68 132 68c49 0 72 -30 73 -95l3 -312h3c41 50 89 114 123 164l-2 151c-11 7 -25 13 -47 13c-10 0 -24 -2 -35 -5l2 16c40 42 88 68 130 68c37 0 70 -18 70 -100z" />
    <glyph glyph-name="x" unicode="x" horiz-adv-x="520" 
d="M301 -13c-30 0 -51 13 -61 56l-31 134l-31 -49c-61 -98 -95 -144 -152 -144c-34 0 -66 24 -66 65c0 42 31 75 31 75l27 -25c50 -42 92 -20 164 90l18 27l-31 138c-9 41 -20 58 -38 58c-17 0 -41 -26 -63 -125h-26c10 147 75 221 146 221c53 0 79 -34 95 -107l17 -80
l44 74c52 89 86 115 128 115c32 -1 57 -23 57 -65c0 -50 -41 -95 -75 -115h-30c32 50 26 91 1 91c-24 0 -45 -33 -85 -91c-9 -13 -22 -31 -32 -47l44 -200h4c36 13 84 71 117 117l25 -10c-57 -113 -143 -203 -197 -203z" />
    <glyph glyph-name="y" unicode="y" horiz-adv-x="497" 
d="M37 278h-25c8 148 64 229 144 229c68 0 123 -78 125 -262c1 -87 -11 -181 -34 -251h7c75 106 156 223 154 353c0 48 -19 101 -51 140c19 13 47 23 69 23c30 0 60 -17 61 -83c4 -254 -368 -682 -550 -682c-43 0 -79 26 -79 74c-1 37 26 70 68 70c40 0 64 -31 80 -89h4
c114 51 153 247 153 390c0 144 -28 222 -60 222c-28 0 -47 -46 -66 -134z" />
    <glyph glyph-name="z" unicode="z" horiz-adv-x="486" 
d="M467 510l41 -36l-345 -323l92 -37c97 -40 132 -10 188 72l24 -11c-61 -135 -116 -193 -188 -193c-24 0 -49 7 -96 29l-112 52l-62 -80l-39 35l355 333l-124 47c-56 22 -93 28 -98 5c-7 -17 12 -40 66 -66c-18 -40 -45 -63 -80 -63c-32 0 -54 23 -54 58
c0 70 105 180 191 180c34 0 53 -7 119 -38l71 -34z" />
    <glyph glyph-name="braceleft" unicode="{" horiz-adv-x="340" 
d="M113 294v-3c71 -13 99 -48 81 -147l-33 -178c-19 -103 -1 -125 73 -125l-5 -26h-15c-146 -4 -181 64 -146 195l47 177c15 58 -6 86 -48 87l-38 1l7 38l38 1c48 1 74 27 80 75l26 195c14 103 72 171 217 167h17l-5 -27c-74 0 -101 -21 -123 -125l-35 -169
c-19 -93 -57 -128 -138 -136z" />
    <glyph glyph-name="bar" unicode="|" horiz-adv-x="246" 
d="M46 -210h-42l193 969h41z" />
    <glyph glyph-name="braceright" unicode="}" horiz-adv-x="340" 
d="M215 271v3c-71 13 -99 48 -81 147l33 178c19 103 0 125 -74 125l5 27h16c146 4 181 -65 146 -195l-47 -178c-15 -58 6 -86 48 -87l38 -1l-7 -38l-38 -1c-48 -1 -74 -27 -80 -75l-27 -194c-14 -103 -72 -171 -217 -167h-16l5 26c74 0 104 21 124 125l34 169
c18 93 57 128 138 136z" />
    <glyph glyph-name="asciitilde" unicode="~" horiz-adv-x="489" 
d="M33 203l-23 10l8 19c48 131 117 136 206 109l80 -25c96 -30 121 -22 164 48l22 -11l-7 -20c-47 -119 -111 -151 -211 -118l-63 21c-112 36 -134 36 -176 -33z" />
    <glyph glyph-name="Adieresis" unicode="&#xc4;" horiz-adv-x="718" 
d="M-44 0l6 29l69 19l371 636l38 7l49 8l97 -648l65 -23l-6 -28h-289l5 29l86 21l-24 179h-232l-98 -177l101 -24l-6 -28h-232zM377 562l-157 -280h196l-38 280h-1zM348 759c-36 0 -64 28 -64 63c0 36 28 66 64 66c35 0 65 -30 65 -66c0 -35 -30 -63 -65 -63zM580 759
c-35 0 -64 28 -64 63c0 36 29 66 64 66c36 0 65 -30 65 -66c0 -35 -29 -63 -65 -63z" />
    <glyph glyph-name="Aring" unicode="&#xc5;" horiz-adv-x="718" 
d="M-44 0l6 29l69 19l371 636l38 7l49 8l97 -648l65 -23l-6 -28h-289l5 29l86 21l-24 179h-232l-98 -177l101 -24l-6 -28h-232zM356 850c0 58 47 103 107 103c61 0 106 -44 106 -102c0 -57 -46 -103 -107 -103s-106 45 -106 102zM377 562l-157 -280h196l-38 280h-1zM395 851
c0 -40 31 -69 68 -69s66 28 66 68c0 41 -30 70 -67 70s-67 -28 -67 -69z" />
    <glyph glyph-name="Ccedilla" unicode="&#xc7;" horiz-adv-x="733" 
d="M210 -257l-3 20c54 16 110 40 110 84c0 31 -26 45 -44 51l62 87c-164 15 -280 118 -280 297c0 216 197 415 470 415c82 0 150 -28 203 -57l-29 -188h-24l-35 154c-35 34 -74 54 -129 54c-136 0 -298 -141 -298 -399c0 -155 84 -242 188 -242c51 0 92 16 124 40l110 174
h27l-56 -204c-51 -18 -131 -46 -227 -46h-14l-25 -37c47 -12 74 -37 74 -71c0 -82 -103 -116 -204 -132z" />
    <glyph glyph-name="Eacute" unicode="&#xc9;" horiz-adv-x="616" 
d="M369 338h-115l-57 -284c11 -8 28 -16 62 -16h152l124 181h30l-66 -219h-527l6 29l78 21l117 579l-73 23l5 28h437l74 2l-30 -198h-29l-38 159h-207l-51 -267h116l52 96h29l-46 -238h-32zM459 892h121v-12l-162 -135h-43z" />
    <glyph glyph-name="Ntilde" unicode="&#xd1;" horiz-adv-x="720" 
d="M562 -7h-53l-310 555l-90 -496l88 -24l-6 -28h-219l6 29l79 21l109 549c-16 23 -41 38 -60 45l-17 8l5 28h190l271 -484l77 432l-87 24l5 28h218l-5 -29l-79 -21l-98 -496zM305 765l-18 8l7 15c48 104 99 119 180 89l34 -13c57 -20 89 -21 129 40l17 -8l-9 -19
c-52 -111 -93 -125 -180 -94l-35 13c-69 25 -92 23 -125 -31z" />
    <glyph glyph-name="Odieresis" unicode="&#xd6;" horiz-adv-x="790" 
d="M366 759c-36 0 -65 28 -65 63c0 36 29 66 65 66c35 0 64 -30 64 -66c0 -35 -29 -63 -64 -63zM597 759c-35 0 -63 28 -63 63c0 36 28 66 63 66c36 0 66 -30 66 -66c0 -35 -30 -63 -66 -63zM466 698c147 0 293 -108 293 -314c0 -191 -158 -404 -415 -404
c-143 0 -289 107 -289 313c0 195 159 405 411 405zM608 454c0 101 -43 210 -143 210c-160 0 -260 -235 -260 -433c0 -108 40 -218 142 -218c167 0 261 239 261 441z" />
    <glyph glyph-name="Udieresis" unicode="&#xdc;" horiz-adv-x="739" 
d="M338 -23c-176 0 -280 93 -235 318l67 334l-71 23l4 28h296l-6 -29l-85 -22l-72 -368c-27 -138 32 -214 140 -214c103 0 188 60 218 237l60 342l-86 24l4 30h223l-5 -30l-80 -22l-69 -357c-33 -170 -120 -294 -303 -294zM385 759c-36 0 -64 28 -64 63c0 36 28 66 64 66
c35 0 65 -30 65 -66c0 -35 -30 -63 -65 -63zM616 759c-35 0 -63 28 -63 63c0 36 28 66 63 66c36 0 66 -30 66 -66c0 -35 -30 -63 -66 -63z" />
    <glyph glyph-name="aacute" unicode="&#xe1;" 
d="M446 529h89l-119 -436h4c31 22 65 64 91 102l25 -11c-53 -111 -142 -196 -205 -196c-49 0 -56 48 -41 92l46 133h-7c-56 -92 -147 -229 -236 -229c-49 0 -88 31 -88 108c0 187 197 408 348 408c28 0 51 -7 70 -17zM165 79c51 0 167 173 209 302l16 50
c-14 19 -34 33 -57 33c-87 0 -189 -198 -194 -337c-1 -39 12 -48 26 -48zM428 781h112v-8l-157 -196h-30z" />
    <glyph glyph-name="agrave" unicode="&#xe0;" 
d="M446 529h89l-119 -436h4c31 22 65 64 91 102l25 -11c-53 -111 -142 -196 -205 -196c-49 0 -56 48 -41 92l46 133h-7c-56 -92 -147 -229 -236 -229c-49 0 -88 31 -88 108c0 187 197 408 348 408c28 0 51 -7 70 -17zM165 79c51 0 167 173 209 302l16 50
c-14 19 -34 33 -57 33c-87 0 -189 -198 -194 -337c-1 -39 12 -48 26 -48zM251 781h111l24 -204h-28l-107 195v9z" />
    <glyph glyph-name="acircumflex" unicode="&#xe2;" 
d="M446 529h89l-119 -436h4c31 22 65 64 91 102l25 -11c-53 -111 -142 -196 -205 -196c-49 0 -56 48 -41 92l46 133h-7c-56 -92 -147 -229 -236 -229c-49 0 -88 31 -88 108c0 187 197 408 348 408c28 0 51 -7 70 -17zM165 79c51 0 167 173 209 302l16 50
c-14 19 -34 33 -57 33c-87 0 -189 -198 -194 -337c-1 -39 12 -48 26 -48zM279 577h-34l135 204h61l54 -204h-34l-67 118z" />
    <glyph glyph-name="adieresis" unicode="&#xe4;" 
d="M446 529h89l-119 -436h4c31 22 65 64 91 102l25 -11c-53 -111 -142 -196 -205 -196c-49 0 -56 48 -41 92l46 133h-7c-56 -92 -147 -229 -236 -229c-49 0 -88 31 -88 108c0 187 197 408 348 408c28 0 51 -7 70 -17zM165 79c51 0 167 173 209 302l16 50
c-14 19 -34 33 -57 33c-87 0 -189 -198 -194 -337c-1 -39 12 -48 26 -48zM297 620c-36 0 -65 27 -65 63s29 66 65 66c35 0 64 -30 64 -66s-29 -63 -64 -63zM489 620c-35 0 -63 27 -63 63s28 66 63 66c36 0 66 -30 66 -66s-30 -63 -66 -63z" />
    <glyph glyph-name="atilde" unicode="&#xe3;" 
d="M446 529h89l-119 -436h4c31 22 65 64 91 102l25 -11c-53 -111 -142 -196 -205 -196c-49 0 -56 48 -41 92l46 133h-7c-56 -92 -147 -229 -236 -229c-49 0 -88 31 -88 108c0 187 197 408 348 408c28 0 51 -7 70 -17zM165 79c51 0 167 173 209 302l16 50
c-14 19 -34 33 -57 33c-87 0 -189 -198 -194 -337c-1 -39 12 -48 26 -48zM222 595l-18 8l7 17c47 109 104 120 181 87l34 -15c51 -22 85 -24 127 43l18 -9l-9 -19c-54 -115 -103 -126 -182 -92l-34 15c-68 29 -90 19 -124 -35z" />
    <glyph glyph-name="aring" unicode="&#xe5;" 
d="M446 529h89l-119 -436h4c31 22 65 64 91 102l25 -11c-53 -111 -142 -196 -205 -196c-49 0 -56 48 -41 92l46 133h-7c-56 -92 -147 -229 -236 -229c-49 0 -88 31 -88 108c0 187 197 408 348 408c28 0 51 -7 70 -17zM165 79c51 0 167 173 209 302l16 50
c-14 19 -34 33 -57 33c-87 0 -189 -198 -194 -337c-1 -39 12 -48 26 -48zM291 688c0 57 46 104 106 104c61 0 107 -45 107 -103c0 -57 -47 -103 -108 -103s-105 44 -105 102zM330 689c0 -41 30 -69 67 -69s67 28 67 68s-31 70 -68 70s-66 -29 -66 -69z" />
    <glyph glyph-name="ccedilla" unicode="&#xe7;" horiz-adv-x="436" 
d="M11 -257l-3 20c54 16 111 40 111 84c0 31 -26 45 -44 51l62 89c-75 4 -123 64 -122 146c1 109 51 223 163 307c50 39 119 70 177 70c50 0 92 -35 92 -71c0 -32 -27 -67 -53 -80c-40 50 -86 94 -120 94c-61 0 -120 -162 -121 -291c-1 -63 22 -89 57 -89
c53 0 110 59 158 126l22 -14c-48 -91 -118 -186 -221 -198l-28 -41c47 -12 74 -37 74 -71c0 -82 -103 -116 -204 -132z" />
    <glyph glyph-name="eacute" unicode="&#xe9;" horiz-adv-x="434" 
d="M386 781h112v-8l-157 -196h-30zM154 -14c-95 0 -142 65 -139 160c3 116 72 219 157 288c57 45 122 76 184 76c47 0 88 -27 86 -78c-2 -98 -156 -169 -294 -196c-2 -12 -3 -26 -3 -38c-2 -84 28 -125 77 -125s106 52 142 103l22 -12c-35 -72 -118 -178 -232 -178zM296 463
c-50 0 -118 -91 -142 -199c83 22 169 91 172 163c1 23 -10 36 -30 36z" />
    <glyph glyph-name="egrave" unicode="&#xe8;" horiz-adv-x="434" 
d="M154 -14c-95 0 -142 65 -139 160c3 116 72 219 157 288c57 45 122 76 184 76c47 0 88 -27 86 -78c-2 -98 -156 -169 -294 -196c-2 -12 -3 -26 -3 -38c-2 -84 28 -125 77 -125s106 52 142 103l22 -12c-35 -72 -118 -178 -232 -178zM296 463c-50 0 -118 -91 -142 -199
c83 22 169 91 172 163c1 23 -10 36 -30 36zM213 781h112l23 -204h-27l-108 195v9z" />
    <glyph glyph-name="ecircumflex" unicode="&#xea;" horiz-adv-x="434" 
d="M154 -14c-95 0 -142 65 -139 160c3 116 72 219 157 288c57 45 122 76 184 76c47 0 88 -27 86 -78c-2 -98 -156 -169 -294 -196c-2 -12 -3 -26 -3 -38c-2 -84 28 -125 77 -125s106 52 142 103l22 -12c-35 -72 -118 -178 -232 -178zM237 577h-34l135 204h61l54 -204h-34
l-67 118zM296 463c-50 0 -118 -91 -142 -199c83 22 169 91 172 163c1 23 -10 36 -30 36z" />
    <glyph glyph-name="edieresis" unicode="&#xeb;" horiz-adv-x="434" 
d="M240 620c-36 0 -65 27 -65 63s29 66 65 66c35 0 64 -30 64 -66s-29 -63 -64 -63zM432 620c-35 0 -63 27 -63 63s28 66 63 66c36 0 66 -30 66 -66s-30 -63 -66 -63zM154 -14c-95 0 -142 65 -139 160c3 116 72 219 157 288c57 45 122 76 184 76c47 0 88 -27 86 -78
c-2 -98 -156 -169 -294 -196c-2 -12 -3 -26 -3 -38c-2 -84 28 -125 77 -125s106 52 142 103l22 -12c-35 -72 -118 -178 -232 -178zM296 463c-50 0 -118 -91 -142 -199c83 22 169 91 172 163c1 23 -10 36 -30 36z" />
    <glyph glyph-name="iacute" unicode="&#xed;" horiz-adv-x="288" 
d="M260 781h112v-8l-157 -196h-30zM121 417c-17 12 -57 16 -90 8l3 16c34 32 85 68 145 68c43 0 81 -29 59 -114l-83 -301h4c31 22 66 64 90 101l24 -11c-51 -104 -138 -196 -204 -196c-36 0 -59 27 -43 92z" />
    <glyph glyph-name="igrave" unicode="&#xec;" horiz-adv-x="288" 
d="M121 417c-17 12 -57 16 -90 8l3 16c34 32 85 68 145 68c43 0 81 -29 59 -114l-83 -301h4c31 22 66 64 90 101l24 -11c-51 -104 -138 -196 -204 -196c-36 0 -59 27 -43 92zM83 781h112l23 -204h-28l-107 195v9z" />
    <glyph glyph-name="icircumflex" unicode="&#xee;" horiz-adv-x="288" 
d="M121 417c-17 12 -57 16 -90 8l3 16c34 32 85 68 145 68c43 0 81 -29 59 -114l-83 -301h4c31 22 66 64 90 101l24 -11c-51 -104 -138 -196 -204 -196c-36 0 -59 27 -43 92zM111 577h-34l135 204h61l54 -204h-34l-67 118z" />
    <glyph glyph-name="idieresis" unicode="&#xef;" horiz-adv-x="288" 
d="M138 621c-37 0 -65 28 -65 64c0 37 28 67 65 67c36 0 66 -30 66 -67c0 -36 -30 -64 -66 -64zM313 621c-36 0 -64 28 -64 64c0 37 28 67 64 67c37 0 67 -30 67 -67c0 -36 -30 -64 -67 -64zM121 417c-17 12 -57 16 -90 8l3 16c34 32 85 68 145 68c43 0 81 -29 59 -114
l-83 -301h4c31 22 66 64 90 101l24 -11c-51 -104 -138 -196 -204 -196c-36 0 -59 27 -43 92z" />
    <glyph glyph-name="ntilde" unicode="&#xf1;" horiz-adv-x="563" 
d="M4 0l117 418c-15 11 -52 15 -88 7l2 16c33 32 84 68 136 68c56 0 86 -42 61 -124l-31 -102h7c67 119 151 226 241 226c53 0 83 -33 60 -117l-81 -298h3c31 22 65 63 92 101l23 -11c-54 -110 -140 -196 -205 -196c-35 0 -60 26 -43 92l85 299c7 25 1 36 -13 36
c-52 0 -167 -165 -216 -330l-23 -75l-113 -25zM202 595l-19 8l7 17c47 109 105 120 182 87l34 -15c51 -22 84 -24 126 43l19 -9l-9 -19c-54 -115 -104 -126 -183 -92l-33 15c-68 29 -90 19 -124 -35z" />
    <glyph glyph-name="oacute" unicode="&#xf3;" horiz-adv-x="520" 
d="M394 781h112v-8l-157 -196h-30zM316 479c-83 0 -158 -223 -163 -351c-3 -68 6 -114 44 -114c82 0 164 210 170 348c2 57 -6 117 -51 117zM327 508c119 0 171 -95 171 -195c0 -146 -110 -327 -305 -327c-118 0 -171 84 -171 198c0 139 106 324 305 324z" />
    <glyph glyph-name="ograve" unicode="&#xf2;" horiz-adv-x="520" 
d="M316 479c-83 0 -158 -223 -163 -351c-3 -68 6 -114 44 -114c82 0 164 210 170 348c2 57 -6 117 -51 117zM327 508c119 0 171 -95 171 -195c0 -146 -110 -327 -305 -327c-118 0 -171 84 -171 198c0 139 106 324 305 324zM219 781h112l23 -204h-27l-108 195v9z" />
    <glyph glyph-name="ocircumflex" unicode="&#xf4;" horiz-adv-x="520" 
d="M327 508c119 0 171 -95 171 -195c0 -146 -110 -327 -305 -327c-118 0 -171 84 -171 198c0 139 106 324 305 324zM316 479c-83 0 -158 -223 -163 -351c-3 -68 6 -114 44 -114c82 0 164 210 170 348c2 57 -6 117 -51 117zM246 577h-34l135 204h62l53 -204h-34l-67 118z" />
    <glyph glyph-name="odieresis" unicode="&#xf6;" horiz-adv-x="520" 
d="M264 620c-36 0 -64 27 -64 63s28 66 64 66c35 0 65 -30 65 -66s-30 -63 -65 -63zM457 620c-35 0 -64 27 -64 63s29 66 64 66c36 0 65 -30 65 -66s-29 -63 -65 -63zM316 479c-83 0 -158 -223 -163 -351c-3 -68 6 -114 44 -114c82 0 164 210 170 348c2 57 -6 117 -51 117z
M327 508c119 0 171 -95 171 -195c0 -146 -110 -327 -305 -327c-118 0 -171 84 -171 198c0 139 106 324 305 324z" />
    <glyph glyph-name="otilde" unicode="&#xf5;" horiz-adv-x="520" 
d="M316 479c-83 0 -158 -223 -163 -351c-3 -68 6 -114 44 -114c82 0 164 210 170 348c2 57 -6 117 -51 117zM327 508c119 0 171 -95 171 -195c0 -146 -110 -327 -305 -327c-118 0 -171 84 -171 198c0 139 106 324 305 324zM189 595l-18 8l7 17c47 109 104 120 181 87l34 -15
c51 -22 85 -24 127 43l19 -9l-10 -19c-54 -115 -103 -126 -182 -92l-34 15c-68 29 -90 19 -124 -35z" />
    <glyph glyph-name="uacute" unicode="&#xfa;" 
d="M386 781h112v-8l-157 -196h-30zM31 111l83 307c-15 11 -54 15 -87 7l2 16c34 32 85 68 144 68c49 0 75 -38 53 -121l-70 -276c-5 -22 2 -28 11 -28c54 0 178 191 215 326l20 77l114 19l10 -12l-103 -400h4c30 22 63 63 90 101l23 -11c-55 -111 -142 -196 -204 -196
c-37 0 -59 25 -39 93l52 170h-5c-57 -101 -140 -264 -258 -264c-48 0 -80 33 -55 124z" />
    <glyph glyph-name="ugrave" unicode="&#xf9;" 
d="M31 111l83 307c-15 11 -54 15 -87 7l2 16c34 32 85 68 144 68c49 0 75 -38 53 -121l-70 -276c-5 -22 2 -28 11 -28c54 0 178 191 215 326l20 77l114 19l10 -12l-103 -400h4c30 22 63 63 90 101l23 -11c-55 -111 -142 -196 -204 -196c-37 0 -59 25 -39 93l52 170h-5
c-57 -101 -140 -264 -258 -264c-48 0 -80 33 -55 124zM215 781h112l23 -204h-27l-108 195v9z" />
    <glyph glyph-name="ucircumflex" unicode="&#xfb;" 
d="M31 111l83 307c-15 11 -54 15 -87 7l2 16c34 32 85 68 144 68c49 0 75 -38 53 -121l-70 -276c-5 -22 2 -28 11 -28c54 0 178 191 215 326l20 77l114 19l10 -12l-103 -400h4c30 22 63 63 90 101l23 -11c-55 -111 -142 -196 -204 -196c-37 0 -59 25 -39 93l52 170h-5
c-57 -101 -140 -264 -258 -264c-48 0 -80 33 -55 124zM244 577h-34l135 204h62l53 -204h-34l-67 118z" />
    <glyph glyph-name="udieresis" unicode="&#xfc;" 
d="M256 620c-36 0 -65 27 -65 63s29 66 65 66c35 0 65 -30 65 -66s-30 -63 -65 -63zM449 620c-35 0 -64 27 -64 63s29 66 64 66c36 0 65 -30 65 -66s-29 -63 -65 -63zM31 111l83 307c-15 11 -54 15 -87 7l2 16c34 32 85 68 144 68c49 0 75 -38 53 -121l-70 -276
c-5 -22 2 -28 11 -28c54 0 178 191 215 326l20 77l114 19l10 -12l-103 -400h4c30 22 63 63 90 101l23 -11c-55 -111 -142 -196 -204 -196c-37 0 -59 25 -39 93l52 170h-5c-57 -101 -140 -264 -258 -264c-48 0 -80 33 -55 124z" />
    <glyph glyph-name="dagger" unicode="&#x2020;" horiz-adv-x="313" 
d="M87 586l11 63l107 -11l10 115h65l-35 -115l111 11l-11 -63l-108 12l-37 -253h-66l65 253z" />
    <glyph glyph-name="degree" unicode="&#xb0;" horiz-adv-x="308" 
d="M71 617c0 75 62 136 138 136c77 0 133 -61 133 -136c0 -76 -62 -136 -137 -136c-78 0 -134 60 -134 136zM111 617c0 -57 41 -102 96 -102s96 45 96 102s-41 103 -96 103s-96 -46 -96 -103z" />
    <glyph glyph-name="cent" unicode="&#xa2;" horiz-adv-x="466" 
d="M150 -126l28 112h-11c-81 0 -138 62 -137 153c1 124 70 244 183 319c28 18 61 36 98 45l31 119h35l-29 -112h11c55 0 103 -33 103 -75c0 -36 -35 -61 -51 -66c-28 43 -51 71 -78 84l-99 -385c50 6 95 52 153 131l21 -14c-38 -75 -97 -168 -193 -193l-30 -118h-35z
M160 168c-1 -55 15 -86 40 -97l100 389c-69 -4 -139 -147 -140 -292z" />
    <glyph glyph-name="sterling" unicode="&#xa3;" horiz-adv-x="658" 
d="M96 268l8 42h126l19 77c44 189 197 282 286 282c58 0 109 -39 109 -83c0 -41 -37 -63 -88 -71c-13 77 -40 113 -68 113c-35 0 -59 -37 -81 -127l-48 -191h190l-9 -42h-191c-33 -118 -107 -192 -178 -235c37 -19 74 -41 107 -63l40 -26c117 -76 146 -98 177 -98
c43 0 57 57 35 148c56 4 95 -6 95 -48c0 -58 -96 -154 -206 -154c-86 0 -171 75 -258 161l-50 49c-36 -13 -67 -20 -85 -20c-35 0 -60 17 -60 48c0 30 26 50 62 50c29 0 65 -12 104 -29c29 30 56 79 74 159l14 58h-124z" />
    <glyph glyph-name="section" unicode="&#xa7;" horiz-adv-x="509" 
d="M236 -96c0 34 -21 68 -69 172l-49 106c-27 57 -44 109 -44 151c0 204 268 349 387 349c55 0 82 -32 82 -65c0 -31 -23 -55 -57 -60c0 0 -41 41 -101 56c-30 0 -62 -6 -93 -20c-5 -10 -8 -23 -8 -38c0 -33 21 -70 69 -172l43 -91c35 -75 49 -125 49 -165
c0 -204 -268 -349 -387 -349c-55 0 -82 30 -82 64c0 30 22 56 57 61c0 0 41 -42 101 -57c29 0 61 7 92 20c6 10 10 23 10 38zM170 392c0 -50 16 -97 40 -151l41 -96c34 -79 48 -124 48 -158c0 -41 -15 -70 -26 -89h5c42 35 71 90 71 170c0 49 -16 95 -40 150l-40 95
c-33 78 -49 123 -49 160c0 41 15 70 26 89h-4c-42 -36 -72 -90 -72 -170z" />
    <glyph glyph-name="bullet" unicode="&#x2022;" horiz-adv-x="318" 
d="M156 190c-50 0 -91 42 -91 92c0 49 41 91 91 91s92 -42 92 -91c0 -50 -42 -92 -92 -92z" />
    <glyph glyph-name="paragraph" unicode="&#xb6;" horiz-adv-x="558" 
d="M146 -213c-102 0 -173 73 -173 165c0 98 80 161 158 161c71 0 114 -45 114 -96c0 -48 -36 -80 -80 -80c-31 0 -63 18 -63 59c25 15 51 37 65 57v4c-8 12 -25 20 -47 20c-45 0 -104 -41 -104 -120c0 -69 52 -131 136 -131c83 0 152 55 176 176l126 640h-55l-78 -403h-49
c-111 0 -185 84 -185 186c-2 150 139 255 268 255h242l-6 -29l-75 -21l-120 -610c-33 -170 -140 -233 -250 -233z" />
    <glyph glyph-name="germandbls" unicode="&#xdf;" horiz-adv-x="552" 
d="M555 649c0 -119 -189 -150 -189 -224c0 -24 11 -40 41 -80l55 -76c33 -45 55 -70 55 -110c0 -90 -104 -173 -202 -173c-55 0 -103 26 -103 74c0 27 14 52 26 62c50 -44 105 -86 144 -86c26 0 41 18 41 43s-16 46 -47 87l-53 71c-44 58 -55 86 -55 115
c0 122 182 147 179 282c-1 43 -24 84 -76 84c-58 0 -126 -52 -161 -277l-56 -360c-44 -285 -214 -338 -277 -338c-46 0 -79 26 -80 63c0 29 23 59 66 77c17 -48 49 -90 80 -90c29 0 43 39 56 123l72 459c38 241 244 394 349 394c96 0 135 -60 135 -120z" />
    <glyph glyph-name="registered" unicode="&#xae;" horiz-adv-x="462" 
d="M85 564c0 118 98 210 216 210s213 -92 213 -210c0 -119 -98 -210 -216 -210s-213 90 -213 210zM116 564c0 -104 80 -185 183 -185c104 0 184 80 184 185c0 103 -80 185 -184 185s-183 -82 -183 -185zM173 461l3 14l31 6l35 178l-30 6l3 15h92c76 0 105 -26 105 -55
c0 -38 -40 -53 -67 -60c42 -84 48 -90 80 -93l-3 -12c-74 -8 -81 -3 -129 93h-15l-14 -73l21 -6l-2 -13h-110zM298 664l-17 -94h25c36 4 49 28 49 48c0 23 -17 47 -57 46z" />
    <glyph glyph-name="copyright" unicode="&#xa9;" horiz-adv-x="794" 
d="M53 339c7 200 172 356 370 356s351 -156 344 -356s-173 -356 -371 -356c-199 0 -351 156 -343 356zM85 339c-6 -181 134 -328 313 -328c177 0 330 147 337 328c6 182 -136 328 -313 328c-178 0 -331 -146 -337 -328zM401 136c-138 0 -198 90 -193 186
c7 131 126 219 258 219c49 0 93 -18 123 -33l-14 -108h-20l-26 83c-17 18 -38 32 -70 32c-72 0 -138 -72 -144 -197c-6 -95 37 -154 106 -154c27 0 50 9 67 23l56 94h21l-22 -111c-41 -16 -83 -34 -142 -34z" />
    <glyph glyph-name="trademark" unicode="&#x2122;" horiz-adv-x="794" 
d="M366 390l4 19l37 8l48 237l-33 9l4 17h136l28 -171l99 171h134l-4 -17l-36 -9l-49 -237l34 -8l-4 -19h-154l4 20l38 7l45 222h-4l-118 -202l-22 -38h-27l-5 37l-36 203h-4l-45 -220l41 -10l-4 -19h-107zM129 680h268l-18 -101h-17l-12 74h-52l-49 -236l38 -8l-4 -19h-156
l4 19l40 8l48 236h-54l-41 -74h-18z" />
    <glyph glyph-name="acute" unicode="&#xb4;" horiz-adv-x="267" 
d="M240 781h111v-8l-156 -196h-30z" />
    <glyph glyph-name="dieresis" unicode="&#xa8;" horiz-adv-x="409" 
d="M153 620c-36 0 -65 27 -65 63s29 66 65 66c35 0 64 -30 64 -66s-29 -63 -64 -63zM345 620c-35 0 -63 27 -63 63s28 66 63 66c36 0 66 -30 66 -66s-30 -63 -66 -63z" />
    <glyph glyph-name="notequal" unicode="&#x2260;" horiz-adv-x="575" 
d="M119 32h-44l107 122h-136v44h175l89 100h-264v43h302l109 122h47l-110 -122h137v-43h-175l-90 -100h265v-44h-304z" />
    <glyph glyph-name="AE" unicode="&#xc6;" horiz-adv-x="978" 
d="M731 332h-114l-55 -277c11 -8 29 -16 63 -16h147l124 180h31l-66 -219h-519l6 29l74 21l55 281h-179l-202 -279l100 -24l-6 -28h-231l6 28l62 19l441 581l-84 24l5 28h515l74 2l-31 -198h-28l-38 158h-203l-53 -269h115l51 93h28l-46 -232h-33zM539 637h-11l-197 -263
h155z" />
    <glyph glyph-name="Oslash" unicode="&#xd8;" horiz-adv-x="790" 
d="M117 -41h-45l78 98c-56 53 -95 133 -95 236c0 195 159 405 411 405c54 0 109 -15 156 -45l54 70h45l-71 -90c65 -52 109 -136 109 -249c0 -191 -158 -404 -415 -404c-59 0 -119 19 -168 55zM610 456c0 36 -6 72 -17 105l-366 -462c23 -50 62 -86 120 -86
c167 0 263 240 263 443zM204 230c0 -31 3 -62 10 -91l361 457c-24 40 -60 68 -110 68c-160 0 -261 -236 -261 -434z" />
    <glyph glyph-name="plusminus" unicode="&#xb1;" horiz-adv-x="574" 
d="M530 334h-219v-220h-47v220h-219v43h219v220h47v-220h219v-43zM45 0v44h485v-44h-485z" />
    <glyph glyph-name="lessequal" unicode="&#x2264;" horiz-adv-x="582" 
d="M529 0h-483v44h483v-44zM529 486l-408 -159l408 -159v-48l-484 190v32l484 190v-46z" />
    <glyph glyph-name="greaterequal" unicode="&#x2265;" horiz-adv-x="582" 
d="M534 0h-485v44h485v-44zM49 166l410 159l-410 158v49l486 -190v-32l-486 -190v46z" />
    <glyph glyph-name="yen" unicode="&#xa5;" horiz-adv-x="618" 
d="M58 265l8 36h171l-112 300l-51 23l5 27h272l-6 -28l-78 -20l91 -282h2l201 277l-92 26l5 27h200l-5 -28l-52 -20l-227 -302h179l-7 -36h-187l-16 -78h187l-7 -34h-187l-20 -106l81 -20l-5 -27h-299l6 28l85 18l20 107h-184l6 34h185l16 78h-185z" />
    <glyph glyph-name="ordfeminine" unicode="&#xaa;" horiz-adv-x="490" 
d="M397 663h75l-90 -334h4c30 15 60 51 83 81l19 -11c-42 -82 -111 -155 -172 -155c-32 0 -52 25 -33 86l23 78h-3c-40 -61 -109 -167 -187 -167c-40 0 -66 30 -66 80c0 156 158 328 278 328c18 0 40 -6 56 -14zM184 326c42 0 122 112 148 195l21 70c-13 15 -29 26 -49 26
c-57 0 -141 -156 -141 -264c0 -16 9 -27 21 -27z" />
    <glyph glyph-name="ordmasculine" unicode="&#xba;" horiz-adv-x="453" 
d="M166 356c-1 -47 8 -87 39 -87c68 0 129 168 130 281c0 32 -3 82 -40 82c-67 0 -127 -180 -129 -276zM304 660c88 0 142 -73 142 -157c0 -133 -101 -262 -245 -262c-90 0 -144 69 -144 160c0 132 103 259 247 259z" />
    <glyph glyph-name="ae" unicode="&#xe6;" horiz-adv-x="672" 
d="M384 -14c-65 0 -105 35 -121 87h-2c-52 -55 -90 -87 -160 -87c-51 0 -105 30 -105 105c2 70 57 107 158 131l120 29l23 84c2 66 -14 125 -79 125c-16 0 -34 -7 -45 -17l-14 -110c-8 -3 -28 -9 -45 -9c-29 0 -50 13 -49 44c0 63 117 137 220 142c81 0 107 -48 111 -106h3
c50 61 121 106 194 106c54 0 90 -30 89 -77c-1 -100 -144 -157 -294 -192c-2 -14 -4 -30 -4 -44c0 -94 34 -124 74 -124c57 0 113 59 145 103l22 -12c-34 -75 -130 -178 -241 -178zM265 215l1 4l-60 -17c-66 -18 -88 -48 -89 -87c-2 -33 15 -62 51 -62c32 0 63 24 88 51
c-4 33 -1 71 9 111zM543 463c-48 0 -120 -89 -148 -193c115 43 175 100 177 158c0 23 -10 35 -29 35z" />
    <glyph glyph-name="oslash" unicode="&#xf8;" horiz-adv-x="520" 
d="M51 -51h-39l64 84c-36 38 -55 93 -53 156c7 147 116 319 305 319c33 0 62 -10 87 -24l49 66h40l-65 -85c41 -38 63 -97 61 -155c-7 -151 -115 -324 -306 -324c-37 0 -69 10 -95 27zM372 375l-222 -295c4 -39 17 -66 48 -66c85 0 171 208 174 361zM316 479
c-85 0 -161 -219 -166 -348l219 292c-6 34 -23 56 -53 56z" />
    <glyph glyph-name="questiondown" unicode="&#xbf;" horiz-adv-x="417" 
d="M297 16l-25 -136l-47 15c-104 32 -202 121 -202 243c0 101 57 148 146 164l114 22l24 72h31l-27 -177l-164 -24c-56 -8 -82 -25 -82 -59c0 -61 89 -98 198 -114zM348 610c42 0 76 -33 76 -75c0 -43 -34 -77 -76 -77c-43 0 -77 34 -77 77c0 42 34 75 77 75z" />
    <glyph glyph-name="exclamdown" unicode="&#xa1;" horiz-adv-x="304" 
d="M153 -121h-149l161 517h28zM200 610c42 0 76 -33 76 -75c0 -43 -34 -77 -76 -77s-77 34 -77 77c0 42 35 75 77 75z" />
    <glyph glyph-name="logicalnot" unicode="&#xac;" horiz-adv-x="575" 
d="M42 270h485v-204h-47v160h-438v44z" />
    <glyph glyph-name="florin" unicode="&#x192;" horiz-adv-x="503" 
d="M60 292l9 42h104c49 166 194 284 297 284c54 0 78 -25 78 -61c0 -41 -37 -73 -66 -81c-23 44 -46 89 -80 89c-31 0 -62 -34 -96 -200l-6 -31h141l-8 -42h-142l-48 -237c-41 -200 -180 -312 -279 -312c-42 0 -82 27 -82 64c0 40 30 64 65 76c24 -58 53 -90 78 -90
c29 0 50 45 68 139l70 360h-103z" />
    <glyph glyph-name="approxequal" unicode="&#x2248;" horiz-adv-x="575" 
d="M76 129l-34 17c32 61 71 95 130 95c35 0 55 -6 100 -21l47 -16c44 -15 69 -21 91 -21c42 0 67 28 89 67l32 -19c-30 -55 -66 -91 -127 -91c-35 0 -65 9 -102 21l-48 16c-37 12 -62 21 -86 21c-45 0 -70 -30 -92 -69zM76 282l-34 17c32 61 71 94 130 94
c35 0 55 -7 100 -21l47 -16c44 -14 69 -20 91 -20c42 0 67 27 89 66l32 -18c-30 -55 -66 -92 -127 -92c-35 0 -65 9 -102 21l-48 16c-37 12 -62 20 -86 20c-45 0 -70 -29 -92 -67z" />
    <glyph glyph-name="guillemotleft" unicode="&#xab;" horiz-adv-x="512" 
d="M264 413l21 -24l-158 -169l94 -171l-25 -18l-171 178l2 20zM454 413l20 -24l-158 -169l95 -171l-26 -18l-171 178l2 20z" />
    <glyph glyph-name="guillemotright" unicode="&#xbb;" horiz-adv-x="512" 
d="M37 30l-21 22l157 168l-93 172l25 20l171 -180l-3 -20zM226 30l-20 22l156 168l-93 172l26 20l171 -180l-3 -20z" />
    <glyph glyph-name="ellipsis" unicode="&#x2026;" horiz-adv-x="825" 
d="M95 -11c-42 0 -77 34 -77 76s35 76 77 76c43 0 77 -34 77 -76s-34 -76 -77 -76zM377 -11c-42 0 -77 34 -77 76s35 76 77 76c43 0 77 -34 77 -76s-34 -76 -77 -76zM658 -11c-42 0 -76 34 -76 76s34 76 76 76s77 -34 77 -76s-35 -76 -77 -76z" />
    <glyph glyph-name="uni00A0" unicode="&#xa0;" horiz-adv-x="159" 
 />
    <glyph glyph-name="Agrave" unicode="&#xc0;" horiz-adv-x="718" 
d="M-44 0l6 29l69 19l371 636l38 7l49 8l97 -648l65 -23l-6 -28h-289l5 29l86 21l-24 179h-232l-98 -177l101 -24l-6 -28h-232zM377 562l-157 -280h196l-38 280h-1zM310 892h114l48 -147h-41l-121 135v12z" />
    <glyph glyph-name="Atilde" unicode="&#xc3;" horiz-adv-x="718" 
d="M-44 0l6 29l69 19l371 636l38 7l49 8l97 -648l65 -23l-6 -28h-289l5 29l86 21l-24 179h-232l-98 -177l101 -24l-6 -28h-232zM377 562l-157 -280h196l-38 280h-1zM308 765l-18 8l7 15c48 104 99 119 180 89l34 -13c57 -20 89 -21 129 40l17 -8l-9 -19
c-52 -111 -93 -125 -180 -94l-35 13c-69 25 -92 23 -125 -31z" />
    <glyph glyph-name="Otilde" unicode="&#xd5;" horiz-adv-x="790" 
d="M330 765l-19 8l7 15c48 104 100 119 181 89l33 -13c57 -20 90 -21 130 40l17 -8l-9 -19c-52 -111 -94 -125 -181 -94l-34 13c-69 25 -92 23 -125 -31zM466 698c147 0 293 -108 293 -314c0 -191 -158 -404 -415 -404c-143 0 -289 107 -289 313c0 195 159 405 411 405z
M608 454c0 101 -43 210 -143 210c-160 0 -260 -235 -260 -433c0 -108 40 -218 142 -218c167 0 261 239 261 441z" />
    <glyph glyph-name="OE" unicode="&#x152;" horiz-adv-x="1030" 
d="M912 0h-303c-133 0 -148 -3 -263 -4c-180 -2 -291 117 -291 296c0 225 191 395 417 395c85 0 149 -7 350 -7h134l74 2l-31 -198h-29l-37 158h-203l-52 -266h110l55 96h28l-46 -238h-31l-12 104h-112l-57 -283c11 -8 29 -16 63 -16h147l125 180h31zM501 169l89 452
c-12 9 -54 34 -119 34c-165 0 -266 -219 -266 -424c0 -106 32 -206 152 -206c76 0 126 50 144 144z" />
    <glyph glyph-name="oe" unicode="&#x153;" horiz-adv-x="765" 
d="M495 -14c-57 0 -97 32 -116 82c-45 -49 -106 -82 -185 -82c-118 0 -174 89 -171 203c7 139 106 319 305 319c86 0 128 -50 143 -110c56 65 132 112 215 112c51 0 91 -27 90 -78c-3 -98 -157 -169 -294 -196c-2 -12 -2 -26 -3 -38c-6 -78 26 -126 75 -126s106 53 142 104
l23 -12c-35 -72 -119 -178 -224 -178zM317 479c-83 0 -158 -223 -163 -351c-3 -68 6 -114 44 -114c82 0 164 210 170 348c2 57 -6 117 -51 117zM630 463c-50 0 -119 -91 -143 -199c83 22 169 91 171 163c1 23 -9 36 -28 36z" />
    <glyph glyph-name="endash" unicode="&#x2013;" horiz-adv-x="460" 
d="M33 259l10 46h389l-10 -46h-389z" />
    <glyph glyph-name="emdash" unicode="&#x2014;" horiz-adv-x="849" 
d="M33 259l9 46h779l-9 -46h-779z" />
    <glyph glyph-name="quotedblleft" unicode="&#x201c;" horiz-adv-x="466" 
d="M282 770l10 -21c-52 -34 -87 -72 -87 -116c0 -34 17 -57 61 -67c-1 -47 -26 -78 -71 -78c-37 0 -74 32 -74 91c0 87 79 155 161 191zM481 770l11 -21c-52 -34 -88 -72 -88 -116c0 -34 18 -57 62 -67c-1 -47 -27 -78 -72 -78c-37 0 -73 32 -73 91c0 87 78 155 160 191z
" />
    <glyph glyph-name="quotedblright" unicode="&#x201d;" horiz-adv-x="466" 
d="M120 483l-10 22c52 35 87 73 87 117c0 34 -18 55 -62 66c1 46 27 78 72 78c37 0 74 -31 74 -91c0 -86 -79 -155 -161 -192zM319 483l-10 22c52 35 87 73 87 117c0 34 -17 55 -61 66c1 46 27 78 72 78c37 0 73 -31 73 -91c0 -86 -79 -155 -161 -192z" />
    <glyph glyph-name="quoteleft" unicode="&#x2018;" horiz-adv-x="267" 
d="M282 770l10 -21c-52 -34 -87 -72 -87 -116c0 -34 17 -57 61 -67c-1 -47 -26 -78 -71 -78c-37 0 -74 32 -74 91c0 87 79 155 161 191z" />
    <glyph glyph-name="quoteright" unicode="&#x2019;" horiz-adv-x="267" 
d="M120 483l-10 22c52 35 87 73 87 117c0 34 -18 55 -62 66c1 46 27 78 72 78c37 0 74 -31 74 -91c0 -86 -79 -155 -161 -192z" />
    <glyph glyph-name="divide" unicode="&#xf7;" horiz-adv-x="575" 
d="M523 226h-485v44h485v-44zM281 342c-35 0 -66 31 -66 68c0 34 31 65 66 65c36 0 67 -31 67 -65c0 -37 -31 -68 -67 -68zM280 22c-35 0 -66 30 -66 66c0 35 31 67 66 67c37 0 67 -32 67 -67c0 -36 -30 -66 -67 -66z" />
    <glyph glyph-name="ydieresis" unicode="&#xff;" horiz-adv-x="497" 
d="M37 278h-25c8 148 64 229 144 229c68 0 123 -78 125 -262c1 -87 -11 -181 -34 -251h7c75 106 156 223 154 353c0 48 -19 101 -51 140c19 13 47 23 69 23c30 0 60 -17 61 -83c4 -254 -368 -682 -550 -682c-43 0 -79 26 -79 74c-1 37 26 70 68 70c40 0 64 -31 80 -89h4
c114 51 153 247 153 390c0 144 -28 222 -60 222c-28 0 -47 -46 -66 -134zM223 620c-36 0 -64 27 -64 63s28 66 64 66c35 0 65 -30 65 -66s-30 -63 -65 -63zM416 620c-35 0 -64 27 -64 63s29 66 64 66c36 0 65 -30 65 -66s-29 -63 -65 -63z" />
    <glyph glyph-name="Ydieresis" unicode="&#x178;" horiz-adv-x="677" 
d="M669 631l-258 -362l-43 -220l69 -22l-5 -27h-286l7 28l76 21l41 207l-120 373l-61 23l6 28h295l-6 -29l-87 -22l95 -325l220 323l-90 25l6 28h205l-5 -29zM343 759c-36 0 -64 28 -64 63c0 36 28 66 64 66c35 0 65 -30 65 -66c0 -35 -30 -63 -65 -63zM574 759
c-35 0 -63 28 -63 63c0 36 28 66 63 66c36 0 66 -30 66 -66c0 -35 -30 -63 -66 -63z" />
    <glyph glyph-name="fraction" unicode="&#x2044;" horiz-adv-x="225" 
d="M-155 -84l-26 25l619 800l28 -22z" />
    <glyph glyph-name="Euro" unicode="&#x20ac;" horiz-adv-x="634" 
d="M62 355l10 35h89c81 159 248 240 340 240c81 0 123 -44 123 -86c0 -25 -14 -53 -57 -81c-44 70 -73 119 -125 119c-61 0 -124 -88 -161 -192h213l-8 -35h-217c-8 -29 -13 -57 -16 -86h211l-8 -36h-206v-12c0 -112 54 -152 122 -152s116 41 167 93l20 -18
c-71 -103 -142 -164 -256 -164c-117 0 -188 86 -188 213c0 13 1 27 2 40h-84l8 36h80c5 31 13 59 24 86h-83z" />
    <glyph glyph-name="guilsinglleft" unicode="&#x2039;" horiz-adv-x="323" 
d="M264 413l21 -24l-158 -169l94 -171l-25 -18l-171 178l2 20z" />
    <glyph glyph-name="guilsinglright" unicode="&#x203a;" horiz-adv-x="323" 
d="M37 30l-21 22l157 168l-93 172l25 20l171 -180l-3 -20z" />
    <glyph glyph-name="daggerdbl" unicode="&#x2021;" horiz-adv-x="313" 
d="M87 586l12 63s66 -9 107 -12c7 46 9 116 9 116h65s-25 -71 -35 -116c42 3 112 12 112 12l-12 -63s-68 10 -107 13l-23 -110c42 3 114 13 114 13l-13 -64s-68 11 -108 14c-7 -46 -9 -116 -9 -116l-66 -1s24 70 35 117c-42 -4 -110 -14 -110 -14l13 64s65 -10 105 -13
l23 110c-42 -3 -112 -13 -112 -13z" />
    <glyph glyph-name="periodcentered" unicode="&#xb7;" horiz-adv-x="287" 
d="M141 200c-42 0 -78 37 -78 79s36 78 78 78c43 0 79 -36 79 -78s-36 -79 -79 -79z" />
    <glyph glyph-name="quotesinglbase" unicode="&#x201a;" horiz-adv-x="269" 
d="M13 -106l-11 21c53 34 87 72 87 116c0 34 -16 56 -61 67c1 46 27 77 72 77c37 0 74 -31 74 -90c0 -86 -79 -155 -161 -191z" />
    <glyph glyph-name="quotedblbase" unicode="&#x201e;" horiz-adv-x="468" 
d="M13 -106l-11 21c53 34 87 72 87 116c0 34 -16 56 -61 67c1 46 27 77 72 77c37 0 74 -31 74 -90c0 -86 -79 -155 -161 -191zM213 -106l-11 21c53 34 87 72 87 116c0 34 -17 56 -62 67c1 46 28 77 73 77c37 0 74 -31 74 -90c0 -86 -79 -155 -161 -191z" />
    <glyph glyph-name="perthousand" unicode="&#x2030;" horiz-adv-x="1229" 
d="M255 594c-53 0 -103 -105 -103 -207c0 -51 13 -84 45 -84c50 0 104 103 104 206c0 52 -15 85 -46 85zM728 645l-577 -696h-46l576 696h47zM196 275c-87 0 -140 63 -140 145c0 104 85 202 201 202c82 0 138 -62 138 -144c0 -103 -82 -203 -199 -203zM641 302
c-52 0 -103 -105 -103 -207c0 -51 14 -85 45 -85c50 0 104 104 104 206c0 52 -15 86 -46 86zM582 -17c-87 0 -140 63 -140 144c0 105 85 203 201 203c82 0 138 -63 138 -145c0 -102 -82 -202 -199 -202zM1027 302c-53 0 -103 -105 -103 -207c0 -51 13 -85 45 -85
c50 0 103 104 103 206c0 52 -14 86 -45 86zM968 -17c-87 0 -140 63 -140 144c0 105 85 203 200 203c83 0 139 -63 139 -145c0 -102 -82 -202 -199 -202z" />
    <glyph glyph-name="Acircumflex" unicode="&#xc2;" horiz-adv-x="718" 
d="M-44 0l6 29l69 19l371 636l38 7l49 8l97 -648l65 -23l-6 -28h-289l5 29l86 21l-24 179h-232l-98 -177l101 -24l-6 -28h-232zM377 562l-157 -280h196l-38 280h-1zM339 745h-46l145 147h87l81 -147h-42l-95 76z" />
    <glyph glyph-name="Ecircumflex" unicode="&#xca;" horiz-adv-x="616" 
d="M369 338h-115l-57 -284c11 -8 28 -16 62 -16h152l124 181h30l-66 -219h-527l6 29l78 21l117 579l-73 23l5 28h437l74 2l-30 -198h-29l-38 159h-207l-51 -267h116l52 96h29l-46 -238h-32zM284 745h-46l145 147h87l81 -147h-42l-95 76z" />
    <glyph glyph-name="Aacute" unicode="&#xc1;" horiz-adv-x="718" 
d="M-44 0l6 29l69 19l371 636l38 7l49 8l97 -648l65 -23l-6 -28h-289l5 29l86 21l-24 179h-232l-98 -177l101 -24l-6 -28h-232zM377 562l-157 -280h196l-38 280h-1zM507 892h121v-12l-162 -135h-43z" />
    <glyph glyph-name="Edieresis" unicode="&#xcb;" horiz-adv-x="616" 
d="M369 338h-115l-57 -284c11 -8 28 -16 62 -16h152l124 181h30l-66 -219h-527l6 29l78 21l117 579l-73 23l5 28h437l74 2l-30 -198h-29l-38 159h-207l-51 -267h116l52 96h29l-46 -238h-32zM284 759c-36 0 -65 28 -65 63c0 36 29 66 65 66c35 0 64 -30 64 -66
c0 -35 -29 -63 -64 -63zM515 759c-35 0 -63 28 -63 63c0 36 28 66 63 66c36 0 66 -30 66 -66c0 -35 -30 -63 -66 -63z" />
    <glyph glyph-name="Egrave" unicode="&#xc8;" horiz-adv-x="616" 
d="M369 338h-115l-57 -284c11 -8 28 -16 62 -16h152l124 181h30l-66 -219h-527l6 29l78 21l117 579l-73 23l5 28h437l74 2l-30 -198h-29l-38 159h-207l-51 -267h116l52 96h29l-46 -238h-32zM270 892h114l48 -147h-41l-121 135v12z" />
    <glyph glyph-name="Iacute" unicode="&#xcd;" horiz-adv-x="347" 
d="M-28 0l6 29l78 21l117 579l-73 23l5 28h289l-5 -29l-79 -21l-115 -580l71 -22l-5 -28h-289zM321 892h120v-12l-161 -135h-43z" />
    <glyph glyph-name="Icircumflex" unicode="&#xce;" horiz-adv-x="347" 
d="M-28 0l6 29l78 21l117 579l-73 23l5 28h289l-5 -29l-79 -21l-115 -580l71 -22l-5 -28h-289zM150 745h-47l146 147h87l81 -147h-42l-95 76z" />
    <glyph glyph-name="Idieresis" unicode="&#xcf;" horiz-adv-x="347" 
d="M175 759c-36 0 -64 27 -64 62c0 36 28 65 64 65s66 -29 66 -65c0 -35 -30 -62 -66 -62zM369 759c-36 0 -65 27 -65 62c0 36 29 65 65 65c35 0 65 -29 65 -65c0 -35 -30 -62 -65 -62zM-28 0l6 29l78 21l117 579l-73 23l5 28h289l-5 -29l-79 -21l-115 -580l71 -22l-5 -28
h-289z" />
    <glyph glyph-name="Igrave" unicode="&#xcc;" horiz-adv-x="347" 
d="M-28 0l6 29l78 21l117 579l-73 23l5 28h289l-5 -29l-79 -21l-115 -580l71 -22l-5 -28h-289zM133 892h114l48 -147h-41l-121 135v12z" />
    <glyph glyph-name="Oacute" unicode="&#xd3;" horiz-adv-x="790" 
d="M528 892h121v-12l-162 -135h-43zM466 698c147 0 293 -108 293 -314c0 -191 -158 -404 -415 -404c-143 0 -289 107 -289 313c0 195 159 405 411 405zM608 454c0 101 -43 210 -143 210c-160 0 -260 -235 -260 -433c0 -108 40 -218 142 -218c167 0 261 239 261 441z" />
    <glyph glyph-name="Ocircumflex" unicode="&#xd4;" horiz-adv-x="790" 
d="M466 698c147 0 293 -108 293 -314c0 -191 -158 -404 -415 -404c-143 0 -289 107 -289 313c0 195 159 405 411 405zM608 454c0 101 -43 210 -143 210c-160 0 -260 -235 -260 -433c0 -108 40 -218 142 -218c167 0 261 239 261 441zM359 745h-46l146 147h87l81 -147h-42
l-96 76z" />
    <glyph glyph-name="Ograve" unicode="&#xd2;" horiz-adv-x="790" 
d="M338 892h114l48 -147h-41l-121 135v12zM466 698c147 0 293 -108 293 -314c0 -191 -158 -404 -415 -404c-143 0 -289 107 -289 313c0 195 159 405 411 405zM608 454c0 101 -43 210 -143 210c-160 0 -260 -235 -260 -433c0 -108 40 -218 142 -218c167 0 261 239 261 441z
" />
    <glyph glyph-name="Uacute" unicode="&#xda;" horiz-adv-x="739" 
d="M544 892h121v-12l-162 -135h-43zM338 -23c-176 0 -280 93 -235 318l67 334l-71 23l4 28h296l-6 -29l-85 -22l-72 -368c-27 -138 32 -214 140 -214c103 0 188 60 218 237l60 342l-86 24l4 30h223l-5 -30l-80 -22l-69 -357c-33 -170 -120 -294 -303 -294z" />
    <glyph glyph-name="Ucircumflex" unicode="&#xdb;" horiz-adv-x="739" 
d="M338 -23c-176 0 -280 93 -235 318l67 334l-71 23l4 28h296l-6 -29l-85 -22l-72 -368c-27 -138 32 -214 140 -214c103 0 188 60 218 237l60 342l-86 24l4 30h223l-5 -30l-80 -22l-69 -357c-33 -170 -120 -294 -303 -294zM376 745h-46l145 147h87l81 -147h-42l-95 76z" />
    <glyph glyph-name="Ugrave" unicode="&#xd9;" horiz-adv-x="739" 
d="M348 892h114l48 -147h-41l-121 135v12zM338 -23c-176 0 -280 93 -235 318l67 334l-71 23l4 28h296l-6 -29l-85 -22l-72 -368c-27 -138 32 -214 140 -214c103 0 188 60 218 237l60 342l-86 24l4 30h223l-5 -30l-80 -22l-69 -357c-33 -170 -120 -294 -303 -294z" />
    <glyph glyph-name="dotlessi" unicode="&#x131;" horiz-adv-x="289" 
d="M122 417c-17 12 -57 16 -90 8l3 16c34 32 85 68 145 68c43 0 81 -29 59 -114l-83 -301h4c31 22 66 64 90 101l24 -11c-51 -104 -138 -196 -204 -196c-36 0 -59 27 -43 92z" />
    <glyph glyph-name="circumflex" unicode="&#x2c6;" horiz-adv-x="409" 
d="M140 577h-34l136 204h61l53 -204h-33l-67 118z" />
    <glyph glyph-name="tilde" unicode="&#x2dc;" horiz-adv-x="409" 
d="M75 595l-19 8l7 17c47 109 105 120 182 87l34 -15c51 -22 85 -24 127 43l18 -9l-9 -19c-54 -115 -104 -126 -183 -92l-33 15c-68 29 -90 19 -124 -35z" />
    <glyph glyph-name="macron" unicode="&#xaf;" horiz-adv-x="409" 
d="M80 639l14 68h289l-13 -68h-290z" />
    <glyph glyph-name="breve" unicode="&#x2d8;" horiz-adv-x="409" 
d="M221 586c-77 0 -117 60 -106 178h24c6 -75 41 -104 90 -104c54 0 91 38 118 104h24c-15 -104 -65 -178 -150 -178z" />
    <glyph glyph-name="dotaccent" unicode="&#x2d9;" horiz-adv-x="409" 
d="M169 683c0 39 31 70 70 70c38 0 68 -31 68 -70c0 -38 -30 -69 -68 -69c-39 0 -70 31 -70 69z" />
    <glyph glyph-name="ring" unicode="&#x2da;" horiz-adv-x="314" 
d="M129 688c0 57 47 104 107 104c61 0 106 -45 106 -103c0 -57 -47 -103 -108 -103s-105 44 -105 102zM168 689c0 -41 31 -69 68 -69s66 28 66 68s-31 70 -68 70s-66 -29 -66 -69z" />
    <glyph glyph-name="cedilla" unicode="&#xb8;" horiz-adv-x="267" 
d="M-9 -257l-3 20c54 16 110 40 110 84c0 31 -26 45 -44 51l79 111h31l-43 -63c47 -12 74 -37 74 -71c0 -82 -103 -116 -204 -132z" />
    <glyph glyph-name="hungarumlaut" unicode="&#x2dd;" horiz-adv-x="409" 
d="M165 781h100v-9l-136 -195h-29zM322 781h99v-9l-135 -195h-29z" />
    <glyph glyph-name="ogonek" unicode="&#x2db;" horiz-adv-x="461" 
d="M327 13h22c-100 -91 -125 -116 -125 -151c0 -20 14 -38 42 -38c26 0 47 11 82 46l17 -13c-38 -61 -88 -112 -148 -112c-55 0 -85 37 -85 77c0 63 55 103 195 191z" />
    <glyph glyph-name="caron" unicode="&#x2c7;" horiz-adv-x="409" 
d="M346 781h33l-135 -204h-62l-53 204h33l67 -117z" />
    <glyph glyph-name="space_uni0326" horiz-adv-x="409" 
d="M95 -263l-8 23c73 27 100 49 100 82c0 24 -20 41 -52 46v4c7 31 35 55 76 55c46 0 77 -35 77 -74c0 -67 -72 -107 -193 -136z" />
    <glyph glyph-name="caron.alt" horiz-adv-x="409" 
d="M157 538h-24l56 207h104l-1 -7z" />
    <glyph glyph-name="space_uni0326.alt" horiz-adv-x="409" 
d="M322 821l8 -23c-73 -26 -101 -49 -101 -82c0 -23 21 -41 53 -46v-3c-7 -31 -35 -56 -75 -56c-47 0 -78 35 -78 74c0 67 72 108 193 136z" />
    <glyph glyph-name="grave.uc" horiz-adv-x="409" 
d="M136 892h114l48 -147h-41l-121 135v12z" />
    <glyph glyph-name="dieresis.uc" horiz-adv-x="409" 
d="M161 759c-36 0 -65 28 -65 63c0 36 29 66 65 66c35 0 64 -30 64 -66c0 -35 -29 -63 -64 -63zM392 759c-35 0 -63 28 -63 63c0 36 28 66 63 66c36 0 66 -30 66 -66c0 -35 -30 -63 -66 -63z" />
    <glyph glyph-name="macron.uc" horiz-adv-x="409" 
d="M110 785l14 68h298l-14 -68h-298z" />
    <glyph glyph-name="acute.uc" horiz-adv-x="409" 
d="M325 892h120v-12l-161 -135h-43z" />
    <glyph glyph-name="circumflex.uc" horiz-adv-x="409" 
d="M171 745h-46l145 147h87l81 -147h-42l-95 76z" />
    <glyph glyph-name="caron.uc" horiz-adv-x="409" 
d="M392 892h46l-145 -147h-87l-81 147h42l94 -76z" />
    <glyph glyph-name="breve.uc" horiz-adv-x="409" 
d="M279 741c-89 0 -124 66 -122 145h29c16 -44 43 -73 102 -73c57 0 90 30 116 73h27c-13 -77 -60 -145 -152 -145z" />
    <glyph glyph-name="dotaccent.uc" horiz-adv-x="409" 
d="M225 825c0 38 32 70 70 70s69 -32 69 -70c0 -37 -31 -68 -69 -68s-70 31 -70 68z" />
    <glyph glyph-name="ring.uc" horiz-adv-x="409" 
d="M196 856c0 58 46 103 106 103c61 0 107 -44 107 -102c0 -57 -47 -103 -108 -103s-105 45 -105 102zM234 857c0 -40 31 -69 68 -69s67 28 67 68c0 41 -31 70 -68 70s-67 -28 -67 -69z" />
    <glyph glyph-name="tilde.uc" horiz-adv-x="409" 
d="M139 765l-18 8l7 15c48 104 99 119 180 89l34 -13c57 -20 89 -21 129 40l17 -8l-9 -19c-52 -111 -93 -125 -180 -94l-35 13c-69 25 -92 23 -125 -31z" />
    <glyph glyph-name="hungarumlaut.uc" horiz-adv-x="409" 
d="M500 892v-11l-129 -136h-43l67 147h105zM329 892v-11l-129 -136h-42l66 147h105z" />
    <glyph glyph-name="cedilla.uc" horiz-adv-x="267" 
d="M-9 -257l-3 20c54 16 110 40 110 84c0 31 -26 44 -44 51l79 102l36 4l-44 -59c37 -10 70 -32 70 -70c0 -82 -103 -116 -204 -132z" />
    <glyph glyph-name="Dcroat" unicode="&#x110;" horiz-adv-x="760" 
d="M-28 0l6 29l78 21l55 273h-92l9 38h90l54 268l-73 23l5 28l222 1c253 1 406 -108 406 -291c0 -251 -215 -397 -511 -393zM402 323h-154l-52 -266c22 -13 52 -22 91 -22c193 3 296 172 296 350c0 179 -111 261 -270 266l-57 -290h154z" />
    <glyph glyph-name="Eng" unicode="&#x14a;" horiz-adv-x="720" 
d="M284 -216l-5 21c136 50 185 119 210 223l-290 520l-90 -496l88 -24l-6 -28h-219l6 29l79 21l109 549c-16 23 -41 38 -60 45l-17 8l5 28h190l271 -484l77 432l-87 24l5 28h218l-5 -29l-79 -21l-110 -548c-39 -196 -106 -269 -290 -298z" />
    <glyph glyph-name="IJ" unicode="&#x132;" horiz-adv-x="689" 
d="M-28 0l6 29l78 21l117 579l-73 23l5 28h289l-5 -29l-79 -21l-115 -580l71 -22l-5 -28h-289zM652 630l-113 -572c-32 -161 -107 -249 -307 -279l-5 22c118 57 148 132 172 246l115 583l-82 22l5 28h299l-5 -29z" />
    <glyph glyph-name="uni0237" unicode="&#x237;" horiz-adv-x="272" 
d="M20 11l102 405c-18 13 -58 17 -90 9l1 16c34 32 85 68 145 68c43 0 82 -29 60 -120l-84 -344c-40 -167 -156 -303 -279 -303c-36 0 -82 24 -83 65c-1 39 29 64 66 76c27 -59 49 -90 75 -90c36 0 55 90 87 218z" />
    <glyph glyph-name="dcroat" unicode="&#x111;" horiz-adv-x="563" 
d="M259 572l9 37h171l16 62l-75 39l4 12l216 44l-40 -157h73l-9 -37h-73l-121 -478h3c31 22 65 63 91 101l24 -11c-54 -114 -142 -195 -202 -196c-43 0 -60 37 -43 91l40 128h-5c-43 -77 -140 -223 -238 -223c-47 0 -96 34 -93 132c6 187 169 392 329 392c30 0 52 -5 74 -13
l20 77h-171zM380 378l14 58c-17 25 -39 38 -61 38c-93 0 -186 -188 -191 -340c-2 -41 13 -59 30 -59c50 0 174 170 208 303z" />
    <glyph glyph-name="eng" unicode="&#x14b;" horiz-adv-x="542" 
d="M288 11l95 368c7 25 1 36 -13 36c-52 0 -167 -165 -216 -330l-23 -75l-113 -25l-14 15l117 418c-15 11 -52 15 -88 7l2 16c33 32 84 68 136 68c56 0 86 -42 61 -124l-31 -102h7c67 119 151 226 241 226c53 0 83 -33 60 -117l-88 -347c-43 -167 -161 -303 -284 -303
c-37 0 -82 25 -82 67c0 40 36 64 67 74c26 -59 53 -90 77 -90c34 0 55 89 89 218z" />
    <glyph glyph-name="ij" unicode="&#x133;" horiz-adv-x="542" 
d="M120 417c-16 12 -56 16 -89 8l2 16c34 32 86 68 146 68c43 0 82 -29 58 -114l-82 -301h4c30 22 65 64 90 101l24 -11c-51 -104 -138 -196 -204 -196c-36 0 -61 27 -43 92zM148 683c0 38 32 70 70 70c39 0 70 -32 70 -70c0 -39 -33 -70 -71 -70c-39 0 -69 31 -69 70z
M292 11l101 405c-18 13 -58 17 -90 9l1 16c34 32 86 68 146 68c43 0 81 -29 59 -120l-84 -344c-40 -167 -156 -303 -279 -303c-36 0 -82 24 -83 65c-1 39 29 64 66 76c27 -59 50 -90 76 -90c36 0 55 90 87 218zM420 683c0 38 30 70 69 70s70 -32 70 -70
c0 -39 -33 -70 -71 -70c-39 0 -68 31 -68 70z" />
    <glyph glyph-name="Abreve" unicode="&#x102;" horiz-adv-x="718" 
d="M-44 0l6 29l69 19l371 636l38 7l49 8l97 -648l65 -23l-6 -28h-289l5 29l86 21l-24 179h-232l-98 -177l101 -24l-6 -28h-232zM377 562l-157 -280h196l-38 280h-1zM451 741c-89 0 -124 66 -122 145h29c16 -44 43 -73 102 -73c57 0 91 30 117 73h26
c-13 -77 -60 -145 -152 -145z" />
    <glyph glyph-name="Amacron" unicode="&#x100;" horiz-adv-x="718" 
d="M-44 0l6 29l69 19l371 636l38 7l49 8l97 -648l65 -23l-6 -28h-289l5 29l86 21l-24 179h-232l-98 -177l101 -24l-6 -28h-232zM377 562l-157 -280h196l-38 280h-1zM310 785l15 68h298l-15 -68h-298z" />
    <glyph glyph-name="Aogonek" unicode="&#x104;" horiz-adv-x="718" 
d="M-44 0l6 29l69 19l371 636l38 7l49 8l97 -648l65 -23l-6 -28h-175c-95 -55 -120 -98 -120 -132c0 -27 15 -44 44 -44c25 0 46 11 82 46l17 -13c-39 -61 -89 -112 -149 -112c-55 0 -85 37 -85 77c0 62 49 102 193 198l-29 209h-232l-98 -177l101 -24l-6 -28h-232zM377 562
l-157 -280h196l-38 280h-1z" />
    <glyph glyph-name="Aringacute" unicode="&#x1fa;" horiz-adv-x="718" 
d="M-44 0l6 29l69 19l371 636l38 7l49 8l97 -648l65 -23l-6 -28h-289l5 29l86 21l-24 179h-232l-98 -177l101 -24l-6 -28h-232zM359 829c0 58 47 104 107 104c61 0 106 -45 106 -103c0 -57 -46 -103 -107 -103s-106 45 -106 102zM377 562l-157 -280h196l-38 280h-1zM398 830
c0 -40 31 -68 68 -68s66 27 66 67c0 41 -30 70 -67 70s-67 -28 -67 -69zM553 1109h121v-12l-162 -134h-43z" />
    <glyph glyph-name="AEacute" unicode="&#x1fc;" horiz-adv-x="978" 
d="M731 332h-114l-55 -277c11 -8 29 -16 63 -16h147l124 180h31l-66 -219h-519l6 29l74 21l55 281h-179l-202 -279l100 -24l-6 -28h-231l6 28l62 19l441 581l-84 24l5 28h515l74 2l-31 -198h-28l-38 158h-203l-53 -269h115l51 93h28l-46 -232h-33zM539 637h-11l-197 -263
h155zM729 892h121v-12l-162 -135h-43z" />
    <glyph glyph-name="Cacute" unicode="&#x106;" horiz-adv-x="733" 
d="M379 -17c-186 0 -324 104 -324 299c0 216 197 415 470 415c82 0 150 -28 203 -57l-29 -188h-24l-35 154c-35 34 -74 54 -129 54c-136 0 -298 -141 -298 -399c0 -155 84 -242 188 -242c51 0 92 16 124 40l110 174h27l-56 -204c-51 -18 -131 -46 -227 -46zM565 892h121v-12
l-162 -135h-43z" />
    <glyph glyph-name="Ccaron" unicode="&#x10c;" horiz-adv-x="733" 
d="M379 -17c-186 0 -324 104 -324 299c0 216 197 415 470 415c82 0 150 -28 203 -57l-29 -188h-24l-35 154c-35 34 -74 54 -129 54c-136 0 -298 -141 -298 -399c0 -155 84 -242 188 -242c51 0 92 16 124 40l110 174h27l-56 -204c-51 -18 -131 -46 -227 -46zM650 892h46
l-145 -147h-87l-81 147h42l94 -76z" />
    <glyph glyph-name="Ccircumflex" unicode="&#x108;" horiz-adv-x="733" 
d="M379 -17c-186 0 -324 104 -324 299c0 216 197 415 470 415c82 0 150 -28 203 -57l-29 -188h-24l-35 154c-35 34 -74 54 -129 54c-136 0 -298 -141 -298 -399c0 -155 84 -242 188 -242c51 0 92 16 124 40l110 174h27l-56 -204c-51 -18 -131 -46 -227 -46zM391 745h-46
l145 147h88l80 -147h-42l-95 76z" />
    <glyph glyph-name="Cdotaccent" unicode="&#x10a;" horiz-adv-x="733" 
d="M379 -17c-186 0 -324 104 -324 299c0 216 197 415 470 415c82 0 150 -28 203 -57l-29 -188h-24l-35 154c-35 34 -74 54 -129 54c-136 0 -298 -141 -298 -399c0 -155 84 -242 188 -242c51 0 92 16 124 40l110 174h27l-56 -204c-51 -18 -131 -46 -227 -46zM458 825
c0 38 31 70 69 70s69 -32 69 -70c0 -37 -31 -68 -69 -68s-69 31 -69 68z" />
    <glyph glyph-name="Dcaron" unicode="&#x10e;" horiz-adv-x="760" 
d="M-28 0l6 29l78 21l117 579l-73 23l5 28l221 1c253 2 406 -108 406 -291c0 -251 -215 -397 -511 -393zM314 651l-118 -594c22 -13 52 -22 91 -22c193 3 296 172 296 350c0 179 -110 261 -269 266zM564 892h46l-145 -147h-87l-81 147h42l94 -76z" />
    <glyph glyph-name="Ebreve" unicode="&#x114;" horiz-adv-x="616" 
d="M369 338h-115l-57 -284c11 -8 28 -16 62 -16h152l124 181h30l-66 -219h-527l6 29l78 21l117 579l-73 23l5 28h437l74 2l-30 -198h-29l-38 159h-207l-51 -267h116l52 96h29l-46 -238h-32zM396 741c-89 0 -124 66 -122 145h30c16 -44 43 -73 102 -73c57 0 90 30 116 73h27
c-13 -77 -61 -145 -153 -145z" />
    <glyph glyph-name="Ecaron" unicode="&#x11a;" horiz-adv-x="616" 
d="M369 338h-115l-57 -284c11 -8 28 -16 62 -16h152l124 181h30l-66 -219h-527l6 29l78 21l117 579l-73 23l5 28h437l74 2l-30 -198h-29l-38 159h-207l-51 -267h116l52 96h29l-46 -238h-32zM544 892h46l-146 -147h-87l-81 147h42l95 -76z" />
    <glyph glyph-name="Edotaccent" unicode="&#x116;" horiz-adv-x="616" 
d="M369 338h-115l-57 -284c11 -8 28 -16 62 -16h152l124 181h30l-66 -219h-527l6 29l78 21l117 579l-73 23l5 28h437l74 2l-30 -198h-29l-38 159h-207l-51 -267h116l52 96h29l-46 -238h-32zM345 825c0 38 32 70 70 70s68 -32 68 -70c0 -37 -30 -68 -68 -68s-70 31 -70 68z
" />
    <glyph glyph-name="Emacron" unicode="&#x112;" horiz-adv-x="616" 
d="M369 338h-115l-57 -284c11 -8 28 -16 62 -16h152l124 181h30l-66 -219h-527l6 29l78 21l117 579l-73 23l5 28h437l74 2l-30 -198h-29l-38 159h-207l-51 -267h116l52 96h29l-46 -238h-32zM251 785l14 68h298l-14 -68h-298z" />
    <glyph glyph-name="Eogonek" unicode="&#x118;" horiz-adv-x="616" 
d="M369 338h-115l-57 -284c11 -8 28 -16 62 -16h152l124 181h30l-66 -219h-82c-88 -80 -110 -105 -110 -138c0 -20 14 -38 42 -38c26 0 47 11 82 46l16 -13c-38 -61 -87 -112 -147 -112c-55 0 -85 37 -85 77c0 60 48 99 173 178h-416l6 29l78 21l117 579l-73 23l5 28h437
l74 2l-30 -198h-29l-38 159h-207l-51 -267h116l52 96h29l-46 -238h-32z" />
    <glyph glyph-name="Gbreve" unicode="&#x11e;" horiz-adv-x="755" 
d="M509 741c-89 0 -124 66 -122 145h30c16 -44 42 -73 101 -73c57 0 91 30 117 73h27c-13 -77 -61 -145 -153 -145zM211 262c-1 -157 79 -243 175 -243c58 0 110 28 121 86l28 141l-101 20l6 32h289l-6 -32l-55 -20l-39 -201c-69 -28 -155 -63 -269 -63
c-174 0 -305 127 -305 305c0 215 185 410 466 410c88 0 151 -27 210 -55l-34 -190h-25l-35 161c-29 29 -70 47 -122 47c-137 0 -304 -139 -304 -398z" />
    <glyph glyph-name="Gcircumflex" unicode="&#x11c;" horiz-adv-x="755" 
d="M211 262c-1 -157 79 -243 175 -243c58 0 110 28 121 86l28 141l-101 20l6 32h289l-6 -32l-55 -20l-39 -201c-69 -28 -155 -63 -269 -63c-174 0 -305 127 -305 305c0 215 185 410 466 410c88 0 151 -27 210 -55l-34 -190h-25l-35 161c-29 29 -70 47 -122 47
c-137 0 -304 -139 -304 -398zM393 745h-46l146 147h87l80 -147h-42l-95 76z" />
    <glyph glyph-name="Gcommaaccent" unicode="&#x122;" horiz-adv-x="755" 
d="M239 -263l-9 23c73 27 101 49 101 82c0 24 -20 41 -52 46v4c7 31 34 55 75 55c46 0 77 -35 77 -74c0 -67 -71 -107 -192 -136zM211 262c-1 -157 79 -243 175 -243c58 0 110 28 121 86l28 141l-101 20l6 32h289l-6 -32l-55 -20l-39 -201c-69 -28 -155 -63 -269 -63
c-174 0 -305 127 -305 305c0 215 185 410 466 410c88 0 151 -27 210 -55l-34 -190h-25l-35 161c-29 29 -70 47 -122 47c-137 0 -304 -139 -304 -398z" />
    <glyph glyph-name="Gdotaccent" unicode="&#x120;" horiz-adv-x="755" 
d="M458 825c0 38 31 70 69 70s69 -32 69 -70c0 -37 -31 -68 -69 -68s-69 31 -69 68zM211 262c-1 -157 79 -243 175 -243c58 0 110 28 121 86l28 141l-101 20l6 32h289l-6 -32l-55 -20l-39 -201c-69 -28 -155 -63 -269 -63c-174 0 -305 127 -305 305c0 215 185 410 466 410
c88 0 151 -27 210 -55l-34 -190h-25l-35 161c-29 29 -70 47 -122 47c-137 0 -304 -139 -304 -398z" />
    <glyph glyph-name="Hbar" unicode="&#x126;" horiz-adv-x="776" 
d="M398 0l5 29l83 21l57 284h-291l-56 -284l72 -22l-5 -28h-291l6 29l78 21l89 445h-96l8 40h96l19 94l-72 23l5 28h292l-6 -29l-81 -22l-18 -94h291l18 95l-74 22l5 28h292l-6 -29l-79 -21l-19 -95h98l-8 -40h-97l-88 -445l71 -22l-5 -28h-293zM284 495l-24 -120h291
l23 120h-290z" />
    <glyph glyph-name="Hcircumflex" unicode="&#x124;" horiz-adv-x="776" 
d="M398 0l5 29l83 21l57 284h-292l-55 -284l72 -22l-5 -28h-291l6 29l78 21l116 579l-73 23l5 28h292l-6 -29l-81 -22l-50 -254h292l50 255l-74 22l5 28h292l-6 -29l-79 -21l-114 -580l71 -22l-5 -28h-293zM368 745h-46l145 147h87l81 -147h-42l-95 76z" />
    <glyph glyph-name="Idotaccent" unicode="&#x130;" horiz-adv-x="347" 
d="M-28 0l6 29l78 21l117 579l-73 23l5 28h289l-5 -29l-79 -21l-115 -580l71 -22l-5 -28h-289zM199 825c0 38 31 70 69 70s69 -32 69 -70c0 -37 -31 -68 -69 -68s-69 31 -69 68z" />
    <glyph glyph-name="Ibreve" unicode="&#x12c;" horiz-adv-x="347" 
d="M-28 0l6 29l78 21l117 579l-73 23l5 28h289l-5 -29l-79 -21l-115 -580l71 -22l-5 -28h-289zM264 741c-89 0 -124 66 -122 145h30c16 -44 42 -73 101 -73c57 0 91 30 117 73h27c-13 -77 -61 -145 -153 -145z" />
    <glyph glyph-name="Imacron" unicode="&#x12a;" horiz-adv-x="347" 
d="M135 785l13 68h274l-14 -68h-273zM-28 0l6 29l78 21l117 579l-73 23l5 28h289l-5 -29l-79 -21l-115 -580l71 -22l-5 -28h-289z" />
    <glyph glyph-name="Iogonek" unicode="&#x12e;" horiz-adv-x="347" 
d="M-28 0l6 29l78 21l117 579l-73 23l5 28h289l-5 -29l-79 -21l-115 -580l71 -22l-5 -28h-127c-58 -79 -73 -105 -73 -136c0 -25 16 -40 41 -40s48 11 83 46l17 -13c-38 -61 -88 -112 -148 -112c-55 0 -85 37 -85 78c0 59 47 98 137 177h-134z" />
    <glyph glyph-name="Itilde" unicode="&#x128;" horiz-adv-x="347" 
d="M-28 0l6 29l78 21l117 579l-73 23l5 28h289l-5 -29l-79 -21l-115 -580l71 -22l-5 -28h-289zM113 765l-19 8l7 15c48 104 100 119 181 89l33 -13c57 -20 89 -21 129 40l18 -8l-9 -19c-52 -111 -94 -125 -181 -94l-34 13c-69 25 -92 23 -125 -31z" />
    <glyph glyph-name="Jcircumflex" unicode="&#x134;" horiz-adv-x="356" 
d="M319 630l-113 -572c-32 -161 -106 -249 -306 -279l-5 22c118 57 148 132 172 246l114 583l-82 22l5 28h299l-5 -29zM157 745h-46l145 147h87l81 -147h-42l-95 76z" />
    <glyph glyph-name="Kcommaaccent" unicode="&#x136;" horiz-adv-x="704" 
d="M-28 0l6 29l78 21l116 579l-72 23l5 28h295l-5 -29l-85 -22l-114 -578l72 -23l-4 -28h-292zM663 28l-6 -28c-218 -22 -223 -8 -396 358v1l333 270l-81 21l4 30h219l-5 -30l-77 -21l-274 -219c170 -346 192 -359 283 -382zM212 -263l-8 23c73 27 100 49 100 82
c0 24 -20 41 -52 46v4c7 31 35 55 76 55c46 0 76 -35 76 -74c0 -67 -71 -107 -192 -136z" />
    <glyph glyph-name="Lacute" unicode="&#x139;" horiz-adv-x="585" 
d="M324 892h120v-12l-161 -135h-43zM196 53c12 -8 30 -15 62 -15h127l137 208h34l-77 -246h-507l6 29l78 21l116 579l-72 23l5 28h295l-5 -29l-85 -22z" />
    <glyph glyph-name="Lcaron" unicode="&#x13d;" horiz-adv-x="585" 
d="M492 538h-24l56 207h104l-1 -7zM196 53c12 -8 30 -15 62 -15h127l137 208h34l-77 -246h-507l6 29l78 21l116 579l-72 23l5 28h295l-5 -29l-85 -22z" />
    <glyph glyph-name="Lcommaaccent" unicode="&#x13b;" horiz-adv-x="585" 
d="M132 -263l-8 23c73 27 100 49 100 82c0 24 -20 41 -52 46v4c7 31 35 55 76 55c46 0 77 -35 77 -74c0 -67 -72 -107 -193 -136zM196 53c12 -8 30 -15 62 -15h127l137 208h34l-77 -246h-507l6 29l78 21l116 579l-72 23l5 28h295l-5 -29l-85 -22z" />
    <glyph glyph-name="Ldot" unicode="&#x13f;" horiz-adv-x="586" 
d="M196 53c12 -8 30 -15 62 -15h127l132 185h33l-71 -223h-507l6 29l78 21l116 579l-72 23l5 28h295l-5 -29l-85 -22zM509 301c-39 0 -73 34 -73 73c0 40 34 73 73 73c41 0 75 -33 75 -73c0 -39 -34 -73 -75 -73z" />
    <glyph glyph-name="Nacute" unicode="&#x143;" horiz-adv-x="720" 
d="M562 -7h-53l-310 555l-90 -496l88 -24l-6 -28h-219l6 29l79 21l109 549c-16 23 -41 38 -60 45l-17 8l5 28h190l271 -484l77 432l-87 24l5 28h218l-5 -29l-79 -21l-98 -496zM509 892h121v-12l-162 -135h-43z" />
    <glyph glyph-name="Ncaron" unicode="&#x147;" horiz-adv-x="720" 
d="M562 -7h-53l-310 555l-90 -496l88 -24l-6 -28h-219l6 29l79 21l109 549c-16 23 -41 38 -60 45l-17 8l5 28h190l271 -484l77 432l-87 24l5 28h218l-5 -29l-79 -21l-98 -496zM594 892h46l-145 -147h-87l-81 147h42l94 -76z" />
    <glyph glyph-name="Ncommaaccent" unicode="&#x145;" horiz-adv-x="720" 
d="M562 -7h-53l-310 555l-90 -496l88 -24l-6 -28h-219l6 29l79 21l109 549c-16 23 -41 38 -60 45l-17 8l5 28h190l271 -484l77 432l-87 24l5 28h218l-5 -29l-79 -21l-98 -496zM189 -263l-8 23c73 27 101 49 101 82c0 24 -21 41 -53 46v4c7 31 35 55 76 55
c46 0 77 -35 77 -74c0 -67 -72 -107 -193 -136z" />
    <glyph glyph-name="Obreve" unicode="&#x14e;" horiz-adv-x="790" 
d="M484 741c-89 0 -124 66 -122 145h30c16 -44 43 -73 102 -73c57 0 90 30 116 73h27c-13 -77 -61 -145 -153 -145zM466 698c147 0 293 -108 293 -314c0 -191 -158 -404 -415 -404c-143 0 -289 107 -289 313c0 195 159 405 411 405zM608 454c0 101 -43 210 -143 210
c-160 0 -260 -235 -260 -433c0 -108 40 -218 142 -218c167 0 261 239 261 441z" />
    <glyph glyph-name="Ohungarumlaut" unicode="&#x150;" horiz-adv-x="790" 
d="M694 892v-11l-129 -136h-43l68 147h104zM523 892v-11l-129 -136h-42l67 147h104zM466 698c147 0 293 -108 293 -314c0 -191 -158 -404 -415 -404c-143 0 -289 107 -289 313c0 195 159 405 411 405zM608 454c0 101 -43 210 -143 210c-160 0 -260 -235 -260 -433
c0 -108 40 -218 142 -218c167 0 261 239 261 441z" />
    <glyph glyph-name="Omacron" unicode="&#x14c;" horiz-adv-x="790" 
d="M333 785l14 68h298l-14 -68h-298zM466 698c147 0 293 -108 293 -314c0 -191 -158 -404 -415 -404c-143 0 -289 107 -289 313c0 195 159 405 411 405zM608 454c0 101 -43 210 -143 210c-160 0 -260 -235 -260 -433c0 -108 40 -218 142 -218c167 0 261 239 261 441z" />
    <glyph glyph-name="Oslashacute" unicode="&#x1fe;" horiz-adv-x="790" 
d="M117 -41h-45l78 98c-56 53 -95 133 -95 236c0 195 159 405 411 405c54 0 109 -15 156 -45l54 70h45l-71 -90c65 -52 109 -136 109 -249c0 -191 -158 -404 -415 -404c-59 0 -119 19 -168 55zM610 456c0 36 -6 72 -17 105l-366 -462c23 -50 62 -86 120 -86
c167 0 263 240 263 443zM204 230c0 -31 3 -62 10 -91l361 457c-24 40 -60 68 -110 68c-160 0 -261 -236 -261 -434zM527 892h121v-12l-162 -135h-43z" />
    <glyph glyph-name="Racute" unicode="&#x154;" horiz-adv-x="700" 
d="M-28 0l6 29l78 21l116 579l-72 23l5 28l252 1c160 1 264 -58 264 -155c0 -101 -94 -152 -191 -177c126 -288 140 -299 229 -321l-5 -28c-212 -20 -212 -7 -345 312h-65l-51 -261l88 -23l-6 -28h-303zM311 652l-60 -307c154 5 229 75 229 171c0 78 -53 137 -169 136z
M452 892h120v-12l-161 -135h-43z" />
    <glyph glyph-name="Rcaron" unicode="&#x158;" horiz-adv-x="700" 
d="M-28 0l6 29l78 21l116 579l-72 23l5 28l252 1c160 1 264 -58 264 -155c0 -101 -94 -152 -191 -177c126 -288 140 -299 229 -321l-5 -28c-212 -20 -212 -7 -345 312h-65l-51 -261l88 -23l-6 -28h-303zM311 652l-60 -307c154 5 229 75 229 171c0 78 -53 137 -169 136z
M536 892h46l-146 -147h-87l-81 147h42l94 -76z" />
    <glyph glyph-name="Rcommaaccent" unicode="&#x156;" horiz-adv-x="700" 
d="M-28 0l6 29l78 21l116 579l-72 23l5 28l252 1c160 1 264 -58 264 -155c0 -101 -94 -152 -191 -177c126 -288 140 -299 229 -321l-5 -28c-212 -20 -212 -7 -345 312h-65l-51 -261l88 -23l-6 -28h-303zM311 652l-60 -307c154 5 229 75 229 171c0 78 -53 137 -169 136z
M219 -263l-8 23c73 27 100 49 100 82c0 24 -20 41 -52 46v4c7 31 35 55 76 55c46 0 77 -35 77 -74c0 -67 -72 -107 -193 -136z" />
    <glyph glyph-name="Sacute" unicode="&#x15a;" horiz-adv-x="558" 
d="M52 243h28l29 -182c31 -26 66 -42 114 -42c79 0 141 56 141 129c0 52 -21 87 -96 135l-44 28c-87 56 -113 99 -113 174c0 111 111 213 274 213c63 0 123 -20 168 -40l-44 -190h-26l-20 160c-30 20 -60 34 -101 34c-78 0 -129 -53 -129 -119c0 -50 20 -81 83 -122l54 -34
c86 -55 128 -96 128 -173c0 -146 -157 -233 -287 -233c-85 0 -159 32 -196 51zM435 892h121v-12l-162 -135h-43z" />
    <glyph glyph-name="Scedilla" unicode="&#x15e;" horiz-adv-x="558" 
d="M69 -257l-3 20c54 16 110 40 110 84c0 31 -26 45 -44 51l58 84c-76 4 -141 32 -175 50l37 211h28l29 -182c31 -26 66 -42 114 -42c79 0 141 56 141 129c0 52 -21 87 -96 135l-44 28c-87 56 -113 99 -113 174c0 111 111 213 274 213c63 0 123 -20 168 -40l-44 -190h-26
l-20 160c-30 20 -60 34 -101 34c-78 0 -129 -53 -129 -119c0 -50 20 -81 83 -122l54 -34c86 -55 128 -96 128 -173c0 -142 -149 -228 -276 -233l-23 -35c47 -12 73 -37 73 -71c0 -82 -102 -116 -203 -132z" />
    <glyph glyph-name="Scircumflex" unicode="&#x15c;" horiz-adv-x="558" 
d="M52 243h28l29 -182c31 -26 66 -42 114 -42c79 0 141 56 141 129c0 52 -21 87 -96 135l-44 28c-87 56 -113 99 -113 174c0 111 111 213 274 213c63 0 123 -20 168 -40l-44 -190h-26l-20 160c-30 20 -60 34 -101 34c-78 0 -129 -53 -129 -119c0 -50 20 -81 83 -122l54 -34
c86 -55 128 -96 128 -173c0 -146 -157 -233 -287 -233c-85 0 -159 32 -196 51zM268 745h-46l146 147h87l81 -147h-42l-96 76z" />
    <glyph glyph-name="Scommaaccent" unicode="&#x218;" horiz-adv-x="558" 
d="M52 243h28l29 -182c31 -26 66 -42 114 -42c79 0 141 56 141 129c0 52 -21 87 -96 135l-44 28c-87 56 -113 99 -113 174c0 111 111 213 274 213c63 0 123 -20 168 -40l-44 -190h-26l-20 160c-30 20 -60 34 -101 34c-78 0 -129 -53 -129 -119c0 -50 20 -81 83 -122l54 -34
c86 -55 128 -96 128 -173c0 -146 -157 -233 -287 -233c-85 0 -159 32 -196 51zM87 -263l-8 23c73 27 100 49 100 82c0 24 -20 41 -52 46v4c7 31 35 55 76 55c46 0 77 -35 77 -74c0 -67 -72 -107 -193 -136z" />
    <glyph glyph-name="Tcaron" unicode="&#x164;" horiz-adv-x="685" 
d="M204 680h435l80 5l-47 -202h-28l-20 157h-144l-118 -590l80 -22l-5 -28h-305l5 29l87 21l118 590h-139l-84 -157h-29l36 202zM581 892h46l-146 -147h-87l-81 147h42l95 -76z" />
    <glyph glyph-name="Tcommaaccent" unicode="&#x162;" horiz-adv-x="685" 
d="M204 680h435l80 5l-47 -202h-28l-20 157h-144l-118 -590l80 -22l-5 -28h-305l5 29l87 21l118 590h-139l-84 -157h-29l36 202zM142 -263l-8 23c73 27 100 49 100 82c0 24 -20 41 -52 46v4c7 31 35 55 76 55c46 0 77 -35 77 -74c0 -67 -72 -107 -193 -136z" />
    <glyph glyph-name="uni021A" unicode="&#x21a;" horiz-adv-x="685" 
d="M204 680h435l80 5l-47 -202h-28l-20 157h-144l-118 -590l80 -22l-5 -28h-305l5 29l87 21l118 590h-139l-84 -157h-29l36 202zM142 -263l-8 23c73 27 100 49 100 82c0 24 -20 41 -52 46v4c7 31 35 55 76 55c46 0 77 -35 77 -74c0 -67 -72 -107 -193 -136z" />
    <glyph glyph-name="Tbar" unicode="&#x166;" horiz-adv-x="685" 
d="M120 348l8 41h164l49 249h-138l-84 -155h-29l36 202l78 -5h435l80 5l-47 -202h-28l-20 155h-145l-49 -249h172l-8 -41h-172l-60 -298l80 -22l-5 -28h-305l5 29l87 21l60 298h-164z" />
    <glyph glyph-name="Ubreve" unicode="&#x16c;" horiz-adv-x="739" 
d="M338 -23c-176 0 -280 93 -235 318l67 334l-71 23l4 28h296l-6 -29l-85 -22l-72 -368c-27 -138 32 -214 140 -214c103 0 188 60 218 237l60 342l-86 24l4 30h223l-5 -30l-80 -22l-69 -357c-33 -170 -120 -294 -303 -294zM487 741c-89 0 -123 66 -121 145h29
c16 -44 43 -73 102 -73c57 0 90 30 116 73h27c-13 -77 -61 -145 -153 -145z" />
    <glyph glyph-name="Uhungarumlaut" unicode="&#x170;" horiz-adv-x="739" 
d="M710 892v-11l-129 -136h-43l67 147h105zM539 892v-11l-129 -136h-42l66 147h105zM338 -23c-176 0 -280 93 -235 318l67 334l-71 23l4 28h296l-6 -29l-85 -22l-72 -368c-27 -138 32 -214 140 -214c103 0 188 60 218 237l60 342l-86 24l4 30h223l-5 -30l-80 -22l-69 -357
c-33 -170 -120 -294 -303 -294z" />
    <glyph glyph-name="Umacron" unicode="&#x16a;" horiz-adv-x="739" 
d="M338 -23c-176 0 -280 93 -235 318l67 334l-71 23l4 28h296l-6 -29l-85 -22l-72 -368c-27 -138 32 -214 140 -214c103 0 188 60 218 237l60 342l-86 24l4 30h223l-5 -30l-80 -22l-69 -357c-33 -170 -120 -294 -303 -294zM347 785l14 68h298l-14 -68h-298z" />
    <glyph glyph-name="Uogonek" unicode="&#x172;" horiz-adv-x="739" 
d="M187 -178c0 54 40 90 139 155c-169 4 -267 98 -223 318l67 334l-71 23l4 28h296l-6 -29l-85 -22l-72 -368c-27 -138 32 -214 140 -214c103 0 188 60 218 237l60 342l-86 24l4 30h223l-5 -30l-80 -22l-69 -357c-32 -161 -110 -281 -274 -293c-69 -63 -87 -86 -87 -116
c0 -20 14 -38 42 -38c26 0 46 11 81 46l17 -13c-38 -61 -88 -112 -148 -112c-55 0 -85 37 -85 77z" />
    <glyph glyph-name="Uring" unicode="&#x16e;" horiz-adv-x="739" 
d="M338 -23c-176 0 -280 93 -235 318l67 334l-71 23l4 28h296l-6 -29l-85 -22l-72 -368c-27 -138 32 -214 140 -214c103 0 188 60 218 237l60 342l-86 24l4 30h223l-5 -30l-80 -22l-69 -357c-33 -170 -120 -294 -303 -294zM394 837c0 58 47 103 107 103
c61 0 106 -44 106 -102c0 -57 -46 -104 -107 -104s-106 46 -106 103zM433 838c0 -40 31 -69 68 -69s66 28 66 68c0 41 -30 69 -67 69s-67 -27 -67 -68z" />
    <glyph glyph-name="Utilde" unicode="&#x168;" horiz-adv-x="739" 
d="M338 -23c-176 0 -280 93 -235 318l67 334l-71 23l4 28h296l-6 -29l-85 -22l-72 -368c-27 -138 32 -214 140 -214c103 0 188 60 218 237l60 342l-86 24l4 30h223l-5 -30l-80 -22l-69 -357c-33 -170 -120 -294 -303 -294zM347 765l-18 8l7 15c48 104 99 119 180 89l34 -13
c57 -20 89 -21 129 40l17 -8l-9 -19c-52 -111 -93 -125 -180 -94l-35 13c-69 25 -92 23 -125 -31z" />
    <glyph glyph-name="Wacute" unicode="&#x1e82;" horiz-adv-x="975" 
d="M586 -9l-59 449l-247 -449h-63l-72 638l-58 22l5 29h278l-6 -29l-79 -24l45 -474l188 358l-15 118l-52 23l5 28h272l-5 -29l-83 -23l56 -470l224 471l-82 23l5 28h194l-6 -29l-57 -19l-325 -641h-63zM647 892h121v-12l-162 -135h-43z" />
    <glyph glyph-name="Wcircumflex" unicode="&#x174;" horiz-adv-x="975" 
d="M586 -9l-59 449l-247 -449h-63l-72 638l-58 22l5 29h278l-6 -29l-79 -24l45 -474l188 358l-15 118l-52 23l5 28h272l-5 -29l-83 -23l56 -470l224 471l-82 23l5 28h194l-6 -29l-57 -19l-325 -641h-63zM479 745h-46l146 147h87l80 -147h-41l-96 76z" />
    <glyph glyph-name="Wdieresis" unicode="&#x1e84;" horiz-adv-x="975" 
d="M586 -9l-59 449l-247 -449h-63l-72 638l-58 22l5 29h278l-6 -29l-79 -24l45 -474l188 358l-15 118l-52 23l5 28h272l-5 -29l-83 -23l56 -470l224 471l-82 23l5 28h194l-6 -29l-57 -19l-325 -641h-63zM488 759c-36 0 -64 28 -64 63c0 36 28 66 64 66c35 0 65 -30 65 -66
c0 -35 -30 -63 -65 -63zM720 759c-35 0 -64 28 -64 63c0 36 29 66 64 66c36 0 65 -30 65 -66c0 -35 -29 -63 -65 -63z" />
    <glyph glyph-name="Wgrave" unicode="&#x1e80;" horiz-adv-x="975" 
d="M586 -9l-59 449l-247 -449h-63l-72 638l-58 22l5 29h278l-6 -29l-79 -24l45 -474l188 358l-15 118l-52 23l5 28h272l-5 -29l-83 -23l56 -470l224 471l-82 23l5 28h194l-6 -29l-57 -19l-325 -641h-63zM451 892h113l48 -147h-41l-120 135v12z" />
    <glyph glyph-name="Ycircumflex" unicode="&#x176;" horiz-adv-x="677" 
d="M669 631l-258 -362l-43 -220l69 -22l-5 -27h-286l7 28l76 21l41 207l-120 373l-61 23l6 28h295l-6 -29l-87 -22l95 -325l220 323l-90 25l6 28h205l-5 -29zM351 745h-46l146 147h87l80 -147h-41l-96 76z" />
    <glyph glyph-name="Ygrave" unicode="&#x1ef2;" horiz-adv-x="677" 
d="M669 631l-258 -362l-43 -220l69 -22l-5 -27h-286l7 28l76 21l41 207l-120 373l-61 23l6 28h295l-6 -29l-87 -22l95 -325l220 323l-90 25l6 28h205l-5 -29zM327 892h113l48 -147h-41l-120 135v12z" />
    <glyph glyph-name="Zacute" unicode="&#x179;" horiz-adv-x="655" 
d="M-7 0l6 29l474 611h-265l-94 -176h-29l35 219l88 -3h451v-10l-489 -629h291l127 180h28l-69 -224l-89 3h-465zM453 892h120v-12l-161 -135h-43z" />
    <glyph glyph-name="Zdotaccent" unicode="&#x17b;" horiz-adv-x="655" 
d="M-7 0l6 29l474 611h-265l-94 -176h-29l35 219l88 -3h451v-10l-489 -629h291l127 180h28l-69 -224l-89 3h-465zM342 825c0 38 32 70 70 70s68 -32 68 -70c0 -37 -30 -68 -68 -68s-70 31 -70 68z" />
    <glyph glyph-name="abreve" unicode="&#x103;" 
d="M446 529h89l-119 -436h4c31 22 65 64 91 102l25 -11c-53 -111 -142 -196 -205 -196c-49 0 -56 48 -41 92l46 133h-7c-56 -92 -147 -229 -236 -229c-49 0 -88 31 -88 108c0 187 197 408 348 408c28 0 51 -7 70 -17zM165 79c51 0 167 173 209 302l16 50
c-14 19 -34 33 -57 33c-87 0 -189 -198 -194 -337c-1 -39 12 -48 26 -48zM376 586c-77 0 -118 60 -107 178h25c6 -75 41 -104 90 -104c54 0 91 38 118 104h23c-15 -104 -64 -178 -149 -178z" />
    <glyph glyph-name="amacron" unicode="&#x101;" 
d="M446 529h89l-119 -436h4c31 22 65 64 91 102l25 -11c-53 -111 -142 -196 -205 -196c-49 0 -56 48 -41 92l46 133h-7c-56 -92 -147 -229 -236 -229c-49 0 -88 31 -88 108c0 187 197 408 348 408c28 0 51 -7 70 -17zM165 79c51 0 167 173 209 302l16 50
c-14 19 -34 33 -57 33c-87 0 -189 -198 -194 -337c-1 -39 12 -48 26 -48zM239 639l14 68h289l-14 -68h-289z" />
    <glyph glyph-name="aogonek" unicode="&#x105;" 
d="M343 -11c0 0 -8 -1 -12 -1c-49 0 -56 48 -41 92l46 133h-7c-56 -92 -147 -229 -236 -229c-49 0 -88 30 -88 107c0 188 197 409 348 409c28 0 51 -7 70 -17l23 46h89l-119 -436h4c31 22 65 64 91 102l25 -11c-28 -55 -58 -99 -105 -145c-123 -123 -142 -144 -142 -178
c0 -19 14 -37 43 -37c25 0 46 11 81 46l17 -13c-39 -61 -88 -112 -148 -112c-56 0 -85 37 -85 77c0 61 52 97 147 164zM165 79c51 0 171 179 209 302l16 50c-14 19 -34 33 -57 33c-87 0 -189 -198 -194 -337c-1 -39 12 -48 26 -48z" />
    <glyph glyph-name="aringacute" unicode="&#x1fb;" 
d="M446 529h89l-119 -436h4c31 22 65 64 91 102l25 -11c-53 -111 -142 -196 -205 -196c-49 0 -56 48 -41 92l46 133h-7c-56 -92 -147 -229 -236 -229c-49 0 -88 31 -88 108c0 187 197 408 348 408c28 0 51 -7 70 -17zM165 79c51 0 167 173 209 302l16 50
c-14 19 -34 33 -57 33c-87 0 -189 -198 -194 -337c-1 -39 12 -48 26 -48zM289 650c0 57 46 104 106 104c61 0 107 -45 107 -103c0 -57 -47 -103 -108 -103s-105 44 -105 102zM328 651c0 -41 30 -69 67 -69s67 28 67 68s-31 70 -68 70s-66 -29 -66 -69zM483 932h121v-12
l-162 -135h-43z" />
    <glyph glyph-name="aeacute" unicode="&#x1fd;" horiz-adv-x="672" 
d="M384 -14c-65 0 -105 35 -121 87h-2c-52 -55 -90 -87 -160 -87c-51 0 -105 30 -105 105c2 70 57 107 158 131l120 29l23 84c2 66 -14 125 -79 125c-16 0 -34 -7 -45 -17l-14 -110c-8 -3 -28 -9 -45 -9c-29 0 -50 13 -49 44c0 63 117 137 220 142c81 0 107 -48 111 -106h3
c50 61 121 106 194 106c54 0 90 -30 89 -77c-1 -100 -144 -157 -294 -192c-2 -14 -4 -30 -4 -44c-4 -88 34 -124 74 -124c57 0 113 59 145 103l22 -12c-34 -75 -130 -178 -241 -178zM265 215l1 4l-60 -17c-66 -18 -88 -48 -89 -87c-2 -33 15 -62 51 -62c32 0 63 24 88 51
c-4 33 -1 71 9 111zM543 463c-48 0 -120 -89 -148 -193c115 43 175 100 177 158c0 23 -10 35 -29 35zM496 781h111v-8l-156 -196h-30z" />
    <glyph glyph-name="cacute" unicode="&#x107;" horiz-adv-x="436" 
d="M385 781h112v-8l-157 -196h-30zM274 453c-61 0 -120 -162 -121 -291c-1 -63 22 -89 57 -89c53 0 110 59 158 126l22 -14c-51 -97 -127 -199 -244 -199c-80 0 -132 62 -131 147c1 109 51 223 163 307c50 39 119 70 177 70c50 0 92 -35 92 -71c0 -32 -27 -67 -53 -80
c-40 50 -86 94 -120 94z" />
    <glyph glyph-name="ccaron" unicode="&#x10d;" horiz-adv-x="436" 
d="M274 453c-61 0 -120 -162 -121 -291c-1 -63 22 -89 57 -89c53 0 110 59 158 126l22 -14c-51 -97 -127 -199 -244 -199c-80 0 -132 62 -131 147c1 109 51 223 163 307c50 39 119 70 177 70c50 0 92 -35 92 -71c0 -32 -27 -67 -53 -80c-40 50 -86 94 -120 94zM460 781h33
l-136 -204h-61l-53 204h32l68 -117z" />
    <glyph glyph-name="ccircumflex" unicode="&#x109;" horiz-adv-x="436" 
d="M274 453c-61 0 -120 -162 -121 -291c-1 -63 22 -89 57 -89c53 0 110 59 158 126l22 -14c-51 -97 -127 -199 -244 -199c-80 0 -132 62 -131 147c1 109 51 223 163 307c50 39 119 70 177 70c50 0 92 -35 92 -71c0 -32 -27 -67 -53 -80c-40 50 -86 94 -120 94zM236 577h-34
l135 204h61l54 -204h-34l-67 118z" />
    <glyph glyph-name="cdotaccent" unicode="&#x10b;" horiz-adv-x="436" 
d="M274 453c-61 0 -120 -162 -121 -291c-1 -63 22 -89 57 -89c53 0 110 59 158 126l22 -14c-51 -97 -127 -199 -244 -199c-80 0 -132 62 -131 147c1 109 51 223 163 307c50 39 119 70 177 70c50 0 92 -35 92 -71c0 -32 -27 -67 -53 -80c-40 50 -86 94 -120 94zM282 683
c0 39 30 70 69 70c38 0 69 -31 69 -70c0 -38 -31 -69 -69 -69c-39 0 -69 31 -69 69z" />
    <glyph glyph-name="dcaron" unicode="&#x10f;" horiz-adv-x="563" 
d="M336 508c29 0 53 -6 73 -13l42 162l-71 53l4 12l216 44l-170 -672h3c31 22 65 63 91 101l24 -11c-54 -114 -142 -195 -202 -196c-43 0 -60 37 -43 91l40 128h-5c-43 -77 -140 -223 -238 -223c-47 0 -96 34 -93 132c6 187 169 392 329 392zM380 378l14 59
c-17 24 -39 37 -61 37c-93 0 -186 -188 -191 -340c-2 -41 13 -59 30 -59c50 0 175 170 208 303zM622 538h-24l56 207h104l-1 -7z" />
    <glyph glyph-name="ebreve" unicode="&#x115;" horiz-adv-x="434" 
d="M154 -14c-95 0 -142 65 -139 160c3 116 72 219 157 288c57 45 122 76 184 76c47 0 88 -27 86 -78c-2 -98 -156 -169 -294 -196c-2 -12 -3 -26 -3 -38c-2 -84 28 -125 77 -125s106 52 142 103l22 -12c-35 -72 -118 -178 -232 -178zM296 463c-50 0 -118 -91 -142 -199
c83 22 169 91 172 163c1 23 -10 36 -30 36zM326 586c-77 0 -118 60 -107 178h25c6 -75 41 -104 90 -104c54 0 91 38 118 104h23c-15 -104 -64 -178 -149 -178z" />
    <glyph glyph-name="ecaron" unicode="&#x11b;" horiz-adv-x="434" 
d="M154 -14c-95 0 -142 65 -139 160c3 116 72 219 157 288c57 45 122 76 184 76c47 0 88 -27 86 -78c-2 -98 -156 -169 -294 -196c-2 -12 -3 -26 -3 -38c-2 -84 28 -125 77 -125s106 52 142 103l22 -12c-35 -72 -118 -178 -232 -178zM446 781h33l-135 -204h-61l-54 204h33
l68 -117zM296 463c-50 0 -118 -91 -142 -199c83 22 169 91 172 163c1 23 -10 36 -30 36z" />
    <glyph glyph-name="edotaccent" unicode="&#x117;" horiz-adv-x="434" 
d="M154 -14c-95 0 -142 65 -139 160c3 116 72 219 157 288c57 45 122 76 184 76c47 0 88 -27 86 -78c-2 -98 -156 -169 -294 -196c-2 -12 -3 -26 -3 -38c-2 -84 28 -125 77 -125s106 52 142 103l22 -12c-35 -72 -118 -178 -232 -178zM296 463c-50 0 -118 -91 -142 -199
c83 22 169 91 172 163c1 23 -10 36 -30 36zM283 683c0 39 30 70 69 70c38 0 69 -31 69 -70c0 -38 -31 -69 -69 -69c-39 0 -69 31 -69 69z" />
    <glyph glyph-name="emacron" unicode="&#x113;" horiz-adv-x="434" 
d="M154 -14c-95 0 -142 65 -139 160c3 116 72 219 157 288c57 45 122 76 184 76c47 0 88 -27 86 -78c-2 -98 -156 -169 -294 -196c-2 -12 -3 -26 -3 -38c-2 -84 28 -125 77 -125s106 52 142 103l22 -12c-35 -72 -118 -178 -232 -178zM296 463c-50 0 -118 -91 -142 -199
c83 22 169 91 172 163c1 23 -10 36 -30 36zM191 639l15 68h289l-14 -68h-290z" />
    <glyph glyph-name="eogonek" unicode="&#x119;" horiz-adv-x="434" 
d="M215 -8l-1 4c-19 -6 -37 -10 -60 -10c-95 0 -141 65 -139 160c4 116 72 219 157 288c57 45 122 76 184 76c47 0 88 -27 86 -78c-2 -98 -156 -169 -294 -196c-2 -12 -3 -26 -3 -38c-2 -84 28 -125 77 -125s106 52 142 103l22 -12c-17 -36 -50 -84 -98 -132
c-120 -118 -142 -134 -142 -169c0 -23 14 -39 42 -39c26 0 47 11 82 46l17 -13c-38 -61 -88 -112 -148 -112c-55 0 -85 37 -85 77c0 63 48 99 161 170zM296 463c-50 0 -118 -91 -142 -199c83 22 169 91 172 163c1 23 -10 36 -30 36z" />
    <glyph glyph-name="gbreve" unicode="&#x11f;" horiz-adv-x="479" 
d="M281 507c31 0 57 -7 87 -13l146 10l-10 -68l-106 19l-1 -4c14 -15 30 -54 28 -94c-4 -100 -95 -206 -227 -206c-12 0 -24 1 -35 3c-15 -8 -25 -20 -25 -34c0 -13 7 -22 30 -31l162 -69c71 -30 91 -63 90 -102c-3 -98 -135 -173 -289 -173c-139 0 -212 45 -210 111
c2 58 74 94 179 116v4l-4 1c-35 13 -64 41 -63 83c1 48 42 70 95 100v5c-51 24 -84 74 -82 133c4 101 84 209 235 209zM261 -86l-126 48c-62 -19 -100 -41 -101 -85c-2 -55 57 -92 154 -92c76 1 137 35 138 73c0 19 -14 37 -65 56zM281 474c-59 0 -122 -132 -125 -232
c-1 -38 5 -63 33 -63c61 0 123 135 127 238c1 27 -6 57 -35 57zM309 586c-77 0 -117 60 -106 178h24c6 -75 41 -104 90 -104c54 0 91 38 118 104h24c-15 -104 -65 -178 -150 -178z" />
    <glyph glyph-name="gcircumflex" unicode="&#x11d;" horiz-adv-x="479" 
d="M281 507c31 0 57 -7 87 -13l146 10l-10 -68l-106 19l-1 -4c14 -15 30 -54 28 -94c-4 -100 -95 -206 -227 -206c-12 0 -24 1 -35 3c-15 -8 -25 -20 -25 -34c0 -13 7 -22 30 -31l162 -69c71 -30 91 -63 90 -102c-3 -98 -135 -173 -289 -173c-139 0 -212 45 -210 111
c2 58 74 94 179 116v4l-4 1c-35 13 -64 41 -63 83c1 48 42 70 95 100v5c-51 24 -84 74 -82 133c4 101 84 209 235 209zM261 -86l-126 48c-62 -19 -100 -41 -101 -85c-2 -55 57 -92 154 -92c76 1 137 35 138 73c0 19 -14 37 -65 56zM281 474c-59 0 -122 -132 -125 -232
c-1 -38 5 -63 33 -63c61 0 123 135 127 238c1 27 -6 57 -35 57zM212 577h-34l135 204h62l53 -204h-34l-66 118z" />
    <glyph glyph-name="gcommaaccent" unicode="&#x123;" horiz-adv-x="479" 
d="M446 821l9 -23c-73 -26 -101 -49 -101 -82c0 -23 21 -41 53 -46v-3c-7 -31 -35 -56 -75 -56c-47 0 -78 35 -78 74c0 67 71 108 192 136zM281 507c31 0 57 -7 87 -13l146 10l-10 -68l-106 19l-1 -4c14 -15 30 -54 28 -94c-4 -100 -95 -206 -227 -206c-12 0 -24 1 -35 3
c-15 -8 -25 -20 -25 -34c0 -13 7 -22 30 -31l162 -69c71 -30 91 -63 90 -102c-3 -98 -135 -173 -289 -173c-139 0 -212 45 -210 111c2 58 74 94 179 116v4l-4 1c-35 13 -64 41 -63 83c1 48 42 70 95 100v5c-51 24 -84 74 -82 133c4 101 84 209 235 209zM261 -86l-126 48
c-62 -19 -100 -41 -101 -85c-2 -55 57 -92 154 -92c76 1 137 35 138 73c0 19 -14 37 -65 56zM281 474c-59 0 -122 -132 -125 -232c-1 -38 5 -63 33 -63c61 0 123 135 127 238c1 27 -6 57 -35 57z" />
    <glyph glyph-name="gdotaccent" unicode="&#x121;" horiz-adv-x="479" 
d="M281 507c31 0 57 -7 87 -13l146 10l-10 -68l-106 19l-1 -4c14 -15 30 -54 28 -94c-4 -100 -95 -206 -227 -206c-12 0 -24 1 -35 3c-15 -8 -25 -20 -25 -34c0 -13 7 -22 30 -31l162 -69c71 -30 91 -63 90 -102c-3 -98 -135 -173 -289 -173c-139 0 -212 45 -210 111
c2 58 74 94 179 116v4l-4 1c-35 13 -64 41 -63 83c1 48 42 70 95 100v5c-51 24 -84 74 -82 133c4 101 84 209 235 209zM261 -86l-126 48c-62 -19 -100 -41 -101 -85c-2 -55 57 -92 154 -92c76 1 137 35 138 73c0 19 -14 37 -65 56zM281 474c-59 0 -122 -132 -125 -232
c-1 -38 5 -63 33 -63c61 0 123 135 127 238c1 27 -6 57 -35 57zM257 683c0 39 31 70 70 70c38 0 68 -31 68 -70c0 -38 -30 -69 -68 -69c-39 0 -70 31 -70 69z" />
    <glyph glyph-name="hbar" unicode="&#x127;" horiz-adv-x="550" 
d="M69 572l9 37h72l16 62l-67 39l4 12l207 45l-40 -158h170l-9 -37h-170l-73 -288h8c60 112 151 225 239 225c54 0 85 -33 62 -117l-81 -298h3c31 22 64 63 92 101l24 -11c-57 -112 -144 -196 -206 -196c-36 0 -60 26 -43 92l85 299c7 25 0 36 -14 36
c-50 0 -170 -164 -216 -330l-21 -75l-111 -25l-14 14l145 573h-71z" />
    <glyph glyph-name="hcircumflex" unicode="&#x125;" horiz-adv-x="550" 
d="M310 767l-122 -483h8c60 112 151 225 240 225c53 0 84 -33 61 -117l-81 -298h3c31 22 64 63 92 101l23 -11c-56 -112 -143 -196 -205 -196c-36 0 -60 26 -43 92l85 299c7 25 0 36 -14 36c-50 0 -169 -164 -216 -330l-21 -75l-111 -25l-14 15l168 657l-64 53l4 12z
M270 782h-46l146 147h87l81 -147h-42l-96 76z" />
    <glyph glyph-name="ibreve" unicode="&#x12d;" horiz-adv-x="288" 
d="M121 417c-17 12 -57 16 -90 8l3 16c34 32 85 68 145 68c43 0 81 -29 59 -114l-83 -301h4c31 22 66 64 90 101l24 -11c-51 -104 -138 -196 -204 -196c-36 0 -59 27 -43 92zM209 586c-77 0 -118 60 -107 178h25c6 -75 41 -104 90 -104c54 0 91 38 118 104h23
c-15 -104 -64 -178 -149 -178z" />
    <glyph glyph-name="imacron" unicode="&#x12b;" horiz-adv-x="288" 
d="M88 640l13 67h249l-13 -67h-249zM121 417c-17 12 -57 16 -90 8l3 16c34 32 85 68 145 68c43 0 81 -29 59 -114l-83 -301h4c31 22 66 64 90 101l24 -11c-51 -104 -138 -196 -204 -196c-36 0 -59 27 -43 92z" />
    <glyph glyph-name="iogonek" unicode="&#x12f;" horiz-adv-x="288" 
d="M120 417c-16 12 -56 16 -89 8l2 16c34 32 86 68 146 68c43 0 82 -29 58 -114l-82 -301h4c30 22 65 64 90 101l24 -11c-28 -54 -57 -99 -107 -148c-119 -121 -138 -141 -138 -175c0 -19 13 -37 42 -37c25 0 46 11 82 46l16 -13c-39 -61 -89 -112 -149 -112
c-55 0 -85 37 -85 77c0 61 53 97 148 164l-1 2h-10c-38 0 -62 29 -45 92zM219 613c-39 0 -68 31 -68 70c0 38 30 70 69 70c40 0 70 -32 70 -70c0 -39 -33 -70 -71 -70z" />
    <glyph glyph-name="itilde" unicode="&#x129;" horiz-adv-x="288" 
d="M86 592l-19 10l8 16c51 101 102 119 174 83l10 -5c46 -23 79 -18 119 42l19 -9l-10 -19c-56 -106 -102 -130 -176 -90l-11 6c-56 31 -79 19 -114 -34zM121 417c-17 12 -57 16 -90 8l3 16c34 32 85 68 145 68c43 0 81 -29 59 -114l-83 -301h4c31 22 66 64 90 101l24 -11
c-51 -104 -138 -196 -204 -196c-36 0 -59 27 -43 92z" />
    <glyph glyph-name="idotaccent" horiz-adv-x="288" 
d="M120 417c-16 12 -56 16 -89 8l2 16c34 32 86 68 146 68c43 0 81 -29 58 -114l-82 -301h4c30 22 68 69 93 106l24 -10c-52 -108 -140 -202 -207 -202c-36 0 -59 27 -43 92zM151 683c0 38 30 70 69 70s70 -32 70 -70c0 -39 -33 -70 -71 -70c-39 0 -68 31 -68 70z" />
    <glyph glyph-name="jcircumflex" unicode="&#x135;" horiz-adv-x="272" 
d="M20 11l102 405c-18 13 -58 17 -90 9l1 16c34 32 85 68 145 68c43 0 82 -29 60 -120l-84 -344c-40 -167 -156 -303 -279 -303c-36 0 -82 24 -83 65c-1 39 29 64 66 76c27 -59 49 -90 75 -90c36 0 55 90 87 218zM104 577h-33l135 204h61l54 -204h-34l-67 118z" />
    <glyph glyph-name="kcommaaccent" unicode="&#x137;" horiz-adv-x="519" 
d="M411 -42c-57 0 -77 13 -125 75l-114 147c-16 -36 -30 -73 -39 -109l-15 -62l-109 -24l-14 15l168 657l-65 53l5 12l207 45l-123 -481h8c61 113 143 223 236 223c46 0 79 -33 79 -84c0 -83 -83 -153 -222 -214l187 -225v-11c-11 -7 -32 -17 -64 -17zM374 420
c-51 0 -141 -109 -198 -232c147 61 232 135 232 193c0 25 -12 39 -34 39zM78 -263l-8 23c73 27 100 49 100 82c0 24 -20 41 -52 46v4c7 31 35 55 76 55c46 0 76 -35 76 -74c0 -67 -71 -107 -192 -136z" />
    <glyph glyph-name="kgreenlandic" unicode="&#x138;" horiz-adv-x="531" 
d="M121 418c-15 11 -52 15 -88 7l2 16c33 32 84 68 136 68c56 0 87 -43 61 -124l-33 -102h6c60 112 145 226 238 226c46 0 79 -33 79 -84c0 -84 -83 -154 -221 -215l186 -224v-11c-10 -7 -32 -17 -64 -17c-57 0 -77 13 -125 75l-113 148c-17 -37 -31 -74 -40 -110l-15 -62
l-112 -24l-13 15zM386 420c-51 0 -141 -109 -198 -232c148 61 232 135 232 193c0 25 -12 39 -34 39z" />
    <glyph glyph-name="lacute" unicode="&#x13a;" horiz-adv-x="275" 
d="M312 929h121v-13l-162 -134h-43zM259 184c-54 -115 -144 -196 -205 -196c-37 0 -59 26 -43 92l148 577l-71 53l4 12l215 45l-167 -673h4c34 25 64 61 92 101z" />
    <glyph glyph-name="lcaron" unicode="&#x13e;" horiz-adv-x="275" 
d="M330 538h-24l56 207h104l-1 -7zM259 184c-54 -115 -144 -196 -205 -196c-37 0 -59 26 -43 92l148 577l-71 53l4 12l215 45l-167 -673h4c34 25 64 61 92 101z" />
    <glyph glyph-name="lcommaaccent" unicode="&#x13c;" horiz-adv-x="275" 
d="M-68 -263l-8 23c73 27 101 49 101 82c0 24 -21 41 -53 46v4c7 31 35 55 76 55c46 0 77 -35 77 -74c0 -67 -72 -107 -193 -136zM259 184c-54 -115 -144 -196 -205 -196c-37 0 -59 26 -43 92l148 577l-71 53l4 12l215 45l-167 -673h4c34 25 64 61 92 101z" />
    <glyph glyph-name="ldot" unicode="&#x140;" horiz-adv-x="363" 
d="M330 313c-36 0 -68 32 -68 68c0 37 32 68 68 68c38 0 68 -31 68 -68c0 -36 -30 -68 -68 -68zM258 184c-54 -115 -144 -196 -205 -196c-37 0 -59 26 -43 92l148 577l-71 53l4 12l215 45l-167 -673h4c34 25 63 61 91 101z" />
    <glyph glyph-name="nacute" unicode="&#x144;" horiz-adv-x="563" 
d="M407 781h111v-8l-157 -196h-29zM4 0l117 418c-15 11 -52 15 -88 7l2 16c33 32 84 68 136 68c56 0 86 -42 61 -124l-31 -102h7c67 119 151 226 241 226c53 0 83 -33 60 -117l-81 -298h3c31 22 65 63 92 101l23 -11c-54 -110 -140 -196 -205 -196c-35 0 -60 26 -43 92
l85 299c7 25 1 36 -13 36c-52 0 -167 -165 -216 -330l-23 -75l-113 -25z" />
    <glyph glyph-name="napostrophe" unicode="&#x149;" horiz-adv-x="563" 
d="M35 550l-8 23c73 27 100 49 100 82c0 24 -20 41 -52 46v5c7 31 35 54 76 54c46 0 76 -35 76 -74c0 -67 -71 -107 -192 -136zM4 0l117 418c-15 11 -52 15 -88 7l2 16c33 32 84 68 136 68c56 0 86 -42 61 -124l-31 -102h7c67 119 151 226 241 226c53 0 83 -33 60 -117
l-81 -298h3c31 22 65 63 92 101l23 -11c-54 -110 -140 -196 -205 -196c-35 0 -60 26 -43 92l85 299c7 25 1 36 -13 36c-52 0 -167 -165 -216 -330l-23 -75l-113 -25z" />
    <glyph glyph-name="ncaron" unicode="&#x148;" horiz-adv-x="563" 
d="M4 0l117 418c-15 11 -52 15 -88 7l2 16c33 32 84 68 136 68c56 0 86 -42 61 -124l-31 -102h7c67 119 151 226 241 226c53 0 83 -33 60 -117l-81 -298h3c31 22 65 63 92 101l23 -11c-54 -110 -140 -196 -205 -196c-35 0 -60 26 -43 92l85 299c7 25 1 36 -13 36
c-52 0 -167 -165 -216 -330l-23 -75l-113 -25zM481 781h33l-135 -204h-62l-53 204h33l68 -117z" />
    <glyph glyph-name="ncommaaccent" unicode="&#x146;" horiz-adv-x="563" 
d="M89 -263l-8 23c73 27 100 49 100 82c0 24 -20 41 -52 46v4c7 31 35 55 76 55c46 0 77 -35 77 -74c0 -67 -72 -107 -193 -136zM4 0l117 418c-15 11 -52 15 -88 7l2 16c33 32 84 68 136 68c56 0 86 -42 61 -124l-31 -102h7c67 119 151 226 241 226c53 0 83 -33 60 -117
l-81 -298h3c31 22 65 63 92 101l23 -11c-54 -110 -140 -196 -205 -196c-35 0 -60 26 -43 92l85 299c7 25 1 36 -13 36c-52 0 -167 -165 -216 -330l-23 -75l-113 -25z" />
    <glyph glyph-name="obreve" unicode="&#x14f;" horiz-adv-x="520" 
d="M316 479c-83 0 -158 -223 -163 -351c-3 -68 6 -114 44 -114c82 0 164 210 170 348c2 57 -6 117 -51 117zM327 508c119 0 171 -95 171 -195c0 -146 -110 -327 -305 -327c-118 0 -171 84 -171 198c0 139 106 324 305 324zM343 586c-77 0 -117 60 -106 178h24
c6 -75 41 -104 90 -104c54 0 91 38 118 104h24c-15 -104 -65 -178 -150 -178z" />
    <glyph glyph-name="ohungarumlaut" unicode="&#x151;" horiz-adv-x="520" 
d="M301 781h100v-9l-136 -195h-28zM458 781h99v-9l-135 -195h-29zM316 479c-83 0 -158 -223 -163 -351c-3 -68 6 -114 44 -114c82 0 164 210 170 348c2 57 -6 117 -51 117zM327 508c119 0 171 -95 171 -195c0 -146 -110 -327 -305 -327c-118 0 -171 84 -171 198
c0 139 106 324 305 324z" />
    <glyph glyph-name="omacron" unicode="&#x14d;" horiz-adv-x="520" 
d="M205 639l14 68h289l-13 -68h-290zM316 479c-83 0 -158 -223 -163 -351c-3 -68 6 -114 44 -114c82 0 164 210 170 348c2 57 -6 117 -51 117zM327 508c119 0 171 -95 171 -195c0 -146 -110 -327 -305 -327c-118 0 -171 84 -171 198c0 139 106 324 305 324z" />
    <glyph glyph-name="oslashacute" unicode="&#x1ff;" horiz-adv-x="520" 
d="M51 -51h-39l64 84c-36 38 -55 93 -53 156c7 147 116 319 305 319c33 0 62 -10 87 -24l49 66h40l-65 -85c41 -38 63 -97 61 -155c-7 -151 -115 -324 -306 -324c-37 0 -69 10 -95 27zM372 360v15l-222 -295c4 -39 17 -66 48 -66c85 0 168 207 174 346zM316 479
c-85 0 -161 -219 -166 -348l219 292c-6 34 -23 56 -53 56zM394 781h112v-8l-157 -196h-30z" />
    <glyph glyph-name="racute" unicode="&#x155;" horiz-adv-x="433" 
d="M360 781h112v-8l-157 -196h-29zM4 0l114 419c-22 13 -56 14 -88 7l2 16c36 36 88 67 140 67c49 0 83 -35 57 -113l-56 -169h11c98 214 154 283 216 283c38 0 60 -22 60 -55c0 -58 -54 -100 -94 -115h-23c18 37 19 64 1 64c-39 0 -138 -172 -185 -310l-29 -84l-112 -25z
" />
    <glyph glyph-name="rcaron" unicode="&#x159;" horiz-adv-x="433" 
d="M4 0l114 419c-22 13 -56 14 -88 7l2 16c36 36 88 67 140 67c49 0 83 -35 57 -113l-56 -169h11c98 214 154 283 216 283c38 0 60 -22 60 -55c0 -58 -54 -100 -94 -115h-23c18 37 19 64 1 64c-39 0 -138 -172 -185 -310l-29 -84l-112 -25zM435 781h33l-135 -204h-62
l-53 204h33l67 -117z" />
    <glyph glyph-name="rcommaaccent" unicode="&#x157;" horiz-adv-x="433" 
d="M-65 -263l-8 23c73 27 101 49 101 82c0 24 -21 41 -53 46v4c7 31 35 55 76 55c46 0 77 -35 77 -74c0 -67 -72 -107 -193 -136zM4 0l114 419c-22 13 -56 14 -88 7l2 16c36 36 88 67 140 67c49 0 83 -35 57 -113l-56 -169h11c98 214 154 283 216 283c38 0 60 -22 60 -55
c0 -58 -54 -100 -94 -115h-23c18 37 19 64 1 64c-39 0 -138 -172 -185 -310l-29 -84l-112 -25z" />
    <glyph glyph-name="sacute" unicode="&#x15b;" horiz-adv-x="363" 
d="M321 781h111v-8l-157 -196h-29zM315 155c0 -78 -99 -171 -207 -171c-74 0 -123 48 -123 96c0 27 12 52 34 75h3c51 -70 105 -120 155 -120c24 0 44 18 44 42c0 26 -15 49 -40 76l-68 76c-45 50 -56 75 -55 107c2 90 119 175 207 175c59 0 103 -36 102 -80
c-1 -29 -14 -48 -34 -73h-2c-44 53 -94 96 -138 96c-24 0 -43 -17 -43 -40s10 -41 40 -74l66 -74c46 -52 59 -76 59 -111z" />
    <glyph glyph-name="scedilla" unicode="&#x15f;" horiz-adv-x="363" 
d="M-36 -257l-3 20c54 16 111 40 111 84c0 31 -26 45 -44 51l61 87c-63 7 -104 51 -104 95c0 27 12 52 34 75h3c51 -70 105 -120 155 -120c24 0 44 18 44 42c0 26 -15 49 -40 76l-68 76c-45 50 -56 75 -55 107c2 90 119 175 207 175c59 0 103 -36 102 -80
c-1 -29 -14 -48 -34 -73h-2c-44 53 -94 96 -138 96c-24 0 -43 -17 -43 -40s10 -41 40 -74l66 -74c46 -52 59 -76 59 -111c0 -75 -93 -163 -195 -170l-26 -39c47 -12 74 -37 74 -71c0 -82 -103 -116 -204 -132z" />
    <glyph glyph-name="scircumflex" unicode="&#x15d;" horiz-adv-x="363" 
d="M315 155c0 -78 -99 -171 -207 -171c-74 0 -123 48 -123 96c0 27 12 52 34 75h3c51 -70 105 -120 155 -120c24 0 44 18 44 42c0 26 -15 49 -40 76l-68 76c-45 50 -56 75 -55 107c2 90 119 175 207 175c59 0 103 -36 102 -80c-1 -29 -14 -48 -34 -73h-2
c-44 53 -94 96 -138 96c-24 0 -43 -17 -43 -40s10 -41 40 -74l66 -74c46 -52 59 -76 59 -111zM171 577h-34l135 204h62l53 -204h-34l-66 118z" />
    <glyph glyph-name="scommaaccent" unicode="&#x219;" horiz-adv-x="363" 
d="M-32 -263l-8 23c73 27 100 49 100 82c0 24 -20 41 -52 46v4c7 31 35 55 76 55c46 0 77 -35 77 -74c0 -67 -72 -107 -193 -136zM315 155c0 -78 -99 -171 -207 -171c-74 0 -123 48 -123 96c0 27 12 52 34 75h3c51 -70 105 -120 155 -120c24 0 44 18 44 42
c0 26 -15 49 -40 76l-68 76c-45 50 -56 75 -55 107c2 90 119 175 207 175c59 0 103 -36 102 -80c-1 -29 -14 -48 -34 -73h-2c-44 53 -94 96 -138 96c-24 0 -43 -17 -43 -40s10 -41 40 -74l66 -74c46 -52 59 -76 59 -111z" />
    <glyph glyph-name="tbar" unicode="&#x167;" horiz-adv-x="362" 
d="M37 447l4 35l105 17l76 137h70l-31 -141h133l-8 -48h-133l-24 -91h140l-8 -43h-142l-56 -224h4c49 24 115 101 144 142l25 -15c-59 -100 -155 -228 -253 -228c-36 0 -61 31 -49 79l61 246h-73l7 43h76l24 91h-92z" />
    <glyph glyph-name="tcaron" unicode="&#x165;" horiz-adv-x="362" 
d="M357 545h-23l56 208h104l-1 -8zM32 447l4 35l105 17l76 137h70l-31 -141h133l-8 -48h-133l-90 -358h4c49 24 115 101 144 142l25 -15c-59 -100 -155 -228 -253 -228c-36 0 -61 31 -49 79l95 380h-92z" />
    <glyph glyph-name="tcommaaccent" unicode="&#x163;" horiz-adv-x="362" 
d="M-49 -263l-8 23c73 27 100 49 100 82c0 24 -20 41 -52 46v4c7 31 35 55 76 55c46 0 76 -35 76 -74c0 -67 -71 -107 -192 -136zM32 447l4 35l105 17l76 137h70l-31 -141h133l-8 -48h-133l-90 -358h4c49 24 115 101 144 142l25 -15c-59 -100 -155 -228 -253 -228
c-36 0 -61 31 -49 79l95 380h-92z" />
    <glyph glyph-name="uni021B" unicode="&#x21b;" horiz-adv-x="362" 
d="M-49 -263l-8 23c73 27 100 49 100 82c0 24 -20 41 -52 46v4c7 31 35 55 76 55c46 0 76 -35 76 -74c0 -67 -71 -107 -192 -136zM32 447l4 35l105 17l76 137h70l-31 -141h133l-8 -48h-133l-90 -358h4c49 24 115 101 144 142l25 -15c-59 -100 -155 -228 -253 -228
c-36 0 -61 31 -49 79l95 380h-92z" />
    <glyph glyph-name="ubreve" unicode="&#x16d;" 
d="M31 111l83 307c-15 11 -54 15 -87 7l2 16c34 32 85 68 144 68c49 0 75 -38 53 -121l-70 -276c-5 -22 2 -28 11 -28c54 0 178 191 215 326l20 77l114 19l10 -12l-103 -400h4c30 22 63 63 90 101l23 -11c-55 -111 -142 -196 -204 -196c-37 0 -59 25 -39 93l52 170h-5
c-57 -101 -140 -264 -258 -264c-48 0 -80 33 -55 124zM341 586c-77 0 -118 60 -107 178h25c6 -75 41 -104 90 -104c54 0 91 38 118 104h23c-15 -104 -64 -178 -149 -178z" />
    <glyph glyph-name="uhungarumlaut" unicode="&#x171;" 
d="M31 111l83 307c-15 11 -54 15 -87 7l2 16c34 32 85 68 144 68c49 0 75 -38 53 -121l-70 -276c-5 -22 2 -28 11 -28c54 0 178 191 215 326l20 77l114 19l10 -12l-103 -400h4c30 22 63 63 90 101l23 -11c-55 -111 -142 -196 -204 -196c-37 0 -59 25 -39 93l52 170h-5
c-57 -101 -140 -264 -258 -264c-48 0 -80 33 -55 124zM300 781h100v-9l-136 -195h-28zM457 781h99v-9l-135 -195h-29z" />
    <glyph glyph-name="umacron" unicode="&#x16b;" 
d="M204 642l13 68h280l-14 -68h-279zM31 111l83 307c-15 11 -54 15 -87 7l2 16c34 32 85 68 144 68c49 0 75 -38 53 -121l-70 -276c-5 -22 2 -28 11 -28c54 0 178 191 215 326l20 77l114 19l10 -12l-103 -400h4c30 22 63 63 90 101l23 -11c-55 -111 -142 -196 -204 -196
c-37 0 -59 25 -39 93l52 170h-5c-57 -101 -140 -264 -258 -264c-48 0 -80 33 -55 124z" />
    <glyph glyph-name="uogonek" unicode="&#x173;" 
d="M348 -11c0 0 -8 -1 -12 -1c-37 0 -59 25 -39 93l52 170h-5c-57 -101 -140 -264 -258 -264c-48 0 -80 33 -55 124l83 307c-15 11 -54 15 -87 7l2 16c34 32 85 68 144 68c49 0 75 -38 53 -121l-70 -276c-5 -22 2 -28 11 -28c54 0 178 191 215 326l20 77l114 19l10 -12
l-103 -400h4c30 22 63 63 90 101l23 -11c-27 -55 -58 -99 -104 -145c-122 -124 -142 -144 -142 -178c0 -19 13 -37 42 -37c26 0 47 11 82 46l16 -13c-38 -61 -87 -112 -147 -112c-56 0 -85 37 -85 77c0 61 52 97 147 164z" />
    <glyph glyph-name="uring" unicode="&#x16f;" 
d="M239 688c0 57 46 104 106 104c61 0 107 -45 107 -103c0 -57 -47 -103 -108 -103s-105 44 -105 102zM278 689c0 -41 30 -69 67 -69s67 28 67 68s-31 70 -68 70s-66 -29 -66 -69zM31 111l83 307c-15 11 -54 15 -87 7l2 16c34 32 85 68 144 68c49 0 75 -38 53 -121l-70 -276
c-5 -22 2 -28 11 -28c54 0 178 191 215 326l20 77l114 19l10 -12l-103 -400h4c30 22 63 63 90 101l23 -11c-55 -111 -142 -196 -204 -196c-37 0 -59 25 -39 93l52 170h-5c-57 -101 -140 -264 -258 -264c-48 0 -80 33 -55 124z" />
    <glyph glyph-name="utilde" unicode="&#x169;" 
d="M31 111l83 307c-15 11 -54 15 -87 7l2 16c34 32 85 68 144 68c49 0 75 -38 53 -121l-70 -276c-5 -22 2 -28 11 -28c54 0 178 191 215 326l20 77l114 19l10 -12l-103 -400h4c30 22 63 63 90 101l23 -11c-55 -111 -142 -196 -204 -196c-37 0 -59 25 -39 93l52 170h-5
c-57 -101 -140 -264 -258 -264c-48 0 -80 33 -55 124zM182 595l-18 8l7 17c47 109 104 120 181 87l34 -15c51 -22 85 -24 127 43l18 -9l-9 -19c-54 -115 -103 -126 -182 -92l-34 15c-68 29 -90 19 -124 -35z" />
    <glyph glyph-name="wacute" unicode="&#x1e83;" horiz-adv-x="711" 
d="M465 781h112v-8l-157 -196h-30zM460 409v-313h3c116 143 158 221 158 277c0 39 -24 58 -58 58c-11 0 -28 -2 -42 -6l3 17c39 42 79 68 117 68c50 0 75 -36 75 -85c0 -89 -103 -195 -213 -323l-101 -116h-9l-48 19l1 211h-3c-36 -44 -69 -85 -131 -166l-50 -64h-11l-50 19
l-6 409c-12 10 -31 16 -56 16c-10 0 -24 -2 -34 -5l3 16c39 41 89 68 132 68c49 0 72 -30 73 -95l3 -312h3c41 50 89 114 123 164l-2 151c-11 7 -25 13 -47 13c-10 0 -24 -2 -35 -5l2 16c40 42 88 68 130 68c37 0 70 -18 70 -100z" />
    <glyph glyph-name="wcircumflex" unicode="&#x175;" horiz-adv-x="711" 
d="M460 409v-313h3c116 143 158 221 158 277c0 39 -24 58 -58 58c-11 0 -28 -2 -42 -6l3 17c39 42 79 68 117 68c50 0 75 -36 75 -85c0 -89 -103 -195 -213 -323l-101 -116h-9l-48 19l1 211h-3c-36 -44 -69 -85 -131 -166l-50 -64h-11l-50 19l-6 409c-12 10 -31 16 -56 16
c-10 0 -24 -2 -34 -5l3 16c39 41 89 68 132 68c49 0 72 -30 73 -95l3 -312h3c41 50 89 114 123 164l-2 151c-11 7 -25 13 -47 13c-10 0 -24 -2 -35 -5l2 16c40 42 88 68 130 68c37 0 70 -18 70 -100zM315 577h-33l135 204h61l53 -204h-33l-67 118z" />
    <glyph glyph-name="wdieresis" unicode="&#x1e85;" horiz-adv-x="711" 
d="M334 620c-36 0 -65 27 -65 63s29 66 65 66c35 0 64 -30 64 -66s-29 -63 -64 -63zM526 620c-35 0 -63 27 -63 63s28 66 63 66c36 0 66 -30 66 -66s-30 -63 -66 -63zM460 409v-313h3c116 143 158 221 158 277c0 39 -24 58 -58 58c-11 0 -28 -2 -42 -6l3 17
c39 42 79 68 117 68c50 0 75 -36 75 -85c0 -89 -103 -195 -213 -323l-101 -116h-9l-48 19l1 211h-3c-36 -44 -69 -85 -131 -166l-50 -64h-11l-50 19l-6 409c-12 10 -31 16 -56 16c-10 0 -24 -2 -34 -5l3 16c39 41 89 68 132 68c49 0 72 -30 73 -95l3 -312h3
c41 50 89 114 123 164l-2 151c-11 7 -25 13 -47 13c-10 0 -24 -2 -35 -5l2 16c40 42 88 68 130 68c37 0 70 -18 70 -100z" />
    <glyph glyph-name="wgrave" unicode="&#x1e81;" horiz-adv-x="711" 
d="M460 409v-313h3c116 143 158 221 158 277c0 39 -24 58 -58 58c-11 0 -28 -2 -42 -6l3 17c39 42 79 68 117 68c50 0 75 -36 75 -85c0 -89 -103 -195 -213 -323l-101 -116h-9l-48 19l1 211h-3c-36 -44 -69 -85 -131 -166l-50 -64h-11l-50 19l-6 409c-12 10 -31 16 -56 16
c-10 0 -24 -2 -34 -5l3 16c39 41 89 68 132 68c49 0 72 -30 73 -95l3 -312h3c41 50 89 114 123 164l-2 151c-11 7 -25 13 -47 13c-10 0 -24 -2 -35 -5l2 16c40 42 88 68 130 68c37 0 70 -18 70 -100zM288 781h111l24 -204h-28l-107 195v9z" />
    <glyph glyph-name="ycircumflex" unicode="&#x177;" horiz-adv-x="497" 
d="M37 278h-25c8 148 64 229 144 229c68 0 123 -78 125 -262c1 -87 -11 -181 -34 -251h7c75 106 156 223 154 353c0 48 -19 101 -51 140c19 13 47 23 69 23c30 0 60 -17 61 -83c4 -254 -368 -682 -550 -682c-43 0 -79 26 -79 74c-1 37 26 70 68 70c40 0 64 -31 80 -89h4
c114 51 153 247 153 390c0 144 -28 222 -60 222c-28 0 -47 -46 -66 -134zM210 577h-34l135 204h62l53 -204h-34l-66 118z" />
    <glyph glyph-name="ygrave" unicode="&#x1ef3;" horiz-adv-x="497" 
d="M37 278h-25c8 148 64 229 144 229c68 0 123 -78 125 -262c1 -87 -11 -181 -34 -251h7c75 106 156 223 154 353c0 48 -19 101 -51 140c19 13 47 23 69 23c30 0 60 -17 61 -83c4 -254 -368 -682 -550 -682c-43 0 -79 26 -79 74c-1 37 26 70 68 70c40 0 64 -31 80 -89h4
c114 51 153 247 153 390c0 144 -28 222 -60 222c-28 0 -47 -46 -66 -134zM182 781h112l23 -204h-27l-108 195v9z" />
    <glyph glyph-name="zacute" unicode="&#x17a;" horiz-adv-x="486" 
d="M467 510l41 -36l-345 -323l92 -37c97 -40 132 -10 188 72l24 -11c-61 -135 -116 -193 -188 -193c-24 0 -49 7 -96 29l-112 52l-62 -80l-39 35l355 333l-124 47c-56 22 -93 28 -98 5c-7 -17 12 -40 66 -66c-18 -40 -45 -63 -80 -63c-32 0 -54 23 -54 58
c0 70 105 180 191 180c34 0 53 -7 119 -38l71 -34zM379 781h111v-8l-156 -196h-30z" />
    <glyph glyph-name="zdotaccent" unicode="&#x17c;" horiz-adv-x="486" 
d="M467 510l41 -36l-345 -323l92 -37c97 -40 132 -10 188 72l24 -11c-61 -135 -116 -193 -188 -193c-24 0 -49 7 -96 29l-112 52l-62 -80l-39 35l355 333l-124 47c-56 22 -93 28 -98 5c-7 -17 12 -40 66 -66c-18 -40 -45 -63 -80 -63c-32 0 -54 23 -54 58
c0 70 105 180 191 180c34 0 53 -7 119 -38l71 -34zM276 683c0 39 31 70 70 70c38 0 69 -31 69 -70c0 -38 -31 -69 -69 -69c-39 0 -70 31 -70 69z" />
    <glyph glyph-name="oneeighth" unicode="&#x215b;" horiz-adv-x="806" 
d="M443 84c-1 57 49 87 115 103c-43 29 -56 57 -56 91c0 60 59 116 157 116c74 0 124 -37 124 -80c0 -50 -40 -78 -102 -97l14 -9c42 -28 62 -54 63 -87c1 -80 -82 -131 -174 -131c-81 0 -141 36 -141 94zM282 687l-75 -354l62 -12l-3 -22h-243l4 22l77 12l60 279l-82 -3v23
l189 55h11zM92 -84l-26 25l619 800l28 -22zM612 154l-33 20c-28 -18 -51 -48 -51 -85c1 -40 26 -76 70 -76c36 0 68 25 67 66c0 26 -13 49 -53 75zM586 312c1 -26 15 -41 49 -64l27 -19c26 22 44 47 44 84c-1 34 -27 59 -59 59c-38 0 -62 -25 -61 -60z" />
    <glyph glyph-name="onethird" unicode="&#x2153;" horiz-adv-x="785" 
d="M633 217v-5c65 -6 106 -41 106 -89c0 -85 -104 -133 -191 -133c-66 0 -113 26 -113 62c0 19 15 42 49 47c24 -58 55 -84 91 -84c41 0 69 32 69 70c-1 47 -44 84 -130 88l5 29c85 15 136 44 136 85c1 28 -20 48 -52 48s-62 -20 -95 -57l-19 13c26 46 70 102 154 102
c60 0 105 -30 105 -76c-1 -51 -52 -81 -115 -100zM278 687l-75 -354l62 -12l-3 -22h-244l5 22l77 12l60 279l-82 -3v23l189 55h11zM88 -84l-27 25l620 800l28 -22z" />
    <glyph glyph-name="threeeighths" unicode="&#x215c;" horiz-adv-x="830" 
d="M467 84c-1 57 49 87 115 103c-43 29 -57 57 -57 91c0 60 60 116 158 116c74 0 124 -37 124 -80c0 -50 -40 -78 -102 -97l14 -9c42 -28 61 -54 62 -87c1 -80 -82 -131 -174 -131c-81 0 -140 36 -140 94zM226 516l-1 -5c66 -5 107 -41 107 -89c1 -85 -105 -133 -192 -133
c-65 0 -111 26 -111 62c0 19 14 42 48 47c25 -58 56 -84 92 -84c40 0 69 32 69 70c-1 47 -44 85 -130 88l5 29c84 15 136 44 136 85c0 28 -20 48 -52 48c-33 0 -63 -20 -96 -57l-18 13c25 46 69 102 153 102c61 0 104 -30 104 -76c0 -51 -51 -81 -114 -100zM116 -84l-27 25
l620 800l27 -22zM636 154l-34 20c-28 -18 -50 -48 -50 -85c1 -40 26 -76 70 -76c36 0 67 25 66 66c0 26 -12 49 -52 75zM609 312c1 -26 15 -41 49 -64l27 -19c26 22 44 47 44 84c-1 34 -26 59 -58 59c-38 0 -63 -25 -62 -60z" />
    <glyph glyph-name="fiveeighths" unicode="&#x215d;" horiz-adv-x="834" 
d="M471 84c-1 57 49 87 115 103c-43 29 -57 57 -57 91c0 60 60 116 158 116c74 0 124 -37 124 -80c0 -50 -40 -78 -102 -97l14 -9c42 -28 61 -54 62 -87c1 -80 -82 -131 -174 -131c-81 0 -140 36 -140 94zM365 680l-18 -81h-205l-19 -78c23 9 53 17 90 17
c70 0 128 -37 128 -100c0 -91 -102 -149 -197 -149c-56 0 -108 24 -108 63c0 20 17 40 47 45c24 -50 47 -81 94 -81c35 0 72 27 72 76c0 48 -42 74 -87 74c-33 0 -51 -6 -81 -16l-6 2l62 228h228zM120 -84l-27 25l620 800l27 -22zM640 154l-34 20c-28 -18 -50 -48 -50 -85
c1 -40 26 -76 70 -76c36 0 67 25 66 66c0 26 -12 49 -52 75zM613 312c1 -26 16 -41 50 -64l26 -19c26 22 44 47 44 84c-1 34 -26 59 -58 59c-38 0 -63 -25 -62 -60z" />
    <glyph glyph-name="twothirds" unicode="&#x2154;" horiz-adv-x="840" 
d="M205 424l-72 -46h206l-18 -79h-296l7 27l123 101c65 53 97 93 97 135c0 38 -27 65 -70 65c-29 0 -59 -19 -87 -57l-20 14c31 60 79 109 158 109c74 0 114 -50 115 -102c1 -74 -66 -118 -143 -167zM689 217v-5c65 -6 107 -41 107 -89c0 -85 -105 -133 -192 -133
c-66 0 -112 26 -112 62c0 19 15 42 49 47c24 -58 55 -84 91 -84c41 0 68 32 68 70c-1 47 -44 84 -130 88l5 29c85 15 137 44 137 85c1 28 -21 48 -53 48s-62 -20 -95 -57l-18 13c26 46 69 102 153 102c60 0 105 -30 105 -76c-1 -51 -52 -81 -115 -100zM144 -84l-26 25
l619 800l28 -22z" />
    <glyph glyph-name="seveneighths" unicode="&#x215e;" horiz-adv-x="758" 
d="M394 84c-1 57 49 87 115 103c-43 29 -56 57 -56 91c0 60 59 116 157 116c74 0 124 -37 124 -80c0 -50 -40 -78 -102 -97l14 -9c42 -28 62 -54 63 -87c1 -80 -82 -131 -174 -131c-81 0 -141 36 -141 94zM146 299h-72l225 294h-218l19 87h281l-1 -5
c-114 -167 -234 -376 -234 -376zM43 -84l-27 25l620 800l28 -22zM563 154l-34 20c-28 -18 -50 -48 -50 -85c1 -40 26 -76 70 -76c36 0 67 25 66 66c0 26 -12 49 -52 75zM537 312c1 -26 15 -41 49 -64l26 -19c26 22 44 47 44 84c-1 34 -26 59 -58 59c-38 0 -62 -25 -61 -60z
" />
    <glyph glyph-name="uni24C5" unicode="&#x24c5;" horiz-adv-x="794" 
d="M53 339c7 200 172 356 370 356s351 -156 344 -356s-173 -356 -371 -356c-199 0 -351 156 -343 356zM85 339c-6 -181 134 -328 313 -328c177 0 330 147 337 328c6 182 -136 328 -313 328c-178 0 -331 -146 -337 -328zM408 296l4 18c72 8 116 48 116 106
c0 61 -51 88 -105 92l-64 -332l68 -12l-3 -21h-222l3 22l58 11l62 321l-55 13l3 20h172c104 -2 180 -45 180 -112c0 -92 -107 -132 -217 -126z" />
    <glyph glyph-name="dollar.lin" horiz-adv-x="553" 
d="M46 240h28l19 -168c27 -23 61 -40 100 -47l63 261l-40 18c-88 41 -124 91 -124 168c0 121 115 214 263 220l27 111h35l-27 -111c61 -3 113 -22 157 -39l-43 -177h-28l-13 142c-25 17 -52 29 -83 34l-59 -242l48 -22c90 -41 139 -88 139 -168c0 -152 -160 -234 -291 -236
l-27 -112h-34l27 114c-74 6 -137 32 -174 50zM378 155c0 48 -26 83 -91 115l-61 -247c85 0 152 55 152 132zM212 532c0 -51 24 -82 78 -109l56 232c-85 -2 -134 -53 -134 -123z" />
    <glyph glyph-name="Euro.lin" horiz-adv-x="637" 
d="M61 402l10 35h84c86 166 258 259 364 259c82 0 134 -46 134 -90c0 -25 -11 -51 -61 -81c-42 80 -84 122 -133 122c-71 0 -140 -94 -180 -210h238l-9 -35h-241c-9 -34 -16 -68 -19 -102h230l-8 -35h-225v-19c0 -116 58 -171 127 -171c79 0 129 48 185 105l22 -20
c-78 -118 -160 -177 -270 -177c-130 0 -207 87 -207 239c0 14 1 29 2 43h-80l9 35h76c6 36 16 70 29 102h-77z" />
    <glyph glyph-name="sterling.lin" horiz-adv-x="693" 
d="M99 275l9 41h122l35 155c44 194 206 283 289 283c60 0 115 -39 115 -84c0 -40 -33 -63 -91 -69c-16 66 -40 111 -75 111c-33 0 -63 -40 -82 -135l-54 -261h192l-9 -41h-193c-28 -112 -106 -187 -183 -233c53 -23 105 -49 138 -68l62 -34c98 -55 123 -69 149 -69
c42 0 55 56 33 144c55 4 94 -6 94 -48c0 -60 -97 -153 -208 -153c-93 0 -173 43 -257 125l-74 71c-41 -17 -79 -25 -98 -25c-40 0 -58 19 -58 47s26 51 67 51c30 0 70 -11 111 -26c31 30 56 76 73 151l15 67h-122z" />
    <glyph glyph-name="yen.lin" horiz-adv-x="649" 
d="M85 281l7 34h168l-110 313l-57 24l5 28h280l-6 -29l-81 -20l91 -295h3l202 291l-89 25l5 28h203l-6 -29l-55 -20l-230 -316h169l-7 -34h-179l-17 -85h178l-6 -35h-179l-22 -111l82 -23l-5 -27h-305l6 28l88 21l22 112h-179l8 35h179l16 85h-179z" />
    <glyph glyph-name="florin.lin" horiz-adv-x="516" 
d="M49 292l7 42h104l8 38c37 186 195 324 307 324c53 0 78 -25 78 -61c0 -41 -38 -73 -67 -81c-23 45 -45 89 -78 89c-32 0 -63 -36 -97 -200l-22 -109h141l-7 -42h-143l-44 -219c-48 -233 -190 -330 -283 -330c-43 0 -82 27 -82 64c0 40 29 64 64 76c23 -58 52 -90 78 -90
c29 0 50 45 68 136l71 363h-103z" />
    <glyph glyph-name="zero.lin" horiz-adv-x="678" 
d="M415 697c141 0 230 -111 230 -284c0 -186 -128 -431 -357 -431c-147 0 -233 115 -233 278c0 194 129 437 360 437zM286 14c130 0 215 316 215 485c0 99 -22 166 -85 166c-126 0 -217 -284 -217 -477c0 -103 24 -174 87 -174z" />
    <glyph glyph-name="one.lin" horiz-adv-x="417" 
d="M370 695l-128 -645l97 -21l-5 -29h-348l5 29l118 21l105 530l-128 -3v32l275 86h9z" />
    <glyph glyph-name="two.lin" horiz-adv-x="525" 
d="M283 236l-158 -125h340l-26 -111h-463l7 34l199 182c97 89 184 182 184 273c0 71 -50 113 -113 113c-56 0 -100 -37 -149 -96l-25 16c48 99 114 176 235 176c113 0 182 -81 183 -172c0 -108 -86 -189 -214 -290z" />
    <glyph glyph-name="three.lin" horiz-adv-x="493" 
d="M282 394v-5c100 -20 173 -78 173 -165c0 -141 -162 -241 -305 -241c-90 0 -155 39 -155 96c0 32 24 63 65 79c32 -99 85 -131 140 -131c69 0 130 48 130 128c0 94 -85 155 -195 169l8 32c150 67 205 116 205 179c0 44 -36 73 -83 73c-60 0 -105 -42 -155 -103l-26 16
c51 93 113 176 229 176c90 0 152 -49 152 -125c0 -94 -85 -140 -183 -178z" />
    <glyph glyph-name="four.lin" horiz-adv-x="586" 
d="M178 29l89 20l26 126h-290l8 45l464 468l49 -8l-86 -416h123l-17 -89h-124l-26 -125l76 -22l-5 -28h-292zM103 264h208l56 267z" />
    <glyph glyph-name="five.lin" horiz-adv-x="523" 
d="M514 680l-22 -116h-309l-43 -174c37 18 89 33 140 33c102 0 196 -64 196 -179c0 -159 -173 -261 -325 -261c-75 0 -146 30 -146 92c0 31 18 62 67 80c40 -84 79 -125 145 -125c63 0 138 49 138 151c0 95 -75 137 -142 137c-56 0 -89 -15 -131 -37l-12 3l99 396h345z" />
    <glyph glyph-name="six.lin" horiz-adv-x="596" 
d="M589 680c-153 -60 -284 -166 -353 -304h3c35 41 78 62 136 62c100 0 177 -74 177 -184c0 -145 -113 -272 -287 -272c-125 0 -216 84 -216 234c0 257 270 443 534 490zM311 382c-34 0 -66 -19 -95 -52c-18 -50 -29 -105 -29 -162c0 -108 32 -156 84 -156
c85 0 137 129 137 233c0 76 -36 137 -97 137z" />
    <glyph glyph-name="seven.lin" horiz-adv-x="496" 
d="M131 0h-83l382 559h-356l24 121h439l-1 -7c-136 -221 -405 -673 -405 -673z" />
    <glyph glyph-name="eight.lin" horiz-adv-x="543" 
d="M6 135c0 116 106 165 201 198l-17 14c-55 48 -81 99 -81 157c-1 97 98 194 241 194c120 0 191 -65 191 -138c0 -92 -93 -149 -177 -184l31 -26c51 -42 89 -93 89 -159c1 -124 -139 -211 -266 -211c-117 0 -212 56 -212 155zM266 281l-40 34c-58 -41 -98 -93 -98 -172
c1 -61 40 -128 117 -128c57 0 113 40 113 115c-1 54 -31 97 -92 151zM226 557c0 -54 28 -90 78 -131l40 -34c50 43 86 94 85 163c0 67 -43 110 -97 110c-51 0 -106 -34 -106 -108z" />
    <glyph glyph-name="nine.lin" horiz-adv-x="587" 
d="M12 -2c172 66 299 169 367 299h-4c-27 -29 -63 -57 -130 -57c-92 0 -178 66 -178 202c0 122 111 259 291 259c127 0 216 -92 216 -230c0 -283 -310 -458 -554 -502zM299 286c40 0 78 33 104 63c22 56 33 117 33 182c0 88 -24 142 -81 142c-85 0 -145 -127 -145 -242
c0 -83 31 -145 89 -145z" />
    <glyph glyph-name="percent.lin" horiz-adv-x="849" 
d="M223 347c-87 0 -139 64 -139 145c0 105 85 202 201 202c82 0 138 -62 138 -144c0 -102 -83 -203 -200 -203zM283 666c-52 0 -104 -104 -104 -206c0 -51 14 -84 45 -84c51 0 105 103 105 206c0 51 -14 84 -46 84zM83 -51l623 749h47l-625 -749h-45zM577 -17
c-87 0 -140 63 -140 144c0 105 85 203 200 203c83 0 139 -63 139 -145c0 -102 -82 -202 -199 -202zM635 301c-52 0 -103 -104 -103 -206c0 -51 14 -84 45 -84c51 0 104 103 104 205c0 52 -14 85 -46 85z" />
    <glyph glyph-name="perthousand.lin" horiz-adv-x="1242" 
d="M223 347c-87 0 -139 64 -139 145c0 105 85 202 201 202c82 0 138 -62 138 -144c0 -102 -83 -203 -200 -203zM283 666c-52 0 -104 -104 -104 -206c0 -51 14 -84 45 -84c51 0 105 103 105 206c0 51 -14 84 -46 84zM83 -51l623 749h47l-625 -749h-45zM577 -17
c-87 0 -140 63 -140 144c0 105 85 203 200 203c83 0 139 -63 139 -145c0 -102 -82 -202 -199 -202zM635 301c-52 0 -103 -104 -103 -206c0 -51 14 -84 45 -84c51 0 104 103 104 205c0 52 -14 85 -46 85zM976 -24c-87 0 -139 64 -139 146c0 104 84 202 200 202
c82 0 139 -62 139 -144c0 -103 -83 -204 -200 -204zM1035 296c-52 0 -103 -105 -103 -207c0 -50 14 -84 45 -84c50 0 104 103 104 206c0 51 -15 85 -46 85z" />
    <glyph glyph-name="plus.lin" horiz-adv-x="575" 
d="M543 295h-219v-220h-48v220h-219v43h219v220h48v-220h219v-43z" />
    <glyph glyph-name="minus.lin" horiz-adv-x="575" 
d="M543 295h-486v43h486v-43z" />
    <glyph glyph-name="multiply.lin" horiz-adv-x="575" 
d="M487 90l-193 195l-192 -196l-32 33l193 193l-190 193l33 34l191 -192l191 196l31 -33l-190 -195l192 -194z" />
    <glyph glyph-name="divide.lin" horiz-adv-x="575" 
d="M543 295h-486v43h486v-43zM300 410c-35 0 -66 30 -66 67c0 34 31 66 66 66c36 0 68 -32 68 -66c0 -37 -32 -67 -68 -67zM299 89c-35 0 -66 31 -66 67c0 35 31 66 66 66c36 0 68 -31 68 -66c0 -36 -32 -67 -68 -67z" />
    <glyph glyph-name="equal.lin" horiz-adv-x="575" 
d="M541 373h-486v43h486v-43zM541 228h-486v44h486v-44z" />
    <glyph glyph-name="less.lin" horiz-adv-x="582" 
d="M542 511l-424 -196l424 -195v-48l-485 226v35l485 226v-48z" />
    <glyph glyph-name="greater.lin" horiz-adv-x="582" 
d="M58 120l424 195l-424 195v49l485 -227v-35l-485 -225v48z" />
    <glyph glyph-name="plusminus.lin" horiz-adv-x="574" 
d="M540 401h-219v-220h-49v220h-218v43h218v221h49v-221h219v-43zM45 0v43h485v-43h-485z" />
    <glyph glyph-name="notequal.lin" horiz-adv-x="575" 
d="M128 100h-44l107 122h-136v43h175l88 101h-263v43h301l110 122h47l-110 -122h138v-43h-176l-90 -101h266v-43h-304z" />
    <glyph glyph-name="approxequal.lin" horiz-adv-x="575" 
d="M88 349l-33 18c31 61 71 94 130 94c34 0 55 -7 101 -22l46 -15c45 -15 68 -21 91 -21c41 0 66 28 88 67l34 -18c-31 -55 -67 -92 -127 -92c-36 0 -67 8 -104 21l-47 16c-38 13 -63 21 -87 21c-44 0 -70 -31 -92 -69zM88 198l-33 17c31 61 71 94 130 94
c34 0 55 -6 101 -21l46 -16c45 -15 68 -20 91 -20c41 0 66 27 88 66l34 -18c-31 -55 -67 -92 -127 -92c-36 0 -67 9 -104 21l-47 16c-38 12 -63 20 -87 20c-44 0 -70 -29 -92 -67z" />
    <glyph glyph-name="lessequal.lin" horiz-adv-x="582" 
d="M530 0h-484v43h484v-43zM539 554l-409 -160l409 -158v-49l-485 191v32l485 190v-46z" />
    <glyph glyph-name="greaterequal.lin" horiz-adv-x="582" 
d="M529 0h-483v43h483v-43zM54 233l410 159l-410 159v49l486 -190v-32l-486 -191v46z" />
    <glyph glyph-name="numbersign.lin" horiz-adv-x="599" 
d="M126 474l9 41h123l59 160h42l-59 -160h153l59 160h42l-59 -160h122l-10 -41h-128l-73 -195h117l-8 -42h-125l-63 -170h-42l63 170h-152l-64 -170h-42l64 170h-120l8 42h127l74 195h-117zM285 474l-74 -195h153l73 195h-152z" />
    <glyph glyph-name="ordfeminine.lin" horiz-adv-x="482" 
d="M406 707h74l-90 -334l3 -1c30 15 61 51 83 82l20 -11c-42 -83 -110 -155 -172 -155c-32 0 -52 25 -34 86l24 78h-4c-40 -62 -109 -167 -187 -167c-40 0 -66 30 -66 80c1 156 159 328 278 328c18 0 41 -7 57 -14zM191 370c42 0 123 112 149 195l21 70
c-13 15 -30 27 -50 27c-57 0 -141 -157 -141 -265c0 -16 10 -27 21 -27z" />
    <glyph glyph-name="ordmasculine.lin" horiz-adv-x="451" 
d="M173 395c0 -41 7 -82 39 -82c67 0 129 176 130 281c0 32 -4 82 -40 82c-68 0 -128 -182 -129 -281zM311 705c88 0 143 -74 143 -157c0 -134 -102 -263 -247 -263c-89 0 -144 69 -144 160c0 132 103 260 248 260z" />
    <glyph glyph-name="zero.num" horiz-adv-x="419" 
d="M293 693c93 0 146 -68 146 -161c0 -114 -85 -242 -224 -242c-95 0 -146 67 -146 162c0 112 83 241 224 241zM216 311c70 0 120 187 120 287c0 47 -14 74 -43 74c-68 0 -120 -175 -120 -283c0 -50 13 -78 43 -78z" />
    <glyph glyph-name="one.num" horiz-adv-x="265" 
d="M282 687l-75 -354l62 -12l-3 -22h-243l4 22l77 12l60 279l-82 -3v23l189 55h11z" />
    <glyph glyph-name="two.num" horiz-adv-x="328" 
d="M205 424l-72 -46h206l-18 -79h-296l7 27l123 101c65 53 97 93 97 135c0 38 -27 65 -70 65c-29 0 -59 -19 -87 -57l-20 14c31 60 79 109 158 109c74 0 114 -50 115 -102c1 -74 -66 -118 -143 -167z" />
    <glyph glyph-name="three.num" horiz-adv-x="314" 
d="M226 516l-1 -5c66 -5 107 -41 107 -89c1 -85 -105 -133 -192 -133c-65 0 -111 26 -111 62c0 19 14 42 48 47c25 -58 56 -84 92 -84c40 0 69 32 69 70c-1 47 -44 85 -130 88l5 29c84 15 136 44 136 85c0 28 -20 48 -52 48c-33 0 -63 -20 -96 -57l-18 13
c25 46 69 102 153 102c61 0 104 -30 104 -76c0 -51 -51 -81 -114 -100z" />
    <glyph glyph-name="four.num" horiz-adv-x="360" 
d="M143 319l54 12l13 61h-178l8 36l288 263l40 -7l-52 -234h68l-11 -58h-70l-13 -62l47 -11l-3 -20h-196zM99 450h123l31 140z" />
    <glyph glyph-name="five.num" horiz-adv-x="324" 
d="M365 680l-18 -81h-205l-19 -78c23 9 53 17 90 17c70 0 128 -37 128 -100c0 -91 -102 -149 -197 -149c-56 0 -108 24 -108 63c0 20 17 40 47 45c24 -50 47 -81 94 -81c35 0 72 27 72 76c0 48 -42 74 -87 74c-33 0 -51 -6 -81 -16l-6 2l62 228h228z" />
    <glyph glyph-name="six.num" horiz-adv-x="369" 
d="M397 678c-105 -31 -170 -83 -204 -150h6c20 17 44 27 74 27c69 0 115 -46 115 -113c0 -84 -70 -153 -178 -153c-87 0 -143 57 -143 145c0 152 150 253 327 265zM233 520c-22 0 -43 -14 -58 -38c-8 -28 -11 -55 -11 -85c0 -57 19 -87 49 -87c47 0 73 62 73 128
c0 51 -21 82 -53 82z" />
    <glyph glyph-name="seven.num" horiz-adv-x="313" 
d="M146 299h-72l225 294h-218l19 87h281l-1 -5c-114 -167 -234 -376 -234 -376z" />
    <glyph glyph-name="eight.num" horiz-adv-x="343" 
d="M44 383c-1 57 49 87 115 103c-43 29 -57 57 -57 91c0 60 60 116 158 116c74 0 124 -37 124 -80c0 -50 -40 -78 -102 -97l14 -9c42 -28 61 -54 62 -87c1 -80 -82 -131 -174 -131c-81 0 -140 36 -140 94zM213 453l-34 20c-28 -18 -50 -48 -50 -85c1 -40 26 -76 70 -76
c36 0 67 25 66 66c0 26 -12 49 -52 75zM186 611c1 -26 16 -41 50 -64l26 -19c26 22 44 47 44 84c-1 34 -26 59 -58 59c-38 0 -63 -25 -62 -60z" />
    <glyph glyph-name="nine.num" horiz-adv-x="367" 
d="M57 305c111 25 176 80 209 150h-5c-20 -16 -44 -25 -72 -25c-68 0 -115 49 -115 115c0 85 71 149 173 149c89 0 144 -61 144 -145c0 -152 -143 -256 -331 -265zM225 464c23 0 45 13 59 37c7 28 10 55 10 85c0 57 -16 86 -49 86c-44 0 -71 -60 -71 -126
c0 -51 20 -82 51 -82z" />
    <glyph glyph-name="zero.den" horiz-adv-x="419" 
d="M229 394c92 0 146 -68 146 -161c0 -114 -85 -242 -224 -242c-94 0 -147 67 -147 162c0 112 84 241 225 241zM152 12c70 0 119 187 119 287c0 47 -13 74 -42 74c-69 0 -119 -175 -119 -283c0 -50 13 -78 42 -78z" />
    <glyph glyph-name="one.den" horiz-adv-x="265" 
d="M217 388l-75 -354l64 -12l-4 -22h-244l4 22l78 12l59 279l-81 -3v23l189 55h10z" />
    <glyph glyph-name="two.den" horiz-adv-x="328" 
d="M140 125l-71 -46h205l-18 -79h-296l7 27l123 101c65 53 97 93 97 135c0 38 -26 65 -69 65c-29 0 -59 -19 -87 -57l-21 14c31 60 80 109 159 109c74 0 114 -50 115 -102c1 -74 -67 -118 -144 -167z" />
    <glyph glyph-name="three.den" horiz-adv-x="314" 
d="M162 217v-5c65 -6 106 -41 106 -89c0 -85 -104 -133 -191 -133c-66 0 -113 26 -113 62c0 19 15 42 49 47c24 -58 55 -84 91 -84c41 0 69 32 69 70c-1 47 -44 84 -130 88l5 29c85 15 136 44 136 85c1 28 -20 48 -52 48s-62 -20 -95 -57l-19 13c26 46 70 102 154 102
c60 0 104 -30 104 -76c-1 -51 -51 -81 -114 -100z" />
    <glyph glyph-name="four.den" horiz-adv-x="360" 
d="M79 20l53 12l13 61h-177l7 36l288 263l40 -7l-51 -234h67l-11 -58h-69l-14 -62l47 -11l-3 -20h-195zM36 151h122l30 140z" />
    <glyph glyph-name="five.den" horiz-adv-x="324" 
d="M300 381l-16 -81h-205l-21 -78c24 9 54 17 92 17c69 0 126 -37 126 -100c0 -91 -101 -149 -195 -149c-57 0 -109 24 -109 63c0 20 16 40 46 45c24 -50 49 -81 95 -81c35 0 72 27 72 76c0 48 -43 74 -88 74c-32 0 -51 -6 -81 -16l-6 2l63 228h227z" />
    <glyph glyph-name="six.den" horiz-adv-x="369" 
d="M333 379c-105 -31 -170 -83 -204 -150h5c20 17 46 27 75 27c69 0 116 -46 116 -113c0 -84 -71 -153 -179 -153c-88 0 -144 57 -144 145c0 152 151 253 329 265zM170 221c-23 0 -44 -14 -58 -38c-8 -28 -12 -55 -12 -85c0 -57 19 -87 50 -87c46 0 71 62 71 128
c0 51 -20 82 -51 82z" />
    <glyph glyph-name="seven.den" horiz-adv-x="313" 
d="M82 0h-73l225 294h-218l20 87h280l-1 -5c-113 -167 -233 -376 -233 -376z" />
    <glyph glyph-name="eight.den" horiz-adv-x="343" 
d="M-20 84c-1 57 48 87 114 103c-43 29 -56 57 -56 91c0 60 60 116 158 116c74 0 123 -37 123 -80c0 -50 -40 -78 -102 -97l14 -9c42 -28 62 -54 63 -87c1 -80 -82 -131 -174 -131c-81 0 -140 36 -140 94zM148 154l-33 20c-28 -18 -50 -48 -50 -85c1 -40 25 -76 69 -76
c36 0 68 25 67 66c0 26 -13 49 -53 75zM122 312c1 -26 15 -41 49 -64l27 -19c26 22 44 47 44 84c-1 34 -27 59 -59 59c-38 0 -62 -25 -61 -60z" />
    <glyph glyph-name="nine.den" horiz-adv-x="367" 
d="M-7 6c112 25 176 80 209 150h-5c-20 -16 -44 -25 -71 -25c-69 0 -117 48 -117 115c0 85 71 149 173 149c89 0 146 -61 146 -145c0 -152 -144 -256 -332 -265zM162 165c20 0 41 13 56 35c7 28 11 57 11 87c0 57 -16 86 -49 86c-44 0 -70 -60 -70 -126c0 -51 20 -82 52 -82
z" />
    <glyph glyph-name="zero.sub" horiz-adv-x="419" 
d="M219 343c93 0 147 -68 147 -161c0 -114 -87 -242 -225 -242c-95 0 -146 66 -146 161c0 112 83 242 224 242zM141 -39c70 0 120 187 120 287c0 47 -13 74 -42 74c-68 0 -120 -175 -120 -283c0 -50 13 -78 42 -78z" />
    <glyph glyph-name="one.sub" horiz-adv-x="265" 
d="M208 337l-75 -354l63 -13l-3 -21h-244l4 21l78 13l59 279l-82 -3v23l189 55h11z" />
    <glyph glyph-name="two.sub" horiz-adv-x="328" 
d="M131 74l-72 -46h206l-18 -79h-296l7 26l123 102c65 53 97 93 97 135c0 38 -26 64 -69 64c-29 0 -59 -18 -87 -56l-21 13c31 60 80 110 159 110c74 0 113 -50 114 -102c1 -74 -66 -118 -143 -167z" />
    <glyph glyph-name="three.sub" horiz-adv-x="314" 
d="M153 166l-1 -5c65 -6 106 -41 106 -89c1 -85 -104 -133 -191 -133c-65 0 -112 26 -112 62c-1 19 14 42 48 47c25 -58 55 -84 92 -84c40 0 68 32 68 70c0 47 -43 84 -130 88l5 29c85 15 136 44 136 85c1 28 -20 48 -52 48s-61 -21 -94 -58l-20 14c26 46 70 102 154 102
c61 0 104 -30 104 -76c-1 -51 -50 -81 -113 -100z" />
    <glyph glyph-name="four.sub" horiz-adv-x="360" 
d="M69 -31l54 12l13 61h-178l8 36l288 263l39 -7l-51 -235h68l-11 -57h-70l-13 -62l47 -11l-4 -20h-194zM26 99h122l31 142z" />
    <glyph glyph-name="five.sub" horiz-adv-x="324" 
d="M290 330l-17 -81h-204l-21 -78c24 9 54 16 91 16c70 0 128 -36 128 -99c0 -91 -101 -149 -196 -149c-57 0 -109 24 -109 63c0 20 17 40 46 45c24 -50 48 -81 94 -81c36 0 73 27 73 76c0 48 -43 74 -87 74c-33 0 -51 -7 -82 -17l-5 2l62 229h227z" />
    <glyph glyph-name="six.sub" horiz-adv-x="369" 
d="M323 328c-104 -31 -170 -83 -204 -150h6c19 17 45 27 75 27c68 0 114 -46 114 -113c0 -84 -70 -153 -178 -153c-87 0 -143 57 -143 145c0 152 150 253 328 265zM160 170c-23 0 -44 -14 -59 -38c-8 -28 -11 -55 -11 -85c0 -57 19 -87 49 -87c47 0 73 62 73 128
c0 51 -21 82 -52 82z" />
    <glyph glyph-name="seven.sub" horiz-adv-x="313" 
d="M72 -51h-72l224 294h-218l21 87h279v-5c-114 -167 -234 -376 -234 -376z" />
    <glyph glyph-name="eight.sub" horiz-adv-x="343" 
d="M-30 33c-1 57 49 87 115 103c-43 29 -56 56 -56 90c0 60 59 117 157 117c74 0 124 -37 124 -80c0 -50 -40 -78 -102 -97l14 -9c42 -28 62 -54 63 -87c1 -80 -82 -131 -174 -131c-81 0 -141 36 -141 94zM139 102l-34 21c-28 -18 -50 -48 -50 -85c1 -40 26 -76 70 -76
c36 0 67 25 66 66c0 26 -12 48 -52 74zM113 261c1 -26 15 -41 49 -64l26 -19c26 22 44 47 44 84c-1 34 -26 59 -58 59c-38 0 -62 -25 -61 -60z" />
    <glyph glyph-name="nine.sub" horiz-adv-x="367" 
d="M-16 -45c111 25 176 79 209 149h-7c-19 -16 -42 -24 -70 -24c-69 0 -116 48 -116 115c0 85 70 149 172 149c90 0 145 -61 145 -145c0 -152 -142 -257 -331 -266zM152 114c23 0 43 13 58 37c7 28 10 55 10 85c0 57 -16 86 -49 86c-44 0 -72 -60 -72 -126
c0 -51 22 -82 53 -82z" />
    <glyph glyph-name="plus.sub" horiz-adv-x="348" 
d="M290 110h-126v-118h-38v118h-125v34h125v119h38v-119h126v-34z" />
    <glyph glyph-name="minus.sub" horiz-adv-x="348" 
d="M290 110h-289v34h289v-34z" />
    <glyph glyph-name="zero.sup" horiz-adv-x="419" 
d="M310 778c92 0 146 -67 146 -161c0 -114 -86 -242 -225 -242c-94 0 -145 67 -145 162c0 112 83 241 224 241zM232 397c70 0 120 186 120 286c0 47 -13 74 -42 74c-68 0 -120 -175 -120 -283c0 -50 13 -77 42 -77z" />
    <glyph glyph-name="one.sup" horiz-adv-x="265" 
d="M298 772l-75 -354l64 -11l-4 -23h-244l4 23l78 11l59 279l-81 -3v23l189 55h10z" />
    <glyph glyph-name="two.sup" horiz-adv-x="328" 
d="M221 509l-71 -46h205l-18 -79h-296l7 27l123 101c65 53 97 93 97 135c0 38 -26 65 -69 65c-29 0 -59 -19 -87 -57l-21 14c31 60 80 109 159 109c74 0 114 -50 115 -102c1 -74 -67 -118 -144 -167z" />
    <glyph glyph-name="three.sup" horiz-adv-x="314" 
d="M243 601v-5c65 -6 106 -41 106 -88c0 -86 -104 -134 -191 -134c-66 0 -112 26 -112 62c-1 19 14 42 48 48c24 -59 55 -85 91 -85c41 0 69 32 69 70c-1 48 -44 85 -130 88l5 29c85 15 136 44 136 85c1 28 -20 48 -52 48s-62 -20 -95 -57l-19 13c26 46 70 103 154 103
c60 0 104 -31 104 -76c-1 -51 -51 -82 -114 -101z" />
    <glyph glyph-name="four.sup" horiz-adv-x="360" 
d="M160 404l53 12l13 62h-177l7 35l288 263l40 -7l-52 -234h68l-11 -57h-70l-13 -62l47 -12l-3 -20h-195zM117 535h122l30 141z" />
    <glyph glyph-name="five.sup" horiz-adv-x="324" 
d="M381 765l-16 -81h-205l-21 -78c24 9 54 17 91 17c69 0 127 -37 127 -100c0 -91 -101 -149 -195 -149c-57 0 -109 24 -109 63c0 20 16 40 46 45c24 -50 49 -81 95 -81c35 0 72 27 72 76c0 48 -43 74 -88 74c-32 0 -51 -6 -81 -16l-5 2l62 228h227z" />
    <glyph glyph-name="six.sup" horiz-adv-x="369" 
d="M414 763c-104 -31 -169 -83 -203 -149h5c19 16 45 26 74 26c69 0 116 -46 116 -112c0 -85 -71 -154 -179 -154c-88 0 -144 57 -144 145c0 152 151 253 329 265zM251 605c-23 0 -44 -14 -58 -38c-8 -28 -12 -55 -12 -85c0 -57 18 -86 49 -86c46 0 72 61 72 127
c0 51 -20 82 -51 82z" />
    <glyph glyph-name="seven.sup" horiz-adv-x="313" 
d="M163 384h-73l226 295h-219l20 86h280v-5c-114 -166 -234 -376 -234 -376z" />
    <glyph glyph-name="eight.sup" horiz-adv-x="343" 
d="M60 468c-1 57 49 87 115 103c-43 29 -56 57 -56 91c0 60 59 116 157 116c74 0 124 -37 124 -80c0 -50 -40 -78 -102 -97l14 -9c42 -28 62 -54 63 -87c1 -80 -82 -131 -174 -131c-81 0 -141 36 -141 94zM229 538l-33 20c-28 -18 -51 -48 -51 -85c1 -40 26 -76 70 -76
c36 0 68 25 67 66c0 26 -13 49 -53 75zM203 696c1 -26 15 -41 49 -64l27 -19c26 22 44 47 44 84c-1 34 -27 59 -59 59c-38 0 -62 -25 -61 -60z" />
    <glyph glyph-name="nine.sup" horiz-adv-x="367" 
d="M75 390c112 25 176 81 208 151h-5c-19 -17 -44 -26 -71 -26c-69 0 -117 49 -117 115c0 85 71 149 173 149c89 0 146 -61 146 -145c0 -152 -144 -256 -332 -265zM243 549c20 0 41 13 56 35c8 29 11 57 11 87c0 57 -16 86 -49 86c-44 0 -71 -60 -71 -126
c0 -51 21 -82 53 -82z" />
    <glyph glyph-name="plus.sup" horiz-adv-x="348" 
d="M381 545h-126v-118h-38v118h-126v36h126v117h38v-117h126v-36z" />
    <glyph glyph-name="minus.sup" horiz-adv-x="348" 
d="M381 545h-290v36h290v-36z" />
    <glyph glyph-name="uni2033" unicode="&#x2033;" horiz-adv-x="414" 
d="M106 517h-26l62 248h112v-9zM294 517h-26l62 248h112v-9z" />
    <glyph glyph-name="uni2032" unicode="&#x2032;" horiz-adv-x="227" 
d="M106 517h-26l62 248h112v-9z" />
    <glyph glyph-name="A.alt" horiz-adv-x="701" 
d="M-61 0l6 29l64 19l463 636l41 6l52 9v-648l62 -23l-6 -28h-283l6 29l85 21l1 196h-220l-134 -194l98 -24l-6 -28h-229zM429 560l-186 -268h188l2 268h-4z" />
    <glyph glyph-name="M.alt" horiz-adv-x="965" 
d="M-35 0l6 30l75 20l184 576l-67 26l5 28h220l74 -457l268 457h203l-6 -29l-74 -20l-28 -581l67 -22l-5 -28h-287l5 29l84 21l27 525l-273 -465l-44 -82h-38l-11 82l-86 490l-168 -549l90 -22l-5 -29h-216z" />
    <glyph glyph-name="V.alt" horiz-adv-x="658" 
d="M154 -9l-12 639l-54 22l4 28h280l-6 -29l-83 -23v-475h3l329 476l-86 23l6 28h197l-6 -29l-51 -19l-464 -641h-57z" />
    <glyph glyph-name="W.alt" horiz-adv-x="954" 
d="M492 -9l5 454l-312 -454h-62l20 638l-55 22l4 29h280l-6 -29l-79 -24l-25 -469l236 361l2 110l-51 23l5 28h275l-6 -29l-83 -23l-11 -465l287 466l-87 23l5 28h195l-5 -29l-52 -19l-417 -641h-63z" />
    <glyph glyph-name="h.alt" horiz-adv-x="527" 
d="M-4 0l167 657l-64 53l4 12l207 45l-123 -485h7c70 122 152 227 240 227c55 0 83 -42 82 -105c-3 -180 -156 -416 -275 -416c-26 0 -45 19 -45 43c0 17 10 33 20 43c16 -14 65 -28 75 -26c22 41 88 189 90 320c0 28 -7 46 -25 46c-51 0 -169 -164 -215 -329l-21 -75
l-112 -25z" />
    <glyph glyph-name="v.alt" horiz-adv-x="559" 
d="M258 385h-118c-47 0 -65 -9 -65 -24c0 -19 27 -29 67 -51c-12 -41 -39 -67 -72 -67c-28 0 -50 22 -50 56c0 70 89 196 176 196h151v-11l-42 -72c-51 -93 -72 -149 -72 -203c-2 -60 36 -95 86 -95c81 0 144 93 144 198c0 73 -24 119 -54 167c15 13 42 26 70 26
c36 0 64 -23 64 -88c0 -166 -161 -430 -309 -430c-70 0 -113 46 -112 121c0 71 50 152 100 223l36 51v3z" />
    <glyph glyph-name="w.alt" horiz-adv-x="777" 
d="M349 495v-11l-38 -64c-48 -82 -94 -157 -98 -220c-3 -56 22 -89 69 -89c49 0 84 31 115 72c9 147 23 222 41 294c14 19 33 28 55 28c40 0 54 -33 45 -68c0 0 -75 -198 -97 -247c12 -51 49 -79 100 -79c85 0 141 79 141 193c0 66 -27 129 -61 175c17 15 45 27 69 27
c38 0 65 -24 65 -108c0 -102 -85 -410 -256 -410c-73 0 -107 48 -104 138h-4c-54 -87 -127 -139 -194 -139c-62 0 -104 49 -101 112c3 71 53 145 120 233l39 51v2h-114c-51 0 -64 -9 -64 -23c0 -20 25 -32 62 -50c-12 -45 -40 -69 -70 -69c-31 0 -49 22 -49 56
c0 70 89 196 176 196h153z" />
    <glyph glyph-name="Aacute.alt" horiz-adv-x="701" 
d="M-61 0l6 29l64 19l463 636l41 6l52 9v-648l62 -23l-6 -28h-283l6 29l85 21l1 196h-220l-134 -194l98 -24l-6 -28h-229zM429 560l-186 -268h188l2 268h-4zM583 892h120v-12l-161 -135h-43z" />
    <glyph glyph-name="Abreve.alt" horiz-adv-x="701" 
d="M-61 0l6 29l64 19l463 636l41 6l52 9v-648l62 -23l-6 -28h-283l6 29l85 21l1 196h-220l-134 -194l98 -24l-6 -28h-229zM429 560l-186 -268h188l2 268h-4zM525 741c-89 0 -124 66 -122 145h30c16 -44 43 -73 102 -73c57 0 90 30 116 73h27c-13 -77 -61 -145 -153 -145z
" />
    <glyph glyph-name="Acircumflex.alt" horiz-adv-x="701" 
d="M-61 0l6 29l64 19l463 636l41 6l52 9v-648l62 -23l-6 -28h-283l6 29l85 21l1 196h-220l-134 -194l98 -24l-6 -28h-229zM429 560l-186 -268h188l2 268h-4zM414 745h-46l145 147h87l81 -147h-42l-95 76z" />
    <glyph glyph-name="Adieresis.alt" horiz-adv-x="701" 
d="M-61 0l6 29l64 19l463 636l41 6l52 9v-648l62 -23l-6 -28h-283l6 29l85 21l1 196h-220l-134 -194l98 -24l-6 -28h-229zM429 560l-186 -268h188l2 268h-4zM424 759c-36 0 -65 28 -65 63c0 36 29 66 65 66c35 0 64 -30 64 -66c0 -35 -29 -63 -64 -63zM655 759
c-35 0 -63 28 -63 63c0 36 28 66 63 66c36 0 66 -30 66 -66c0 -35 -30 -63 -66 -63z" />
    <glyph glyph-name="Agrave.alt" horiz-adv-x="701" 
d="M-61 0l6 29l64 19l463 636l41 6l52 9v-648l62 -23l-6 -28h-283l6 29l85 21l1 196h-220l-134 -194l98 -24l-6 -28h-229zM429 560l-186 -268h188l2 268h-4zM386 892h114l48 -147h-41l-121 135v12z" />
    <glyph glyph-name="Amacron.alt" horiz-adv-x="701" 
d="M-61 0l6 29l64 19l463 636l41 6l52 9v-648l62 -23l-6 -28h-283l6 29l85 21l1 196h-220l-134 -194l98 -24l-6 -28h-229zM429 560l-186 -268h188l2 268h-4zM385 785l14 68h298l-14 -68h-298z" />
    <glyph glyph-name="Aogonek.alt" horiz-adv-x="701" 
d="M-61 0l6 29l64 19l463 636l41 6l52 9v-648l62 -23l-6 -28h-174c-96 -55 -119 -98 -119 -132c0 -27 14 -44 43 -44c26 0 47 11 82 46l16 -13c-39 -61 -88 -112 -147 -112c-55 0 -85 37 -85 77c0 62 47 103 192 200l1 224h-220l-134 -194l98 -24l-6 -28h-229zM429 560
l-186 -268h187l2 268h-3z" />
    <glyph glyph-name="Aring.alt" horiz-adv-x="701" 
d="M-61 0l6 29l64 19l463 636l41 6l52 9v-648l62 -23l-6 -28h-283l6 29l85 21l1 196h-220l-134 -194l98 -24l-6 -28h-229zM440 856c0 58 47 103 107 103c61 0 106 -44 106 -102c0 -57 -46 -103 -107 -103s-106 45 -106 102zM429 560l-186 -268h188l2 268h-4zM479 857
c0 -40 31 -69 68 -69s66 28 66 68c0 41 -30 70 -67 70s-67 -28 -67 -69z" />
    <glyph glyph-name="Aringacute.alt" horiz-adv-x="701" 
d="M-61 0l6 29l64 19l463 636l41 6l52 9v-648l62 -23l-6 -28h-283l6 29l85 21l1 196h-220l-134 -194l98 -24l-6 -28h-229zM440 836c0 58 47 103 107 103c61 0 106 -44 106 -102c0 -57 -46 -104 -107 -104s-106 46 -106 103zM429 560l-186 -268h188l2 268h-4zM479 837
c0 -40 31 -69 68 -69s66 28 66 68c0 41 -30 69 -67 69s-67 -27 -67 -68zM635 1112h121v-12l-162 -134h-43z" />
    <glyph glyph-name="Atilde.alt" horiz-adv-x="701" 
d="M-61 0l6 29l64 19l463 636l41 6l52 9v-648l62 -23l-6 -28h-283l6 29l85 21l1 196h-220l-134 -194l98 -24l-6 -28h-229zM380 765l-19 8l8 15c48 104 99 119 180 89l34 -13c57 -20 89 -21 129 40l17 -8l-9 -19c-52 -111 -93 -125 -180 -94l-35 13c-69 25 -92 23 -125 -31z
M429 560l-186 -268h188l2 268h-4z" />
    <glyph glyph-name="Wacute.alt" horiz-adv-x="954" 
d="M492 -9l5 454l-312 -454h-62l20 638l-55 22l4 29h280l-6 -29l-79 -24l-25 -469l236 361l2 110l-51 23l5 28h275l-6 -29l-83 -23l-11 -465l287 466l-87 23l5 28h195l-5 -29l-52 -19l-417 -641h-63zM650 892h121v-12l-162 -135h-43z" />
    <glyph glyph-name="Wcircumflex.alt" horiz-adv-x="954" 
d="M492 -9l5 454l-312 -454h-62l20 638l-55 22l4 29h280l-6 -29l-79 -24l-25 -469l236 361l2 110l-51 23l5 28h275l-6 -29l-83 -23l-11 -465l287 466l-87 23l5 28h195l-5 -29l-52 -19l-417 -641h-63zM475 745h-46l145 147h88l80 -147h-42l-95 76z" />
    <glyph glyph-name="Wdieresis.alt" horiz-adv-x="954" 
d="M492 -9l5 454l-312 -454h-62l20 638l-55 22l4 29h280l-6 -29l-79 -24l-25 -469l236 361l2 110l-51 23l5 28h275l-6 -29l-83 -23l-11 -465l287 466l-87 23l5 28h195l-5 -29l-52 -19l-417 -641h-63zM487 759c-36 0 -64 28 -64 63c0 36 28 66 64 66c35 0 65 -30 65 -66
c0 -35 -30 -63 -65 -63zM719 759c-35 0 -64 28 -64 63c0 36 29 66 64 66c36 0 65 -30 65 -66c0 -35 -29 -63 -65 -63z" />
    <glyph glyph-name="Wgrave.alt" horiz-adv-x="954" 
d="M492 -9l5 454l-312 -454h-62l20 638l-55 22l4 29h280l-6 -29l-79 -24l-25 -469l236 361l2 110l-51 23l5 28h275l-6 -29l-83 -23l-11 -465l287 466l-87 23l5 28h195l-5 -29l-52 -19l-417 -641h-63zM454 892h113l48 -147h-41l-120 135v12z" />
    <glyph glyph-name="hbar.alt" horiz-adv-x="527" 
d="M74 573l9 35h67l16 63l-67 39l4 12l207 45l-41 -159h171l-9 -35h-170l-74 -291h7c70 122 152 227 239 227c56 0 84 -42 83 -105c-2 -180 -156 -416 -277 -416c-24 0 -43 19 -43 44c0 16 9 30 20 42c17 -14 66 -28 76 -26c20 41 87 189 89 320c0 28 -8 46 -26 46
c-51 0 -166 -162 -214 -329l-21 -75l-112 -25l-12 15l145 573h-67z" />
    <glyph glyph-name="hcircumflex.alt" horiz-adv-x="527" 
d="M-4 0l167 657l-64 53l4 12l207 45l-123 -485h7c70 122 152 227 240 227c55 0 83 -42 82 -105c-3 -180 -156 -416 -275 -416c-26 0 -45 19 -45 43c0 17 10 33 20 43c16 -14 65 -28 75 -26c22 41 88 189 90 320c0 28 -7 46 -25 46c-51 0 -169 -164 -215 -329l-21 -75
l-112 -25zM276 780h-46l146 147h87l81 -147h-42l-95 76z" />
    <glyph glyph-name="wacute.alt" horiz-adv-x="777" 
d="M560 781h112v-8l-157 -196h-30zM349 495v-11l-38 -64c-48 -82 -94 -157 -98 -220c-3 -56 22 -89 69 -89c49 0 84 31 115 72c9 147 23 222 41 294c14 19 33 28 55 28c40 0 54 -33 45 -68c0 0 -75 -198 -97 -247c12 -51 49 -79 100 -79c85 0 141 79 141 193
c0 66 -27 129 -61 175c17 15 45 27 69 27c38 0 65 -24 65 -108c0 -102 -85 -410 -256 -410c-73 0 -107 48 -104 138h-4c-54 -87 -127 -139 -194 -139c-62 0 -104 49 -101 112c3 71 53 145 120 233l39 51v2h-114c-51 0 -64 -9 -64 -23c0 -20 25 -32 62 -50
c-12 -45 -40 -69 -70 -69c-31 0 -49 22 -49 56c0 70 89 196 176 196h153z" />
    <glyph glyph-name="wcircumflex.alt" horiz-adv-x="777" 
d="M349 495v-11l-38 -64c-48 -82 -94 -157 -98 -220c-3 -56 22 -89 69 -89c49 0 84 31 115 72c9 147 23 222 41 294c14 19 33 28 55 28c40 0 54 -33 45 -68c0 0 -75 -198 -97 -247c12 -51 49 -79 100 -79c85 0 141 79 141 193c0 66 -27 129 -61 175c17 15 45 27 69 27
c38 0 65 -24 65 -108c0 -102 -85 -410 -256 -410c-73 0 -107 48 -104 138h-4c-54 -87 -127 -139 -194 -139c-62 0 -104 49 -101 112c3 71 53 145 120 233l39 51v2h-114c-51 0 -64 -9 -64 -23c0 -20 25 -32 62 -50c-12 -45 -40 -69 -70 -69c-31 0 -49 22 -49 56
c0 70 89 196 176 196h153zM411 577h-34l135 204h61l54 -204h-34l-67 118z" />
    <glyph glyph-name="wdieresis.alt" horiz-adv-x="777" 
d="M429 620c-36 0 -64 27 -64 63s28 66 64 66c35 0 65 -30 65 -66s-30 -63 -65 -63zM622 620c-35 0 -64 27 -64 63s29 66 64 66c36 0 65 -30 65 -66s-29 -63 -65 -63zM349 495v-11l-38 -64c-48 -82 -94 -157 -98 -220c-3 -56 22 -89 69 -89c49 0 84 31 115 72
c9 147 23 222 41 294c14 19 33 28 55 28c40 0 54 -33 45 -68c0 0 -75 -198 -97 -247c12 -51 49 -79 100 -79c85 0 141 79 141 193c0 66 -27 129 -61 175c17 15 45 27 69 27c38 0 65 -24 65 -108c0 -102 -85 -410 -256 -410c-73 0 -107 48 -104 138h-4
c-54 -87 -127 -139 -194 -139c-62 0 -104 49 -101 112c3 71 53 145 120 233l39 51v2h-114c-51 0 -64 -9 -64 -23c0 -20 25 -32 62 -50c-12 -45 -40 -69 -70 -69c-31 0 -49 22 -49 56c0 70 89 196 176 196h153z" />
    <glyph glyph-name="wgrave.alt" horiz-adv-x="777" 
d="M349 495v-11l-38 -64c-48 -82 -94 -157 -98 -220c-3 -56 22 -89 69 -89c49 0 84 31 115 72c9 147 23 222 41 294c14 19 33 28 55 28c40 0 54 -33 45 -68c0 0 -75 -198 -97 -247c12 -51 49 -79 100 -79c85 0 141 79 141 193c0 66 -27 129 -61 175c17 15 45 27 69 27
c38 0 65 -24 65 -108c0 -102 -85 -410 -256 -410c-73 0 -107 48 -104 138h-4c-54 -87 -127 -139 -194 -139c-62 0 -104 49 -101 112c3 71 53 145 120 233l39 51v2h-114c-51 0 -64 -9 -64 -23c0 -20 25 -32 62 -50c-12 -45 -40 -69 -70 -69c-31 0 -49 22 -49 56
c0 70 89 196 176 196h153zM383 781h112l23 -204h-28l-107 195v9z" />
    <glyph glyph-name="bullet.alt" horiz-adv-x="361" 
d="M151 654c47 0 72 -50 100 -90h8c45 34 66 49 98 49c38 0 60 -26 60 -58c0 -40 -33 -68 -66 -68c-40 0 -67 34 -94 62h-3c-15 -13 -27 -33 -27 -49c0 -28 30 -47 64 -74c33 -27 62 -52 62 -88c0 -46 -45 -69 -83 -58c-5 -13 -19 -27 -44 -27c-30 0 -44 18 -62 53
c-14 27 -26 63 -61 63c-28 0 -41 -19 -44 -43h-11c-8 51 25 85 66 85c68 0 71 -80 115 -80c22 0 30 14 30 28c0 48 -71 67 -71 122c0 28 18 53 43 72l-2 3c-29 -9 -56 -17 -79 -17c-37 0 -58 26 -58 59s25 56 59 56zM337 692c0 -38 -53 -83 -71 -97h-10c-6 12 -35 57 -35 92
c0 33 28 55 63 55s53 -25 53 -50z" />
    <glyph glyph-name="f.short" horiz-adv-x="346" 
d="M33 449l8 46h96c47 151 173 274 261 274c47 0 81 -24 81 -58c-1 -32 -22 -58 -62 -78c-27 51 -47 84 -69 84c-25 0 -47 -36 -86 -222h120l-9 -46h-120l-72 -370c-43 -222 -180 -336 -289 -336c-38 0 -77 25 -77 63c0 37 28 65 66 77c27 -59 56 -90 80 -90
c28 0 45 39 64 139l101 517h-93z" />
    <glyph glyph-name="f_f.short" horiz-adv-x="629" 
d="M33 449l8 46h102c53 122 178 235 295 235c38 0 75 -19 98 -42c48 50 101 81 146 81c47 0 81 -24 81 -58c-1 -32 -24 -58 -63 -78c-28 51 -48 84 -68 84c-25 0 -47 -35 -86 -222h120l-10 -46h-119l-67 -343c-47 -242 -195 -333 -281 -333c-37 0 -68 26 -68 61
c0 29 21 57 58 70c26 -58 50 -81 72 -81c25 0 41 29 63 138l96 488h-157l-72 -370c-43 -222 -179 -336 -287 -336c-39 0 -79 25 -79 63c0 37 28 65 66 77c27 -59 56 -90 80 -90c28 0 45 39 64 139l96 493c1 7 3 16 5 24h-93zM387 685c-45 0 -89 -39 -125 -190h159
c13 44 34 85 58 122c-28 45 -62 68 -92 68z" />
    <glyph glyph-name="f_h.alt" horiz-adv-x="831" 
d="M300 0l173 680c-26 33 -53 43 -73 43c-52 0 -101 -45 -138 -228h102l-12 -46h-99l-72 -370c-43 -222 -180 -336 -289 -336c-38 0 -77 25 -77 63c0 37 28 65 66 77c27 -59 56 -90 80 -90c28 0 44 39 64 140l102 516h-94l8 46h96c42 135 180 274 309 274
c28 0 55 -12 73 -26l95 24l-122 -485h6c70 122 152 227 240 227c55 0 83 -42 82 -105c-2 -180 -155 -416 -274 -416c-27 0 -46 19 -46 43c0 17 10 33 20 43c16 -14 66 -28 76 -26c20 41 87 189 89 320c0 28 -7 46 -25 46c-51 0 -169 -164 -215 -329l-21 -75l-112 -25z" />
    <glyph glyph-name="f_f_h.alt" horiz-adv-x="1116" 
d="M585 0l172 679c-27 34 -54 44 -73 44c-53 0 -101 -45 -138 -228h101l-12 -46h-98l-67 -343c-47 -241 -193 -333 -281 -333c-37 0 -68 27 -68 61c0 30 20 56 58 70c25 -57 51 -80 71 -80c26 0 42 29 64 137l95 488h-156l-72 -370c-43 -222 -180 -336 -289 -336
c-38 0 -77 25 -77 63c0 37 28 65 66 77c27 -59 56 -90 80 -90c28 0 45 39 64 139l96 493c1 7 3 16 5 24h-93l8 46h102c53 122 178 235 295 235c41 0 81 -22 103 -48c56 52 123 87 188 87c29 0 55 -12 74 -26l96 24l-123 -485h6c70 122 153 227 241 227c54 0 84 -42 82 -105
c-2 -180 -157 -416 -276 -416c-27 0 -45 19 -45 43c0 17 10 33 21 43c16 -14 65 -28 75 -26c22 41 89 189 90 320c0 28 -8 46 -26 46c-51 0 -167 -164 -214 -329l-21 -75l-113 -25zM420 495c13 42 34 84 63 122c-29 45 -63 68 -95 68c-44 0 -90 -39 -126 -190h158z" />
    <glyph glyph-name="i.ger" horiz-adv-x="288" 
d="M120 417c-16 12 -56 16 -89 8l2 16c34 32 86 68 146 68c43 0 82 -29 58 -114l-82 -301h4c30 22 65 64 90 101l24 -11c-51 -104 -138 -196 -204 -196c-36 0 -61 27 -43 92zM141 665c0 38 31 69 70 69c38 0 70 -31 70 -69c0 -39 -33 -70 -72 -70c-38 0 -68 31 -68 70z" />
    <glyph glyph-name="j.ger" horiz-adv-x="272" 
d="M20 11l102 405c-18 13 -58 17 -90 9l1 16c34 32 85 68 145 68c43 0 82 -29 60 -120l-84 -344c-40 -167 -156 -303 -279 -303c-36 0 -82 24 -83 65c-1 39 29 64 66 76c27 -59 49 -90 75 -90c36 0 55 90 87 218zM141 665c0 38 31 69 70 69s70 -31 70 -69
c0 -39 -33 -70 -71 -70c-39 0 -69 31 -69 70z" />
    <glyph glyph-name="adieresis.ger" 
d="M446 529h89l-119 -436h4c31 22 65 64 91 102l25 -11c-53 -111 -142 -196 -205 -196c-49 0 -56 48 -41 92l46 133h-7c-56 -92 -147 -229 -236 -229c-49 0 -88 31 -88 108c0 187 197 408 348 408c28 0 51 -7 70 -17zM165 79c51 0 167 173 209 302l16 50
c-14 19 -34 33 -57 33c-87 0 -189 -198 -194 -337c-1 -39 12 -48 26 -48zM289 597c-36 0 -65 27 -65 63s29 66 65 66c35 0 64 -30 64 -66s-29 -63 -64 -63zM481 597c-35 0 -63 27 -63 63s28 66 63 66c36 0 66 -30 66 -66s-30 -63 -66 -63z" />
    <glyph glyph-name="odieresis.ger" horiz-adv-x="520" 
d="M254 597c-36 0 -65 27 -65 63s29 66 65 66c35 0 64 -30 64 -66s-29 -63 -64 -63zM446 597c-35 0 -63 27 -63 63s28 66 63 66c36 0 66 -30 66 -66s-30 -63 -66 -63zM316 479c-83 0 -158 -223 -163 -351c-3 -68 6 -114 44 -114c82 0 164 210 170 348c2 57 -6 117 -51 117z
M327 508c119 0 171 -95 171 -195c0 -146 -110 -327 -305 -327c-118 0 -171 84 -171 198c0 139 106 324 305 324z" />
    <glyph glyph-name="udieresis.ger" 
d="M246 597c-36 0 -65 27 -65 63s29 66 65 66c35 0 64 -30 64 -66s-29 -63 -64 -63zM438 597c-35 0 -63 27 -63 63s28 66 63 66c36 0 66 -30 66 -66s-30 -63 -66 -63zM31 111l83 307c-15 11 -54 15 -87 7l2 16c34 32 85 68 144 68c49 0 75 -38 53 -121l-70 -276
c-5 -22 2 -28 11 -28c54 0 178 191 215 326l20 77l114 19l10 -12l-103 -400h4c30 22 63 63 90 101l23 -11c-55 -111 -142 -196 -204 -196c-37 0 -59 25 -39 93l52 170h-5c-57 -101 -140 -264 -258 -264c-48 0 -80 33 -55 124z" />
    <glyph glyph-name="j.short" horiz-adv-x="273" 
d="M-89 -256l-11 19c58 43 85 79 115 206l107 447c-18 13 -58 17 -90 9l1 16c34 32 85 68 145 68c43 0 82 -28 60 -120l-81 -344c-43 -186 -110 -257 -246 -301zM148 683c0 38 31 70 70 70s70 -32 70 -70c0 -39 -33 -70 -71 -70c-39 0 -69 31 -69 70z" />
    <glyph glyph-name="j.gershort" horiz-adv-x="273" 
d="M-89 -256l-11 19c58 43 85 79 114 203l108 450c-18 13 -58 17 -90 9l1 16c34 32 85 68 145 68c43 0 82 -28 60 -120l-81 -344c-43 -186 -110 -257 -246 -301zM141 665c0 38 31 69 70 69s70 -31 70 -69c0 -39 -33 -70 -71 -70c-39 0 -69 31 -69 70z" />
    <glyph glyph-name="y.short" horiz-adv-x="496" 
d="M12 278c8 147 64 229 142 229c70 0 126 -85 126 -287c0 -80 -13 -169 -31 -234h6c78 115 153 237 153 355c0 58 -20 107 -51 146c19 13 47 23 69 23c33 0 61 -23 61 -83c0 -122 -81 -282 -184 -419c-109 -144 -241 -263 -309 -263c-37 0 -73 24 -73 71c0 37 27 69 69 69
c31 0 55 -20 70 -75h6c73 85 94 246 94 366c0 154 -27 236 -58 236c-27 0 -47 -47 -65 -134h-25z" />
    <glyph glyph-name="yacute.short" horiz-adv-x="496" 
d="M359 781h112v-8l-157 -196h-29zM12 278c8 147 64 229 142 229c70 0 126 -85 126 -287c0 -80 -13 -169 -31 -234h6c78 115 153 237 153 355c0 58 -20 107 -51 146c19 13 47 23 69 23c33 0 61 -23 61 -83c0 -122 -81 -282 -184 -419c-109 -144 -241 -263 -309 -263
c-37 0 -73 24 -73 71c0 37 27 69 69 69c31 0 55 -20 70 -75h6c73 85 94 246 94 366c0 154 -27 236 -58 236c-27 0 -47 -47 -65 -134h-25z" />
    <glyph glyph-name="ycircumflex.short" horiz-adv-x="496" 
d="M12 278c8 147 64 229 142 229c70 0 126 -85 126 -287c0 -80 -13 -169 -31 -234h6c78 115 153 237 153 355c0 58 -20 107 -51 146c19 13 47 23 69 23c33 0 61 -23 61 -83c0 -122 -81 -282 -184 -419c-109 -144 -241 -263 -309 -263c-37 0 -73 24 -73 71c0 37 27 69 69 69
c31 0 55 -20 70 -75h6c73 85 94 246 94 366c0 154 -27 236 -58 236c-27 0 -47 -47 -65 -134h-25zM211 577h-34l135 204h62l53 -204h-34l-66 118z" />
    <glyph glyph-name="ydieresis.short" horiz-adv-x="496" 
d="M229 620c-36 0 -64 27 -64 63s28 66 64 66c35 0 65 -30 65 -66s-30 -63 -65 -63zM422 620c-35 0 -64 27 -64 63s29 66 64 66c36 0 65 -30 65 -66s-29 -63 -65 -63zM12 278c8 147 64 229 142 229c70 0 126 -85 126 -287c0 -80 -13 -169 -31 -234h6c78 115 153 237 153 355
c0 58 -20 107 -51 146c19 13 47 23 69 23c33 0 61 -23 61 -83c0 -122 -81 -282 -184 -419c-109 -144 -241 -263 -309 -263c-37 0 -73 24 -73 71c0 37 27 69 69 69c31 0 55 -20 70 -75h6c73 85 94 246 94 366c0 154 -27 236 -58 236c-27 0 -47 -47 -65 -134h-25z" />
    <glyph glyph-name="ygrave.short" horiz-adv-x="496" 
d="M12 278c8 147 64 229 142 229c70 0 126 -85 126 -287c0 -80 -13 -169 -31 -234h6c78 115 153 237 153 355c0 58 -20 107 -51 146c19 13 47 23 69 23c33 0 61 -23 61 -83c0 -122 -81 -282 -184 -419c-109 -144 -241 -263 -309 -263c-37 0 -73 24 -73 71c0 37 27 69 69 69
c31 0 55 -20 70 -75h6c73 85 94 246 94 366c0 154 -27 236 -58 236c-27 0 -47 -47 -65 -134h-25zM182 781h112l23 -204h-27l-108 195v9z" />
    <glyph glyph-name="uni0237.short" horiz-adv-x="273" 
d="M-89 -256l-11 19c58 43 85 79 115 206l107 447c-18 13 -58 17 -90 9l1 16c34 32 85 68 145 68c43 0 82 -28 60 -120l-81 -344c-44 -186 -110 -257 -246 -301z" />
    <glyph glyph-name="jcircumflex.short" horiz-adv-x="273" 
d="M-89 -256l-11 19c58 43 85 79 115 206l107 447c-18 13 -58 17 -90 9l1 16c34 32 85 68 145 68c43 0 82 -28 60 -120l-81 -344c-44 -186 -110 -257 -246 -301zM105 577h-33l135 204h61l54 -204h-34l-67 118z" />
    <glyph glyph-name="ampersand.uc" horiz-adv-x="804" 
d="M748 120l17 -16c-14 -25 -84 -120 -176 -120c-71 0 -104 31 -152 100c-66 -60 -138 -104 -218 -104c-134 0 -211 89 -211 179c0 112 95 173 204 224c-39 49 -58 83 -58 136c0 108 111 180 230 180c110 0 168 -55 168 -117c0 -67 -55 -114 -193 -173
c23 -27 51 -60 82 -104l65 -92c18 25 38 52 61 84l102 144l-87 25l6 29h237l-5 -29l-93 -25l-201 -260c49 -71 80 -108 130 -108c36 0 67 25 92 47zM283 66c50 0 91 14 133 49c-22 33 -48 70 -81 115c-42 55 -77 96 -104 129c-75 -47 -101 -88 -101 -146
c0 -82 63 -147 153 -147zM270 568c0 -50 21 -78 70 -136c70 46 110 90 110 149c0 46 -32 87 -84 87c-45 0 -96 -33 -96 -100z" />
    <glyph glyph-name="questiondown.uc" horiz-adv-x="417" 
d="M322 109l-24 -138l-48 15c-104 32 -202 122 -202 243c0 101 57 149 146 165l113 22l26 72h31l-28 -177l-163 -24c-56 -8 -84 -25 -84 -59c0 -61 90 -98 199 -114zM373 702c42 0 77 -34 77 -76s-35 -77 -77 -77c-43 0 -77 35 -77 77s34 76 77 76z" />
    <glyph glyph-name="exclamdown.uc" horiz-adv-x="304" 
d="M169 -29h-147l159 517h29zM217 702c42 0 76 -34 76 -76s-34 -77 -76 -77c-43 0 -77 35 -77 77s34 76 77 76z" />
    <glyph glyph-name="hyphen.uc" horiz-adv-x="372" 
d="M66 300l15 76h257l-15 -76h-257z" />
    <glyph glyph-name="endash.uc" horiz-adv-x="460" 
d="M43 313l10 46h389l-10 -46h-389z" />
    <glyph glyph-name="emdash.uc" horiz-adv-x="849" 
d="M43 313l9 47h779l-9 -47h-779z" />
    <glyph glyph-name="guilsinglleft.uc" horiz-adv-x="320" 
d="M276 471l21 -24l-160 -171l96 -168l-26 -20l-170 179l2 21z" />
    <glyph glyph-name="guilsinglright.uc" horiz-adv-x="320" 
d="M43 88l-19 23l157 170l-95 170l28 20l169 -180l-2 -21z" />
    <glyph glyph-name="guillemotleft.uc" horiz-adv-x="509" 
d="M276 471l21 -24l-160 -171l96 -168l-26 -20l-170 179l2 21zM465 471l20 -24l-159 -171l96 -168l-27 -20l-170 179l2 21z" />
    <glyph glyph-name="guillemotright.uc" horiz-adv-x="510" 
d="M43 88l-19 23l157 170l-95 170l28 20l169 -180l-2 -21zM233 88l-19 23l158 170l-96 170l28 20l169 -180l-2 -21z" />
    <glyph glyph-name="parenleft.uc" horiz-adv-x="350" 
d="M259 -143h-36c-91 113 -152 260 -127 439c19 183 145 365 305 495h42c-144 -146 -237 -307 -261 -520c-24 -167 2 -284 77 -414z" />
    <glyph glyph-name="parenright.uc" horiz-adv-x="340" 
d="M100 791h36c93 -114 152 -261 127 -440c-19 -183 -147 -366 -305 -494h-42c144 146 237 306 261 519c24 167 -2 285 -77 415z" />
    <glyph glyph-name="bracketleft.uc" horiz-adv-x="327" 
d="M220 -144h-200l186 936h198l-8 -37h-99l-168 -863h99z" />
    <glyph glyph-name="bracketright.uc" horiz-adv-x="320" 
d="M122 792h200l-186 -936h-197l8 36h98l169 863h-100z" />
    <glyph glyph-name="braceleft.uc" horiz-adv-x="344" 
d="M122 335v-3c71 -13 99 -48 81 -147l-33 -178c-19 -103 0 -125 74 -125l-5 -26h-16c-146 -4 -180 64 -146 195l46 177c15 58 -5 86 -47 87l-38 1l7 38l38 1c48 1 74 27 80 75l26 195c14 103 73 171 218 167h16l-5 -27c-74 0 -104 -21 -124 -125l-34 -169
c-18 -93 -58 -128 -138 -136z" />
    <glyph glyph-name="braceright.uc" horiz-adv-x="344" 
d="M226 312v3c-72 13 -100 48 -82 147l34 178c19 103 -1 125 -74 125l5 27h16c146 4 181 -65 146 -195l-47 -178c-15 -58 6 -86 48 -87l38 -1l-7 -38l-38 -1c-48 -1 -75 -27 -81 -75l-25 -194c-13 -103 -72 -171 -218 -167h-16l5 26c74 0 101 21 123 125l35 169
c19 93 57 128 138 136z" />
    <glyph glyph-name="slash.uc" horiz-adv-x="424" 
d="M-39 -170l-35 18l537 959l36 -20z" />
    <glyph glyph-name="backslash.uc" horiz-adv-x="443" 
d="M365 -163l-39 -7l-214 969l39 8z" />
    <glyph glyph-name="bar.uc" horiz-adv-x="246" 
d="M52 -169h-42l193 969h41z" />
    <glyph glyph-name="at.uc" horiz-adv-x="959" 
d="M524 224l12 38h-4l-27 -42c-43 -65 -107 -132 -167 -132c-52 0 -81 40 -81 90c0 173 176 362 308 362c20 0 45 -9 64 -19l12 35h85l-90 -317c-24 -84 -3 -113 41 -113c68 0 186 94 186 281c0 167 -123 298 -302 298c-204 0 -422 -177 -422 -457c0 -206 146 -323 337 -323
c75 0 134 19 159 29v-19c-16 -10 -111 -48 -195 -48c-233 0 -390 122 -390 336c0 295 285 518 546 518c213 0 339 -138 339 -313c0 -198 -165 -343 -312 -343c-82 0 -126 50 -99 139zM407 171c45 0 138 139 170 237l21 67c-15 18 -34 33 -52 33c-77 0 -169 -170 -168 -298
c0 -27 11 -39 29 -39z" />
    <glyph glyph-name="Q.cap" horiz-adv-x="790" 
d="M466 698c147 0 292 -108 292 -314c0 -169 -122 -353 -327 -394c141 -119 228 -161 370 -161c83 0 171 27 237 66l13 -21c-70 -57 -183 -121 -339 -121c-165 0 -258 46 -483 251c-96 42 -173 138 -173 289c0 195 158 405 410 405zM609 454c0 105 -43 210 -143 210
c-161 0 -261 -234 -261 -433c0 -106 39 -218 142 -218c168 0 262 239 262 441z" />
    <glyph glyph-name="Q.short" horiz-adv-x="790" 
d="M466 698c147 0 292 -108 292 -314c0 -174 -129 -363 -345 -396c86 -70 130 -117 198 -117c34 0 62 10 91 28l14 -19c-38 -35 -90 -70 -172 -70c-111 0 -186 75 -313 194c-98 41 -175 138 -175 289c0 195 158 405 410 405zM609 454c0 105 -43 210 -143 210
c-161 0 -261 -234 -261 -433c0 -106 39 -218 142 -218c168 0 262 239 262 441z" />
    <glyph glyph-name="ampersand.alt1" horiz-adv-x="856" 
d="M327 668c-74 0 -106 -69 -106 -130c0 -28 4 -54 12 -76h5c31 22 53 34 80 34c25 0 43 -13 43 -38c0 -29 -26 -45 -59 -45c-20 0 -44 6 -72 16c-38 -32 -68 -81 -68 -148c0 -132 98 -223 241 -223c154 0 254 106 254 228c0 88 -55 132 -112 132s-91 -35 -91 -83
c0 -42 29 -64 58 -69h5l11 80c3 2 14 6 24 6c28 0 46 -17 46 -44c0 -41 -41 -70 -85 -70c-56 0 -104 34 -104 105c0 72 73 186 219 186h112c73 0 113 16 113 50s-43 65 -83 84c18 37 43 50 68 50c39 0 58 -39 58 -87c0 -112 -87 -205 -204 -202l-63 2l-1 -3
c37 -16 81 -68 81 -153c0 -163 -118 -317 -357 -317c-183 0 -309 113 -309 256c0 98 61 180 154 229v4c-45 26 -73 60 -73 104c0 104 139 161 244 163c69 0 150 -24 150 -80c0 -36 -34 -57 -71 -68c-28 62 -64 107 -120 107z" />
    <glyph glyph-name="ampersand.alt2" horiz-adv-x="1223" 
d="M841 717c-26 36 -41 63 -41 85c0 30 19 52 55 52c32 0 48 -27 48 -58c0 -56 -54 -176 -170 -303c1 -13 2 -28 2 -41c0 -228 -133 -483 -317 -483c-105 0 -157 80 -157 179c0 196 163 355 283 355c48 0 76 -32 79 -78c27 24 50 47 74 73c-14 78 -65 144 -175 145
c-156 0 -375 -196 -375 -495c0 -199 111 -308 276 -308c298 0 455 333 489 566c2 26 -19 41 -47 41c-36 0 -56 -22 -56 -51c0 -27 19 -52 44 -69c-9 -22 -24 -38 -47 -38c-25 0 -39 19 -39 53c0 62 52 182 154 182c37 0 54 -9 114 -34l131 -53l4 61c2 29 13 55 47 55
c22 0 36 -18 36 -38c0 -51 -88 -145 -163 -145c-31 0 -49 8 -73 18l-68 30l-2 -1c-33 -306 -222 -654 -565 -654c-200 0 -345 131 -345 362c0 304 233 561 487 561c114 0 180 -63 203 -157c51 59 91 123 114 188zM702 445c0 4 -1 10 -1 15c-81 -82 -187 -164 -321 -234
c-2 -14 -2 -29 -2 -43c0 -92 38 -130 93 -130c127 0 231 199 231 392zM518 467c-53 0 -113 -92 -133 -205c46 25 93 53 139 86c13 26 22 56 22 80s-9 39 -28 39z" />
    <glyph glyph-name="ampersand.alt3" horiz-adv-x="863" 
d="M345 -147c-175 2 -300 114 -300 317c0 241 194 488 336 488c41 0 65 -28 65 -64c0 -70 -72 -116 -152 -145v-5h148l98 171h53l-54 -171h138l-9 -38h-139l-95 -268h4c51 24 121 102 153 143l23 -16c-69 -105 -155 -228 -250 -228c-40 0 -58 39 -42 83l103 286h-256
c-16 -51 -27 -111 -27 -172c0 -184 94 -273 234 -273c260 0 419 288 419 511c0 151 -60 228 -130 277c6 33 27 58 57 58c71 0 117 -141 117 -265c0 -379 -187 -692 -494 -689zM328 607c-46 0 -111 -71 -151 -179c102 26 182 82 182 142c0 22 -13 37 -31 37z" />
    <glyph glyph-name="A.swash" horiz-adv-x="944" 
d="M572 29l83 21l44 212h-142c-124 -186 -221 -286 -380 -286c-134 0 -197 78 -197 177c0 114 90 174 168 174c77 0 124 -49 124 -104c0 -65 -51 -87 -87 -87c-43 0 -66 33 -69 58l69 72v6c-6 7 -22 19 -48 19c-55 0 -117 -47 -117 -128c0 -80 50 -147 148 -147
c72 0 125 29 191 87c90 79 185 205 328 422l103 155l106 13l13 -13l-116 -630l66 -22l-5 -28h-287zM765 595l-181 -292h125l61 291z" />
    <glyph glyph-name="E.swash" horiz-adv-x="561" 
d="M205 424c0 -12 0 -23 2 -33c42 16 84 26 121 26c53 0 85 -21 85 -51c0 -50 -60 -70 -117 -70c-45 0 -86 13 -118 38c-30 -28 -50 -66 -50 -114c0 -89 66 -148 159 -148c112 0 168 61 213 148l25 -8c-35 -132 -121 -244 -288 -244c-110 0 -213 68 -213 190
c0 90 54 158 124 202c-26 31 -40 70 -40 115c0 124 108 227 275 227c109 0 184 -70 184 -142c0 -47 -32 -81 -69 -81c-20 0 -38 9 -53 22c25 32 42 74 42 109c0 41 -27 58 -62 58c-108 0 -220 -127 -220 -244zM291 322c27 0 49 9 49 32c0 15 -13 27 -44 27
c-25 0 -53 -8 -79 -21c13 -25 37 -38 74 -38z" />
    <glyph glyph-name="J.swash" horiz-adv-x="509" 
d="M386 616l-3 6c-10 -5 -58 -18 -169 -25c-69 -5 -117 -18 -117 -56c0 -33 32 -56 88 -69c-6 -43 -32 -66 -66 -66c-35 0 -70 32 -70 86c0 81 86 188 248 188h148l32 33c15 18 34 29 54 29c24 0 37 -15 37 -33c0 -28 -27 -47 -68 -62l-41 -16l-66 -297h85l-8 -41h-86
l-53 -244c-41 -188 -154 -300 -291 -300c-71 0 -129 40 -129 93c0 40 33 63 85 65c8 -82 31 -125 69 -125c63 0 91 81 116 193l71 318h-115l11 41h113l5 22c24 108 77 207 120 260z" />
    <glyph glyph-name="K.swash" horiz-adv-x="843" 
d="M267 680h287l-6 -29l-85 -22l-115 -578l73 -23l-5 -28h-291l5 29l79 21l110 560h-96c-112 0 -146 -37 -146 -72c0 -37 32 -59 92 -71c-2 -46 -31 -71 -67 -71c-39 0 -74 33 -74 90c0 124 133 194 239 194zM951 -253c-176 0 -308 95 -538 608v2l331 272l-79 21l5 30h219
l-6 -30l-76 -21l-275 -221c185 -382 316 -626 445 -626c46 0 85 33 103 120c9 7 23 11 40 11c27 0 44 -19 44 -43c0 -63 -95 -123 -213 -123z" />
    <glyph glyph-name="K.midswash" horiz-adv-x="691" 
d="M799 -253c-175 0 -309 95 -538 608v2l332 272l-80 21l4 30h219l-5 -30l-77 -21l-274 -221c186 -382 316 -626 444 -626c47 0 87 33 104 120c9 7 24 11 41 11c27 0 43 -19 43 -43c0 -63 -95 -123 -213 -123zM-28 0l6 29l78 21l116 579l-72 23l5 28h296l-5 -29l-85 -22
l-115 -578l72 -23l-4 -28h-292z" />
    <glyph glyph-name="M.swash" horiz-adv-x="1350" 
d="M535 680h307l-2 -490h4l253 390c40 61 52 100 52 100h213l-7 -29l-81 -21l-69 -580l66 -22l-6 -28h-287l6 29l85 21l64 511l-320 -488l-44 -73h-51l-1 74l-7 531h-14c-95 -340 -217 -631 -514 -627c-139 1 -200 75 -199 167c1 95 73 143 133 142c48 0 74 -31 73 -64
c0 -32 -25 -62 -62 -66l-78 39h-8c-9 -9 -15 -28 -15 -46c-1 -70 47 -132 146 -134c85 -1 174 45 244 116c100 102 182 267 240 450h-162c-104 0 -127 -16 -129 -36c-2 -23 22 -40 72 -54c-6 -35 -21 -73 -61 -73c-35 0 -55 40 -55 73c1 87 80 188 214 188z" />
    <glyph glyph-name="N.swash" horiz-adv-x="1163" 
d="M469 596h-116c-85 0 -111 -10 -113 -25c-2 -18 27 -33 70 -46c-5 -32 -24 -63 -57 -63c-25 0 -51 22 -51 60c0 76 64 158 151 158h279c75 -219 141 -403 202 -546c38 471 149 575 277 576c65 1 114 -37 114 -90c0 -36 -28 -69 -71 -69c-17 0 -40 5 -52 15v108
c-93 -14 -190 -175 -243 -599c88 -194 167 -299 245 -299c66 0 79 60 93 145c11 5 30 9 47 6c27 -4 44 -22 44 -51c0 -57 -74 -134 -209 -134c-75 0 -159 29 -239 123c-92 109 -180 304 -332 740h-6c-32 -454 -165 -622 -367 -622c-92 0 -166 55 -166 139c0 47 32 78 71 78
c33 0 59 -25 64 -61l-39 -82v-4c10 -19 33 -37 69 -37c171 0 308 275 335 580z" />
    <glyph glyph-name="Q.swash" horiz-adv-x="821" 
d="M1260 -127c0 -52 -92 -141 -273 -141c-129 0 -215 22 -478 141l-186 84c-85 -33 -170 -52 -245 -52c-87 0 -130 27 -130 75c0 62 110 123 209 123c76 0 146 -21 247 -62c157 110 262 292 262 466c0 109 -44 192 -129 192c-166 0 -288 -213 -288 -357
c0 -85 36 -127 94 -127c100 0 159 120 159 199c0 52 -26 75 -58 75c-28 0 -49 -20 -49 -48c0 -27 18 -52 48 -71c-8 -19 -23 -35 -46 -35c-26 0 -42 22 -42 55c0 71 64 169 133 169c45 0 74 -34 74 -86c0 -133 -131 -311 -263 -311c-108 0 -171 67 -171 175
c0 207 213 390 417 390c130 0 259 -76 259 -249c0 -176 -159 -349 -349 -459c41 -17 87 -36 139 -60c205 -91 375 -176 490 -176c61 0 93 45 92 140c55 4 84 -22 84 -50zM99 -57c63 0 125 11 182 33c-89 38 -154 62 -205 62c-48 0 -72 -20 -72 -44c0 -31 32 -51 95 -51z" />
    <glyph glyph-name="R.swash" horiz-adv-x="845" 
d="M124 0l6 29l78 21l120 598c-159 -11 -255 -65 -255 -113c0 -36 31 -55 96 -68c0 -46 -31 -71 -67 -71c-39 0 -74 33 -74 90c0 104 83 194 274 194h212c153 0 258 -57 258 -155c0 -99 -86 -149 -194 -181c175 -353 332 -565 448 -565c50 0 75 33 91 118c13 6 27 9 41 9
c30 0 47 -19 47 -44c0 -62 -95 -118 -213 -118c-84 0 -172 29 -246 104c-98 101 -193 255 -289 464h-61l-52 -261l88 -23l-5 -28h-303zM463 650l-61 -303c154 3 231 71 231 168c0 75 -53 137 -170 135z" />
    <glyph glyph-name="R.midswash" horiz-adv-x="695" 
d="M-28 0l6 29l78 21l116 579l-72 23l5 28h256c146 1 260 -54 260 -155c0 -96 -84 -149 -195 -181c162 -329 326 -565 450 -565c50 0 75 38 91 118c12 6 25 9 40 9c31 0 48 -19 48 -44c0 -62 -95 -118 -214 -118c-83 0 -169 27 -246 104c-98 99 -190 250 -290 464h-61
l-51 -261l88 -23l-6 -28h-303zM311 650l-60 -306c155 5 230 76 230 171c0 77 -55 137 -170 135z" />
    <glyph glyph-name="T.swash" horiz-adv-x="719" 
d="M214 431l2 -12c-10 -38 -40 -67 -84 -67c-52 0 -92 46 -92 119c0 115 92 259 343 227l326 -41l16 93h35c36 0 51 -14 51 -33c0 -56 -105 -106 -216 -106c-27 0 -57 2 -89 4l-113 -565l79 -22l-5 -28h-305l6 29l87 21l115 580c-45 4 -88 8 -123 8
c-102 0 -164 -60 -164 -122c0 -61 49 -99 131 -85z" />
    <glyph glyph-name="Y.swash" horiz-adv-x="743" 
d="M174 0l6 28l77 21l57 291c16 85 16 148 4 191c-17 60 -58 82 -100 82c-68 0 -107 -56 -143 -147l-25 8c23 135 106 245 217 245c104 0 175 -74 147 -276h12c60 180 119 276 222 276c100 0 142 -90 140 -215l-23 -5c-17 77 -59 126 -126 126c-83 0 -142 -75 -187 -296
l-57 -280l70 -22l-5 -27h-286z" />
    <glyph glyph-name="AE.swash" horiz-adv-x="1248" 
d="M1000 332h-113l-56 -277c11 -8 29 -16 63 -16h147l124 180h31l-67 -219h-518l6 29l74 21l55 281h-137c-159 -257 -259 -355 -436 -355c-128 0 -193 82 -193 175c0 117 90 177 168 177c77 0 124 -49 124 -104c0 -57 -42 -87 -87 -87c-39 0 -66 30 -69 58l69 72v6
c-6 7 -22 19 -48 19c-55 0 -117 -47 -117 -130c0 -77 51 -144 146 -144c69 0 120 26 179 71c95 74 206 221 344 442l59 94l-95 27l5 28h514l75 2l-30 -198h-29l-38 158h-203l-53 -269h116l49 93h30l-48 -232h-31zM808 637h-17l-155 -263h120z" />
    <glyph glyph-name="k.swash" horiz-adv-x="528" 
d="M160 144l29 21c142 86 215 156 215 214c0 25 -14 37 -32 37c-72 0 -201 -194 -239 -345l-15 -62l-110 -24l-13 15l168 657l-65 53l5 12l207 45l-123 -481h7c72 117 141 223 233 223c48 0 84 -35 83 -90c-1 -96 -150 -182 -229 -230c168 -249 288 -403 371 -403
c51 0 71 50 96 118c46 5 67 -20 67 -46c-1 -69 -115 -105 -199 -105c-173 0 -284 127 -456 391z" />
    <glyph glyph-name="v.swash" horiz-adv-x="457" 
d="M72 652c92 0 141 -83 150 -235c63 77 105 95 150 95c51 0 94 -37 94 -95c0 -91 -100 -187 -210 -314l-102 -117h-10l-38 18l-17 7c7 55 17 160 17 293c0 184 -30 267 -86 267c-31 0 -57 -27 -90 -88l-20 10c34 110 96 159 162 159zM210 99l6 -2c125 151 157 228 157 276
c0 41 -26 64 -55 64c-22 0 -45 -2 -95 -53c0 -8 1 -16 1 -24c0 -151 -7 -202 -14 -261z" />
    <glyph glyph-name="w.swash" horiz-adv-x="705" 
d="M72 652c77 0 124 -59 143 -169c39 54 82 81 132 81c79 0 114 -56 123 -155c67 78 100 103 147 103c51 0 97 -34 97 -95c0 -87 -82 -163 -211 -314l-102 -117h-9l-53 25c5 42 13 120 16 216l-199 -241h-10l-57 25c7 55 17 160 17 293c0 184 -29 267 -86 267
c-32 0 -59 -31 -90 -88l-20 10c34 110 96 159 162 159zM210 99l6 -1l140 172c1 15 1 32 1 48c0 120 -12 177 -66 177c-26 0 -45 -11 -72 -46c3 -28 5 -57 5 -89c0 -151 -7 -202 -14 -261zM569 438c-31 0 -52 -17 -96 -68v-22c0 -124 -8 -199 -13 -250l5 -1
c125 154 156 226 156 280c0 35 -22 61 -52 61z" />
    <glyph glyph-name="z.swash" horiz-adv-x="475" 
d="M327 482l80 -37l52 64l38 -38l-345 -316l1 -3c103 9 161 -5 230 -121l54 -91c77 -130 99 -166 132 -166c37 0 52 62 63 123c51 -4 71 -26 71 -55c0 -62 -87 -98 -156 -98c-97 0 -167 40 -246 175l-60 104c-48 82 -71 99 -103 99c-25 0 -40 -19 -48 -37l26 -45
c0 -29 -21 -58 -58 -58c-31 0 -54 19 -54 55c0 33 27 54 57 81l256 239l-86 33c-69 26 -122 32 -127 9c-6 -15 9 -41 61 -72c-28 -38 -49 -59 -79 -59c-29 0 -52 19 -52 58c1 58 101 184 194 184c32 0 57 -9 99 -28z" />
    <glyph glyph-name="v.altinitial" horiz-adv-x="708" 
d="M410 389h-231c-75 0 -108 -27 -108 -61c0 -33 24 -55 75 -81c-9 -42 -36 -69 -72 -69c-35 0 -66 32 -66 87c0 80 108 230 282 230h206v-11l-42 -72c-52 -90 -72 -147 -72 -203c0 -62 36 -95 86 -95c79 0 143 89 143 198c0 73 -24 119 -54 167c15 13 42 26 72 26
c36 0 62 -25 62 -88c0 -167 -160 -430 -308 -430c-68 0 -114 47 -113 121c0 60 32 115 79 186l61 91v4z" />
    <glyph glyph-name="w.altinitial" horiz-adv-x="906" 
d="M498 484l-39 -63c-47 -77 -97 -156 -100 -221c-3 -59 27 -94 69 -94c48 0 85 33 117 76c11 150 20 222 37 296c14 18 33 27 53 27c41 0 55 -30 46 -68c0 0 -72 -190 -95 -242c12 -57 52 -87 103 -87c81 0 131 76 131 182c0 70 -33 140 -65 186c19 18 48 30 71 30
c39 0 60 -28 60 -105c0 -96 -60 -413 -237 -413c-71 0 -112 45 -105 146h-2c-53 -94 -125 -148 -194 -148c-65 0 -106 50 -103 113c4 68 56 145 122 233l40 53v4h-227c-76 0 -109 -27 -109 -61c0 -29 17 -52 75 -81c-9 -42 -36 -69 -72 -69c-32 0 -66 32 -66 82
c0 85 108 235 282 235h208v-11z" />
    <glyph glyph-name="e.final" horiz-adv-x="1024" 
d="M397 -54c-270 0 -370 86 -381 209c4 111 69 210 155 279c57 45 121 76 184 76c47 0 88 -27 86 -78c-2 -99 -157 -169 -295 -196c-3 -16 -4 -35 -4 -52c13 -89 138 -135 322 -135c323 0 499 104 499 263c0 69 -36 105 -91 139c25 39 54 57 80 57c32 0 72 -34 72 -127
c0 -167 -157 -435 -627 -435zM295 463c-46 0 -117 -81 -143 -199c83 22 170 92 173 163c0 23 -11 36 -30 36z" />
    <glyph glyph-name="ae.hist" horiz-adv-x="618" 
d="M609 430c0 -79 -118 -158 -245 -262c14 -67 53 -81 89 -81c45 0 84 38 119 95l23 -12c-31 -89 -92 -184 -200 -184c-78 0 -118 44 -129 104h-3c-53 -62 -106 -106 -171 -106c-51 0 -89 38 -89 103c0 87 102 208 235 297c95 72 209 126 277 126c66 0 94 -33 94 -80z
M258 126c-2 106 36 208 87 286l-4 2c-138 -100 -208 -198 -208 -282c0 -36 15 -54 38 -54c29 0 55 16 87 48zM474 468c-50 0 -116 -107 -116 -266c86 81 146 158 146 225c0 27 -14 41 -30 41z" />
    <glyph glyph-name="T_h.swash" horiz-adv-x="1143" 
d="M903 767l-122 -483h7c59 112 152 225 241 225c53 0 84 -33 61 -117l-81 -298h3c30 22 65 63 92 101l22 -11c-54 -109 -141 -196 -204 -196c-35 0 -61 26 -43 92l85 299c7 25 0 36 -14 36c-50 0 -168 -164 -216 -330l-21 -75l-111 -25l-14 15l185 731zM214 431l2 -12
c-10 -38 -40 -67 -84 -67c-52 0 -92 46 -92 119c0 115 92 261 343 227l262 -35l26 94h34c38 0 51 -14 51 -33c0 -51 -87 -106 -208 -106c-13 0 -28 1 -42 2l-113 -570l79 -22l-5 -28h-305l6 29l87 21l116 581c-43 4 -86 7 -124 7c-102 0 -164 -60 -164 -122
c0 -61 49 -99 131 -85z" />
    <glyph glyph-name="T_h.altswash" horiz-adv-x="1118" 
d="M587 0l186 731l129 36l-124 -485h7c70 122 153 227 241 227c54 0 83 -42 81 -105c-2 -180 -155 -416 -274 -416c-27 0 -47 19 -47 43c0 17 10 33 21 43c16 -14 65 -28 75 -26c22 41 89 189 90 320c0 28 -7 46 -25 46c-51 0 -168 -164 -215 -329l-21 -75l-112 -25z
M214 431l2 -12c-10 -38 -40 -67 -84 -67c-52 0 -92 46 -92 119c0 115 92 261 343 227l262 -35l26 94h34c38 0 51 -14 51 -33c0 -51 -87 -106 -208 -106c-13 0 -28 1 -42 2l-113 -570l79 -22l-5 -28h-305l6 29l87 21l116 581c-43 4 -86 7 -124 7c-102 0 -164 -60 -164 -122
c0 -61 49 -99 131 -85z" />
    <glyph glyph-name="f_k.swash" horiz-adv-x="833" 
d="M465 144l30 21c143 86 215 156 215 214c0 25 -15 37 -33 37c-72 0 -201 -194 -239 -345l-15 -62l-110 -24l-13 15l172 676c-27 36 -56 47 -76 47c-50 0 -97 -45 -134 -228h102l-12 -46h-99l-72 -370c-43 -222 -180 -336 -289 -336c-38 0 -77 25 -77 63c0 37 28 65 66 77
c27 -59 56 -90 80 -90c28 0 45 39 64 140l101 516h-93l8 46h95c42 135 181 274 310 274c28 0 55 -12 73 -26l96 24l-122 -481h6c72 117 141 223 234 223c47 0 83 -35 82 -90c-1 -96 -150 -182 -229 -230c168 -249 288 -403 371 -403c51 0 71 50 96 118c46 5 67 -20 67 -46
c-1 -69 -114 -105 -198 -105c-173 0 -285 127 -457 391z" />
    <glyph glyph-name="f_f_k.swash" horiz-adv-x="1117" 
d="M748 144l30 21c142 86 215 156 215 214c0 25 -15 37 -34 37c-72 0 -199 -194 -237 -345l-15 -62l-110 -24l-13 15l172 675c-27 37 -56 48 -76 48c-50 0 -97 -45 -134 -228h101l-12 -46h-98l-67 -341c-47 -240 -192 -335 -281 -335c-37 0 -68 26 -68 61c0 29 20 56 58 70
c24 -58 52 -81 72 -81c24 0 41 29 63 139l95 487h-156l-72 -370c-43 -222 -180 -336 -289 -336c-38 0 -77 25 -77 63c0 37 28 65 66 77c27 -59 56 -90 80 -90c28 0 45 39 64 139l96 493c1 7 3 16 5 24h-93l8 46h102c53 122 178 235 295 235c41 0 81 -22 103 -48
c56 52 123 87 188 87c29 0 55 -12 74 -26l96 24l-123 -481h6c72 117 141 223 234 223c47 0 84 -35 83 -90c-1 -96 -151 -182 -230 -230c168 -249 288 -403 372 -403c50 0 70 50 94 118c47 5 69 -20 68 -46c0 -69 -115 -105 -199 -105c-173 0 -283 127 -456 391zM420 495
c12 41 33 81 61 119c-29 47 -64 71 -94 71c-45 0 -89 -39 -125 -190h158z" />
    <glyph glyph-name="Aacute.swash" horiz-adv-x="944" 
d="M572 29l83 21l44 212h-142c-124 -186 -221 -286 -380 -286c-134 0 -197 78 -197 177c0 114 90 174 168 174c77 0 124 -49 124 -104c0 -65 -51 -87 -87 -87c-43 0 -66 33 -69 58l69 72v6c-6 7 -22 19 -48 19c-55 0 -117 -47 -117 -128c0 -80 50 -147 148 -147
c72 0 125 29 191 87c90 79 185 205 328 422l103 155l106 13l13 -13l-116 -630l66 -22l-5 -28h-287zM765 595l-181 -292h125l61 291zM919 892h120v-12l-161 -135h-43z" />
    <glyph glyph-name="Abreve.swash" horiz-adv-x="944" 
d="M572 29l83 21l44 212h-142c-124 -186 -221 -286 -380 -286c-134 0 -197 78 -197 177c0 114 90 174 168 174c77 0 124 -49 124 -104c0 -65 -51 -87 -87 -87c-43 0 -66 33 -69 58l69 72v6c-6 7 -22 19 -48 19c-55 0 -117 -47 -117 -128c0 -80 50 -147 148 -147
c72 0 125 29 191 87c90 79 185 205 328 422l103 155l106 13l13 -13l-116 -630l66 -22l-5 -28h-287zM862 741c-89 0 -124 66 -122 145h30c16 -44 42 -73 101 -73c57 0 91 30 117 73h27c-13 -77 -61 -145 -153 -145zM765 595l-181 -292h125l61 291z" />
    <glyph glyph-name="Acircumflex.swash" horiz-adv-x="944" 
d="M572 29l83 21l44 212h-142c-124 -186 -221 -286 -380 -286c-134 0 -197 78 -197 177c0 114 90 174 168 174c77 0 124 -49 124 -104c0 -65 -51 -87 -87 -87c-43 0 -66 33 -69 58l69 72v6c-6 7 -22 19 -48 19c-55 0 -117 -47 -117 -128c0 -80 50 -147 148 -147
c72 0 125 29 191 87c90 79 185 205 328 422l103 155l106 13l13 -13l-116 -630l66 -22l-5 -28h-287zM751 745h-46l145 147h87l81 -147h-42l-95 76zM765 595l-181 -292h125l61 291z" />
    <glyph glyph-name="Adieresis.swash" horiz-adv-x="944" 
d="M572 29l83 21l44 212h-142c-124 -186 -221 -286 -380 -286c-134 0 -197 78 -197 177c0 114 90 174 168 174c77 0 124 -49 124 -104c0 -65 -51 -87 -87 -87c-43 0 -66 33 -69 58l69 72v6c-6 7 -22 19 -48 19c-55 0 -117 -47 -117 -128c0 -80 50 -147 148 -147
c72 0 125 29 191 87c90 79 185 205 328 422l103 155l106 13l13 -13l-116 -630l66 -22l-5 -28h-287zM765 595l-181 -292h125l61 291zM760 759c-36 0 -65 28 -65 63c0 36 29 66 65 66c35 0 64 -30 64 -66c0 -35 -29 -63 -64 -63zM991 759c-35 0 -63 28 -63 63
c0 36 28 66 63 66c36 0 66 -30 66 -66c0 -35 -30 -63 -66 -63z" />
    <glyph glyph-name="Agrave.swash" horiz-adv-x="944" 
d="M572 29l83 21l44 212h-142c-124 -186 -221 -286 -380 -286c-134 0 -197 78 -197 177c0 114 90 174 168 174c77 0 124 -49 124 -104c0 -65 -51 -87 -87 -87c-43 0 -66 33 -69 58l69 72v6c-6 7 -22 19 -48 19c-55 0 -117 -47 -117 -128c0 -80 50 -147 148 -147
c72 0 125 29 191 87c90 79 185 205 328 422l103 155l106 13l13 -13l-116 -630l66 -22l-5 -28h-287zM765 595l-181 -292h125l61 291zM723 892h114l48 -147h-41l-121 135v12z" />
    <glyph glyph-name="Amacron.swash" horiz-adv-x="944" 
d="M572 29l83 21l44 212h-142c-124 -186 -221 -286 -380 -286c-134 0 -197 78 -197 177c0 114 90 174 168 174c77 0 124 -49 124 -104c0 -65 -51 -87 -87 -87c-43 0 -66 33 -69 58l69 72v6c-6 7 -22 19 -48 19c-55 0 -117 -47 -117 -128c0 -80 50 -147 148 -147
c72 0 125 29 191 87c90 79 185 205 328 422l103 155l106 13l13 -13l-116 -630l66 -22l-5 -28h-287zM722 785l14 68h298l-14 -68h-298zM765 595l-181 -292h125l61 291z" />
    <glyph glyph-name="Aogonek.swash" horiz-adv-x="944" 
d="M854 0h-190c-95 -55 -120 -98 -120 -132c0 -27 15 -44 44 -44c25 0 46 11 82 46l16 -13c-39 -61 -88 -112 -148 -112c-55 0 -85 37 -85 77c0 63 49 104 196 202l50 238h-141c-123 -186 -222 -286 -381 -286c-133 0 -197 78 -197 177c0 114 90 174 168 174
c77 0 124 -49 124 -104c0 -65 -51 -87 -87 -87c-43 0 -66 33 -69 58l69 72v6c-6 7 -22 19 -48 19c-55 0 -117 -47 -117 -128c0 -80 50 -147 148 -147c72 0 125 29 191 87c90 79 186 204 328 422l101 155l108 13l13 -13l-116 -630l66 -22zM766 595l-181 -292h124l61 291z" />
    <glyph glyph-name="Aring.swash" horiz-adv-x="944" 
d="M572 29l83 21l44 212h-142c-124 -186 -221 -286 -380 -286c-134 0 -197 78 -197 177c0 114 90 174 168 174c77 0 124 -49 124 -104c0 -65 -51 -87 -87 -87c-43 0 -66 33 -69 58l69 72v6c-6 7 -22 19 -48 19c-55 0 -117 -47 -117 -128c0 -80 50 -147 148 -147
c72 0 125 29 191 87c90 79 185 205 328 422l103 155l106 13l13 -13l-116 -630l66 -22l-5 -28h-287zM781 856c0 58 47 103 107 103c61 0 106 -44 106 -102c0 -57 -46 -103 -107 -103s-106 45 -106 102zM765 595l-181 -292h125l61 291zM820 857c0 -40 31 -69 68 -69
s66 28 66 68c0 41 -30 70 -67 70s-67 -28 -67 -69z" />
    </font>
</defs>
</svg>
