<?xml version="1.0" standalone="no"?>
<!DOCTYPE svg PUBLIC "-//W3C//DTD SVG 1.1//EN" "http://www.w3.org/Graphics/SVG/1.1/DTD/svg11.dtd" >
<svg xmlns="http://www.w3.org/2000/svg" xmlns:xlink="http://www.w3.org/1999/xlink" version="1.1">
<metadata>
Created by FontForge 20150526 at Sun Oct 15 10:33:34 2017
 By David Newman

</metadata>
<defs>
<font id="LyonDisplay-Regular" horiz-adv-x="409" >
  <font-face 
    font-family="Lyon Display Regular"
    font-weight="400"
    font-stretch="normal"
    units-per-em="1024"
    panose-1="2 0 6 3 8 0 0 2 0 4"
    ascent="778"
    descent="-246"
    x-height="484"
    cap-height="680"
    bbox="-165 -264 1178 1108"
    underline-thickness="51.2"
    underline-position="-102.4"
    stemh="32"
    stemv="96"
    unicode-range="U+0020-FB04"
  />
<missing-glyph horiz-adv-x="164" 
 />
    <glyph glyph-name="f_b" unicode="fb" horiz-adv-x="863" 
d="M540 -16c-47 0 -89 10 -117 21l-38 15v661c-22 32 -51 46 -82 46c-61 0 -117 -48 -117 -190v-53h126v-42h-125v-399l76 -20v-23h-233v23l61 20v393h-74v29l74 21c2 151 108 279 250 279c34 0 64 -11 87 -26l53 25v-347c23 27 80 81 159 81c94 0 188 -67 188 -230
c0 -153 -147 -284 -288 -284zM585 438c-50 0 -87 -28 -104 -44v-325c2 -3 39 -43 106 -43c74 0 144 64 144 210c0 117 -69 202 -146 202z" />
    <glyph glyph-name="f_f" unicode="ff" horiz-adv-x="617" 
d="M385 43v399h-198v-399l74 -20v-23h-231v23l61 20v393h-74v29l76 21c16 135 109 251 247 251c49 0 89 -23 112 -50c41 49 94 78 149 78c67 0 131 -40 131 -89c0 -45 -39 -58 -82 -53l-19 88c-15 12 -32 20 -59 20c-44 0 -94 -39 -92 -157l1 -90h136v-42h-136v-399l77 -20
v-23h-233v23zM303 700c-59 0 -117 -46 -117 -191v-25h199c0 53 10 95 25 132c-17 46 -52 84 -107 84z" />
    <glyph glyph-name="f_f_b" unicode="ffb" horiz-adv-x="1157" 
d="M326 0v23l59 20v399h-198v-399l74 -20v-23h-231v23l61 20v393h-74v29l76 21c16 135 109 251 247 251c54 0 94 -27 117 -56c45 51 107 84 178 84c34 0 64 -11 88 -26l53 25v-347c23 27 80 81 159 81c93 0 187 -67 187 -230c0 -153 -146 -284 -288 -284
c-47 0 -89 10 -116 21l-38 15v659c-23 34 -52 48 -84 48c-60 0 -118 -55 -116 -196v-47h127v-42h-126v-399l77 -20v-23h-232zM880 438c-50 0 -87 -28 -104 -44v-325c2 -3 39 -43 105 -43c75 0 144 64 144 210c0 117 -68 202 -145 202zM303 700c-59 0 -117 -46 -117 -191v-25
h199c0 42 10 83 25 119c-15 52 -46 97 -107 97z" />
    <glyph glyph-name="f_f_h" unicode="ffh" horiz-adv-x="1161" 
d="M326 0v23l59 20v399h-198v-399l74 -20v-23h-231v23l61 20v393h-74v29l76 21c16 135 109 251 247 251c53 0 94 -26 117 -56c45 52 107 84 178 84c34 0 64 -11 88 -26l53 25v-360c22 23 93 94 174 94c88 0 134 -42 134 -171v-284l65 -21v-22h-222v23l61 20v284
c-4 59 -27 103 -94 103c-49 0 -100 -38 -118 -53v-334l65 -20v-23h-219v23l58 20v637c-23 33 -51 47 -83 47c-61 0 -116 -48 -116 -190v-53h126v-42h-126v-399l74 -20v-23h-229zM303 700c-59 0 -117 -46 -117 -191v-25h199c0 43 9 83 24 120c-15 51 -46 96 -106 96z" />
    <glyph glyph-name="f_f_i" unicode="ffi" horiz-adv-x="859" 
d="M326 0v23l59 20v399h-198v-399l74 -20v-23h-231v23l61 20v393h-74v29l76 21c16 134 109 251 247 251c54 0 94 -27 117 -56c45 52 108 84 180 84c75 0 134 -47 134 -94c0 -30 -21 -55 -59 -55c-17 0 -24 4 -25 5l-22 79c-7 11 -32 27 -67 27c-61 0 -117 -47 -117 -192v-51
h256l39 14v-455l70 -20v-23h-224v23l58 20v399h-199v-399l74 -20v-23h-229zM303 700c-59 0 -117 -46 -117 -191v-25h200c0 43 9 83 23 119c-14 51 -46 97 -106 97z" />
    <glyph glyph-name="f_f_j" unicode="ffj" horiz-adv-x="852" 
d="M326 0v23l59 20v399h-198v-399l74 -20v-23h-231v23l61 20v393h-74v29l76 21c16 134 109 251 247 251c54 0 94 -27 117 -57c45 52 108 85 180 85c75 0 134 -47 134 -94c0 -30 -21 -55 -59 -55c-17 0 -24 4 -25 5l-22 79c-7 11 -32 27 -67 27c-61 0 -117 -47 -117 -192v-51
h255l39 14v-465c0 -83 -4 -146 -36 -188c-41 -54 -94 -80 -154 -99l-6 17c85 46 97 101 101 251v428h-199v-399l77 -20v-23h-232zM303 700c-59 0 -117 -46 -117 -191v-25h200c0 42 10 82 24 118c-15 52 -46 98 -107 98z" />
    <glyph glyph-name="f_f_k" unicode="ffk" horiz-adv-x="1110" 
d="M326 0v23l59 20v399h-198v-399l74 -20v-23h-231v23l61 20v393h-74v29l76 21c16 135 109 251 247 251c54 0 93 -26 116 -55c45 51 108 83 179 83c34 0 64 -11 88 -26l53 25v-721l65 -20v-23h-220v23l59 20v637c-23 33 -51 47 -83 47c-61 0 -116 -48 -116 -190v-53h126v-42
h-126v-399l74 -20v-23h-229zM1051 -12c-39 0 -71 16 -115 72l-153 197l191 174l-68 32v21h193v-18l-67 -28l-168 -148l246 -282s-24 -20 -59 -20zM303 700c-59 0 -117 -46 -117 -191v-25h199c0 43 10 84 24 120c-14 51 -46 96 -106 96z" />
    <glyph glyph-name="f_f_l" unicode="ffl" horiz-adv-x="864" 
d="M326 0v23l59 20v399h-198v-399l74 -20v-23h-231v23l61 20v393h-74v29l76 21c16 135 109 251 247 251c54 0 94 -27 117 -56c45 52 107 84 178 84c34 0 64 -11 88 -26l53 25v-721l71 -20v-23h-225v23l58 20v399h-199v-399l74 -20v-23h-229zM481 537v-53h199v196
c-23 33 -51 47 -83 47c-61 0 -116 -48 -116 -190zM303 700c-59 0 -117 -46 -117 -191v-25h199c0 42 10 83 24 119c-14 51 -46 97 -106 97z" />
    <glyph glyph-name="f_h" unicode="fh" horiz-adv-x="866" 
d="M326 0v23l59 20v638c-22 32 -51 46 -82 46c-61 0 -117 -48 -117 -190v-53h126v-42h-125v-399l74 -20v-23h-231v23l61 20v393h-74v29l74 21c2 151 108 279 250 279c34 0 64 -11 87 -26l53 25v-360c22 23 93 94 174 94c89 0 135 -42 135 -171v-284l64 -21v-22h-216v23
l55 20v284c-4 59 -26 103 -94 103c-49 0 -100 -39 -118 -53v-334l65 -20v-23h-220z" />
    <glyph glyph-name="f_i" unicode="fi" horiz-adv-x="565" 
d="M326 0v23l59 20v399h-198v-399l74 -20v-23h-231v23l61 20v393h-74v29l75 21c4 154 110 279 251 279c75 0 133 -47 133 -94c0 -30 -21 -55 -58 -55c-18 0 -25 4 -26 5l-21 78c-8 12 -32 28 -68 28c-60 0 -117 -47 -117 -192v-51h256l39 14v-455l71 -21v-22h-226z" />
    <glyph glyph-name="f_j" unicode="fj" horiz-adv-x="559" 
d="M290 -254l-5 17c84 46 97 101 100 251v428h-198v-399l76 -20v-23h-233v23l61 20v393h-74v29l75 21c4 154 110 279 251 279c75 0 133 -47 133 -94c0 -30 -21 -55 -58 -55c-18 0 -25 4 -26 5l-21 78c-8 11 -30 28 -68 28c-60 0 -117 -47 -117 -192v-51h255l39 14v-465
c0 -83 -4 -146 -36 -188c-41 -54 -94 -80 -154 -99z" />
    <glyph glyph-name="f_k" unicode="fk" horiz-adv-x="815" 
d="M326 0v23l59 20v638c-22 32 -51 46 -82 46c-61 0 -117 -48 -117 -190v-53h126v-42h-125v-399l74 -20v-23h-231v23l61 20v393h-74v29l74 21c2 151 108 279 250 279c34 0 64 -11 87 -26l53 25v-721l65 -20v-23h-220zM757 -12c-40 0 -71 15 -116 72l-153 197l191 174l-68 32
v21h193v-18l-67 -28l-168 -148l246 -282s-24 -20 -58 -20z" />
    <glyph glyph-name="f_l" unicode="fl" horiz-adv-x="569" 
d="M326 0v23l59 20v399h-198v-399l74 -20v-23h-231v23l61 20v393h-74v29l75 21c4 154 108 279 249 279c34 0 64 -11 87 -26l53 25v-721l71 -20v-23h-226zM303 727c-61 0 -117 -48 -117 -190v-53h199v197c-22 32 -51 46 -82 46z" />
    <glyph glyph-name=".notdef" horiz-adv-x="164" 
 />
    <glyph glyph-name="Eth" unicode="&#xd0;" horiz-adv-x="775" 
d="M37 0v25l79 18v276h-85v36h85v280l-79 21v24l303 4c221 -10 387 -125 387 -329c0 -229 -190 -361 -457 -358zM399 319h-175v-252c26 -28 79 -37 126 -37c163 0 262 140 262 306c0 225 -180 332 -388 318v-299h175v-36z" />
    <glyph glyph-name="eth" unicode="&#xf0;" horiz-adv-x="563" 
d="M112 550l-17 27l131 75c-43 38 -90 72 -139 102l12 21c70 -27 131 -56 182 -91l119 69l16 -26l-108 -62c144 -108 213 -247 213 -389c0 -175 -105 -292 -242 -292c-158 0 -244 116 -244 248c0 141 111 264 237 264c36 0 71 -13 96 -31c-30 63 -71 119 -118 166zM419 222
c0 55 -8 106 -19 152c-46 69 -86 88 -128 88c-78 0 -133 -68 -133 -190c0 -118 52 -255 157 -255c76 0 123 81 123 205z" />
    <glyph glyph-name="Lslash" unicode="&#x141;" horiz-adv-x="604" 
d="M31 265v34l85 24v311l-79 22v24h280v-24l-93 -21v-281l222 64v-34l-222 -63v-260c12 -14 27 -22 52 -24h181l102 200h30l-49 -237h-503v25l79 18v246z" />
    <glyph glyph-name="lslash" unicode="&#x142;" horiz-adv-x="277" 
d="M10 294v36l83 45v285l-60 34v16l155 54v-337l92 50v-37l-92 -50v-347l72 -20v-23h-232v23l65 20v296z" />
    <glyph glyph-name="Scaron" unicode="&#x160;" horiz-adv-x="533" 
d="M57 34l-9 175h26l62 -156c25 -19 65 -39 122 -39c83 0 139 53 139 133c0 54 -23 99 -123 146l-50 23c-117 55 -158 100 -158 190c0 110 99 194 235 194c69 0 129 -30 158 -47l6 -156h-25l-58 134c-24 20 -50 37 -92 37c-78 0 -124 -53 -124 -115c0 -68 30 -96 119 -139
l49 -24c137 -65 169 -117 169 -193c0 -131 -132 -216 -255 -216c-86 0 -149 30 -191 53zM403 877h44l-121 -135h-84l-112 135h45l111 -84z" />
    <glyph glyph-name="scaron" unicode="&#x161;" horiz-adv-x="419" 
d="M180 -17c-55 0 -104 19 -135 35l-6 149h20l52 -121c17 -17 41 -31 76 -31c62 0 100 42 100 91c0 42 -21 65 -78 89l-69 28c-57 24 -95 58 -95 128c0 89 85 148 188 148c49 0 91 -15 124 -33l-1 -128h-19l-46 103c-16 12 -40 26 -70 26c-53 0 -85 -38 -85 -80
c0 -46 28 -66 81 -88l45 -18c86 -35 119 -73 119 -134c0 -98 -97 -164 -201 -164zM312 775h36l-109 -208h-44l-110 208h38l95 -131z" />
    <glyph glyph-name="Yacute" unicode="&#xdd;" horiz-adv-x="629" 
d="M570 635l-201 -330v-262l81 -18v-25h-272v25l82 18v239l-205 359l-53 15v24h260v-24l-82 -20l162 -302l176 297l-98 25v24h208v-24zM395 886h98v-9l-142 -135h-40z" />
    <glyph glyph-name="yacute" unicode="&#xfd;" horiz-adv-x="481" 
d="M395 437l-71 24v23h159v-24l-48 -20l-226 -610c-19 -51 -51 -86 -101 -86c-34 0 -61 26 -61 59s26 59 58 59c29 0 45 -18 61 -38l4 -5l54 146l-182 479l-44 16v24h203v-24l-51 -19l124 -342zM300 775h85v-8l-111 -200h-29z" />
    <glyph glyph-name="Thorn" unicode="&#xde;" horiz-adv-x="600" 
d="M37 0v25l79 18v592l-79 21v24h266v-24l-79 -21v-109h45c197 0 299 -72 299 -167c0 -131 -169 -186 -303 -186v23c122 14 194 66 194 154c0 79 -66 148 -235 151v-458l79 -19v-24h-266z" />
    <glyph glyph-name="thorn" unicode="&#xfe;" horiz-adv-x="548" 
d="M226 -12c-23 0 -45 4 -64 9v-196l104 -21v-24h-263v24l63 20v876l-64 27v13l160 48v-358c24 34 75 92 157 92c92 0 189 -66 189 -230c0 -161 -142 -280 -282 -280zM264 433c-52 0 -86 -31 -102 -54v-319c17 -14 51 -34 98 -34c85 0 151 71 151 210
c0 121 -69 197 -147 197z" />
    <glyph glyph-name="Zcaron" unicode="&#x17d;" horiz-adv-x="647" 
d="M31 0v20l409 623h-305l-62 -156h-27l5 199l79 -6h451v-4l-419 -637h342l97 184h31l-44 -223h-557zM440 877h44l-122 -135h-83l-112 135h45l111 -84z" />
    <glyph glyph-name="zcaron" unicode="&#x17e;" horiz-adv-x="473" 
d="M337 0h-300v26l276 425h-185l-51 -123h-23v162l78 -6h311v-4l-292 -449h194l66 138h20l-14 -173zM337 775h36l-110 -208h-44l-109 208h37l96 -131z" />
    <glyph glyph-name="onehalf" unicode="&#xbd;" horiz-adv-x="764" 
d="M617 125l-77 -59h203v-66h-284v25l81 72c75 67 112 107 112 161c0 46 -35 75 -78 75c-41 0 -63 -25 -93 -63l-18 11c30 62 77 106 146 106c71 0 121 -40 121 -103c0 -71 -48 -110 -113 -159zM173 689v-350l73 -13v-21h-227v21l77 13v293h-79v22l149 35h7zM103 -82l-25 20
l552 800l25 -17z" />
    <glyph glyph-name="onequarter" unicode="&#xbc;" horiz-adv-x="713" 
d="M626 378v-233h75v-50h-75v-63l55 -12v-20h-185v20l55 11v64h-175v27l223 263zM173 689v-350l73 -13v-21h-227v21l77 13v293h-79v22l149 35h7zM103 -82l-25 20l552 800l25 -17zM426 145h125v150z" />
    <glyph glyph-name="threequarters" unicode="&#xbe;" horiz-adv-x="717" 
d="M630 378v-233h76v-50h-76v-63l55 -12v-20h-185v20l55 11v64h-175v27l223 263zM131 318c45 0 78 33 78 75c0 53 -49 87 -137 87v26c81 9 122 47 122 84c0 32 -22 55 -63 55c-30 0 -65 -18 -95 -59l-19 11c27 53 74 95 145 95c69 0 106 -35 106 -80c0 -48 -39 -73 -97 -96
v-4c75 -4 116 -40 116 -93c0 -75 -84 -122 -161 -122c-78 0 -122 30 -122 65c0 20 16 36 44 37l41 -70c7 -5 23 -11 42 -11zM108 -82l-26 20l552 800l25 -17zM430 145h125v150z" />
    <glyph glyph-name="brokenbar" unicode="&#xa6;" horiz-adv-x="226" 
d="M131 321h-36v431h36v-431zM131 -208h-36v433h36v-433z" />
    <glyph glyph-name="minus" unicode="&#x2212;" horiz-adv-x="600" 
d="M543 224h-486v40h486v-40z" />
    <glyph glyph-name="multiply" unicode="&#xd7;" horiz-adv-x="600" 
d="M492 20l-195 196l-192 -197l-29 30l193 196l-191 193l30 30l192 -193l194 199l28 -30l-194 -197l194 -197z" />
    <glyph glyph-name="space" unicode=" " horiz-adv-x="164" 
 />
    <glyph glyph-name="exclam" unicode="!" horiz-adv-x="276" 
d="M84 714h109l-41 -515h-27zM138 -9c-37 0 -68 31 -68 68s31 69 68 69s69 -32 69 -69s-32 -68 -69 -68z" />
    <glyph glyph-name="quotedbl" unicode="&#x22;" horiz-adv-x="436" 
d="M108 489l-37 252h107l-50 -252h-20zM295 489l-37 252h108l-51 -252h-20z" />
    <glyph glyph-name="numbersign" unicode="#" horiz-adv-x="605" 
d="M87 412v40h129l28 156h38l-28 -156h161l27 156h37l-27 -156h126v-40h-134l-34 -198h122v-40h-130l-30 -174h-37l31 174h-161l-31 -174h-38l31 174h-125v40h132l35 198h-122zM247 412l-35 -198h161l35 198h-161z" />
    <glyph glyph-name="dollar" unicode="$" horiz-adv-x="555" 
d="M61 31l-5 175h26l55 -152c20 -15 56 -33 108 -39l14 265l-45 14c-108 32 -143 91 -143 172c0 94 74 180 210 188l6 114h35l-7 -113c66 -3 127 -29 159 -43v-161h-24l-52 140c-14 9 -44 27 -85 32l-14 -247l57 -18c106 -34 152 -81 152 -161c0 -130 -121 -211 -232 -217
l-6 -106h-33l6 107c-73 3 -132 25 -182 50zM310 264l-17 5l-14 -255c70 1 136 51 136 132c0 57 -32 95 -105 118zM159 506c0 -57 23 -93 106 -120l14 237c-71 -5 -120 -51 -120 -117z" />
    <glyph glyph-name="percent" unicode="%" horiz-adv-x="805" 
d="M148 -51l453 696h39l-454 -696h-38zM200 591c-52 0 -76 -69 -76 -126c0 -79 33 -155 89 -155c50 0 75 67 75 127c0 87 -40 154 -88 154zM203 282c-85 0 -152 66 -152 162c0 100 76 176 158 176c96 0 152 -83 152 -164c0 -100 -71 -174 -158 -174zM579 291
c-52 0 -76 -69 -76 -126c0 -79 33 -155 89 -155c50 0 75 67 75 127c0 87 -40 154 -88 154zM582 -19c-85 0 -152 67 -152 163c0 100 76 177 158 177c96 0 152 -84 152 -166c0 -99 -71 -174 -158 -174z" />
    <glyph glyph-name="ampersand" unicode="&#x26;" horiz-adv-x="785" 
d="M763 461l-86 -23l-117 -214c-11 -19 -23 -39 -37 -59c56 -69 96 -110 140 -110c32 0 58 14 89 33l14 -16c-42 -46 -91 -87 -154 -85c-61 2 -92 27 -150 101c-58 -61 -130 -108 -209 -108c-154 0 -220 96 -220 193c0 88 86 154 176 207c-61 61 -95 97 -94 159
c1 104 104 159 201 159c98 0 164 -45 164 -118c0 -74 -58 -113 -159 -173c28 -28 59 -63 97 -108c33 -40 60 -77 86 -109c14 24 30 51 45 82l82 167l-83 22v23h215v-23zM351 225c-48 58 -89 99 -122 133c-69 -49 -99 -83 -99 -148c0 -77 57 -157 166 -157
c54 0 100 18 145 60zM205 568c0 -52 33 -80 94 -140c72 57 93 91 93 150c0 46 -40 91 -93 91c-49 0 -94 -38 -94 -101z" />
    <glyph glyph-name="quotesingle" unicode="'" horiz-adv-x="248" 
d="M108 489l-37 252h107l-50 -252h-20z" />
    <glyph glyph-name="parenleft" unicode="(" horiz-adv-x="351" 
d="M339 -184h-39c-122 126 -199 285 -199 464c0 183 82 344 204 470h38c-104 -143 -162 -274 -162 -470c0 -186 55 -321 158 -464z" />
    <glyph glyph-name="parenright" unicode=")" horiz-adv-x="351" 
d="M11 750h39c122 -126 199 -285 199 -464c0 -183 -81 -344 -203 -470h-39c105 143 162 274 162 470c0 186 -54 321 -158 464z" />
    <glyph glyph-name="asterisk" unicode="*" horiz-adv-x="402" 
d="M381 530l-135 -9l14 -137l-19 -4l-50 129l-124 -56l-11 16l108 86l-91 100l12 15l115 -73l67 117l18 -6l-35 -131l132 -28z" />
    <glyph glyph-name="plus" unicode="+" horiz-adv-x="600" 
d="M543 224h-220v-223h-44v223h-222v40h222v222h44v-222h220v-40z" />
    <glyph glyph-name="comma" unicode="," horiz-adv-x="256" 
d="M57 -170l-17 22c57 41 89 83 89 128c0 37 -23 66 -64 77c-6 32 15 73 60 73c32 0 79 -34 79 -101c0 -82 -57 -139 -147 -199z" />
    <glyph glyph-name="hyphen" unicode="-" horiz-adv-x="381" 
d="M55 244v65h271v-65h-271z" />
    <glyph glyph-name="period" unicode="." horiz-adv-x="249" 
d="M126 -9c-36 0 -68 31 -68 68s32 69 68 69c38 0 69 -32 69 -69s-31 -68 -69 -68z" />
    <glyph glyph-name="slash" unicode="/" horiz-adv-x="433" 
d="M-6 -214l-34 15l417 966l35 -16z" />
    <glyph glyph-name="zero" unicode="0" horiz-adv-x="620" 
d="M296 493c-81 0 -144 -78 -144 -208c0 -118 48 -269 178 -269c84 0 139 79 139 212c0 147 -72 265 -173 265zM314 -19c-158 0 -273 107 -273 273c0 145 126 274 268 274c164 0 272 -118 272 -273c0 -146 -123 -274 -267 -274z" />
    <glyph glyph-name="one" unicode="1" horiz-adv-x="380" 
d="M257 518v-473l104 -16v-29h-313v29l111 15v403h-120v28l214 43h4z" />
    <glyph glyph-name="two" unicode="2" horiz-adv-x="455" 
d="M210 152l-73 -73h290v-79h-388v24l41 43c120 131 195 207 195 285c0 60 -38 104 -95 104c-49 0 -77 -28 -106 -68l-22 13c32 72 89 128 172 128c93 0 148 -59 148 -134c0 -86 -77 -158 -162 -243z" />
    <glyph glyph-name="three" unicode="3" horiz-adv-x="427" 
d="M101 -208c-47 0 -91 28 -91 70c0 28 21 51 47 55c15 -20 52 -67 78 -90c99 4 155 68 155 157c0 93 -76 156 -197 153v44l35 9c92 42 140 104 140 165c0 62 -43 101 -98 101c-48 0 -78 -28 -104 -67l-24 12c29 70 89 128 173 128c94 0 149 -59 149 -136
c0 -83 -63 -132 -125 -170l-31 -19v-2c86 -9 175 -68 175 -174c0 -137 -157 -236 -282 -236z" />
    <glyph glyph-name="four" unicode="4" horiz-adv-x="576" 
d="M336 -200v219h-319v36l386 468l27 -1v-435h141v-68h-141v-219h-94zM87 87h249v305z" />
    <glyph glyph-name="five" unicode="5" horiz-adv-x="386" 
d="M212 63c0 83 -42 150 -157 250l75 202h205v-91h-208l-11 -30c134 -116 192 -190 192 -298c0 -184 -165 -273 -293 -327l-10 22c63 37 207 115 207 272z" />
    <glyph glyph-name="six" unicode="6" horiz-adv-x="577" 
d="M562 694c-154 -66 -323 -181 -383 -332c41 39 99 63 145 63c123 0 201 -87 201 -207c0 -119 -97 -238 -239 -238c-127 0 -237 87 -237 247c0 249 259 425 505 494zM273 373c-36 0 -76 -16 -104 -43c-8 -28 -12 -55 -12 -84c0 -161 70 -234 148 -234c68 0 116 55 116 164
c0 121 -64 197 -148 197z" />
    <glyph glyph-name="seven" unicode="7" horiz-adv-x="503" 
d="M97 -210l-55 29l360 603h-361v93h443v-9l-309 -563z" />
    <glyph glyph-name="eight" unicode="8" horiz-adv-x="521" 
d="M41 150c0 94 80 139 156 186l-39 28c-49 35 -87 80 -87 151c0 96 93 182 215 182c103 0 180 -69 180 -150c0 -85 -71 -134 -142 -181l27 -19c79 -53 129 -103 129 -183c0 -113 -113 -184 -219 -184c-124 0 -220 70 -220 170zM260 291l-44 31c-60 -50 -81 -100 -81 -157
c0 -80 52 -155 136 -155c83 0 120 57 120 110c0 65 -61 122 -131 171zM157 556c0 -59 34 -98 94 -139l51 -36c50 49 74 94 74 148c0 95 -58 139 -112 139c-56 0 -107 -38 -107 -112z" />
    <glyph glyph-name="nine" unicode="9" horiz-adv-x="571" 
d="M24 -187c166 69 312 181 367 323c-41 -36 -91 -57 -136 -57c-123 0 -206 88 -206 209c0 117 98 239 240 239c124 0 234 -93 234 -253c0 -254 -238 -421 -490 -488zM305 130c35 0 70 15 97 41c7 29 13 58 13 90c0 163 -66 234 -141 234c-71 0 -119 -61 -119 -167
c0 -121 66 -198 150 -198z" />
    <glyph glyph-name="colon" unicode=":" horiz-adv-x="252" 
d="M128 -9c-36 0 -68 31 -68 68s32 69 68 69c37 0 69 -32 69 -69s-32 -68 -69 -68zM128 348c-37 0 -68 32 -68 69c0 36 31 67 68 67s69 -31 69 -67c0 -37 -32 -69 -69 -69z" />
    <glyph glyph-name="semicolon" unicode=";" horiz-adv-x="256" 
d="M57 -170l-16 22c57 41 89 83 89 128c0 37 -24 66 -64 77c-7 32 14 73 59 73c32 0 79 -34 79 -101c0 -82 -57 -139 -147 -199zM133 348c-37 0 -67 32 -67 69c0 36 30 67 67 67s69 -31 69 -67c0 -37 -32 -69 -69 -69z" />
    <glyph glyph-name="less" unicode="&#x3c;" horiz-adv-x="602" 
d="M542 441l-433 -199l433 -199v-44l-484 225v36l484 225v-44z" />
    <glyph glyph-name="equal" unicode="=" horiz-adv-x="600" 
d="M543 306h-486v40h486v-40zM543 162h-486v40h486v-40z" />
    <glyph glyph-name="greater" unicode="&#x3e;" horiz-adv-x="602" 
d="M59 42l434 200l-434 198v45l484 -226v-36l-484 -224v43z" />
    <glyph glyph-name="question" unicode="?" horiz-adv-x="368" 
d="M72 606v109l32 -7c95 -20 238 -116 238 -249c0 -65 -35 -108 -108 -134l-84 -31l4 -95h-37l-25 170l126 41c59 20 88 41 88 74c0 50 -74 104 -193 117zM135 -9c-37 0 -68 31 -68 68s31 69 68 69s69 -32 69 -69s-32 -68 -69 -68z" />
    <glyph glyph-name="at" unicode="@" horiz-adv-x="958" 
d="M520 162l12 41h-2l-43 -61c-43 -58 -102 -124 -160 -124c-53 0 -79 43 -79 95c0 182 200 367 317 367c23 0 49 -12 66 -24l11 37h66l-102 -337c-24 -80 -5 -108 39 -108c66 0 200 83 200 282c1 174 -135 315 -319 315c-198 0 -397 -174 -397 -425
c-1 -242 158 -366 358 -366c71 0 123 19 148 28v-17c-3 -2 -84 -39 -188 -39c-197 0 -394 100 -394 361c0 271 253 487 494 487c230 0 361 -152 361 -330c0 -203 -179 -327 -295 -327c-79 0 -124 48 -93 145zM381 88c56 0 167 165 197 259l19 62c-16 20 -38 38 -60 38
c-84 0 -191 -173 -191 -309c0 -35 11 -50 35 -50z" />
    <glyph glyph-name="A" unicode="A" horiz-adv-x="685" 
d="M-8 0v24l76 19l236 642l33 7l40 8l241 -658l75 -18v-24h-271v24l81 18l-70 192h-252l-66 -187l118 -23v-24h-241zM306 588l-107 -303h217l-109 303h-1z" />
    <glyph glyph-name="B" unicode="B" horiz-adv-x="624" 
d="M37 0v24l79 19v593l-79 20v24h237c200 0 264 -55 264 -146c0 -96 -87 -144 -186 -161v-2c123 -6 236 -62 236 -183s-106 -190 -296 -189zM319 351h-95v-284c18 -18 59 -39 104 -39c91 0 144 51 144 146c0 101 -77 170 -153 177zM224 654v-276c133 3 206 45 206 142
c0 89 -72 136 -206 134z" />
    <glyph glyph-name="C" unicode="C" horiz-adv-x="734" 
d="M402 -25c-243 0 -353 178 -353 342c0 217 179 380 391 380c95 0 161 -24 215 -54l5 -175h-27l-53 137c-41 31 -91 58 -166 58c-138 0 -242 -131 -242 -308c0 -232 124 -345 264 -345c74 0 120 34 147 57l77 151h29l-29 -175c-83 -42 -160 -68 -258 -68z" />
    <glyph glyph-name="D" unicode="D" horiz-adv-x="775" 
d="M224 654v-587c26 -28 81 -38 128 -37c163 3 260 140 260 306c0 225 -180 332 -388 318zM37 0v25l79 18v592l-79 21v24l304 4c220 -10 386 -125 386 -329c0 -229 -190 -361 -457 -358z" />
    <glyph glyph-name="E" unicode="E" horiz-adv-x="617" 
d="M360 334h-136v-273c12 -15 27 -23 51 -25h182l103 169h28l-52 -205h-499v24l79 19v591l-79 22v24h435l75 4v-184h-28l-54 145h-241v-275h136l33 97h25v-224h-28z" />
    <glyph glyph-name="F" unicode="F" horiz-adv-x="576" 
d="M360 331h-136v-288l105 -14v-29h-292v25l79 18v591l-79 22v24h430l79 4v-184h-28l-54 145h-240v-278h136l35 98h24v-226h-25z" />
    <glyph glyph-name="G" unicode="G" horiz-adv-x="752" 
d="M417 -25c-251 0 -365 172 -365 347c0 202 190 375 408 375c87 0 153 -22 208 -54l1 -170h-25l-60 140c-42 30 -84 45 -137 45c-162 0 -268 -128 -268 -318c0 -226 134 -323 274 -323c55 0 92 12 116 22v203l-115 16v29h269v-26l-47 -12v-200l-33 -16
c-41 -23 -126 -58 -226 -58z" />
    <glyph glyph-name="H" unicode="H" horiz-adv-x="781" 
d="M473 0v24l84 19v293h-333v-293l84 -19v-24h-271v24l79 19v592l-79 21v24h271v-24l-84 -21v-265h333v265l-84 21v24h270v-24l-78 -21v-592l78 -19v-24h-270z" />
    <glyph glyph-name="I" unicode="I" horiz-adv-x="339" 
d="M37 0v25l79 18v592l-79 21v24h266v-24l-79 -21v-592l79 -19v-24h-266z" />
    <glyph glyph-name="J" unicode="J" horiz-adv-x="349" 
d="M233 635v-579c0 -151 -45 -255 -228 -284l-6 23c106 40 127 117 127 235v605l-89 21v24h275v-24z" />
    <glyph glyph-name="K" unicode="K" horiz-adv-x="683" 
d="M37 0v24l79 19v592l-79 21v24h271v-24l-84 -21v-592l84 -19v-24h-271zM513 0l-275 344v4l276 287l-93 21v24h221v-24l-77 -21l-238 -239l291 -357l64 -15v-24h-169z" />
    <glyph glyph-name="L" unicode="L" horiz-adv-x="604" 
d="M224 61c12 -15 27 -23 52 -24h181l102 200h30l-49 -237h-503v25l79 18v591l-79 22v24h280v-24l-93 -21v-574z" />
    <glyph glyph-name="M" unicode="M" horiz-adv-x="907" 
d="M32 0v24l79 19l24 588l-78 25v24h202l207 -490l187 477l5 13h194v-24l-80 -20l24 -593l80 -19v-24h-287v24l99 19l-17 569l-198 -504l-30 -77h-19l-30 77l-219 502l-19 -564l112 -21v-25h-236z" />
    <glyph glyph-name="N" unicode="N" horiz-adv-x="740" 
d="M637 -10l-29 -1l-449 579l1 -520l91 -23v-25h-209v25l75 21v564c-17 19 -45 34 -69 41l-17 6v23h177l385 -499l-1 452l-90 22v25h208v-25l-75 -21v-518z" />
    <glyph glyph-name="O" unicode="O" horiz-adv-x="799" 
d="M415 7c154 0 219 155 219 311c0 176 -106 348 -249 348c-153 0 -221 -148 -221 -306c0 -157 87 -353 251 -353zM398 697c225 0 353 -175 353 -343c0 -241 -168 -379 -352 -379c-186 0 -351 142 -351 361c0 221 167 361 350 361z" />
    <glyph glyph-name="P" unicode="P" horiz-adv-x="565" 
d="M272 285v28c99 10 172 69 172 162c0 87 -59 167 -220 178v-610l105 -18v-25h-292v25l79 18v592l-79 21v24h217c190 0 296 -72 296 -190c0 -121 -131 -200 -278 -205z" />
    <glyph glyph-name="Q" unicode="Q" horiz-adv-x="799" 
d="M398 697c225 0 353 -176 353 -339c0 -195 -122 -328 -273 -363c121 -86 220 -167 338 -167c73 0 137 21 189 64l15 -17c-38 -39 -100 -107 -251 -107c-168 0 -281 99 -452 228c-146 35 -269 163 -269 345c0 216 167 356 350 356zM415 16c154 0 219 151 219 308
c0 176 -106 342 -249 342c-153 0 -221 -142 -221 -301c0 -158 82 -349 251 -349z" />
    <glyph glyph-name="R" unicode="R" horiz-adv-x="669" 
d="M37 0v24l79 19v593l-79 20v24l234 3c200 2 292 -65 292 -167c0 -88 -64 -141 -156 -170v-2l197 -301l69 -19v-24h-168l-162 251c-24 37 -40 62 -40 62h-79v-270l79 -19v-24h-266zM224 657v-310h84c86 9 146 68 146 147c0 98 -88 166 -230 163z" />
    <glyph glyph-name="S" unicode="S" horiz-adv-x="533" 
d="M57 34l-9 175h26l62 -156c25 -19 65 -39 122 -39c83 0 139 53 139 133c0 54 -23 99 -123 146l-50 23c-117 55 -158 100 -158 190c0 110 99 194 235 194c69 0 129 -30 158 -47l6 -156h-25l-58 134c-24 20 -50 37 -92 37c-78 0 -124 -53 -124 -115c0 -68 30 -96 119 -139
l49 -24c137 -65 169 -117 169 -193c0 -131 -132 -216 -255 -216c-86 0 -149 30 -191 53z" />
    <glyph glyph-name="T" unicode="T" horiz-adv-x="641" 
d="M97 680h447l65 7l2 -193h-26l-56 150h-154v-601l93 -19v-24h-297v24l95 19v601h-154l-56 -150h-26l2 193z" />
    <glyph glyph-name="U" unicode="U" horiz-adv-x="752" 
d="M374 -24c-197 0 -269 115 -269 284v374l-79 22v24h279v-24l-88 -22v-354c0 -138 41 -249 180 -249c135 0 195 83 202 222l-1 372l-118 31v24h247v-24l-80 -25v-366c0 -195 -118 -289 -273 -289z" />
    <glyph glyph-name="V" unicode="V" horiz-adv-x="640" 
d="M296 -12l-251 648l-50 20v24h248v-24l-80 -20l192 -522l188 513l-107 27v26h209v-24l-54 -25l-248 -643h-47z" />
    <glyph glyph-name="W" unicode="W" horiz-adv-x="907" 
d="M599 -7l-141 437l-158 -437h-58l-197 643l-50 19v25h243v-24l-80 -20l151 -507l128 364l-46 143l-68 20v24h259v-26l-79 -18l160 -498l146 489l-108 27v26h211v-24l-53 -24l-201 -639h-59z" />
    <glyph glyph-name="X" unicode="X" horiz-adv-x="670" 
d="M0 25l71 17l218 297l-194 296l-70 21v24h276v-24l-81 -21l144 -226h2l157 217l-98 28v26h227v-24l-70 -21l-193 -265l215 -327l67 -18v-25h-272v25l79 18l-165 260h-2l-177 -258l82 -20v-25h-216v25z" />
    <glyph glyph-name="Y" unicode="Y" horiz-adv-x="629" 
d="M570 635l-201 -330v-262l81 -18v-25h-272v25l82 18v239l-205 359l-53 15v24h260v-24l-82 -20l162 -302l176 297l-98 25v24h208v-24z" />
    <glyph glyph-name="Z" unicode="Z" horiz-adv-x="647" 
d="M31 0v20l409 623h-305l-62 -156h-27l5 199l79 -6h451v-4l-419 -637h342l97 184h31l-44 -223h-557z" />
    <glyph glyph-name="bracketleft" unicode="[" horiz-adv-x="309" 
d="M300 -185h-189v936h189v-31h-102v-875h102v-30z" />
    <glyph glyph-name="backslash" unicode="\" horiz-adv-x="433" 
d="M471 -199l-34 -15l-417 965l34 16z" />
    <glyph glyph-name="bracketright" unicode="]" horiz-adv-x="309" 
d="M9 751h190v-936h-190v30h103v875h-103v31z" />
    <glyph glyph-name="asciicircum" unicode="^" horiz-adv-x="440" 
d="M84 497h-38l156 277h38l154 -277h-42l-136 208z" />
    <glyph glyph-name="underscore" unicode="_" horiz-adv-x="417" 
d="M4 -212v39h410v-39h-410z" />
    <glyph glyph-name="grave" unicode="`" horiz-adv-x="268" 
d="M58 775h85l56 -208h-30l-111 200v8z" />
    <glyph glyph-name="a" unicode="a" horiz-adv-x="481" 
d="M160 -15c-59 0 -124 37 -124 120c0 82 59 120 167 148l101 26v58c0 77 -39 124 -94 124c-29 0 -53 -10 -66 -21l-5 -104c-11 -3 -26 -5 -42 -5c-30 0 -50 16 -50 43c0 50 92 124 205 124c105 0 148 -50 148 -149v-281c0 -23 6 -30 32 -30h51v-16s-60 -34 -100 -34
c-54 0 -75 32 -77 81h-4c-39 -45 -75 -84 -142 -84zM212 50c42 0 74 29 92 54v148l-100 -34c-50 -16 -70 -45 -70 -83c0 -44 25 -85 78 -85z" />
    <glyph glyph-name="b" unicode="b" horiz-adv-x="542" 
d="M218 -16c-46 0 -89 10 -116 21l-37 15v656l-64 27v13l160 48v-347c29 34 84 81 158 81c94 0 189 -67 189 -230c0 -153 -148 -284 -290 -284zM262 438c-46 0 -79 -22 -101 -44v-325c19 -26 62 -43 100 -43c82 0 150 64 150 210c0 117 -69 202 -149 202z" />
    <glyph glyph-name="c" unicode="c" horiz-adv-x="480" 
d="M255 -14c-117 0 -220 85 -220 251c0 157 127 263 250 263c85 0 168 -48 168 -108c0 -33 -26 -54 -64 -54c-12 0 -21 2 -22 2l-30 95c-17 15 -38 30 -75 30c-79 0 -135 -72 -135 -181c0 -132 79 -219 172 -219c68 0 118 41 145 71l18 -12c-17 -28 -78 -138 -207 -138z" />
    <glyph glyph-name="d" unicode="d" horiz-adv-x="567" 
d="M307 705v15l172 44v-711l69 -18v-19l-152 -30l-10 68c-31 -32 -82 -70 -144 -70c-134 0 -207 113 -207 233c0 167 142 280 273 280c28 0 55 -8 75 -16v190zM290 47c38 0 69 18 93 37v315c-13 20 -46 58 -112 58c-74 0 -141 -57 -141 -198c0 -92 45 -212 160 -212z" />
    <glyph glyph-name="e" unicode="e" horiz-adv-x="490" 
d="M251 -14c-142 0 -216 121 -216 245c0 148 111 269 233 269c104 0 172 -65 187 -199h-330c-1 -8 -1 -18 -1 -26c0 -131 70 -210 172 -210c68 0 122 44 149 71l17 -12c-35 -57 -94 -138 -211 -138zM240 463c-57 0 -100 -49 -112 -131h215c-11 83 -43 131 -103 131z" />
    <glyph glyph-name="f" unicode="f" horiz-adv-x="322" 
d="M30 0v23l61 20v393h-74v29l75 22v11c3 154 104 267 214 267c67 0 131 -40 131 -89c0 -45 -39 -58 -81 -53l-19 88c-15 12 -31 20 -58 20c-45 0 -96 -39 -94 -157l1 -90h136v-42h-135v-399l76 -20v-23h-233z" />
    <glyph glyph-name="g" unicode="g" horiz-adv-x="507" 
d="M498 429l-123 8v-3c28 -27 52 -60 52 -108c0 -102 -96 -171 -197 -171c-31 0 -61 6 -88 17c-13 -15 -22 -30 -22 -47c0 -20 17 -35 49 -37l196 -12c87 -6 131 -50 131 -108c0 -110 -139 -213 -299 -213c-106 0 -179 42 -179 124c0 46 43 89 95 116l11 5v4
c-36 2 -77 24 -77 74c0 37 33 71 73 104v2c-44 27 -75 73 -75 138c0 106 84 176 189 176c45 0 76 -12 119 -27l145 16v-58zM357 -14l-203 13c-20 -20 -42 -49 -42 -92c0 -63 49 -106 142 -106c119 0 165 71 165 120c0 34 -25 58 -62 65zM140 356c1 -105 41 -172 104 -172
c48 0 87 46 87 120c-1 113 -50 167 -106 167c-54 0 -85 -47 -85 -115z" />
    <glyph glyph-name="h" unicode="h" horiz-adv-x="573" 
d="M339 0v23l61 20v284c-3 59 -26 103 -94 103c-49 0 -100 -39 -118 -53v-334l65 -20v-23h-222v23l62 20v617l-60 34v16l155 54v-360c22 23 93 94 174 94c89 0 135 -42 135 -171v-284l64 -21v-22h-222z" />
    <glyph glyph-name="i" unicode="i" horiz-adv-x="266" 
d="M25 0v23l62 20v352l-60 35v14l156 54v-455l71 -20v-23h-229zM129 622c-35 0 -67 30 -67 65c0 34 32 65 67 65c33 0 65 -31 65 -65c0 -35 -32 -65 -65 -65z" />
    <glyph glyph-name="j" unicode="j" horiz-adv-x="261" 
d="M-8 -254l-5 17c84 46 97 101 100 251v381l-59 35v14l154 54v-465c0 -83 -5 -146 -36 -188c-42 -54 -94 -80 -154 -99zM130 622c-35 0 -67 30 -67 65c0 34 32 65 67 65c33 0 65 -31 65 -65c0 -35 -32 -65 -65 -65z" />
    <glyph glyph-name="k" unicode="k" horiz-adv-x="522" 
d="M93 43v617l-60 34v16l155 54v-721l65 -20v-23h-222v23zM464 -12c-40 0 -72 15 -116 72l-152 197l191 174l-69 32v21h194v-18l-68 -28l-168 -148l246 -282s-24 -20 -58 -20z" />
    <glyph glyph-name="l" unicode="l" horiz-adv-x="277" 
d="M28 0v23l65 20v617l-60 34v16l155 54v-721l72 -20v-23h-232z" />
    <glyph glyph-name="m" unicode="m" horiz-adv-x="875" 
d="M642 0v23l61 20v284c-4 59 -27 103 -94 103c-50 0 -99 -38 -117 -53v-334l63 -21v-22h-222v23l62 20v284c-4 59 -27 103 -94 103c-49 0 -100 -38 -118 -53v-334l65 -20v-23h-223v23l62 20v352l-64 35v13l146 55h5l5 -95h2c20 22 94 95 176 95c71 0 113 -23 127 -98h2
c16 17 95 98 180 98c88 0 133 -42 133 -171v-284l64 -21v-22h-221z" />
    <glyph glyph-name="n" unicode="n" horiz-adv-x="567" 
d="M25 0v23l62 20v352l-64 35v13l146 55h5l5 -95h2c20 22 94 95 176 95c88 0 135 -42 135 -171v-284l63 -21v-22h-221v23l61 20v284c-4 59 -27 103 -94 103c-50 0 -100 -38 -118 -53v-334l65 -20v-23h-223z" />
    <glyph glyph-name="o" unicode="o" horiz-adv-x="562" 
d="M265 466c-90 0 -125 -92 -125 -192c0 -121 51 -256 157 -256c77 0 125 83 125 193c0 160 -69 255 -157 255zM282 -16c-158 0 -247 119 -247 246c0 147 111 270 247 270c147 0 245 -97 245 -245c0 -150 -108 -271 -245 -271z" />
    <glyph glyph-name="p" unicode="p" horiz-adv-x="561" 
d="M18 -244v24l65 20v595l-64 35v13l151 55h5v-95h2c29 44 83 95 160 95c93 0 189 -67 189 -230c0 -167 -149 -280 -281 -280c-25 0 -48 4 -66 8v-195l105 -21v-24h-266zM283 433c-49 0 -81 -27 -104 -56v-317c20 -17 54 -34 100 -34c82 0 150 68 150 210
c0 116 -65 197 -146 197z" />
    <glyph glyph-name="q" unicode="q" horiz-adv-x="548" 
d="M282 -244v21l101 24v250c-32 -32 -81 -67 -141 -67c-134 0 -207 112 -207 233c0 168 143 280 270 280c58 0 102 -27 117 -39l48 42h9v-699l62 -21v-24h-259zM291 47c38 0 68 17 92 36v317c-12 19 -44 57 -112 57c-74 0 -141 -55 -141 -207c0 -83 45 -203 161 -203z" />
    <glyph glyph-name="r" unicode="r" horiz-adv-x="372" 
d="M25 0v23l62 20v352l-64 35v13l146 55h5l3 -132h4l13 21c51 93 78 113 119 113c31 0 56 -19 56 -51c0 -29 -14 -47 -38 -62l-69 27c-20 -5 -59 -43 -79 -95v-276l79 -20v-23h-237z" />
    <glyph glyph-name="s" unicode="s" horiz-adv-x="419" 
d="M180 -17c-55 0 -104 19 -135 35l-6 149h20l52 -121c17 -17 41 -31 76 -31c62 0 100 42 100 91c0 42 -21 65 -78 89l-69 28c-57 24 -95 58 -95 128c0 89 85 148 188 148c49 0 91 -15 124 -33l-1 -128h-19l-46 103c-16 12 -40 26 -70 26c-53 0 -85 -38 -85 -80
c0 -46 27 -68 81 -88l45 -18c86 -35 119 -73 119 -134c0 -98 -97 -164 -201 -164z" />
    <glyph glyph-name="t" unicode="t" horiz-adv-x="335" 
d="M193 -11c-85 0 -112 46 -111 120l3 325h-76v31l76 22l70 128h23v-131h141v-53h-141v-322c7 -51 35 -66 79 -66c36 0 70 13 71 14l6 -19c-4 -2 -58 -49 -141 -49z" />
    <glyph glyph-name="u" unicode="u" horiz-adv-x="569" 
d="M396 -15l-10 91c-25 -31 -85 -93 -163 -93c-95 0 -143 63 -143 162v279l-65 25v17l161 26v-326c0 -78 37 -114 98 -114c51 0 93 30 111 46v326l-75 22v19l170 27v-437l73 -25v-19z" />
    <glyph glyph-name="v" unicode="v" horiz-adv-x="475" 
d="M260 -18h-44l-172 458l-57 20v24h227v-24l-67 -20l111 -313l10 -31h2l13 32l106 309l-72 24v23h171v-24l-59 -20z" />
    <glyph glyph-name="w" unicode="w" horiz-adv-x="736" 
d="M412 492l124 -363c5 -15 10 -35 10 -35h2s4 20 8 36l91 304l-74 27v23h176v-24l-63 -21l-142 -455h-57l-114 329c-6 14 -12 37 -12 37h-1s-6 -23 -11 -37l-111 -329h-50l-143 456l-58 20v24h229v-24l-66 -20l87 -307c5 -16 8 -36 8 -36h2s5 20 11 36l119 359h35z" />
    <glyph glyph-name="x" unicode="x" horiz-adv-x="493" 
d="M285 272l144 -229l59 -21v-22h-215v23l49 20l-97 158h-2l-102 -156l54 -23v-22h-169v22l66 21l136 186l-135 215l-59 19v21h218v-21l-49 -20l84 -141h3l88 138l-50 23v21h151v-21l-51 -19z" />
    <glyph glyph-name="y" unicode="y" horiz-adv-x="481" 
d="M395 437l-71 24v23h159v-24l-48 -20l-226 -610c-19 -51 -51 -86 -101 -86c-34 0 -61 26 -61 59s26 59 58 59c29 0 45 -18 61 -38l4 -5l54 146l-182 479l-44 16v24h203v-24l-51 -19l124 -342z" />
    <glyph glyph-name="z" unicode="z" horiz-adv-x="473" 
d="M337 0h-300v26l276 425h-185l-51 -123h-23v162l78 -6h311v-4l-292 -449h194l66 138h20l-14 -173z" />
    <glyph glyph-name="braceleft" unicode="{" horiz-adv-x="343" 
d="M108 284v-2c81 -12 118 -35 118 -119v-195c0 -99 27 -133 103 -133v-20h-16c-145 -1 -181 63 -171 179l18 179c5 53 -17 87 -75 90l-31 1v37l31 1c58 3 80 37 75 90l-18 179c-10 116 26 181 171 180h16v-21c-76 0 -103 -34 -103 -134v-194c0 -83 -37 -106 -118 -118z" />
    <glyph glyph-name="bar" unicode="|" horiz-adv-x="226" 
d="M131 -208h-36v960h36v-960z" />
    <glyph glyph-name="braceright" unicode="}" horiz-adv-x="343" 
d="M236 282v2c-80 12 -119 34 -119 118v195c0 99 -27 133 -103 133v21h16c146 1 182 -64 171 -180l-18 -179c-5 -53 17 -87 76 -90l30 -1v-37l-30 -1c-59 -3 -81 -37 -76 -90l18 -179c11 -116 -25 -180 -171 -179h-16v20c76 0 103 34 103 134v194c0 84 39 107 119 119z" />
    <glyph glyph-name="asciitilde" unicode="~" horiz-adv-x="496" 
d="M38 212l-20 8l7 16c49 122 113 118 190 94l82 -26c95 -30 122 -16 158 49l20 -9l-6 -14c-47 -111 -104 -134 -193 -105l-67 22c-111 35 -134 31 -171 -35z" />
    <glyph glyph-name="Adieresis" unicode="&#xc4;" horiz-adv-x="685" 
d="M-8 0v24l76 19l236 642l33 7l40 8l241 -658l75 -18v-24h-271v24l81 18l-70 192h-252l-66 -187l118 -23v-24h-241zM306 588l-107 -303h217l-109 303h-1zM451 766c-33 0 -61 26 -61 59s28 61 61 61s60 -28 60 -61s-27 -59 -60 -59zM232 766c-33 0 -59 26 -59 59
s26 61 59 61s61 -28 61 -61s-28 -59 -61 -59z" />
    <glyph glyph-name="Aring" unicode="&#xc5;" horiz-adv-x="685" 
d="M-8 0v24l76 19l236 642l33 7l40 8l241 -658l75 -18v-24h-271v24l81 18l-70 192h-252l-66 -187l118 -23v-24h-241zM306 588l-107 -303h217l-109 303h-1zM237 852c0 56 45 100 102 100c58 0 102 -43 102 -100c0 -56 -45 -100 -102 -100c-58 0 -102 43 -102 100zM273 852
c0 -40 30 -68 66 -68s65 28 65 68s-29 68 -65 68s-66 -28 -66 -68z" />
    <glyph glyph-name="Ccedilla" unicode="&#xc7;" horiz-adv-x="734" 
d="M297 -259l-6 17c63 24 92 49 92 85c0 33 -22 52 -55 61l44 72c-221 14 -323 184 -323 341c0 217 179 380 391 380c95 0 161 -24 215 -54l5 -175h-27l-53 137c-41 31 -91 58 -166 58c-138 0 -242 -131 -242 -308c0 -232 124 -345 264 -345c74 0 120 34 147 57l77 151h29
l-29 -175c-83 -42 -160 -68 -258 -68h-1l-16 -26c53 -12 79 -40 79 -80c0 -78 -93 -114 -167 -128z" />
    <glyph glyph-name="Eacute" unicode="&#xc9;" horiz-adv-x="617" 
d="M360 334h-136v-273c12 -15 27 -23 51 -25h182l103 169h28l-52 -205h-499v24l79 19v591l-79 22v24h435l75 4v-184h-28l-54 145h-241v-275h136l33 97h25v-224h-28zM390 886h97v-9l-141 -135h-40z" />
    <glyph glyph-name="Ntilde" unicode="&#xd1;" horiz-adv-x="740" 
d="M637 -10l-29 -1l-449 579l1 -520l91 -23v-25h-209v25l75 21v564c-17 19 -45 34 -69 41l-17 6v23h177l385 -499l-1 452l-90 22v25h208v-25l-75 -21v-518zM412 765l-37 15c-80 33 -96 26 -120 -28l-22 10l6 12c38 91 84 113 154 84l45 -18c63 -27 84 -13 110 40l21 -11
l-5 -12c-41 -98 -81 -122 -152 -92z" />
    <glyph glyph-name="Odieresis" unicode="&#xd6;" horiz-adv-x="799" 
d="M290 766c-33 0 -60 26 -60 59s27 61 60 61s60 -28 60 -61s-27 -59 -60 -59zM508 766c-33 0 -61 26 -61 59s28 61 61 61s60 -28 60 -61s-27 -59 -60 -59zM415 7c154 0 219 155 219 311c0 176 -106 348 -249 348c-153 0 -221 -148 -221 -306c0 -157 87 -353 251 -353z
M398 697c225 0 353 -175 353 -343c0 -241 -168 -379 -352 -379c-186 0 -351 142 -351 361c0 221 167 361 350 361z" />
    <glyph glyph-name="Udieresis" unicode="&#xdc;" horiz-adv-x="752" 
d="M374 -24c-197 0 -269 115 -269 284v374l-79 22v24h279v-24l-88 -22v-354c0 -138 41 -249 180 -249c135 0 195 83 202 222l-1 372l-118 31v24h247v-24l-80 -25v-366c0 -195 -118 -289 -273 -289zM289 766c-33 0 -60 26 -60 59s27 61 60 61s60 -28 60 -61s-27 -59 -60 -59z
M507 766c-33 0 -61 26 -61 59s28 61 61 61s60 -28 60 -61s-27 -59 -60 -59z" />
    <glyph glyph-name="aacute" unicode="&#xe1;" horiz-adv-x="481" 
d="M160 -15c-59 0 -124 37 -124 120c0 82 59 120 167 148l101 26v58c0 77 -39 124 -94 124c-29 0 -53 -10 -66 -21l-5 -104c-11 -3 -26 -5 -42 -5c-30 0 -50 16 -50 43c0 50 92 124 205 124c105 0 148 -50 148 -149v-281c0 -23 6 -30 32 -30h51v-16s-60 -34 -100 -34
c-54 0 -75 32 -77 81h-4c-39 -45 -75 -84 -142 -84zM212 50c42 0 74 29 92 54v148l-100 -34c-50 -16 -70 -45 -70 -83c0 -44 25 -85 78 -85zM274 775h85v-8l-110 -200h-30z" />
    <glyph glyph-name="agrave" unicode="&#xe0;" horiz-adv-x="481" 
d="M160 -15c-59 0 -124 37 -124 120c0 82 59 120 167 148l101 26v58c0 77 -39 124 -94 124c-29 0 -53 -10 -66 -21l-5 -104c-11 -3 -26 -5 -42 -5c-30 0 -50 16 -50 43c0 50 92 124 205 124c105 0 148 -50 148 -149v-281c0 -23 6 -30 32 -30h51v-16s-60 -34 -100 -34
c-54 0 -75 32 -77 81h-4c-39 -45 -75 -84 -142 -84zM212 50c42 0 74 29 92 54v148l-100 -34c-50 -16 -70 -45 -70 -83c0 -44 25 -85 78 -85zM116 775h85l55 -208h-30l-110 200v8z" />
    <glyph glyph-name="acircumflex" unicode="&#xe2;" horiz-adv-x="481" 
d="M160 -15c-59 0 -124 37 -124 120c0 82 59 120 167 148l101 26v58c0 77 -39 124 -94 124c-29 0 -53 -10 -66 -21l-5 -104c-11 -3 -26 -5 -42 -5c-30 0 -50 16 -50 43c0 50 92 124 205 124c105 0 148 -50 148 -149v-281c0 -23 6 -30 32 -30h51v-16s-60 -34 -100 -34
c-54 0 -75 32 -77 81h-4c-39 -45 -75 -84 -142 -84zM212 50c42 0 74 29 92 54v148l-100 -34c-50 -16 -70 -45 -70 -83c0 -44 25 -85 78 -85zM144 567h-35l109 208h44l110 -208h-38l-96 131z" />
    <glyph glyph-name="adieresis" unicode="&#xe4;" horiz-adv-x="481" 
d="M160 -15c-59 0 -124 37 -124 120c0 82 59 120 167 148l101 26v58c0 77 -39 124 -94 124c-29 0 -53 -10 -66 -21l-5 -104c-11 -3 -26 -5 -42 -5c-30 0 -50 16 -50 43c0 50 92 124 205 124c105 0 148 -50 148 -149v-281c0 -23 6 -30 32 -30h51v-16s-60 -34 -100 -34
c-54 0 -75 32 -77 81h-4c-39 -45 -75 -84 -142 -84zM212 50c42 0 74 29 92 54v148l-100 -34c-50 -16 -70 -45 -70 -83c0 -44 25 -85 78 -85zM333 628c-33 0 -61 26 -61 59s28 61 61 61s61 -28 61 -61s-28 -59 -61 -59zM141 628c-34 0 -60 26 -60 59s26 61 60 61
c33 0 61 -28 61 -61s-28 -59 -61 -59z" />
    <glyph glyph-name="atilde" unicode="&#xe3;" horiz-adv-x="481" 
d="M160 -15c-59 0 -124 37 -124 120c0 82 59 120 167 148l101 26v58c0 77 -39 124 -94 124c-29 0 -53 -10 -66 -21l-5 -104c-11 -3 -26 -5 -42 -5c-30 0 -50 16 -50 43c0 50 92 124 205 124c105 0 148 -50 148 -149v-281c0 -23 6 -30 32 -30h51v-16s-60 -34 -100 -34
c-54 0 -75 32 -77 81h-4c-39 -45 -75 -84 -142 -84zM212 50c42 0 74 29 92 54v148l-100 -34c-50 -16 -70 -45 -70 -83c0 -44 25 -85 78 -85zM255 617l-36 17c-80 37 -95 25 -120 -29l-20 10l5 13c38 90 85 112 155 83l45 -19c65 -27 83 -12 108 41l22 -10l-5 -13
c-37 -95 -84 -125 -154 -93z" />
    <glyph glyph-name="aring" unicode="&#xe5;" horiz-adv-x="481" 
d="M160 -15c-59 0 -124 37 -124 120c0 82 59 120 167 148l101 26v58c0 77 -39 124 -94 124c-29 0 -53 -10 -66 -21l-5 -104c-11 -3 -26 -5 -42 -5c-30 0 -50 16 -50 43c0 50 92 124 205 124c105 0 148 -50 148 -149v-281c0 -23 6 -30 32 -30h51v-16s-60 -34 -100 -34
c-54 0 -75 32 -77 81h-4c-39 -45 -75 -84 -142 -84zM135 690c0 56 46 100 103 100c58 0 102 -43 102 -100c0 -56 -45 -100 -102 -100c-58 0 -103 42 -103 100zM212 50c42 0 74 29 92 54v148l-100 -34c-50 -16 -70 -45 -70 -83c0 -44 25 -85 78 -85zM172 690
c0 -40 30 -68 66 -68s65 28 65 68s-29 68 -65 68s-66 -28 -66 -68z" />
    <glyph glyph-name="ccedilla" unicode="&#xe7;" horiz-adv-x="480" 
d="M154 -254l-7 17c63 24 93 49 93 85c0 33 -23 52 -56 61l47 78c-106 10 -196 94 -196 250c0 157 127 263 250 263c85 0 168 -48 168 -108c0 -33 -26 -54 -64 -54c-12 0 -21 2 -22 2l-30 95c-17 15 -38 30 -75 30c-79 0 -135 -72 -135 -181c0 -132 79 -219 172 -219
c68 0 118 41 145 71l18 -12c-17 -28 -76 -134 -201 -138l-19 -32c53 -12 79 -40 79 -80c0 -78 -93 -114 -167 -128z" />
    <glyph glyph-name="eacute" unicode="&#xe9;" horiz-adv-x="490" 
d="M251 -14c-142 0 -216 121 -216 245c0 148 111 269 233 269c104 0 172 -65 187 -199h-330c-1 -8 -1 -18 -1 -26c0 -131 70 -210 172 -210c68 0 122 44 149 71l17 -12c-35 -57 -94 -138 -211 -138zM240 463c-57 0 -100 -49 -112 -131h215c-11 83 -43 131 -103 131zM299 775
h85v-8l-111 -200h-29z" />
    <glyph glyph-name="egrave" unicode="&#xe8;" horiz-adv-x="490" 
d="M251 -14c-142 0 -216 121 -216 245c0 148 111 269 233 269c104 0 172 -65 187 -199h-330c-1 -8 -1 -18 -1 -26c0 -131 70 -210 172 -210c68 0 122 44 149 71l17 -12c-35 -57 -94 -138 -211 -138zM240 463c-57 0 -100 -49 -112 -131h215c-11 83 -43 131 -103 131zM141 775
h85l56 -208h-30l-111 200v8z" />
    <glyph glyph-name="ecircumflex" unicode="&#xea;" horiz-adv-x="490" 
d="M251 -14c-142 0 -216 121 -216 245c0 148 111 269 233 269c104 0 172 -65 187 -199h-330c-1 -8 -1 -18 -1 -26c0 -131 70 -210 172 -210c68 0 122 44 149 71l17 -12c-35 -57 -94 -138 -211 -138zM240 463c-57 0 -100 -49 -112 -131h215c-11 83 -43 131 -103 131zM169 567
h-36l110 208h44l109 -208h-38l-96 131z" />
    <glyph glyph-name="edieresis" unicode="&#xeb;" horiz-adv-x="490" 
d="M251 -14c-142 0 -216 121 -216 245c0 148 111 269 233 269c104 0 172 -65 187 -199h-330c-1 -8 -1 -18 -1 -26c0 -131 70 -210 172 -210c68 0 122 44 149 71l17 -12c-35 -57 -94 -138 -211 -138zM240 463c-57 0 -100 -49 -112 -131h215c-11 83 -43 131 -103 131zM357 628
c-33 0 -60 26 -60 59s27 61 60 61s62 -28 62 -61s-29 -59 -62 -59zM166 628c-34 0 -61 26 -61 59s27 61 61 61c33 0 60 -28 60 -61s-27 -59 -60 -59z" />
    <glyph glyph-name="iacute" unicode="&#xed;" horiz-adv-x="266" 
d="M175 775h85v-8l-110 -200h-30zM25 0v23l62 20v352l-60 35v14l156 54v-455l71 -20v-23h-229z" />
    <glyph glyph-name="igrave" unicode="&#xec;" horiz-adv-x="266" 
d="M25 0v23l62 20v352l-60 35v14l156 54v-455l71 -20v-23h-229zM16 775h85l56 -208h-30l-111 200v8z" />
    <glyph glyph-name="icircumflex" unicode="&#xee;" horiz-adv-x="266" 
d="M25 0v23l62 20v352l-60 35v14l156 54v-455l71 -20v-23h-229zM47 567h-36l101 208h44l99 -208h-37l-87 126z" />
    <glyph glyph-name="idieresis" unicode="&#xef;" horiz-adv-x="266" 
d="M50 628c-34 0 -60 26 -60 59s26 61 60 61c33 0 61 -28 61 -61s-28 -59 -61 -59zM217 628c-33 0 -59 26 -59 59s26 61 59 61c34 0 62 -28 62 -61s-28 -59 -62 -59zM25 0v23l62 20v352l-60 35v14l156 54v-455l71 -20v-23h-229z" />
    <glyph glyph-name="ntilde" unicode="&#xf1;" horiz-adv-x="567" 
d="M25 0v23l62 20v352l-64 35v13l146 55h5l5 -95h2c20 22 94 95 176 95c88 0 135 -42 135 -171v-284l63 -21v-22h-221v23l61 20v284c-4 59 -27 103 -94 103c-50 0 -100 -38 -118 -53v-334l65 -20v-23h-223zM300 617l-36 17c-80 37 -95 25 -120 -29l-20 10l5 13
c38 90 85 112 155 83l45 -19c65 -27 83 -12 108 41l22 -10l-5 -13c-37 -95 -84 -125 -154 -93z" />
    <glyph glyph-name="oacute" unicode="&#xf3;" horiz-adv-x="562" 
d="M318 775h85v-8l-110 -200h-30zM265 466c-90 0 -125 -92 -125 -192c0 -121 51 -256 157 -256c77 0 125 83 125 193c0 160 -69 255 -157 255zM282 -16c-158 0 -247 119 -247 246c0 147 111 270 247 270c147 0 245 -97 245 -245c0 -150 -108 -271 -245 -271z" />
    <glyph glyph-name="ograve" unicode="&#xf2;" horiz-adv-x="562" 
d="M265 466c-90 0 -125 -92 -125 -192c0 -121 51 -256 157 -256c77 0 125 83 125 193c0 160 -69 255 -157 255zM282 -16c-158 0 -247 119 -247 246c0 147 111 270 247 270c147 0 245 -97 245 -245c0 -150 -108 -271 -245 -271zM160 775h85l55 -208h-30l-110 200v8z" />
    <glyph glyph-name="ocircumflex" unicode="&#xf4;" horiz-adv-x="562" 
d="M282 -16c-158 0 -247 119 -247 246c0 147 111 270 247 270c147 0 245 -97 245 -245c0 -150 -108 -271 -245 -271zM265 466c-90 0 -125 -92 -125 -192c0 -121 51 -256 157 -256c77 0 125 83 125 193c0 160 -69 255 -157 255zM188 567h-35l109 208h44l110 -208h-38l-96 131
z" />
    <glyph glyph-name="odieresis" unicode="&#xf6;" horiz-adv-x="562" 
d="M185 628c-34 0 -60 26 -60 59s26 61 60 61c33 0 61 -28 61 -61s-28 -59 -61 -59zM377 628c-33 0 -61 26 -61 59s28 61 61 61s61 -28 61 -61s-28 -59 -61 -59zM265 466c-90 0 -125 -92 -125 -192c0 -121 51 -256 157 -256c77 0 125 83 125 193c0 160 -69 255 -157 255z
M282 -16c-158 0 -247 119 -247 246c0 147 111 270 247 270c147 0 245 -97 245 -245c0 -150 -108 -271 -245 -271z" />
    <glyph glyph-name="otilde" unicode="&#xf5;" horiz-adv-x="562" 
d="M265 466c-90 0 -125 -92 -125 -192c0 -121 51 -256 157 -256c77 0 125 83 125 193c0 160 -69 255 -157 255zM282 -16c-158 0 -247 119 -247 246c0 147 111 270 247 270c147 0 245 -97 245 -245c0 -150 -108 -271 -245 -271zM299 617l-36 17c-80 37 -95 25 -120 -29
l-20 10l5 13c38 90 85 112 155 83l45 -19c65 -27 83 -12 108 41l22 -10l-5 -13c-37 -95 -84 -125 -154 -93z" />
    <glyph glyph-name="uacute" unicode="&#xfa;" horiz-adv-x="569" 
d="M396 -15l-10 91c-25 -31 -85 -93 -163 -93c-95 0 -143 63 -143 162v279l-65 25v17l161 26v-326c0 -78 37 -114 98 -114c51 0 93 30 111 46v326l-75 22v19l170 27v-437l73 -25v-19zM319 775h85v-8l-110 -200h-30z" />
    <glyph glyph-name="ugrave" unicode="&#xf9;" horiz-adv-x="569" 
d="M396 -15l-10 91c-25 -31 -85 -93 -163 -93c-95 0 -143 63 -143 162v279l-65 25v17l161 26v-326c0 -78 37 -114 98 -114c51 0 93 30 111 46v326l-75 22v19l170 27v-437l73 -25v-19zM161 775h85l55 -208h-30l-110 200v8z" />
    <glyph glyph-name="ucircumflex" unicode="&#xfb;" horiz-adv-x="569" 
d="M396 -15l-10 91c-25 -31 -85 -93 -163 -93c-95 0 -143 63 -143 162v279l-65 25v17l161 26v-326c0 -78 37 -114 98 -114c51 0 93 30 111 46v326l-75 22v19l170 27v-437l73 -25v-19zM189 567h-35l109 208h44l110 -208h-38l-96 131z" />
    <glyph glyph-name="udieresis" unicode="&#xfc;" horiz-adv-x="569" 
d="M396 -15l-10 91c-25 -31 -85 -93 -163 -93c-95 0 -143 63 -143 162v279l-65 25v17l161 26v-326c0 -78 37 -114 98 -114c51 0 93 30 111 46v326l-75 22v19l170 27v-437l73 -25v-19zM377 628c-33 0 -61 26 -61 59s28 61 61 61s61 -28 61 -61s-28 -59 -61 -59zM185 628
c-34 0 -60 26 -60 59s26 61 60 61c33 0 61 -28 61 -61s-28 -59 -61 -59z" />
    <glyph glyph-name="dagger" unicode="&#x2020;" horiz-adv-x="330" 
d="M41 597v53l102 -7l-7 108h58l-9 -108l105 7v-53l-106 6l10 -255h-58l8 255z" />
    <glyph glyph-name="degree" unicode="&#xb0;" horiz-adv-x="305" 
d="M16 617c0 75 63 136 139 136c77 0 133 -61 133 -136c0 -76 -62 -136 -137 -136c-78 0 -135 60 -135 136zM56 617c0 -58 41 -103 97 -103s97 45 97 103s-41 104 -97 104s-97 -46 -97 -104z" />
    <glyph glyph-name="cent" unicode="&#xa2;" horiz-adv-x="486" 
d="M221 -122l6 108c-99 12 -195 95 -195 245c0 152 112 256 228 267l7 114h33l-7 -114c80 -4 157 -50 157 -107c0 -30 -24 -49 -58 -49c-10 0 -18 2 -19 2l-37 90c-13 11 -27 22 -46 27l-25 -398c10 -2 20 -3 30 -3c77 0 120 44 143 64l15 -15c-30 -38 -84 -121 -193 -125
l-6 -106h-33zM123 273c0 -98 45 -171 110 -200l25 392c-78 -2 -135 -71 -135 -192z" />
    <glyph glyph-name="sterling" unicode="&#xa3;" horiz-adv-x="657" 
d="M128 270v34h128l24 93c46 188 179 272 252 272c51 0 103 -32 103 -78c0 -36 -27 -53 -72 -63c-12 74 -39 106 -66 106c-34 0 -63 -37 -89 -131l-53 -199h196v-34h-205c-31 -126 -100 -200 -163 -242c41 -19 85 -45 126 -73l37 -25c110 -75 132 -93 163 -93
c42 0 54 61 35 140c44 1 80 -3 80 -44c0 -48 -70 -138 -173 -138c-82 0 -177 83 -262 158l-55 48c-32 -13 -61 -20 -79 -20c-45 0 -56 21 -56 37c0 25 31 43 64 43c26 0 57 -8 90 -20c31 30 57 81 77 161l18 68h-120z" />
    <glyph glyph-name="section" unicode="&#xa7;" horiz-adv-x="485" 
d="M273 -105c0 36 -15 59 -91 185l-66 110c-54 90 -64 143 -64 184c0 176 212 308 314 308c51 0 78 -26 78 -57c0 -23 -14 -44 -40 -48c0 0 -38 31 -89 40c-30 0 -66 -7 -100 -25c-4 -8 -6 -18 -6 -28c0 -35 16 -58 91 -184l67 -112c53 -90 63 -142 63 -182
c0 -177 -211 -308 -313 -308c-51 0 -78 26 -78 57c0 23 13 44 39 48c0 0 39 -33 90 -41c29 0 64 8 98 25c4 8 7 17 7 28zM124 434c0 -67 26 -130 69 -203l56 -95c70 -118 68 -153 68 -181c0 -26 -6 -44 -11 -55h5c28 29 47 70 47 126c0 67 -26 128 -68 201l-56 97
c-75 131 -69 153 -69 181c0 26 6 44 11 55h-5c-28 -29 -47 -70 -47 -126z" />
    <glyph glyph-name="bullet" unicode="&#x2022;" horiz-adv-x="346" 
d="M173 198c-44 0 -81 37 -81 82c0 43 37 79 81 79s81 -36 81 -79c0 -45 -37 -82 -81 -82z" />
    <glyph glyph-name="paragraph" unicode="&#xb6;" horiz-adv-x="553" 
d="M517 680v-24l-73 -21v-600c0 -183 -99 -246 -208 -246c-96 0 -170 66 -170 161c0 91 63 150 144 150c65 0 102 -46 102 -91c0 -59 -37 -88 -75 -88c-30 0 -60 24 -56 68c36 7 61 18 81 36v4c-6 22 -28 40 -63 40c-44 0 -95 -39 -95 -113c0 -71 51 -133 138 -133
c85 0 144 50 144 181v643h-54v-408h-54c-122 0 -222 99 -222 220c0 122 100 221 222 221h239z" />
    <glyph glyph-name="germandbls" unicode="&#xdf;" horiz-adv-x="612" 
d="M25 0v23l62 21v397h-65v24l66 22c2 147 97 278 255 278c111 0 180 -52 180 -132c0 -66 -48 -105 -93 -143c-45 -40 -81 -64 -81 -98c0 -27 16 -38 55 -62l81 -48c75 -45 102 -73 102 -134c0 -95 -96 -165 -195 -165c-43 0 -95 12 -137 39v136h16l48 -109
c19 -20 50 -35 85 -35c49 0 92 35 92 88c0 47 -33 77 -92 112l-58 34c-46 26 -70 54 -70 97c0 49 45 85 85 125c52 51 71 93 71 150c0 60 -42 114 -114 114c-70 0 -135 -43 -135 -190v-544h-158z" />
    <glyph glyph-name="registered" unicode="&#xae;" horiz-adv-x="425" 
d="M8 571c0 113 93 201 207 201c113 0 203 -88 203 -201s-93 -199 -206 -199c-114 0 -204 85 -204 199zM38 571c0 -99 77 -176 175 -176c99 0 176 76 176 176c0 99 -77 177 -176 177s-175 -78 -175 -177zM106 472v12l29 8v172l-29 7v11h91c71 0 110 -14 110 -55
c0 -33 -29 -49 -54 -60v-1l52 -76l32 -6v-12h-76l-29 44c-2 3 -27 43 -27 43h-22v-67l27 -8v-12h-104zM183 668v-93h42c16 6 30 23 30 43c0 31 -25 52 -72 50z" />
    <glyph glyph-name="copyright" unicode="&#xa9;" horiz-adv-x="809" 
d="M50 336c0 198 158 354 354 354c197 0 356 -156 356 -354c0 -199 -160 -354 -356 -354s-354 155 -354 354zM78 336c0 -183 146 -331 326 -331s327 148 327 331s-147 331 -327 331s-326 -148 -326 -331zM411 135c-147 0 -203 104 -203 191c0 123 93 210 217 210
c52 0 92 -19 124 -33l2 -106h-23l-31 81c-19 18 -43 34 -77 34c-71 0 -123 -61 -123 -173c0 -111 52 -177 130 -177c33 0 61 15 79 34l30 80h23l-8 -102c-43 -20 -78 -39 -140 -39z" />
    <glyph glyph-name="trademark" unicode="&#x2122;" horiz-adv-x="712" 
d="M314 394v17l33 7v238l-33 9v15h116l70 -187v-1l68 188h112v-15l-33 -9v-238l34 -7v-17h-134v18l36 7v228h-4l-78 -208l-11 -35h-26l-11 34l-80 209h-3v-226l43 -11v-16h-99zM35 680h251l4 -92h-16l-26 70h-55v-239l38 -8v-17h-140v17l38 8v239h-53l-27 -70h-17z" />
    <glyph glyph-name="acute" unicode="&#xb4;" horiz-adv-x="268" 
d="M124 775h85v-8l-111 -200h-29z" />
    <glyph glyph-name="dieresis" unicode="&#xa8;" 
d="M121 628c-34 0 -61 26 -61 59s27 61 61 61c33 0 60 -28 60 -61s-27 -59 -60 -59zM312 628c-33 0 -60 26 -60 59s27 61 60 61s62 -28 62 -61s-29 -59 -62 -59z" />
    <glyph glyph-name="notequal" unicode="&#x2260;" horiz-adv-x="600" 
d="M178 38h-40l81 124h-162v40h188l68 104h-256v40h282l80 123h44l-81 -123h161v-40h-188l-68 -104h256v-40h-283z" />
    <glyph glyph-name="AE" unicode="&#xc6;" horiz-adv-x="958" 
d="M702 327h-136v-266c11 -14 26 -23 51 -24h181l103 168h28l-52 -205h-488v24l73 19v284h-192l-152 -280l107 -23v-24h-226v24l67 19l340 585l-87 28v24h494l76 4v-184h-28l-55 145h-240v-283h136l32 98h25v-224h-28zM462 634h-16l-156 -273h172v273z" />
    <glyph glyph-name="Oslash" unicode="&#xd8;" horiz-adv-x="799" 
d="M76 -36l83 107c-68 62 -111 154 -111 265c0 221 167 361 350 361c80 0 148 -22 202 -59l64 81h44l-80 -103c80 -67 123 -167 123 -262c0 -241 -168 -379 -352 -379c-79 0 -155 26 -215 73l-64 -84h-44zM415 7c154 0 219 155 219 311c0 85 -23 167 -61 229l-340 -436
c41 -61 102 -104 182 -104zM164 360c0 -74 16 -153 50 -218l339 435c-43 54 -100 89 -168 89c-153 0 -221 -148 -221 -306z" />
    <glyph glyph-name="plusminus" unicode="&#xb1;" horiz-adv-x="600" 
d="M543 336h-220v-223h-44v223h-222v39h222v223h44v-223h220v-39zM57 0v40h486v-40h-486z" />
    <glyph glyph-name="lessequal" unicode="&#x2264;" horiz-adv-x="602" 
d="M542 0h-484v40h484v-40zM542 482l-418 -158l418 -159v-43l-485 185v33l485 184v-42z" />
    <glyph glyph-name="greaterequal" unicode="&#x2265;" horiz-adv-x="602" 
d="M542 0h-484v40h484v-40zM58 164l419 159l-419 158v43l485 -184v-33l-485 -185v42z" />
    <glyph glyph-name="yen" unicode="&#xa5;" horiz-adv-x="592" 
d="M62 267v32h169l-183 313l-53 17v22h258v-22l-80 -22l150 -286h3l164 281l-97 27v22h205v-23l-58 -22l-187 -307h172v-32h-178v-78h179v-31h-179v-114l76 -20v-24h-254v25l75 18v115h-182v31h182v78h-182z" />
    <glyph glyph-name="ordfeminine" unicode="&#xaa;" horiz-adv-x="440" 
d="M143 242c-47 0 -103 33 -103 98c0 66 51 89 138 111l85 20v69c-3 41 -31 75 -78 75c-23 0 -40 -7 -46 -10l-11 -89c-7 -3 -18 -5 -31 -5c-31 0 -45 13 -45 38c0 38 78 100 173 100c85 0 122 -40 122 -125v-211c0 -20 6 -25 29 -25h40v-21s-51 -23 -87 -23
c-45 0 -63 28 -64 64h-6c-40 -39 -63 -66 -116 -66zM188 300c40 0 65 24 75 36v113l-70 -22c-41 -13 -66 -30 -66 -62c0 -40 26 -65 61 -65z" />
    <glyph glyph-name="ordmasculine" unicode="&#xba;" horiz-adv-x="467" 
d="M223 623c-66 0 -99 -71 -99 -160c0 -100 41 -196 121 -196c60 0 99 67 99 162c0 116 -49 194 -121 194zM233 239c-130 0 -199 91 -199 199c0 118 87 213 199 213c122 0 201 -75 201 -198c0 -120 -87 -214 -201 -214z" />
    <glyph glyph-name="ae" unicode="&#xe6;" horiz-adv-x="747" 
d="M158 -16c-65 0 -122 39 -122 120c0 85 81 117 204 147l64 15v93c-9 60 -38 100 -92 100c-29 0 -57 -13 -68 -22l2 -95c-2 -1 -27 -11 -46 -11c-31 0 -49 18 -49 46c0 57 100 121 194 121c69 0 112 -29 134 -80c25 44 76 80 144 80c112 0 169 -75 184 -179l-308 -64v-52
c6 -87 66 -137 156 -137c81 0 134 68 137 70l16 -10c-5 -6 -57 -142 -205 -142c-72 0 -140 39 -175 107c-62 -66 -98 -107 -170 -107zM399 335v-51l195 45c-4 78 -39 130 -98 130c-58 0 -90 -43 -97 -124zM304 195v43l-61 -20c-89 -28 -106 -54 -106 -92
c0 -48 31 -75 79 -75c62 4 85 54 90 113c-1 9 -2 20 -2 31z" />
    <glyph glyph-name="oslash" unicode="&#xf8;" horiz-adv-x="562" 
d="M76 -51h-38l74 97c-50 46 -77 114 -77 184c0 147 111 270 247 270c56 0 105 -14 145 -41l61 81h38l-75 -100c48 -43 76 -106 76 -185c0 -150 -108 -271 -245 -271c-58 0 -108 16 -147 43zM265 466c-90 0 -127 -94 -125 -194c1 -58 10 -111 27 -154l213 279
c-28 46 -69 69 -115 69zM422 214c-1 63 -11 115 -27 154l-213 -280c26 -43 63 -70 115 -70c78 0 126 85 125 196z" />
    <glyph glyph-name="questiondown" unicode="&#xbf;" horiz-adv-x="368" 
d="M298 -13v-109l-32 7c-96 19 -237 115 -237 249c0 65 33 107 106 134l86 30l-4 96h37l24 -170l-125 -42c-59 -19 -88 -40 -88 -73c0 -51 73 -104 193 -117zM236 601c36 0 67 -32 67 -69c0 -36 -31 -67 -67 -67c-37 0 -69 31 -69 67c0 37 32 69 69 69z" />
    <glyph glyph-name="exclamdown" unicode="&#xa1;" horiz-adv-x="276" 
d="M191 -121h-108l42 515h26zM138 601c36 0 68 -32 68 -69c0 -36 -32 -67 -68 -67c-37 0 -68 31 -68 67c0 37 31 69 68 69z" />
    <glyph glyph-name="logicalnot" unicode="&#xac;" horiz-adv-x="600" 
d="M57 264h486v-202h-44v162h-442v40z" />
    <glyph glyph-name="florin" unicode="&#x192;" horiz-adv-x="477" 
d="M46 287l5 35h94c43 168 164 294 278 294c48 0 66 -26 66 -55s-22 -54 -37 -67c-30 36 -59 75 -94 75c-34 0 -73 -33 -118 -247h138l-7 -35h-139l-57 -289c-27 -136 -125 -262 -231 -262c-29 0 -74 21 -74 60c0 33 22 54 39 63c28 -52 59 -79 87 -79c33 0 57 61 76 160
l66 347h-92z" />
    <glyph glyph-name="approxequal" unicode="&#x2248;" horiz-adv-x="600" 
d="M88 292l-32 16c30 58 67 90 128 90c33 0 56 -6 101 -20l49 -16c45 -14 69 -17 91 -17c42 0 68 28 87 64l32 -17c-30 -54 -63 -88 -126 -88c-33 0 -66 9 -101 19l-51 15c-33 10 -63 19 -89 19c-43 0 -67 -28 -89 -65zM88 139l-32 17c30 58 67 90 128 90
c33 0 56 -5 101 -20l49 -16c45 -15 69 -17 91 -17c42 0 68 27 87 63l32 -16c-30 -54 -63 -88 -126 -88c-33 0 -66 7 -101 18l-51 16c-33 10 -63 19 -89 19c-43 0 -67 -29 -89 -66z" />
    <glyph glyph-name="guillemotleft" unicode="&#xab;" horiz-adv-x="476" 
d="M221 397l17 -15l-115 -172l114 -165l-16 -15l-170 173v15zM388 397l16 -15l-114 -172l113 -165l-15 -15l-170 173v15z" />
    <glyph glyph-name="guillemotright" unicode="&#xbb;" horiz-adv-x="476" 
d="M255 30l-16 15l114 171l-113 166l15 15l170 -173v-14zM88 30l-16 15l114 171l-113 166l15 15l170 -173v-14z" />
    <glyph glyph-name="ellipsis" unicode="&#x2026;" horiz-adv-x="766" 
d="M126 -9c-36 0 -68 31 -68 68s32 69 68 69c38 0 69 -32 69 -69s-31 -68 -69 -68zM385 -9c-36 0 -68 31 -68 68s32 69 68 69c37 0 69 -32 69 -69s-32 -68 -69 -68zM643 -9c-36 0 -68 31 -68 68s32 69 68 69c38 0 69 -32 69 -69s-31 -68 -69 -68z" />
    <glyph glyph-name="uni00A0" unicode="&#xa0;" horiz-adv-x="164" 
 />
    <glyph glyph-name="Agrave" unicode="&#xc0;" horiz-adv-x="685" 
d="M-8 0v24l76 19l236 642l33 7l40 8l241 -658l75 -18v-24h-271v24l81 18l-70 192h-252l-66 -187l118 -23v-24h-241zM306 588l-107 -303h217l-109 303h-1zM183 886h93l85 -144h-39l-139 135v9z" />
    <glyph glyph-name="Atilde" unicode="&#xc3;" horiz-adv-x="685" 
d="M-8 0v24l76 19l236 642l33 7l40 8l241 -658l75 -18v-24h-271v24l81 18l-70 192h-252l-66 -187l118 -23v-24h-241zM306 588l-107 -303h217l-109 303h-1zM358 765l-36 15c-80 33 -96 26 -120 -28l-22 10l5 12c38 91 85 113 155 84l45 -18c63 -27 84 -13 110 40l21 -11
l-5 -12c-41 -98 -82 -122 -153 -92z" />
    <glyph glyph-name="Otilde" unicode="&#xd5;" horiz-adv-x="799" 
d="M421 765l-37 15c-80 33 -96 26 -120 -28l-21 10l5 12c38 91 84 113 154 84l45 -18c63 -27 84 -13 110 40l22 -11l-6 -12c-41 -98 -81 -122 -152 -92zM415 7c154 0 219 155 219 311c0 176 -106 348 -249 348c-153 0 -221 -148 -221 -306c0 -157 87 -353 251 -353zM398 697
c225 0 353 -175 353 -343c0 -241 -168 -379 -352 -379c-186 0 -351 142 -351 361c0 221 167 361 350 361z" />
    <glyph glyph-name="OE" unicode="&#x152;" horiz-adv-x="1037" 
d="M728 680h148l77 4v-184h-27l-56 145h-233v-275h130l32 97h24v-224h-27l-29 91h-130v-273c11 -14 26 -23 51 -24h174l105 168h26l-51 -205h-286c-97 0 -137 -6 -243 -6c-230 0 -365 137 -365 341c0 216 155 351 376 351c87 0 111 -6 304 -6zM402 26c102 0 130 32 130 125
v481c-34 13 -75 23 -117 23c-152 0 -251 -107 -251 -296c0 -154 75 -333 238 -333z" />
    <glyph glyph-name="oe" unicode="&#x153;" horiz-adv-x="901" 
d="M652 -16c-98 0 -154 53 -183 118c-38 -72 -103 -118 -188 -118c-158 0 -246 118 -246 246c0 147 111 270 247 270c97 0 163 -44 196 -117c41 72 114 115 201 115c108 0 173 -78 181 -218h-349v-8c0 -129 87 -206 185 -206c89 0 143 68 146 70l15 -10
c-5 -6 -55 -142 -205 -142zM265 466c-90 0 -126 -94 -124 -194c1 -120 50 -255 156 -255c78 0 126 85 125 197c-2 157 -69 252 -157 252zM646 459c-66 0 -122 -55 -133 -149h231c-1 77 -27 149 -98 149z" />
    <glyph glyph-name="endash" unicode="&#x2013;" horiz-adv-x="499" 
d="M45 257v39h410v-39h-410z" />
    <glyph glyph-name="emdash" unicode="&#x2014;" horiz-adv-x="909" 
d="M45 257v39h819v-39h-819z" />
    <glyph glyph-name="quotedblleft" unicode="&#x201c;" horiz-adv-x="461" 
d="M182 753l14 -19c-43 -30 -69 -63 -69 -103c0 -35 26 -62 68 -68c7 -46 -17 -74 -58 -74c-34 0 -70 29 -70 96c0 72 55 135 115 168zM374 753l13 -19c-43 -30 -69 -63 -69 -103c0 -35 26 -62 68 -68c7 -46 -16 -74 -57 -74c-34 0 -71 29 -71 96c0 72 56 135 116 168z" />
    <glyph glyph-name="quotedblright" unicode="&#x201d;" horiz-adv-x="461" 
d="M88 489l-12 19c43 30 68 64 68 104c0 34 -25 62 -67 68c-8 45 15 73 57 73c34 0 71 -29 71 -96c0 -71 -57 -135 -117 -168zM280 489l-13 19c43 30 69 64 69 104c0 34 -26 62 -68 68c-8 45 16 73 58 73c34 0 70 -29 70 -96c0 -71 -56 -135 -116 -168z" />
    <glyph glyph-name="quoteleft" unicode="&#x2018;" horiz-adv-x="271" 
d="M182 753l14 -19c-43 -30 -69 -63 -69 -103c0 -35 26 -62 68 -68c7 -46 -17 -74 -58 -74c-34 0 -70 29 -70 96c0 72 55 135 115 168z" />
    <glyph glyph-name="quoteright" unicode="&#x2019;" horiz-adv-x="271" 
d="M88 489l-12 19c43 30 68 64 68 104c0 34 -25 62 -67 68c-8 45 15 73 57 73c34 0 71 -29 71 -96c0 -71 -57 -135 -117 -168z" />
    <glyph glyph-name="divide" unicode="&#xf7;" horiz-adv-x="600" 
d="M543 224h-486v40h486v-40zM300 345c-32 0 -61 30 -61 63s29 61 61 61c34 0 62 -28 62 -61s-28 -63 -62 -63zM299 17c-32 0 -61 29 -61 63c0 33 29 61 61 61c34 0 62 -28 62 -61c0 -34 -28 -63 -62 -63z" />
    <glyph glyph-name="ydieresis" unicode="&#xff;" horiz-adv-x="481" 
d="M395 437l-71 24v23h159v-24l-48 -20l-226 -610c-19 -51 -51 -86 -101 -86c-34 0 -61 26 -61 59s26 59 58 59c29 0 45 -18 61 -38l4 -5l54 146l-182 479l-44 16v24h203v-24l-51 -19l124 -342zM355 628c-33 0 -60 26 -60 59s27 61 60 61s62 -28 62 -61s-29 -59 -62 -59z
M164 628c-34 0 -61 26 -61 59s27 61 61 61c33 0 60 -28 60 -61s-27 -59 -60 -59z" />
    <glyph glyph-name="Ydieresis" unicode="&#x178;" horiz-adv-x="629" 
d="M570 635l-201 -330v-262l81 -18v-25h-272v25l82 18v239l-205 359l-53 15v24h260v-24l-82 -20l162 -302l176 297l-98 25v24h208v-24zM450 766c-33 0 -61 26 -61 59s28 61 61 61s60 -28 60 -61s-27 -59 -60 -59zM231 766c-33 0 -59 26 -59 59s26 61 59 61s61 -28 61 -61
s-28 -59 -61 -59z" />
    <glyph glyph-name="fraction" unicode="&#x2044;" horiz-adv-x="246" 
d="M-139 -82l-26 20l552 800l26 -17z" />
    <glyph glyph-name="Euro" unicode="&#x20ac;" horiz-adv-x="638" 
d="M43 349l4 33h81c45 146 178 233 309 233c74 0 153 -37 153 -102c0 -24 -17 -42 -58 -54c-39 79 -75 120 -143 120c-84 0 -154 -76 -172 -197h253l-5 -33h-251c-1 -10 -1 -22 -1 -32c0 -20 1 -40 3 -57h238l-5 -33h-227c27 -116 107 -180 208 -180c57 0 107 17 149 55
l13 -12c-53 -69 -118 -114 -205 -114c-168 0 -257 114 -273 251h-87l4 33h81v12c0 27 2 52 7 77h-76z" />
    <glyph glyph-name="guilsinglleft" unicode="&#x2039;" horiz-adv-x="309" 
d="M221 397l17 -15l-115 -172l114 -165l-16 -15l-170 173v15z" />
    <glyph glyph-name="guilsinglright" unicode="&#x203a;" horiz-adv-x="309" 
d="M88 30l-16 15l114 171l-113 166l15 15l170 -173v-14z" />
    <glyph glyph-name="daggerdbl" unicode="&#x2021;" horiz-adv-x="308" 
d="M30 597v52l102 -6l-7 108h56l-6 -108l104 6v-52l-105 6v-107l105 8v-53l-104 6l6 -111l-56 -1l7 112l-102 -6v53l103 -8v107z" />
    <glyph glyph-name="periodcentered" unicode="&#xb7;" horiz-adv-x="342" 
d="M170 211c-36 0 -68 32 -68 69c0 36 32 67 68 67c38 0 70 -31 70 -67c0 -37 -32 -69 -70 -69z" />
    <glyph glyph-name="quotesinglbase" unicode="&#x201a;" horiz-adv-x="271" 
d="M88 -104l-12 18c43 30 68 64 68 104c0 34 -25 62 -67 68c-8 45 15 73 57 73c34 0 71 -29 71 -96c0 -71 -57 -134 -117 -167z" />
    <glyph glyph-name="quotedblbase" unicode="&#x201e;" horiz-adv-x="462" 
d="M88 -104l-12 18c43 30 68 64 68 104c0 34 -25 62 -67 68c-8 45 15 73 57 73c34 0 71 -29 71 -96c0 -71 -57 -134 -117 -167zM281 -104l-13 18c43 30 69 64 69 104c0 34 -26 62 -68 68c-8 45 16 73 58 73c34 0 70 -29 70 -96c0 -71 -56 -134 -116 -167z" />
    <glyph glyph-name="perthousand" unicode="&#x2030;" horiz-adv-x="1174" 
d="M148 -51l453 696h39l-454 -696h-38zM200 591c-52 0 -76 -69 -76 -126c0 -79 33 -155 89 -155c50 0 75 67 75 127c0 87 -40 154 -88 154zM203 282c-85 0 -152 66 -152 162c0 100 76 176 158 176c96 0 152 -83 152 -164c0 -100 -71 -174 -158 -174zM579 291
c-52 0 -76 -69 -76 -126c0 -79 33 -155 89 -155c50 0 75 67 75 127c0 87 -40 154 -88 154zM582 -19c-85 0 -152 67 -152 163c0 100 76 177 158 177c96 0 152 -84 152 -166c0 -99 -71 -174 -158 -174zM947 291c-51 0 -75 -69 -75 -126c0 -79 34 -155 90 -155
c50 0 74 67 74 127c0 87 -40 154 -89 154zM951 -19c-85 0 -152 67 -152 163c0 100 75 177 157 177c96 0 154 -84 154 -166c0 -99 -72 -174 -159 -174z" />
    <glyph glyph-name="Acircumflex" unicode="&#xc2;" horiz-adv-x="685" 
d="M-8 0v24l76 19l236 642l33 7l40 8l241 -658l75 -18v-24h-271v24l81 18l-70 192h-252l-66 -187l118 -23v-24h-241zM306 588l-107 -303h217l-109 303h-1zM220 742h-43l121 135h84l113 -135h-46l-112 83z" />
    <glyph glyph-name="Ecircumflex" unicode="&#xca;" horiz-adv-x="617" 
d="M360 334h-136v-273c12 -15 27 -23 51 -25h182l103 169h28l-52 -205h-499v24l79 19v591l-79 22v24h435l75 4v-184h-28l-54 145h-241v-275h136l33 97h25v-224h-28zM209 742h-43l121 135h84l112 -135h-46l-111 83z" />
    <glyph glyph-name="Aacute" unicode="&#xc1;" horiz-adv-x="685" 
d="M-8 0v24l76 19l236 642l33 7l40 8l241 -658l75 -18v-24h-271v24l81 18l-70 192h-252l-66 -187l118 -23v-24h-241zM306 588l-107 -303h217l-109 303h-1zM401 886h98v-9l-142 -135h-40z" />
    <glyph glyph-name="Edieresis" unicode="&#xcb;" horiz-adv-x="617" 
d="M360 334h-136v-273c12 -15 27 -23 51 -25h182l103 169h28l-52 -205h-499v24l79 19v591l-79 22v24h435l75 4v-184h-28l-54 145h-241v-275h136l33 97h25v-224h-28zM434 766c-33 0 -60 26 -60 59s27 61 60 61s61 -28 61 -61s-28 -59 -61 -59zM216 766c-33 0 -59 26 -59 59
s26 61 59 61s60 -28 60 -61s-27 -59 -60 -59z" />
    <glyph glyph-name="Egrave" unicode="&#xc8;" horiz-adv-x="617" 
d="M360 334h-136v-273c12 -15 27 -23 51 -25h182l103 169h28l-52 -205h-499v24l79 19v591l-79 22v24h435l75 4v-184h-28l-54 145h-241v-275h136l33 97h25v-224h-28zM183 886h93l85 -144h-39l-139 135v9z" />
    <glyph glyph-name="Iacute" unicode="&#xcd;" horiz-adv-x="339" 
d="M37 0v25l79 18v592l-79 21v24h266v-24l-79 -21v-592l79 -19v-24h-266zM223 886h98v-9l-142 -135h-40z" />
    <glyph glyph-name="Icircumflex" unicode="&#xce;" horiz-adv-x="339" 
d="M37 0v25l79 18v592l-79 21v24h266v-24l-79 -21v-592l79 -19v-24h-266zM72 742h-44l102 135h84l93 -135h-46l-92 81z" />
    <glyph glyph-name="Idieresis" unicode="&#xcf;" horiz-adv-x="339" 
d="M82 766c-33 0 -59 25 -59 59c0 33 26 61 59 61s61 -28 61 -61c0 -34 -28 -59 -61 -59zM257 766c-33 0 -60 25 -60 59c0 33 27 61 60 61s60 -28 60 -61c0 -34 -27 -59 -60 -59zM37 0v25l79 18v592l-79 21v24h266v-24l-79 -21v-592l79 -19v-24h-266z" />
    <glyph glyph-name="Igrave" unicode="&#xcc;" horiz-adv-x="339" 
d="M37 0v25l79 18v592l-79 21v24h266v-24l-79 -21v-592l79 -19v-24h-266zM15 886h94l85 -144h-40l-139 135v9z" />
    <glyph glyph-name="Oacute" unicode="&#xd3;" horiz-adv-x="799" 
d="M453 886h97v-9l-141 -135h-40zM415 7c154 0 219 155 219 311c0 176 -106 348 -249 348c-153 0 -221 -148 -221 -306c0 -157 87 -353 251 -353zM398 697c225 0 353 -175 353 -343c0 -241 -168 -379 -352 -379c-186 0 -351 142 -351 361c0 221 167 361 350 361z" />
    <glyph glyph-name="Ocircumflex" unicode="&#xd4;" horiz-adv-x="799" 
d="M398 697c225 0 353 -175 353 -343c0 -241 -168 -379 -352 -379c-186 0 -351 142 -351 361c0 221 167 361 350 361zM415 7c154 0 219 155 219 311c0 176 -106 348 -249 348c-153 0 -221 -148 -221 -306c0 -157 87 -353 251 -353zM282 742h-43l120 135h84l113 -135h-46
l-112 83z" />
    <glyph glyph-name="Ograve" unicode="&#xd2;" horiz-adv-x="799" 
d="M246 886h93l85 -144h-40l-138 135v9zM415 7c154 0 219 155 219 311c0 176 -106 348 -249 348c-153 0 -221 -148 -221 -306c0 -157 87 -353 251 -353zM398 697c225 0 353 -175 353 -343c0 -241 -168 -379 -352 -379c-186 0 -351 142 -351 361c0 221 167 361 350 361z" />
    <glyph glyph-name="Uacute" unicode="&#xda;" horiz-adv-x="752" 
d="M441 886h98v-9l-142 -135h-40zM374 -24c-197 0 -269 115 -269 284v374l-79 22v24h279v-24l-88 -22v-354c0 -138 41 -249 180 -249c135 0 195 83 202 222l-1 372l-118 31v24h247v-24l-80 -25v-366c0 -195 -118 -289 -273 -289z" />
    <glyph glyph-name="Ucircumflex" unicode="&#xdb;" horiz-adv-x="752" 
d="M374 -24c-197 0 -269 115 -269 284v374l-79 22v24h279v-24l-88 -22v-354c0 -138 41 -249 180 -249c135 0 195 83 202 222l-1 372l-118 31v24h247v-24l-80 -25v-366c0 -195 -118 -289 -273 -289zM284 742h-43l120 135h84l113 -135h-46l-112 83z" />
    <glyph glyph-name="Ugrave" unicode="&#xd9;" horiz-adv-x="752" 
d="M240 886h93l85 -144h-40l-138 135v9zM374 -24c-197 0 -269 115 -269 284v374l-79 22v24h279v-24l-88 -22v-354c0 -138 41 -249 180 -249c135 0 195 83 202 222l-1 372l-118 31v24h247v-24l-80 -25v-366c0 -195 -118 -289 -273 -289z" />
    <glyph glyph-name="dotlessi" unicode="&#x131;" horiz-adv-x="266" 
d="M25 0v23l62 20v352l-60 35v14l156 54v-455l71 -20v-23h-229z" />
    <glyph glyph-name="circumflex" unicode="&#x2c6;" horiz-adv-x="268" 
d="M39 567h-36l110 208h44l109 -208h-38l-96 131z" />
    <glyph glyph-name="tilde" unicode="&#x2dc;" horiz-adv-x="268" 
d="M143 617l-35 17c-80 37 -95 25 -120 -29l-21 10l5 13c38 90 85 112 155 83l45 -19c65 -27 84 -12 109 41l21 -10l-5 -13c-37 -95 -84 -125 -154 -93z" />
    <glyph glyph-name="macron" unicode="&#xaf;" 
d="M55 641v60h299v-60h-299z" />
    <glyph glyph-name="breve" unicode="&#x2d8;" 
d="M201 582c-74 0 -122 56 -122 169h22c18 -77 59 -103 107 -103c44 0 86 32 100 103h22c-3 -112 -51 -169 -129 -169z" />
    <glyph glyph-name="dotaccent" unicode="&#x2d9;" horiz-adv-x="268" 
d="M134 622c-35 0 -65 29 -65 65c0 35 30 65 65 65c36 0 66 -30 66 -65c0 -36 -30 -65 -66 -65z" />
    <glyph glyph-name="ring" unicode="&#x2da;" horiz-adv-x="268" 
d="M32 690c0 56 45 100 102 100c58 0 103 -43 103 -100c0 -56 -46 -100 -103 -100c-58 0 -102 42 -102 100zM69 690c0 -40 29 -68 65 -68s66 28 66 68s-30 68 -66 68s-65 -28 -65 -68z" />
    <glyph glyph-name="cedilla" unicode="&#xb8;" horiz-adv-x="259" 
d="M56 -259l-6 17c63 24 92 49 92 85c0 33 -22 52 -55 61l61 100h31l-35 -55c53 -12 79 -40 79 -80c0 -78 -93 -114 -167 -128z" />
    <glyph glyph-name="hungarumlaut" unicode="&#x2dd;" 
d="M121 775h78v-9l-100 -199h-27zM258 775h79v-9l-100 -199h-28z" />
    <glyph glyph-name="ogonek" unicode="&#x2db;" 
d="M223 1h33c-71 -58 -90 -96 -90 -129c0 -35 19 -59 53 -59c33 0 50 14 83 48l16 -12c-27 -46 -63 -103 -135 -103c-57 0 -95 36 -95 86c0 58 56 109 135 169z" />
    <glyph glyph-name="caron" unicode="&#x2c7;" horiz-adv-x="268" 
d="M230 775h36l-109 -208h-44l-110 208h38l95 -131z" />
    <glyph glyph-name="space_uni0326" 
d="M118 -264l-7 20c70 22 95 47 95 75c0 30 -26 46 -60 49v2c6 37 32 57 67 57c46 0 72 -32 72 -74c0 -65 -57 -106 -167 -129z" />
    <glyph glyph-name="caron.alt" 
d="M180 541h-21l11 202h92v-5z" />
    <glyph glyph-name="space_uni0326.alt" 
d="M296 820l6 -19c-69 -23 -94 -48 -94 -76c0 -30 25 -45 58 -48v-3c-7 -36 -30 -56 -65 -56c-46 0 -73 32 -73 74c0 65 57 105 168 128z" />
    <glyph glyph-name="grave.uc" 
d="M88 886h93l85 -144h-40l-138 135v9z" />
    <glyph glyph-name="dieresis.uc" 
d="M95 766c-33 0 -59 26 -59 59s26 61 59 61s61 -28 61 -61s-28 -59 -61 -59zM313 766c-33 0 -60 26 -60 59s27 61 60 61s61 -28 61 -61s-28 -59 -61 -59z" />
    <glyph glyph-name="macron.uc" 
d="M55 788v62h299v-62h-299z" />
    <glyph glyph-name="acute.uc" 
d="M223 886h98v-9l-142 -135h-40z" />
    <glyph glyph-name="circumflex.uc" 
d="M86 742h-43l121 135h84l112 -135h-46l-111 83z" />
    <glyph glyph-name="caron.uc" 
d="M321 877h44l-122 -135h-84l-112 135h45l111 -84z" />
    <glyph glyph-name="breve.uc" 
d="M202 738c-95 0 -134 71 -131 139h18c14 -43 50 -77 119 -77c65 0 100 34 114 77h18c4 -68 -43 -139 -138 -139z" />
    <glyph glyph-name="dotaccent.uc" 
d="M205 760c-36 0 -66 29 -66 66c0 36 30 66 66 66s66 -30 66 -66c0 -37 -30 -66 -66 -66z" />
    <glyph glyph-name="ring.uc" 
d="M102 852c0 56 46 100 103 100c58 0 102 -43 102 -100c0 -56 -45 -100 -102 -100c-58 0 -103 43 -103 100zM139 852c0 -40 30 -68 66 -68s65 28 65 68s-29 68 -65 68s-66 -28 -66 -68z" />
    <glyph glyph-name="tilde.uc" 
d="M220 765l-37 15c-80 33 -96 26 -120 -28l-21 10l5 12c38 91 85 113 155 84l45 -18c63 -27 83 -13 109 40l22 -11l-5 -12c-41 -98 -82 -122 -153 -92z" />
    <glyph glyph-name="hungarumlaut.uc" 
d="M127 886h82v-9l-112 -135h-37zM308 886h81v-9l-110 -135h-38z" />
    <glyph glyph-name="cedilla.uc" horiz-adv-x="259" 
d="M56 -259l-6 17c63 24 92 49 92 85c0 33 -22 52 -55 61l61 100h31l-35 -55c53 -12 79 -40 79 -80c0 -78 -93 -114 -167 -128z" />
    <glyph glyph-name="Dcroat" unicode="&#x110;" horiz-adv-x="775" 
d="M37 0v25l79 18v276h-85v36h85v280l-79 21v24l303 4c221 -10 387 -125 387 -329c0 -229 -190 -361 -457 -358zM399 319h-175v-252c26 -28 79 -37 126 -37c163 0 262 140 262 306c0 225 -180 332 -388 318v-299h175v-36z" />
    <glyph glyph-name="Eng" unicode="&#x14a;" horiz-adv-x="741" 
d="M710 655l-75 -21v-576c0 -150 -44 -259 -233 -286l-5 24c135 33 171 124 171 224v20l-409 528l1 -520l91 -23v-25h-209v25l75 21v564c-17 19 -45 34 -69 41l-17 6v23h177l385 -499l-1 452l-90 22v25h208v-25z" />
    <glyph glyph-name="IJ" unicode="&#x132;" horiz-adv-x="670" 
d="M37 0v25l79 18v592l-79 21v24h266v-24l-79 -21v-592l79 -19v-24h-266zM555 635v-579c0 -151 -45 -255 -228 -284l-6 23c106 40 126 117 126 235v605l-89 21v24h276v-24z" />
    <glyph glyph-name="uni0237" unicode="&#x237;" horiz-adv-x="261" 
d="M-8 -254l-5 17c84 46 97 101 100 251v381l-59 35v14l154 54v-465c0 -83 -5 -146 -36 -188c-42 -54 -94 -80 -154 -99z" />
    <glyph glyph-name="dcroat" unicode="&#x111;" horiz-adv-x="567" 
d="M307 705v15l172 44v-158h71v-34h-71v-519l69 -18v-19l-152 -30l-10 68c-31 -32 -82 -70 -144 -70c-134 0 -207 113 -207 233c0 167 141 280 273 280c28 0 55 -8 75 -16v91h-196v34h196v67zM290 47c38 0 69 18 93 37v316c-13 20 -46 57 -112 57c-74 0 -141 -57 -141 -198
c0 -92 45 -212 160 -212z" />
    <glyph glyph-name="eng" unicode="&#x14b;" horiz-adv-x="569" 
d="M396 14v313c-5 59 -28 103 -95 103c-50 0 -100 -38 -118 -53v-334l65 -20v-23h-223v23l62 20v352l-64 35v13l146 55h5l5 -95h2c20 22 94 95 176 95c88 0 135 -42 135 -171v-294c0 -83 -11 -146 -42 -188c-42 -54 -95 -80 -155 -99l-6 17c85 46 103 101 107 251z" />
    <glyph glyph-name="ij" unicode="&#x133;" horiz-adv-x="512" 
d="M25 0v23l62 20v352l-60 35v14l156 54v-455l71 -20v-23h-229zM129 622c-35 0 -67 30 -67 65c0 34 32 65 67 65c33 0 65 -31 65 -65c0 -35 -32 -65 -65 -65zM244 -254l-5 17c84 46 97 101 100 251v381l-59 35v14l154 54v-465c0 -83 -5 -146 -36 -188
c-42 -54 -94 -80 -154 -99zM382 622c-35 0 -67 30 -67 65c0 34 32 65 67 65c33 0 64 -31 64 -65c0 -35 -31 -65 -64 -65z" />
    <glyph glyph-name="Abreve" unicode="&#x102;" horiz-adv-x="685" 
d="M-8 0v24l76 19l236 642l33 7l40 8l241 -658l75 -18v-24h-271v24l81 18l-70 192h-252l-66 -187l118 -23v-24h-241zM306 588l-107 -303h217l-109 303h-1zM333 738c-95 0 -134 71 -131 139h18c14 -43 50 -77 119 -77c65 0 100 34 114 77h18c4 -68 -43 -139 -138 -139z" />
    <glyph glyph-name="Amacron" unicode="&#x100;" horiz-adv-x="685" 
d="M-8 0v24l76 19l236 642l33 7l40 8l241 -658l75 -18v-24h-271v24l81 18l-70 192h-252l-66 -187l118 -23v-24h-241zM306 588l-107 -303h217l-109 303h-1zM188 788v62h299v-62h-299z" />
    <glyph glyph-name="Aogonek" unicode="&#x104;" horiz-adv-x="685" 
d="M-8 0v24l76 19l236 642l33 7l40 8l241 -658l75 -18v-24h-150c-76 -45 -99 -94 -99 -128c0 -33 18 -59 54 -59c30 0 50 13 83 48l16 -12c-27 -46 -64 -103 -135 -103c-57 0 -95 36 -95 85c0 58 44 101 147 181l-80 222h-253l-66 -187l118 -23v-24h-241zM306 588l-107 -303
h217l-109 303h-1z" />
    <glyph glyph-name="Aringacute" unicode="&#x1fa;" horiz-adv-x="685" 
d="M-8 0v24l76 19l236 642l33 7l40 8l241 -658l75 -18v-24h-271v24l81 18l-70 192h-252l-66 -187l118 -23v-24h-241zM306 588l-107 -303h217l-109 303h-1zM248 829c0 56 45 101 102 101c58 0 103 -44 103 -101c0 -56 -46 -100 -103 -100c-58 0 -102 43 -102 100zM285 829
c0 -40 29 -67 65 -67s66 27 66 67s-30 68 -66 68s-65 -28 -65 -68zM415 1108h97v-9l-141 -134h-40z" />
    <glyph glyph-name="AEacute" unicode="&#x1fc;" horiz-adv-x="958" 
d="M702 327h-136v-266c11 -14 26 -23 51 -24h181l103 168h28l-52 -205h-488v24l73 19v284h-192l-152 -280l107 -23v-24h-226v24l67 19l340 585l-87 28v24h494l76 4v-184h-28l-55 145h-240v-283h136l32 98h25v-224h-28zM462 634h-16l-156 -273h172v273zM614 886h98v-9
l-142 -135h-40z" />
    <glyph glyph-name="Cacute" unicode="&#x106;" horiz-adv-x="734" 
d="M402 -25c-243 0 -353 178 -353 342c0 217 179 380 391 380c95 0 161 -24 215 -54l5 -175h-27l-53 137c-41 31 -91 58 -166 58c-138 0 -242 -131 -242 -308c0 -232 124 -345 264 -345c74 0 120 34 147 57l77 151h29l-29 -175c-83 -42 -160 -68 -258 -68zM478 886h97v-9
l-141 -135h-40z" />
    <glyph glyph-name="Ccaron" unicode="&#x10c;" horiz-adv-x="734" 
d="M402 -25c-243 0 -353 178 -353 342c0 217 179 380 391 380c95 0 161 -24 215 -54l5 -175h-27l-53 137c-41 31 -91 58 -166 58c-138 0 -242 -131 -242 -308c0 -232 124 -345 264 -345c74 0 120 34 147 57l77 151h29l-29 -175c-83 -42 -160 -68 -258 -68zM540 877h44
l-122 -135h-84l-112 135h45l111 -84z" />
    <glyph glyph-name="Ccircumflex" unicode="&#x108;" horiz-adv-x="734" 
d="M402 -25c-243 0 -353 178 -353 342c0 217 179 380 391 380c95 0 161 -24 215 -54l5 -175h-27l-53 137c-41 31 -91 58 -166 58c-138 0 -242 -131 -242 -308c0 -232 124 -345 264 -345c74 0 120 34 147 57l77 151h29l-29 -175c-83 -42 -160 -68 -258 -68zM304 742h-43
l121 135h84l113 -135h-47l-111 83z" />
    <glyph glyph-name="Cdotaccent" unicode="&#x10a;" horiz-adv-x="734" 
d="M402 -25c-243 0 -353 178 -353 342c0 217 179 380 391 380c95 0 161 -24 215 -54l5 -175h-27l-53 137c-41 31 -91 58 -166 58c-138 0 -242 -131 -242 -308c0 -232 124 -345 264 -345c74 0 120 34 147 57l77 151h29l-29 -175c-83 -42 -160 -68 -258 -68zM419 760
c-36 0 -66 29 -66 66c0 36 30 66 66 66s66 -30 66 -66c0 -37 -30 -66 -66 -66z" />
    <glyph glyph-name="Dcaron" unicode="&#x10e;" horiz-adv-x="775" 
d="M37 0v25l79 18v592l-79 21v24l304 4c220 -10 386 -125 386 -329c0 -229 -190 -361 -457 -358zM224 654v-587c26 -28 81 -38 128 -37c163 3 260 140 260 306c0 225 -180 332 -388 318zM480 877h44l-122 -135h-84l-111 135h45l110 -84z" />
    <glyph glyph-name="Ebreve" unicode="&#x114;" horiz-adv-x="617" 
d="M360 334h-136v-273c12 -15 27 -23 51 -25h182l103 169h28l-52 -205h-499v24l79 19v591l-79 22v24h435l75 4v-184h-28l-54 145h-241v-275h136l33 97h25v-224h-28zM323 738c-95 0 -135 71 -132 139h19c14 -43 50 -77 119 -77c65 0 99 34 113 77h19
c4 -68 -43 -139 -138 -139z" />
    <glyph glyph-name="Ecaron" unicode="&#x11a;" horiz-adv-x="617" 
d="M360 334h-136v-273c12 -15 27 -23 51 -25h182l103 169h28l-52 -205h-499v24l79 19v591l-79 22v24h435l75 4v-184h-28l-54 145h-241v-275h136l33 97h25v-224h-28zM442 877h44l-121 -135h-84l-112 135h45l111 -84z" />
    <glyph glyph-name="Edotaccent" unicode="&#x116;" horiz-adv-x="617" 
d="M360 334h-136v-273c12 -15 27 -23 51 -25h182l103 169h28l-52 -205h-499v24l79 19v591l-79 22v24h435l75 4v-184h-28l-54 145h-241v-275h136l33 97h25v-224h-28zM332 760c-36 0 -66 29 -66 66c0 36 30 66 66 66s66 -30 66 -66c0 -37 -30 -66 -66 -66z" />
    <glyph glyph-name="Emacron" unicode="&#x112;" horiz-adv-x="617" 
d="M360 334h-136v-273c12 -15 27 -23 51 -25h182l103 169h28l-52 -205h-499v24l79 19v591l-79 22v24h435l75 4v-184h-28l-54 145h-241v-275h136l33 97h25v-224h-28zM179 788v62h299v-62h-299z" />
    <glyph glyph-name="Eogonek" unicode="&#x118;" horiz-adv-x="617" 
d="M360 334h-136v-273c12 -15 27 -23 51 -25h182l103 169h28l-52 -205h-69c-70 -57 -88 -95 -88 -128c0 -35 19 -59 53 -59c33 0 50 14 83 48l16 -12c-27 -46 -63 -103 -135 -103c-57 0 -95 36 -95 86c0 58 55 109 133 168h-397v24l79 19v591l-79 22v24h435l75 4v-184h-28
l-54 145h-241v-275h136l33 97h25v-224h-28z" />
    <glyph glyph-name="Gbreve" unicode="&#x11e;" horiz-adv-x="752" 
d="M433 738c-95 0 -134 71 -131 139h19c14 -43 49 -77 118 -77c65 0 100 34 114 77h18c4 -68 -43 -139 -138 -139zM417 -25c-251 0 -365 172 -365 347c0 202 190 375 408 375c87 0 153 -22 208 -54l1 -170h-25l-60 140c-42 30 -84 45 -137 45c-162 0 -268 -128 -268 -318
c0 -226 134 -323 274 -323c55 0 92 12 116 22v203l-115 16v29h269v-26l-47 -12v-200l-33 -16c-41 -23 -126 -58 -226 -58z" />
    <glyph glyph-name="Gcircumflex" unicode="&#x11c;" horiz-adv-x="752" 
d="M417 -25c-251 0 -365 172 -365 347c0 202 190 375 408 375c87 0 153 -22 208 -54l1 -170h-25l-60 140c-42 30 -84 45 -137 45c-162 0 -268 -128 -268 -318c0 -226 134 -323 274 -323c55 0 92 12 116 22v203l-115 16v29h269v-26l-47 -12v-200l-33 -16
c-41 -23 -126 -58 -226 -58zM317 742h-43l121 135h84l113 -135h-46l-112 83z" />
    <glyph glyph-name="Gcommaaccent" unicode="&#x122;" horiz-adv-x="752" 
d="M332 -264l-7 20c70 22 95 47 95 75c0 30 -26 46 -60 49v2c6 37 32 57 67 57c46 0 72 -32 72 -74c0 -65 -57 -106 -167 -129zM417 -25c-251 0 -365 172 -365 347c0 202 190 375 408 375c87 0 153 -22 208 -54l1 -170h-25l-60 140c-42 30 -84 45 -137 45
c-162 0 -268 -128 -268 -318c0 -226 134 -323 274 -323c55 0 92 12 116 22v203l-115 16v29h269v-26l-47 -12v-200l-33 -16c-41 -23 -126 -58 -226 -58z" />
    <glyph glyph-name="Gdotaccent" unicode="&#x120;" horiz-adv-x="752" 
d="M435 760c-36 0 -65 29 -65 66c0 36 29 66 65 66s67 -30 67 -66c0 -37 -31 -66 -67 -66zM417 -25c-251 0 -365 172 -365 347c0 202 190 375 408 375c87 0 153 -22 208 -54l1 -170h-25l-60 140c-42 30 -84 45 -137 45c-162 0 -268 -128 -268 -318c0 -226 134 -323 274 -323
c55 0 92 12 116 22v203l-115 16v29h269v-26l-47 -12v-200l-33 -16c-41 -23 -126 -58 -226 -58z" />
    <glyph glyph-name="Hbar" unicode="&#x126;" horiz-adv-x="781" 
d="M473 0v24l84 19v293h-333v-293l84 -19v-24h-271v24l79 19v458h-99v34h99v100l-79 21v24h271v-24l-84 -21v-100h333v100l-84 21v24h270v-24l-78 -21v-100h99v-34h-99v-458l78 -19v-24h-270zM224 501v-131h333v131h-333z" />
    <glyph glyph-name="Hcircumflex" unicode="&#x124;" horiz-adv-x="781" 
d="M473 0v24l84 19v293h-333v-293l84 -19v-24h-271v24l79 19v592l-79 21v24h271v-24l-84 -21v-265h333v265l-84 21v24h270v-24l-78 -21v-592l78 -19v-24h-270zM272 742h-43l121 135h84l113 -135h-46l-112 83z" />
    <glyph glyph-name="Idotaccent" unicode="&#x130;" horiz-adv-x="339" 
d="M37 0v25l79 18v592l-79 21v24h266v-24l-79 -21v-592l79 -19v-24h-266zM170 760c-36 0 -66 29 -66 66c0 36 30 66 66 66s67 -30 67 -66c0 -37 -31 -66 -67 -66z" />
    <glyph glyph-name="Ibreve" unicode="&#x12c;" horiz-adv-x="339" 
d="M37 0v25l79 18v592l-79 21v24h266v-24l-79 -21v-592l79 -19v-24h-266zM167 738c-95 0 -134 71 -131 139h18c14 -43 50 -77 119 -77c65 0 100 34 114 77h18c4 -68 -43 -139 -138 -139z" />
    <glyph glyph-name="Imacron" unicode="&#x12a;" horiz-adv-x="339" 
d="M37 0v25l79 18v592l-79 21v24h266v-24l-79 -21v-592l79 -19v-24h-266zM35 788v62h271v-62h-271z" />
    <glyph glyph-name="Iogonek" unicode="&#x12e;" horiz-adv-x="339" 
d="M37 0v25l79 18v592l-79 21v24h266v-24l-79 -21v-592l79 -19v-24h-124c-26 -48 -48 -90 -48 -128c0 -35 19 -59 52 -59c34 0 51 14 84 48l17 -12c-28 -46 -65 -103 -136 -103c-58 0 -95 36 -95 86c0 47 30 86 100 168h-116z" />
    <glyph glyph-name="Itilde" unicode="&#x128;" horiz-adv-x="339" 
d="M37 0v25l79 18v592l-79 21v24h266v-24l-79 -21v-592l79 -19v-24h-266zM189 765l-36 15c-80 33 -96 26 -120 -28l-22 10l5 12c38 91 85 113 155 84l45 -18c63 -27 84 -13 110 40l21 -11l-5 -12c-41 -98 -82 -122 -153 -92z" />
    <glyph glyph-name="Jcircumflex" unicode="&#x134;" horiz-adv-x="349" 
d="M233 635v-579c0 -151 -45 -255 -228 -284l-6 23c106 40 127 117 127 235v605l-89 21v24h275v-24zM62 742h-43l121 135h84l113 -135h-46l-112 83z" />
    <glyph glyph-name="Kcommaaccent" unicode="&#x136;" horiz-adv-x="683" 
d="M37 0v24l79 19v592l-79 21v24h271v-24l-84 -21v-592l84 -19v-24h-271zM513 0l-275 344v4l276 287l-93 21v24h221v-24l-77 -21l-238 -239l291 -357l64 -15v-24h-169zM276 -264l-7 20c70 22 96 47 96 75c0 30 -26 46 -60 49v2c6 37 32 57 67 57c46 0 71 -32 71 -74
c0 -65 -57 -106 -167 -129z" />
    <glyph glyph-name="Lacute" unicode="&#x139;" horiz-adv-x="604" 
d="M236 886h97v-9l-142 -135h-39zM224 61c12 -15 27 -23 52 -24h181l102 200h30l-49 -237h-503v25l79 18v591l-79 22v24h280v-24l-93 -21v-574z" />
    <glyph glyph-name="Lcaron" unicode="&#x13d;" horiz-adv-x="604" 
d="M445 541h-21l11 202h92v-5zM224 61c12 -15 27 -23 52 -24h181l102 200h30l-49 -237h-503v25l79 18v591l-79 22v24h280v-24l-93 -21v-574z" />
    <glyph glyph-name="Lcommaaccent" unicode="&#x13b;" horiz-adv-x="604" 
d="M215 -264l-7 20c70 22 95 47 95 75c0 30 -25 46 -59 49v2c6 37 31 57 66 57c46 0 72 -32 72 -74c0 -65 -57 -106 -167 -129zM224 61c12 -15 27 -23 52 -24h181l102 200h30l-49 -237h-503v25l79 18v591l-79 22v24h280v-24l-93 -21v-574z" />
    <glyph glyph-name="Ldot" unicode="&#x13f;" horiz-adv-x="611" 
d="M509 307c-34 0 -64 30 -64 65c0 34 30 63 64 63c35 0 64 -29 64 -63c0 -35 -29 -65 -64 -65zM224 61c12 -15 27 -23 52 -24h181l96 177h31l-44 -214h-503v25l79 18v591l-79 22v24h280v-24l-93 -21v-574z" />
    <glyph glyph-name="Nacute" unicode="&#x143;" horiz-adv-x="740" 
d="M637 -10l-29 -1l-449 579l1 -520l91 -23v-25h-209v25l75 21v564c-17 19 -45 34 -69 41l-17 6v23h177l385 -499l-1 452l-90 22v25h208v-25l-75 -21v-518zM444 886h98v-9l-142 -135h-40z" />
    <glyph glyph-name="Ncaron" unicode="&#x147;" horiz-adv-x="740" 
d="M637 -10l-29 -1l-449 579l1 -520l91 -23v-25h-209v25l75 21v564c-17 19 -45 34 -69 41l-17 6v23h177l385 -499l-1 452l-90 22v25h208v-25l-75 -21v-518zM506 877h44l-122 -135h-84l-112 135h46l110 -84z" />
    <glyph glyph-name="Ncommaaccent" unicode="&#x145;" horiz-adv-x="740" 
d="M637 -10l-29 -1l-449 579l1 -520l91 -23v-25h-209v25l75 21v564c-17 19 -45 34 -69 41l-17 6v23h177l385 -499l-1 452l-90 22v25h208v-25l-75 -21v-518zM294 -264l-7 20c70 22 95 47 95 75c0 30 -25 46 -59 49v2c6 37 31 57 66 57c46 0 72 -32 72 -74
c0 -65 -57 -106 -167 -129z" />
    <glyph glyph-name="Obreve" unicode="&#x14e;" horiz-adv-x="799" 
d="M395 738c-95 0 -134 71 -131 139h19c14 -43 49 -77 118 -77c65 0 100 34 114 77h19c4 -68 -44 -139 -139 -139zM415 7c154 0 219 155 219 311c0 176 -106 348 -249 348c-153 0 -221 -148 -221 -306c0 -157 87 -353 251 -353zM398 697c225 0 353 -175 353 -343
c0 -241 -168 -379 -352 -379c-186 0 -351 142 -351 361c0 221 167 361 350 361z" />
    <glyph glyph-name="Ohungarumlaut" unicode="&#x150;" horiz-adv-x="799" 
d="M348 886h82v-9l-112 -135h-36zM529 886h81v-9l-110 -135h-38zM415 7c154 0 219 155 219 311c0 176 -106 348 -249 348c-153 0 -221 -148 -221 -306c0 -157 87 -353 251 -353zM398 697c225 0 353 -175 353 -343c0 -241 -168 -379 -352 -379c-186 0 -351 142 -351 361
c0 221 167 361 350 361z" />
    <glyph glyph-name="Omacron" unicode="&#x14c;" horiz-adv-x="799" 
d="M250 788v62h299v-62h-299zM415 7c154 0 219 155 219 311c0 176 -106 348 -249 348c-153 0 -221 -148 -221 -306c0 -157 87 -353 251 -353zM398 697c225 0 353 -175 353 -343c0 -241 -168 -379 -352 -379c-186 0 -351 142 -351 361c0 221 167 361 350 361z" />
    <glyph glyph-name="Oslashacute" unicode="&#x1fe;" horiz-adv-x="799" 
d="M76 -36l83 107c-68 62 -111 154 -111 265c0 221 167 361 350 361c80 0 148 -22 202 -59l64 81h44l-80 -103c80 -67 123 -167 123 -262c0 -241 -168 -379 -352 -379c-79 0 -155 26 -215 73l-64 -84h-44zM415 7c154 0 219 155 219 311c0 85 -23 167 -61 229l-340 -436
c41 -61 102 -104 182 -104zM164 360c0 -74 16 -153 50 -218l339 435c-43 54 -100 89 -168 89c-153 0 -221 -148 -221 -306zM453 886h97v-9l-141 -135h-40z" />
    <glyph glyph-name="Racute" unicode="&#x154;" horiz-adv-x="669" 
d="M37 0v24l79 19v593l-79 20v24l234 3c200 2 292 -65 292 -167c0 -88 -64 -141 -156 -170v-2l197 -301l69 -19v-24h-168l-162 251c-24 37 -40 62 -40 62h-79v-270l79 -19v-24h-266zM224 657v-310h84c86 9 146 68 146 147c0 98 -88 166 -230 163zM376 886h97v-9l-141 -135
h-40z" />
    <glyph glyph-name="Rcaron" unicode="&#x158;" horiz-adv-x="669" 
d="M37 0v24l79 19v593l-79 20v24l234 3c200 2 292 -65 292 -167c0 -88 -64 -141 -156 -170v-2l197 -301l69 -19v-24h-168l-162 251c-24 37 -40 62 -40 62h-79v-270l79 -19v-24h-266zM224 657v-310h84c86 9 146 68 146 147c0 98 -88 166 -230 163zM438 877h44l-122 -135h-84
l-111 135h45l111 -84z" />
    <glyph glyph-name="Rcommaaccent" unicode="&#x156;" horiz-adv-x="669" 
d="M37 0v24l79 19v593l-79 20v24l234 3c200 2 292 -65 292 -167c0 -88 -64 -141 -156 -170v-2l197 -301l69 -19v-24h-168l-162 251c-24 37 -40 62 -40 62h-79v-270l79 -19v-24h-266zM224 657v-310h84c86 9 146 68 146 147c0 98 -88 166 -230 163zM265 -264l-7 20
c70 22 95 47 95 75c0 30 -25 46 -59 49v2c6 37 31 57 66 57c46 0 72 -32 72 -74c0 -65 -57 -106 -167 -129z" />
    <glyph glyph-name="Sacute" unicode="&#x15a;" horiz-adv-x="533" 
d="M57 34l-9 175h26l62 -156c25 -19 65 -39 122 -39c83 0 139 53 139 133c0 54 -23 99 -123 146l-50 23c-117 55 -158 100 -158 190c0 110 99 194 235 194c69 0 129 -30 158 -47l6 -156h-25l-58 134c-24 20 -50 37 -92 37c-78 0 -124 -53 -124 -115c0 -68 30 -96 119 -139
l49 -24c137 -65 169 -117 169 -193c0 -131 -132 -216 -255 -216c-86 0 -149 30 -191 53zM332 886h97v-9l-141 -135h-40z" />
    <glyph glyph-name="Scedilla" unicode="&#x15e;" horiz-adv-x="533" 
d="M168 -259l-6 17c63 24 92 49 92 85c0 33 -22 52 -55 61l47 77c-85 1 -148 30 -189 53l-9 175h26l62 -156c25 -19 65 -39 122 -39c83 0 139 53 139 133c0 54 -23 99 -123 146l-50 23c-117 55 -158 100 -158 190c0 110 99 194 235 194c69 0 129 -30 158 -47l6 -156h-25
l-58 134c-24 20 -50 37 -92 37c-78 0 -124 -53 -124 -115c0 -68 30 -96 119 -139l49 -24c137 -65 169 -117 169 -193c0 -121 -112 -203 -225 -214l-22 -34c53 -12 79 -40 79 -80c0 -78 -93 -114 -167 -128z" />
    <glyph glyph-name="Scircumflex" unicode="&#x15c;" horiz-adv-x="533" 
d="M57 34l-9 175h26l62 -156c25 -19 65 -39 122 -39c83 0 139 53 139 133c0 54 -23 99 -123 146l-50 23c-117 55 -158 100 -158 190c0 110 99 194 235 194c69 0 129 -30 158 -47l6 -156h-25l-58 134c-24 20 -50 37 -92 37c-78 0 -124 -53 -124 -115c0 -68 30 -96 119 -139
l49 -24c137 -65 169 -117 169 -193c0 -131 -132 -216 -255 -216c-86 0 -149 30 -191 53zM170 742h-43l121 135h84l112 -135h-46l-111 83z" />
    <glyph glyph-name="Scommaaccent" unicode="&#x218;" horiz-adv-x="533" 
d="M57 34l-9 175h26l62 -156c25 -19 65 -39 122 -39c83 0 139 53 139 133c0 54 -23 99 -123 146l-50 23c-117 55 -158 100 -158 190c0 110 99 194 235 194c69 0 129 -30 158 -47l6 -156h-25l-58 134c-24 20 -50 37 -92 37c-78 0 -124 -53 -124 -115c0 -68 30 -96 119 -139
l49 -24c137 -65 169 -117 169 -193c0 -131 -132 -216 -255 -216c-86 0 -149 30 -191 53zM160 -264l-7 20c70 22 95 47 95 75c0 30 -26 46 -60 49v2c6 37 32 57 67 57c46 0 72 -32 72 -74c0 -65 -57 -106 -167 -129z" />
    <glyph glyph-name="Tcaron" unicode="&#x164;" horiz-adv-x="641" 
d="M97 680h447l65 7l2 -193h-26l-56 150h-154v-601l93 -19v-24h-297v24l95 19v601h-154l-56 -150h-26l2 193zM431 877h44l-122 -135h-84l-111 135h45l110 -84z" />
    <glyph glyph-name="Tcommaaccent" unicode="&#x162;" horiz-adv-x="641" 
d="M97 680h447l65 7l2 -193h-26l-56 150h-154v-601l93 -19v-24h-297v24l95 19v601h-154l-56 -150h-26l2 193zM219 -264l-7 20c70 22 95 47 95 75c0 30 -25 46 -59 49v2c6 37 31 57 66 57c46 0 72 -32 72 -74c0 -65 -57 -106 -167 -129z" />
    <glyph glyph-name="uni021A" unicode="&#x21a;" horiz-adv-x="641" 
d="M97 680h447l65 7l2 -193h-26l-56 150h-154v-601l93 -19v-24h-297v24l95 19v601h-154l-56 -150h-26l2 193zM219 -264l-7 20c70 22 95 47 95 75c0 30 -25 46 -59 49v2c6 37 31 57 66 57c46 0 72 -32 72 -74c0 -65 -57 -106 -167 -129z" />
    <glyph glyph-name="Tbar" unicode="&#x166;" horiz-adv-x="641" 
d="M89 352v33h177v258h-154l-56 -149h-26l2 193l65 -7h447l65 7l2 -193h-26l-56 149h-154v-258h176v-33h-176v-309l93 -19v-24h-297v24l95 19v309h-177z" />
    <glyph glyph-name="Ubreve" unicode="&#x16c;" horiz-adv-x="752" 
d="M374 -24c-197 0 -269 115 -269 284v374l-79 22v24h279v-24l-88 -22v-354c0 -138 41 -249 180 -249c135 0 195 83 202 222l-1 372l-118 31v24h247v-24l-80 -25v-366c0 -195 -118 -289 -273 -289zM383 738c-95 0 -134 71 -131 139h18c14 -43 50 -77 119 -77
c65 0 100 34 114 77h18c4 -68 -43 -139 -138 -139z" />
    <glyph glyph-name="Uhungarumlaut" unicode="&#x170;" horiz-adv-x="752" 
d="M336 886h82v-9l-112 -135h-37zM517 886h81v-9l-111 -135h-37zM374 -24c-197 0 -269 115 -269 284v374l-79 22v24h279v-24l-88 -22v-354c0 -138 41 -249 180 -249c135 0 195 83 202 222l-1 372l-118 31v24h247v-24l-80 -25v-366c0 -195 -118 -289 -273 -289z" />
    <glyph glyph-name="Umacron" unicode="&#x16a;" horiz-adv-x="752" 
d="M374 -24c-197 0 -269 115 -269 284v374l-79 22v24h279v-24l-88 -22v-354c0 -138 41 -249 180 -249c135 0 195 83 202 222l-1 372l-118 31v24h247v-24l-80 -25v-366c0 -195 -118 -289 -273 -289zM239 788v62h299v-62h-299z" />
    <glyph glyph-name="Uogonek" unicode="&#x172;" horiz-adv-x="752" 
d="M374 -24c-197 0 -269 115 -269 284v374l-79 22v24h279v-24l-88 -22v-354c0 -138 41 -249 180 -249c135 0 195 83 202 222l-1 372l-118 31v24h247v-24l-80 -25v-366c0 -170 -90 -261 -215 -283c-52 -47 -67 -81 -67 -110c0 -35 19 -59 53 -59c33 0 50 14 83 48l16 -12
c-27 -46 -63 -103 -135 -103c-57 0 -95 36 -95 86s41 95 103 144h-16z" />
    <glyph glyph-name="Uring" unicode="&#x16e;" horiz-adv-x="752" 
d="M374 -24c-197 0 -269 115 -269 284v374l-79 22v24h279v-24l-88 -22v-354c0 -138 41 -249 180 -249c135 0 195 83 202 222l-1 372l-118 31v24h247v-24l-80 -25v-366c0 -195 -118 -289 -273 -289zM290 833c0 56 45 100 102 100c58 0 103 -43 103 -100
c0 -56 -46 -101 -103 -101c-58 0 -102 44 -102 101zM327 833c0 -40 29 -68 65 -68s66 28 66 68s-30 67 -66 67s-65 -27 -65 -67z" />
    <glyph glyph-name="Utilde" unicode="&#x168;" horiz-adv-x="752" 
d="M374 -24c-197 0 -269 115 -269 284v374l-79 22v24h279v-24l-88 -22v-354c0 -138 41 -249 180 -249c135 0 195 83 202 222l-1 372l-118 31v24h247v-24l-80 -25v-366c0 -195 -118 -289 -273 -289zM409 765l-37 15c-80 33 -96 26 -120 -28l-22 10l6 12c38 91 84 113 154 84
l45 -18c63 -27 84 -13 110 40l21 -11l-5 -12c-41 -98 -81 -122 -152 -92z" />
    <glyph glyph-name="Wacute" unicode="&#x1e82;" horiz-adv-x="907" 
d="M599 -7l-141 437l-158 -437h-58l-197 643l-50 19v25h243v-24l-80 -20l151 -507l128 364l-46 143l-68 20v24h259v-26l-79 -18l160 -498l146 489l-108 27v26h211v-24l-53 -24l-201 -639h-59zM510 886h97v-9l-141 -135h-40z" />
    <glyph glyph-name="Wcircumflex" unicode="&#x174;" horiz-adv-x="907" 
d="M599 -7l-141 437l-158 -437h-58l-197 643l-50 19v25h243v-24l-80 -20l151 -507l128 364l-46 143l-68 20v24h259v-26l-79 -18l160 -498l146 489l-108 27v26h211v-24l-53 -24l-201 -639h-59zM340 742h-43l121 135h84l112 -135h-46l-111 83z" />
    <glyph glyph-name="Wdieresis" unicode="&#x1e84;" horiz-adv-x="907" 
d="M599 -7l-141 437l-158 -437h-58l-197 643l-50 19v25h243v-24l-80 -20l151 -507l128 364l-46 143l-68 20v24h259v-26l-79 -18l160 -498l146 489l-108 27v26h211v-24l-53 -24l-201 -639h-59zM566 766c-33 0 -60 26 -60 59s27 61 60 61s61 -28 61 -61s-28 -59 -61 -59z
M348 766c-33 0 -59 26 -59 59s26 61 59 61s61 -28 61 -61s-28 -59 -61 -59z" />
    <glyph glyph-name="Wgrave" unicode="&#x1e80;" horiz-adv-x="907" 
d="M599 -7l-141 437l-158 -437h-58l-197 643l-50 19v25h243v-24l-80 -20l151 -507l128 364l-46 143l-68 20v24h259v-26l-79 -18l160 -498l146 489l-108 27v26h211v-24l-53 -24l-201 -639h-59zM303 886h93l85 -144h-40l-138 135v9z" />
    <glyph glyph-name="Ycircumflex" unicode="&#x176;" horiz-adv-x="629" 
d="M570 635l-201 -330v-262l81 -18v-25h-272v25l82 18v239l-205 359l-53 15v24h260v-24l-82 -20l162 -302l176 297l-98 25v24h208v-24zM225 742h-43l121 135h84l113 -135h-46l-112 83z" />
    <glyph glyph-name="Ygrave" unicode="&#x1ef2;" horiz-adv-x="629" 
d="M570 635l-201 -330v-262l81 -18v-25h-272v25l82 18v239l-205 359l-53 15v24h260v-24l-82 -20l162 -302l176 297l-98 25v24h208v-24zM188 886h94l85 -144h-40l-139 135v9z" />
    <glyph glyph-name="Zacute" unicode="&#x179;" horiz-adv-x="647" 
d="M31 0v20l409 623h-305l-62 -156h-27l5 199l79 -6h451v-4l-419 -637h342l97 184h31l-44 -223h-557zM378 886h97v-9l-141 -135h-40z" />
    <glyph glyph-name="Zdotaccent" unicode="&#x17b;" horiz-adv-x="647" 
d="M31 0v20l409 623h-305l-62 -156h-27l5 199l79 -6h451v-4l-419 -637h342l97 184h31l-44 -223h-557zM325 760c-36 0 -66 29 -66 66c0 36 30 66 66 66s66 -30 66 -66c0 -37 -30 -66 -66 -66z" />
    <glyph glyph-name="abreve" unicode="&#x103;" horiz-adv-x="481" 
d="M160 -15c-59 0 -124 37 -124 120c0 82 59 120 167 148l101 26v58c0 77 -39 124 -94 124c-29 0 -53 -10 -66 -21l-5 -104c-11 -3 -26 -5 -42 -5c-30 0 -50 16 -50 43c0 50 92 124 205 124c105 0 148 -50 148 -149v-281c0 -23 6 -30 32 -30h51v-16s-60 -34 -100 -34
c-54 0 -75 32 -77 81h-4c-39 -45 -75 -84 -142 -84zM212 50c42 0 74 29 92 54v148l-100 -34c-50 -16 -70 -45 -70 -83c0 -44 25 -85 78 -85zM234 582c-74 0 -121 56 -121 169h22c18 -77 59 -103 107 -103c44 0 86 32 100 103h22c-3 -112 -52 -169 -130 -169z" />
    <glyph glyph-name="amacron" unicode="&#x101;" horiz-adv-x="481" 
d="M160 -15c-59 0 -124 37 -124 120c0 82 59 120 167 148l101 26v58c0 77 -39 124 -94 124c-29 0 -53 -10 -66 -21l-5 -104c-11 -3 -26 -5 -42 -5c-30 0 -50 16 -50 43c0 50 92 124 205 124c105 0 148 -50 148 -149v-281c0 -23 6 -30 32 -30h51v-16s-60 -34 -100 -34
c-54 0 -75 32 -77 81h-4c-39 -45 -75 -84 -142 -84zM212 50c42 0 74 29 92 54v148l-100 -34c-50 -16 -70 -45 -70 -83c0 -44 25 -85 78 -85zM88 641v60h299v-60h-299z" />
    <glyph glyph-name="aogonek" unicode="&#x105;" horiz-adv-x="481" 
d="M385 -15v3c-56 0 -77 32 -78 81h-5c-39 -45 -75 -84 -142 -84c-59 0 -124 37 -124 120c0 82 58 120 167 148l101 26v58c0 77 -39 124 -94 124c-29 0 -53 -10 -66 -21l-5 -104c-11 -3 -26 -5 -42 -5c-30 0 -50 16 -50 43c0 50 92 124 205 124c105 0 148 -50 148 -149v-281
c0 -23 6 -30 32 -30h51v-16c-129 -74 -161 -110 -161 -155c0 -28 20 -54 53 -54c34 0 51 14 84 48l15 -12c-27 -46 -63 -103 -135 -103c-57 0 -94 36 -94 85c0 59 49 102 140 154zM212 50c42 0 74 29 92 54v148l-100 -34c-50 -16 -70 -45 -70 -83c0 -44 25 -85 78 -85z" />
    <glyph glyph-name="aringacute" unicode="&#x1fb;" horiz-adv-x="481" 
d="M160 -15c-59 0 -124 37 -124 120c0 82 59 120 167 148l101 26v58c0 77 -39 124 -94 124c-29 0 -53 -10 -66 -21l-5 -104c-11 -3 -26 -5 -42 -5c-30 0 -50 16 -50 43c0 50 92 124 205 124c105 0 148 -50 148 -149v-281c0 -23 6 -30 32 -30h51v-16s-60 -34 -100 -34
c-54 0 -75 32 -77 81h-4c-39 -45 -75 -84 -142 -84zM135 642c0 56 46 99 103 99c58 0 102 -42 102 -99c0 -56 -45 -100 -102 -100c-58 0 -103 42 -103 100zM212 50c42 0 74 29 92 54v148l-100 -34c-50 -16 -70 -45 -70 -83c0 -44 25 -85 78 -85zM172 642
c0 -40 30 -69 66 -69s65 29 65 69s-29 68 -65 68s-66 -28 -66 -68zM304 921h97v-10l-141 -134h-40z" />
    <glyph glyph-name="aeacute" unicode="&#x1fd;" horiz-adv-x="747" 
d="M158 -16c-65 0 -122 39 -122 120c0 85 81 117 204 147l64 15v93c-9 60 -38 100 -92 100c-29 0 -57 -13 -68 -22l2 -95c-2 -1 -27 -11 -46 -11c-31 0 -49 18 -49 46c0 57 100 121 194 121c69 0 112 -29 134 -80c25 44 76 80 144 80c112 0 169 -75 184 -179l-308 -64v-52
c6 -87 66 -137 156 -137c81 0 134 68 137 70l16 -10c-5 -6 -57 -142 -205 -142c-72 0 -140 39 -175 107c-62 -66 -98 -107 -170 -107zM399 335v-51l195 45c-4 78 -39 130 -98 130c-58 0 -90 -43 -97 -124zM304 195v43l-61 -20c-89 -28 -106 -54 -106 -92
c0 -48 31 -75 79 -75c56 0 88 54 90 113c-1 9 -2 20 -2 31zM421 775h85v-8l-111 -200h-29z" />
    <glyph glyph-name="cacute" unicode="&#x107;" horiz-adv-x="480" 
d="M307 775h85v-8l-110 -200h-30zM255 -14c-117 0 -220 85 -220 251c0 157 127 263 250 263c85 0 168 -48 168 -108c0 -33 -26 -54 -64 -54c-12 0 -21 2 -22 2l-30 95c-17 15 -38 30 -75 30c-79 0 -135 -72 -135 -181c0 -132 79 -219 172 -219c68 0 118 41 145 71l18 -12
c-17 -28 -78 -138 -207 -138z" />
    <glyph glyph-name="ccaron" unicode="&#x10d;" horiz-adv-x="480" 
d="M255 -14c-117 0 -220 85 -220 251c0 157 127 263 250 263c85 0 168 -48 168 -108c0 -33 -26 -54 -64 -54c-12 0 -21 2 -22 2l-30 95c-17 15 -38 30 -75 30c-79 0 -135 -72 -135 -181c0 -132 79 -219 172 -219c68 0 118 41 145 71l18 -12c-17 -28 -78 -138 -207 -138z
M367 775h35l-109 -208h-44l-110 208h38l95 -131z" />
    <glyph glyph-name="ccircumflex" unicode="&#x109;" horiz-adv-x="480" 
d="M255 -14c-117 0 -220 85 -220 251c0 157 127 263 250 263c85 0 168 -48 168 -108c0 -33 -26 -54 -64 -54c-12 0 -21 2 -22 2l-30 95c-17 15 -38 30 -75 30c-79 0 -135 -72 -135 -181c0 -132 79 -219 172 -219c68 0 118 41 145 71l18 -12c-17 -28 -78 -138 -207 -138z
M177 567h-36l110 208h44l109 -208h-37l-97 131z" />
    <glyph glyph-name="cdotaccent" unicode="&#x10b;" horiz-adv-x="480" 
d="M255 -14c-117 0 -220 85 -220 251c0 157 127 263 250 263c85 0 168 -48 168 -108c0 -33 -26 -54 -64 -54c-12 0 -21 2 -22 2l-30 95c-17 15 -38 30 -75 30c-79 0 -135 -72 -135 -181c0 -132 79 -219 172 -219c68 0 118 41 145 71l18 -12c-17 -28 -78 -138 -207 -138z
M270 622c-35 0 -65 29 -65 65c0 35 30 65 65 65c36 0 66 -30 66 -65c0 -36 -30 -65 -66 -65z" />
    <glyph glyph-name="dcaron" unicode="&#x10f;" horiz-adv-x="567" 
d="M307 705v15l172 44v-711l69 -18v-19l-152 -30l-10 68c-31 -32 -82 -70 -144 -70c-134 0 -207 113 -207 233c0 167 142 280 273 280c28 0 55 -8 75 -16v190zM290 47c38 0 69 18 93 37v315c-13 20 -46 58 -112 58c-74 0 -141 -57 -141 -198c0 -92 45 -212 160 -212z
M562 541h-21l11 202h92v-5z" />
    <glyph glyph-name="ebreve" unicode="&#x115;" horiz-adv-x="490" 
d="M251 -14c-142 0 -216 121 -216 245c0 148 111 269 233 269c104 0 172 -65 187 -199h-330c-1 -8 -1 -18 -1 -26c0 -131 70 -210 172 -210c68 0 122 44 149 71l17 -12c-35 -57 -94 -138 -211 -138zM240 463c-57 0 -100 -49 -112 -131h215c-11 83 -43 131 -103 131zM260 582
c-74 0 -122 56 -122 169h23c18 -77 58 -103 106 -103c44 0 87 32 101 103h21c-3 -112 -51 -169 -129 -169z" />
    <glyph glyph-name="ecaron" unicode="&#x11b;" horiz-adv-x="490" 
d="M251 -14c-142 0 -216 121 -216 245c0 148 111 269 233 269c104 0 172 -65 187 -199h-330c-1 -8 -1 -18 -1 -26c0 -131 70 -210 172 -210c68 0 122 44 149 71l17 -12c-35 -57 -94 -138 -211 -138zM240 463c-57 0 -100 -49 -112 -131h215c-11 83 -43 131 -103 131zM358 775
h36l-109 -208h-44l-110 208h38l95 -131z" />
    <glyph glyph-name="edotaccent" unicode="&#x117;" horiz-adv-x="490" 
d="M251 -14c-142 0 -216 121 -216 245c0 148 111 269 233 269c104 0 172 -65 187 -199h-330c-1 -8 -1 -18 -1 -26c0 -131 70 -210 172 -210c68 0 122 44 149 71l17 -12c-35 -57 -94 -138 -211 -138zM240 463c-57 0 -100 -49 -112 -131h215c-11 83 -43 131 -103 131zM262 622
c-35 0 -65 29 -65 65c0 35 30 65 65 65c36 0 66 -30 66 -65c0 -36 -30 -65 -66 -65z" />
    <glyph glyph-name="emacron" unicode="&#x113;" horiz-adv-x="490" 
d="M251 -14c-142 0 -216 121 -216 245c0 148 111 269 233 269c104 0 172 -65 187 -199h-330c-1 -8 -1 -18 -1 -26c0 -131 70 -210 172 -210c68 0 122 44 149 71l17 -12c-35 -57 -94 -138 -211 -138zM240 463c-57 0 -100 -49 -112 -131h215c-11 83 -43 131 -103 131zM112 641
v60h299v-60h-299z" />
    <glyph glyph-name="eogonek" unicode="&#x119;" horiz-adv-x="490" 
d="M251 -14c-142 0 -216 121 -216 245c0 148 111 269 233 269c104 0 172 -65 187 -199h-330c-1 -8 -1 -18 -1 -26c0 -131 70 -210 172 -210c68 0 122 44 149 71l17 -12c-15 -26 -35 -56 -65 -83c-38 -38 -137 -118 -137 -178c0 -25 16 -50 51 -50c31 0 49 13 83 48l17 -12
c-29 -46 -65 -103 -137 -103c-57 0 -94 36 -94 85c0 59 53 98 148 166v2c-23 -8 -48 -13 -77 -13zM240 463c-57 0 -100 -49 -112 -131h215c-11 83 -43 131 -103 131z" />
    <glyph glyph-name="gbreve" unicode="&#x11f;" horiz-adv-x="507" 
d="M498 429l-123 8v-3c28 -27 52 -60 52 -108c0 -102 -96 -171 -197 -171c-31 0 -61 6 -88 17c-13 -15 -22 -30 -22 -47c0 -20 17 -35 49 -37l196 -12c87 -6 131 -50 131 -108c0 -110 -139 -213 -299 -213c-106 0 -179 42 -179 124c0 46 43 89 95 116l11 5v4
c-36 2 -77 24 -77 74c0 37 33 71 73 104v2c-44 27 -75 73 -75 138c0 106 84 176 189 176c45 0 76 -12 119 -27l145 16v-58zM357 -14l-203 13c-20 -20 -42 -49 -42 -92c0 -63 49 -106 142 -106c119 0 165 71 165 120c0 34 -25 58 -62 65zM140 356c1 -105 41 -172 104 -172
c48 0 87 46 87 120c-1 113 -50 167 -106 167c-54 0 -85 -47 -85 -115zM237 582c-74 0 -122 56 -122 169h22c18 -77 59 -103 107 -103c44 0 86 32 100 103h22c-3 -112 -51 -169 -129 -169z" />
    <glyph glyph-name="gcircumflex" unicode="&#x11d;" horiz-adv-x="507" 
d="M498 429l-123 8v-3c28 -27 52 -60 52 -108c0 -102 -96 -171 -197 -171c-31 0 -61 6 -88 17c-13 -15 -22 -30 -22 -47c0 -20 17 -35 49 -37l196 -12c87 -6 131 -50 131 -108c0 -110 -139 -213 -299 -213c-106 0 -179 42 -179 124c0 46 43 89 95 116l11 5v4
c-36 2 -77 24 -77 74c0 37 33 71 73 104v2c-44 27 -75 73 -75 138c0 106 84 176 189 176c45 0 76 -12 119 -27l145 16v-58zM357 -14l-203 13c-20 -20 -42 -49 -42 -92c0 -63 49 -106 142 -106c119 0 165 71 165 120c0 34 -25 58 -62 65zM140 356c1 -105 41 -172 104 -172
c48 0 87 46 87 120c-1 113 -50 167 -106 167c-54 0 -85 -47 -85 -115zM146 567h-35l109 208h44l110 -208h-38l-96 131z" />
    <glyph glyph-name="gcommaaccent" unicode="&#x123;" horiz-adv-x="507" 
d="M498 429l-123 8v-3c28 -27 52 -60 52 -108c0 -102 -96 -171 -197 -171c-31 0 -61 6 -88 17c-13 -15 -22 -30 -22 -47c0 -20 17 -35 49 -37l196 -12c87 -6 131 -50 131 -108c0 -110 -139 -213 -299 -213c-106 0 -179 42 -179 124c0 46 43 89 95 116l11 5v4
c-36 2 -77 24 -77 74c0 37 33 71 73 104v2c-44 27 -75 73 -75 138c0 106 84 176 189 176c45 0 76 -12 119 -27l145 16v-58zM357 -14l-203 13c-20 -20 -42 -49 -42 -92c0 -63 49 -106 142 -106c119 0 165 71 165 120c0 34 -25 58 -62 65zM140 356c1 -105 41 -172 104 -172
c48 0 87 46 87 120c-1 113 -50 167 -106 167c-54 0 -85 -47 -85 -115zM334 820l6 -19c-69 -23 -94 -48 -94 -76c0 -30 25 -45 58 -48v-3c-7 -36 -30 -56 -65 -56c-46 0 -73 32 -73 74c0 65 57 105 168 128z" />
    <glyph glyph-name="gdotaccent" unicode="&#x121;" horiz-adv-x="507" 
d="M498 429l-123 8v-3c28 -27 52 -60 52 -108c0 -102 -96 -171 -197 -171c-31 0 -61 6 -88 17c-13 -15 -22 -30 -22 -47c0 -20 17 -35 49 -37l196 -12c87 -6 131 -50 131 -108c0 -110 -139 -213 -299 -213c-106 0 -179 42 -179 124c0 46 43 89 95 116l11 5v4
c-36 2 -77 24 -77 74c0 37 33 71 73 104v2c-44 27 -75 73 -75 138c0 106 84 176 189 176c45 0 76 -12 119 -27l145 16v-58zM357 -14l-203 13c-20 -20 -42 -49 -42 -92c0 -63 49 -106 142 -106c119 0 165 71 165 120c0 34 -25 58 -62 65zM140 356c1 -105 41 -172 104 -172
c48 0 87 46 87 120c-1 113 -50 167 -106 167c-54 0 -85 -47 -85 -115zM240 622c-35 0 -66 29 -66 65c0 35 31 65 66 65c36 0 65 -30 65 -65c0 -36 -29 -65 -65 -65z" />
    <glyph glyph-name="hbar" unicode="&#x127;" horiz-adv-x="573" 
d="M345 0v23l55 20v284c-3 59 -26 103 -94 103c-49 0 -100 -39 -118 -53v-334l65 -20v-23h-222v23l62 21v528h-71v34h71v66l-60 22v16l155 54v-158h196v-34h-196v-168c22 23 93 94 174 94c89 0 135 -42 135 -171v-284l64 -21v-22h-216z" />
    <glyph glyph-name="hcircumflex" unicode="&#x125;" horiz-adv-x="573" 
d="M339 0v23l61 20v284c-3 59 -26 103 -94 103c-49 0 -100 -39 -118 -53v-334l65 -20v-23h-222v23l62 20v617l-60 34v16l155 54v-360c22 23 93 94 174 94c89 0 135 -42 135 -171v-284l64 -21v-22h-222zM178 781h-43l121 134h84l113 -134h-46l-112 83z" />
    <glyph glyph-name="ibreve" unicode="&#x12d;" horiz-adv-x="266" 
d="M25 0v23l62 20v352l-60 35v14l156 54v-455l71 -20v-23h-229zM134 582c-74 0 -122 56 -122 169h23c18 -77 58 -103 106 -103c44 0 87 32 101 103h21c-3 -112 -51 -169 -129 -169z" />
    <glyph glyph-name="imacron" unicode="&#x12b;" horiz-adv-x="266" 
d="M25 0v23l62 20v352l-60 35v14l156 54v-455l71 -20v-23h-229zM11 641v60h244v-60h-244z" />
    <glyph glyph-name="iogonek" unicode="&#x12f;" horiz-adv-x="266" 
d="M25 0v23l62 20v352l-60 35v14l156 54v-455l71 -20v-23h-108c-26 -48 -48 -90 -48 -128c0 -35 20 -59 53 -59c34 0 50 14 83 48l16 -12c-27 -46 -63 -103 -135 -103c-57 0 -95 36 -95 86c0 47 30 86 100 168h-95zM129 622c-35 0 -67 30 -67 65c0 34 32 65 67 65
c33 0 65 -31 65 -65c0 -35 -32 -65 -65 -65z" />
    <glyph glyph-name="itilde" unicode="&#x129;" horiz-adv-x="266" 
d="M120 631l-10 5c-55 28 -81 30 -111 -30l-21 10l6 12c41 89 85 114 155 81l18 -9c51 -25 72 -15 100 40l22 -10l-6 -13c-34 -87 -79 -123 -153 -86zM25 0v23l62 20v352l-60 35v14l156 54v-455l71 -20v-23h-229z" />
    <glyph glyph-name="idotaccent" horiz-adv-x="266" 
d="M25 0v23l62 20v352l-60 35v14l156 54v-455l71 -20v-23h-229zM129 622c-35 0 -67 30 -67 65c0 34 32 65 67 65c33 0 65 -31 65 -65c0 -35 -32 -65 -65 -65z" />
    <glyph glyph-name="jcircumflex" unicode="&#x135;" horiz-adv-x="261" 
d="M-8 -254l-5 17c84 46 97 101 100 251v381l-59 35v14l154 54v-465c0 -83 -5 -146 -36 -188c-42 -54 -94 -80 -154 -99zM48 567h-36l100 208h45l99 -208h-37l-87 126z" />
    <glyph glyph-name="kcommaaccent" unicode="&#x137;" horiz-adv-x="522" 
d="M93 43v617l-60 34v16l155 54v-721l65 -20v-23h-222v23zM464 -12c-40 0 -72 15 -116 72l-152 197l191 174l-69 32v21h194v-18l-68 -28l-168 -148l246 -282s-24 -20 -58 -20zM191 -264l-7 20c70 22 96 47 96 75c0 30 -26 46 -60 49v2c6 37 32 57 67 57c46 0 71 -32 71 -74
c0 -65 -57 -106 -167 -129z" />
    <glyph glyph-name="kgreenlandic" unicode="&#x138;" horiz-adv-x="517" 
d="M25 0v23l62 20v352l-64 35v13l160 55v-455l65 -20v-23h-223zM458 -12c-39 0 -71 16 -115 72l-153 197l191 174l-68 32v21h193v-18l-67 -28l-168 -147l246 -283s-25 -20 -59 -20z" />
    <glyph glyph-name="lacute" unicode="&#x13a;" horiz-adv-x="277" 
d="M187 927h98v-9l-142 -135h-40zM28 0v23l65 20v617l-60 34v16l155 54v-721l72 -20v-23h-232z" />
    <glyph glyph-name="lcaron" unicode="&#x13e;" horiz-adv-x="277" 
d="M263 541h-21l11 202h92v-5zM28 0v23l65 20v617l-60 34v16l155 54v-721l72 -20v-23h-232z" />
    <glyph glyph-name="lcommaaccent" unicode="&#x13c;" horiz-adv-x="277" 
d="M37 -264l-7 20c70 22 95 47 95 75c0 30 -25 46 -59 49v2c6 37 31 57 66 57c46 0 72 -32 72 -74c0 -65 -57 -106 -167 -129zM28 0v23l65 20v617l-60 34v16l155 54v-721l72 -20v-23h-232z" />
    <glyph glyph-name="ldot" unicode="&#x140;" horiz-adv-x="320" 
d="M300 312c-34 0 -62 29 -62 64s28 63 62 63c36 0 65 -28 65 -63s-29 -64 -65 -64zM28 0v23l65 20v617l-60 34v16l155 54v-721l72 -20v-23h-232z" />
    <glyph glyph-name="nacute" unicode="&#x144;" horiz-adv-x="567" 
d="M25 0v23l62 20v352l-64 35v13l146 55h5l5 -95h2c20 22 94 95 176 95c88 0 135 -42 135 -171v-284l63 -21v-22h-221v23l61 20v284c-4 59 -27 103 -94 103c-50 0 -100 -38 -118 -53v-334l65 -20v-23h-223zM321 775h85v-8l-111 -200h-30z" />
    <glyph glyph-name="napostrophe" unicode="&#x149;" horiz-adv-x="567" 
d="M25 0v23l62 20v352l-64 35v13l146 55h5l5 -95h2c20 22 94 95 176 95c88 0 135 -42 135 -171v-284l63 -21v-22h-221v23l61 20v284c-4 59 -27 103 -94 103c-50 0 -100 -38 -118 -53v-334l65 -20v-23h-223zM-33 557l-7 21c70 22 95 46 95 74c0 30 -25 46 -59 49v2
c6 37 31 57 66 57c46 0 72 -32 72 -74c0 -65 -57 -106 -167 -129z" />
    <glyph glyph-name="ncaron" unicode="&#x148;" horiz-adv-x="567" 
d="M25 0v23l62 20v352l-64 35v13l146 55h5l5 -95h2c20 22 94 95 176 95c88 0 135 -42 135 -171v-284l63 -21v-22h-221v23l61 20v284c-4 59 -27 103 -94 103c-50 0 -100 -38 -118 -53v-334l65 -20v-23h-223zM385 775h36l-110 -208h-44l-109 208h38l95 -131z" />
    <glyph glyph-name="ncommaaccent" unicode="&#x146;" horiz-adv-x="567" 
d="M25 0v23l62 20v352l-64 35v13l146 55h5l5 -95h2c20 22 94 95 176 95c88 0 135 -42 135 -171v-284l63 -21v-22h-221v23l61 20v284c-4 59 -27 103 -94 103c-50 0 -100 -38 -118 -53v-334l65 -20v-23h-223zM191 -264l-7 20c70 22 96 47 96 75c0 30 -26 46 -60 49v2
c6 37 32 57 67 57c46 0 71 -32 71 -74c0 -65 -57 -106 -167 -129z" />
    <glyph glyph-name="obreve" unicode="&#x14f;" horiz-adv-x="562" 
d="M265 466c-90 0 -125 -92 -125 -192c0 -121 51 -256 157 -256c77 0 125 83 125 193c0 160 -69 255 -157 255zM282 -16c-158 0 -247 119 -247 246c0 147 111 270 247 270c147 0 245 -97 245 -245c0 -150 -108 -271 -245 -271zM278 582c-74 0 -122 56 -122 169h22
c18 -77 59 -103 107 -103c44 0 86 32 100 103h22c-3 -112 -51 -169 -129 -169z" />
    <glyph glyph-name="ohungarumlaut" unicode="&#x151;" horiz-adv-x="562" 
d="M244 775h78v-9l-100 -199h-27zM381 775h79v-9l-101 -199h-27zM265 466c-90 0 -125 -92 -125 -192c0 -121 51 -256 157 -256c77 0 125 83 125 193c0 160 -69 255 -157 255zM282 -16c-158 0 -247 119 -247 246c0 147 111 270 247 270c147 0 245 -97 245 -245
c0 -150 -108 -271 -245 -271z" />
    <glyph glyph-name="omacron" unicode="&#x14d;" horiz-adv-x="562" 
d="M132 641v60h299v-60h-299zM265 466c-90 0 -125 -92 -125 -192c0 -121 51 -256 157 -256c77 0 125 83 125 193c0 160 -69 255 -157 255zM282 -16c-158 0 -247 119 -247 246c0 147 111 270 247 270c147 0 245 -97 245 -245c0 -150 -108 -271 -245 -271z" />
    <glyph glyph-name="oslashacute" unicode="&#x1ff;" horiz-adv-x="562" 
d="M76 -51h-38l74 97c-50 46 -77 114 -77 184c0 147 111 270 247 270c56 0 105 -14 145 -41l61 81h38l-75 -100c48 -43 76 -106 76 -185c0 -150 -108 -271 -245 -271c-58 0 -108 16 -147 43zM265 466c-90 0 -127 -94 -125 -194c1 -58 10 -111 27 -154l213 279
c-28 46 -69 69 -115 69zM422 214c-1 63 -11 115 -27 154l-213 -280c26 -43 63 -70 115 -70c78 0 126 85 125 196zM318 775h85v-8l-110 -200h-30z" />
    <glyph glyph-name="racute" unicode="&#x155;" horiz-adv-x="372" 
d="M25 0v23l62 20v352l-64 35v13l146 55h5l3 -132h4l13 21c51 93 78 113 119 113c31 0 56 -19 56 -51c0 -29 -14 -47 -38 -62l-69 27c-20 -5 -59 -43 -79 -95v-276l79 -20v-23h-237zM234 775h85v-8l-110 -200h-30z" />
    <glyph glyph-name="rcaron" unicode="&#x159;" horiz-adv-x="372" 
d="M25 0v23l62 20v352l-64 35v13l146 55h5l3 -132h4l13 21c51 93 78 113 119 113c31 0 56 -19 56 -51c0 -29 -14 -47 -38 -62l-69 27c-20 -5 -59 -43 -79 -95v-276l79 -20v-23h-237zM294 775h36l-110 -208h-44l-109 208h37l96 -131z" />
    <glyph glyph-name="rcommaaccent" unicode="&#x157;" horiz-adv-x="372" 
d="M25 0v23l62 20v352l-64 35v13l146 55h5l3 -132h4l13 21c51 93 78 113 119 113c31 0 56 -19 56 -51c0 -29 -14 -47 -38 -62l-69 27c-20 -5 -59 -43 -79 -95v-276l79 -20v-23h-237zM36 -264l-7 20c70 22 95 47 95 75c0 30 -25 46 -59 49v2c6 37 31 57 66 57
c46 0 72 -32 72 -74c0 -65 -57 -106 -167 -129z" />
    <glyph glyph-name="sacute" unicode="&#x15b;" horiz-adv-x="419" 
d="M254 775h85v-8l-111 -200h-29zM180 -17c-55 0 -104 19 -135 35l-6 149h20l52 -121c17 -17 41 -31 76 -31c62 0 100 42 100 91c0 42 -21 65 -78 89l-69 28c-57 24 -95 58 -95 128c0 89 85 148 188 148c49 0 91 -15 124 -33l-1 -128h-19l-46 103c-16 12 -40 26 -70 26
c-53 0 -85 -38 -85 -80c0 -46 27 -68 81 -88l45 -18c86 -35 119 -73 119 -134c0 -98 -97 -164 -201 -164z" />
    <glyph glyph-name="scedilla" unicode="&#x15f;" horiz-adv-x="419" 
d="M100 -254l-6 17c63 24 92 49 92 85c0 33 -22 52 -55 61l45 74c-54 1 -101 19 -131 35l-6 149h20l52 -121c17 -17 41 -31 76 -31c62 0 100 42 100 91c0 42 -21 65 -78 89l-69 28c-57 24 -95 58 -95 128c0 89 85 148 188 148c49 0 91 -15 124 -33l-1 -128h-19l-46 103
c-16 12 -40 26 -70 26c-53 0 -85 -38 -85 -80c0 -46 28 -66 81 -88l45 -18c86 -35 119 -73 119 -134c0 -90 -80 -152 -174 -162l-19 -31c53 -12 79 -40 79 -80c0 -78 -93 -114 -167 -128z" />
    <glyph glyph-name="scircumflex" unicode="&#x15d;" horiz-adv-x="419" 
d="M180 -17c-55 0 -104 19 -135 35l-6 149h20l52 -121c17 -17 41 -31 76 -31c62 0 100 42 100 91c0 42 -21 65 -78 89l-69 28c-57 24 -95 58 -95 128c0 89 85 148 188 148c49 0 91 -15 124 -33l-1 -128h-19l-46 103c-16 12 -40 26 -70 26c-53 0 -85 -38 -85 -80
c0 -46 28 -66 81 -88l45 -18c86 -35 119 -73 119 -134c0 -98 -97 -164 -201 -164zM123 567h-36l110 208h44l109 -208h-38l-96 131z" />
    <glyph glyph-name="scommaaccent" unicode="&#x219;" horiz-adv-x="419" 
d="M102 -264l-7 20c70 22 95 47 95 75c0 30 -25 46 -59 49v2c6 37 32 57 67 57c46 0 71 -32 71 -74c0 -65 -57 -106 -167 -129zM180 -17c-55 0 -104 19 -135 35l-6 149h20l52 -121c17 -17 41 -31 76 -31c62 0 100 42 100 91c0 42 -21 65 -78 89l-69 28
c-57 24 -95 58 -95 128c0 89 85 148 188 148c49 0 91 -15 124 -33l-1 -128h-19l-46 103c-16 12 -40 26 -70 26c-53 0 -85 -38 -85 -80c0 -46 27 -68 81 -88l45 -18c86 -35 119 -73 119 -134c0 -98 -97 -164 -201 -164z" />
    <glyph glyph-name="tbar" unicode="&#x167;" horiz-adv-x="335" 
d="M15 289v41h69l1 104h-76v31l76 22l70 128h23v-131h141v-53h-141v-101h140v-41h-140v-180c7 -51 35 -66 79 -66c36 0 70 13 71 14l6 -19c-4 -2 -58 -49 -141 -49c-85 0 -112 46 -111 120l2 180h-69z" />
    <glyph glyph-name="tcaron" unicode="&#x165;" horiz-adv-x="335" 
d="M193 -11c-85 0 -112 46 -111 120l3 325h-76v31l76 22l70 128h23v-131h141v-53h-141v-322c7 -51 35 -66 79 -66c36 0 70 13 71 14l6 -19c-4 -2 -58 -49 -141 -49zM275 558h-21l11 203h92v-5z" />
    <glyph glyph-name="tcommaaccent" unicode="&#x163;" horiz-adv-x="335" 
d="M193 -11c-85 0 -112 46 -111 120l3 325h-76v31l76 22l70 128h23v-131h141v-53h-141v-322c7 -51 35 -66 79 -66c36 0 70 13 71 14l6 -19c-4 -2 -58 -49 -141 -49zM86 -264l-7 20c70 22 95 47 95 75c0 30 -25 46 -59 49v2c6 37 31 57 66 57c46 0 72 -32 72 -74
c0 -65 -57 -106 -167 -129z" />
    <glyph glyph-name="uni021B" unicode="&#x21b;" horiz-adv-x="335" 
d="M193 -11c-85 0 -112 46 -111 120l3 325h-76v31l76 22l70 128h23v-131h141v-53h-141v-322c7 -51 35 -66 79 -66c36 0 70 13 71 14l6 -19c-4 -2 -58 -49 -141 -49zM86 -264l-7 20c70 22 95 47 95 75c0 30 -25 46 -59 49v2c6 37 31 57 66 57c46 0 72 -32 72 -74
c0 -65 -57 -106 -167 -129z" />
    <glyph glyph-name="ubreve" unicode="&#x16d;" horiz-adv-x="569" 
d="M396 -15l-10 91c-25 -31 -85 -93 -163 -93c-95 0 -143 63 -143 162v279l-65 25v17l161 26v-326c0 -78 37 -114 98 -114c51 0 93 30 111 46v326l-75 22v19l170 27v-437l73 -25v-19zM279 582c-74 0 -122 56 -122 169h22c18 -77 59 -103 107 -103c44 0 86 32 100 103h22
c-3 -112 -51 -169 -129 -169z" />
    <glyph glyph-name="uhungarumlaut" unicode="&#x171;" horiz-adv-x="569" 
d="M396 -15l-10 91c-25 -31 -85 -93 -163 -93c-95 0 -143 63 -143 162v279l-65 25v17l161 26v-326c0 -78 37 -114 98 -114c51 0 93 30 111 46v326l-75 22v19l170 27v-437l73 -25v-19zM382 775h79v-9l-101 -199h-27zM245 775h78v-9l-100 -199h-27z" />
    <glyph glyph-name="umacron" unicode="&#x16b;" horiz-adv-x="569" 
d="M396 -15l-10 91c-25 -31 -85 -93 -163 -93c-95 0 -143 63 -143 162v279l-65 25v17l161 26v-326c0 -78 37 -114 98 -114c51 0 93 30 111 46v326l-75 22v19l170 27v-437l73 -25v-19zM132 641v60h299v-60h-299z" />
    <glyph glyph-name="uogonek" unicode="&#x173;" horiz-adv-x="569" 
d="M223 -17c-95 0 -143 63 -143 162v279l-65 25v17l161 26v-326c0 -78 37 -114 98 -114c51 0 93 30 111 46v326l-75 22v19l170 27v-437l73 -25v-19l-115 -19c-61 -53 -79 -89 -79 -120c0 -35 20 -59 54 -59c33 0 50 14 83 48l16 -12c-27 -46 -63 -103 -135 -103
c-57 0 -95 36 -95 86c0 53 45 100 114 154l-10 90c-25 -31 -85 -93 -163 -93z" />
    <glyph glyph-name="uring" unicode="&#x16f;" horiz-adv-x="569" 
d="M396 -15l-10 91c-25 -31 -85 -93 -163 -93c-95 0 -143 63 -143 162v279l-65 25v17l161 26v-326c0 -78 37 -114 98 -114c51 0 93 30 111 46v326l-75 22v19l170 27v-437l73 -25v-19zM179 690c0 56 46 100 103 100c58 0 102 -43 102 -100c0 -56 -45 -100 -102 -100
c-58 0 -103 42 -103 100zM216 690c0 -40 30 -68 66 -68s65 28 65 68s-29 68 -65 68s-66 -28 -66 -68z" />
    <glyph glyph-name="utilde" unicode="&#x169;" horiz-adv-x="569" 
d="M396 -15l-10 91c-25 -31 -85 -93 -163 -93c-95 0 -143 63 -143 162v279l-65 25v17l161 26v-326c0 -78 37 -114 98 -114c51 0 93 30 111 46v326l-75 22v19l170 27v-437l73 -25v-19zM300 617l-36 17c-80 37 -95 25 -120 -29l-20 10l5 13c38 90 85 112 155 83l45 -19
c65 -27 83 -12 108 41l22 -10l-5 -13c-37 -95 -84 -125 -154 -93z" />
    <glyph glyph-name="wacute" unicode="&#x1e83;" horiz-adv-x="736" 
d="M432 775h85v-8l-110 -200h-30zM412 492l124 -363c5 -15 10 -35 10 -35h2s4 20 8 36l91 304l-74 27v23h176v-24l-63 -21l-142 -455h-57l-114 329c-6 14 -12 37 -12 37h-1s-6 -23 -11 -37l-111 -329h-50l-143 456l-58 20v24h229v-24l-66 -20l87 -307c5 -16 8 -36 8 -36h2
s5 20 11 36l119 359h35z" />
    <glyph glyph-name="wcircumflex" unicode="&#x175;" horiz-adv-x="736" 
d="M412 492l124 -363c5 -15 10 -35 10 -35h2s4 20 8 36l91 304l-74 27v23h176v-24l-63 -21l-142 -455h-57l-114 329c-6 14 -12 37 -12 37h-1s-6 -23 -11 -37l-111 -329h-50l-143 456l-58 20v24h229v-24l-66 -20l87 -307c5 -16 8 -36 8 -36h2s5 20 11 36l119 359h35zM301 567
h-36l110 208h44l109 -208h-38l-96 131z" />
    <glyph glyph-name="wdieresis" unicode="&#x1e85;" horiz-adv-x="736" 
d="M298 628c-34 0 -60 26 -60 59s26 61 60 61c33 0 60 -28 60 -61s-27 -59 -60 -59zM489 628c-33 0 -60 26 -60 59s27 61 60 61s62 -28 62 -61s-29 -59 -62 -59zM412 492l124 -363c5 -15 10 -35 10 -35h2s4 20 8 36l91 304l-74 27v23h176v-24l-63 -21l-142 -455h-57
l-114 329c-6 14 -12 37 -12 37h-1s-6 -23 -11 -37l-111 -329h-50l-143 456l-58 20v24h229v-24l-66 -20l87 -307c5 -16 8 -36 8 -36h2s5 20 11 36l119 359h35z" />
    <glyph glyph-name="wgrave" unicode="&#x1e81;" horiz-adv-x="736" 
d="M412 492l124 -363c5 -15 10 -35 10 -35h2s4 20 8 36l91 304l-74 27v23h176v-24l-63 -21l-142 -455h-57l-114 329c-6 14 -12 37 -12 37h-1s-6 -23 -11 -37l-111 -329h-50l-143 456l-58 20v24h229v-24l-66 -20l87 -307c5 -16 8 -36 8 -36h2s5 20 11 36l119 359h35zM273 775
h85l56 -208h-30l-111 200v8z" />
    <glyph glyph-name="ycircumflex" unicode="&#x177;" horiz-adv-x="481" 
d="M395 437l-71 24v23h159v-24l-48 -20l-226 -610c-19 -51 -51 -86 -101 -86c-34 0 -61 26 -61 59s26 59 58 59c29 0 45 -18 61 -38l4 -5l54 146l-182 479l-44 16v24h203v-24l-51 -19l124 -342zM170 567h-36l110 208h44l109 -208h-38l-96 131z" />
    <glyph glyph-name="ygrave" unicode="&#x1ef3;" horiz-adv-x="481" 
d="M395 437l-71 24v23h159v-24l-48 -20l-226 -610c-19 -51 -51 -86 -101 -86c-34 0 -61 26 -61 59s26 59 58 59c29 0 45 -18 61 -38l4 -5l54 146l-182 479l-44 16v24h203v-24l-51 -19l124 -342zM141 775h85l56 -208h-30l-111 200v8z" />
    <glyph glyph-name="zacute" unicode="&#x17a;" horiz-adv-x="473" 
d="M337 0h-300v26l276 425h-185l-51 -123h-23v162l78 -6h311v-4l-292 -449h194l66 138h20l-14 -173zM279 775h85v-8l-111 -200h-30z" />
    <glyph glyph-name="zdotaccent" unicode="&#x17c;" horiz-adv-x="473" 
d="M337 0h-300v26l276 425h-185l-51 -123h-23v162l78 -6h311v-4l-292 -449h194l66 138h20l-14 -173zM243 622c-35 0 -66 29 -66 65c0 35 31 65 66 65c36 0 65 -30 65 -65c0 -36 -29 -65 -65 -65z" />
    <glyph glyph-name="oneeighth" unicode="&#x215b;" horiz-adv-x="773" 
d="M450 88c0 54 49 79 95 93c-58 30 -76 60 -76 102c0 51 54 104 137 104c82 0 131 -36 131 -84c0 -51 -44 -76 -88 -91l6 -2c68 -31 95 -64 95 -105c0 -77 -83 -115 -151 -115c-80 0 -149 33 -149 98zM173 689v-350l73 -13v-21h-227v21l77 13v293h-79v22l149 35h7zM104 -82
l-25 20l552 800l25 -17zM616 146l-53 26c-26 -19 -40 -43 -40 -75c0 -48 36 -87 82 -87c39 0 69 27 69 65c0 32 -24 56 -58 71zM538 308c0 -29 13 -49 58 -71l34 -16c23 18 37 41 37 76c0 41 -30 70 -67 70c-35 0 -62 -22 -62 -59z" />
    <glyph glyph-name="onethird" unicode="&#x2153;" horiz-adv-x="756" 
d="M581 12c45 0 77 34 77 75c0 54 -49 88 -137 88v25c81 10 122 48 122 84c0 33 -21 56 -62 56c-30 0 -66 -18 -96 -60l-18 11c27 54 73 96 144 96c69 0 107 -35 107 -80c0 -48 -39 -74 -97 -97v-4c75 -3 115 -39 115 -92c0 -75 -84 -122 -161 -122c-78 0 -121 30 -121 64
c0 22 16 36 44 38l41 -70c7 -6 23 -12 42 -12zM173 689v-350l73 -13v-21h-227v21l77 13v293h-79v22l149 35h7zM104 -82l-25 20l552 800l25 -17z" />
    <glyph glyph-name="threeeighths" unicode="&#x215c;" horiz-adv-x="771" 
d="M447 88c0 54 50 79 96 93c-58 30 -76 60 -76 102c0 51 54 104 137 104c82 0 131 -36 131 -84c0 -51 -44 -76 -88 -91l6 -2c68 -31 95 -64 95 -105c0 -77 -83 -115 -151 -115c-80 0 -150 33 -150 98zM131 318c45 0 78 33 78 75c0 53 -49 87 -137 87v26c81 9 122 47 122 84
c0 32 -22 55 -63 55c-30 0 -65 -18 -95 -59l-19 11c27 53 74 95 145 95c69 0 106 -35 106 -80c0 -48 -39 -73 -97 -96v-4c75 -4 116 -40 116 -93c0 -75 -84 -122 -161 -122c-78 0 -122 30 -122 65c0 20 16 36 44 37l41 -70c7 -5 23 -11 42 -11zM102 -82l-25 20l552 800
l25 -17zM614 146l-53 26c-26 -19 -40 -43 -40 -75c0 -48 36 -87 82 -87c39 0 69 27 69 65c0 32 -24 56 -58 71zM536 308c0 -29 13 -49 58 -71l34 -16c23 18 37 41 37 76c0 41 -30 70 -67 70c-35 0 -62 -22 -62 -59z" />
    <glyph glyph-name="fiveeighths" unicode="&#x215d;" horiz-adv-x="776" 
d="M453 88c0 54 49 79 95 93c-58 30 -76 60 -76 102c0 51 54 104 137 104c82 0 131 -36 131 -84c0 -51 -44 -76 -88 -91l6 -2c68 -31 95 -64 95 -105c0 -77 -83 -115 -151 -115c-80 0 -149 33 -149 98zM272 611h-203l-4 -87c25 10 57 20 90 20c86 0 139 -44 139 -110
c0 -92 -89 -137 -166 -137c-63 0 -121 23 -121 64c0 23 19 37 44 37l42 -72c8 -4 21 -9 40 -9c44 0 83 30 83 81c0 49 -37 82 -90 82c-37 0 -61 -11 -86 -22l-3 1l11 221h224v-69zM108 -82l-26 20l552 800l25 -17zM620 146l-54 26c-26 -19 -40 -43 -40 -75
c0 -48 36 -87 82 -87c39 0 69 27 69 65c0 32 -23 56 -57 71zM541 308c0 -29 13 -49 58 -71l34 -16c23 18 37 41 37 76c0 41 -30 70 -67 70c-35 0 -62 -22 -62 -59z" />
    <glyph glyph-name="twothirds" unicode="&#x2154;" horiz-adv-x="819" 
d="M187 430l-76 -58h202v-67h-284v25l81 72c75 68 112 107 112 161c0 46 -35 75 -78 75c-41 0 -63 -25 -93 -63l-18 12c30 61 77 105 146 105c71 0 121 -38 121 -103c0 -71 -48 -110 -113 -159zM643 12c45 0 78 34 78 75c0 54 -49 88 -137 88v25c81 10 122 48 122 84
c0 33 -22 56 -63 56c-30 0 -65 -18 -95 -60l-19 11c27 54 74 96 145 96c69 0 106 -35 106 -80c0 -48 -39 -74 -97 -97v-4c75 -3 116 -39 116 -92c0 -75 -84 -122 -161 -122c-78 0 -122 30 -122 64c0 22 16 36 44 38l41 -70c7 -6 23 -12 42 -12zM167 -82l-26 20l552 800
l26 -17z" />
    <glyph glyph-name="seveneighths" unicode="&#x215e;" horiz-adv-x="697" 
d="M374 88c0 54 49 79 95 93c-58 30 -76 60 -76 102c0 51 54 104 137 104c82 0 132 -36 132 -84c0 -51 -45 -76 -89 -91l7 -2c68 -31 94 -64 94 -105c0 -77 -83 -115 -151 -115c-80 0 -149 33 -149 98zM110 305h-64l194 301h-215v74h280v-5c-142 -254 -195 -370 -195 -370z
M29 -82l-26 20l552 800l26 -17zM541 146l-54 26c-26 -19 -40 -43 -40 -75c0 -48 36 -87 82 -87c39 0 69 27 69 65c0 32 -23 56 -57 71zM462 308c0 -29 13 -49 58 -71l34 -16c23 18 37 41 37 76c0 41 -30 70 -67 70c-35 0 -62 -22 -62 -59z" />
    <glyph glyph-name="uni24C5" unicode="&#x24c5;" horiz-adv-x="812" 
d="M400 315c83 3 119 43 119 98s-42 91 -137 94v-329l75 -11v-24h-216v24l60 11v319l-60 11v22h161c140 1 203 -42 203 -110c0 -85 -92 -131 -205 -126v21zM50 336c0 198 158 354 354 354c197 0 356 -156 356 -354c0 -199 -160 -354 -356 -354s-354 155 -354 354zM78 336
c0 -183 146 -331 326 -331s327 148 327 331s-147 331 -327 331s-326 -148 -326 -331z" />
    <glyph glyph-name="dollar.lin" horiz-adv-x="549" 
d="M50 35l-9 171h25l56 -143c20 -18 57 -37 111 -41l16 276l-42 11c-108 28 -161 88 -161 183c0 112 102 198 226 204l7 110h33l-6 -110c70 -3 123 -28 151 -43l3 -152h-26l-54 129c-20 17 -43 30 -76 34l-15 -268l58 -15c114 -30 158 -96 158 -169
c0 -132 -124 -218 -239 -226l-6 -108h-35l6 107c-79 3 -140 27 -181 50zM296 287l-13 3l-15 -270c77 7 132 66 132 138c0 73 -43 113 -104 129zM142 532c0 -61 28 -102 100 -122l13 -4l15 258c-72 -6 -128 -62 -128 -132z" />
    <glyph glyph-name="Euro.lin" horiz-adv-x="638" 
d="M39 400l4 33h74c43 164 179 264 325 264c68 0 151 -43 151 -102c0 -28 -16 -44 -59 -54c-38 79 -82 118 -147 118c-86 0 -156 -89 -175 -226h254l-4 -33h-253c-1 -15 -2 -32 -2 -48c0 -19 1 -39 3 -56h237l-4 -33h-227c29 -127 118 -203 215 -203c59 0 106 22 146 61
l14 -13c-53 -78 -121 -123 -211 -123c-145 0 -255 111 -275 278h-85l5 33h78c-1 7 -1 14 -1 22c0 29 3 55 8 82h-71z" />
    <glyph glyph-name="sterling.lin" horiz-adv-x="669" 
d="M140 292v35h128l35 152c44 191 177 269 250 269c50 0 102 -31 102 -79c0 -35 -26 -53 -72 -62c-12 57 -33 106 -70 106c-32 0 -63 -39 -88 -148l-54 -238h192v-35h-199c-25 -132 -105 -211 -177 -256c50 -18 99 -43 131 -60l41 -23c115 -66 144 -80 172 -80
c42 0 54 62 34 140c44 1 80 -2 80 -44c0 -48 -69 -138 -173 -138c-93 0 -180 56 -267 119l-76 56c-32 -13 -59 -19 -76 -19c-43 0 -56 17 -56 39c0 23 23 42 57 42c28 0 64 -9 101 -21c39 31 67 79 87 165l18 80h-120z" />
    <glyph glyph-name="yen.lin" horiz-adv-x="594" 
d="M68 279v32h164l-183 330l-53 15v24h257v-24l-80 -20l148 -298h3l164 293l-97 25v24h208v-24l-58 -21l-190 -324h172v-32h-175v-78h175v-33h-175v-124l83 -20v-24h-272v24l86 20v124h-177v33h177v78h-177z" />
    <glyph glyph-name="florin.lin" horiz-adv-x="478" 
d="M40 286l6 35h92l9 44c36 185 165 331 286 331c49 0 67 -26 67 -55c0 -30 -23 -56 -38 -70c-31 37 -58 77 -93 77c-34 0 -76 -36 -120 -254l-16 -73h139l-6 -35h-139l-52 -262c-37 -186 -140 -288 -237 -288c-28 0 -74 21 -74 60c0 33 22 54 40 63c27 -51 57 -79 86 -79
c33 0 57 60 75 155l67 351h-92z" />
    <glyph glyph-name="zero.lin" horiz-adv-x="661" 
d="M330 697c186 0 276 -173 276 -349c0 -228 -123 -366 -275 -366c-161 0 -276 140 -276 349c0 227 123 366 275 366zM321 668c-110 0 -155 -158 -155 -298c0 -163 56 -359 179 -359c103 0 151 159 151 306c0 183 -73 351 -175 351z" />
    <glyph glyph-name="one.lin" horiz-adv-x="388" 
d="M261 697v-652l106 -16v-29h-317v29l110 15v555l-123 -17l-8 28l227 87h5z" />
    <glyph glyph-name="two.lin" horiz-adv-x="520" 
d="M202 170l-81 -82h363v-88h-453v34l131 146c78 87 179 182 179 298c0 86 -59 136 -127 136c-67 0 -110 -34 -155 -106l-21 10c31 97 103 179 212 179s191 -77 191 -178c0 -120 -103 -212 -239 -349z" />
    <glyph glyph-name="three.lin" horiz-adv-x="484" 
d="M205 17c85 0 151 50 151 136c0 104 -107 167 -232 168v35c142 50 190 103 190 170c0 65 -44 99 -98 99c-53 0 -103 -27 -150 -84l-22 17c41 69 101 140 207 140c96 0 158 -60 158 -138c0 -87 -67 -134 -158 -183v-3c105 -14 198 -76 198 -173c0 -135 -143 -216 -272 -216
c-94 0 -151 45 -151 96c0 33 24 53 62 57c13 -37 33 -73 50 -101c8 -8 34 -20 67 -20z" />
    <glyph glyph-name="four.lin" horiz-adv-x="568" 
d="M402 677v-421h138v-73h-138v-140l86 -19v-24h-273v24l87 19v140h-287v25l365 477zM93 256h209v275z" />
    <glyph glyph-name="five.lin" horiz-adv-x="518" 
d="M433 584h-307l-13 -175c37 16 83 26 132 26c133 0 225 -81 225 -202c0 -159 -146 -249 -281 -249c-79 0 -152 39 -152 96c0 31 21 52 62 57c0 0 22 -67 48 -105c13 -10 34 -17 62 -17c101 0 167 64 167 162c0 96 -60 171 -168 171c-44 0 -82 -8 -127 -34l-7 1l24 365h335
v-96z" />
    <glyph glyph-name="six.lin" horiz-adv-x="575" 
d="M493 683c-164 -71 -284 -175 -321 -332c53 48 111 71 156 71c123 0 199 -88 199 -205c0 -118 -97 -237 -238 -237c-127 0 -236 88 -236 258c0 254 190 410 430 472zM278 370c-38 0 -75 -18 -112 -49c-3 -25 -5 -49 -5 -76c0 -159 67 -233 145 -233c68 0 116 53 116 164
c0 121 -63 194 -144 194z" />
    <glyph glyph-name="seven.lin" horiz-adv-x="480" 
d="M143 0h-69l315 581h-367v99h445v-10c-27 -48 -324 -670 -324 -670z" />
    <glyph glyph-name="eight.lin" horiz-adv-x="557" 
d="M50 151c0 93 79 141 160 186l-33 22c-56 40 -96 78 -96 157c0 95 95 182 221 182c105 0 186 -69 186 -150c0 -84 -70 -133 -146 -181l35 -24c73 -49 126 -87 126 -178c0 -115 -119 -185 -223 -185c-127 0 -230 61 -230 171zM276 291l-47 32c-61 -49 -83 -100 -83 -158
c0 -80 55 -155 141 -155c87 0 125 57 125 116c0 75 -62 115 -136 165zM170 556c0 -68 35 -97 97 -139l52 -36c52 49 76 94 76 148c0 95 -58 139 -119 139c-53 0 -106 -39 -106 -112z" />
    <glyph glyph-name="nine.lin" horiz-adv-x="572" 
d="M74 0c175 61 284 173 322 316c-44 -41 -88 -63 -144 -63c-121 0 -204 87 -204 208c0 117 97 238 239 238c123 0 232 -93 232 -270c0 -233 -166 -391 -436 -456zM301 305c37 0 75 18 102 48c4 26 8 52 8 80c0 164 -65 234 -136 234c-75 0 -122 -62 -122 -166
c0 -121 66 -196 148 -196z" />
    <glyph glyph-name="percent.lin" horiz-adv-x="759" 
d="M106 -51l501 781h42l-502 -781h-41zM204 668c-52 0 -76 -68 -76 -125c0 -80 33 -155 90 -155c49 0 74 66 74 126c0 87 -39 154 -88 154zM207 358c-85 0 -152 67 -152 163c0 101 76 176 158 176c96 0 153 -83 153 -165c0 -100 -72 -174 -159 -174zM534 290
c-52 0 -76 -68 -76 -125c0 -80 33 -155 89 -155c50 0 75 66 75 126c0 87 -40 154 -88 154zM537 -19c-85 0 -152 66 -152 162c0 101 72 176 158 176c96 0 152 -82 152 -164c0 -100 -75 -174 -158 -174z" />
    <glyph glyph-name="perthousand.lin" horiz-adv-x="1125" 
d="M106 -51l501 781h42l-502 -781h-41zM204 668c-52 0 -76 -68 -76 -125c0 -80 33 -155 90 -155c49 0 74 66 74 126c0 87 -39 154 -88 154zM207 358c-85 0 -152 67 -152 163c0 101 76 176 158 176c96 0 153 -83 153 -165c0 -100 -72 -174 -159 -174zM534 290
c-52 0 -76 -68 -76 -125c0 -80 33 -155 89 -155c50 0 75 66 75 126c0 87 -40 154 -88 154zM537 -19c-85 0 -152 66 -152 162c0 101 72 176 158 176c96 0 152 -82 152 -164c0 -100 -75 -174 -158 -174zM899 287c-52 0 -76 -68 -76 -125c0 -79 33 -155 89 -155
c50 0 75 67 75 126c0 87 -40 154 -88 154zM902 -23c-85 0 -151 68 -151 163c0 101 71 176 157 176c96 0 153 -82 153 -164c0 -100 -76 -175 -159 -175z" />
    <glyph glyph-name="plus.lin" horiz-adv-x="600" 
d="M543 295h-220v-222h-44v222h-222v40h222v222h44v-222h220v-40z" />
    <glyph glyph-name="minus.lin" horiz-adv-x="600" 
d="M543 295h-486v40h486v-40z" />
    <glyph glyph-name="multiply.lin" horiz-adv-x="600" 
d="M492 92l-195 195l-192 -196l-29 29l193 195l-191 195l30 30l192 -194l194 199l28 -30l-194 -198l194 -195z" />
    <glyph glyph-name="divide.lin" horiz-adv-x="600" 
d="M543 295h-486v40h486v-40zM300 416c-32 0 -61 29 -61 63c0 32 29 62 61 62c34 0 62 -30 62 -62c0 -34 -28 -63 -62 -63zM299 88c-32 0 -61 30 -61 63s29 62 61 62c34 0 62 -29 62 -62s-28 -63 -62 -63z" />
    <glyph glyph-name="equal.lin" horiz-adv-x="600" 
d="M543 377h-486v40h486v-40zM543 232h-486v40h486v-40z" />
    <glyph glyph-name="less.lin" horiz-adv-x="602" 
d="M542 513l-433 -200l433 -199v-44l-484 226v35l484 225v-43z" />
    <glyph glyph-name="greater.lin" horiz-adv-x="602" 
d="M59 114l434 199l-434 199v44l484 -226v-35l-484 -225v44z" />
    <glyph glyph-name="plusminus.lin" horiz-adv-x="600" 
d="M543 407h-220v-224h-44v224h-222v39h222v223h44v-223h220v-39zM57 0v39h486v-39h-486z" />
    <glyph glyph-name="notequal.lin" horiz-adv-x="600" 
d="M122 109h-41l113 123h-137v40h173l97 105h-270v40h305l113 123h44l-113 -123h137v-40h-174l-97 -105h271v-40h-307z" />
    <glyph glyph-name="approxequal.lin" horiz-adv-x="600" 
d="M88 362l-32 17c30 58 67 90 128 90c33 0 56 -6 101 -20l49 -16c45 -14 69 -17 91 -17c42 0 68 27 87 63l32 -16c-30 -54 -63 -88 -126 -88c-33 0 -66 7 -101 18l-51 17c-33 10 -63 18 -89 18c-43 0 -67 -29 -89 -66zM88 210l-32 16c30 59 67 90 128 90
c33 0 56 -5 101 -19l49 -15c45 -14 69 -19 91 -19c42 0 68 28 87 65l32 -18c-30 -53 -63 -88 -126 -88c-33 0 -66 10 -101 20l-51 15c-33 10 -63 18 -89 18c-43 0 -67 -28 -89 -65z" />
    <glyph glyph-name="lessequal.lin" horiz-adv-x="602" 
d="M542 0h-484v39h484v-39zM542 553l-418 -159l418 -158v-42l-485 184v33l485 184v-42z" />
    <glyph glyph-name="greaterequal.lin" horiz-adv-x="602" 
d="M542 0h-484v39h484v-39zM58 236l419 158l-419 159v42l485 -184v-33l-485 -184v42z" />
    <glyph glyph-name="numbersign.lin" horiz-adv-x="605" 
d="M87 482v40h129l28 157h38l-28 -157h161l27 157h37l-27 -157h126v-40h-134l-34 -197h122v-40h-130l-30 -174h-37l31 174h-161l-31 -174h-38l31 174h-125v40h132l35 197h-122zM247 482l-35 -197h161l35 197h-161z" />
    <glyph glyph-name="ordfeminine.lin" horiz-adv-x="440" 
d="M143 295c-47 0 -103 33 -103 98c0 67 51 89 138 111l85 21v68c-3 41 -31 76 -78 76c-23 0 -40 -7 -46 -11l-11 -89c-7 -3 -18 -5 -31 -5c-31 0 -45 13 -45 39c0 38 78 99 173 99c85 0 122 -39 122 -124v-211c0 -20 6 -26 29 -26h40v-20s-51 -24 -87 -24
c-45 0 -63 28 -64 64h-6c-40 -39 -63 -66 -116 -66zM188 353c40 0 65 24 75 36v113l-70 -22c-41 -12 -66 -30 -66 -62c0 -40 26 -65 61 -65z" />
    <glyph glyph-name="ordmasculine.lin" horiz-adv-x="467" 
d="M223 676c-66 0 -99 -70 -99 -160c0 -99 41 -194 121 -194c60 0 99 65 99 160c0 116 -49 194 -121 194zM233 292c-130 0 -199 94 -199 200c0 118 87 213 199 213c122 0 201 -76 201 -199c0 -119 -87 -214 -201 -214z" />
    <glyph glyph-name="zero.num" 
d="M204 692c112 0 175 -93 175 -190c0 -125 -83 -206 -174 -206c-104 0 -175 87 -175 200c0 116 83 196 174 196zM198 672c-55 0 -80 -83 -80 -166c0 -84 30 -190 96 -190c52 0 77 84 77 174s-38 182 -93 182z" />
    <glyph glyph-name="one.num" horiz-adv-x="256" 
d="M173 689v-350l73 -13v-21h-227v21l77 13v293h-79v22l149 35h7z" />
    <glyph glyph-name="two.num" horiz-adv-x="325" 
d="M178 430l-77 -58h203v-67h-285v25l81 72c75 68 113 107 113 161c0 46 -35 75 -78 75c-41 0 -63 -25 -93 -63l-18 12c30 61 77 105 146 105c71 0 121 -38 121 -103c0 -71 -48 -110 -113 -159z" />
    <glyph glyph-name="three.num" horiz-adv-x="307" 
d="M131 318c45 0 78 33 78 75c0 53 -49 87 -137 87v26c81 9 122 47 122 84c0 32 -22 55 -63 55c-30 0 -65 -18 -95 -59l-19 11c27 53 74 95 145 95c69 0 106 -35 106 -80c0 -48 -39 -73 -97 -96v-4c75 -4 116 -40 116 -93c0 -75 -84 -122 -161 -122c-78 0 -122 30 -122 65
c0 20 16 36 44 37l41 -70c7 -5 23 -11 42 -11z" />
    <glyph glyph-name="four.num" horiz-adv-x="340" 
d="M253 684v-233h76v-50h-76v-64l55 -11v-21h-185v21l55 11v64h-175v26l223 263zM53 451h125v149z" />
    <glyph glyph-name="five.num" horiz-adv-x="317" 
d="M272 611h-203l-4 -87c25 10 57 20 90 20c86 0 139 -44 139 -110c0 -92 -89 -137 -166 -137c-63 0 -121 23 -121 64c0 23 19 37 44 37l42 -72c8 -4 21 -9 40 -9c44 0 83 30 83 81c0 49 -37 82 -90 82c-37 0 -61 -11 -86 -22l-3 1l11 221h224v-69z" />
    <glyph glyph-name="six.num" horiz-adv-x="351" 
d="M308 679c-106 -37 -169 -88 -189 -165c32 27 64 35 92 35c77 0 122 -50 122 -116c0 -82 -75 -138 -147 -138c-91 0 -157 59 -157 154c0 153 141 232 275 248zM173 515c-23 0 -45 -12 -59 -26c-1 -11 -2 -22 -2 -34c0 -91 34 -140 79 -140c34 0 61 27 61 87
c0 68 -33 113 -79 113z" />
    <glyph glyph-name="seven.num" horiz-adv-x="290" 
d="M100 305h-63l193 301h-215v74h281v-5c-142 -254 -196 -370 -196 -370z" />
    <glyph glyph-name="eight.num" horiz-adv-x="342" 
d="M18 394c0 53 49 77 96 92c-59 30 -76 59 -76 102c0 51 54 104 137 104c82 0 131 -35 131 -84c0 -51 -44 -76 -88 -91l6 -2c68 -31 94 -62 94 -104c0 -77 -82 -116 -150 -116c-80 0 -150 33 -150 99zM185 453l-54 25c-25 -20 -39 -44 -39 -76c0 -48 36 -86 82 -86
c39 0 69 26 69 64c0 33 -24 57 -58 73zM106 613c0 -28 14 -50 59 -70l34 -17c23 19 37 42 37 77c0 40 -30 70 -67 70c-35 0 -63 -23 -63 -60z" />
    <glyph glyph-name="nine.num" horiz-adv-x="353" 
d="M35 312c115 30 177 89 197 162c-24 -20 -52 -34 -87 -34c-71 0 -126 44 -126 118c0 78 69 135 152 135c84 0 154 -57 154 -156c0 -150 -127 -232 -286 -243zM181 474c23 0 45 13 57 26c2 10 3 21 3 32c0 96 -38 141 -80 141c-37 0 -61 -32 -61 -83c0 -68 33 -116 81 -116
z" />
    <glyph glyph-name="zero.den" 
d="M204 387c112 0 175 -93 175 -191c0 -125 -83 -205 -174 -205c-104 0 -175 85 -175 198c0 117 83 198 174 198zM198 367c-55 0 -80 -83 -80 -167c0 -83 30 -189 96 -189c52 0 77 83 77 174c0 90 -38 182 -93 182z" />
    <glyph glyph-name="one.den" horiz-adv-x="256" 
d="M173 383v-349l73 -14v-20h-227v20l77 14v293h-79v22l149 34h7z" />
    <glyph glyph-name="two.den" horiz-adv-x="325" 
d="M178 125l-78 -59h204v-66h-285v25l81 72c75 67 113 107 113 161c0 46 -35 75 -78 75c-41 0 -63 -25 -93 -63l-18 11c30 62 77 106 146 106c71 0 121 -40 121 -103c0 -71 -48 -110 -113 -159z" />
    <glyph glyph-name="three.den" horiz-adv-x="307" 
d="M131 12c45 0 78 34 78 75c0 54 -49 88 -137 88v25c81 10 122 48 122 84c0 33 -22 56 -63 56c-30 0 -65 -18 -95 -60l-19 11c27 54 74 96 145 96c69 0 106 -35 106 -80c0 -48 -39 -74 -97 -97v-4c75 -3 116 -39 116 -92c0 -75 -84 -122 -161 -122c-78 0 -122 30 -122 64
c0 22 16 36 44 38l41 -70c7 -6 23 -12 42 -12z" />
    <glyph glyph-name="four.den" horiz-adv-x="340" 
d="M253 378v-233h76v-50h-76v-63l55 -12v-20h-185v20l55 11v64h-175v27l223 263zM53 145h125v150z" />
    <glyph glyph-name="five.den" horiz-adv-x="317" 
d="M272 306h-203l-4 -87c25 10 57 20 90 20c86 0 139 -44 139 -111c0 -92 -89 -136 -166 -136c-63 0 -121 23 -121 64c0 22 19 36 44 36l42 -72c8 -4 21 -8 40 -8c44 0 83 30 83 81c0 49 -37 81 -90 81c-37 0 -61 -10 -86 -22l-3 1l11 222h224v-69z" />
    <glyph glyph-name="six.den" horiz-adv-x="351" 
d="M308 374c-105 -37 -169 -88 -189 -165c32 27 64 35 92 35c77 0 122 -50 122 -116c0 -83 -75 -139 -147 -139c-91 0 -157 59 -157 154c0 153 141 233 275 249zM173 210c-23 0 -45 -12 -59 -26c-1 -11 -2 -24 -2 -36c0 -90 34 -138 79 -138c34 0 61 26 61 86
c0 69 -33 114 -79 114z" />
    <glyph glyph-name="seven.den" horiz-adv-x="290" 
d="M100 0h-63l193 301h-215v74h281v-6c-142 -253 -196 -369 -196 -369z" />
    <glyph glyph-name="eight.den" horiz-adv-x="342" 
d="M18 88c0 54 50 79 96 93c-58 30 -76 60 -76 102c0 51 54 104 137 104c82 0 131 -36 131 -84c0 -51 -44 -76 -88 -91l6 -2c68 -31 94 -64 94 -105c0 -77 -82 -115 -150 -115c-80 0 -150 33 -150 98zM185 146l-53 26c-26 -19 -40 -43 -40 -75c0 -48 36 -87 82 -87
c39 0 69 27 69 65c0 32 -24 56 -58 71zM106 308c0 -29 14 -49 59 -71l34 -16c23 18 37 41 37 76c0 41 -30 70 -67 70c-35 0 -63 -22 -63 -59z" />
    <glyph glyph-name="nine.den" horiz-adv-x="353" 
d="M35 6c114 30 175 89 197 163c-25 -20 -52 -34 -87 -34c-71 0 -126 44 -126 118c0 78 69 135 152 135c84 0 154 -59 154 -158c0 -148 -127 -231 -286 -241zM181 168c24 0 45 13 57 27c2 10 3 21 3 32c0 96 -38 140 -80 140c-37 0 -61 -32 -61 -82c0 -69 33 -117 81 -117z
" />
    <glyph glyph-name="zero.sub" 
d="M204 336c112 0 175 -94 175 -192c0 -125 -83 -204 -174 -204c-104 0 -175 85 -175 198c0 117 83 198 174 198zM198 315c-55 0 -80 -83 -80 -167c0 -83 30 -188 96 -188c52 0 77 83 77 174c0 90 -38 181 -93 181z" />
    <glyph glyph-name="one.sub" horiz-adv-x="256" 
d="M173 332v-349l73 -14v-20h-227v20l77 14v292h-79v23l149 34h7z" />
    <glyph glyph-name="two.sub" horiz-adv-x="325" 
d="M178 74l-78 -60h204v-65h-285v24l81 73c75 67 113 107 113 161c0 46 -35 75 -78 75c-41 0 -63 -25 -93 -63l-18 10c30 62 77 107 146 107c71 0 121 -41 121 -104c0 -71 -48 -109 -113 -158z" />
    <glyph glyph-name="three.sub" horiz-adv-x="307" 
d="M131 -39c45 0 78 34 78 75c0 54 -49 88 -137 88v24c81 10 122 48 122 84c0 33 -22 57 -63 57c-30 0 -65 -19 -95 -61l-19 12c27 54 74 96 145 96c69 0 106 -35 106 -80c0 -48 -39 -74 -97 -97v-4c75 -3 116 -40 116 -93c0 -75 -84 -121 -161 -121c-78 0 -122 30 -122 64
c0 22 16 36 44 38l41 -71c7 -6 23 -11 42 -11z" />
    <glyph glyph-name="four.sub" horiz-adv-x="340" 
d="M253 327v-233h76v-50h-76v-63l55 -12v-20h-185v20l55 11v64h-175v27l223 263zM53 94h125v150z" />
    <glyph glyph-name="five.sub" horiz-adv-x="317" 
d="M272 255h-203l-4 -87c25 10 57 19 90 19c86 0 139 -43 139 -110c0 -92 -89 -136 -166 -136c-63 0 -121 23 -121 64c0 22 19 36 44 36l42 -72c8 -4 21 -8 40 -8c44 0 83 30 83 81c0 49 -37 81 -90 81c-37 0 -61 -11 -86 -23l-3 1l11 223h224v-69z" />
    <glyph glyph-name="six.sub" horiz-adv-x="351" 
d="M308 323c-105 -37 -169 -88 -189 -165c32 27 64 35 92 35c77 0 122 -50 122 -116c0 -83 -75 -139 -147 -139c-91 0 -157 59 -157 154c0 153 141 233 275 249zM173 159c-23 0 -45 -12 -59 -26c-1 -11 -2 -24 -2 -36c0 -90 34 -138 79 -138c34 0 61 26 61 86
c0 69 -33 114 -79 114z" />
    <glyph glyph-name="seven.sub" horiz-adv-x="290" 
d="M100 -51h-63l193 301h-215v74h281v-7c-142 -253 -196 -368 -196 -368z" />
    <glyph glyph-name="eight.sub" horiz-adv-x="342" 
d="M18 37c0 54 50 79 96 93c-58 30 -76 59 -76 101c0 51 54 105 137 105c82 0 131 -36 131 -84c0 -51 -44 -76 -88 -91l6 -2c68 -31 94 -64 94 -105c0 -77 -82 -115 -150 -115c-80 0 -150 33 -150 98zM185 95l-53 26c-26 -19 -40 -43 -40 -75c0 -48 36 -87 82 -87
c39 0 69 27 69 65c0 32 -24 56 -58 71zM106 257c0 -29 14 -50 59 -72l34 -15c23 18 37 41 37 76c0 41 -30 69 -67 69c-35 0 -63 -21 -63 -58z" />
    <glyph glyph-name="nine.sub" horiz-adv-x="353" 
d="M35 -45c114 31 175 89 197 163c-25 -20 -52 -34 -87 -34c-71 0 -126 44 -126 118c0 78 69 135 152 135c84 0 154 -59 154 -158c0 -148 -127 -231 -286 -241zM181 117c24 0 45 12 57 26c2 10 3 22 3 33c0 96 -38 139 -80 139c-37 0 -61 -32 -61 -82c0 -69 33 -116 81 -116
z" />
    <glyph glyph-name="plus.sub" horiz-adv-x="355" 
d="M324 108h-129v-118h-35v118h-128v31h128v118h35v-118h129v-31z" />
    <glyph glyph-name="minus.sub" horiz-adv-x="355" 
d="M324 108h-292v31h292v-31z" />
    <glyph glyph-name="zero.sup" 
d="M204 776c112 0 175 -93 175 -190c0 -125 -83 -205 -174 -205c-104 0 -175 86 -175 199c0 116 83 196 174 196zM198 757c-55 0 -80 -84 -80 -167s30 -190 96 -190c52 0 77 84 77 174c0 91 -38 183 -93 183z" />
    <glyph glyph-name="one.sup" horiz-adv-x="256" 
d="M173 773v-350l73 -12v-21h-227v21l77 12v294h-79v21l149 35h7z" />
    <glyph glyph-name="two.sup" horiz-adv-x="325" 
d="M178 514l-77 -58h203v-66h-285v24l81 72c75 68 113 108 113 161c0 46 -35 75 -78 75c-41 0 -63 -25 -93 -63l-18 12c30 62 77 106 146 106c71 0 121 -40 121 -103c0 -72 -48 -110 -113 -160z" />
    <glyph glyph-name="three.sup" horiz-adv-x="307" 
d="M131 402c45 0 78 33 78 75c0 53 -49 88 -137 88v25c81 9 122 48 122 84c0 32 -22 55 -63 55c-30 0 -65 -18 -95 -59l-19 11c27 54 74 96 145 96c69 0 106 -36 106 -80c0 -49 -39 -74 -97 -97v-4c75 -3 116 -39 116 -92c0 -76 -84 -123 -161 -123c-78 0 -122 31 -122 65
c0 20 16 36 44 38l41 -71c7 -5 23 -11 42 -11z" />
    <glyph glyph-name="four.sup" horiz-adv-x="340" 
d="M253 768v-233h76v-50h-76v-64l55 -11v-20h-185v20l55 11v64h-175v26l223 263zM52 535h126v150z" />
    <glyph glyph-name="five.sup" horiz-adv-x="317" 
d="M272 695h-203l-4 -86c25 10 57 19 90 19c86 0 139 -44 139 -110c0 -92 -89 -137 -166 -137c-63 0 -121 24 -121 64c0 23 19 37 44 37l42 -71c8 -4 21 -9 40 -9c44 0 83 29 83 80c0 49 -37 82 -90 82c-37 0 -61 -11 -86 -22l-3 1l11 221h224v-69z" />
    <glyph glyph-name="six.sup" horiz-adv-x="351" 
d="M308 763c-105 -37 -169 -87 -189 -164c32 26 64 34 92 34c77 0 122 -49 122 -116c0 -82 -75 -138 -147 -138c-91 0 -157 59 -157 155c0 153 141 232 275 247zM173 599c-23 0 -45 -12 -59 -26c-1 -11 -2 -22 -2 -34c0 -91 34 -140 79 -140c34 0 61 27 61 87
c0 68 -33 113 -79 113z" />
    <glyph glyph-name="seven.sup" horiz-adv-x="290" 
d="M100 390h-63l193 300h-215v74h281v-5c-142 -254 -196 -369 -196 -369z" />
    <glyph glyph-name="eight.sup" horiz-adv-x="342" 
d="M18 478c0 54 49 78 96 92c-59 30 -76 59 -76 102c0 51 54 105 137 105c82 0 131 -36 131 -85c0 -51 -44 -76 -88 -91l6 -2c68 -30 94 -61 94 -104c0 -77 -82 -116 -150 -116c-80 0 -150 33 -150 99zM185 537l-54 25c-25 -20 -39 -44 -39 -75c0 -48 36 -87 82 -87
c39 0 69 26 69 64c0 33 -24 57 -58 73zM106 698c0 -29 14 -49 59 -71l34 -17c23 19 37 42 37 77c0 41 -30 70 -67 70c-35 0 -63 -23 -63 -59z" />
    <glyph glyph-name="nine.sup" horiz-adv-x="353" 
d="M35 396c114 29 175 89 197 162c-25 -20 -52 -34 -87 -34c-71 0 -126 45 -126 118c0 78 69 136 152 136c84 0 154 -58 154 -157c0 -148 -127 -232 -286 -243zM181 558c24 0 45 13 57 27c2 10 3 21 3 32c0 95 -38 140 -80 140c-37 0 -61 -32 -61 -83c0 -68 33 -116 81 -116
z" />
    <glyph glyph-name="plus.sup" horiz-adv-x="355" 
d="M324 549h-129v-118h-35v118h-128v32h128v117h35v-117h129v-32z" />
    <glyph glyph-name="minus.sup" horiz-adv-x="355" 
d="M324 549h-292v32h292v-32z" />
    <glyph glyph-name="uni2033" unicode="&#x2033;" horiz-adv-x="418" 
d="M72 524l34 240h92v-8l-103 -232h-23zM244 524l35 240h91v-8l-103 -232h-23z" />
    <glyph glyph-name="uni2032" unicode="&#x2032;" horiz-adv-x="246" 
d="M72 524l34 240h92v-8l-103 -232h-23z" />
    <glyph glyph-name="bullet.alt" horiz-adv-x="348" 
d="M188 745c29 0 57 -21 57 -48c0 -35 -50 -86 -59 -96h-7c-6 10 -46 62 -46 92c0 28 23 52 55 52zM25 590c0 38 30 55 56 55c48 0 69 -37 97 -74h8c44 44 58 61 95 61c34 0 54 -28 54 -60c0 -37 -27 -64 -62 -64c-33 0 -59 25 -89 50h-3c-10 -11 -18 -30 -18 -43
c0 -37 28 -51 68 -77c37 -24 70 -45 70 -83c0 -34 -25 -65 -71 -60c-3 -12 -15 -29 -42 -29c-23 0 -38 10 -61 44c-13 20 -26 55 -58 55c-28 0 -41 -21 -41 -44h-11c-14 53 19 87 59 87c57 0 72 -69 107 -69c20 0 29 13 29 28c0 50 -84 60 -84 123c0 25 13 47 36 70l-3 2
c-32 -15 -61 -24 -81 -24c-35 0 -55 20 -55 52z" />
    <glyph glyph-name="f.short" horiz-adv-x="322" 
d="M30 0v23l61 20v393h-74v29l75 22l1 38c3 135 86 240 187 240c52 0 104 -33 104 -74c0 -44 -39 -58 -80 -53l-23 93c-6 2 -13 3 -19 3c-53 0 -79 -57 -78 -128l2 -122h136v-42h-135v-399l76 -20v-23h-233z" />
    <glyph glyph-name="f_f.short" horiz-adv-x="617" 
d="M325 0v23l60 20v399h-198v-399l74 -20v-23h-231v23l61 20v393h-74v29l75 21c20 158 134 251 239 251c52 0 88 -19 113 -42c34 44 80 70 130 70c52 0 105 -33 105 -74c0 -44 -39 -58 -81 -53l-24 93c-5 2 -11 3 -17 3c-53 0 -79 -57 -78 -128l1 -122h135v-42h-134v-399
l77 -20v-23h-233zM187 506v-22h198c0 59 8 104 22 141c-19 43 -55 76 -108 76c-56 0 -112 -47 -112 -195z" />
    <glyph glyph-name="i.ger" horiz-adv-x="266" 
d="M25 0v23l62 21v351l-60 35v14l156 54v-455l71 -20v-23h-229zM129 589c-35 0 -67 30 -67 65c0 34 32 65 67 65c33 0 65 -31 65 -65c0 -35 -32 -65 -65 -65z" />
    <glyph glyph-name="j.ger" horiz-adv-x="261" 
d="M-8 -254l-5 17c84 46 97 101 100 251v381l-59 35v14l154 54v-465c0 -83 -5 -146 -36 -188c-42 -54 -94 -80 -154 -99zM130 589c-35 0 -67 30 -67 65c0 34 32 65 67 65c33 0 65 -31 65 -65c0 -35 -32 -65 -65 -65z" />
    <glyph glyph-name="adieresis.ger" horiz-adv-x="481" 
d="M160 -15c-59 0 -124 37 -124 120c0 82 59 120 167 148l101 26v58c0 77 -39 124 -94 124c-29 0 -53 -10 -66 -21l-5 -104c-11 -3 -26 -5 -42 -5c-30 0 -50 16 -50 43c0 50 92 124 205 124c105 0 148 -50 148 -149v-281c0 -23 6 -30 32 -30h51v-16s-60 -34 -100 -34
c-54 0 -75 32 -77 81h-4c-39 -45 -75 -84 -142 -84zM212 50c42 0 74 29 92 54v148l-100 -34c-50 -16 -70 -45 -70 -83c0 -44 25 -85 78 -85zM333 594c-33 0 -61 26 -61 59s28 61 61 61s61 -28 61 -61s-28 -59 -61 -59zM141 594c-34 0 -60 26 -60 59s26 61 60 61
c33 0 61 -28 61 -61s-28 -59 -61 -59z" />
    <glyph glyph-name="odieresis.ger" horiz-adv-x="562" 
d="M185 594c-34 0 -60 26 -60 59s26 61 60 61c33 0 61 -28 61 -61s-28 -59 -61 -59zM377 594c-33 0 -61 26 -61 59s28 61 61 61s61 -28 61 -61s-28 -59 -61 -59zM265 466c-90 0 -125 -92 -125 -192c0 -121 51 -256 157 -256c77 0 125 83 125 193c0 160 -69 255 -157 255z
M282 -16c-158 0 -247 119 -247 246c0 147 111 270 247 270c147 0 245 -97 245 -245c0 -150 -108 -271 -245 -271z" />
    <glyph glyph-name="udieresis.ger" horiz-adv-x="569" 
d="M396 -15l-10 91c-25 -31 -85 -93 -163 -93c-95 0 -143 63 -143 162v279l-65 25v17l161 26v-326c0 -78 37 -114 98 -114c51 0 93 30 111 46v326l-75 22v19l170 27v-437l73 -25v-19zM377 594c-33 0 -61 26 -61 59s28 61 61 61s61 -28 61 -61s-28 -59 -61 -59zM185 594
c-34 0 -60 26 -60 59s26 61 60 61c33 0 61 -28 61 -61s-28 -59 -61 -59z" />
    <glyph glyph-name="questiondown.uc" horiz-adv-x="368" 
d="M298 86v-109l-32 8c-96 20 -237 115 -237 248c0 65 34 108 106 135l86 29l-4 97h37l25 -170l-126 -42c-59 -19 -88 -41 -88 -74c0 -51 73 -104 193 -117zM236 700c36 0 67 -30 67 -68c0 -36 -31 -68 -67 -68c-37 0 -69 32 -69 68c0 38 32 68 69 68z" />
    <glyph glyph-name="exclamdown.uc" horiz-adv-x="276" 
d="M191 -22h-108l42 516h26zM138 700c36 0 68 -30 68 -68c0 -36 -32 -68 -68 -68c-37 0 -68 32 -68 68c0 38 31 68 68 68z" />
    <glyph glyph-name="hyphen.uc" horiz-adv-x="381" 
d="M55 300v66h271v-66h-271z" />
    <glyph glyph-name="endash.uc" horiz-adv-x="499" 
d="M45 313v39h410v-39h-410z" />
    <glyph glyph-name="emdash.uc" horiz-adv-x="909" 
d="M45 313v39h819v-39h-819z" />
    <glyph glyph-name="guilsinglleft.uc" horiz-adv-x="309" 
d="M221 455l18 -17l-116 -171l115 -166l-17 -15l-170 174v14z" />
    <glyph glyph-name="guilsinglright.uc" horiz-adv-x="309" 
d="M87 86l-16 16l115 171l-114 166l15 16l171 -174v-15z" />
    <glyph glyph-name="guillemotleft.uc" horiz-adv-x="475" 
d="M221 455l18 -17l-116 -171l115 -166l-17 -15l-170 174v14zM388 455l18 -17l-116 -171l114 -166l-16 -15l-170 174v14z" />
    <glyph glyph-name="guillemotright.uc" horiz-adv-x="475" 
d="M254 86l-16 16l115 171l-114 166l15 16l171 -174v-15zM87 86l-16 16l115 171l-114 166l15 16l171 -174v-15z" />
    <glyph glyph-name="parenleft.uc" horiz-adv-x="353" 
d="M339 -143h-39c-122 126 -199 285 -199 464c0 183 82 344 204 470h38c-104 -143 -162 -274 -162 -470c0 -186 55 -321 158 -464z" />
    <glyph glyph-name="parenright.uc" horiz-adv-x="353" 
d="M13 791h38c122 -126 200 -285 200 -464c0 -183 -82 -344 -204 -470h-38c104 143 162 274 162 470c0 186 -55 321 -158 464z" />
    <glyph glyph-name="bracketleft.uc" horiz-adv-x="303" 
d="M302 -144h-190v936h190v-31h-102v-875h102v-30z" />
    <glyph glyph-name="bracketright.uc" horiz-adv-x="303" 
d="M1 792h190v-936h-190v30h102v875h-102v31z" />
    <glyph glyph-name="braceleft.uc" horiz-adv-x="346" 
d="M110 325v-2c80 -12 118 -35 118 -119v-195c0 -99 27 -133 103 -133v-20h-16c-146 -1 -182 63 -171 179l18 179c5 53 -17 87 -76 90l-30 1v37l30 1c59 3 81 37 76 90l-18 179c-11 116 25 181 171 180h16v-21c-76 0 -103 -34 -103 -134v-194c0 -84 -38 -106 -118 -118z" />
    <glyph glyph-name="braceright.uc" horiz-adv-x="346" 
d="M237 323v2c-80 12 -119 34 -119 118v195c0 99 -27 133 -103 133v21h16c146 1 182 -64 171 -180l-18 -179c-5 -53 17 -87 76 -90l30 -1v-37l-30 -1c-59 -3 -81 -37 -76 -90l18 -179c11 -116 -25 -180 -171 -179h-16v20c76 0 103 34 103 134v194c0 84 39 107 119 119z" />
    <glyph glyph-name="slash.uc" horiz-adv-x="433" 
d="M9 -173l-34 15l417 966l34 -16z" />
    <glyph glyph-name="backslash.uc" horiz-adv-x="433" 
d="M457 -158l-34 -15l-417 965l34 16z" />
    <glyph glyph-name="bar.uc" horiz-adv-x="226" 
d="M131 -168h-36v960h36v-960z" />
    <glyph glyph-name="at.uc" horiz-adv-x="958" 
d="M520 223l12 41h-2l-43 -61c-41 -58 -102 -123 -160 -123c-53 0 -79 41 -79 94c0 181 200 367 317 367c23 0 49 -12 66 -25l11 38h66l-102 -337c-24 -80 -5 -107 39 -107c66 0 200 82 200 280c1 174 -135 316 -319 316c-198 0 -397 -174 -397 -425
c-1 -241 158 -366 358 -366c71 0 123 19 148 28v-17c-3 -2 -84 -39 -188 -39c-197 0 -394 101 -394 362c0 271 253 486 494 486c230 0 361 -152 361 -331c0 -202 -179 -325 -295 -325c-79 0 -123 47 -93 144zM381 148c56 0 167 167 197 260l19 61c-16 20 -38 39 -60 39
c-84 0 -191 -172 -191 -309c0 -35 11 -51 35 -51z" />
    <glyph glyph-name="Q.cap" horiz-adv-x="793" 
d="M398 697c225 0 353 -176 353 -339c0 -194 -121 -327 -272 -362c176 -135 282 -181 432 -181c95 0 184 29 251 75l16 -18c-63 -55 -160 -121 -317 -121c-181 0 -264 40 -544 245c-145 35 -269 163 -269 345c0 216 167 356 350 356zM415 16c154 0 219 151 219 308
c0 176 -106 342 -249 342c-153 0 -221 -142 -221 -301c0 -158 82 -349 251 -349z" />
    <glyph glyph-name="Q.short" horiz-adv-x="793" 
d="M398 697c225 0 353 -176 353 -339c0 -203 -132 -339 -291 -367c106 -89 160 -134 239 -134c35 0 65 7 91 19l11 -14c-38 -33 -85 -59 -148 -59c-132 0 -212 82 -338 193c-144 36 -267 164 -267 345c0 216 167 356 350 356zM415 16c154 0 219 151 219 308
c0 176 -106 342 -249 342c-153 0 -221 -142 -221 -301c0 -158 82 -349 251 -349z" />
    <glyph glyph-name="uni2009" unicode="&#x2009;" horiz-adv-x="69" 
 />
    <glyph glyph-name="space.uc" horiz-adv-x="195" 
 />
    </font>
</defs>
</svg>
